<?xml version="1.0" encoding="utf-8"?>
<!-- Generator: Adobe Illustrator 24.0.0, SVG Export Plug-In . SVG Version: 6.00 Build 0)  -->
<svg version="1.1"
	 id="svg5332" xmlns:cc="http://creativecommons.org/ns#" xmlns:dc="http://purl.org/dc/elements/1.1/" xmlns:rdf="http://www.w3.org/1999/02/22-rdf-syntax-ns#" xmlns:svg="http://www.w3.org/2000/svg"
	 xmlns="http://www.w3.org/2000/svg" xmlns:xlink="http://www.w3.org/1999/xlink" x="0px" y="0px" viewBox="0 0 204.8 204.8"
	 style="enable-background:new 0 0 204.8 204.8;" xml:space="preserve">
<style type="text/css">
	.st0{fill:#FFFFFF;}
</style>
<title  id="title6870">Cloud</title>
<g id="layer1" transform="translate(-362.5464,-406.21469)">
	<path id="path10000" class="st0" d="M445.2,454.8c-15.1,0-30.1,6.2-40.8,16.9c-6.7,6.7-11.7,15.2-14.4,24.3
		c-6.6,1.2-12.8,4.5-17.6,9.2c-6.2,6.2-9.8,14.9-9.8,23.7c0,8.8,3.6,17.5,9.8,23.7c6.2,6.2,14.9,9.8,23.7,9.8H546
		c5.6,0,11.2-2.3,15.1-6.3c4-4,6.3-9.5,6.3-15.1c0-5.6-2.3-11.2-6.3-15.1c-3.9-3.9-9.4-6.2-15-6.3c-1.1-10.1-5.7-19.9-12.9-27.1
		c-8.3-8.3-20-13.1-31.7-13.1c-2.9,0-5.7,0.3-8.5,0.8c-2-3.1-4.4-5.9-7-8.5C475.3,461.1,460.3,454.8,445.2,454.8L445.2,454.8z"/>
</g>
</svg>
