<?xml version="1.0" encoding="utf-8"?>
<!-- Generator: Adobe Illustrator 24.0.0, SVG Export Plug-In . SVG Version: 6.00 Build 0)  -->
<svg version="1.1" id="Layer_1" xmlns="http://www.w3.org/2000/svg" xmlns:xlink="http://www.w3.org/1999/xlink" x="0px" y="0px"
	 viewBox="0 0 100 100" style="enable-background:new 0 0 100 100;" xml:space="preserve">
<style type="text/css">
	.st0{fill:#98C79C;}
	.st1{fill:#ABD1AD;}
	.st2{fill:#F6D563;}
	.st3{fill:#FFE477;}
	.st4{fill:#FFFFFF;}
</style>
<g id="XMLID_90_">
	<circle id="XMLID_91_" class="st0" cx="43.4" cy="65.3" r="4.9"/>
	<circle id="XMLID_92_" class="st1" cx="58.1" cy="75.1" r="4.9"/>
	<circle id="XMLID_93_" class="st1" cx="56.3" cy="63.5" r="2.4"/>
	<circle id="XMLID_102_" class="st0" cx="45.9" cy="77.6" r="2.4"/>
	<path id="XMLID_47_" class="st1" d="M76.5,65l-10-1.4c-0.3,0-0.5-0.3-0.5-0.6l1-7.1c0-0.3,0.3-0.5,0.6-0.5l10,1.4
		c2.3,0.3,3.9,2.4,3.5,4.7l0,0C80.9,63.7,78.8,65.3,76.5,65z"/>
	<path id="XMLID_46_" class="st1" d="M73.6,74.4l-10-1.4c-0.3,0-0.5-0.3-0.5-0.6l1-7.1c0-0.3,0.3-0.5,0.6-0.5l10,1.4
		c2.3,0.3,3.9,2.4,3.5,4.7l0,0C77.9,73.1,75.8,74.7,73.6,74.4z"/>
	<path id="XMLID_45_" class="st1" d="M49.2,94.9V79.1h11.7v15.8c0,2.8-2.3,5.1-5.1,5.1h-1.6C51.5,100,49.2,97.7,49.2,94.9z"/>
	<path id="XMLID_44_" class="st1" d="M63.6,100h-8.3c-2.5,0-4.5-2-4.5-4.5V95c0-2.5,2-4.5,4.5-4.5h8.3c2.3,0,4.1,1.8,4.1,4.1v1.3
		C67.6,98.2,65.8,100,63.6,100z"/>
	<path id="XMLID_43_" class="st0" d="M29.3,94.9V79.1H41v15.8c0,2.8-2.3,5.1-5.1,5.1h-1.6C31.5,100,29.3,97.7,29.3,94.9z"/>
	<path id="XMLID_42_" class="st0" d="M43.6,100h-8.3c-2.5,0-4.5-2-4.5-4.5V95c0-2.5,2-4.5,4.5-4.5h8.3c2.3,0,4.1,1.8,4.1,4.1v1.3
		C47.7,98.2,45.9,100,43.6,100z"/>
	<path id="XMLID_103_" class="st1" d="M23.6,83.3c3.2,2.2,14.6,7.5,14.9,3.5c2.9,0.8,9.8,0.4,12.2-0.2c0.3,3.9,18.4,0.8,18.4-21.9
		c0-19.3-1.8-20.7-3.1-27.5c-0.4-2,3.7-0.5,9.2,0c6.6,0.6,16-4.9,15.3-15.3C90,14,82.4-3.1,63,0.5C50.4,2.8,49.8,20.9,50.8,37.2
		c0.8,13.6-5.8,21.6-18.4,21.4c-20.3-0.3-11.7-21.2-11.7-21.2S11,41.5,11,60.1C11,72.2,16.8,78.7,23.6,83.3z"/>
	<path id="XMLID_105_" class="st0" d="M49.2,79.1v15.8c0,1.4,0.6,2.7,1.6,3.7V79.1H49.2z"/>
	<g id="XMLID_106_">
		<path id="XMLID_107_" class="st0" d="M50.8,37.2c0,0.1,0,0.3,0,0.4V20.2C50.3,25.6,50.4,31.5,50.8,37.2z"/>
		<path id="XMLID_108_" class="st0" d="M11,60.1c0,12,5.8,18.5,12.6,23.2c3.2,2.2,14.6,7.5,14.9,3.5c2.9,0.8,9.8,0.4,12.2-0.2v0.1
			V41.1c-0.6,11.2-7.1,17.6-18.4,17.5c-20.2-0.3-11.6-21.2-11.6-21.2S11,41.5,11,60.1z"/>
	</g>
	<circle id="XMLID_109_" class="st2" cx="43.4" cy="65.3" r="4.9"/>
	<circle id="XMLID_34_" class="st2" cx="16.8" cy="67.5" r="3.4"/>
	<circle id="XMLID_110_" class="st3" cx="56.3" cy="63.5" r="2.4"/>
	<circle id="XMLID_138_" class="st2" cx="45.9" cy="77.6" r="2.4"/>
	<circle id="XMLID_3_" class="st2" cx="14.7" cy="61.4" r="1.4"/>
	<circle id="XMLID_104_" class="st4" cx="71.7" cy="15" r="4.5"/>
	<circle id="XMLID_1_" cx="71.7" cy="15" r="2.3"/>
</g>
</svg>
