<?xml version="1.0" encoding="iso-8859-1"?>
<!-- Generator: Adobe Illustrator 19.0.0, SVG Export Plug-In . SVG Version: 6.00 Build 0)  -->
<svg version="1.1" id="Layer_1" xmlns="http://www.w3.org/2000/svg" xmlns:xlink="http://www.w3.org/1999/xlink" x="0px" y="0px"
	 viewBox="0 0 512 512" style="enable-background:new 0 0 512 512;" xml:space="preserve">
<path style="fill:#53E7D3;" d="M457.097,212.211l-26.235-40.37c-1.491-2.29-4.016-3.671-6.722-3.671h-94.563
	c-2.704,0-5.231,1.379-6.72,3.671l-26.238,40.37c-1.947,2.997-1.738,6.931,0.514,9.699l4.69,5.761
	c6.195-1.622,13.018-0.74,18.826,3.012c10.232,6.607,13.681,19.78,8.449,30.485l1.09,1.339h93.342l33.054-40.596
	C458.836,219.142,459.045,215.207,457.097,212.211z"/>
<path style="fill:#EFBA50;" d="M411.216,95.263H74.614c-2.873,0-5.224,2.351-5.224,5.224v99.157l31.892-31.891
	c1.539-1.54,3.762-2.192,5.913-1.737l37.899,8.043c2.814,0.597,4.933,2.955,5.226,5.811l5.428,53.002
	c-9.546,6.716-12.724,19.29-7.853,29.634h139.311c-4.229-7.46-4.289-16.965,0.655-24.682c3.353-5.23,8.404-8.7,13.961-10.154
	l-4.69-5.761c-2.252-2.767-2.461-6.702-0.514-9.699l26.238-40.37c1.489-2.29,4.016-3.671,6.72-3.671h86.864v-67.683
	C416.441,97.614,414.09,95.263,411.216,95.263z"/>
<path style="opacity:0.1;enable-background:new    ;" d="M101.282,167.752c0.299-0.299,0.629-0.553,0.973-0.783v-66.482
	c0-2.873,2.351-5.224,5.224-5.224H74.614c-2.873,0-5.224,2.351-5.224,5.224v99.157L101.282,167.752z"/>
<path style="fill:#E8CAAF;" d="M312.473,187.82c-0.303-0.702-0.734-1.348-1.283-1.9l-49.307-49.345
	c-1.188-1.19-2.745-1.784-4.302-1.784c-1.56,0-3.118,0.593-4.307,1.784l-49.305,49.345c-1.142,1.144-1.783,2.693-1.783,4.309
	s0.641,3.167,1.783,4.309l15.851,15.865c8.268,2.066,15.096,8.544,17.285,17.299l2.019,2.021c0.054-0.398,0.119-0.797,0.194-1.196
	c2.428-12.925,14.835-21.426,27.711-18.987c7.468,1.416,13.448,6.206,16.682,12.5l18.654-18.667L312.473,187.82z"/>
<g>
	<path style="fill:#E28883;" d="M311.189,185.921l-49.307-49.345c-1.135-1.137-2.609-1.724-4.096-1.774v55.221h53.254l1.429-2.2
		C312.172,187.119,311.74,186.473,311.189,185.921z"/>
	<path style="fill:#E28883;" d="M203.97,194.539l15.851,15.865c8.268,2.066,15.096,8.544,17.285,17.299l2.019,2.021
		c0.054-0.398,0.119-0.797,0.194-1.196c1.795-9.551,9.04-16.68,17.895-18.771v-19.159h-55.01
		C202.294,192.078,202.916,193.483,203.97,194.539z"/>
</g>
<path style="fill:#BF6060;" d="M254.598,210.534c2.33-0.844,4.81-1.328,7.36-1.398l16.739-16.751
	c0.568-0.573,0.889-1.348,0.889-2.156c0-0.808-0.321-1.583-0.889-2.155l-18.964-18.98c-0.594-0.593-1.373-0.892-2.151-0.892
	c-0.782,0-1.56,0.298-2.156,0.892l-18.963,18.98c-0.569,0.572-0.89,1.346-0.89,2.155c0,0.807,0.321,1.583,0.89,2.156
	L254.598,210.534z"/>
<polygon style="fill:#B9F5ED;" points="345.108,217.252 359.779,262.507 393.937,262.507 408.608,217.252 "/>
<path style="fill:#53E7D3;" d="M457.097,212.211l-26.235-40.37c-1.491-2.29-4.016-3.671-6.722-3.671h-94.563
	c-2.704,0-5.231,1.379-6.72,3.671l-26.238,40.37c-0.994,1.529-1.422,3.303-1.307,5.042h163.094
	C458.52,215.514,458.091,213.74,457.097,212.211z"/>
<path style="fill:#B9F5ED;" d="M457.097,212.211l-26.238-40.37c-0.777-1.197-1.841-2.136-3.063-2.767l-25.153,38.698l-25.739-39.601
	h-0.093l-25.739,39.601l-25.153-38.699c-1.219,0.631-2.284,1.569-3.062,2.767l-26.239,40.37c-0.993,1.529-1.422,3.302-1.307,5.042
	h163.095C458.52,215.513,458.092,213.74,457.097,212.211z"/>
<path style="opacity:0.1;enable-background:new    ;" d="M316.253,221.909c-2.253-2.767-2.461-6.702-0.513-9.699l26.237-40.37
	c1.488-2.29,4.016-3.671,6.721-3.671h-19.122c-2.704,0-5.231,1.379-6.72,3.671l-26.238,40.37c-1.947,2.997-1.738,6.931,0.514,9.699
	l4.69,5.761c6.195-1.622,13.018-0.74,18.826,3.012c10.232,6.607,13.681,19.78,8.449,30.485l1.09,1.339h19.121L316.253,221.909z"/>
<path style="fill:#8AA5B6;" d="M328.42,262.507c6.213-10.921,2.889-24.94-7.772-31.823c-11.016-7.119-25.695-3.918-32.787,7.142
	c-4.944,7.717-4.884,17.222-0.655,24.682L328.42,262.507L328.42,262.507z"/>
<path style="fill:#53E7D3;" d="M155.749,232.872l-5.428-53.002c-0.293-2.857-2.413-5.215-5.226-5.811l-37.899-8.043
	c-2.151-0.456-4.374,0.196-5.913,1.737l-53.81,53.807c-1.539,1.538-2.192,3.762-1.736,5.912l7.432,35.033h94.725
	C143.026,252.162,146.202,239.587,155.749,232.872z"/>
<path style="fill:#B9F5ED;" d="M120.371,204.518L84.239,240.65l42.823,21.855h20.832c-1.261-2.68-1.978-5.511-2.191-8.351
	L120.371,204.518z"/>
<path style="fill:#FEFAC8;" d="M53.17,262.507h9.214l86.323-86.324c-0.923-1.054-2.177-1.819-3.612-2.124l-37.899-8.043
	c-2.151-0.456-4.374,0.196-5.913,1.737L47.473,221.56c-1.539,1.538-2.192,3.762-1.736,5.912L53.17,262.507z"/>
<path style="fill:#B9F5ED;" d="M53.17,262.507h9.214l86.324-86.324c-0.925-1.054-2.178-1.82-3.613-2.123l-37.903-8.04
	c-1.124-0.239-2.263-0.168-3.317,0.167l7.707,36.332l-37.18-7.887l-0.053,0.053l7.888,37.179l-36.333-7.707
	c-0.334,1.053-0.406,2.193-0.167,3.316L53.17,262.507z"/>
<path style="opacity:0.1;enable-background:new    ;" d="M53.17,262.507h44.502l-27.203-2.786c-2.857-0.293-5.214-2.413-5.811-5.227
	l-8.042-37.901c-0.457-2.15,0.196-4.374,1.736-5.913L47.473,221.56c-1.539,1.538-2.192,3.762-1.736,5.912L53.17,262.507z"/>
<g>
	<path style="fill:#FFFFFF;" d="M156.278,232.485c-9.97,6.613-13.344,19.482-8.383,30.021h42.921
		c3.401-7.267,3.062-16.086-1.67-23.276C181.925,228.256,167.209,225.235,156.278,232.485z"/>
	<path style="fill:#FFFFFF;" d="M267.03,209.539c-12.874-2.439-25.281,6.061-27.711,18.987
		c-2.431,12.922,6.035,25.377,18.908,27.816c12.874,2.442,25.281-6.057,27.711-18.983
		C288.368,224.436,279.903,211.98,267.03,209.539z"/>
	<path style="fill:#FFFFFF;" d="M209.425,210.173c-12.844,2.593-21.16,15.15-18.573,28.045c2.584,12.894,15.09,21.244,27.935,18.65
		c12.843-2.596,21.159-15.152,18.573-28.046C234.775,215.926,222.269,207.575,209.425,210.173z"/>
	<path style="fill:#FFFFFF;" d="M320.648,230.682c-11.016-7.119-25.695-3.918-32.787,7.142c-4.944,7.717-4.884,17.222-0.655,24.682
		h41.213C334.633,251.584,331.308,237.566,320.648,230.682z"/>
</g>
<path style="fill:#A87B2C;" d="M442.061,448.403c0,2.873-2.351,5.224-5.224,5.224H48.993c-2.873,0-5.224-2.351-5.224-5.224V267.731
	c0-2.873,2.351-5.224,5.224-5.224h387.844c2.873,0,5.224,2.351,5.224,5.224v180.672H442.061z"/>
<path style="opacity:0.1;enable-background:new    ;" d="M76.278,448.403V267.731c0-2.873,2.351-5.224,5.224-5.224H48.993
	c-2.873,0-5.224,2.351-5.224,5.224v180.672c0,2.873,2.351,5.224,5.224,5.224h32.509C78.629,453.628,76.278,451.277,76.278,448.403z"
	/>
<path style="fill:#EFBA50;" d="M406.386,293.134H286.763v67.254c0,2.873-2.351,5.224-5.224,5.224h-77.249
	c-2.873,0-5.224-2.351-5.224-5.224v-67.254H79.444c-2.873,0-5.224,2.351-5.224,5.224v119.415c0,2.873,2.351,5.224,5.224,5.224
	h326.942c2.873,0,5.224-2.351,5.224-5.224V298.358C411.61,295.485,409.259,293.134,406.386,293.134z"/>
<path style="opacity:0.1;enable-background:new    ;" d="M106.69,417.773V298.358c0-2.873,2.351-5.224,5.224-5.224H79.444
	c-2.873,0-5.224,2.351-5.224,5.224v119.415c0,2.873,2.351,5.224,5.224,5.224h32.471C109.041,422.998,106.69,420.647,106.69,417.773z
	"/>
<g>
	<path style="fill:#8AA5B6;" d="M289.698,70.674H196.13c-2.873,0-5.224,2.351-5.224,5.224v19.365h104.016V75.898
		C294.922,73.025,292.571,70.674,289.698,70.674z"/>
	<path style="fill:#8AA5B6;" d="M64.101,474.132c0,2.873,2.351,5.224,5.224,5.224h36.114c2.873,0,5.224-2.351,5.224-5.224v-20.504
		H64.101V474.132z"/>
	<path style="fill:#8AA5B6;" d="M375.167,453.628v20.504c0,2.873,2.351,5.224,5.224,5.224h36.112c2.873,0,5.224-2.351,5.224-5.224
		v-20.504H375.167z"/>
	<path style="fill:#8AA5B6;" d="M281.538,262.507h-77.249c-2.873,0-5.224,2.351-5.224,5.224v92.657c0,2.873,2.351,5.225,5.224,5.225
		h77.249c2.873,0,5.224-2.351,5.224-5.225v-92.657C286.763,264.858,284.412,262.507,281.538,262.507z"/>
</g>
<path style="opacity:0.1;enable-background:new    ;" d="M212.588,95.263V75.898c0-2.873,2.351-5.224,5.224-5.224H196.13
	c-2.873,0-5.224,2.351-5.224,5.224v19.365H212.588z"/>
<path style="opacity:0.1;enable-background:new    ;" d="M220.547,360.387V267.73c0-2.873,2.351-5.225,5.224-5.225h-21.482
	c-2.873,0-5.224,2.351-5.224,5.225v92.657c0,2.873,2.351,5.224,5.224,5.224h21.482C222.898,365.612,220.547,363.261,220.547,360.387
	z"/>
<g>
	<path style="fill:#FFC753;" d="M178.322,174.498c-1.805,0-3.378-1.2-3.858-2.928c-3.803-13.735-6.238-16.159-20.013-19.951
		c-1.737-0.479-2.94-2.051-2.94-3.844c0-1.796,1.204-3.368,2.94-3.845c13.776-3.793,16.211-6.215,20.013-19.951
		c0.48-1.728,2.054-2.925,3.858-2.925c1.8,0,3.377,1.196,3.857,2.925c3.803,13.736,6.234,16.158,20.016,19.951
		c1.735,0.478,2.933,2.049,2.933,3.845c0,1.793-1.197,3.366-2.933,3.844c-13.782,3.792-16.214,6.215-20.016,19.951
		C181.7,173.298,180.123,174.498,178.322,174.498z"/>
	<path style="fill:#FFC753;" d="M500.932,139.984c-15.179-4.176-17.857-6.846-22.045-21.974c-0.529-1.906-2.266-3.224-4.249-3.224
		c-1.987,0-3.723,1.318-4.25,3.224c-4.19,15.129-6.869,17.798-22.044,21.974c-1.912,0.527-3.239,2.257-3.239,4.235
		c0,1.976,1.327,3.707,3.239,4.235c15.174,4.175,17.854,6.845,22.044,21.973c0.528,1.904,2.262,3.225,4.25,3.225
		c1.982,0,3.721-1.321,4.249-3.225c4.188-15.129,6.865-17.798,22.045-21.973c1.91-0.528,3.231-2.259,3.231-4.235
		C504.163,142.241,502.842,140.511,500.932,139.984z"/>
	<path style="fill:#FFC753;" d="M63.664,57.84c-15.18-4.175-17.855-6.844-22.045-21.973c-0.529-1.906-2.266-3.224-4.249-3.224
		c-1.987,0-3.723,1.318-4.251,3.224c-4.19,15.129-6.869,17.798-22.043,21.973c-1.911,0.527-3.239,2.258-3.239,4.236
		c0,1.976,1.327,3.706,3.239,4.234c15.175,4.176,17.854,6.846,22.043,21.974c0.529,1.904,2.263,3.225,4.251,3.225
		c1.982,0,3.721-1.321,4.249-3.225c4.19-15.129,6.865-17.798,22.045-21.974c1.91-0.528,3.231-2.258,3.231-4.234
		C66.893,60.099,65.574,58.367,63.664,57.84z"/>
</g>
<path style="opacity:0.1;enable-background:new    ;" d="M397.061,474.132v-20.504h-21.894v20.504c0,2.873,2.351,5.224,5.224,5.224
	h21.894C399.412,479.356,397.061,477.005,397.061,474.132z"/>
<ellipse style="fill:#FFFFFF;" cx="242.918" cy="299.165" rx="12.971" ry="13.046"/>
<path d="M503.011,132.427c-12.504-3.44-13.125-4.057-16.571-16.513c-1.464-5.279-6.317-8.966-11.801-8.966
	c-5.488,0-10.34,3.688-11.802,8.968c-3.449,12.452-4.068,13.07-16.572,16.51c-5.296,1.459-8.995,6.307-8.995,11.791
	c0,5.48,3.697,10.329,8.996,11.791c12.503,3.44,13.123,4.057,16.571,16.509c1.463,5.281,6.316,8.968,11.802,8.968
	c5.483,0,10.335-3.686,11.802-8.97c3.446-12.452,4.066-13.069,16.577-16.51c5.288-1.461,8.982-6.308,8.982-11.789
	C512,138.735,508.305,133.887,503.011,132.427z M474.622,158.497c-3.108-7.191-7.102-11.18-14.303-14.28
	c7.201-3.099,11.196-7.09,14.303-14.281c3.087,7.261,7.013,11.196,14.26,14.282C481.634,147.303,477.707,151.239,474.622,158.497z"
	/>
<path d="M49.171,90.376c3.448-12.453,4.069-13.071,16.578-16.513c5.288-1.461,8.981-6.308,8.981-11.787
	c0-5.485-3.695-10.333-8.988-11.792c-12.503-3.44-13.123-4.056-16.572-16.511c-1.464-5.279-6.316-8.966-11.8-8.966
	c-5.485,0-10.339,3.687-11.803,8.968C22.119,46.227,21.5,46.844,8.994,50.285C3.699,51.744,0,56.593,0,62.076
	c0,5.479,3.697,10.327,8.996,11.79c12.503,3.441,13.123,4.058,16.571,16.515c1.465,5.279,6.318,8.965,11.802,8.965
	S47.704,95.659,49.171,90.376z M23.049,62.075c7.202-3.099,11.197-7.089,14.304-14.281c3.088,7.262,7.012,11.197,14.26,14.282
	c-7.248,3.086-11.173,7.021-14.26,14.282C34.245,69.165,30.251,65.176,23.049,62.075z"/>
<path d="M152.371,159.175c11.079,3.05,11.487,3.455,14.542,14.491c1.416,5.104,6.108,8.67,11.409,8.67
	c5.301,0,9.992-3.565,11.409-8.673c3.054-11.032,3.463-11.437,14.548-14.488c5.114-1.411,8.685-6.098,8.685-11.399
	c0-5.304-3.573-9.992-8.69-11.401c-11.081-3.049-11.489-3.455-14.544-14.491c-1.416-5.102-6.107-8.666-11.408-8.666
	c-5.302,0-9.993,3.564-11.41,8.67c-3.054,11.03-3.462,11.436-14.539,14.486c-5.122,1.409-8.7,6.097-8.7,11.401
	C143.673,153.077,147.249,157.764,152.371,159.175z M178.322,136.546c2.576,5.362,5.868,8.655,11.23,11.228
	c-5.362,2.574-8.655,5.866-11.23,11.23c-2.576-5.362-5.868-8.656-11.231-11.23C172.454,145.201,175.747,141.909,178.322,136.546z"/>
<path d="M235.078,318.503v20.483c0,4.328,3.509,7.837,7.837,7.837c4.328,0,7.837-3.509,7.837-7.837v-20.483
	c7.597-3.114,12.971-10.6,12.971-19.333c0-11.516-9.335-20.883-20.808-20.883s-20.807,9.369-20.807,20.883
	C222.107,307.902,227.481,315.389,235.078,318.503z M242.915,293.96c2.831,0,5.135,2.337,5.135,5.21s-2.304,5.209-5.135,5.209
	s-5.134-2.336-5.134-5.209C237.78,296.298,240.084,293.96,242.915,293.96z"/>
<path d="M437.43,167.567c-2.922-4.49-7.83-7.183-13.152-7.229v-59.851c0-7.202-5.859-13.061-13.061-13.061H302.759V75.898
	c0-7.202-5.859-13.061-13.061-13.061H196.13c-7.202,0-13.061,5.859-13.061,13.061v11.528H74.614
	c-7.202,0-13.061,5.859-13.061,13.061v95.91l-19.62,19.62c-3.429,3.427-4.872,8.317-3.861,13.081l5.661,26.686
	c-4.588,2.028-7.801,6.616-7.801,11.946v180.672c0,7.202,5.859,13.061,13.061,13.061h7.271v12.667
	c0,7.202,5.859,13.061,13.061,13.061h36.114c7.202,0,13.061-5.859,13.061-13.061v-12.667h248.831v12.667
	c0,7.202,5.859,13.061,13.061,13.061h36.112c7.202,0,13.061-5.859,13.061-13.061v-12.667h7.271c7.202,0,13.061-5.859,13.061-13.061
	V267.731c0-6.203-4.35-11.399-10.157-12.725l22.92-28.148c4.424-5.436,4.83-13.038,1.008-18.917L437.43,167.567z M413.943,176.008
	l-11.301,17.384l-11.299-17.384H413.943z M326.316,225.089h13.094l9.59,29.58h-9.891
	C340.496,243.508,335.873,232.025,326.316,225.089z M204.29,373.449h77.249c7.202,0,13.061-5.859,13.061-13.061V300.97h109.173
	v114.191H82.056V300.97h109.172v59.417C191.229,367.59,197.088,373.449,204.29,373.449z M278.926,270.343v87.433h-72.025v-87.433
	H278.926z M223.963,203.46l-5.024-5.028h12.489l10.569,10.576c-1.403,1.218-2.705,2.554-3.879,4.005
	C234.379,208.621,229.48,205.294,223.963,203.46z M247.021,229.973c1.417-7.541,7.97-13.014,15.583-13.014
	c0.986,0,1.984,0.094,2.965,0.28c8.614,1.633,14.296,10.01,12.666,18.674c-1.416,7.539-7.968,13.011-15.577,13.011
	c-0.987,0-1.986-0.094-2.972-0.282C251.073,247.01,245.391,238.636,247.021,229.973z M277.265,204.906l6.993-7
	c0.016-0.016,0.028-0.032,0.043-0.048h12.494l-12.292,12.302C282.372,208.092,279.943,206.316,277.265,204.906z M283.889,182.184
	l-18.265-18.279v-12.498l30.754,30.779h-12.49V182.184z M269.772,190.23l-11.335,11.342c-0.498,0.066-0.993,0.141-1.484,0.231
	l-11.564-11.573l12.191-12.201L269.772,190.23z M249.951,163.495c-0.022,0.022-0.046,0.04-0.068,0.062l-18.971,18.987
	c-0.069,0.069-0.127,0.145-0.194,0.215h-12.511l31.744-31.77V163.495z M229.677,230.362c1.733,8.642-3.848,17.087-12.441,18.824
	c-1.043,0.211-2.103,0.318-3.154,0.318c-7.52,0-14.059-5.394-15.548-12.827c-1.733-8.642,3.847-17.086,12.443-18.823
	c1.044-0.211,2.104-0.318,3.155-0.318C221.649,217.536,228.187,222.93,229.677,230.362z M292.451,254.67
	c-1.064-4.158-0.485-8.726,2.007-12.615c2.941-4.587,7.943-7.326,13.379-7.326c3.03,0,5.99,0.877,8.56,2.537
	c5.904,3.813,8.441,10.916,6.794,17.404H292.451z M307.782,209.415l17.506-26.933l16.439,25.291l-1.067,1.643H307.782z
	 M339.774,176.008h22.598l-11.3,17.385L339.774,176.008z M376.858,182.48l16.438,25.292l-1.069,1.645h-30.74l-1.069-1.644
	L376.858,182.48z M198.743,78.511h88.343v8.916h-88.343V78.511z M77.226,103.1h331.378v57.234h-79.028
	c-5.377,0-10.346,2.705-13.29,7.236l-4.868,7.49l-43.989-44.023c-2.629-2.633-6.126-4.083-9.848-4.083
	c-3.723,0-7.221,1.449-9.851,4.081l-49.307,49.348c-2.627,2.631-4.073,6.127-4.073,9.845c0,3.723,1.448,7.221,4.075,9.848
	l4.035,4.039c-9.037,3.595-15.772,11.138-18.535,20.165c-4.435-2.314-9.42-3.581-14.596-3.581c-2.328,0-4.63,0.257-6.872,0.76
	l-4.342-42.391c-0.644-6.275-5.223-11.37-11.396-12.678l-37.903-8.044c-0.98-0.207-1.982-0.312-2.982-0.312
	c-3.82,0-7.406,1.483-10.096,4.174l-18.515,18.514V103.1H77.226z M185.061,254.67h-31.408c-0.857-5.943,1.648-12.132,6.957-15.654
	c2.605-1.727,5.619-2.64,8.72-2.64c5.358,0,10.318,2.678,13.27,7.162C184.845,246.948,185.61,250.912,185.061,254.67z
	 M131.358,243.285l5.811,11.384h-8.222L97.402,238.57l20.89-20.89l4.208,8.244c1.386,2.715,4.135,4.276,6.986,4.276
	c1.199,0,2.416-0.276,3.556-0.858c3.855-1.968,5.385-6.687,3.418-10.542l-6.517-12.77l13.771-13.771l3.816,37.255
	c-1.44,1.383-2.725,2.883-3.855,4.477c-2.343-2.181-5.883-2.789-8.898-1.25C130.92,234.709,129.391,239.43,131.358,243.285z
	 M88.796,225.011l-4.292-20.227l20.227,4.29L88.796,225.011z M94.468,254.67H81.304l4.448-4.448L94.468,254.67z M90.156,189.96
	l8.87-8.87l2.389,11.259L90.156,189.96z M113.85,175.439l20.226,4.291l-15.936,15.936L113.85,175.439z M69.681,210.436l2.389,11.258
	l-11.259-2.389L69.681,210.436z M75.387,238.42l-15.935,15.936l-4.291-20.225L75.387,238.42z M102.826,471.52H71.938v-10.055h30.889
	v10.055H102.826z M413.891,471.52h-30.887v-10.055h30.887V471.52z M434.224,445.791H51.605V270.343h139.623v14.954H79.444
	c-7.202,0-13.061,5.859-13.061,13.061v119.415c0,7.202,5.859,13.061,13.061,13.061h326.942c7.202,0,13.061-5.859,13.061-13.061
	V298.358c0-7.202-5.859-13.061-13.061-13.061H294.6v-14.954h139.624V445.791z M419.803,254.67h-54.325l-9.59-29.58h41.941
	l-4.354,13.429c-1.334,4.117,0.922,8.537,5.037,9.871c0.802,0.26,1.619,0.385,2.419,0.385c3.305,0,6.378-2.108,7.453-5.422
	l5.921-18.263h29.582L419.803,254.67z M413.059,209.415l-1.068-1.644l16.438-25.292l17.505,26.935H413.059z"/>
<path style="opacity:0.1;enable-background:new    ;" d="M85.682,474.132v-20.504h-21.58v20.504c0,2.873,2.351,5.224,5.224,5.224
	h21.58C88.033,479.356,85.682,477.005,85.682,474.132z"/>
<g>
</g>
<g>
</g>
<g>
</g>
<g>
</g>
<g>
</g>
<g>
</g>
<g>
</g>
<g>
</g>
<g>
</g>
<g>
</g>
<g>
</g>
<g>
</g>
<g>
</g>
<g>
</g>
<g>
</g>
</svg>
