<?xml version="1.0" encoding="iso-8859-1"?>
<!-- Generator: Adobe Illustrator 16.0.0, SVG Export Plug-In . SVG Version: 6.00 Build 0)  -->
<!DOCTYPE svg PUBLIC "-//W3C//DTD SVG 1.1//EN" "http://www.w3.org/Graphics/SVG/1.1/DTD/svg11.dtd">
<svg version="1.1" id="Capa_1" xmlns="http://www.w3.org/2000/svg" xmlns:xlink="http://www.w3.org/1999/xlink" x="0px" y="0px"
	 width="438.093px" height="438.093px" viewBox="0 0 438.093 438.093" style="enable-background:new 0 0 438.093 438.093;"
	 xml:space="preserve">
<g>
	<g>
		<path d="M335.177,118.597c0,8.369-6.775,15.171-15.164,15.171c-8.371,0-15.166-6.802-15.166-15.171
			c0-8.367,6.795-15.168,15.166-15.168C328.402,103.429,335.177,110.23,335.177,118.597z"/>
		<path d="M356.298,243.117c0,8.369-6.781,15.169-15.166,15.169c-8.365,0-15.168-6.8-15.168-15.169
			c0-8.366,6.803-15.151,15.168-15.151C349.517,227.966,356.298,234.751,356.298,243.117z"/>
		<path d="M127.843,216.676c0,8.369-6.784,15.167-15.185,15.167c-8.363,0-15.151-6.798-15.151-15.167
			c0-8.366,6.788-15.165,15.151-15.165C121.059,201.511,127.843,208.31,127.843,216.676z"/>
		<path d="M165.977,128.274c0,8.386-6.8,15.183-15.185,15.183c-8.369,0-15.149-6.797-15.149-15.183
			c0-8.368,6.78-15.149,15.149-15.149C159.177,113.124,165.977,119.905,165.977,128.274z"/>
		<path d="M104.861,139.505c0,8.366-6.78,15.168-15.168,15.168c-8.365,0-15.15-6.802-15.15-15.168c0-8.371,6.785-15.17,15.15-15.17
			C98.081,124.335,104.861,131.134,104.861,139.505z"/>
		<path d="M201.863,73.052c0,8.367-6.784,15.164-15.168,15.164c-8.386,0-15.163-6.797-15.163-15.164
			c0-8.371,6.777-15.166,15.163-15.166C195.079,57.886,201.863,64.681,201.863,73.052z"/>
		<path d="M118.874,287.175c0,8.366-6.786,15.166-15.167,15.166c-8.366,0-15.165-6.8-15.165-15.166
			c0-8.368,6.799-15.168,15.165-15.168C112.088,272.007,118.874,278.807,118.874,287.175z"/>
		<path d="M324.503,316.926c0,8.364-6.779,15.167-15.162,15.167c-8.369,0-15.158-6.803-15.158-15.167
			c0-8.37,6.789-15.186,15.158-15.186C317.724,301.74,324.503,308.556,324.503,316.926z"/>
		<path d="M277.992,86.788c0,8.385-6.801,15.18-15.183,15.18c-8.369,0-15.155-6.795-15.155-15.18
			c0-8.368,6.786-15.168,15.155-15.168C271.191,71.62,277.992,78.42,277.992,86.788z"/>
		<path d="M329.845,180.22c0,8.369-6.807,15.182-15.184,15.182c-8.369,0-15.15-6.812-15.15-15.182
			c0-8.367,6.781-15.168,15.15-15.168C323.041,165.052,329.845,171.853,329.845,180.22z"/>
		<path d="M348.361,372.854c-0.783-2.385-2.008-4.646-3.461-6.799c47.971-37.52,78.963-95.772,78.963-161.238
			C423.863,91.88,331.982,0,219.047,0C106.108,0,14.23,91.88,14.23,204.818c0,65.775,31.284,124.243,79.632,161.745
			c-1.289,2.016-2.398,4.092-3.119,6.292l-13.968,42.777c-4.031,12.354,3.291,22.461,16.288,22.461h252.979
			c13,0,20.318-10.106,16.291-22.461L348.361,372.854z M238.643,350.398v-35.427c30.192-3.186,53.437-12.588,53.437-12.588
			c8.016-3.287,10.846-12.01,6.309-19.396l-41.354-67.05c11.006-2.568,19.584-5.016,19.584-5.016
			c8.342-2.383,11.264-10.244,6.492-17.488l-55.4-84.236c-4.772-7.244-12.556-7.244-17.324,0l-55.412,84.236
			c-4.765,7.244-1.826,15.09,6.507,17.427c0,0,8.585,2.415,19.626,4.987l-41.402,67.141c-4.543,7.386-1.683,16.047,6.369,19.259
			c0,0,23.961,9.444,54.39,12.69v35.459h-75.269c-47.762-30.855-79.459-84.467-79.459-145.58
			c0-95.709,77.587-173.314,173.311-173.314c95.719,0,173.311,77.605,173.311,173.314c0,61.113-31.701,114.724-79.463,145.58
			h-74.253V350.398z"/>
	</g>
</g>
<g>
</g>
<g>
</g>
<g>
</g>
<g>
</g>
<g>
</g>
<g>
</g>
<g>
</g>
<g>
</g>
<g>
</g>
<g>
</g>
<g>
</g>
<g>
</g>
<g>
</g>
<g>
</g>
<g>
</g>
</svg>
