<?xml version="1.0" encoding="iso-8859-1"?>
<!-- Generator: Adobe Illustrator 19.0.0, SVG Export Plug-In . SVG Version: 6.00 Build 0)  -->
<svg version="1.1" id="Layer_1" xmlns="http://www.w3.org/2000/svg" xmlns:xlink="http://www.w3.org/1999/xlink" x="0px" y="0px"
	 viewBox="0 0 512 512" style="enable-background:new 0 0 512 512;" xml:space="preserve">
<path style="fill:#E28883;" d="M455.277,365.892V63.133c0-7.418-6.131-13.486-13.625-13.486H277.242
	c0.348,0.802,0.558,1.672,0.558,2.586c0,2.98-2.027,5.592-4.956,6.387c-23.262,6.3-27.366,10.327-33.79,33.146
	c-0.808,2.871-3.472,4.862-6.511,4.862c-3.042,0-5.705-1.991-6.512-4.862c-6.422-22.82-10.533-26.847-33.79-33.146
	c-2.93-0.795-4.962-3.407-4.962-6.387c0-0.914,0.21-1.783,0.559-2.586H70.348c-7.494,0-13.627,6.069-13.627,13.486v302.759
	L455.277,365.892L455.277,365.892z"/>
<path style="opacity:0.1;enable-background:new    ;" d="M89.411,365.892V63.133c0-7.418,6.131-13.486,13.625-13.486H70.348
	c-7.494,0-13.627,6.069-13.627,13.486v302.759L89.411,365.892L89.411,365.892z"/>
<path style="fill:#FFFFFF;" d="M239.529,90.106c-0.157,0.544-0.315,1.092-0.474,1.659c-0.808,2.871-3.472,4.862-6.511,4.862
	c-3.042,0-5.705-1.991-6.512-4.862c-0.16-0.568-0.318-1.115-0.474-1.659H97.599v275.786H414.4V90.106H239.529z"/>
<rect x="97.603" y="90.102" style="opacity:0.1;enable-background:new    ;" width="32.816" height="275.79"/>
<path style="fill:#F5BFB6;" d="M234.82,220.736c6.794-1.625,13.88-2.506,21.179-2.506c7.298,0,14.385,0.882,21.179,2.506
	l17.028-33.768c0.397-1.428,0.627-2.925,0.627-4.477c0-9.31-7.626-16.858-17.033-16.858h-43.603
	c-9.406,0-17.033,7.548-17.033,16.858c0,1.553,0.23,3.05,0.627,4.477L234.82,220.736z"/>
<path style="opacity:0.1;enable-background:new    ;" d="M234.82,220.736c6.794-1.625,13.88-2.506,21.179-2.506
	c0.689,0,1.368,0.037,2.052,0.051l-15.789-31.313c-0.397-1.428-0.627-2.925-0.627-4.477c0-9.31,7.626-16.858,17.033-16.858h-24.469
	c-9.406,0-17.033,7.548-17.033,16.858c0,1.553,0.23,3.05,0.627,4.477L234.82,220.736z"/>
<path style="fill:#EFBA50;" d="M200.142,306.904c0.185-30.334,25.166-54.958,55.857-54.958s55.672,24.623,55.857,54.958h34.065
	c-0.185-49.004-40.369-88.674-89.922-88.674s-89.737,39.671-89.922,88.674H200.142z"/>
<path style="opacity:0.1;enable-background:new    ;" d="M187.952,306.904c0.17-45.339,34.59-82.664,78.985-87.996
	c-3.587-0.43-7.232-0.678-10.937-0.678c-49.553,0-89.737,39.671-89.922,88.674H187.952z"/>
<g>
	<path style="fill:#FFC753;" d="M206.235,127.693c-18.328-4.964-21.561-8.136-26.623-26.116c-0.636-2.263-2.736-3.83-5.13-3.83
		c-2.397,0-4.495,1.566-5.13,3.83c-5.06,17.981-8.299,21.152-26.624,26.116c-2.308,0.626-3.909,2.684-3.909,5.033
		c0,2.348,1.601,4.406,3.909,5.033c18.325,4.963,21.564,8.137,26.624,26.116c0.635,2.262,2.733,3.831,5.13,3.831
		c2.395,0,4.494-1.568,5.13-3.831c5.061-17.981,8.295-21.153,26.623-26.116c2.308-0.627,3.906-2.685,3.906-5.033
		C210.14,130.376,208.543,128.318,206.235,127.693z"/>
	<path style="fill:#FFC753;" d="M272.844,45.844c-23.262-6.301-27.366-10.326-33.79-33.145c-0.808-2.873-3.472-4.861-6.511-4.861
		c-3.042,0-5.705,1.987-6.512,4.861c-6.422,22.82-10.533,26.844-33.79,33.145c-2.93,0.794-4.962,3.407-4.962,6.389
		c0,2.98,2.032,5.592,4.962,6.387c23.257,6.3,27.367,10.327,33.79,33.146c0.806,2.871,3.469,4.862,6.512,4.862
		c3.039,0,5.704-1.991,6.511-4.862c6.424-22.82,10.528-26.847,33.79-33.146c2.929-0.795,4.956-3.407,4.956-6.387
		C277.8,49.25,275.773,46.638,272.844,45.844z"/>
</g>
<path style="fill:#37C4B3;" d="M388.133,365.892v-48.539c0-5.747-4.702-10.449-10.449-10.449H134.315
	c-5.747,0-10.449,4.702-10.449,10.449v48.539H388.133z"/>
<path style="opacity:0.1;enable-background:new    ;" d="M156.734,365.892v-48.539c0-5.747,4.702-10.449,10.449-10.449h-32.868
	c-5.747,0-10.449,4.702-10.449,10.449v48.539H156.734z"/>
<path style="fill:#FFC753;" d="M479.155,498.939c0,2.873-2.351,5.224-5.224,5.224H38.068c-2.873,0-5.224-2.351-5.224-5.224V371.116
	c0-2.873,2.351-5.224,5.224-5.224h435.863c2.873,0,5.224,2.351,5.224,5.224v127.822H479.155z"/>
<path style="fill:#E28883;" d="M479.155,498.939c0,2.873-2.351,5.224-5.224,5.224H38.068c-2.873,0-5.224-2.351-5.224-5.224V371.116
	c0-2.873,2.351-5.224,5.224-5.224h435.863c2.873,0,5.224,2.351,5.224,5.224v127.822H479.155z"/>
<path style="opacity:0.1;enable-background:new    ;" d="M65.687,498.939V371.116c0-2.873,2.351-5.224,5.224-5.224H38.068
	c-2.873,0-5.224,2.351-5.224,5.224v127.822c0,2.873,2.351,5.224,5.224,5.224h32.844C68.038,504.163,65.687,501.812,65.687,498.939z"
	/>
<path style="fill:#B9F5ED;" d="M165.093,365.892v8.182c0,10.965,8.889,19.853,19.853,19.853h142.106
	c10.964,0,19.853-8.888,19.853-19.853v-8.182H165.093z"/>
<path style="opacity:0.1;enable-background:new    ;" d="M196.44,374.073v-8.182h-31.347v8.182c0,10.965,8.889,19.853,19.853,19.853
	h31.347C205.329,393.927,196.44,385.039,196.44,374.073z"/>
<path d="M479.155,419.527c4.328,0,7.837-3.509,7.837-7.837v-40.573c0-7.202-5.859-13.061-13.061-13.061h-10.818V63.133
	c0-11.757-9.628-21.323-21.462-21.323H281.147c-1.717-1.638-3.845-2.877-6.254-3.53c-20.529-5.56-22.644-7.632-28.294-27.7
	C244.849,4.35,239.07,0,232.544,0c-6.529,0-12.309,4.351-14.055,10.575c-5.649,20.07-7.765,22.142-28.297,27.704
	c-2.408,0.653-4.538,1.891-6.255,3.53H145.24c-4.328,0-7.837,3.509-7.837,7.837s3.509,7.837,7.837,7.837h35.217
	c1.649,4.164,5.195,7.468,9.735,8.701c15.61,4.228,20.573,6.447,24.538,16.085H97.598c-4.328,0-7.837,3.509-7.837,7.837v267.949
	H64.559V63.133c0-3.115,2.597-5.65,5.79-5.65h44.59c4.328,0,7.837-3.509,7.837-7.837s-3.509-7.837-7.837-7.837h-44.59
	c-11.835,0-21.463,9.566-21.463,21.323v294.922H38.068c-7.202,0-13.061,5.859-13.061,13.061v127.822
	c0,7.202,5.859,13.061,13.061,13.061h435.863c7.202,0,13.061-5.859,13.061-13.061v-59.037c0-4.328-3.509-7.837-7.837-7.837
	s-7.837,3.509-7.837,7.837v56.424H40.68V373.729h116.576v0.345c0,15.268,12.422,27.69,27.69,27.69h142.106
	c15.268,0,27.69-12.422,27.69-27.69v-0.345h116.576v37.961C471.318,416.018,474.827,419.527,479.155,419.527z M198.468,52.231
	c21.261-6.247,27.697-12.7,34.074-33.86c6.379,21.163,12.815,27.615,34.074,33.86c-21.259,6.245-27.694,12.697-34.074,33.861
	C226.166,64.927,219.731,58.478,198.468,52.231z M174.481,111.376c4.281,11.917,9.483,17.131,21.417,21.349
	c-11.934,4.217-17.135,9.43-21.417,21.35c-4.281-11.919-9.484-17.132-21.419-21.35C164.999,128.506,170.201,123.294,174.481,111.376
	z M339.069,374.073c0,6.626-5.391,12.016-12.016,12.016H184.946c-6.626,0-12.016-5.391-12.016-12.016v-0.345h166.139V374.073z
	 M380.296,358.055H131.703v-40.702c0-1.416,1.196-2.612,2.612-2.612h243.368c1.416,0,2.612,1.196,2.612,2.612v40.702H380.296z
	 M208.703,299.068c3.933-22.285,23.635-39.285,47.296-39.285c23.661,0,43.363,17,47.296,39.285L208.703,299.068L208.703,299.068z
	 M406.563,358.055H395.97v-40.702c0-10.082-8.204-18.286-18.286-18.286h-24.275c-1.405-16.672-7.094-32.6-16.684-46.476
	c-2.462-3.561-7.342-4.452-10.902-1.992c-3.561,2.461-4.452,7.342-1.992,10.902c7.77,11.243,12.472,24.095,13.832,37.565h-18.521
	c-4.058-30.96-30.815-54.959-63.143-54.959s-59.084,23.997-63.143,54.959h-18.52c4.16-40.935,39.187-73.001,81.662-73.001
	c19.418,0,38.258,6.826,53.047,19.221c3.316,2.779,8.259,2.345,11.039-0.973c2.78-3.316,2.345-8.26-0.973-11.039
	c-9.135-7.656-19.569-13.508-30.716-17.386l12.805-25.393c0.23-0.457,0.416-0.935,0.553-1.427c0.606-2.179,0.914-4.393,0.914-6.579
	c0-13.617-11.156-24.695-24.87-24.695h-43.603c-13.713,0-24.87,11.078-24.87,24.695c0,2.186,0.307,4.399,0.913,6.579
	c0.137,0.493,0.323,0.971,0.553,1.427l12.795,25.373c-35.543,12.408-61.736,44.621-65.005,83.198h-24.27
	c-10.082,0-18.286,8.203-18.286,18.286v40.702h-10.593V97.942h56.91c-0.206,0.49-0.394,0.991-0.54,1.511
	c-4.3,15.277-5.484,16.436-21.129,20.675c-5.709,1.546-9.697,6.727-9.697,12.597c0,5.868,3.986,11.048,9.697,12.597
	c15.644,4.237,16.829,5.397,21.128,20.672c1.58,5.622,6.792,9.548,12.675,9.548c5.882,0,11.094-3.926,12.674-9.544
	c4.302-15.281,5.487-16.439,21.133-20.676c5.705-1.549,9.689-6.728,9.689-12.596c0-5.87-3.985-11.051-9.694-12.597
	c-15.643-4.237-16.827-5.396-21.128-20.672c-0.146-0.521-0.334-1.023-0.541-1.514h33.747c2.65,3.977,7.194,6.522,12.181,6.522
	c4.986,0,9.531-2.545,12.18-6.522h161.839v260.112H406.563z M250.549,184.768h-25.088l-0.274-0.542
	c-0.123-0.59-0.185-1.172-0.185-1.736c0-4.975,4.125-9.022,9.196-9.022h43.603c5.071,0,9.196,4.048,9.196,9.022
	c0,0.563-0.062,1.145-0.184,1.736l-13.933,27.629c-5.544-0.964-11.191-1.462-16.88-1.462c-5.757,0-11.4,0.499-16.887,1.45
	l-5.75-11.402h17.185c4.328,0,7.837-3.509,7.837-7.837C258.386,188.277,254.877,184.768,250.549,184.768z M447.44,358.055h-25.204
	V90.106c0-4.328-3.509-7.837-7.837-7.837H250.356c3.967-9.64,8.931-11.859,24.543-16.087c4.535-1.231,8.078-4.535,9.726-8.7h157.027
	c3.192,0,5.789,2.535,5.789,5.65L447.44,358.055L447.44,358.055z"/>
<g>
</g>
<g>
</g>
<g>
</g>
<g>
</g>
<g>
</g>
<g>
</g>
<g>
</g>
<g>
</g>
<g>
</g>
<g>
</g>
<g>
</g>
<g>
</g>
<g>
</g>
<g>
</g>
<g>
</g>
</svg>
