<?xml version="1.0" encoding="iso-8859-1"?>
<!-- Generator: Adobe Illustrator 19.0.0, SVG Export Plug-In . SVG Version: 6.00 Build 0)  -->
<svg version="1.1" id="Layer_1" xmlns="http://www.w3.org/2000/svg" xmlns:xlink="http://www.w3.org/1999/xlink" x="0px" y="0px"
	 viewBox="0 0 512 512" style="enable-background:new 0 0 512 512;" xml:space="preserve">
<g>
	<polygon style="fill:#FAEDD6;" points="400.746,177.556 440.953,249.775 256,498.982 71.047,249.814 111.254,177.556 	"/>
</g>
<g>
	<polygon style="fill:#36C9A3;" points="191.668,249.623 336.414,249.623 256,177.25 	"/>
	<polygon style="fill:#36C9A3;" points="256,490.865 328.373,249.623 400.746,177.25 440.953,249.623 	"/>
	<polygon style="fill:#36C9A3;" points="256,490.865 183.627,249.623 111.254,177.25 71.047,249.623 	"/>
</g>
<path style="fill:#FA004B;" d="M303.844,79.778c-9.421-9.421-24.696-9.421-34.117,0l-5.686,5.686l-5.686-5.686
	c-9.421-9.421-24.696-9.421-34.117,0s-9.421,24.696,0,34.117l39.803,39.803l39.803-39.803
	C313.265,104.473,313.265,89.199,303.844,79.778z"/>
<g>
	<path style="fill:#232323;" d="M405.358,169.2H106.643L61.75,250.099L256,512l194.25-261.873L405.358,169.2z M83.989,242.311
		l28.997-52.253l52.252,52.253h-37.705v15.667h50.363l58.402,201.161l-149.2-201.161h23.724v-15.667H83.989z M260.58,184.867
		l57.445,57.445h-94.402v15.667h94.066l-62.751,209.17l-60.727-209.17h13.746v-15.667h-5.939l57.445-57.445H260.58z
		 M282.738,184.867h99.312l-49.656,49.656L282.738,184.867z M183.627,238.544l-53.677-53.677h107.354L183.627,238.544z
		 M334.044,257.978h90.877l-152.59,205.709L334.044,257.978z M346.762,242.311l52.252-52.252l28.985,52.252H346.762z"/>
	<path style="fill:#232323;" d="M264.041,164.776L218.7,119.435c-12.46-12.461-12.46-32.735,0-45.195
		c6.036-6.036,14.06-9.36,22.597-9.36c8.536,0,16.562,3.324,22.598,9.361l0.147,0.147l0.147-0.148
		c6.036-6.035,14.061-9.36,22.598-9.36c8.536,0,16.562,3.324,22.599,9.36v0.001c12.459,12.46,12.459,32.734,0,45.194
		L264.041,164.776z M241.296,80.545c-4.351,0-8.442,1.695-11.519,4.771c-6.352,6.352-6.352,16.688,0,23.039l34.264,34.265
		l34.264-34.265c6.351-6.351,6.351-16.687,0-23.039c-3.076-3.076-7.167-4.771-11.519-4.771c-4.351,0-8.442,1.695-11.518,4.771
		l-11.226,11.226l-11.226-11.225C249.739,82.24,245.648,80.545,241.296,80.545z"/>
	<rect x="256.004" style="fill:#232323;" width="15.667" height="40.733"/>
	
		<rect x="292.378" y="19.476" transform="matrix(-0.707 -0.7072 0.7072 -0.707 486.6253 274.6748)" style="fill:#232323;" width="15.667" height="34.115"/>
	
		<rect x="210.793" y="28.691" transform="matrix(-0.7071 -0.7071 0.7071 -0.7071 363.1382 223.466)" style="fill:#232323;" width="34.115" height="15.667"/>
</g>
<g>
</g>
<g>
</g>
<g>
</g>
<g>
</g>
<g>
</g>
<g>
</g>
<g>
</g>
<g>
</g>
<g>
</g>
<g>
</g>
<g>
</g>
<g>
</g>
<g>
</g>
<g>
</g>
<g>
</g>
</svg>
