<?xml version="1.0" encoding="iso-8859-1"?>
<!-- Generator: Adobe Illustrator 19.0.0, SVG Export Plug-In . SVG Version: 6.00 Build 0)  -->
<svg version="1.1" id="Layer_1" xmlns="http://www.w3.org/2000/svg" xmlns:xlink="http://www.w3.org/1999/xlink" x="0px" y="0px"
	 viewBox="0 0 512 512" style="enable-background:new 0 0 512 512;" xml:space="preserve">
<g>
	<path style="fill:#CCCCCC;" d="M239.993,500.586h-32.008h-32.02H39.594c-16.959,0-30.704-13.745-30.704-30.692
		c0-8.479,3.439-16.152,9.001-21.715c5.55-5.55,13.223-8.989,21.703-8.989h165.367l21.786-33.669h41.579v95.065L239.993,500.586
		L239.993,500.586z"/>
	<polygon style="fill:#CCCCCC;" points="428.688,500.586 396.679,500.586 364.659,500.586 337.655,500.586 337.643,500.586 
		337.643,405.522 337.655,405.522 387.156,405.522 387.156,255.014 430.728,255.014 456.474,322.352 456.474,405.522 
		456.474,500.586 	"/>
</g>
<polygon style="fill:#F2F2F2;" points="268.325,405.522 268.325,322.352 294.072,255.014 337.643,255.014 337.643,405.522 
	337.643,500.586 268.337,500.586 268.325,500.586 "/>
<path style="fill:#CCCCCC;" d="M406.511,205.359l-44.188,57.897l-0.012-0.012l-0.012-0.012l-44.176-57.874
	c7.27-5.562,15.619-9.784,24.691-12.298c6.202-1.72,12.737-2.645,19.497-2.645c6.582,0,12.962,0.878,19.034,2.514
	C390.596,195.433,399.111,199.702,406.511,205.359z"/>
<polygon style="fill:#41B3E5;" points="456.498,11.411 503.105,78.832 412.227,78.832 "/>
<polygon style="fill:#2197D8;" points="456.498,11.411 412.227,78.832 361.659,11.411 "/>
<polygon style="fill:#2BA5F7;" points="361.659,11.411 412.227,78.832 311.078,78.832 "/>
<polygon style="fill:#2197D8;" points="361.659,11.411 311.078,78.832 268.148,11.411 "/>
<polygon style="fill:#2BA5F7;" points="268.148,11.411 311.078,78.832 221.54,78.832 268.136,11.411 "/>
<path style="fill:#41B3E5;" d="M311.078,78.832l31.736,114.229c-9.072,2.514-17.421,6.736-24.691,12.298L221.54,78.832
	L311.078,78.832L311.078,78.832z"/>
<path style="fill:#2BA5F7;" d="M503.105,78.832l-96.595,126.528c-7.4-5.657-15.915-9.926-25.166-12.429l30.882-114.099
	C412.227,78.832,503.105,78.832,503.105,78.832z"/>
<path style="fill:#2197D8;" d="M412.227,78.832l-30.882,114.099c-6.072-1.637-12.452-2.514-19.034-2.514
	c-6.76,0-13.294,0.925-19.497,2.645L311.078,78.832C311.078,78.832,412.227,78.832,412.227,78.832z"/>
<path style="fill:#333333;" d="M510.423,73.772L463.821,6.353c-1.66-2.403-4.396-3.837-7.317-3.837H268.14
	c-2.921,0-5.657,1.434-7.317,3.837l-46.6,67.419c-2.192,3.17-2.092,7.391,0.247,10.454l123.595,161.912
	c-0.14-0.007-0.278-0.021-0.42-0.021h-43.569c-3.686,0-6.992,2.275-8.307,5.717l-25.747,67.335
	c-0.388,1.014-0.587,2.091-0.587,3.177v74.28h-32.69c-3.017,0-5.829,1.53-7.468,4.063l-19.156,29.607H39.594
	c-10.575,0-20.518,4.119-27.996,11.597C4.119,449.374,0,459.316,0,469.89c0,21.832,17.762,39.594,39.594,39.594h416.882
	c4.913,0,8.895-3.982,8.895-8.895v-95.067v-83.17c0-1.086-0.199-2.162-0.587-3.177l-25.747-67.339
	c-1.316-3.443-4.622-5.717-8.309-5.717h-43.573c-0.197,0-0.388,0.017-0.581,0.03L510.176,84.226
	C512.513,81.163,512.613,76.942,510.423,73.772z M362.323,248.6l-31.357-41.078c4.478-2.528,9.237-4.502,14.23-5.886
	c10.971-3.042,22.839-3.079,33.832-0.116c5.146,1.392,10.044,3.408,14.648,6.007L362.323,248.6z M374.957,182.516
	c-8.536-1.32-17.29-1.29-25.812,0.085l-26.357-94.875h77.825L374.957,182.516z M328.875,69.937l32.782-43.701l32.782,43.701H328.875
	z M379.444,20.306h60.578l-28.279,43.059L379.444,20.306z M311.68,63.213l-27.329-42.908h59.516L311.68,63.213z M294.871,69.937
	h-56.372l29.339-42.445L294.871,69.937z M304.322,87.726l27.679,99.629c-4.125,1.646-8.099,3.625-11.903,5.93L239.52,87.726H304.322
	z M392.129,187.154l26.911-99.428h66.084l-80.579,105.56C400.584,190.888,396.438,188.841,392.129,187.154z M428.71,69.937
	l27.982-42.61l29.453,42.61H428.71z M17.789,469.89c0-5.823,2.269-11.298,6.386-15.417c4.12-4.119,9.595-6.387,15.418-6.387h165.365
	c3.017,0,5.829-1.53,7.468-4.063l19.156-29.607h27.852v77.278h-10.542v-17.788c0-4.912-3.981-8.895-8.895-8.895
	s-8.895,3.982-8.895,8.895v17.788h-14.23v-17.788c0-4.912-3.981-8.895-8.895-8.895s-8.895,3.982-8.895,8.895v17.788h-14.229v-17.788
	c0-4.912-3.981-8.895-8.895-8.895s-8.895,3.982-8.895,8.895v17.788H39.594C27.571,491.694,17.789,481.914,17.789,469.89z
	 M277.224,491.694V323.99l22.974-60.083h28.553v227.788H277.224z M396.05,405.522V263.907h28.556l22.975,60.087v81.527v86.173
	h-9.994v-17.788c0-4.912-3.981-8.895-8.895-8.895c-4.913,0-8.895,3.982-8.895,8.895v17.788h-14.229v-17.788
	c0-4.912-3.981-8.895-8.895-8.895c-4.913,0-8.895,3.982-8.895,8.895v17.788h-14.23v-17.788c0-4.912-3.981-8.895-8.895-8.895
	c-4.913,0-8.895,3.982-8.895,8.895v17.788h-9.222v-77.278h40.616C392.068,414.416,396.05,410.434,396.05,405.522z M378.261,396.627
	h-31.721V257.242l8.713,11.415c0.326,0.427,0.697,0.81,1.087,1.166l-0.006,0.007l0.006-0.007c1.625,1.481,3.748,2.332,5.982,2.332
	c2.773,0,5.388-1.293,7.071-3.497l8.868-11.617L378.261,396.627L378.261,396.627z"/>
<g>
</g>
<g>
</g>
<g>
</g>
<g>
</g>
<g>
</g>
<g>
</g>
<g>
</g>
<g>
</g>
<g>
</g>
<g>
</g>
<g>
</g>
<g>
</g>
<g>
</g>
<g>
</g>
<g>
</g>
</svg>
