<?xml version="1.0" encoding="iso-8859-1"?>
<!-- Generator: Adobe Illustrator 19.0.0, SVG Export Plug-In . SVG Version: 6.00 Build 0)  -->
<svg version="1.1" id="Layer_1" xmlns="http://www.w3.org/2000/svg" xmlns:xlink="http://www.w3.org/1999/xlink" x="0px" y="0px"
	 viewBox="0 0 512.001 512.001" style="enable-background:new 0 0 512.001 512.001;" xml:space="preserve">
<g>
	<path style="fill:#E28883;" d="M219.598,346.864l-29.071-40.337c-1.006-1.396-2.621-2.224-4.343-2.224
		c-1.722,0-3.338,0.828-4.345,2.224l-29.069,40.337c-1.377,1.909-1.343,4.493,0.086,6.365l16.751,21.976
		c4.882-2.824,10.541-4.45,16.575-4.45c6.036,0,11.696,1.626,16.577,4.451l16.753-21.977
		C220.938,351.356,220.974,348.773,219.598,346.864z"/>
	<path style="fill:#E28883;" d="M219.598,457.553l-17.644-24.482c-4.695,2.543-10.068,3.989-15.773,3.989
		c-5.704,0-11.076-1.446-15.77-3.989l-17.643,24.482c-1.377,1.909-1.343,4.493,0.086,6.364l29.069,38.138
		c1.012,1.328,2.588,2.108,4.259,2.108c1.67,0,3.244-0.779,4.257-2.108l29.071-38.138
		C220.938,462.047,220.974,459.463,219.598,457.553z"/>
	<path style="fill:#E28883;" d="M386.602,207.833l-29.071-40.338c-1.004-1.396-2.621-2.223-4.343-2.223
		c-1.722,0-3.338,0.828-4.345,2.223l-29.069,40.338c-1.375,1.909-1.341,4.493,0.086,6.364l16.751,21.976
		c4.882-2.824,10.541-4.45,16.575-4.45c6.036,0,11.696,1.626,16.577,4.451l16.753-21.977
		C387.942,212.326,387.978,209.742,386.602,207.833z"/>
	<path style="fill:#E28883;" d="M386.602,318.522l-17.645-24.483c-4.694,2.543-10.067,3.989-15.772,3.989
		c-5.704,0-11.076-1.446-15.77-3.989l-17.643,24.482c-1.375,1.909-1.341,4.493,0.086,6.364l29.069,38.138
		c1.013,1.328,2.588,2.108,4.259,2.108c1.672,0,3.246-0.779,4.257-2.108l29.071-38.138
		C387.942,323.016,387.978,320.433,386.602,318.522z"/>
</g>
<path style="opacity:0.1;enable-background:new    ;" d="M186.182,370.754c5.535,0,10.752,1.368,15.345,3.771l-16.232-21.297
	c-1.428-1.871-1.463-4.455-0.086-6.364l17.194-23.86l-11.875-16.478c-1.006-1.396-2.621-2.224-4.343-2.224
	c-1.722,0-3.338,0.828-4.345,2.224l-29.069,40.337c-1.377,1.909-1.343,4.493,0.086,6.364l16.751,21.976
	C174.487,372.38,180.147,370.754,186.182,370.754z"/>
<path style="opacity:0.1;enable-background:new    ;" d="M202.402,433.694l-0.449-0.623c-4.694,2.543-10.067,3.989-15.772,3.989
	c-5.704,0-11.076-1.446-15.77-3.989l-17.643,24.482c-1.377,1.909-1.343,4.493,0.086,6.364l29.069,38.138
	c1.012,1.328,2.588,2.108,4.259,2.108c1.67,0,3.244-0.779,4.257-2.108l11.961-15.692l-17.108-22.445
	c-1.428-1.871-1.463-4.455-0.086-6.364L202.402,433.694z"/>
<path style="opacity:0.1;enable-background:new    ;" d="M353.186,231.724c5.535,0,10.752,1.368,15.345,3.771l-16.232-21.297
	c-1.426-1.871-1.461-4.455-0.086-6.364l17.194-23.859l-11.875-16.478c-1.004-1.396-2.621-2.222-4.343-2.222
	c-1.722,0-3.338,0.828-4.345,2.222l-29.069,40.338c-1.375,1.909-1.341,4.493,0.086,6.364l16.751,21.976
	C341.491,233.35,347.151,231.724,353.186,231.724z"/>
<g style="opacity:0.1;">
	<path d="M121.343,408.248c-1.396-1.004-2.225-2.62-2.225-4.339c0-1.72,0.829-3.334,2.225-4.339l26.818-19.288l-12.71-9.668
		c-0.955-0.728-2.098-1.093-3.243-1.093c-1.096,0-2.192,0.335-3.126,1.008l-40.379,29.041c-1.396,1.005-2.225,2.62-2.225,4.339
		c0,1.72,0.829,3.334,2.225,4.339l40.38,29.042c0.935,0.673,2.03,1.007,3.126,1.007c1.145,0,2.287-0.365,3.243-1.093l12.71-9.668
		L121.343,408.248z"/>
</g>
<g style="opacity:0.1;">
	<path d="M288.347,269.217c-1.396-1.004-2.225-2.62-2.225-4.339c0-1.72,0.829-3.334,2.225-4.339l26.818-19.289l-12.708-9.668
		c-0.957-0.728-2.1-1.093-3.243-1.093c-1.096,0-2.194,0.335-3.128,1.008l-40.38,29.042c-1.396,1.005-2.225,2.62-2.225,4.339
		c0,1.72,0.829,3.334,2.225,4.339l40.38,29.042c0.935,0.673,2.032,1.007,3.128,1.007c1.143,0,2.286-0.365,3.243-1.093l12.708-9.667
		L288.347,269.217z"/>
</g>
<g>
	<path style="fill:#EFBA50;" d="M152.996,403.907c0-6.029,1.628-11.683,4.455-16.56l-22-16.735
		c-0.955-0.728-2.098-1.093-3.243-1.093c-1.096,0-2.192,0.335-3.126,1.008l-40.379,29.041c-1.396,1.005-2.225,2.62-2.225,4.339
		c0,1.72,0.829,3.334,2.225,4.339l40.38,29.042c0.935,0.673,2.03,1.007,3.126,1.007c1.145,0,2.287-0.365,3.243-1.093l22.001-16.736
		C154.624,415.591,152.996,409.937,152.996,403.907z"/>
	<path style="fill:#EFBA50;" d="M284.428,399.654l-38.175-29.041c-0.957-0.728-2.1-1.093-3.243-1.093
		c-1.096,0-2.192,0.335-3.128,1.008l-24.506,17.625c2.547,4.688,3.994,10.056,3.994,15.755s-1.448,11.066-3.994,15.756
		l24.506,17.626c0.936,0.673,2.032,1.007,3.128,1.007c1.143,0,2.286-0.365,3.243-1.093l38.175-29.042
		c1.33-1.011,2.111-2.585,2.111-4.254C286.539,402.24,285.759,400.666,284.428,399.654z"/>
	<path style="fill:#EFBA50;" d="M451.434,260.624l-38.177-29.042c-0.957-0.728-2.1-1.093-3.242-1.093
		c-1.096,0-2.192,0.335-3.128,1.008l-24.506,17.625c2.547,4.688,3.994,10.056,3.994,15.755c0,5.699-1.448,11.066-3.994,15.756
		l24.506,17.626c0.936,0.673,2.032,1.007,3.128,1.007c1.143,0,2.286-0.365,3.242-1.093l38.177-29.042
		c1.328-1.011,2.109-2.585,2.109-4.254C453.543,263.209,452.764,261.635,451.434,260.624z"/>
	<path style="fill:#EFBA50;" d="M320,264.877c0-6.03,1.628-11.683,4.455-16.561l-21.998-16.735c-0.957-0.728-2.1-1.093-3.243-1.093
		c-1.096,0-2.194,0.335-3.128,1.008l-40.38,29.042c-1.396,1.005-2.225,2.62-2.225,4.339s0.829,3.334,2.225,4.339l40.38,29.042
		c0.935,0.673,2.032,1.007,3.128,1.007c1.143,0,2.286-0.365,3.243-1.093l21.999-16.736C321.629,276.561,320,270.908,320,264.877z"/>
</g>
<g>
	<ellipse style="fill:#8AA5B6;" cx="186.504" cy="175.741" rx="28.904" ry="28.876"/>
	<ellipse style="fill:#8AA5B6;" cx="353.51" cy="36.707" rx="28.904" ry="28.876"/>
</g>
<g style="opacity:0.1;">
	<path d="M178.677,175.742c0-12.232,7.617-22.68,18.367-26.887c-3.265-1.278-6.817-1.987-10.537-1.987
		c-15.963,0-28.904,12.929-28.904,28.876s12.941,28.876,28.904,28.876c3.72,0,7.271-0.709,10.537-1.987
		C186.295,198.422,178.677,187.975,178.677,175.742z"/>
</g>
<g style="opacity:0.1;">
	<path d="M345.681,36.712c0-12.232,7.617-22.68,18.367-26.888c-3.265-1.278-6.818-1.987-10.537-1.987
		c-15.963,0-28.904,12.929-28.904,28.876s12.941,28.876,28.904,28.876c3.72,0,7.271-0.709,10.537-1.987
		C353.299,59.392,345.681,48.944,345.681,36.712z"/>
</g>
<g>
	<path style="fill:#FFC753;" d="M113.104,265.164c-14.857-4.052-17.48-6.642-21.579-21.321c-0.516-1.848-2.216-3.127-4.159-3.127
		c-1.945,0-3.643,1.279-4.159,3.127c-4.102,14.679-6.725,17.269-21.579,21.321c-1.871,0.51-3.169,2.189-3.169,4.109
		c0,1.916,1.298,3.597,3.169,4.109c14.855,4.051,17.478,6.641,21.579,21.319c0.516,1.848,2.214,3.129,4.159,3.129
		c1.942,0,3.643-1.281,4.159-3.129c4.1-14.678,6.723-17.268,21.579-21.319c1.871-0.511,3.163-2.192,3.163-4.109
		C116.267,267.353,114.975,265.674,113.104,265.164z"/>
	<path style="fill:#FFC753;" d="M443.437,403.057c-14.859-4.052-17.48-6.642-21.579-21.321c-0.516-1.848-2.218-3.127-4.159-3.127
		c-1.945,0-3.645,1.279-4.159,3.127c-4.102,14.679-6.727,17.269-21.579,21.321c-1.874,0.51-3.171,2.189-3.171,4.109
		c0,1.916,1.298,3.597,3.171,4.109c14.853,4.051,17.478,6.641,21.579,21.319c0.514,1.847,2.214,3.129,4.159,3.129
		c1.94,0,3.643-1.281,4.159-3.129c4.1-14.678,6.721-17.268,21.579-21.319c1.869-0.511,3.161-2.192,3.161-4.109
		C446.598,405.246,445.306,403.568,443.437,403.057z"/>
</g>
<g>
	<path style="fill:#B9F5ED;" d="M353.186,231.724c-18.298,0-33.186,14.873-33.186,33.154s14.888,33.153,33.186,33.153
		c18.3,0,33.188-14.872,33.188-33.153S371.485,231.724,353.186,231.724z"/>
	<path style="fill:#B9F5ED;" d="M186.182,370.754c-18.298,0-33.186,14.873-33.186,33.154s14.888,33.154,33.186,33.154
		c18.3,0,33.188-14.873,33.188-33.154C219.369,385.627,204.481,370.754,186.182,370.754z"/>
</g>
<g style="opacity:0.1;">
	<path d="M174.498,403.907c0-14.522,9.399-26.884,22.435-31.358c-3.374-1.158-6.988-1.795-10.751-1.795
		c-18.298,0-33.186,14.873-33.186,33.154s14.888,33.154,33.186,33.154c3.764,0,7.378-0.637,10.751-1.795
		C183.897,430.792,174.498,418.429,174.498,403.907z"/>
</g>
<g style="opacity:0.1;">
	<path d="M341.502,264.877c0-14.522,9.399-26.884,22.435-31.358c-3.373-1.158-6.988-1.795-10.751-1.795
		c-18.298,0-33.186,14.873-33.186,33.154s14.888,33.153,33.186,33.153c3.764,0,7.378-0.637,10.751-1.795
		C350.901,291.762,341.502,279.399,341.502,264.877z"/>
</g>
<path style="opacity:0.1;enable-background:new    ;" d="M369.406,294.663l-0.449-0.623c-4.694,2.543-10.067,3.989-15.772,3.989
	c-5.704,0-11.076-1.446-15.77-3.989l-17.643,24.482c-1.375,1.909-1.341,4.493,0.086,6.364l29.069,38.138
	c1.013,1.328,2.588,2.108,4.259,2.108c1.672,0,3.246-0.78,4.257-2.108l11.961-15.692l-17.108-22.447
	c-1.426-1.871-1.461-4.455-0.086-6.364L369.406,294.663z"/>
<path d="M289.173,393.417l-9.616-7.315c-3.446-2.62-8.362-1.952-10.983,1.493c-2.62,3.445-1.952,8.361,1.493,10.982l7.01,5.332
	l-34.11,25.948l-17.912-12.884c0.538-1.595,0.99-3.229,1.329-4.904h10.111c4.329,0,7.837-3.509,7.837-7.837
	c0-4.328-3.508-7.837-7.837-7.837h-9.993c-0.354-1.901-0.84-3.753-1.447-5.554l17.912-12.883l6.195,4.714
	c3.443,2.622,8.361,1.953,10.982-1.491c2.621-3.444,1.953-8.361-1.492-10.982l-7.655-5.825c-2.284-1.737-5.119-2.693-7.988-2.693
	c-2.777,0-5.44,0.857-7.704,2.483l-18.074,12.999c-1.072-1.241-2.21-2.424-3.421-3.529l11.934-15.656
	c3.542-4.648,3.628-10.955,0.211-15.698l-29.072-40.337c-0.722-1.002-1.588-1.87-2.539-2.621v-87.715
	c2.082-0.453,4.127-1.078,6.117-1.894c4.004-1.644,5.917-6.221,4.275-10.225c-1.644-4.004-6.223-5.918-10.225-4.275
	c-2.536,1.041-5.228,1.568-8.002,1.568c-11.616,0-21.067-9.438-21.067-21.039s9.451-21.039,21.067-21.039
	s21.067,9.438,21.067,21.039c0,1.761-0.216,3.506-0.643,5.186c-1.064,4.195,1.472,8.459,5.669,9.524
	c4.193,1.067,8.458-1.472,9.523-5.668c0.746-2.94,1.124-5.982,1.124-9.043c0-20.244-16.481-36.712-36.741-36.712
	s-36.741,16.469-36.741,36.712c0,17.555,12.399,32.264,28.904,35.863v87.224c-1.218,0.843-2.305,1.886-3.191,3.115l-29.066,40.334
	c-3.422,4.744-3.337,11.055,0.208,15.701l11.933,15.655c-0.932,0.851-1.824,1.742-2.675,2.673l-15.679-11.926
	c-2.283-1.74-5.121-2.698-7.993-2.698c-2.782,0-5.445,0.859-7.702,2.483L84.123,393.21c-3.432,2.471-5.482,6.471-5.482,10.7
	s2.05,8.23,5.486,10.702l40.379,29.041c2.257,1.625,4.921,2.483,7.703,2.483c2.873,0,5.712-0.957,7.988-2.693l15.686-11.933
	c1.107,1.211,2.289,2.348,3.532,3.42l-13,18.039c-3.422,4.744-3.337,11.055,0.208,15.701l29.069,38.138
	c2.479,3.252,6.401,5.194,10.492,5.194c4.09,0,8.011-1.941,10.49-5.193l29.071-38.138c3.542-4.648,3.628-10.955,0.211-15.698
	l-13.004-18.043c1.53-1.32,2.959-2.748,4.28-4.277l18.08,13.004c2.259,1.621,4.92,2.479,7.699,2.479
	c2.868,0,5.705-0.956,7.988-2.693l38.172-29.04c3.259-2.477,5.206-6.4,5.206-10.494C294.376,399.816,292.43,395.893,289.173,393.417
	z M135.867,412.07h10.111c0.417,2.055,0.987,4.054,1.701,5.986l-15.513,11.8L96.09,403.908l36.077-25.947l15.513,11.8
	c-0.788,2.134-1.393,4.353-1.818,6.635h-9.993c-4.329,0-7.837,3.509-7.837,7.837S131.539,412.07,135.867,412.07z M186.183,494.714
	l-25.975-34.078l12.892-17.889c1.702,0.574,3.452,1.043,5.245,1.391v10.36c0,4.328,3.508,7.837,7.837,7.837
	c4.329,0,7.837-3.509,7.837-7.837v-10.36c1.795-0.348,3.545-0.817,5.249-1.392l12.893,17.889L186.183,494.714z M160.833,403.907
	c0-13.96,11.372-25.317,25.349-25.317c13.979,0,25.351,11.357,25.351,25.317c0,13.96-11.373,25.317-25.351,25.317
	C172.204,429.224,160.833,417.867,160.833,403.907z M200.35,365.439c-2.039-0.752-4.156-1.341-6.332-1.763v-9.708
	c0-4.328-3.508-7.837-7.837-7.837c-4.329,0-7.837,3.509-7.837,7.837v9.708c-2.175,0.422-4.29,1.01-6.33,1.762l-11.808-15.493
	l25.975-36.045l25.977,36.045L200.35,365.439z"/>
<path d="M99.072,296.808c3.341-11.96,3.941-12.553,16.097-15.868c5.26-1.438,8.935-6.235,8.935-11.668
	c0-5.437-3.676-10.235-8.938-11.669c-12.151-3.313-12.753-3.907-16.094-15.868c-1.457-5.214-6.27-8.856-11.707-8.856
	s-10.251,3.641-11.707,8.854c-3.343,11.962-3.943,12.555-16.092,15.87c-5.266,1.436-8.945,6.234-8.945,11.669
	c0,5.431,3.677,10.23,8.944,11.669c12.15,3.313,12.751,3.907,16.094,15.868c1.458,5.215,6.271,8.858,11.707,8.858
	C92.8,305.666,97.615,302.024,99.072,296.808z M73.911,269.272c6.682-2.953,10.485-6.76,13.453-13.445
	c2.969,6.683,6.772,10.492,13.454,13.445c-6.682,2.952-10.486,6.76-13.454,13.444C84.396,276.033,80.592,272.223,73.911,269.272z"/>
<path d="M456.179,254.387l-38.177-29.042c-2.283-1.737-5.119-2.693-7.987-2.693c-2.779,0-5.442,0.858-7.704,2.483l-18.074,12.999
	c-1.071-1.241-2.21-2.424-3.422-3.53l11.935-15.656c3.542-4.648,3.628-10.955,0.211-15.697l-29.067-40.332
	c-0.723-1.005-1.59-1.876-2.544-2.628v-26.544c0-4.328-3.508-7.837-7.837-7.837c-4.329,0-7.837,3.509-7.837,7.837v26.052
	c-1.218,0.843-2.305,1.886-3.191,3.114l-29.069,40.338c-3.417,4.742-3.331,11.049,0.211,15.695l11.933,15.656
	c-0.932,0.85-1.823,1.742-2.674,2.672l-15.684-11.931c-2.284-1.737-5.12-2.693-7.988-2.693c-2.785,0-5.449,0.859-7.704,2.483
	l-40.383,29.044c-3.432,2.471-5.482,6.471-5.482,10.7c0,4.229,2.05,8.23,5.486,10.702l40.379,29.041
	c2.257,1.625,4.923,2.483,7.705,2.483c2.868,0,5.705-0.956,7.988-2.693l15.685-11.932c1.105,1.21,2.288,2.348,3.532,3.419
	l-13.003,18.043c-3.417,4.742-3.331,11.049,0.211,15.696l29.069,38.138c2.479,3.252,6.401,5.194,10.492,5.194
	c4.095,0,8.018-1.944,10.49-5.193l29.071-38.138c3.542-4.648,3.628-10.955,0.211-15.698l-13.004-18.043
	c1.53-1.32,2.959-2.748,4.28-4.277l18.08,13.004c2.259,1.621,4.92,2.478,7.699,2.478c2.868,0,5.705-0.956,7.987-2.693l38.178-29.043
	c3.255-2.477,5.199-6.399,5.199-10.49C461.38,260.789,459.436,256.867,456.179,254.387z M302.871,273.039h10.111
	c0.417,2.055,0.988,4.054,1.701,5.986l-15.512,11.8l-36.078-25.948l36.078-25.948l15.512,11.8c-0.788,2.134-1.393,4.353-1.818,6.636
	h-9.994c-4.329,0-7.837,3.509-7.837,7.837S298.543,273.039,302.871,273.039z M353.187,355.684l-25.975-34.078l12.892-17.889
	c1.702,0.574,3.452,1.043,5.246,1.391v10.36c0,4.328,3.508,7.837,7.837,7.837c4.329,0,7.837-3.509,7.837-7.837v-10.36
	c1.794-0.348,3.545-0.817,5.249-1.392l12.893,17.89L353.187,355.684z M327.837,264.877c0-13.96,11.372-25.317,25.349-25.317
	c13.979,0,25.351,11.357,25.351,25.317c0,13.96-11.373,25.316-25.351,25.316C339.208,290.193,327.837,278.836,327.837,264.877z
	 M367.355,226.408c-2.04-0.752-4.158-1.341-6.333-1.763v-9.708c0-4.328-3.508-7.837-7.837-7.837c-4.329,0-7.837,3.509-7.837,7.837
	v9.708c-2.174,0.422-4.291,1.01-6.329,1.762l-11.809-15.492l25.975-36.045l25.977,36.045L367.355,226.408z M409.972,290.826
	l-17.911-12.884c0.538-1.595,0.99-3.229,1.329-4.904h10.111c4.329,0,7.837-3.509,7.837-7.837c0-4.328-3.508-7.837-7.837-7.837
	h-9.993c-0.354-1.901-0.84-3.754-1.447-5.553l17.912-12.883l34.112,25.948L409.972,290.826z"/>
<path d="M345.675,72.575v34.004c0,4.328,3.508,7.837,7.837,7.837s7.837-3.509,7.837-7.837V72.575
	c16.506-3.599,28.906-18.308,28.906-35.863C390.255,16.469,373.772,0,353.512,0c-20.26,0-36.741,16.469-36.741,36.712
	C316.771,54.268,329.17,68.977,345.675,72.575z M353.512,15.673c11.617,0,21.069,9.438,21.069,21.039s-9.452,21.039-21.069,21.039
	c-11.616,0-21.067-9.438-21.067-21.039S341.896,15.673,353.512,15.673z"/>
<path d="M445.498,395.496c-12.151-3.313-12.753-3.907-16.094-15.869c-1.457-5.214-6.27-8.855-11.707-8.855
	c-5.442,0-10.257,3.645-11.707,8.854c-3.343,11.962-3.943,12.555-16.09,15.869c-5.269,1.435-8.95,6.234-8.95,11.669
	c0,5.433,3.679,10.232,8.946,11.668c12.15,3.313,12.752,3.907,16.091,15.859c1.453,5.219,6.267,8.865,11.709,8.865
	c5.436,0,10.25-3.643,11.707-8.858c3.341-11.961,3.942-12.553,16.099-15.868c5.258-1.438,8.931-6.236,8.931-11.667
	C454.434,401.731,450.761,396.933,445.498,395.496z M417.697,420.609c-2.969-6.683-6.773-10.492-13.454-13.444
	c6.681-2.953,10.484-6.76,13.454-13.445c2.969,6.684,6.773,10.493,13.453,13.445C424.469,410.117,420.665,413.927,417.697,420.609z"
	/>
<g>
</g>
<g>
</g>
<g>
</g>
<g>
</g>
<g>
</g>
<g>
</g>
<g>
</g>
<g>
</g>
<g>
</g>
<g>
</g>
<g>
</g>
<g>
</g>
<g>
</g>
<g>
</g>
<g>
</g>
</svg>
