<?xml version="1.0" encoding="iso-8859-1"?>
<!-- Generator: Adobe Illustrator 19.0.0, SVG Export Plug-In . SVG Version: 6.00 Build 0)  -->
<svg version="1.1" id="Layer_1" xmlns="http://www.w3.org/2000/svg" xmlns:xlink="http://www.w3.org/1999/xlink" x="0px" y="0px"
	 viewBox="0 0 512 512" style="enable-background:new 0 0 512 512;" xml:space="preserve">
<path style="fill:#EED063;" d="M256,184.372c-88.307,0-159.896,71.587-159.896,159.894c0,88.31,71.588,159.897,159.896,159.897
	c88.309,0,159.895-71.587,159.895-159.897C415.895,255.958,344.308,184.372,256,184.372z M256,462.367
	c-65.12,0-118.1-52.98-118.1-118.101c0-65.119,52.979-118.099,118.1-118.099s118.1,52.979,118.1,118.099
	C374.099,409.387,321.12,462.367,256,462.367z"/>
<g style="opacity:0.1;">
	<path d="M266.958,461.854c3.61,0.333,7.263,0.513,10.958,0.513c65.121,0,118.101-52.98,118.101-118.101
		c0-65.119-52.979-118.099-118.1-118.099c-3.695,0-7.349,0.179-10.958,0.513C326.96,232.228,374.1,282.842,374.1,344.266
		C374.099,405.692,326.96,456.307,266.958,461.854z"/>
	<path d="M118.02,344.266c0-84.623,65.743-153.88,148.938-159.513c-3.622-0.246-7.274-0.381-10.958-0.381
		c-88.307,0-159.896,71.587-159.896,159.894c0,88.31,71.588,159.897,159.896,159.897c3.684,0,7.336-0.136,10.958-0.381
		C183.763,498.15,118.02,428.892,118.02,344.266z"/>
</g>
<path style="fill:#FFDC97;" d="M410.379,96.612c-14.208,9.155-21.629,16.576-30.784,30.784
	c-9.155-14.207-16.576-21.628-30.784-30.784c14.207-9.154,21.628-16.575,30.784-30.784C388.75,80.037,396.172,87.458,410.379,96.612
	z"/>
<rect x="300.087" y="14.464" transform="matrix(-0.7071 -0.7071 0.7071 -0.7071 518.0479 275.4994)" style="fill:#FFFFFF;" width="31.989" height="31.988"/>
<rect x="144.537" y="42.89" transform="matrix(-0.7071 -0.7071 0.7071 -0.7071 232.408 214.0355)" style="fill:#FFDC97;" width="31.99" height="31.988"/>
<path style="fill:#FFCCCC;" d="M256,206.376c-3.179,0-6.194-1.409-8.235-3.845l-58.376-69.73c-3.188-3.807-3.351-9.301-0.395-13.289
	l21.612-29.16c2.025-2.732,5.227-4.345,8.629-4.345h73.533c3.402,0,6.603,1.612,8.629,4.345l21.612,29.16
	c2.956,3.988,2.793,9.482-0.394,13.289l-58.377,69.73C262.195,204.968,259.179,206.376,256,206.376z"/>
<path style="opacity:0.1;enable-background:new    ;" d="M211.177,132.801c-3.188-3.807-3.351-9.301-0.395-13.289l21.612-29.16
	c2.025-2.732,5.227-4.345,8.629-4.345h-21.788c-3.402,0-6.603,1.612-8.629,4.345l-21.612,29.16
	c-2.956,3.988-2.793,9.482,0.395,13.289l58.376,69.73c2.041,2.437,5.056,3.845,8.235,3.845c3.18,0,6.195-1.409,8.235-3.845
	l2.659-3.176L211.177,132.801z"/>
<path style="fill:#FFE3E3;" d="M228.984,125.755l23.224,79.926c1.199,0.452,2.481,0.695,3.792,0.695s2.593-0.242,3.793-0.695
	l23.223-79.926H228.984z"/>
<polygon style="fill:#FFF3F3;" points="266.351,86.006 245.65,86.006 228.984,125.755 283.015,125.755 "/>
<path d="M340.975,96.612c0,2.663,1.352,5.145,3.592,6.587c13.256,8.542,19.9,15.188,28.441,28.441
	c1.443,2.239,3.925,3.592,6.588,3.592s5.145-1.353,6.588-3.592c8.539-13.253,15.184-19.898,28.441-28.441
	c2.239-1.442,3.592-3.924,3.592-6.587c0-2.663-1.353-5.145-3.592-6.588c-13.256-8.541-19.901-15.187-28.44-28.44
	c-1.442-2.239-3.924-3.592-6.588-3.592c-2.663,0-5.145,1.353-6.588,3.592c-8.54,13.255-15.185,19.9-28.44,28.441
	C342.328,91.467,340.975,93.949,340.975,96.612z M379.596,79.509c5.132,6.69,10.411,11.97,17.103,17.103
	c-6.692,5.133-11.971,10.412-17.103,17.103c-5.133-6.692-10.411-11.97-17.104-17.103C369.184,91.48,374.463,86.202,379.596,79.509z"
	/>
<path d="M310.558,58.617c1.531,1.53,3.536,2.295,5.541,2.295c2.005,0,4.011-0.765,5.541-2.296l22.618-22.619
	c1.47-1.47,2.296-3.464,2.296-5.542s-0.825-4.072-2.296-5.541L321.639,2.295c-3.06-3.061-8.023-3.061-11.082,0l-22.619,22.619
	c-1.47,1.469-2.296,3.464-2.296,5.541c0,2.078,0.826,4.072,2.296,5.542L310.558,58.617z M316.098,18.919l11.538,11.537L316.1,41.992
	l-11.538-11.537L316.098,18.919z"/>
<path d="M155.006,87.044c1.531,1.53,3.536,2.295,5.541,2.295c2.005,0,4.011-0.765,5.541-2.296l22.618-22.619
	c1.47-1.47,2.296-3.463,2.296-5.541c0-2.078-0.825-4.072-2.296-5.541l-22.62-22.619c-3.061-3.062-8.023-3.061-11.082,0
	l-22.619,22.619c-1.47,1.469-2.296,3.463-2.296,5.541c0,2.078,0.827,4.072,2.296,5.542L155.006,87.044z M160.545,47.345
	l11.538,11.537l-11.537,11.537l-11.538-11.537L160.545,47.345z"/>
<path d="M256,454.53c-18.776,0-37.325-4.825-53.643-13.953c-3.777-2.114-8.552-0.763-10.665,3.013
	c-2.114,3.777-0.764,8.552,3.013,10.665c18.65,10.433,39.846,15.947,61.295,15.947c69.442,0,125.936-56.496,125.936-125.937
	c0-69.441-56.495-125.935-125.936-125.935s-125.936,56.494-125.936,125.935c0,34.108,13.462,66.065,37.907,89.983
	c3.095,3.027,8.056,2.973,11.083-0.121c3.026-3.093,2.973-8.055-0.121-11.081c-21.406-20.946-33.195-48.924-33.195-78.781
	c0-60.798,49.463-110.262,110.263-110.262s110.263,49.463,110.263,110.262C366.263,405.066,316.799,454.53,256,454.53z"/>
<path d="M373.287,224.359c-3.094-3.027-8.054-2.972-11.082,0.122c-3.026,3.094-2.972,8.056,0.122,11.082
	c29.491,28.85,45.733,67.455,45.733,108.703c-0.001,83.846-68.214,152.06-152.06,152.06s-152.059-68.214-152.059-152.06
	c0-75.219,54.905-137.842,126.741-149.932l11.076,13.229c3.54,4.227,8.731,6.65,14.243,6.65c5.514,0,10.706-2.424,14.244-6.651
	l11.084-13.239c20.306,3.407,39.721,10.9,57.143,22.17c3.632,2.35,8.486,1.309,10.837-2.324c2.351-3.634,1.31-8.487-2.324-10.837
	c-16.673-10.785-35.002-18.421-54.185-22.712l35.823-42.79c5.533-6.61,5.814-16.062,0.68-22.987l-21.613-29.16
	c-3.488-4.705-9.068-7.515-14.924-7.515h-73.533c-5.857,0-11.436,2.81-14.924,7.515l-21.612,29.16
	c-5.134,6.925-4.853,16.378,0.681,22.987l35.825,42.793c-74.846,16.819-130.937,83.794-130.937,163.641
	C88.268,436.755,163.512,512,256,512s167.732-75.245,167.732-167.733C423.732,298.766,405.817,256.183,373.287,224.359z
	 M292.766,93.843c0.915,0,1.787,0.439,2.332,1.174l16.972,22.9h-18.618h-5.226l-10.094-24.074H292.766z M288.898,133.592h22.831
	l-34.965,41.766L288.898,133.592z M250.861,93.843h10.277l10.094,24.074h-30.464L250.861,93.843z M272.577,133.592L256,190.647
	l-16.578-57.055C239.422,133.592,272.577,133.592,272.577,133.592z M195.397,127.769c-0.865-1.032-0.909-2.509-0.108-3.591
	l21.612-29.159c0.545-0.736,1.417-1.176,2.332-1.176h14.633l-10.095,24.074h-4.343h-0.882l0.015,0.05
	c-3.919,0.433-6.969,3.751-6.969,7.787c0,4.328,3.509,7.837,7.837,7.837h3.673l12.135,41.766L195.397,127.769z"/>
<g>
</g>
<g>
</g>
<g>
</g>
<g>
</g>
<g>
</g>
<g>
</g>
<g>
</g>
<g>
</g>
<g>
</g>
<g>
</g>
<g>
</g>
<g>
</g>
<g>
</g>
<g>
</g>
<g>
</g>
</svg>
