<?xml version="1.0" encoding="iso-8859-1"?>
<!-- Generator: Adobe Illustrator 19.0.0, SVG Export Plug-In . SVG Version: 6.00 Build 0)  -->
<svg version="1.1" id="Layer_1" xmlns="http://www.w3.org/2000/svg" xmlns:xlink="http://www.w3.org/1999/xlink" x="0px" y="0px"
	 viewBox="0 0 512 512" style="enable-background:new 0 0 512 512;" xml:space="preserve">
<path style="fill:#EED063;" d="M256,174.223c-93.274,0-168.888,75.612-168.888,168.886c0,93.276,75.614,168.889,168.888,168.889
	c93.275,0,168.888-75.613,168.888-168.889C424.888,249.835,349.274,174.223,256,174.223z M256,467.852
	c-68.783,0-124.741-55.96-124.741-124.743c0-68.782,55.96-124.74,124.741-124.74s124.741,55.959,124.741,124.74
	C380.741,411.893,324.783,467.852,256,467.852z"/>
<g style="opacity:0.1;">
	<path d="M267.575,467.31c3.813,0.353,7.671,0.543,11.575,0.543c68.784,0,124.741-55.96,124.741-124.743
		c0-68.782-55.959-124.74-124.741-124.74c-3.903,0-7.762,0.19-11.575,0.541c63.377,5.86,113.168,59.319,113.168,124.199
		C380.741,407.99,330.95,461.451,267.575,467.31z"/>
	<path d="M110.261,343.11c0-89.382,69.44-162.534,157.314-168.484c-3.825-0.259-7.683-0.402-11.575-0.402
		c-93.274,0-168.888,75.612-168.888,168.886C87.111,436.386,162.726,512,256,512c3.892,0,7.749-0.143,11.575-0.403
		C179.7,505.648,110.261,432.494,110.261,343.11z"/>
</g>
<g>
	<path style="fill:#FFC529;" d="M415.482,83.894c-11.587,7.869-18.701,14.982-26.569,26.569c-1.138,1.677-3.593,1.677-4.732,0
		c-7.869-11.587-14.982-18.7-26.569-26.569c-1.677-1.138-1.677-3.593,0-4.732c11.587-7.868,18.7-14.981,26.569-26.568
		c1.138-1.677,3.593-1.677,4.732,0c7.869,11.588,14.982,18.7,26.569,26.568C417.158,80.301,417.158,82.755,415.482,83.894z"/>
	<path style="fill:#FFC529;" d="M306.767,44.59l-19.866-19.864c-1.112-1.112-1.112-2.915,0-4.027l19.864-19.864
		c1.112-1.112,2.915-1.112,4.027,0l19.865,19.864c1.112,1.112,1.112,2.915,0,4.027L310.794,44.59
		C309.681,45.702,307.879,45.702,306.767,44.59z"/>
	<path style="fill:#FFC529;" d="M153.167,83.105l-24.111-24.108c-1.112-1.112-1.112-2.915,0-4.027l24.108-24.108
		c1.112-1.112,2.915-1.112,4.027,0l24.11,24.109c1.112,1.112,1.112,2.915,0,4.027l-24.107,24.108
		C156.082,84.216,154.279,84.216,153.167,83.105z"/>
</g>
<path style="fill:#F49889;" d="M256,197.465c-3.357,0-6.542-1.487-8.698-4.061l-61.659-73.653c-3.368-4.021-3.54-9.824-0.418-14.036
	l22.827-30.8c2.14-2.886,5.52-4.589,9.114-4.589h77.668c3.593,0,6.974,1.703,9.114,4.589l22.827,30.8
	c3.121,4.213,2.949,10.016-0.416,14.036l-61.661,73.653C262.543,195.977,259.358,197.465,256,197.465z"/>
<path style="fill:#FFBAC5;" d="M294.834,70.326h-77.668c-3.593,0-6.974,1.703-9.114,4.589l-22.827,30.8
	c-1.457,1.966-2.187,4.278-2.219,6.594h145.989c-0.032-2.316-0.763-4.629-2.219-6.594l-22.827-30.8
	C301.808,72.029,298.427,70.326,294.834,70.326z"/>
<path style="fill:#F9A49B;" d="M227.465,112.309l24.531,84.421c1.266,0.479,2.62,0.734,4.004,0.734c1.386,0,2.74-0.256,4.006-0.734
	l24.529-84.421H227.465z"/>
<polygon style="fill:#FFD4DC;" points="266.933,70.326 245.068,70.326 227.465,112.309 284.535,112.309 "/>
<g>
</g>
<g>
</g>
<g>
</g>
<g>
</g>
<g>
</g>
<g>
</g>
<g>
</g>
<g>
</g>
<g>
</g>
<g>
</g>
<g>
</g>
<g>
</g>
<g>
</g>
<g>
</g>
<g>
</g>
</svg>
