<?xml version="1.0" encoding="utf-8"?>
<!-- Generator: Adobe Illustrator 24.0.0, SVG Export Plug-In . SVG Version: 6.00 Build 0)  -->
<svg version="1.1" xmlns="http://www.w3.org/2000/svg" xmlns:xlink="http://www.w3.org/1999/xlink" x="0px" y="0px"
	 viewBox="0 0 24 24" style="enable-background:new 0 0 24 24;" xml:space="preserve">
<style type="text/css">
	.st0{fill:#00DF5E;}
	.st1{fill:none;stroke:#000000;stroke-linecap:round;stroke-linejoin:round;}
</style>
<g id="Layer_2">
	<path class="st0" d="M7,3l10.1,0.1L20.8,8l0.2,8l-4,4.9c0,0-9.8-0.2-9.9-0.2c0,0.1-4.1-4.9-4.1-4.9l0.1-8L7,3z"/>
</g>
<g id="Layer_1">
	<path class="st1" d="M21,16V8l-4-5H7L3,8v8l4,5h10L21,16z"/>
	<path class="st1" d="M17,14.7V9.5L15,7H9L7,9.5v5.2L9,17h6L17,14.7z"/>
	<path class="st1" d="M7,21l2-4"/>
	<path class="st1" d="M15,17l2,4"/>
	<path class="st1" d="M7,3l2,4"/>
	<path class="st1" d="M15,7l2-4"/>
	<path class="st1" d="M3,8l4,1.5"/>
	<path class="st1" d="M3,16l4-1.5"/>
	<path class="st1" d="M21,16l-4-1.5"/>
	<path class="st1" d="M17,9.5L21,8"/>
</g>
</svg>
