<?xml version="1.0" encoding="utf-8"?>
<!-- Generator: Adobe Illustrator 24.0.0, SVG Export Plug-In . SVG Version: 6.00 Build 0)  -->
<svg version="1.1" xmlns="http://www.w3.org/2000/svg" xmlns:xlink="http://www.w3.org/1999/xlink" x="0px" y="0px"
	 viewBox="0 0 24 24" style="enable-background:new 0 0 24 24;" xml:space="preserve">
<style type="text/css">
	.st0{fill:#00089F;}
	.st1{fill:none;stroke:#000000;stroke-linecap:round;stroke-linejoin:round;}
</style>
<g id="Layer_2">
	<path class="st0" d="M12.1,3c0,0,8.6-0.3,9.1,9.2c0.4,7.4-8.3,8.6-9.1,8.8c-0.8,0.1-9-0.3-9.2-9.4C2.7,4.3,12.1,3,12.1,3z"/>
</g>
<g id="Layer_1">
	<path class="st1" d="M9,8l-2,4l2,4l3,1l3-1l2-4l-2-4l-3-1L9,8z"/>
	<path class="st1" d="M9,16l-2.5,3"/>
	<path class="st1" d="M15,16l2.5,3"/>
	<path class="st1" d="M12,3v4"/>
	<path class="st1" d="M9,8L7,5"/>
	<path class="st1" d="M15,8l2-3"/>
	<path class="st1" d="M12,21v-4"/>
	<circle class="st1" cx="12" cy="12" r="9"/>
	<path class="st1" d="M7,12H3"/>
	<path class="st1" d="M21,12h-4"/>
</g>
</svg>
