<?xml version="1.0" encoding="utf-8"?>
<!-- Generator: Adobe Illustrator 24.0.0, SVG Export Plug-In . SVG Version: 6.00 Build 0)  -->
<svg version="1.1" id="Layer_1" xmlns="http://www.w3.org/2000/svg" xmlns:xlink="http://www.w3.org/1999/xlink" x="0px" y="0px"
	 viewBox="0 0 100 100" style="enable-background:new 0 0 100 100;" xml:space="preserve">
<style type="text/css">
	.st0{fill:#FFF635;stroke:#000000;stroke-width:5.2242;stroke-linecap:round;stroke-linejoin:round;}
	.st1{fill:none;stroke:#000000;stroke-width:5.2242;stroke-linecap:round;stroke-linejoin:round;}
</style>
<path class="st0" d="M81.6,37C68.5,16.1,50.2,8.3,50.2,8.3S32,16.1,18.9,37S3.2,81.4,3.2,81.4s20.9,10.4,47,10.4s47-10.4,47-10.4
	S94.7,57.9,81.6,37z"/>
<path class="st1" d="M67.5,45.4c-7.3-12-17.2-16.2-17.2-16.2S40.3,33.3,33,45.4c-7.3,11.5-8.9,25.1-8.9,25.1s11.5,5.7,26.1,5.7
	s26.1-5.7,26.1-5.7S74.8,56.8,67.5,45.4z"/>
<path class="st1" d="M3.2,81.4l20.9-10.4"/>
<path class="st1" d="M76.4,70.9l20.9,10.4"/>
<path class="st1" d="M50.2,29.2V8.3"/>
</svg>
