<?xml version="1.0" encoding="utf-8"?>
<!-- Generator: Adobe Illustrator 24.0.0, SVG Export Plug-In . SVG Version: 6.00 Build 0)  -->
<svg version="1.1" id="Layer_4" xmlns="http://www.w3.org/2000/svg" xmlns:xlink="http://www.w3.org/1999/xlink" x="0px" y="0px"
	 viewBox="0 0 100 100" style="enable-background:new 0 0 100 100;" xml:space="preserve">
<style type="text/css">
	.st0{fill:#00089F;}
	.st1{fill:none;stroke:#000000;stroke-width:5.1767;stroke-linecap:round;stroke-linejoin:round;}
</style>
<g id="Layer_2_1_">
	<path class="st0" d="M50.6,3.1c0,0,44.5-1.6,47.1,47.6c2.1,38.3-43,44.5-47.1,45.6C46.5,96.8,4,94.8,3,47.7
		C2,9.9,50.6,3.1,50.6,3.1z"/>
</g>
<g id="Layer_1_1_">
	<path class="st1" d="M34.6,29L24.2,49.7l10.4,20.7l15.5,5.2l15.5-5.2L76,49.7L65.6,29l-15.5-5.2L34.6,29z"/>
	<path class="st1" d="M34.6,70.4L21.6,86"/>
	<path class="st1" d="M65.6,70.4L78.6,86"/>
	<path class="st1" d="M50.1,3.1v20.7"/>
	<path class="st1" d="M34.6,29L24.2,13.5"/>
	<path class="st1" d="M65.6,29L76,13.5"/>
	<path class="st1" d="M50.1,96.3V75.6"/>
	<circle class="st1" cx="50.1" cy="49.7" r="46.6"/>
	<path class="st1" d="M24.2,49.7H3.5"/>
	<path class="st1" d="M96.7,49.7H76"/>
</g>
</svg>
