<?xml version="1.0" encoding="utf-8"?>
<!-- Generator: Adobe Illustrator 24.0.0, SVG Export Plug-In . SVG Version: 6.00 Build 0)  -->
<svg version="1.1" id="Layer_4" xmlns="http://www.w3.org/2000/svg" xmlns:xlink="http://www.w3.org/1999/xlink" x="0px" y="0px"
	 viewBox="0 0 100 100" style="enable-background:new 0 0 100 100;" xml:space="preserve">
<style type="text/css">
	.st0{fill:#FF55A1;stroke:#000000;stroke-width:5.2249;stroke-linecap:round;stroke-linejoin:round;}
	.st1{fill:none;stroke:#000000;stroke-width:5.2249;stroke-linecap:round;stroke-linejoin:round;}
</style>
<path class="st0" d="M50.2,93.5L13.7,62.1L3.2,30.8l10.4-15.7l15.7-5.2L50.2,23L71.1,9.9l15.7,5.2l10.4,15.7L86.8,62.1L50.2,93.5"/>
<path class="st1" d="M68.5,54.3L50.2,67.4L31.9,54.3l-5.2-13.1l7.8-10.4l15.7,7.8l15.7-7.8l7.8,10.4L68.5,54.3z"/>
<path class="st1" d="M65.9,30.8l5.2-20.9"/>
<path class="st1" d="M34.6,30.8L29.3,9.9"/>
<path class="st1" d="M50.2,23v15.7"/>
<path class="st1" d="M3.2,30.8l23.5,10.4"/>
<path class="st1" d="M97.3,30.8L73.7,41.2"/>
<path class="st1" d="M50.2,93.5V67.4"/>
<path class="st1" d="M13.7,62.1l18.3-7.8"/>
<path class="st1" d="M86.8,62.1l-18.3-7.8"/>
</svg>
