<?xml version="1.0" encoding="utf-8"?>
<!-- Generator: Adobe Illustrator 24.0.0, SVG Export Plug-In . SVG Version: 6.00 Build 0)  -->
<svg version="1.1" xmlns="http://www.w3.org/2000/svg" xmlns:xlink="http://www.w3.org/1999/xlink" x="0px" y="0px"
	 viewBox="0 0 100 100" style="enable-background:new 0 0 100 100;" xml:space="preserve">
<style type="text/css">
	.st0{fill:#0AFF71;}
	.st1{fill:none;stroke:#000000;stroke-width:5.2248;stroke-linecap:round;stroke-linejoin:round;}
</style>
<g id="Layer_3">
	<polygon class="st0" points="51.9,2.5 83.1,24.1 93,60.1 61.7,97.7 40.8,97.3 9.4,60.7 20.5,23.7 	"/>
</g>
<g id="Layer_2">
	<path class="st1" d="M9.4,60.7l31.3,36.6h20.9L93,60.7L82.6,24.1L51.2,3.2L19.9,24.1L9.4,60.7z"/>
	<path class="st1" d="M51.2,3.2l13.1,34l2.6,39.6l-5.2,20.5"/>
	<path class="st1" d="M51.2,3.2l-13.1,34l-2.6,39.2l5.2,20.9"/>
	<path class="st1" d="M9.4,60.7l26.1,15.7h31.3L93,60.7"/>
	<path class="st1" d="M19.9,24.1l18.3,13.1h26.1l18.3-13.1"/>
</g>
</svg>
