<?xml version="1.0" encoding="iso-8859-1"?>
<!-- Generator: Adobe Illustrator 19.0.0, SVG Export Plug-In . SVG Version: 6.00 Build 0)  -->
<svg version="1.1" id="Layer_1" xmlns="http://www.w3.org/2000/svg" xmlns:xlink="http://www.w3.org/1999/xlink" x="0px" y="0px"
	 viewBox="0 0 512 512" style="enable-background:new 0 0 512 512;" xml:space="preserve">
<path style="fill:#E28883;" d="M382.873,451.189c-3.093,0-6.186-1.174-8.546-3.521l-97.859-97.372
	c-2.265-2.255-3.539-5.313-3.539-8.502s1.274-6.247,3.539-8.502l97.859-97.37c2.36-2.348,5.453-3.521,8.546-3.521
	c3.092,0,6.185,1.173,8.545,3.521l97.859,97.37c2.265,2.255,3.539,5.313,3.539,8.502s-1.274,6.247-3.539,8.502l-97.859,97.372
	C389.058,450.015,385.965,451.189,382.873,451.189z"/>
<path style="opacity:0.1;enable-background:new    ;" d="M309.235,350.296c-2.265-2.255-3.539-5.313-3.539-8.502
	s1.274-6.247,3.539-8.502l90.021-89.572l-7.838-7.799c-2.36-2.348-5.453-3.521-8.545-3.521c-3.093,0-6.186,1.173-8.546,3.521
	l-97.859,97.37c-2.265,2.255-3.539,5.313-3.539,8.502s1.274,6.247,3.539,8.502l97.859,97.372c2.36,2.348,5.453,3.521,8.546,3.521
	c3.092,0,6.185-1.174,8.545-3.521l7.838-7.799L309.235,350.296z"/>
<g>
	<path style="fill:#E8A09C;" d="M340.961,346.045c-0.959-0.956-1.559-2.202-1.72-3.529h-66.277c0.178,2.925,1.411,5.696,3.504,7.779
		l97.859,97.372c2.175,2.164,4.974,3.318,7.819,3.487l0.001-65.968c-1.296-0.155-2.553-0.702-3.547-1.692L340.961,346.045z"/>
	<path style="fill:#E8A09C;" d="M489.277,333.291l-97.859-97.371c-2.255-2.243-5.181-3.402-8.133-3.503v65.953
		c1.405,0.095,2.786,0.653,3.861,1.722l37.638,37.45c1.035,1.03,1.65,2.397,1.749,3.842h66.264
		C492.691,338.345,491.445,335.449,489.277,333.291z"/>
</g>
<path style="fill:#BF6060;" d="M382.873,385.256c-1.546,0-3.093-0.587-4.274-1.761l-37.638-37.45
	c-1.133-1.128-1.769-2.657-1.769-4.252s0.636-3.123,1.769-4.251l37.638-37.45c1.181-1.173,2.726-1.761,4.274-1.761
	c1.545,0,3.092,0.587,4.273,1.761l37.638,37.45c1.133,1.127,1.769,2.657,1.769,4.251c0,1.595-0.636,3.123-1.769,4.252l-37.638,37.45
	C385.965,384.669,384.418,385.256,382.873,385.256z"/>
<path style="fill:#E5AE36;" d="M119.73,504.163c-3.201,0-6.399-1.158-8.904-3.473l-87.532-80.938
	c-2.625-2.425-4.111-5.814-4.111-9.36V233.49c0-3.581,1.517-7,4.187-9.43l87.532-79.656c2.493-2.27,5.659-3.402,8.827-3.402
	c3.167,0,6.333,1.134,8.824,3.402l87.532,79.656c2.668,2.43,4.19,5.849,4.19,9.43v176.902c0,3.547-1.49,6.936-4.115,9.36
	L128.63,500.69C126.128,503.005,122.928,504.163,119.73,504.163z"/>
<polygon style="fill:#FDF276;" points="19.183,410.392 71.237,393.535 71.237,250.166 19.183,233.49 "/>
<g>
	<path style="fill:#BF953E;" d="M168.22,393.716l-48.49,44.839v65.608c3.198,0,6.398-1.158,8.9-3.473l87.532-80.938
		c2.625-2.425,4.115-5.814,4.115-9.36L168.22,393.716z"/>
	<path style="fill:#BF953E;" d="M119.73,141.001c-3.168,0-6.335,1.134-8.827,3.402l-87.532,79.656
		c-2.67,2.43-4.187,5.849-4.187,9.43l52.054,16.858l48.493-44.129V141.001z"/>
</g>
<g>
	<path style="fill:#FFC753;" d="M216.088,224.06l-87.532-79.656c-2.492-2.27-5.657-3.402-8.824-3.402v65.218l48.49,44.129
		l52.057-16.858C220.278,229.909,218.754,226.49,216.088,224.06z"/>
	<path style="fill:#FFC753;" d="M19.183,410.392c0,3.547,1.487,6.936,4.111,9.36l87.532,80.938c2.504,2.314,5.704,3.473,8.904,3.473
		v-65.608l-48.493-44.839L19.183,410.392z"/>
</g>
<polygon style="fill:#FEFAC8;" points="71.237,393.716 71.237,250.348 119.73,206.219 168.22,250.348 168.22,393.716 
	119.73,438.555 "/>
<path style="opacity:0.1;enable-background:new    ;" d="M55.882,419.752c-2.625-2.425-4.112-5.814-4.112-9.36V233.49
	c0-3.581,1.517-7,4.187-9.43l63.772-58.035v-25.024c-3.168,0-6.335,1.134-8.827,3.402L23.37,224.059
	c-2.67,2.43-4.187,5.849-4.187,9.43v176.902c0,3.547,1.487,6.936,4.111,9.36l87.532,80.938c2.504,2.314,5.702,3.473,8.904,3.473
	v-25.373L55.882,419.752z"/>
<polygon style="fill:#FDF276;" points="168.22,250.348 168.22,393.716 220.278,410.392 220.278,233.49 "/>
<path style="fill:#37C4B3;" d="M296.8,230.324c-3.651,0-7.116-1.647-9.441-4.49L175.529,89.171
	c-3.427-4.188-3.745-10.144-0.783-14.679l39.911-61.1c2.264-3.467,6.108-5.555,10.221-5.555h143.841
	c4.115,0,7.956,2.088,10.224,5.555l39.907,61.1c2.963,4.535,2.646,10.491-0.782,14.679L306.239,225.833
	C303.913,228.677,300.452,230.324,296.8,230.324z"/>
<g>
	<path style="fill:#53E7D3;" d="M219.317,9.202c-1.856,0.956-3.474,2.376-4.657,4.188l-39.913,61.101
		c-1.51,2.313-2.164,4.998-1.99,7.63h75.449l9.372-14.347L219.317,9.202z"/>
	<path style="fill:#53E7D3;" d="M418.851,74.493l-39.912-61.101c-1.183-1.812-2.799-3.233-4.658-4.188L336.02,67.774l9.373,14.349
		h75.45C421.017,79.49,420.366,76.805,418.851,74.493z"/>
	<polygon style="fill:#53E7D3;" points="296.8,230.35 345.394,82.123 248.507,82.123 	"/>
</g>
<polygon style="fill:#B9F5ED;" points="296.729,7.837 248.206,82.123 345.394,82.123 296.869,7.837 "/>
<path style="opacity:0.1;enable-background:new    ;" d="M279.027,175.799L208.14,89.171c-3.427-4.188-3.745-10.144-0.783-14.679
	l39.911-61.1c2.264-3.467,6.108-5.555,10.221-5.555h-32.61c-4.113,0-7.957,2.088-10.221,5.555l-39.911,61.1
	c-2.962,4.535-2.645,10.491,0.783,14.679l111.829,136.662c2.324,2.842,5.785,4.487,9.432,4.49L279.027,175.799z"/>
<path d="M500.633,341.391c0-0.002,0-0.004,0-0.006c0-0.133-0.014-0.262-0.02-0.394c-0.2-5.008-2.229-9.691-5.809-13.256
	l-25.344-25.22c-3.067-3.051-8.029-3.042-11.083,0.027c-3.053,3.068-3.041,8.03,0.027,11.082l20.019,19.921h-46.781
	c-0.406-0.544-0.842-1.072-1.332-1.561l-37.64-37.453c-0.485-0.482-1.008-0.91-1.55-1.31v-46.543l48.481,48.239
	c3.068,3.053,8.03,3.041,11.082-0.027c3.053-3.069,3.041-8.03-0.027-11.082l-53.712-53.443c-3.594-3.576-8.323-5.595-13.373-5.769
	c-0.096-0.003-0.191-0.015-0.288-0.015c-0.002,0-0.003,0-0.005,0c-0.136-0.002-0.27-0.02-0.405-0.02
	c-5.314,0-10.312,2.061-14.074,5.803l-97.861,97.371c-3.77,3.753-5.846,8.746-5.846,14.057s2.076,10.303,5.848,14.058l97.86,97.373
	c3.589,3.568,8.307,5.586,13.346,5.767l0,0c0.002,0,0.003,0,0.005,0c0.24,0.008,0.479,0.034,0.721,0.034
	c5.312,0,10.31-2.061,14.073-5.803l97.861-97.372c3.77-3.753,5.846-8.746,5.846-14.057
	C500.653,341.659,500.636,341.526,500.633,341.391z M375.447,245.86v46.792c-0.847,0.538-1.647,1.161-2.375,1.885l-37.639,37.451
	c-0.82,0.817-1.511,1.725-2.093,2.692h-47.156L375.447,245.86z M374.31,436.595l-8.579-8.536l-78.095-77.706h46.7
	c0.342,0.432,0.702,0.853,1.098,1.247l37.639,37.452c0.392,0.39,0.808,0.744,1.236,1.08L374.31,436.595z M382.872,376.691
	L347.8,341.793l35.072-34.898l35.072,34.898L382.872,376.691z M389.984,438.039l0.001-46.916c0.964-0.577,1.872-1.261,2.69-2.073
	l37.64-37.452c0.731-0.728,1.36-1.528,1.903-2.376h47.031L389.984,438.039z"/>
<path d="M281.292,230.794c3.829,4.681,9.48,7.367,15.507,7.367c6.026,0,11.678-2.684,15.505-7.364l63.384-77.457
	c2.742-3.35,2.248-8.287-1.102-11.028c-3.348-2.741-8.287-2.247-11.028,1.102l-50.07,61.189L351.072,89.96h56.227l-27.494,33.601
	c-2.742,3.35-2.248,8.287,1.102,11.028c3.349,2.742,8.287,2.249,11.028-1.102l32.201-39.351c5.625-6.873,6.139-16.49,1.278-23.927
	l-39.91-61.108C381.774,3.402,375.5,0,368.72,0H224.879c-6.786,0-13.059,3.404-16.782,9.106l-39.911,61.1
	c-4.86,7.439-4.346,17.055,1.279,23.927L281.292,230.794z M186.301,89.959h56.516l37.39,114.76L186.301,89.959z M375.244,22.058
	l34.113,52.228h-59.721l-4.254-6.512L375.244,22.058z M360.694,15.673l-24.673,37.771l-24.672-37.771H360.694z M330.913,74.286
	h-16.4c-4.328,0-7.837,3.509-7.837,7.837s3.509,7.837,7.837,7.837h20.063l-37.754,115.163L259.301,89.959h27
	c4.328,0,7.837-3.509,7.837-7.837s-3.509-7.837-7.837-7.837h-23.617l34.114-52.226L330.913,74.286z M282.249,15.673l-24.672,37.771
	l-24.672-37.771H282.249z M218.356,22.061l29.861,45.713l-4.253,6.511h-59.721L218.356,22.061z"/>
<path d="M133.831,138.61c-3.856-3.512-8.863-5.445-14.101-5.445c-5.238,0-10.246,1.934-14.102,5.444l-87.533,79.657
	c-4.288,3.904-6.748,9.453-6.748,15.225v176.902c0,5.714,2.417,11.223,6.628,15.114l87.533,80.938
	c3.874,3.582,8.927,5.555,14.222,5.555c5.298,0,10.349-1.974,14.22-5.556l87.531-80.936c4.215-3.894,6.633-9.404,6.633-15.117
	v-83.339c0-4.328-3.509-7.837-7.837-7.837s-7.837,3.509-7.837,7.837v72.6l-36.383-11.655v-131.95l36.383-11.782v53.53
	c0,4.328,3.509,7.837,7.837,7.837c4.328,0,7.837-3.509,7.837-7.837V233.49c0-5.767-2.46-11.316-6.752-15.226L133.831,138.61z
	 M111.893,154.097v48.658l-42.567,38.736L29.892,228.72L111.893,154.097z M27.02,244.266l36.38,11.782v131.95l-36.38,11.654
	C27.02,399.652,27.02,244.266,27.02,244.266z M111.893,491.003L29.9,415.188l39.374-12.613l42.619,39.407V491.003z M209.557,415.187
	L127.567,491v-49.018l42.616-39.407L209.557,415.187z M170.132,241.492l-11.261-10.248c-3.199-2.912-8.156-2.679-11.071,0.521
	c-2.913,3.201-2.679,8.158,0.521,11.071l12.062,10.977V390.29l-40.653,37.592L79.074,390.29V253.813l40.656-36.998l8.746,7.958
	c3.201,2.912,8.158,2.679,11.071-0.521c2.913-3.202,2.679-8.158-0.521-11.071l-11.457-10.427v-48.655l81.999,74.62L170.132,241.492z
	"/>
<g>
</g>
<g>
</g>
<g>
</g>
<g>
</g>
<g>
</g>
<g>
</g>
<g>
</g>
<g>
</g>
<g>
</g>
<g>
</g>
<g>
</g>
<g>
</g>
<g>
</g>
<g>
</g>
<g>
</g>
</svg>
