<?xml version="1.0" encoding="iso-8859-1"?>
<!-- Generator: Adobe Illustrator 19.0.0, SVG Export Plug-In . SVG Version: 6.00 Build 0)  -->
<svg version="1.1" id="Layer_1" xmlns="http://www.w3.org/2000/svg" xmlns:xlink="http://www.w3.org/1999/xlink" x="0px" y="0px"
	 viewBox="0 0 512 512" style="enable-background:new 0 0 512 512;" xml:space="preserve">
<path style="fill:#FFAB58;" d="M406.26,33.391h-16.696l-11.13,55.652l44.522-22.261V50.087
	C422.956,40.904,415.443,33.391,406.26,33.391z"/>
<path style="fill:#FFCD71;" d="M389.565,33.391h-16.696c-9.183,0-16.696,7.513-16.696,16.696l-11.13,38.956h44.522V33.391z"/>
<path style="fill:#FFAB58;" d="M139.131,33.391h-16.696l-11.13,55.652h55.652l-11.13-38.956
	C155.827,40.904,148.314,33.391,139.131,33.391z"/>
<path style="fill:#FFCD71;" d="M122.435,33.391H105.74c-9.183,0-16.696,7.513-16.696,16.696v16.696l33.391,22.261V33.391z"/>
<path style="fill:#FFAB58;" d="M205.913,0h-16.696l-11.13,44.522l44.522-11.13V16.696C222.609,7.513,215.096,0,205.913,0z"/>
<path style="fill:#FFCD71;" d="M189.218,0h-16.696c-9.183,0-16.696,7.513-16.696,16.696v16.696l33.391,11.13V0z"/>
<polygon style="fill:#FF883E;" points="178.087,89.043 222.609,89.043 222.609,33.391 189.218,33.391 "/>
<g>
	<rect x="155.825" y="33.391" style="fill:#FFAB58;" width="33.391" height="55.652"/>
	<path style="fill:#FFAB58;" d="M272.696,0H256l-11.13,44.522l44.522-11.13V16.696C289.391,7.513,281.878,0,272.696,0z"/>
</g>
<path style="fill:#FFCD71;" d="M256,0h-16.696c-9.183,0-16.696,7.513-16.696,16.696v16.696L256,44.522V0z"/>
<polygon style="fill:#FF883E;" points="244.87,89.043 289.391,89.043 289.391,33.391 256,33.391 "/>
<g>
	<rect x="222.608" y="33.391" style="fill:#FFAB58;" width="33.391" height="55.652"/>
	<path style="fill:#FFAB58;" d="M339.478,0h-16.696l-11.13,44.522l44.522-11.13V16.696C356.173,7.513,348.66,0,339.478,0z"/>
</g>
<path style="fill:#FFCD71;" d="M322.782,0h-16.696c-9.183,0-16.696,7.513-16.696,16.696v16.696l33.391,11.13V0z"/>
<polygon style="fill:#FF883E;" points="311.652,89.043 356.173,89.043 356.173,33.391 322.782,33.391 "/>
<rect x="289.39" y="33.391" style="fill:#FFAB58;" width="33.391" height="55.652"/>
<path style="fill:#35696A;" d="M428.521,132.113V83.478H83.479v48.635L256,506.433c138.311,0,250.434-97.173,250.434-217.043
	C506.434,227.481,476.501,171.651,428.521,132.113z"/>
<path style="fill:#5E8788;" d="M385.718,133.565H81.76C34.792,173.012,5.566,228.23,5.566,289.39
	c0,119.87,112.123,217.043,250.434,217.043c113.723,0,205.912-97.173,205.912-217.043
	C461.912,228.23,432.686,173.012,385.718,133.565z"/>
<g>
	<circle style="fill:#35696A;" cx="351.653" cy="420.172" r="8.348"/>
	<circle style="fill:#35696A;" cx="318.262" cy="453.563" r="8.348"/>
	<circle style="fill:#35696A;" cx="49.052" cy="286.607" r="8.348"/>
</g>
<path style="fill:#86A5A6;" d="M434.086,66.782H77.914c-9.22,0-16.696,7.475-16.696,16.696s7.475,16.696,16.696,16.696h356.172
	c9.22,0,16.696-7.475,16.696-16.696S443.307,66.782,434.086,66.782z"/>
<g>
	<path style="fill:#35696A;" d="M422.957,512c-3.38,0-6.561-2.067-7.817-5.418l-18.514-49.371
		c-1.618-4.317,0.569-9.129,4.885-10.747c4.322-1.619,9.129,0.569,10.748,4.885l18.514,49.371c1.618,4.317-0.569,9.129-4.885,10.748
		C424.921,511.829,423.931,512,422.957,512z"/>
	<path style="fill:#35696A;" d="M89.043,512c-0.974,0-1.965-0.171-2.93-0.533c-4.316-1.618-6.505-6.43-4.885-10.748l18.514-49.371
		c1.618-4.316,6.429-6.502,10.747-4.885c4.316,1.618,6.505,6.43,4.885,10.747l-18.514,49.371C95.604,509.933,92.423,512,89.043,512z
		"/>
</g>
<g>
</g>
<g>
</g>
<g>
</g>
<g>
</g>
<g>
</g>
<g>
</g>
<g>
</g>
<g>
</g>
<g>
</g>
<g>
</g>
<g>
</g>
<g>
</g>
<g>
</g>
<g>
</g>
<g>
</g>
</svg>
