<?xml version="1.0" encoding="iso-8859-1"?>
<!-- Generator: Adobe Illustrator 19.0.0, SVG Export Plug-In . SVG Version: 6.00 Build 0)  -->
<svg version="1.1" id="Layer_1" xmlns="http://www.w3.org/2000/svg" xmlns:xlink="http://www.w3.org/1999/xlink" x="0px" y="0px"
	 viewBox="0 0 455.943 455.943" style="enable-background:new 0 0 455.943 455.943;" xml:space="preserve">
<g transform="translate(0 -1020.36)">
	<path shape-rendering="auto" image-rendering="auto" color-rendering="auto" color-interpolation="sRGB" style="fill:#FF883E;" d="
		M273.94,1097.854c11.118,6.189,23.597,10.127,35.97,10.906c-1.524,2.486-3.157,4.93-4.251,7.563h-29.127
		c-7.826-3.254-15.487-7.443-20.656-11.656c5.128-1.424,11.003-2.984,15.281-5.125c0.986-0.48,1.832-1.137,2.782-1.686
		L273.94,1097.854z"/>
	<path style="fill:#716C8B;" d="M35.089,1124.354h385.764c8.349,0,15.118,6.768,15.118,15.117v26.836
		c0.001,3.34-2.706,6.049-6.046,6.049c-0.001,0-0.001,0-0.002,0H26.018c-3.34,0-6.047-2.707-6.047-6.047v-0.002v-26.836
		C19.971,1131.122,26.74,1124.354,35.089,1124.354z"/>
	<path style="fill:#7A78AD;" d="M403.896,1172.472l-10.567,12.297c-8.191,9.533-9.853,26.201-5.255,37.895
		c27.355,69.58,18.918,148.754-39.972,197.307c-64.812,53.42-174.627,53.502-239.395,0c-58.279-48.1-69.494-126.201-43.745-195.234
		c4.814-12.902,3.574-31.619-4.735-42.615l-7.307-9.674"/>
	<g shape-rendering="auto" image-rendering="auto" color-rendering="auto" color-interpolation="sRGB">
		<g>
			<path style="fill:#464C63;" d="M321.456,1036.252c12.858,5.657,23.004,13.663,29.272,22.972
				c6.268,9.307,8.599,20.836,3.554,30.859c-1.916,3.992-6.721,5.744-10.733,3.914c-4.012-1.832-5.711-6.553-3.795-10.545
				c0.045-0.092,0.091-0.186,0.138-0.275c2.005-3.982,1.52-8.85-2.624-15.004c-4.144-6.154-12.009-12.729-22.572-17.377
				c-10.563-4.646-21.869-6.552-31.236-5.97c-9.367,0.576-16.378,3.716-19.658,7.54c-2.747,3.496-7.807,4.172-11.303,1.514
				c-3.496-2.66-4.103-7.649-1.357-11.146c0.144-0.184,0.296-0.36,0.456-0.531c7.372-8.597,18.798-12.479,31.102-13.241
				c12.305-0.768,25.899,1.637,38.757,7.293V1036.252z"/>
			<path style="fill:#464C63;" d="M120.84,1082.323c-18.15-7.729-36.995-8.516-49.844,1.184
				c-6.424,4.848-10.272,12.275-10.906,20.154c-0.634,7.881,1.628,16.092,6.169,23.957c2.122,3.926,6.944,5.393,10.771,3.271
				c3.827-2.119,5.209-7.021,3.087-10.947c-0.076-0.141-0.155-0.277-0.239-0.414c-3.238-5.609-4.306-10.609-4.004-14.357
				c0.302-3.748,1.636-6.375,4.649-8.648c6.025-4.549,19.71-5.525,34.338,0.703c14.628,6.229,26.973,18.207,31.362,28.938
				c1.622,4.162,6.232,6.234,10.296,4.627c4.064-1.607,6.043-6.285,4.42-10.447c-0.035-0.09-0.071-0.18-0.109-0.268
				c-6.644-16.248-21.838-30.025-39.988-37.754V1082.323z"/>
			<path style="fill:#464C63;" d="M227.972,1036.4c-16.548,0-31.596,3.28-43.188,9.095s-20.813,14.934-20.813,27
				s9.221,21.217,20.813,27.031s26.639,9.064,43.188,9.064s31.596-3.25,43.187-9.064s20.813-14.965,20.813-27.031
				s-9.221-21.186-20.813-27S244.52,1036.4,227.972,1036.4z M227.972,1052.401c14.38,0,27.324,3.055,36,7.406
				c8.676,4.352,12,9.242,12,12.688c0,3.447-3.324,8.367-12,12.719c-8.676,4.352-21.62,7.377-36,7.377
				c-14.38,0-27.324-3.023-36-7.377c-8.676-4.352-12-9.271-12-12.719s3.324-8.336,12-12.688S213.592,1052.401,227.972,1052.401z"/>
			<path style="fill:#464C63;" d="M126.729,1023.745c-13.849,3.556-25.305,9.278-33.026,16.315
				c-7.72,7.036-12.524,16.354-7.938,26.282s16.079,15.094,27.973,17.094c11.895,2.002,25.65,1.248,39.498-2.299
				c13.849-3.555,25.275-9.271,32.995-16.307c7.72-7.037,12.541-16.391,7.956-26.318s-16.096-15.058-27.991-17.06
				C154.302,1019.451,140.578,1020.189,126.729,1023.745L126.729,1023.745z M133.49,1038.384
				c11.773-3.022,23.433-3.458,31.903-2.032c8.47,1.424,12.279,4.301,13.146,6.178c0.867,1.877,0.239,5.89-5.257,10.901
				c-5.497,5.01-15.033,10.047-26.806,13.066c-11.773,3.021-23.446,3.43-31.915,2.004c-8.47-1.424-12.309-4.293-13.176-6.17
				s-0.21-5.898,5.288-10.908S121.717,1041.405,133.49,1038.384L133.49,1038.384z"/>
			<path style="fill:#464C63;" d="M345.587,1078.854c18.15-7.729,36.98-8.545,49.828,1.152c6.424,4.85,10.314,12.287,10.949,20.168
				c0.634,7.881-1.671,16.078-6.211,23.945c-1.98,4.002-6.749,5.646-10.65,3.672c-3.902-1.975-5.46-6.818-3.48-10.82
				c0.156-0.316,0.333-0.621,0.527-0.914c3.238-5.611,4.333-10.625,4.031-14.375c-0.302-3.748-1.663-6.359-4.676-8.633
				c-6.025-4.547-19.71-5.525-34.337,0.703c-14.628,6.227-26.989,18.178-31.377,28.91c-1.451,4.227-5.975,6.49-10.102,5.059
				c-4.128-1.432-6.297-6.02-4.846-10.246c0.102-0.297,0.221-0.59,0.357-0.873c6.644-16.248,21.838-30.027,39.988-37.754
				L345.587,1078.854z"/>
			<path style="fill:#464C63;" d="M52.347,1164.37c-4.41,0.273-7.763,4.07-7.489,8.482c0.1,1.609,0.685,3.152,1.677,4.424
				l7.313,9.656c5.908,7.818,7.396,24.893,3.625,35c-26.705,71.598-15.013,153.734,46.156,204.219
				c68.195,56.332,181.331,56.238,249.562,0c61.893-51.031,70.66-134.383,42.344-206.406c-3.41-8.672-1.66-23.307,3.875-29.75
				l10.563-12.313c2.882-3.357,2.497-8.414-0.859-11.297s-8.415-2.498-11.297,0.859l-10.563,12.313
				c-10.846,12.623-12.411,31.316-6.625,46.031c26.394,67.135,18.26,142.141-37.625,188.217
				c-61.393,50.602-167.845,50.672-229.187,0c-0.01,0-0.021,0-0.031,0c-55.388-45.713-66.105-119.811-41.313-186.281
				c5.856-15.697,4.835-36.043-5.875-50.217l-7.281-9.688C57.699,1165.419,55.072,1164.192,52.347,1164.37L52.347,1164.37z"/>
			<g>
				<path style="fill:#464C63;" d="M123.565,1428.37c-2.923,0.141-5.535,1.867-6.813,4.5l-15.875,31.813
					c-1.998,3.941-0.423,8.756,3.519,10.754s8.756,0.424,10.754-3.518c0.013-0.027,0.027-0.053,0.04-0.08l15.875-31.813
					c2.024-3.928,0.481-8.752-3.447-10.777C126.368,1428.604,124.97,1428.302,123.565,1428.37z"/>
				<path style="fill:#464C63;" d="M331.347,1428.37c-4.405,0.352-7.691,4.205-7.34,8.611c0.085,1.063,0.381,2.098,0.872,3.045
					l15.875,31.813c1.954,3.963,6.752,5.592,10.715,3.637c3.963-1.953,5.592-6.752,3.637-10.715
					c-0.013-0.025-0.026-0.053-0.039-0.078l-15.875-31.813C337.755,1429.896,334.639,1428.106,331.347,1428.37z"/>
			</g>
			<path style="fill:#464C63;" d="M207.972,1212.37c-6.83-0.305-13.769,3.082-18.938,7.875s-9.063,11.709-9.063,19.75
				c0.009,8.346,4.237,15.15,8.906,20.156c10.943,11.742,33.031,37.406,33.031,37.406c3.138,3.678,8.796,3.752,12.031,0.16
				c0,0,23.554-26.295,34.969-39.375c4.34-4.975,7.045-11.389,7.063-18.281c0-15.244-12.713-27.623-28-27.623
				c-8.416,0-15.432,4.145-20.594,10.063c-4.854-7.123-12.116-9.813-19.406-10.129V1212.37z"/>
		</g>
		<path style="fill:#82DD47;" d="M207.972,1228.37c3.128,0,4.805,0.623,6.656,2.344s3.966,5.129,5.594,11.313
			c1.099,4.279,5.46,6.857,9.74,5.76c3.552-0.912,6.029-4.123,6.01-7.791c0-6.436,5.203-11.623,12-11.623s12,5.189,12,11.623
			c-0.014,2.732-1.086,5.445-3.125,7.783c-9.304,10.66-23.049,25.986-28.875,32.5c-5.628-6.527-17.922-20.92-27.375-31.063
			c-3.061-3.281-4.622-6.328-4.625-9.219c0-2.799,1.444-5.688,3.938-8c2.493-2.311,5.902-3.623,8.063-3.623L207.972,1228.37z"/>
		<path style="fill:#464C63;" d="M273.472,1277.151c-15.071,3.52-47.219,9.656-47.219,9.656c-4.728,0.896-7.6,5.732-6.125,10.314
			c0,0,10.634,32.791,16.062,48.844c2.071,6.129,6.145,11.611,11.969,15.031h0.032c12.885,7.523,29.61,2.734,37.031-10.279
			c4.048-7.094,4.045-15.01,1.656-22.252c9.453-1.104,13.889-5.535,17.625-11.465c3.585-5.688,4.152-13.254,2.625-20
			c-1.527-6.744-5.477-13.461-12.281-17.438c-7.076-4.135-14.897-3.846-21.375-2.344L273.472,1277.151z"/>
		<path style="fill:#82DD47;" d="M277.097,1292.745c4.183-0.977,7.366-0.801,9.688,0.561c2.26,1.313,3.991,3.943,4.719,7.154
			c0.727,3.213,0.177,6.701-0.844,8.469c-1.504,2.605-2.756,3.643-5,4.344c-2.244,0.703-6.063,0.863-12.031-0.752
			c-4.26-1.174-8.665,1.326-9.84,5.586c-0.965,3.5,0.547,7.211,3.684,9.039c5.239,3.061,7.116,9.947,3.875,15.625
			c-0.011,0-0.021,0-0.032,0c-3.24,5.682-9.82,7.465-15.063,4.406c-2.223-1.313-3.941-3.488-4.906-6.344
			c-4.405-13.025-10.521-31.908-13.188-40.125c8.318-1.602,25.96-4.938,38.937-7.969L277.097,1292.745z"/>
		<path style="fill:#464C63;" d="M182.472,1277.151c-6.478-1.504-14.299-1.791-21.375,2.344
			c-6.805,3.977-10.754,10.693-12.281,17.438c-1.527,6.746-0.96,14.313,2.625,20c3.736,5.93,10.125,10.881,17.625,11.465
			c-2.388,7.242-2.387,15.16,1.656,22.252c7.421,13.016,24.146,17.803,37.031,10.279h0.032c5.825-3.42,9.898-8.902,11.969-15.031
			c5.427-16.053,16.062-48.844,16.062-48.844c1.475-4.58-1.397-9.418-6.125-10.314c0,0-32.148-6.137-47.219-9.656L182.472,1277.151z
			"/>
		<path style="fill:#82DD47;" d="M178.847,1292.745c12.978,3.031,30.619,6.367,38.937,7.969
			c-2.666,8.217-8.783,27.098-13.188,40.125c-0.965,2.855-2.682,5.037-4.906,6.344c-5.243,3.059-11.854,1.313-15.094-4.377
			c-3.239-5.68-1.363-12.564,3.875-15.625c8.098-4.719,2.878-17.119-6.156-14.625c-5.968,1.621-9.787,1.455-12.031,0.752
			c-2.244-0.703-3.496-1.738-5-4.344c-1.021-1.768-1.571-5.256-0.844-8.469c0.727-3.211,2.459-5.836,4.719-7.154
			c3.419-1.938,6.737-1.057,9.687-0.592L178.847,1292.745z"/>
		<g>
			<g>
				<path style="fill:#464C63;" d="M234.878,1356.339l-13.781,8.156c0,0,1.925,3.279,3.781,7.406
					c1.856,4.129,3.11,9.512,3.063,10.125c-0.17,2.236-3.399,9.631-7,15.25s-7.125,9.969-7.125,9.969l12.438,10.063
					c0,0,4.03-4.967,8.156-11.406c4.127-6.439,8.832-13.881,9.5-22.656h-0.032c0.557-7.172-2.142-12.871-4.406-17.906
					C237.207,1360.306,234.877,1356.339,234.878,1356.339L234.878,1356.339z"/>
				<path style="fill:#464C63;" d="M235.628,1374.526c-4.109,0.152-7.433,3.396-7.688,7.5c-0.17,2.236-3.399,9.631-7,15.25
					s-7.125,9.969-7.125,9.969c-2.849,3.379-2.419,8.426,0.959,11.273c3.378,2.85,8.426,2.42,11.274-0.959
					c0.07-0.082,0.138-0.166,0.205-0.252c0,0,4.03-4.967,8.156-11.406c4.127-6.439,8.832-13.881,9.5-22.656
					c0.401-4.4-2.841-8.293-7.242-8.693c-0.346-0.031-0.693-0.041-1.04-0.027V1374.526z"/>
			</g>
			<path style="fill:#464C63;" d="M35.097,1116.339c-12.672,0-23.124,10.453-23.125,23.125v26.846
				c-0.001,7.664,6.367,14.031,14.031,14.031h403.906c7.664,0,14.063-6.367,14.063-14.031v-26.846
				c-0.001-12.672-10.453-23.125-23.125-23.125H35.097z M35.097,1132.339h385.75c4.026,0,7.125,3.1,7.125,7.125v24.875h-400v-24.875
				C27.972,1135.438,31.071,1132.339,35.097,1132.339z"/>
			<path style="fill:#464C63;" d="M135.926,1096.085c16.446-9.518,34.993-13.814,50.92-10.334c7.963,1.74,14.87,5.553,19.426,11.309
				s6.41,13.248,5.446,20.766c-0.371,4.313-4.309,7.445-8.797,6.996c-4.487-0.451-7.825-4.313-7.454-8.627
				c0.018-0.215,0.046-0.428,0.083-0.639c0.527-4.111-0.388-6.863-2.182-9.131c-1.794-2.268-4.853-4.273-9.827-5.359
				c-9.947-2.172-25.461,0.688-39.012,8.531c-3.757,2.313-8.815,1.209-11.297-2.459c-2.481-3.67-1.447-8.52,2.31-10.832
				C135.668,1096.229,135.796,1096.155,135.926,1096.085L135.926,1096.085z"/>
			<path style="fill:#464C63;" d="M244.43,1093.614c-4.253-1.199-8.667,1.277-9.86,5.531c-0.659,2.352-0.209,4.877,1.223,6.857
				c7.56,10.801,20.483,19.557,36.033,25.748c4.085,1.686,8.758-0.258,10.436-4.346c1.679-4.086-0.271-8.766-4.356-10.453
				c-0.064-0.025-0.128-0.051-0.192-0.076c-13.408-5.338-24.048-13.207-28.83-20.039c-1.059-1.566-2.636-2.709-4.454-3.225V1093.614
				z"/>
			<path style="fill:#464C63;" d="M326.715,1092.911c4.165,1.475,6.279,6.021,4.724,10.16c-1.048,2.787-3.568,4.793-6.539,5.207
				c-18.314,2.709-39.048-2.236-55.538-12.793c-3.707-2.373-4.719-7.297-2.259-10.996c2.46-3.699,7.459-4.775,11.167-2.402
				c13.153,8.42,31.054,12.434,44.466,10.449c1.342-0.211,2.711-0.084,3.979,0.367L326.715,1092.911z"/>
		</g>
		<g>
			<path style="fill:#FFCC00;" d="M158.534,1035.665c2.473,0.16,4.789,0.368,6.907,0.72c8.469,1.424,12.195,4.251,13.062,6.125
				c0.865,1.875,0.302,5.903-5.189,10.907c-5.497,5.006-15.102,10.01-26.875,13.031c-11.773,3.023-23.467,3.514-31.937,2.094
				c-8.469-1.424-12.228-4.377-13.095-6.25c-0.865-1.875-0.242-5.805,5.219-10.813c5.497-5.013,15.07-10.103,26.843-13.125
				c8.831-2.268,17.639-3.042,25.063-2.691L158.534,1035.665z"/>
			<path style="fill:#FFCC00;" d="M283.504,1044.791c9.368-0.608,20.626,1.376,31.187,6.028
				c10.563,4.65,18.388,11.219,22.531,17.375c3.628,5.377,4.39,9.701,3.217,13.375c-6.029,3.055-11.619,6.686-16.594,10.938
				c-0.358,0.029-0.713,0.084-1.064,0.16c-10.661,1.584-24.104-0.752-35.813-5.969c2.987-4.154,4.971-8.811,4.971-14.127
				c0-11.256-8.108-19.877-18.594-25.719c2.975-0.976,6.311-1.754,10.157-2.002L283.504,1044.791z"/>
			<path style="fill:#FFCC00;" d="M227.94,1052.415c14.381,0,27.355,2.986,36.032,7.344c8.677,4.354,12.03,9.305,12.03,12.75
				c0,2.377-1.754,5.473-5.594,8.594c-1.156,0.461-2.193,1.176-3.03,2.094c-1.095,0.688-2.068,1.393-3.405,2.063
				c-8.677,4.354-21.651,7.313-36.032,7.313c-14.379,0-27.354-2.957-36.03-7.313c-8.677-4.355-11.938-9.305-11.938-12.75
				c0-1.088,0.484-2.383,1.222-3.721c1.79-1.264,3.55-2.557,5.062-3.936c1.258-1.137,2.268-2.455,3.344-3.721
				c0.786-0.48,1.409-0.928,2.31-1.377c8.677-4.355,21.651-7.344,36.03-7.344L227.94,1052.415z"/>
		</g>
		<path style="fill:#FF883E;" d="M164.534,1077.478c0.641,2.844,2.068,5.389,3.659,7.846c-9.391,1.072-18.935,4.082-28.062,8.781
			c-4.687-3.707-9.771-6.963-15.282-9.656c9.015,0.24,18.652-0.816,28.374-3.314c4.009-1.023,7.736-2.293,11.313-3.66
			L164.534,1077.478z"/>
		<g>
			<path style="fill:#FFCC00;" d="M371.972,1089.353c6.005,0,10.927,1.473,13.938,3.75c3.012,2.273,4.414,4.844,4.717,8.594
				c0.302,3.748-0.883,8.764-4.124,14.375c-0.042,0.08-0.083,0.16-0.122,0.24H323.88c5.86-8.83,15.92-17.615,27.688-22.623
				c7.314-3.119,14.4-4.402,20.406-4.342L371.972,1089.353z"/>
			<path style="fill:#FFCC00;" d="M94.504,1092.792c6.017,0,13.093,1.328,20.406,4.438c10.2,4.342,19.066,11.525,25.093,19.094
				H78.504c-1.893-4.227-2.866-8.113-2.625-11.094c0.302-3.748,1.645-6.504,4.656-8.781c3.012-2.275,7.954-3.635,13.97-3.66
				L94.504,1092.792z"/>
			<path style="fill:#FFCC00;" d="M175.191,1100.353c3.072,0,5.92,0.16,8.407,0.688c4.971,1.088,7.984,3.146,9.781,5.406
				c1.808,2.268,2.703,4.916,2.153,9.031c-0.057,0.279-0.097,0.563-0.122,0.848h-36.656c-1.826-3.623-3.985-7.086-6.593-10.375
				c7.944-3.398,16.045-5.395,22.999-5.594L175.191,1100.353z"/>
		</g>
		<path style="fill:#FF883E;" d="M211.16,1107.323c5.376,0.783,10.931,1.313,16.781,1.313c3.356,0,6.594-0.176,9.813-0.48
			c2.28,2.889,4.941,5.588,7.938,8.154h-33.906c0.242-3.066,0.053-6.104-0.623-9L211.16,1107.323z"/>
		<path style="fill:#66627B;" d="M35.065,1132.386c-4.027,0-7.093,3.066-7.093,7.094v24.906h8.75v-24.906
			c0-4.029,3.066-7.094,7.093-7.094H35.065z"/>
		<path style="fill:#6E6C96;" d="M68.566,1180.353c8.738,13.953,9.392,32.605,3.937,47.219
			c-24.792,66.471-14.045,140.568,41.344,186.281c31.738,26.217,75.522,38.732,118.906,37.813
			c-40.464-0.848-80.554-13.359-110.155-37.813c-55.389-45.713-66.136-119.811-41.344-186.281
			c5.455-14.613,4.802-33.266-3.937-47.219H68.566z"/>
		<g>
			<path style="fill:#74BD45;" d="M207.972,1228.415L207.972,1228.415c-6.801,0-12.062,5.129-12.062,11.563
				c0.007,2.891,1.566,5.934,4.626,9.219c9.459,10.15,21.888,24.551,27.499,31.063c0.423-0.432,1.506-1.695,1.971-2.219
				c-6.07-7.035-16.748-19.42-25.533-28.846c-3.06-3.283-4.62-6.328-4.626-9.217c0-5.793,4.348-10.297,10.156-11.189
				c-0.701-0.16-1.343-0.416-2.092-0.416L207.972,1228.415z M248.067,1228.415c-6.801,0-12.032,5.129-12.032,11.563
				c-0.022,0.561-0.103,1.115-0.242,1.658c-0.065,0.287-0.146,0.57-0.242,0.848c-0.07,0.232-0.151,0.463-0.242,0.688
				c-1.018,2.242-3.012,3.891-5.406,4.469c0.279,0.074,0.561,0.133,0.847,0.176c3.551,0.541,7.027-1.35,8.501-4.625
				c0.091-0.225,0.172-0.455,0.242-0.688c0.096-0.277,0.177-0.561,0.242-0.848c0.138-0.543,0.22-1.098,0.242-1.658
				c0-5.77,4.294-10.271,10.062-11.188c-0.671-0.16-1.264-0.367-1.965-0.367L248.067,1228.415z"/>
			<path style="fill:#74BD45;" d="M173.253,1292.196c-1.609,0.16-2.964,0.48-4.125,1.152c-2.251,1.328-3.962,3.953-4.688,7.156
				c-0.596,2.633-0.207,5.221,0.469,7.125c0.186,0.432,0.196,0.896,0.437,1.313c0.799,1.393,1.84,2.455,2.969,3.344
				c0.6,0.385,1.176,0.783,1.969,1.023c1.174,0.367,2.85,0.512,4.969,0.4c-2.346-0.848-4.525-2.254-5.969-4.781
				c-3.241-5.678-1.456-12.531,3.781-15.594c0.858-0.465,1.962-0.656,3.063-0.848c-0.967-0.16-2.038-0.367-2.875-0.32
				L173.253,1292.196z M188.378,1312.196c-0.685-0.002-1.368,0.084-2.031,0.256c0.979,0.252,1.901,0.686,2.719,1.279
				c0.652,0.465,1.232,1.023,1.719,1.658c0.042,0.053,0.084,0.105,0.125,0.16c0.11,0.162,0.214,0.326,0.312,0.496
				c0.134,0.201,0.26,0.41,0.375,0.623c0.011,0,0.021,0,0.032,0c0.032,0.063,0.064,0.127,0.094,0.191
				c0.08,0.184,0.153,0.371,0.219,0.561c0.022,0.064,0.042,0.127,0.062,0.191c0.086,0.258,0.159,0.52,0.219,0.783
				c0.184,0.787,0.247,1.6,0.188,2.406c-0.041,0.531-0.136,1.057-0.281,1.568c-0.147,0.52-0.346,1.023-0.594,1.504
				c-0.491,0.959-1.172,1.811-2,2.5c-0.332,0.289-0.687,0.553-1.063,0.783c-1.309,0.768-2.419,1.74-3.281,2.906
				c-0.09,0.16-0.104,0.287-0.188,0.4c-0.716,1.057-1.306,2.197-1.625,3.438c-0.28,1.088-0.274,2.252-0.219,3.404
				c0.016,0.336-0.107,0.641-0.062,0.977c0.198,1.473,0.695,2.965,1.5,4.375c0.388,0.688,0.899,1.184,1.375,1.75
				c0.361,0.432,0.689,0.912,1.094,1.279c0.676,0.607,1.419,1.057,2.188,1.473c0.29,0.16,0.575,0.305,0.875,0.432
				c0.887,0.367,1.807,0.656,2.75,0.783c0.146,0,0.291,0,0.437,0c1.015,0.16,2.045,0,3.063-0.16
				c-3.116-0.607-6.024-2.438-7.844-5.625c-3.241-5.678-1.331-12.502,3.906-15.563c3.813-2.27,5.064-7.199,2.794-11.014
				c-1.44-2.418-4.042-3.908-6.857-3.924L188.378,1312.196z"/>
			<path style="fill:#74BD45;" d="M282.597,1292.165c-1.609-0.16-3.439,0.16-5.531,0.623c-12.947,3.021-30.479,6.299-38.844,7.906
				c1.602,4.941,4.928,15.063,7.875,24.125c1.973,6.008,3.494,10.807,5.25,16c0.965,2.855,2.683,5.031,4.906,6.344
				c1.221,0.703,2.506,1.119,3.813,1.313c1.004,0.16,2.005,0,3-0.16c0.146,0,0.293,0,0.437,0c-1.124-0.24-2.229-0.465-3.281-1.088
				c-2.225-1.313-4.001-3.518-4.969-6.375c-4.402-13.021-10.425-31.934-13.094-40.156c8.365-1.607,25.896-4.881,38.844-7.906
				c0.992-0.24,1.748-0.191,2.625-0.32c-0.363,0-0.65-0.225-1.031-0.287l0,0L282.597,1292.165z M275.597,1312.446L275.597,1312.446
				c-0.42,0.02-0.838,0.074-1.25,0.16c2.321,0.576,4.299,0.896,5.969,0.992c-0.277-0.16-0.576-0.16-0.844-0.287
				c-1.194-0.625-2.527-0.939-3.875-0.912L275.597,1312.446z"/>
		</g>
		<g>
			<path style="fill:#D8AF0C;" d="M158.534,1035.665c-7.424-0.368-16.231,0.416-25.063,2.691
				c-11.773,3.024-21.346,8.112-26.843,13.125c-5.461,5.008-6.083,8.939-5.219,10.813c0.865,1.875,4.626,4.826,13.095,6.25
				c3.804,0.641,8.307,0.816,13.125,0.623c-2.274-0.16-4.445-0.305-6.406-0.623c-8.469-1.424-12.226-4.377-13.093-6.25
				c-0.865-1.873-0.242-5.805,5.219-10.813c5.497-5.013,15.072-10.103,26.845-13.125c6.933-1.777,13.659-2.413,19.906-2.533
				c-0.544,0-1.01-0.16-1.566-0.176L158.534,1035.665z"/>
			<path style="fill:#D8AF0C;" d="M283.504,1044.791L283.504,1044.791c-3.846,0.24-7.181,1.024-10.157,2.001
				c10.487,5.842,18.593,14.463,18.593,25.719c0,5.314-1.983,9.971-4.971,14.125c10.279,4.578,21.792,6.748,31.688,6.188
				c-8.186-0.545-16.963-2.623-24.97-6.188c2.987-4.154,4.971-8.811,4.971-14.125c0-11.256-8.107-19.877-18.593-25.719
				c2.975-0.976,6.308-1.754,10.155-2.002c-2.31-0.16-4.578-0.176-6.719,0L283.504,1044.791z"/>
			<path style="fill:#D8AF0C;" d="M227.94,1052.415c-14.379,0-27.354,2.986-36.03,7.344c-0.895,0.416-1.518,0.896-2.31,1.377
				c-1.07,1.264-2.086,2.576-3.344,3.721c-1.506,1.377-3.272,2.666-5.062,3.936c-0.738,1.328-1.216,2.623-1.216,3.719
				c0,3.447,3.259,8.396,11.938,12.75c8.677,4.354,21.651,7.313,36.03,7.313c1.149,0,2.237-0.16,3.374-0.176
				c-13.008-0.416-24.704-3.15-32.688-7.156c-8.677-4.354-11.938-9.303-11.938-12.748c0-1.104,0.484-2.385,1.216-3.721
				c1.79-1.264,3.55-2.559,5.062-3.936c1.264-1.152,2.268-2.455,3.344-3.721c0.786-0.48,1.409-0.928,2.31-1.377
				c7.984-4.01,19.68-6.756,32.688-7.188c-1.137,0-2.219-0.176-3.374-0.176L227.94,1052.415z"/>
			<path style="fill:#D8AF0C;" d="M371.972,1089.353c-6.005,0-13.093,1.217-20.406,4.342c-11.768,5.014-21.827,13.793-27.688,22.623
				h6.72c5.86-8.83,15.919-17.615,27.687-22.623c5.89-2.516,11.475-3.58,16.626-3.967c-1.01-0.16-1.85-0.367-2.939-0.367
				L371.972,1089.353z"/>
			<path style="fill:#D8AF0C;" d="M94.504,1092.792c-6.017,0-10.957,1.393-13.97,3.658c-3.012,2.279-4.354,5.031-4.656,8.783
				c-0.242,2.98,0.425,6.99,2.312,11.217l7.03-0.16c-1.893-4.227-2.866-8.115-2.625-11.094c0.302-3.75,1.645-6.506,4.656-8.783
				c2.431-1.838,6.342-2.859,10.843-3.283c-1.185-0.16-2.479-0.367-3.592-0.367L94.504,1092.792z"/>
			<path style="fill:#D8AF0C;" d="M175.159,1100.353c-6.955,0.176-15.056,2.195-22.999,5.594c2.606,3.291,4.765,6.754,6.593,10.377
				h6.718c-1.826-3.623-3.985-7.088-6.594-10.377c7.074-3.021,14.16-4.729,20.564-5.248c-1.427-0.16-2.697-0.367-4.251-0.367
				L175.159,1100.353z"/>
		</g>
	</g>
</g>
<g>
</g>
<g>
</g>
<g>
</g>
<g>
</g>
<g>
</g>
<g>
</g>
<g>
</g>
<g>
</g>
<g>
</g>
<g>
</g>
<g>
</g>
<g>
</g>
<g>
</g>
<g>
</g>
<g>
</g>
</svg>
