<?xml version="1.0" encoding="utf-8"?>
<!-- Generator: Adobe Illustrator 24.0.0, SVG Export Plug-In . SVG Version: 6.00 Build 0)  -->
<svg version="1.1" id="Layer_1" xmlns="http://www.w3.org/2000/svg" xmlns:xlink="http://www.w3.org/1999/xlink" x="0px" y="0px"
	 viewBox="0 0 24 24" style="enable-background:new 0 0 24 24;" xml:space="preserve">
<style type="text/css">
	.st0{fill:#FF55A1;stroke:#000000;stroke-linecap:round;stroke-linejoin:round;}
	.st1{fill:none;stroke:#000000;stroke-linecap:round;stroke-linejoin:round;}
</style>
<path class="st0" d="M19,14l-7,6l-7-6L3,8l2-3l3-1l4,2.5L16,4l3,1l2,3L19,14z"/>
<path class="st1" d="M15.5,12.5L12,15l-3.5-2.5l-1-2.5L9,8l3,1.5L15,8l1.5,2L15.5,12.5z"/>
<path class="st1" d="M15,8l1-4"/>
<path class="st1" d="M9,8L8,4"/>
<path class="st1" d="M12,6.5v3"/>
<path class="st1" d="M3,8l4.5,2"/>
<path class="st1" d="M21,8l-4.5,2"/>
<path class="st1" d="M12,20v-5"/>
<path class="st1" d="M5,14l3.5-1.5"/>
<path class="st1" d="M19,14l-3.5-1.5"/>
</svg>
