<?xml version="1.0" encoding="utf-8"?>
<!-- Generator: Adobe Illustrator 24.0.0, SVG Export Plug-In . SVG Version: 6.00 Build 0)  -->
<svg version="1.1" id="Layer_1" xmlns="http://www.w3.org/2000/svg" xmlns:xlink="http://www.w3.org/1999/xlink" x="0px" y="0px"
	 viewBox="0 0 24 24" style="enable-background:new 0 0 24 24;" xml:space="preserve">
<style type="text/css">
	.st0{fill:#FFF635;stroke:#000000;stroke-linecap:round;stroke-linejoin:round;}
	.st1{fill:none;stroke:#000000;stroke-linecap:round;stroke-linejoin:round;}
</style>
<path class="st0" d="M18,8.5c-2.5-4-6-5.5-6-5.5S8.5,4.5,6,8.5S3,17,3,17s4,2,9,2s9-2,9-2S20.5,12.5,18,8.5z"/>
<path class="st1" d="M15.3,10.1C13.9,7.8,12,7,12,7s-1.9,0.8-3.3,3.1C7.3,12.3,7,14.9,7,14.9S9.2,16,12,16c2.8,0,5-1.1,5-1.1
	S16.7,12.3,15.3,10.1z"/>
<path class="st1" d="M3,17l4-2"/>
<path class="st1" d="M17,15l4,2"/>
<path class="st1" d="M12,7V3"/>
</svg>
