<?xml version="1.0" encoding="iso-8859-1"?>
<!-- Generator: Adobe Illustrator 19.0.0, SVG Export Plug-In . SVG Version: 6.00 Build 0)  -->
<svg version="1.1" id="Layer_1" xmlns="http://www.w3.org/2000/svg" xmlns:xlink="http://www.w3.org/1999/xlink" x="0px" y="0px"
	 viewBox="0 0 512 512" style="enable-background:new 0 0 512 512;" xml:space="preserve">
<circle style="fill:#FAEDD6;" cx="255.998" cy="250.294" r="16.011"/>
<path style="fill:#FA004B;" d="M323.806,365.962c-17.91-17.91-46.947-17.91-64.857,0l-2.948,2.948l-2.948-2.948
	c-17.91-17.91-46.947-17.91-64.857,0s-17.91,46.947,0,64.857l67.805,67.805l67.805-67.805
	C341.716,412.91,341.716,383.872,323.806,365.962z"/>
<path style="fill:#232323;" d="M329.347,360.422L329.347,360.422c-17.889-17.887-45.355-20.478-66.033-7.8v-22.517h-15.67v21.876
	c-20.552-11.959-47.402-9.146-64.988,8.439c-20.935,20.936-20.935,55.001,0,75.939l73.346,73.344l73.346-73.345
	C350.281,415.424,350.281,381.357,329.347,360.422z M318.265,425.279L256,487.544l-62.265-62.264
	c-14.826-14.827-14.826-38.952-0.001-53.778c7.415-7.414,17.15-11.121,26.889-11.121c9.736,0,19.476,3.708,26.887,11.121
	l8.489,8.488l8.489-8.488c14.825-14.827,38.95-14.824,53.776-0.001C333.092,386.329,333.092,410.453,318.265,425.279z"/>
<rect x="247.64" y="298.767" style="fill:#36C9A3;" width="15.67" height="24.028"/>
<g>
	<path style="fill:#232323;" d="M27.227,153.784c6.43,6.135,13.716,11.244,21.654,15.18l6.964-14.038
		c-6.524-3.236-12.513-7.434-17.799-12.479L27.227,153.784z"/>
	<path style="fill:#232323;" d="M15.67,90.444L0,90.497c0.03,8.915,1.394,17.708,4.05,26.136l14.946-4.714
		C16.814,105.002,15.695,97.776,15.67,90.444z"/>
	<path style="fill:#232323;" d="M21.528,118.729l-14.39,6.201c3.505,8.137,8.217,15.687,14.006,22.438l11.896-10.2
		C28.28,131.617,24.408,125.414,21.528,118.729z"/>
	<path style="fill:#232323;" d="M64.832,5.354l4.101,15.124c6.146-1.666,12.524-2.51,18.957-2.51h2.929V2.298h-2.93
		C80.071,2.298,72.315,3.326,64.832,5.354z"/>
	<rect x="123.648" y="162.406" style="fill:#232323;" width="24.195" height="15.67"/>
	<path style="fill:#232323;" d="M57.001,172.491c8.291,3.112,17,4.943,25.888,5.444l0.88-15.646
		c-7.303-0.411-14.456-1.914-21.261-4.468L57.001,172.491z"/>
	<rect x="98.879" y="2.298" style="fill:#232323;" width="24.195" height="15.67"/>
	<path style="fill:#232323;" d="M21.326,62.115L6.891,56.019c-3.45,8.168-5.631,16.799-6.483,25.653l15.599,1.502
		C16.705,75.904,18.496,68.819,21.326,62.115z"/>
	<rect x="91.388" y="162.406" style="fill:#232323;" width="24.195" height="15.67"/>
	<path style="fill:#232323;" d="M478.774,21.36c-6.961-5.536-14.681-9.965-22.946-13.165l-5.657,14.613
		c6.787,2.628,13.128,6.267,18.85,10.817L478.774,21.36z"/>
	<path style="fill:#232323;" d="M487.615,55.76l13.769-7.482c-4.231-7.786-9.605-14.877-15.972-21.075l-10.93,11.228
		C479.717,43.529,484.137,49.359,487.615,55.76z"/>
	<path style="fill:#232323;" d="M496.016,83.388l15.603-1.455c-0.826-8.854-2.982-17.49-6.406-25.671l-14.454,6.05
		C493.57,69.026,495.338,76.118,496.016,83.388z"/>
	<rect x="292.405" y="2.298" style="fill:#232323;" width="24.195" height="15.67"/>
	<rect x="195.647" y="2.298" style="fill:#232323;" width="24.195" height="15.67"/>
	<rect x="260.145" y="2.298" style="fill:#232323;" width="24.195" height="15.67"/>
	<path style="fill:#232323;" d="M37.672,38.284L26.774,27.025c-6.385,6.179-11.779,13.254-16.033,21.025l13.746,7.523
		C27.984,49.185,32.419,43.367,37.672,38.284z"/>
	<path style="fill:#232323;" d="M62.028,22.733l-5.613-14.63c-8.275,3.175-16.008,7.581-22.986,13.096l9.717,12.294
		C48.879,28.96,55.233,25.34,62.028,22.733z"/>
	<path style="fill:#232323;" d="M236.318,205.112c4.193,5.894,7.333,12.39,9.332,19.307l9.914-2.867l10.731,3.064
		c1.977-6.924,5.095-13.429,9.269-19.338l-12.797-9.043c-2.586,3.658-4.845,7.503-6.767,11.504
		c-1.959-4.077-4.268-7.991-6.914-11.711L236.318,205.112z"/>
	<rect x="227.896" y="2.298" style="fill:#232323;" width="24.195" height="15.67"/>
	<rect x="389.163" y="2.298" style="fill:#232323;" width="24.195" height="15.67"/>
	<rect x="396.183" y="162.406" style="fill:#232323;" width="24.195" height="15.67"/>
	<rect x="363.934" y="162.406" style="fill:#232323;" width="24.195" height="15.67"/>
	<rect x="356.914" y="2.298" style="fill:#232323;" width="24.195" height="15.67"/>
	<path style="fill:#232323;" d="M447.42,5.423c-7.557-2.074-15.4-3.126-23.308-3.126h-2.696v15.67h2.696
		c6.507,0,12.953,0.864,19.159,2.567L447.42,5.423z"/>
	<path style="fill:#232323;" d="M496.33,90.659c-0.047,7.33-1.188,14.552-3.39,21.467l14.932,4.756
		c2.682-8.422,4.071-17.212,4.129-26.123L496.33,90.659z"/>
	<path style="fill:#232323;" d="M478.825,137.328l11.865,10.235c5.807-6.732,10.541-14.267,14.07-22.394l-14.373-6.242
		C487.489,125.603,483.598,131.794,478.825,137.328z"/>
	<path style="fill:#232323;" d="M455.966,155.02l6.921,14.058c7.95-3.914,15.251-9,21.7-15.119l-10.783-11.369
		C468.5,147.622,462.498,151.803,455.966,155.02z"/>
	<path style="fill:#232323;" d="M428.02,162.301l0.833,15.648c8.891-0.473,17.607-2.279,25.907-5.368l-5.464-14.687
		C442.483,160.43,435.324,161.913,428.02,162.301z"/>
	<path style="fill:#232323;" d="M187.697,178.182c7.227,0.415,14.259,2.027,20.902,4.791l6.021-14.467
		c-8.276-3.445-17.032-5.453-26.025-5.968L187.697,178.182z"/>
	<rect x="331.674" y="162.406" style="fill:#232323;" width="24.195" height="15.67"/>
	<rect x="131.138" y="2.298" style="fill:#232323;" width="24.195" height="15.67"/>
	<rect x="155.897" y="162.406" style="fill:#232323;" width="24.195" height="15.67"/>
	<path style="fill:#232323;" d="M222.669,172.398l-7.604,13.701c6.306,3.5,11.948,8.008,16.77,13.4l11.682-10.445
		C237.522,182.353,230.508,176.749,222.669,172.398z"/>
	<rect x="163.387" y="2.298" style="fill:#232323;" width="24.195" height="15.67"/>
	<path style="fill:#232323;" d="M297.14,168.605l6.069,14.448c6.636-2.787,13.662-4.421,20.883-4.859l-0.946-15.642
		C314.157,163.097,305.408,165.134,297.14,168.605z"/>
	<rect x="324.654" y="2.298" style="fill:#232323;" width="24.195" height="15.67"/>
	<path style="fill:#232323;" d="M268.321,189.24l11.712,10.41c4.807-5.407,10.433-9.934,16.727-13.452l-7.647-13.677
		C281.287,176.897,274.292,182.521,268.321,189.24z"/>
	<path style="fill:#232323;" d="M256.001,226.447c-13.148,0-23.846,10.697-23.846,23.846c0,10.209,6.451,18.936,15.488,22.33v17.787
		h15.67v-17.423c9.582-3.094,16.533-12.095,16.533-22.693C279.847,237.144,269.149,226.447,256.001,226.447z M256.001,258.468
		c-4.508,0-8.176-3.668-8.176-8.175c0-3.939,2.801-7.235,6.515-8.005h3.322c3.715,0.77,6.515,4.066,6.515,8.005
		C264.177,254.8,260.509,258.468,256.001,258.468z"/>
</g>
<path style="fill:none;stroke:#FFFFFF;stroke-width:15;stroke-miterlimit:10;" d="M292.589,381.743
	c8.48,0,15.353,6.874,15.353,15.353"/>
<g>
</g>
<g>
</g>
<g>
</g>
<g>
</g>
<g>
</g>
<g>
</g>
<g>
</g>
<g>
</g>
<g>
</g>
<g>
</g>
<g>
</g>
<g>
</g>
<g>
</g>
<g>
</g>
<g>
</g>
</svg>
