<?xml version="1.0" encoding="iso-8859-1"?>
<!-- Generator: Adobe Illustrator 19.0.0, SVG Export Plug-In . SVG Version: 6.00 Build 0)  -->
<svg version="1.1" id="Layer_1" xmlns="http://www.w3.org/2000/svg" xmlns:xlink="http://www.w3.org/1999/xlink" x="0px" y="0px"
	 viewBox="0 0 512 512" style="enable-background:new 0 0 512 512;" xml:space="preserve">
<path style="fill:#DE9900;" d="M335.601,390.153c2.024,2.04,2.024,5.377,0,7.418l-75.922,76.513c-2.023,2.04-5.335,2.04-7.359,0
	l-75.922-76.513c-2.024-2.04-2.024-5.378,0-7.418l75.922-76.513c2.024-2.04,5.336-2.04,7.359,0L335.601,390.153z"/>
<path style="opacity:0.1;enable-background:new    ;" d="M197.958,397.57c-2.023-2.04-2.023-5.378,0-7.418l68.821-69.356l-7.1-7.155
	c-2.023-2.04-5.335-2.04-7.359,0l-75.922,76.513c-2.024,2.04-2.024,5.377,0,7.418l75.922,76.513c2.024,2.04,5.336,2.04,7.359,0
	l7.1-7.155L197.958,397.57z"/>
<path style="opacity:0.1;enable-background:new    ;" d="M63.866,201.633c-2.024-2.04-2.024-5.377,0-7.418l13.95-14.059
	l-7.206-7.261c-2.024-2.04-5.335-2.04-7.359,0l-21.155,21.32c-2.024,2.04-2.024,5.377,0,7.418l21.155,21.32
	c2.024,2.04,5.335,2.04,7.359,0l7.206-7.261L63.866,201.633z"/>
<path style="opacity:0.1;enable-background:new    ;" d="M126.905,284.995c-2.024-2.04-2.024-5.377,0-7.418l33.209-33.467
	l-7.215-7.27c-2.023-2.04-5.335-2.04-7.359,0l-40.424,40.737c-2.024,2.04-2.024,5.378,0,7.418l40.424,40.738
	c2.024,2.04,5.336,2.04,7.359,0l7.215-7.271L126.905,284.995z"/>
<g>
	<path style="fill:#D69EF0;" d="M152.899,236.841c-2.023-2.04-5.335-2.04-7.359,0l-40.424,40.737c-2.024,2.04-2.024,5.378,0,7.418
		l40.424,40.738c2.024,2.04,5.336,2.04,7.359,0l40.425-40.738c2.024-2.04,2.024-5.377,0-7.418L152.899,236.841z"/>
	<path style="fill:#D69EF0;" d="M406.883,277.578l-40.423-40.737c-2.024-2.04-5.336-2.04-7.359,0l-40.423,40.737
		c-2.023,2.04-2.023,5.378,0,7.418l40.423,40.738c2.023,2.04,5.335,2.04,7.359,0l40.423-40.738
		C408.907,282.955,408.907,279.618,406.883,277.578z"/>
</g>
<path style="opacity:0.1;enable-background:new    ;" d="M340.466,284.995c-2.024-2.04-2.024-5.377,0-7.418l33.209-33.466
	l-7.215-7.27c-2.024-2.04-5.336-2.04-7.359,0l-40.423,40.737c-2.023,2.04-2.023,5.378,0,7.418l40.423,40.738
	c2.023,2.04,5.335,2.04,7.359,0l7.215-7.271L340.466,284.995z"/>
<path style="fill:#BF6060;" d="M335.601,184.417c2.024,2.04,2.024,5.377,0,7.418l-75.922,76.513c-2.023,2.04-5.335,2.04-7.359,0
	l-75.922-76.513c-2.024-2.04-2.024-5.377,0-7.418l75.922-76.513c2.024-2.04,5.336-2.04,7.359,0L335.601,184.417z"/>
<path style="opacity:0.1;enable-background:new    ;" d="M197.958,191.834c-2.023-2.04-2.023-5.377,0-7.418l68.821-69.356
	l-7.1-7.155c-2.023-2.04-5.335-2.04-7.359,0l-75.922,76.513c-2.024,2.04-2.024,5.377,0,7.418l75.922,76.513
	c2.024,2.04,5.336,2.04,7.359,0l7.1-7.155L197.958,191.834z"/>
<g>
	<polygon style="fill:#EFBA50;" points="218.985,393.862 256,431.165 293.014,393.863 256,356.56 	"/>
	<path style="fill:#EFBA50;" d="M70.61,172.896c-2.024-2.04-5.335-2.04-7.359,0l-21.155,21.32c-2.024,2.04-2.024,5.377,0,7.418
		l21.155,21.32c2.024,2.04,5.335,2.04,7.359,0l21.157-21.32c2.024-2.04,2.024-5.377,0-7.418L70.61,172.896z"/>
	<path style="fill:#EFBA50;" d="M469.904,194.216l-21.154-21.32c-2.023-2.04-5.336-2.04-7.36,0l-21.157,21.32
		c-2.023,2.04-2.023,5.377,0,7.417l21.157,21.32c2.025,2.04,5.337,2.04,7.36,0l21.154-21.32
		C471.927,199.593,471.927,196.256,469.904,194.216z"/>
	<polygon style="fill:#EFBA50;" points="218.985,188.125 256,225.428 293.014,188.125 256,150.824 	"/>
</g>
<polygon style="opacity:0.1;enable-background:new    ;" points="240.485,393.862 266.75,367.393 256,356.56 218.985,393.862 
	256,431.165 266.75,420.331 "/>
<polygon style="opacity:0.1;enable-background:new    ;" points="240.485,188.125 266.75,161.657 256,150.824 218.985,188.125 
	256,225.428 266.75,214.594 "/>
<path style="opacity:0.1;enable-background:new    ;" d="M442.003,201.633c-2.023-2.04-2.023-5.377,0-7.417l13.953-14.059
	l-7.206-7.261c-2.023-2.04-5.336-2.04-7.36,0l-21.157,21.32c-2.023,2.04-2.023,5.377,0,7.417l21.157,21.32
	c2.025,2.04,5.337,2.04,7.36,0l7.206-7.261L442.003,201.633z"/>
<path d="M199.488,150.021l-28.653,28.877c-5.048,5.088-5.048,13.367,0,18.456l75.922,76.512c2.462,2.482,5.744,3.848,9.243,3.848
	s6.781-1.367,9.243-3.847l30.914-31.155c3.048-3.072,3.028-8.034-0.043-11.082c-3.072-3.048-8.033-3.03-11.083,0.043L256,260.929
	l-72.242-72.803L256,115.322l72.242,72.803l-24.547,24.738c-3.048,3.072-3.028,8.034,0.044,11.082
	c3.07,3.048,8.031,3.029,11.082-0.043l26.344-26.55c5.048-5.088,5.048-13.367,0-18.456l-31.668-31.913L413.763,41.907
	c3.048-3.072,3.028-8.034-0.043-11.082c-3.072-3.049-8.033-3.03-11.083,0.043l-104.179,104.99l-33.214-33.471
	c-2.461-2.481-5.744-3.848-9.243-3.848s-6.781,1.367-9.243,3.847l-36.229,36.51L103.334,30.866
	c-3.051-3.073-8.012-3.091-11.083-0.043c-3.071,3.048-3.091,8.01-0.043,11.082L199.488,150.021z"/>
<path d="M256,348.723c-2.089,0-4.092,0.834-5.563,2.317l-37.014,37.302c-3.031,3.055-3.031,7.984,0,11.039l37.014,37.303
	c1.471,1.483,3.474,2.317,5.563,2.317c2.089,0,4.092-0.834,5.563-2.317l37.014-37.302c3.031-3.055,3.031-7.984,0-11.039
	l-37.014-37.303C260.092,349.557,258.089,348.723,256,348.723z M256,420.038l-25.974-26.177L256,367.686l25.974,26.177L256,420.038z
	"/>
<path d="M256,142.987c-2.089,0-4.092,0.834-5.563,2.317l-37.014,37.302c-3.031,3.055-3.031,7.984,0,11.039l37.014,37.303
	c1.471,1.483,3.474,2.317,5.563,2.317c2.089,0,4.092-0.834,5.563-2.317l37.014-37.302c3.031-3.055,3.031-7.984,0-11.039
	l-37.014-37.303C260.092,143.821,258.089,142.987,256,142.987z M256,214.302l-25.974-26.177L256,161.95l25.974,26.177L256,214.302z"
	/>
<path d="M509.682,130.654c-3.07-3.049-8.033-3.03-11.082,0.043l-40.341,40.656l-3.944-3.976c-2.461-2.482-5.744-3.847-9.243-3.847
	s-6.781,1.366-9.243,3.846l-21.158,21.32c-5.049,5.089-5.049,13.367,0.001,18.456l4.032,4.064l-33.316,33.574l-13.364-13.469
	c-2.461-2.481-5.744-3.848-9.243-3.848c-3.499,0-6.781,1.367-9.243,3.847l-40.423,40.738c-5.048,5.088-5.048,13.367,0,18.456
	l13.451,13.555l-32.672,32.925l-28.651-28.874c-2.461-2.482-5.744-3.848-9.243-3.848c-3.499,0-6.781,1.367-9.243,3.847
	l-28.651,28.875l-32.672-32.925l13.452-13.556c5.048-5.088,5.048-13.367-0.001-18.456l-4.822-4.86
	c-3.048-3.074-8.01-3.09-11.082-0.043c-3.071,3.048-3.091,8.011-0.042,11.082l3.025,3.049l-36.744,37.029l-36.743-37.028
	l36.743-37.028l15.056,15.172c3.049,3.074,8.011,3.09,11.082,0.043c3.071-3.049,3.091-8.011,0.042-11.082l-16.938-17.068
	c-2.461-2.481-5.744-3.848-9.243-3.848c-3.499,0-6.781,1.367-9.243,3.847l-13.365,13.469l-33.314-33.574l4.033-4.065
	c5.048-5.088,5.048-13.367-0.001-18.456l-21.154-21.319c-2.461-2.482-5.744-3.847-9.243-3.847c-3.499,0-6.781,1.367-9.243,3.846
	l-3.946,3.977L13.4,130.697c-3.051-3.073-8.013-3.091-11.082-0.043c-3.073,3.048-3.092,8.01-0.044,11.083l40.428,40.743
	l-6.169,6.217c-5.048,5.088-5.048,13.367,0,18.456l21.155,21.319c2.461,2.482,5.744,3.848,9.243,3.848
	c3.499,0,6.781-1.367,9.242-3.847l6.084-6.131l33.314,33.574l-16.018,16.144c-5.048,5.088-5.048,13.367,0,18.456l40.423,40.737
	c2.461,2.482,5.744,3.848,9.243,3.848c3.499,0,6.781-1.367,9.243-3.847l15.933-16.057l32.671,32.925l-36.231,36.513
	c-5.048,5.088-5.048,13.367,0,18.456l75.922,76.512c2.462,2.482,5.744,3.848,9.243,3.848s6.781-1.367,9.243-3.847l42.212-42.54
	c3.048-3.072,3.028-8.034-0.043-11.082c-3.072-3.049-8.033-3.03-11.083,0.043L256,466.665l-72.242-72.803L256,321.058l72.242,72.803
	l-13.25,13.353c-3.048,3.072-3.028,8.034,0.043,11.082c3.071,3.048,8.033,3.029,11.083-0.043l15.047-15.165
	c5.048-5.088,5.048-13.367,0-18.456l-36.231-36.512l32.672-32.925l15.932,16.056c2.461,2.482,5.744,3.848,9.243,3.848
	c3.499,0,6.781-1.367,9.243-3.847l40.423-40.74c5.048-5.088,5.048-13.367,0-18.456l-16.018-16.143l33.314-33.574l6.084,6.131
	c2.461,2.481,5.744,3.846,9.243,3.846s6.781-1.367,9.243-3.847l21.154-21.321c5.048-5.088,5.048-13.367,0-18.456l-6.169-6.217
	l40.428-40.743C512.774,138.664,512.755,133.702,509.682,130.654z M66.931,215.535l-17.475-17.611l17.475-17.611l17.476,17.611
	L66.931,215.535z M362.78,318.316l-36.743-37.029l36.743-37.028l36.743,37.028L362.78,318.316z M445.069,215.535l-17.476-17.611
	l17.477-17.611l17.475,17.611L445.069,215.535z"/>
<g>
</g>
<g>
</g>
<g>
</g>
<g>
</g>
<g>
</g>
<g>
</g>
<g>
</g>
<g>
</g>
<g>
</g>
<g>
</g>
<g>
</g>
<g>
</g>
<g>
</g>
<g>
</g>
<g>
</g>
</svg>
