<?xml version="1.0" encoding="utf-8"?>
<!-- Generator: Adobe Illustrator 24.0.0, SVG Export Plug-In . SVG Version: 6.00 Build 0)  -->
<svg version="1.1" id="Layer_2_1_" xmlns="http://www.w3.org/2000/svg" xmlns:xlink="http://www.w3.org/1999/xlink" x="0px" y="0px"
	 viewBox="0 0 100 100" style="enable-background:new 0 0 100 100;" xml:space="preserve">
<style type="text/css">
	.st0{fill:#9F0040;stroke:#000000;stroke-width:5.1906;stroke-linecap:round;stroke-linejoin:round;}
	.st1{fill:none;stroke:#000000;stroke-width:5.1906;stroke-linecap:round;stroke-linejoin:round;}
</style>
<path class="st0" d="M81,36.9C68,16.2,49.8,8.4,49.8,8.4s-18.2,7.8-31.1,28.5S3.1,81.1,3.1,81.1s20.8,10.4,46.7,10.4
	s46.7-10.4,46.7-10.4S94,57.7,81,36.9z"/>
<path class="st0" d="M67,45.2c-7.3-11.9-17.1-16.1-17.1-16.1S40,33.3,32.7,45.2c-7.3,11.4-8.8,24.9-8.8,24.9s11.4,5.7,26,5.7
	s26-5.7,26-5.7S74.2,56.7,67,45.2z"/>
<path class="st1" d="M3.1,81.1l20.8-10.4"/>
<path class="st1" d="M75.8,70.7l20.8,10.4"/>
<path class="st1" d="M49.8,29.1V8.4"/>
</svg>
