<?xml version="1.0" encoding="utf-8"?>
<!-- Generator: Adobe Illustrator 24.0.0, SVG Export Plug-In . SVG Version: 6.00 Build 0)  -->
<svg version="1.1" id="Layer_1" xmlns="http://www.w3.org/2000/svg" xmlns:xlink="http://www.w3.org/1999/xlink" x="0px" y="0px"
	 viewBox="0 0 100 100" style="enable-background:new 0 0 100 100;" xml:space="preserve">
<style type="text/css">
	.st0{fill:none;stroke:#000000;stroke-width:5.1423;stroke-linecap:round;stroke-linejoin:round;}
</style>
<g id="Layer_3">
	<g id="Layer_1_1_">
		<path class="st0" d="M96.7,71.3V30.2L76.1,4.5H24.7L4.1,30.2v41.1L24.7,97h51.4L96.7,71.3z"/>
		<path class="st0" d="M76.1,64.6V37.9L65.8,25H34.9L24.7,37.9v26.7L35,76.4h30.9L76.1,64.6z"/>
		<path class="st0" d="M24.7,97L35,76.4"/>
		<path class="st0" d="M65.8,76.5L76.1,97"/>
		<path class="st0" d="M24.7,4.5L34.9,25"/>
		<path class="st0" d="M65.8,25L76.1,4.5"/>
		<path class="st0" d="M4.1,30.2l20.6,7.7"/>
		<path class="st0" d="M4.1,71.3l20.6-7.7"/>
		<path class="st0" d="M96.7,71.3l-20.6-7.7"/>
		<path class="st0" d="M76.1,37.9l20.6-7.7"/>
	</g>
</g>
</svg>
