<?xml version="1.0" encoding="iso-8859-1"?>
<!-- Uploaded to: SVG Repo, www.svgrepo.com, Generator: SVG Repo Mixer Tools -->
<svg height="800px" width="800px" version="1.1" id="Layer_1" xmlns="http://www.w3.org/2000/svg" xmlns:xlink="http://www.w3.org/1999/xlink" 
	 viewBox="0 0 512 512" xml:space="preserve">
<path style="fill:#D7DEED;" d="M105.036,494.678c-18.71-5.437-29.509-25.079-24.071-43.792l41.241-141.913
	c3.161-10.879,12.918-18.118,24.208-19.06c8.401-0.7,16.536-2.821,24.092-6.189l-92.512-26.885
	c4.575,6.895,10.307,13.045,17.025,18.14c9.027,6.845,13.384,18.186,10.223,29.066L64,445.956
	c-5.438,18.713-25.082,29.508-43.792,24.071c-4.684-1.362-9.586,1.328-10.948,6.018c-1.363,4.689,1.333,9.587,6.018,10.948
	l84.828,24.652c4.684,1.361,9.586-1.328,10.948-6.018C112.415,500.938,109.72,496.04,105.036,494.678z"/>
<path style="fill:#EFF2FA;" d="M100.104,511.644l-84.828-24.652c-4.685-1.362-7.379-6.263-6.018-10.948l0,0
	c1.361-4.685,6.263-7.38,10.948-6.018l84.828,24.652c4.685,1.362,7.379,6.263,6.018,10.948l0,0
	C109.691,510.312,104.79,513.006,100.104,511.644z"/>
<path style="fill:#E4EAF6;" d="M43.191,485.905c1.362-4.685,6.263-7.379,10.948-6.018l-33.931-9.861
	c-4.685-1.362-9.587,1.333-10.948,6.018c-1.361,4.684,1.333,9.587,6.018,10.948l33.931,9.861
	C44.524,495.491,41.829,490.589,43.191,485.905z"/>
<path style="fill:#EFF2FA;" d="M119.319,287.248L119.319,287.248c-41.371-12.023-64.02-56.456-49.442-96.998L136.182,5.847
	c1.583-4.405,6.328-6.81,10.817-5.482l102.666,30.349c4.459,1.318,7.132,5.866,6.116,10.403l-42.733,190.736
	C203.629,273.894,160.691,299.27,119.319,287.248z"/>
<path style="fill:#E4EAF6;" d="M116.842,203.898l60.76-186.015c1.349-4.131,4.004-6.813,6.271-6.62L146.999,0.364
	c-4.489-1.327-9.233,1.078-10.817,5.482L69.876,190.25c-14.578,40.541,8.072,84.975,49.442,96.998
	c2.911,0.846,5.827,1.461,8.741,1.943C109.738,279.058,104.425,241.917,116.842,203.898z"/>
<path style="fill:#FFFFFF;" d="M205.325,185.508l10.919-48.731c-6.971-0.692-7.847-4.271-16.281-4.271
	c-9.326,0-9.326,4.417-18.654,4.417c-9.325,0-9.325-4.417-18.65-4.417c-9.315,0-9.315,4.417-18.63,4.417
	c-9.302,0-9.302-4.417-18.604-4.417c-8.92,0-9.388,4.006-17.576,4.352l-17.493,48.651H205.325z"/>
<path style="fill:#FFFAE6;" d="M125.426,132.506c-8.92,0-9.388,4.006-17.576,4.352l-17.494,48.651h32.493l16.067-49.192
	C134.278,135.114,132.598,132.506,125.426,132.506z"/>
<path style="fill:#FAF0CD;" d="M195.808,227.99l14.824-66.166c-2.868-1.265-5.129-2.817-10.669-2.817
	c-9.326,0-9.326,4.417-18.654,4.417c-9.325,0-9.325-4.417-18.65-4.417c-9.315,0-9.315,4.417-18.63,4.417
	c-9.302,0-9.302-4.417-18.604-4.417c-9.317,0-9.317,4.417-18.635,4.417c-3.75,0-5.98-0.721-7.927-1.576l-12.362,34.38
	c-5.383,14.97-4.368,31.019,2.855,45.192c7.224,14.173,19.616,24.423,34.892,28.862c15.277,4.44,31.233,2.427,44.927-5.668
	C182.872,256.521,192.33,243.513,195.808,227.99z"/>
<path style="fill:#F5E6B9;" d="M125.426,159.007c-9.317,0-9.317,4.417-18.635,4.417c-3.75,0-5.98-0.721-7.927-1.576l-12.362,34.38
	c-5.383,14.97-4.368,31.019,2.856,45.192c5.278,10.354,13.336,18.583,23.239,24.013c-4.218-16.51-3.166-38.842,4.246-61.535
	l14.403-44.096C129.729,159.336,127.924,159.007,125.426,159.007z"/>
<path style="fill:#D7DEED;" d="M406.957,494.678c18.71-5.437,29.509-25.079,24.071-43.792l-41.241-141.913
	c-3.161-10.879-12.918-18.118-24.208-19.06c-8.401-0.7-16.536-2.821-24.092-6.189L434,256.839
	c-4.575,6.895-10.307,13.045-17.025,18.14c-9.027,6.845-13.384,18.186-10.223,29.066l41.241,141.911
	c5.438,18.713,25.082,29.508,43.792,24.071c4.684-1.362,9.586,1.328,10.948,6.018c1.363,4.689-1.333,9.587-6.018,10.948
	l-84.828,24.652c-4.684,1.362-9.586-1.328-10.948-6.018C399.577,500.938,402.272,496.04,406.957,494.678z"/>
<path style="fill:#EFF2FA;" d="M496.724,486.99l-84.845,24.657c-4.685,1.362-9.587-1.333-10.948-6.018l0,0
	c-1.361-4.685,1.333-9.587,6.018-10.948l84.845-24.657c4.685-1.362,9.587,1.333,10.948,6.018l0,0
	C504.103,480.726,501.409,485.628,496.724,486.99z"/>
<path style="fill:#E4EAF6;" d="M434.868,495.766c-1.361-4.685,1.333-9.587,6.019-10.948l-33.937,9.863
	c-4.686,1.362-7.381,6.263-6.019,10.948c1.362,4.684,6.263,7.379,10.949,6.017l33.937-9.863
	C441.132,503.145,436.229,500.451,434.868,495.766z"/>
<path style="fill:#EFF2FA;" d="M392.674,287.248L392.674,287.248c-41.362,12.021-84.29-13.357-93.713-55.395L256.105,40.635
	c-1.024-4.567,1.692-9.14,6.191-10.425L365.215,0.814c4.469-1.276,9.164,1.131,10.736,5.505l66.147,183.932
	C456.679,230.791,434.037,275.227,392.674,287.248z"/>
<path style="fill:#E4EAF6;" d="M345.917,218.207L297.515,28.6c-1.074-4.21-0.272-7.898,1.746-8.949l-36.964,10.557
	c-4.5,1.285-7.216,5.858-6.192,10.425l42.857,191.217c9.422,42.04,52.351,67.416,93.713,55.395c2.91-0.846,5.701-1.889,8.42-3.043
	C380.199,285.467,355.811,256.959,345.917,218.207z"/>
<path style="fill:#FFFFFF;" d="M306.667,185.508l-10.919-48.731c6.971-0.692,7.847-4.271,16.281-4.271
	c9.326,0,9.326,4.417,18.654,4.417c9.325,0,9.325-4.417,18.65-4.417c9.315,0,9.315,4.417,18.63,4.417
	c9.302,0,9.302-4.417,18.604-4.417c8.92,0,9.388,4.006,17.576,4.352l17.494,48.651H306.667z"/>
<path style="fill:#FAF0CD;" d="M316.185,227.99l-14.824-66.166c2.868-1.265,5.129-2.817,10.669-2.817
	c9.326,0,9.326,4.417,18.654,4.417c9.325,0,9.325-4.417,18.65-4.417c9.315,0,9.315,4.417,18.63,4.417
	c9.302,0,9.302-4.417,18.604-4.417c9.317,0,9.317,4.417,18.635,4.417c3.75,0,5.98-0.721,7.927-1.576l12.362,34.38
	c5.383,14.97,4.368,31.019-2.855,45.192c-7.224,14.173-19.616,24.423-34.892,28.862c-15.277,4.44-31.233,2.427-44.928-5.668
	C329.12,256.521,319.662,243.513,316.185,227.99z"/>
<path style="fill:#FFFAE6;" d="M337.571,185.508l-12.595-49.335c-4.24-1.259-6.05-3.667-12.947-3.667
	c-8.434,0-9.31,3.579-16.281,4.271l10.919,48.731H337.571z"/>
<path style="fill:#F5E6B9;" d="M375.311,272.434c-12.408-11.679-23.488-31.097-29.393-54.227l-14.004-54.857
	c-0.42,0.021-0.767,0.075-1.231,0.075c-9.326,0-9.326-4.417-18.654-4.417c-5.54,0-7.801,1.551-10.669,2.817l14.824,66.166
	c3.478,15.524,12.936,28.531,26.632,36.625C352.822,270.529,364.037,273.157,375.311,272.434z"/>
<g>
	<circle style="fill:#FFFFFF;" cx="167.665" cy="194.342" r="8.834"/>
	<circle style="fill:#FFFFFF;" cx="388.497" cy="185.508" r="8.834"/>
	<circle style="fill:#FFFFFF;" cx="370.83" cy="114.839" r="8.834"/>
	<circle style="fill:#FFFFFF;" cx="344.328" cy="79.504" r="8.834"/>
	<circle style="fill:#FFFFFF;" cx="176.499" cy="114.839" r="8.834"/>
	<circle style="fill:#FFFFFF;" cx="211.833" cy="70.67" r="8.834"/>
</g>
<g>
	<circle style="fill:#EFF2FA;" cx="132.319" cy="88.337" r="8.834"/>
	<circle style="fill:#EFF2FA;" cx="300.16" cy="114.839" r="8.834"/>
</g>
<circle style="fill:#FFFFFF;" cx="379.663" cy="229.677" r="8.834"/>
<g>
	<circle style="fill:#FAF0CD;" cx="326.661" cy="212.01" r="8.834"/>
	<circle style="fill:#FAF0CD;" cx="105.818" cy="194.342" r="8.834"/>
</g>
<circle style="fill:#FFFFFF;" cx="141.153" cy="229.677" r="8.834"/>
</svg>