<?xml version="1.0" encoding="utf-8"?>
<!-- Generator: Adobe Illustrator 24.0.0, SVG Export Plug-In . SVG Version: 6.00 Build 0)  -->
<svg version="1.1" id="Layer_1" xmlns="http://www.w3.org/2000/svg" xmlns:xlink="http://www.w3.org/1999/xlink" x="0px" y="0px"
	 viewBox="0 0 512 512" style="enable-background:new 0 0 512 512;" xml:space="preserve">
<style type="text/css">
	.st0{fill:#ED5564;}
	.st1{fill:#CCD1D9;}
	.st2{fill:#5D9CEC;}
	.st3{fill:#E6E9ED;}
	.st4{fill:#434A54;}
	.st5{fill:#F5F7FA;}
	.st6{fill:#FF877F;}
</style>
<path class="st0" d="M384,223.7c-5.9,0-10.7,4.8-10.7,10.7v29.1h21.3v-29.1C394.6,228.5,389.8,223.7,384,223.7z"/>
<polygon class="st1" points="310.4,458.4 329.8,266.5 421.5,266.4 501.3,366.1 501.1,458.4 "/>
<polygon class="st2" points="484.2,341 320.1,341 320.1,262.6 420.2,264.8 "/>
<path class="st1" d="M426.6,255.7l-106.5,0.1L298.6,469l213.1,1l0.2-106.6L426.6,255.7z M490.5,447.7H322.2l17.2-170.6l77-0.1
	l74.2,92.8L490.5,447.7z"/>
<path class="st3" d="M341.3,447.7c0,11.8-9.6,21.3-21.3,21.3H21.3C9.5,469,0,459.5,0,447.7V213.1c0-11.8,9.5-21.3,21.3-21.3h298.6
	c11.8,0,21.3,9.5,21.3,21.3L341.3,447.7L341.3,447.7z"/>
<path class="st4" d="M362.6,458.9c0,29.5,23.9,53.3,53.3,53.3c29.5,0,53.3-23.9,53.3-53.3c0-29.5-23.9-53.3-53.3-53.3
	C386.5,405.6,362.6,429.4,362.6,458.9z"/>
<path class="st5" d="M405.3,458.9c0,5.9,4.8,10.7,10.7,10.7c5.9,0,10.7-4.8,10.7-10.7c0-5.9-4.8-10.7-10.7-10.7
	C410.1,448.2,405.3,453,405.3,458.9z"/>
<path class="st4" d="M54.3,459.9c0,28.9,23.4,52.3,52.3,52.3s52.3-23.4,52.3-52.3s-23.4-52.3-52.3-52.3S54.3,431,54.3,459.9z"/>
<path class="st5" d="M96,459.9c0,5.9,4.8,10.7,10.7,10.7c5.9,0,10.7-4.8,10.7-10.7c0-5.9-4.8-10.7-10.7-10.7
	C100.8,449.2,96,454,96,459.9z"/>
<path class="st6" d="M173.1,270.4c7.7-16.9,24.6-32.8,44.6-32.8c27.2,0,47.7,21.1,50.3,47.2c0,0,1.5,6.7-1.5,18.5
	c-4.1,15.9-13.4,30.3-26.2,41l-64.6,55.9c-0.5,0.5-1.5,0.5-2.1,0l-65.2-55.9c-12.8-10.8-22.1-25.1-26.2-41
	c-3.1-11.8-1.5-18.5-1.5-18.5c2.6-26.2,21.1-47.2,48.3-47.2C149,237.5,165.9,253.5,173.1,270.4"/>
</svg>
