<?xml version="1.0" encoding="iso-8859-1"?>
<!-- Generator: Adobe Illustrator 19.0.0, SVG Export Plug-In . SVG Version: 6.00 Build 0)  -->
<svg version="1.1" id="Layer_1" xmlns="http://www.w3.org/2000/svg" xmlns:xlink="http://www.w3.org/1999/xlink" x="0px" y="0px"
	 viewBox="0 0 512 512" style="enable-background:new 0 0 512 512;" xml:space="preserve">
<g>
	<path style="fill:#5293C4;" d="M256.268,198.82c-0.092,0-0.184-0.001-0.277-0.005c-4.344-0.15-7.743-3.792-7.592-8.135
		l4.197-121.705c0.147-4.25,3.639-7.597,7.858-7.597c0.092,0,0.184,0.001,0.277,0.005c4.344,0.15,7.743,3.792,7.592,8.135
		l-4.197,121.705C263.979,195.473,260.487,198.82,256.268,198.82z"/>
	<path style="fill:#5293C4;" d="M214.295,215.607c-2.013,0-4.028-0.768-5.565-2.304L108.009,112.581
		c-3.073-3.074-3.073-8.056,0-11.129c3.074-3.072,8.056-3.072,11.129,0l100.721,100.721c3.073,3.074,3.073,8.056,0,11.129
		C218.323,214.839,216.308,215.607,214.295,215.607z"/>
	<path style="fill:#5293C4;" d="M193.317,261.77c-0.103,0-0.205-0.002-0.307-0.006l-109.115-4.197
		c-4.344-0.167-7.727-3.822-7.56-8.165c0.167-4.343,3.867-7.721,8.165-7.56l109.115,4.197c4.344,0.167,7.727,3.822,7.56,8.165
		C201.011,258.444,197.523,261.77,193.317,261.77z"/>
	<path style="fill:#5293C4;" d="M302.426,215.607c-2.013,0-4.028-0.768-5.565-2.304c-3.073-3.074-3.073-8.056,0-11.129
		L431.156,67.879c3.074-3.072,8.056-3.072,11.129,0c3.073,3.074,3.073,8.056,0,11.129L307.99,213.303
		C306.454,214.839,304.44,215.607,302.426,215.607z"/>
	<path style="fill:#5293C4;" d="M424.131,312.133c-0.854,0-1.722-0.141-2.574-0.434l-109.115-37.77
		c-4.106-1.422-6.284-5.904-4.863-10.01c1.422-4.106,5.902-6.279,10.01-4.863l109.115,37.771c4.106,1.422,6.284,5.904,4.863,10.01
		C430.441,310.092,427.392,312.133,424.131,312.133z"/>
	<path style="fill:#5293C4;" d="M96.787,425.443c-2.013,0-4.028-0.768-5.565-2.304c-3.073-3.074-3.073-8.056,0-11.129
		l121.705-121.705c3.074-3.072,8.056-3.072,11.129,0c3.073,3.074,3.073,8.056,0,11.129L102.351,423.139
		C100.815,424.675,98.8,425.443,96.787,425.443z"/>
	<path style="fill:#5293C4;" d="M260.451,379.279c-4.107,0-7.566-3.187-7.844-7.345l-4.197-62.951
		c-0.289-4.336,2.992-8.086,7.327-8.375c4.317-0.313,8.085,2.991,8.375,7.327l4.197,62.951c0.289,4.336-2.992,8.086-7.327,8.375
		C260.804,379.273,260.627,379.279,260.451,379.279z"/>
	<path style="fill:#5293C4;" d="M432.527,454.82c-2.129,0-4.251-0.858-5.802-2.552L288.233,301.186
		c-2.937-3.204-2.72-8.182,0.483-11.118c3.205-2.938,8.183-2.721,11.118,0.483l138.492,151.082
		c2.937,3.204,2.721,8.182-0.483,11.118C436.331,454.137,434.427,454.82,432.527,454.82z"/>
</g>
<path style="fill:#C1BCBF;" d="M256.262,183.082c-36.736,0-66.623,29.887-66.623,66.623s29.887,66.623,66.623,66.623
	s66.623-29.887,66.623-66.623S292.998,183.082,256.262,183.082z"/>
<path style="fill:#A29A9F;" d="M278.295,294.295c-36.736,0-66.623-29.887-66.623-66.623c0-12.734,3.597-24.642,9.819-34.771
	c-19.09,11.73-31.852,32.803-31.852,56.804c0,36.736,29.887,66.623,66.623,66.623c24.001,0,45.074-12.762,56.804-31.852
	C302.937,290.698,291.029,294.295,278.295,294.295z"/>
<path style="fill:#FAEC8E;" d="M92.59,32c-25.166,0-45.639,20.474-45.639,45.639s20.474,45.639,45.639,45.639
	s45.639-20.474,45.639-45.639S117.756,32,92.59,32z"/>
<path style="fill:#FBC96C;" d="M107.279,108.59c-25.166,0-45.639-20.474-45.639-45.639c0-8.829,2.527-17.073,6.885-24.066
	c-12.94,8.065-21.573,22.417-21.573,38.755c0,25.166,20.474,45.639,45.639,45.639c16.338,0,30.691-8.634,38.755-21.573
	C124.352,106.063,116.108,108.59,107.279,108.59z"/>
<path style="fill:#5CC4E0;" d="M464,0c-26.323,0-47.738,21.415-47.738,47.738S437.677,95.475,464,95.475
	s47.738-21.415,47.738-47.738S490.323,0,464,0z"/>
<path style="fill:#439EE8;" d="M476.852,82.623c-26.323,0-47.738-21.415-47.738-47.738c0-9.883,3.02-19.075,8.185-26.701
	c-12.685,8.59-21.037,23.113-21.037,39.553c0,26.323,21.415,47.738,47.738,47.738c16.439,0,30.963-8.353,39.553-21.037
	C495.928,79.603,486.736,82.623,476.852,82.623z"/>
<path style="fill:#FF675C;" d="M260.459,11.016c-18.223,0-33.049,14.826-33.049,33.049s14.826,33.049,33.049,33.049
	c18.223,0,33.049-14.826,33.049-33.049S278.682,11.016,260.459,11.016z"/>
<path style="fill:#DB3D5A;" d="M273.574,65.049c-18.223,0-33.049-14.826-33.049-33.049c0-6.373,1.818-12.327,4.955-17.379
	c-10.713,5.471-18.07,16.612-18.07,29.444c0,18.223,14.826,33.049,33.049,33.049c11.85,0,22.26-6.273,28.094-15.671
	C284.053,63.743,278.964,65.049,273.574,65.049z"/>
<path style="fill:#FF675C;" d="M461.902,262.82c-27.479,0-49.836,22.357-49.836,49.836c0,27.479,22.357,49.836,49.836,49.836
	s49.836-22.357,49.836-49.836C511.738,285.177,489.381,262.82,461.902,262.82z"/>
<path style="fill:#DB3D5A;" d="M475.016,342.033c-27.479,0-49.836-22.357-49.836-49.836c0-5.521,0.916-10.829,2.581-15.795
	c-9.652,9.094-15.696,21.978-15.696,36.254c0,27.479,22.357,49.836,49.836,49.836c21.958,0,40.633-14.281,47.255-34.041
	C500.23,336.862,488.219,342.033,475.016,342.033z"/>
<path style="fill:#FAEC8E;" d="M444.59,432.262c-21.695,0-39.344,17.649-39.344,39.344c0,21.695,17.649,39.344,39.344,39.344
	c21.695,0,39.344-17.649,39.344-39.344C483.934,449.912,466.285,432.262,444.59,432.262z"/>
<path style="fill:#FBC96C;" d="M459.279,496.262c-21.695,0-39.344-17.649-39.344-39.344c0-7.083,1.891-13.729,5.18-19.476
	c-11.856,6.785-19.868,19.553-19.868,34.164c0,21.695,17.649,39.344,39.344,39.344c14.612,0,27.378-8.013,34.164-19.868
	C473.007,494.372,466.362,496.262,459.279,496.262z"/>
<path style="fill:#5CC4E0;" d="M266.754,363.541c-26.323,0-47.738,21.415-47.738,47.738s21.415,47.738,47.738,47.738
	s47.738-21.415,47.738-47.738S293.077,363.541,266.754,363.541z"/>
<path style="fill:#439EE8;" d="M283.016,442.754c-26.323,0-47.738-21.415-47.738-47.738c0-9.001,2.507-17.427,6.855-24.62
	c-13.843,8.367-23.118,23.561-23.118,40.882c0,26.323,21.415,47.738,47.738,47.738c17.321,0,32.515-9.275,40.882-23.118
	C300.443,440.248,292.017,442.754,283.016,442.754z"/>
<path style="fill:#FF675C;" d="M60.59,391.344c-33.265,0-60.328,27.063-60.328,60.328S27.325,512,60.59,512
	s60.328-27.063,60.328-60.328S93.855,391.344,60.59,391.344z"/>
<path style="fill:#DB3D5A;" d="M81.574,486.82c-33.265,0-60.328-27.063-60.328-60.328c0-8.74,1.883-17.043,5.241-24.549
	c-15.824,10.886-26.224,29.113-26.224,49.729C0.262,484.937,27.325,512,60.59,512c24.526,0,45.665-14.719,55.087-35.779
	C105.968,482.899,94.223,486.82,81.574,486.82z"/>
<path style="fill:#5CC4E0;" d="M48.525,199.869c-24.008,0-43.541,19.533-43.541,43.541s19.533,43.541,43.541,43.541
	s43.541-19.533,43.541-43.541S72.533,199.869,48.525,199.869z"/>
<path style="fill:#439EE8;" d="M63.738,271.738c-24.008,0-43.541-19.533-43.541-43.541c0-8.11,2.236-15.706,6.114-22.214
	c-12.758,7.601-21.327,21.529-21.327,37.427c0,24.008,19.533,43.541,43.541,43.541c15.898,0,29.826-8.57,37.427-21.327
	C79.444,269.502,71.848,271.738,63.738,271.738z"/>
<circle style="fill:#F9F8F9;" cx="272" cy="226.623" r="24.131"/>
<circle style="fill:#BEE7F3;" cx="483.41" cy="24.656" r="11.016"/>
<circle style="fill:#FFB3AD;" cx="273.049" cy="31.475" r="9.443"/>
<circle style="fill:#FFFFFF;" cx="107.279" cy="56.656" r="11.541"/>
<circle style="fill:#BEE7F3;" cx="60.066" cy="223.475" r="12.59"/>
<circle style="fill:#FFB3AD;" cx="479.738" cy="291.672" r="12.59"/>
<circle style="fill:#BEE7F3;" cx="284.59" cy="391.344" r="11.541"/>
<circle style="fill:#FFFFFF;" cx="458.229" cy="454.82" r="11.016"/>
<circle style="fill:#FFB3AD;" cx="78.426" cy="426.492" r="14.164"/>
<g>
</g>
<g>
</g>
<g>
</g>
<g>
</g>
<g>
</g>
<g>
</g>
<g>
</g>
<g>
</g>
<g>
</g>
<g>
</g>
<g>
</g>
<g>
</g>
<g>
</g>
<g>
</g>
<g>
</g>
</svg>
