<?xml version="1.0" encoding="iso-8859-1"?>
<!-- Generator: Adobe Illustrator 19.0.0, SVG Export Plug-In . SVG Version: 6.00 Build 0)  -->
<svg version="1.1" id="Layer_1" xmlns="http://www.w3.org/2000/svg" xmlns:xlink="http://www.w3.org/1999/xlink" x="0px" y="0px"
	 viewBox="0 0 512.001 512.001" style="enable-background:new 0 0 512.001 512.001;" xml:space="preserve">
<path style="fill:#E0DDDF;" d="M384.001,176c-7.353,0-13.333-5.981-13.333-13.333v-136h-44.369
	c-0.971,3.37-1.982,7.989-2.605,10.836c-3.266,14.927-6.964,31.83-22.364,31.83c-10.412,0-15.474-7.727-18.67-17.341
	c-3.196,9.614-8.259,17.341-18.67,17.341c-10.406,0-15.47-7.722-18.666-17.331c-3.196,9.613-8.258,17.331-18.663,17.331
	c-10.407,0-15.47-7.722-18.666-17.332c-3.196,9.61-8.257,17.332-18.665,17.332c-15.398,0-19.095-16.903-22.357-31.818
	c-0.623-2.851-1.635-7.475-2.606-10.849h-44.367v136c0,7.353-5.981,13.333-13.333,13.333s-13.333-5.981-13.333-13.333V13.333
	C93.334,5.981,99.315,0,106.667,0h64c10.406,0,15.468,7.721,18.663,17.329C192.526,7.721,197.588,0,207.995,0
	s15.469,7.721,18.665,17.33C229.855,7.717,234.918,0,245.322,0c10.411,0,15.472,7.725,18.668,17.338
	C267.186,7.725,272.248,0,282.659,0c10.414,0,15.476,7.731,18.672,17.348C304.531,7.719,309.594,0,320.001,0h64
	c7.353,0,13.333,5.981,13.333,13.333v149.333C397.334,170.019,391.353,176,384.001,176z"/>
<path style="fill:#5CC4E0;" d="M245.322,5.333c-11.105,0-14.039,13.419-17.146,27.625c-0.421,1.926-0.945,4.32-1.517,6.686
	c-0.573-2.367-1.095-4.761-1.517-6.687c-3.107-14.206-6.043-27.623-17.148-27.623c-11.106,0-14.041,13.419-17.148,27.625
	c-0.421,1.926-0.945,4.318-1.517,6.686c-0.572-2.367-1.095-4.759-1.517-6.686c-3.106-14.206-6.042-27.625-17.147-27.625h-64
	c-4.418,0-8,3.582-8,8v149.333c0,4.418,3.582,8,8,8c4.418,0,8-3.582,8-8V21.333h53.493c1.438,3.222,3.02,10.457,4.023,15.043
	C175.29,50.581,178.226,64,189.331,64c11.105,0,14.041-13.418,17.147-27.623c0.421-1.926,0.945-4.321,1.517-6.689
	c0.573,2.368,1.097,4.762,1.518,6.688C212.62,50.581,215.555,64,226.661,64c11.105,0,14.039-13.419,17.146-27.625
	c0.421-1.926,0.945-4.319,1.517-6.687c0.003,0.015,0.006,0.03,0.011,0.044V5.333C245.33,5.333,245.326,5.333,245.322,5.333z"/>
<path style="fill:#FF675C;" d="M384.001,5.333h-64c-11.106,0-14.043,13.418-17.151,27.622c-0.422,1.93-0.947,4.329-1.521,6.7
	c-0.574-2.371-1.098-4.77-1.52-6.7c-3.108-14.205-6.044-27.622-17.15-27.622c-11.106,0-14.042,13.418-17.15,27.623
	c-0.422,1.929-0.946,4.325-1.519,6.694c-0.573-2.37-1.097-4.766-1.519-6.694c-3.107-14.201-6.041-27.613-17.137-27.623v24.399
	c0.567,2.353,1.088,4.729,1.507,6.643C249.948,50.582,252.884,64,263.99,64s14.042-13.418,17.15-27.623
	c0.421-1.93,0.946-4.326,1.52-6.697c0.573,2.37,1.098,4.768,1.52,6.697C287.287,50.582,290.222,64,301.33,64
	c11.107,0,14.043-13.419,17.151-27.623c1.004-4.586,2.587-11.822,4.025-15.043h53.495v141.333c0,4.418,3.582,8,8,8
	c4.418,0,8-3.582,8-8V13.333C392.001,8.915,388.419,5.333,384.001,5.333z"/>
<path style="fill:#E0DDDF;" d="M510.688,500.555l-88.326-190.688c-0.325-0.703-0.494-1.468-0.494-2.242V162.667c0-4.418-3.582-8-8-8
	h-59.733c-4.418,0-8,3.582-8,8v144.958c0,0.774-0.169,1.539-0.494,2.242l-88.326,190.688c-1.542,3.231-0.783,7.198,2.143,9.637
	c1.47,1.225,3.373,1.809,5.286,1.809h238.514c1.914,0,3.817-0.583,5.286-1.809C511.47,507.753,512.229,503.785,510.688,500.555z"/>
<path style="fill:#C1BCBF;" d="M421.867,187.911v-25.245c0-4.418-3.582-8-8-8h-34.667h-25.067c-4.418,0-8,3.582-8,8v25.245v119.714
	c0,0.774-0.169,1.539-0.494,2.242l-13.011,28.09h25.067l7.873-16.997c0.874-1.885,2.762-3.091,4.839-3.091h23.923
	c4.381,0,8.201-3.375,8.332-7.754c0.137-4.53-3.497-8.246-7.997-8.246h-18.133c-2.945,0-5.333-2.388-5.333-5.333V193.247
	c0-2.945,2.388-5.333,5.333-5.333h45.334V187.911z"/>
<path style="fill:#FF675C;" d="M510.688,500.554l-75.315-162.598H332.63l-75.315,162.598c-1.542,3.231-0.783,7.198,2.143,9.637
	c1.47,1.225,3.373,1.809,5.286,1.809h238.514c1.914,0,3.817-0.583,5.286-1.809C511.47,507.753,512.229,503.785,510.688,500.554z"/>
<path style="fill:#DB3D5A;" d="M282.381,500.554l75.315-162.598H332.63l-75.315,162.598c-1.542,3.231-0.783,7.198,2.143,9.637
	c1.47,1.225,3.373,1.809,5.286,1.809h25.067c-1.914,0-3.817-0.583-5.286-1.809C281.597,507.753,280.839,503.785,282.381,500.554z"/>
<path style="fill:#E0DDDF;" d="M435.201,170.667h-102.4c-4.418,0-8-3.582-8-8c0-4.418,3.582-8,8-8h102.4c4.418,0,8,3.582,8,8
	C443.201,167.085,439.619,170.667,435.201,170.667z"/>
<rect x="384.353" y="154.667" style="fill:#F9F8F9;" width="23.467" height="16"/>
<g>
	<circle style="fill:#DB3D5A;" cx="385.067" cy="422.933" r="18.133"/>
	<circle style="fill:#DB3D5A;" cx="448.534" cy="471.467" r="18.667"/>
	<circle style="fill:#DB3D5A;" cx="342.934" cy="474.667" r="16.533"/>
</g>
<path style="fill:#E0DDDF;" d="M144.534,303.087v-140.42c0-4.418-3.582-8-8-8H76.801c-4.418,0-8,3.582-8,8v140.42
	c0,2.135-1.271,4.076-3.242,4.899c-39.405,16.475-65.221,54.941-65.024,98.375c0.266,58.288,49.457,106.495,107.739,105.627
	c57.785-0.862,104.527-48.135,104.527-106.122c0-43.229-25.765-81.462-65.015-97.876
	C145.812,307.165,144.534,305.227,144.534,303.087z"/>
<path style="fill:#C1BCBF;" d="M144.534,188.622v-25.955c0-4.418-3.582-8-8-8H98.667H76.801c-4.418,0-8,3.582-8,8v25.955v114.465
	c0,2.14-1.278,4.078-3.251,4.903C26.15,324.467,0.338,362.93,0.535,406.363c0.266,58.287,49.457,106.495,107.739,105.627
	c3.186-0.048,6.336-0.244,9.449-0.567c-52.685-5.558-95.073-50.963-95.319-105.058c-0.169-37.095,18.645-70.556,48.686-89.798
	c0.855-0.548,1.857-0.83,2.874-0.83h34.505c4.381,0,8.201-3.375,8.332-7.754c0.137-4.53-3.497-8.246-7.997-8.246H96.001
	c-2.945,0-5.333-2.388-5.333-5.333V193.957c0-2.945,2.388-5.333,5.333-5.333h48.533V188.622z"/>
<path style="fill:#5CC4E0;" d="M185.256,334.4H28.082C10.636,353.569,0.41,378.974,0.535,406.362
	c0.266,58.287,49.457,106.495,107.739,105.627c57.785-0.862,104.527-48.135,104.527-106.122
	C212.801,378.669,202.596,353.453,185.256,334.4z"/>
<path style="fill:#439EE8;" d="M22.402,406.362c-0.125-27.388,10.101-52.793,27.547-71.962H28.082
	C10.636,353.569,0.41,378.974,0.535,406.362c0.266,58.287,49.457,106.495,107.739,105.627c3.186-0.048,6.336-0.244,9.449-0.567
	C65.036,505.861,22.648,460.457,22.402,406.362z"/>
<path style="fill:#E0DDDF;" d="M162.134,170.667H51.201c-4.418,0-8-3.582-8-8c0-4.418,3.582-8,8-8h110.933c4.418,0,8,3.582,8,8
	C170.134,167.085,166.552,170.667,162.134,170.667z"/>
<rect x="109.867" y="154.667" style="fill:#F9F8F9;" width="24.889" height="16"/>
<g>
	<circle style="fill:#BEE7F3;" cx="168.001" cy="403.2" r="30.4"/>
	<path style="fill:#BEE7F3;" d="M165.9,334.624c-3.179-5.243-8.922-8.757-15.5-8.757c-6.519,0-12.218,3.452-15.414,8.617
		c-1.713,2.769-2.719,6.021-2.719,9.517c0,10.015,8.118,18.133,18.133,18.133s18.133-8.118,18.133-18.133
		C168.534,340.563,167.56,337.362,165.9,334.624z"/>
</g>
<circle style="fill:#439EE8;" cx="65.601" cy="390.4" r="17.6"/>
<circle style="fill:#BEE7F3;" cx="150.401" cy="344" r="18.133"/>
<path style="fill:#F9F8F9;" d="M150.401,325.867c-6.513,0-12.207,3.444-15.404,8.601h30.809
	C162.606,329.311,156.914,325.867,150.401,325.867z"/>
<path style="fill:#BEE7F3;" d="M134.997,334.467c-1.719,2.772-2.73,6.031-2.73,9.534c0,10.015,8.118,18.133,18.133,18.133
	s18.133-8.118,18.133-18.133c0-3.502-1.01-6.762-2.73-9.534H134.997z"/>
<g>
	<circle style="fill:#439EE8;" cx="103.467" cy="474.133" r="22.4"/>
	<circle style="fill:#439EE8;" cx="112.534" cy="406.4" r="12.267"/>
</g>
<g>
</g>
<g>
</g>
<g>
</g>
<g>
</g>
<g>
</g>
<g>
</g>
<g>
</g>
<g>
</g>
<g>
</g>
<g>
</g>
<g>
</g>
<g>
</g>
<g>
</g>
<g>
</g>
<g>
</g>
</svg>
