<?xml version="1.0" encoding="iso-8859-1"?>
<!-- Generator: Adobe Illustrator 19.0.0, SVG Export Plug-In . SVG Version: 6.00 Build 0)  -->
<svg version="1.1" id="Layer_1" xmlns="http://www.w3.org/2000/svg" xmlns:xlink="http://www.w3.org/1999/xlink" x="0px" y="0px"
	 viewBox="0 0 512 512" style="enable-background:new 0 0 512 512;" xml:space="preserve">
<g>
	<path style="fill:#86D3D6;" d="M135.016,215.258c2.192-2.706,4.536-5.259,6.993-7.659l-60.813-60.815
		c-6.18,18.014-11.287,47.951,6.619,77.313l34.37,12.206C125.552,228.725,129.848,221.644,135.016,215.258z"/>
	<path style="fill:#86D3D6;" d="M114.564,263.145c0.007-0.055,0.019-0.111,0.026-0.168l-77.54-27.531
		c2.107,18.934,10.284,48.239,39.088,67.143l39.474-3.737C113.348,286.727,112.96,274.744,114.564,263.145z"/>
	<path style="fill:#86D3D6;" d="M136.166,350.067c-4.96-8.002-9.09-16.083-12.436-24.178l-88.553,8.384
		c13.522,21.789,45.138,55.742,106,41.348c3.581-0.846,7.327-1.896,11.147-3.106C146.246,365.088,140.837,357.602,136.166,350.067z"
		/>
	<path style="fill:#86D3D6;" d="M369.764,207.824c2.372,2.336,4.638,4.813,6.759,7.436c5.201,6.424,9.516,13.554,12.889,21.182
		l34.938-12.407c9.396-15.346,13.403-32.439,11.879-51.15c-0.81-9.938-3.093-18.887-5.519-26.009L369.764,207.824z"/>
	<path style="fill:#86D3D6;" d="M397.003,263.133v0.009c1.73,11.586,1.199,23.555-1.059,35.668l40.105,3.796
		c15.078-9.858,26.021-23.605,32.649-41.19c3.524-9.351,5.301-18.443,6.151-25.927L397.003,263.133z"/>
	<path style="fill:#86D3D6;" d="M476.817,334.273l-88.998-8.426c-3.348,8.107-7.481,16.202-12.45,24.216
		c-4.647,7.495-10.024,14.943-16.064,22.334c3.946,1.259,7.82,2.349,11.516,3.223C431.681,390.007,463.284,356.079,476.817,334.273z
		"/>
</g>
<path d="M509.81,314.922c-2.296-3.581-6.111-5.908-10.348-6.31l-25.64-2.427c10.081-11.529,16.585-23.891,20.773-35.003
	c11.017-29.23,8.429-55.771,8.313-56.887c-0.436-4.221-2.787-8.01-6.377-10.277c-3.593-2.268-8.022-2.76-12.021-1.339l-24.567,8.723
	c4.246-14.82,4.849-28.863,3.879-40.763c-2.536-31.133-16.225-54.022-16.806-54.981c-2.202-3.635-5.955-6.055-10.176-6.566
	c-4.211-0.514-8.438,0.948-11.446,3.955l-78.643,78.647c-2.708-1.26-5.462-2.344-8.246-3.235
	c-10.078-3.218-20.074-4.848-29.725-4.848c-20.381,0-39.192,7.273-54.304,20.758c-19.353-16.616-39.176-20.479-53.412-20.479
	c-9.104,0-18.526,1.535-28.007,4.564c-2.683,0.858-5.341,1.894-7.955,3.095l-78.498-78.503c-3.007-3.009-7.235-4.464-11.446-3.955
	c-4.22,0.51-7.972,2.931-10.176,6.566c-0.581,0.96-14.27,23.848-16.806,54.981c-0.971,11.9-0.367,25.941,3.879,40.763l-24.567-8.723
	c-3.998-1.417-8.431-0.924-12.021,1.339c-3.588,2.268-5.941,6.055-6.377,10.277c-0.116,1.116-2.706,27.657,8.313,56.887
	c4.189,11.112,10.692,23.472,20.773,35.003l-25.64,2.427c-4.235,0.401-8.05,2.728-10.346,6.31c-2.296,3.58-2.818,8.019-1.413,12.035
	c0.365,1.048,9.211,25.874,31.562,47.509c16.377,15.851,42.547,32.348,80.517,32.346c10.626,0,22.176-1.292,34.694-4.251
	c5.01-1.185,14.199-3.651,25.13-7.917c16.768,16.408,36.965,32.472,60.527,48.055c6.709,4.436,14.512,6.782,22.566,6.782
	c8.054,0,15.858-2.344,22.567-6.784c23.621-15.625,43.863-31.732,60.657-48.185c11.073,4.344,20.4,6.851,25.458,8.047
	c12.521,2.96,24.066,4.251,34.694,4.251c37.965-0.002,64.142-16.495,80.517-32.346c22.351-21.635,31.197-46.46,31.562-47.509
	C512.629,322.939,512.106,318.502,509.81,314.922z M370.821,375.622c-3.697-0.874-7.569-1.965-11.516-3.223
	c6.04-7.391,11.419-14.839,16.064-22.334c4.969-8.014,9.104-16.111,12.45-24.216l88.998,8.426
	C463.284,356.079,431.681,390.007,370.821,375.622z M263.065,419.609c-2.208,1.462-4.751,2.19-7.296,2.19
	c-2.545,0-5.088-0.73-7.296-2.189C94.872,318.012,139.156,228.367,181.481,214.82c7.007-2.239,13.519-3.251,19.581-3.251
	c18.531,0.002,32.825,9.471,43.882,22.362c2.569,2.997,6.15,4.458,9.744,4.458c3.934,0,7.888-1.753,10.552-5.156
	c10.387-13.27,25.073-21.943,43.54-21.943c6.616,0,13.723,1.116,21.285,3.529C372.378,228.367,416.657,318.014,263.065,419.609z
	 M35.179,334.273l88.553-8.384c3.346,8.095,7.474,16.176,12.436,24.178c4.671,7.533,10.08,15.021,16.159,22.45
	c-3.82,1.209-7.566,2.26-11.147,3.106C80.317,390.015,48.701,356.062,35.179,334.273z M37.049,235.447l77.54,27.531
	c-0.007,0.055-0.019,0.111-0.026,0.168c-1.604,11.599-1.215,23.581,1.047,35.708l-39.474,3.737
	C47.333,283.685,39.156,254.381,37.049,235.447z M81.196,146.784l60.811,60.815c-2.457,2.4-4.801,4.952-6.993,7.659
	c-5.168,6.384-9.464,13.467-12.829,21.043l-34.37-12.206C69.909,194.736,75.016,164.798,81.196,146.784z M424.352,224.035
	l-34.938,12.407c-3.374-7.628-7.689-14.758-12.889-21.182c-2.123-2.623-4.388-5.1-6.759-7.436l60.948-60.95
	c2.426,7.121,4.711,16.071,5.519,26.009C437.755,191.595,433.748,208.689,424.352,224.035z M468.693,261.417
	c-6.628,17.585-17.574,31.33-32.652,41.19l-40.097-3.796c2.258-12.112,2.789-24.081,1.059-35.668v-0.009l77.844-27.645
	C473.995,242.974,472.217,252.066,468.693,261.417z"/>
<path style="fill:#D21E1E;" d="M330.065,214.82c-7.562-2.415-14.669-3.529-21.285-3.529c-18.467,0-33.152,8.673-43.54,21.943
	c-2.664,3.405-6.616,5.156-10.552,5.156c-3.593,0-7.173-1.462-9.744-4.458c-11.059-12.891-25.351-22.36-43.882-22.362
	c-6.062,0-12.576,1.012-19.581,3.251c-42.327,13.547-86.61,103.193,66.993,204.79c2.206,1.458,4.751,2.189,7.296,2.189
	c2.545,0,5.087-0.728,7.296-2.19C416.657,318.014,372.378,228.367,330.065,214.82z"/>
<path d="M255.712,146.141c49.374,0,99.192-12.929,99.192-41.81s-49.818-41.81-99.192-41.81s-99.192,12.929-99.192,41.81
	S206.337,146.141,255.712,146.141z M255.712,90.203c39.566,0,63.519,8.905,70.216,14.128c-6.697,5.223-30.65,14.128-70.216,14.128
	s-63.519-8.905-70.216-14.128C192.194,99.108,216.145,90.203,255.712,90.203z"/>
<g>
</g>
<g>
</g>
<g>
</g>
<g>
</g>
<g>
</g>
<g>
</g>
<g>
</g>
<g>
</g>
<g>
</g>
<g>
</g>
<g>
</g>
<g>
</g>
<g>
</g>
<g>
</g>
<g>
</g>
</svg>
