<?xml version="1.0" encoding="utf-8"?>
<!-- Generator: Adobe Illustrator 24.0.0, SVG Export Plug-In . SVG Version: 6.00 Build 0)  -->
<svg version="1.1" id="Layer_1" xmlns="http://www.w3.org/2000/svg" xmlns:xlink="http://www.w3.org/1999/xlink" x="0px" y="0px"
	 viewBox="0 0 512 512" style="enable-background:new 0 0 512 512;" xml:space="preserve">
<style type="text/css">
	.st0{fill:#FF877F;}
</style>
<path class="st0" d="M253,128.4c20.9-46,66.9-89.2,121.3-89.2c73.9,0,129.7,57.2,136.6,128.3c0,0,4.2,18.1-4.2,50.2
	c-11.2,43.2-36.3,82.3-71.1,111.5L260,481.1c-1.4,1.4-4.2,1.4-5.6,0l-177.1-152c-34.9-29.3-60-68.3-71.1-111.5
	C-2.1,185.5,2,167.4,2,167.4C9,96.3,59.2,39.1,133.1,39.1C187.5,39.1,233.5,82.4,253,128.4"/>
</svg>
