<?xml version="1.0" encoding="iso-8859-1"?>
<!-- Generator: Adobe Illustrator 19.0.0, SVG Export Plug-In . SVG Version: 6.00 Build 0)  -->
<svg version="1.1" id="Layer_1" xmlns="http://www.w3.org/2000/svg" xmlns:xlink="http://www.w3.org/1999/xlink" x="0px" y="0px"
	 viewBox="0 0 511.999 511.999" style="enable-background:new 0 0 511.999 511.999;" xml:space="preserve">
<g>
	<g>
		<path d="M136.594,46.562L57.025,1.036c-3.756-2.15-8.544-0.846-10.693,2.91c-2.149,3.756-0.846,8.544,2.91,10.693l79.569,45.525
			c1.228,0.704,2.565,1.038,3.885,1.038c2.719,0,5.362-1.418,6.81-3.947C141.654,53.5,140.351,48.712,136.594,46.562z"/>
	</g>
</g>
<g>
	<g>
		<path d="M388.857,449.876c-18.531-5.072-20.185-6.709-25.295-25.043c-1.675-6.01-7.217-10.209-13.479-10.209
			c-6.267,0-11.81,4.2-13.479,10.209c-5.107,18.332-6.762,19.97-25.293,25.043c-6.058,1.658-10.289,7.184-10.289,13.436
			c0,6.253,4.231,11.777,10.289,13.435c18.53,5.071,20.185,6.71,25.292,25.04c1.672,6.012,7.214,10.212,13.48,10.212
			c6.261,0,11.804-4.198,13.479-10.209c5.111-18.335,6.765-19.973,25.297-25.045c6.052-1.657,10.279-7.182,10.279-13.434
			C399.137,457.059,394.911,451.533,388.857,449.876z M350.083,492.105c-5.485-17.369-11.464-23.355-28.859-28.794
			c17.394-5.437,23.374-11.424,28.859-28.792c5.486,17.369,11.466,23.357,28.86,28.792
			C361.547,468.748,355.57,474.736,350.083,492.105z"/>
	</g>
</g>
<g>
	<g>
		<path d="M160.861,397.64c-15.79-4.322-16.988-5.507-21.339-21.119c-1.576-5.674-6.806-9.637-12.718-9.637
			s-11.143,3.963-12.717,9.632c-4.35,15.617-5.546,16.802-21.34,21.125c-5.715,1.565-9.705,6.779-9.705,12.682
			c0,5.899,3.989,11.115,9.706,12.682c3.442,0.941,5.986,1.724,8.008,2.464c4.063,1.488,8.565-0.601,10.053-4.665
			s-0.601-8.565-4.665-10.053c-0.406-0.149-0.824-0.297-1.255-0.446c12.286-4.323,17.568-9.62,21.918-21.915
			c4.356,12.312,9.645,17.608,21.967,21.932c-12.334,4.329-17.623,9.632-21.982,21.974c-1.69-3.49-5.748-5.267-9.527-4.01
			c-4.106,1.369-6.326,5.807-4.958,9.912c0.545,1.635,1.111,3.519,1.782,5.926c1.578,5.675,6.807,9.637,12.718,9.637
			s11.141-3.962,12.716-9.633c4.353-15.62,5.549-16.804,21.345-21.126c5.709-1.566,9.698-6.78,9.698-12.681
			C170.564,404.421,166.575,399.205,160.861,397.64z"/>
	</g>
</g>
<g>
	<g>
		<path d="M465.668,3.946c-2.149-3.756-6.937-5.06-10.693-2.91l-174.159,99.646c-2.398-2.817-5.962-4.612-9.943-4.612h-29.747
			c-3.98,0-7.545,1.795-9.942,4.612l-71.603-40.97c-3.756-2.15-8.544-0.846-10.693,2.91c-2.149,3.757-0.846,8.545,2.91,10.693
			l76.269,43.64v22.283c0,1.021,0.13,2.01,0.352,2.964l-61.026,55.813c-3.92,3.586-6.169,8.681-6.169,13.978v153.73
			c0,5.242,2.208,10.301,6.057,13.875l75.689,70.336c3.548,3.298,8.177,5.115,13.032,5.115c4.857,0,9.484-1.817,13.031-5.115
			l75.686-70.333c3.851-3.577,6.061-8.635,6.061-13.877V211.994c0-5.291-2.248-10.385-6.17-13.978l-20.626-18.863
			c-3.195-2.92-8.153-2.699-11.072,0.495c-2.922,3.194-2.7,8.151,0.494,11.072l18.264,16.703l-31.82,10.356l-36.01-32.935v-32.544
			h7.036c0.167,0,0.329-0.019,0.496-0.025l21.134,19.329c3.194,2.92,8.149,2.7,11.072-0.494c2.922-3.194,2.7-8.151-0.494-11.073
			l-19.5-17.832c0.224-0.955,0.353-1.945,0.353-2.966v-22.283L462.76,14.639C466.514,12.491,467.816,7.703,465.668,3.946z
			 M240.628,152.275c0.166,0.006,0.329,0.025,0.497,0.025h7.036v32.544l-35.894,32.83L180.356,207.4L240.628,152.275z
			 M176.895,222.75l29.337,9.446v113.187l-29.337,9.549V222.75z M248.162,433.367l-67.86-63.061l31.682-10.311l36.177,33.619
			V433.367z M314.344,386.43l-50.509,46.937v-39.751l35.695-33.172l0.369-0.342l31.771,10.227L314.344,386.43z M290.091,230.098
			v63.519c0,4.328,3.508,7.837,7.837,7.837c4.329,0,7.837-3.509,7.837-7.837v-61.28l29.339-9.549v132.181l-29.339-9.445v-22.651
			c0-4.328-3.508-7.837-7.837-7.837c-4.329,0-7.837,3.509-7.837,7.837v24.946L255.999,379.5l-34.093-31.681V230.098l34.093-31.181
			L290.091,230.098z M268.26,136.627h-24.523v-24.883h24.523V136.627z"/>
	</g>
</g>
<g>
</g>
<g>
</g>
<g>
</g>
<g>
</g>
<g>
</g>
<g>
</g>
<g>
</g>
<g>
</g>
<g>
</g>
<g>
</g>
<g>
</g>
<g>
</g>
<g>
</g>
<g>
</g>
<g>
</g>
</svg>
