<?xml version="1.0" encoding="utf-8"?>
<!-- Generator: Adobe Illustrator 24.0.0, SVG Export Plug-In . SVG Version: 6.00 Build 0)  -->
<svg version="1.1" id="Layer_1" xmlns="http://www.w3.org/2000/svg" xmlns:xlink="http://www.w3.org/1999/xlink" x="0px" y="0px"
	 viewBox="0 0 512 512" style="enable-background:new 0 0 512 512;" xml:space="preserve">
<path d="M392.6,38.6c-1.1-0.8-2.4-1.1-3.7-0.8l-46.5,11.6c-1.9,0.5-3.3,2.2-3.3,4.2v37.6c-7.4-3.2-15.9,0.2-19.1,7.5
	s0.2,15.9,7.5,19.1c7.4,3.2,15.9-0.2,19.1-7.5c0.8-1.8,1.2-3.8,1.2-5.8V57.1l37.8-9.5v32c-7.4-3.2-15.9,0.2-19.1,7.5
	s0.2,15.9,7.5,19.1c7.4,3.2,15.9-0.2,19.1-7.5c0.8-1.8,1.2-3.8,1.2-5.8V42C394.3,40.7,393.7,39.4,392.6,38.6z M333.2,110.4
	c-3.2,0-5.8-2.6-5.8-5.8s2.6-5.8,5.8-5.8s5.8,2.6,5.8,5.8C339,107.8,336.4,110.4,333.2,110.4z M379.8,98.8c-3.2,0-5.8-2.6-5.8-5.8
	s2.6-5.8,5.8-5.8s5.8,2.6,5.8,5.8C385.6,96.2,383,98.8,379.8,98.8z"/>
</svg>
