<?xml version="1.0" encoding="utf-8"?>
<!-- Generator: Adobe Illustrator 24.0.0, SVG Export Plug-In . SVG Version: 6.00 Build 0)  -->
<svg version="1.1" id="Layer_1" xmlns="http://www.w3.org/2000/svg" xmlns:xlink="http://www.w3.org/1999/xlink" x="0px" y="0px"
	 viewBox="0 0 512 512" style="enable-background:new 0 0 512 512;" xml:space="preserve">
<path d="M497.3,90.3c-1.1-0.8-2.5-1.1-3.8-0.8L446,101.3c-2,0.5-3.4,2.3-3.4,4.3V144c-7.5-3.3-16.3,0.2-19.5,7.7
	c-3.3,7.5,0.2,16.3,7.7,19.5c7.5,3.3,16.3-0.2,19.5-7.7c0.8-1.9,1.2-3.9,1.2-5.9v-48.5l38.6-9.6v32.6c-7.5-3.3-16.3,0.2-19.5,7.7
	c-3.3,7.5,0.2,16.3,7.7,19.5c7.5,3.3,16.3-0.2,19.5-7.7c0.8-1.9,1.2-3.9,1.2-5.9V93.8C499,92.4,498.4,91.1,497.3,90.3z M436.7,163.5
	c-3.3,0-5.9-2.7-5.9-5.9s2.7-5.9,5.9-5.9s5.9,2.7,5.9,5.9C442.6,160.8,439.9,163.5,436.7,163.5z M484.2,151.6
	c-3.3,0-5.9-2.7-5.9-5.9c0-3.3,2.7-5.9,5.9-5.9s5.9,2.7,5.9,5.9C490.1,149,487.4,151.6,484.2,151.6z"/>
</svg>
