<?xml version="1.0" encoding="iso-8859-1"?>
<!-- Generator: Adobe Illustrator 19.0.0, SVG Export Plug-In . SVG Version: 6.00 Build 0)  -->
<svg version="1.1" id="Layer_1" xmlns="http://www.w3.org/2000/svg" xmlns:xlink="http://www.w3.org/1999/xlink" x="0px" y="0px"
	 viewBox="0 0 512 512" style="enable-background:new 0 0 512 512;" xml:space="preserve">
<path style="fill:#A7B0C0;" d="M76.8,256c-28.237,0-51.2-22.963-51.2-51.2s22.963-51.2,51.2-51.2s51.2,22.963,51.2,51.2
	S105.037,256,76.8,256z"/>
<path style="fill:#573A32;" d="M64,267.503V358.4C64,443.102,132.898,512,217.6,512s153.6-68.898,153.6-153.6v-26.487
	c80.367-8.977,128-101.427,128-191.113c0-52.651,0-140.8-64-140.8c-7.074,0-12.8,5.726-12.8,12.8s5.726,12.8,12.8,12.8
	c35.439,0,38.4,56.9,38.4,115.2c0,80.026-44.049,166.4-115.2,166.4s-115.2-86.374-115.2-166.4c0-58.3,2.961-115.2,38.4-115.2
	c7.074,0,12.8-5.726,12.8-12.8S288.674,0,281.6,0c-64,0-64,88.149-64,140.8c0,89.685,47.633,182.135,128,191.113V358.4
	c0,70.579-57.421,128-128,128s-128-57.421-128-128v-90.897c29.175-5.948,51.2-31.787,51.2-62.703c0-35.302-28.715-64-64-64
	s-64,28.698-64,64C12.8,235.716,34.825,261.555,64,267.503z M76.8,166.4c21.171,0,38.4,17.229,38.4,38.4s-17.229,38.4-38.4,38.4
	s-38.4-17.229-38.4-38.4S55.629,166.4,76.8,166.4z"/>
<g>
</g>
<g>
</g>
<g>
</g>
<g>
</g>
<g>
</g>
<g>
</g>
<g>
</g>
<g>
</g>
<g>
</g>
<g>
</g>
<g>
</g>
<g>
</g>
<g>
</g>
<g>
</g>
<g>
</g>
</svg>
