<?xml version="1.0" encoding="utf-8"?>
<!-- Generator: Adobe Illustrator 24.0.0, SVG Export Plug-In . SVG Version: 6.00 Build 0)  -->
<svg version="1.1" id="Layer_1" xmlns="http://www.w3.org/2000/svg" xmlns:xlink="http://www.w3.org/1999/xlink" x="0px" y="0px"
	 viewBox="0 0 100 100" style="enable-background:new 0 0 100 100;" xml:space="preserve">
<style type="text/css">
	.st0{fill:#7CA07D;}
	.st1{fill:#98C79C;}
	.st2{fill:#ABD1AD;}
	.st3{fill:#F6D563;}
	.st4{fill:#FFE477;}
	.st5{fill:#FFFFFF;}
</style>
<g transform="translate(0.000000,1280.000000) scale(0.100000,-0.100000)">
	<path class="st0" d="M799,12798.8c0.3-2.5,0.2-2.5-2.1-1.3c-1.5,0.8-1.6,0.7-0.8-0.3c0.9-1,0.3-1.3-3.7-2.5
		c-2.7-0.7-6.4-2.1-8.5-3.1l-3.8-1.8l-1.3,1.6l-1.4,1.6l0.9-1.6c0.9-1.5,0.4-2.2-4.6-7.2c-3.1-3.1-5.7-5.2-6-4.6
		c-0.2,0.5-0.4,0.4-0.4-0.3c-0.1-0.7-1.3-3.7-2.7-6.8c-1.5-3-3.1-7.1-3.7-9s-1.4-3.7-1.9-4c-0.5-0.4-0.5-0.6,0-0.7
		c0.5,0-0.1-0.4-1.2-0.7l-2-0.6l1.9-0.1c1.9-0.1,1.9-0.1,0.5-1.6c-1-1.1-1.1-1.5-0.3-1.2c0.9,0.3,1-0.8,0.9-6.7
		c-0.2-6.6-0.4-7.1-1.6-6.1c-1.2,0.9-1.2,0.8,0-0.6c1.1-1.3,1.2-1.8,0.5-2.5s-0.7-0.9,0.2-0.9c0.7,0,0.6-0.5-0.5-1.7
		c-1.2-1.5-1.3-1.6-0.1-0.7c1.3,1,1.3,0.5,1.3-8.1c0-7.1-0.2-9.1-0.9-8.6c-0.8,0.5-0.8,0.3,0-0.6c0.9-1.1,0.8-1.3-1.2-1.6l-2.2-0.3
		l2.2-0.2c2.4-0.1,2.7-0.8,1.2-2.4c-0.8-0.9-0.8-1,0-0.5c0.7,0.5,0.9-1.1,0.9-6.5c0-4.8-0.3-7.1-0.9-7.1c-0.6,0-0.6-0.3,0-1.1
		c0.8-0.9,0.5-1.2-1.3-1.5l-2.2-0.3l2.2-0.2c2.4-0.1,2.7-0.8,1.2-2.4c-0.8-0.9-0.8-1,0-0.5c0.7,0.5,0.9-1.4,0.9-8.2
		s-0.2-8.6-0.9-8.2c-0.8,0.5-0.8,0.3,0-0.5c1.4-1.5,1.2-2.1-0.8-2.5c-1.8-0.3-1.8-0.3,0.1-0.5c1.6-0.1,1.7-0.2,0.8-1.4
		c-0.8-0.9-0.8-1.1-0.1-0.7c0.7,0.4,0.9-1.2,0.9-7s-0.2-7.5-0.9-7c-0.8,0.5-0.8,0.3,0-0.5c1.3-1.4,1.2-2.1-0.4-2.5
		c-1.3-0.3-1.3-0.4,0.1-0.5c1.3-0.1,1.3-0.2,0.4-1.4c-0.8-0.9-0.8-1.1-0.1-0.7c0.7,0.5,0.9-1.5,0.9-8.6s-0.2-9-0.9-8.6
		c-0.8,0.5-0.8,0.3,0-0.6c0.9-1.1,0.8-1.3-0.8-1.6l-1.8-0.3l1.8-0.2c2-0.1,2.2-0.9,0.8-2.4c-0.8-0.9-0.8-1,0-0.5
		c0.7,0.5,0.9-1.2,0.9-7s-0.2-7.4-0.9-7c-0.8,0.5-0.7,0.2,0-0.6c0.9-1.2,0.7-1.3-1.6-1.6l-2.6-0.3l2.6-0.1c2.7-0.2,3.1-0.8,1.6-2.4
		c-0.8-0.9-0.8-1,0-0.5c0.7,0.5,0.9-1.4,0.9-8.2s-0.2-8.6-0.9-8.2c-0.8,0.5-0.8,0.3,0-0.5c1.5-1.6,1.2-2.1-1.6-2.5l-2.6-0.3l2.7-0.1
		c2.2-0.2,2.5-0.3,1.6-1.3c-0.7-0.8-0.7-1.2-0.1-1.2c0.5,0,0.9-2.4,0.9-7.1c0-5.4-0.2-7-0.9-6.5c-0.8,0.5-0.8,0.3,0-0.5
		c1.4-1.5,1.2-2.1-0.8-2.5c-1.8-0.3-1.8-0.3,0.1-0.5c1.6-0.1,1.7-0.2,0.8-1.4c-0.8-0.9-0.8-1.1-0.1-0.7c0.7,0.5,0.9-1.5,0.9-8.6
		c0-8.6-0.1-9.1-1.3-8.1c-1.2,0.9-1.1,0.8,0.1-0.7c1.1-1.3,1.2-1.7,0.5-1.7c-0.9,0-0.9-0.2-0.2-0.9s0.6-1.3-0.5-2.5
		c-1.3-1.6-1.3-1.6,0.1-0.5c1.3,1,1.3,0.5,1.3-6.5c0-5.9-0.2-7.5-0.9-7.1c-0.8,0.5-0.8,0.3,0-0.6c0.9-1.1,0.8-1.3-0.8-1.6l-1.8-0.3
		l1.8-0.2c2-0.1,2.2-0.9,0.8-2.4c-0.8-0.9-0.8-1,0-0.5c0.7,0.5,0.9-1.4,0.9-8.1c0-6-0.3-8.7-0.9-8.7c-0.6,0-0.6-0.4,0.1-1.2
		c0.9-1,0.6-1.2-1.3-1.3l-2.3-0.1l2-0.5c2-0.5,2-0.6,2.2-8.6c0.2-6.6,0-8-0.9-7.5c-0.8,0.5-0.9,0.4,0-0.5c1.5-1.6,1.2-2.1-1.6-2.5
		l-2.6-0.3l2.7-0.1c2.2-0.2,2.5-0.3,1.6-1.3c-0.7-0.8-0.7-1.2-0.1-1.2c0.5,0,0.9-2.8,0.9-8.7c0-8.2-0.1-8.7-1.3-7.7
		c-1.1,0.9-1,0.6,0.2-0.7c1.3-1.6,1.3-2,0.4-2.5c-1-0.6-1-0.8-0.1-0.8s0.7-0.4-0.4-1.7c-1.2-1.5-1.3-1.6-0.1-0.7
		c1.3,1,1.3,0.5,1.3-6.6s-0.1-7.6-1.3-6.6c-1.3,0.9-1.3,0.9,0-0.6c1.4-1.6,1.4-1.6,0-2c-1.3-0.3-1.3-0.4,0-0.5
		c0.7,0,1.3-0.3,1.3-0.6c0-0.2-0.6-1.3-1.3-2.1c-1.3-1.6-1.3-1.6,0-0.5c1.3,1,1.3,0.5,1.3-7.7c0-5.9-0.3-8.7-0.9-8.7
		c-0.6,0-0.6-0.3,0-1.1c0.8-0.9,0.5-1.2-1.3-1.5l-2.2-0.3l2.2-0.2c2.4-0.1,2.7-0.8,1.2-2.4c-0.9-0.9-0.8-0.9,0-0.5
		c0.9,0.5,1-0.9,0.9-7.5c-0.2-8-0.2-8.2-2.2-8.6l-2-0.5l2.3-0.1c1.9-0.1,2.1-0.2,1.3-1.3c-0.7-0.8-0.7-1.2-0.1-1.2
		c0.5,0,0.9-2.7,0.9-8.7c0-6.7-0.2-8.6-0.9-8.1c-0.8,0.5-0.8,0.3,0-0.5c1.4-1.5,1.2-2.1-0.8-2.5c-1.8-0.3-1.8-0.3,0.1-0.5
		c1.6-0.1,1.7-0.2,0.8-1.4c-0.8-0.9-0.8-1.1-0.1-0.7c0.7,0.4,0.9-1.2,0.9-7.1c0-7.1-0.1-7.5-1.3-6.5c-1.1,0.9-1,0.6,0.2-0.7
		c1.3-1.6,1.3-2,0.4-2.5c-1-0.6-1-0.8-0.1-0.8s0.7-0.4-0.4-1.7c-1.2-1.5-1.3-1.6-0.1-0.7c1.3,1,1.3,0.5,1.3-8.1
		c0-7.1-0.2-9.1-0.9-8.6c-0.8,0.5-0.8,0.3,0-0.6c0.9-1.1,0.8-1.3-1.2-1.6l-2.2-0.3l2.2-0.2c2.4-0.1,2.7-0.8,1.2-2.4
		c-0.8-0.9-0.8-1,0-0.5c0.7,0.5,0.9-1.1,0.9-6.5c0-4.8-0.3-7.1-0.9-7.1c-0.6,0-0.6-0.3,0-1.1c0.8-0.9,0.5-1.2-1.3-1.5l-2.2-0.3
		l2.2-0.2c2.4-0.1,2.7-0.8,1.2-2.4c-0.8-0.9-0.8-1,0-0.5c0.7,0.5,0.9-1.4,0.9-8.2s-0.2-8.6-0.9-8.2c-0.8,0.5-0.8,0.3,0-0.5
		c1.4-1.5,1.2-2.1-0.8-2.5c-1.8-0.3-1.8-0.3,0.1-0.5c1.6-0.1,1.7-0.2,0.8-1.4c-0.8-0.9-0.8-1.1-0.1-0.7c0.7,0.4,0.9-1.2,0.9-7
		s-0.2-7.5-0.9-7c-0.8,0.5-0.8,0.3,0-0.5c1.4-1.5,1.2-2.1-0.8-2.5c-1.8-0.3-1.8-0.3,0.1-0.5c1.6-0.1,1.7-0.2,0.8-1.4
		c-0.8-0.9-0.8-1.1-0.1-0.7c0.7,0.5,0.9-1.5,0.9-8.6s-0.2-9-0.9-8.6c-0.8,0.5-0.8,0.3,0-0.6c0.9-1.1,0.8-1.3-0.8-1.6l-1.8-0.3
		l1.8-0.2c2-0.1,2.2-0.9,0.8-2.4c-0.8-0.9-0.8-1,0-0.5c0.7,0.5,0.9-1.2,0.9-7s-0.2-7.4-1-7c-0.7,0.5-0.7,0.3,0.1-0.6
		c0.9-1.1,0.8-1.3-1.2-1.6l-2.2-0.3l2.2-0.2c2.4-0.1,2.7-0.8,1.2-2.4c-0.8-0.9-0.8-1,0-0.5c0.7,0.5,0.9-1.4,0.9-8.2
		s-0.2-8.6-0.9-8.2c-0.8,0.5-0.8,0.3,0-0.5c1.5-1.6,1.2-2.1-1.6-2.5l-2.6-0.3l2.7-0.1c2.2-0.2,2.5-0.3,1.6-1.3
		c-0.7-0.8-0.7-1.2-0.1-1.2c0.5,0,0.9-2.4,0.9-7.1c0-5.4-0.2-7-0.9-6.5c-0.8,0.5-0.8,0.3,0-0.5c1.4-1.5,1.2-2.1-0.8-2.5
		c-1.8-0.3-1.8-0.3,0.1-0.5c1.6-0.1,1.7-0.2,0.8-1.4c-0.8-0.9-0.8-1.1-0.2-0.7c0.8,0.5,1-1.5,1-8.6c0-8.6-0.1-9.1-1.3-8.1
		c-1.2,0.9-1.1,0.8,0.1-0.7c1.1-1.3,1.2-1.7,0.5-1.7c-0.9,0-0.9-0.2-0.2-0.9s0.6-1.3-0.5-2.5c-1.3-1.6-1.3-1.6,0.1-0.5
		c1.3,1,1.3,0.5,1.3-6.5c0-5.9-0.2-7.5-0.9-7.1c-0.8,0.5-0.8,0.3,0-0.6c0.9-1.1,0.8-1.3-0.8-1.6l-1.8-0.3l1.8-0.2
		c2-0.1,2.2-0.9,0.7-2.4c-0.7-0.9-0.7-1,0.1-0.5c0.7,0.5,0.9-1.4,0.9-8.1c0-6-0.3-8.7-0.9-8.7c-0.6,0-0.6-0.4,0.1-1.2
		c0.9-1,0.6-1.2-1.3-1.3l-2.3-0.1l2-0.5c2-0.5,2-0.6,2.2-8.6c0.2-6.6,0-8-0.9-7.5c-0.8,0.5-0.9,0.4,0-0.5c1.5-1.6,1.2-2.1-1.6-2.5
		l-2.6-0.3l2.7-0.1c2.2-0.2,2.5-0.3,1.6-1.3c-0.7-0.8-0.7-1.2-0.1-1.2c0.5,0,0.9-2.7,0.9-8.7c0-6.7-0.2-8.6-0.9-8.1
		c-0.8,0.5-0.8,0.3,0-0.5c1.3-1.4,1.2-2.1-0.4-2.5c-1.3-0.3-1.3-0.4,0.1-0.5c1.5-0.1,1.5-0.1,0-1.8c-1.2-1.5-1.3-1.6-0.1-0.7
		c1.3,1,1.3,0.5,1.3-6.6s-0.1-7.6-1.3-6.6c-1.2,0.9-1.1,0.8,0.1-0.7c1.5-1.7,1.5-1.7,0-1.7c-1.4-0.1-1.4-0.1-0.1-0.9
		c1.4-0.8,1.4-0.9,0-2.5c-1.3-1.5-1.3-1.6-0.1-0.6c1.3,1,1.4,0.5,1.4-7.7c0-5.9-0.3-8.7-0.9-8.7c-0.6,0-0.6-0.3,0-1.1
		c0.8-0.9,0.5-1.2-1.3-1.5l-2.2-0.3l2.2-0.2c2.4-0.1,2.7-0.8,1.1-2.4c-0.7-0.9-0.7-1,0-0.5c0.8,0.4,1-0.5,1-3.4
		c0-4.1-1.5-6.5-1.6-2.7c-0.2,1.8-0.2,1.9-0.5,0.5c-0.4-2.1-1.4-2.3-2.6-0.4c-0.9,1.3-0.9,1.3-0.5-0.1c0.4-1.1,0.1-1.3-1.7-0.9
		c-3.2,0.8-11.3,4.9-13.4,6.8c-1.3,1.2-1.5,1.8-0.8,2.3c0.7,0.4,0.4,0.6-0.9,0.6h-1.9l1.9,2l1.9,2.1l-2.3-1.5l-2.3-1.4l-2.4,2.8
		c-3.4,3.9-7.7,11.6-6.5,11.6c0.5,0,0.5,0.3-0.2,0.8c-1,0.7-0.9,1,0.4,2.1c1.3,1.1,1.4,1.2,0.2,0.7c-2.2-0.7-3.3,0.9-5.5,7.9
		c-3.1,10.1-3.2,10.8-1.6,10.2c1.3-0.4,1.3-0.3-0.1,0.7c-1.7,1.3-1.6,1.6,1.1,2.7c1.8,0.7,1.7,0.8-0.5,0.3c-2.7-0.5-3.3,0.2-1.6,2
		c0.9,0.8,0.8,0.9-0.2,0.5s-1.4,0.7-2.4,6.7c-1,6.4-1,7.1,0.1,6.7c0.9-0.4,0.9-0.2-0.2,1.1c-1.3,1.4-1.3,1.5,0.1,1.9
		c1.3,0.3,1.3,0.4,0.1,0.5c-1.6,0.1-1.8,0.9-0.5,2.4c0.9,0.8,0.8,0.9-0.2,0.5c-1.1-0.4-1.3,0.7-2,8.2c-0.6,7.5-0.5,8.6,0.5,8.2
		c0.9-0.4,1-0.3,0.2,0.5c-1.5,1.5-1.3,2.1,0.8,2.5c1.4,0.3,1.3,0.4-0.5,0.5s-2,0.3-1.3,1.2c0.5,0.6,0.6,1.3,0.2,1.4
		c-0.5,0.1-1,3.6-1.3,7.7c-0.5,7.1-0.5,7.4,0.9,6.3s1.5-1.1,0.1,0.5s-1.4,1.6,0.4,2c1.8,0.3,1.8,0.3,0.1,0.5c-2,0.1-2.3,0.9-0.8,2.4
		c0.7,0.9,0.7,1,0,0.5c-0.8-0.5-1,0.9-1,5.7c0,3.5-0.2,7.4-0.5,8.8c-0.4,2.4-0.3,2.6,1,2c1.2-0.5,1.3-0.4,0.5,0.4
		c-1.5,1.5-1.3,2.1,0.8,2.5l1.7,0.3l-1.7,0.2c-2,0.1-2.3,0.9-0.9,2.4c0.9,0.8,0.8,0.9-0.4,0.5c-1.2-0.5-1.3,0.1-1.3,6.8
		c0,7.6,0.3,8.8,2.4,9.6c0.9,0.3,0.9,0.5-0.2,0.5c-1.6,0.1-1.8,0.9-0.4,2.4c0.8,0.8,0.7,0.9-0.5,0.5c-1.3-0.5-1.3,0.2-1.3,8.6
		c0,8.6,0.1,9.2,1.4,8.2c1.1-0.9,1-0.8-0.2,0.7l-1.5,1.7l2.3,0.1c1.9,0.1,2,0.2,0.5,0.5c-2,0.4-2.3,1-0.9,2.5
		c0.9,0.8,0.8,0.9-0.4,0.5c-1.2-0.5-1.3,0.1-1.3,6.8c0,7.9,0.3,9,2.7,9.6c1.4,0.3,1.4,0.4-0.2,0.5c-2,0.1-2.3,0.9-0.9,2.4
		c0.9,0.8,0.8,0.9-0.4,0.5c-1.3-0.5-1.3,0.2-1.3,8.6c0,8.6,0.1,9.2,1.4,8.2c1.1-0.9,1-0.8-0.2,0.7l-1.5,1.7l2.3,0.1
		c1.9,0.1,2,0.2,0.5,0.5c-2,0.4-2.3,1-0.8,2.5c0.8,0.8,0.7,0.9-0.5,0.5c-1.2-0.5-1.3,0.1-1.3,6.8c0,7.9,0.3,9,2.7,9.6
		c1.4,0.3,1.4,0.4-0.2,0.5c-2,0.1-2.3,0.9-0.9,2.4c0.9,0.8,0.8,0.9-0.4,0.5c-1.3-0.5-1.3,0.2-1.3,8.6c0,8.6,0.1,9.2,1.3,8.2
		c1.2-0.9,1.1-0.8-0.1,0.7l-1.5,1.7l2.3,0.1c1.9,0.1,2,0.2,0.5,0.5c-2,0.4-2.3,1-0.9,2.5c0.9,0.8,0.8,0.9-0.3,0.5
		c-1.3-0.5-1.4,0.1-1.4,6.8c0,4.1,0.3,7.8,0.6,8.2c0.3,0.5,1.4,1.1,2.5,1.3c2,0.3,2,0.3-0.2,0.5c-2.4,0.1-2.7,0.8-1.3,2.4
		c0.9,0.8,0.8,0.9-0.3,0.5c-1.2-0.5-1.4-0.1-1.4,2.1c0,1.4-0.6,5-1.5,7.9c-0.9,3.5-1.2,5.3-0.5,5.3c0.5,0,0.4,0.3-0.2,0.7
		c-0.6,0.4-0.8,1.1-0.5,1.6c0.4,0.6,0.2,0.9-0.5,0.6c-0.6-0.2-1.9,0.9-3.1,2.6c-1.1,1.6-3.5,4.6-5.4,6.6c-3.4,3.6-3.4,3.6-2,5.7
		l1.3,2.1l-2.1-1.9c-1.1-1.1-2-1.5-2-0.9s-0.3,0.8-0.6,0.5c-0.4-0.2-2.4,0.5-4.6,1.6c-2.1,1.1-5.3,2.4-7.1,2.8
		c-1.9,0.5-3.4,1.1-3.4,1.5s-0.5,0.5-1.1,0.2c-0.6-0.2-1.3,0.2-1.5,1c-0.3,1.3-0.4,1.3-0.5-0.1c-0.1-1.3-0.2-1.3-1.4-0.4
		c-0.9,0.8-1.1,0.8-0.7,0.2c0.4-0.8-0.4-1-3.2-1c-2,0-5-0.3-6.5-0.8c-1.8-0.5-2.8-0.5-3.2,0.1c-0.3,0.5-0.7,0.3-1-0.6
		c-0.5-1.3-0.7-1.3-1.7,0.5c-0.9,1.5-1.1,1.6-0.7,0.4c0.3-1.3-0.5-2.1-4.1-4.2c-2.4-1.5-5.7-3.8-7.4-5.3c-2-1.8-3.1-2.4-3.3-1.6
		c-0.2,0.6-0.5,0.5-0.5-0.3c-0.1-1.6-0.9-1.8-2.4-0.5c-0.6,0.5-0.5,0.2,0.3-0.7c1.4-1.6,1.4-1.8,0.2-1.8c-0.7,0-1.2-0.2-0.9-0.6
		c0.2-0.3-1-3.4-2.7-6.8c-1.8-3.8-3.1-5.8-3.5-5.1c-0.2,0.6-0.2,0.3,0-0.6c0.2-1.2,0.1-1.8-0.6-1.8c-0.8,0-0.8-0.2,0.1-0.7
		s0.8-0.9-0.4-1.6c-1.1-0.6-1.2-0.8-0.3-0.9c1,0,1.1-1.3,0.9-8.3c-0.2-7.3-0.4-8.2-1.6-7.8c-1.1,0.4-1,0.2,0.2-1.1
		c1.3-1.5,1.3-1.6-0.9-1.9l-2.2-0.3l2.3-0.2l2.3-0.1l-1.5-1.7c-1.2-1.5-1.3-1.6-0.2-0.7c1.3,1,1.4,0.5,1.4-6.6
		c0-6.8-0.2-7.5-1.3-7.1c-1.2,0.5-1.2,0.4,0.1-1c1.3-1.5,1.3-1.6-1.3-1.9l-2.6-0.3l2.7-0.1c2.7-0.2,2.7-0.2,1.3-1.7
		c-1.3-1.4-1.3-1.6-0.2-1.1c1.2,0.5,1.3-0.4,1.3-8.3c0-8.1-0.1-8.8-1.3-8.2c-1.2,0.4-1.3,0.3-0.5-0.5c1.5-1.5,1.3-2.1-0.7-2.5
		c-1.5-0.2-1.4-0.4,0.5-0.5l2.3-0.1l-1.5-1.7c-1.2-1.5-1.3-1.6-0.2-0.7c1.3,1,1.4,0.5,1.4-6.6c0-6.9-0.2-7.6-1.3-7.1
		c-1.2,0.4-1.3,0.3-0.4-0.5c1.4-1.5,1.2-2.1-1.3-2.5c-1.9-0.3-1.8-0.3,0.5-0.5l2.7-0.1l-1.5-1.7c-1.2-1.5-1.3-1.6-0.1-0.7
		c1.3,1,1.3,0.5,1.3-8.2c0-8.4-0.1-9.2-1.3-8.6c-1.2,0.4-1.3,0.3-0.4-0.5c1.4-1.5,1.2-2.1-0.8-2.5c-1.5-0.2-1.4-0.4,0.5-0.5l2.3-0.1
		l-1.5-1.7c-1.2-1.5-1.3-1.6-0.1-0.7c1.3,1,1.3,0.5,1.3-6.6c0-6.9-0.2-7.6-1.3-7.1c-1.2,0.4-1.3,0.3-0.5-0.5
		c1.5-1.5,1.3-2.1-1.1-2.5c-2-0.3-1.9-0.3,0.5-0.5l2.7-0.1l-1.5-1.7c-1.2-1.5-1.3-1.6-0.1-0.7c1.3,1,1.3,0.5,1.3-8.2
		c0-8.4-0.1-9.2-1.3-8.6c-1.2,0.4-1.3,0.3-0.5-0.5c1.5-1.5,1.3-2.1-0.7-2.5c-1.5-0.2-1.4-0.4,0.5-0.5l2.3-0.1l-1.5-1.7
		c-1.2-1.5-1.3-1.6-0.1-0.7c1.3,1,1.3,0.5,1.3-6.6c0-6.9-0.2-7.6-1.3-7.1c-1.2,0.4-1.3,0.3-0.4-0.5c1.4-1.5,1.2-2.1-1.2-2.5
		c-2-0.3-1.9-0.3,0.5-0.5l2.7-0.1l-1.5-1.7c-1.2-1.5-1.3-1.6-0.1-0.7c1.3,1,1.3,0.5,1.3-8.1c0-5.3-0.3-9.1-0.8-9.1
		c-0.4,0-0.5-0.5-0.3-1.1c0.3-0.7-0.2-1.3-1.4-1.5c-1.6-0.3-1.5-0.3,0.5-0.5l2.3-0.1l-1.5-1.7c-1.2-1.5-1.3-1.6-0.1-0.7
		c1.3,1,1.3,0.5,1.3-6.6c0-6.9-0.2-7.6-1.4-7.1c-1.1,0.4-1.2,0.3-0.4-0.5c1.6-1.6,1.2-2.3-1.1-2.4c-2.2-0.2-2.2-0.2-0.2-0.5
		c1.1-0.2,2.2-0.8,2.5-1.3c0.9-1.3,0.8-18.5-0.2-18.5c-0.4,0-0.5-0.5-0.3-1.1s-0.2-1.3-1-1.5c-1.1-0.3-0.9-0.4,0.5-0.5
		c1.9-0.1,1.9-0.1,0.4-1.8c-1.2-1.5-1.3-1.6-0.2-0.7c1.3,0.9,1.4,0.8,1.4-2.8c0-2.2,0.2-5.7,0.5-7.8c0.5-3.7,0.5-3.8-1-2.7
		s-1.5,1.1,0-0.6c1.1-1.3,1.3-1.7,0.4-1.7c-0.9,0-0.9-0.2,0-0.7c0.5-0.4,0.8-1.1,0.5-1.6s-0.2-0.9,0.1-0.9c0.4,0,1.3-3.1,2-6.8
		c0.7-3.8,1.6-7.8,1.9-8.8c0.4-1.5,0.2-1.7-0.6-1.3c-0.9,0.5-0.9,0.4-0.1-0.5c0.8-0.9,0.6-1.3-0.8-2c-1.7-1-1.7-1,0.5-0.5
		c2,0.5,2.2,0.4,1.7-0.9c-0.3-0.8-0.3-1.2,0-0.9s1.6-2.4,2.8-5.9c2.5-7.5,2.6-8,1.3-7.3c-0.5,0.3-0.4,0,0.4-0.6
		c1.3-1.1,1.3-1.2-0.4-2.4l-1.8-1.3l1.8,0.9c1,0.5,2,0.7,2,0.5c0.2-0.2,2.2-4,4.6-8.6c2.9-5.5,4.1-8.5,3.5-8.8
		c-0.5-0.2-0.3-0.4,0.4-0.4c0.8-0.1,1.6-0.9,1.9-2c0.3-1.1,0.7-1.9,0.9-1.6c0.2,0.2,2.3-2.1,4.6-5.3c3-3.9,3.9-5.7,3.2-6.2
		c-0.6-0.4-0.2-0.6,0.9-0.6c1.9,0,1.9,0,0.4-1.7c-0.8-1-0.9-1.3-0.3-0.8c1.6,1.4,2.4,1.2,2.4-0.8c0-1.5,0.2-1.6,0.5-0.5
		c0.5,1,1.9,0,7.5-5.4c6-5.7,6.8-6.8,5.9-7.9c-0.8-1.1-0.8-1.2,0.2-0.3c1.5,1.3,2.4,1.2,2.4-0.4c0-0.9,0.2-1.1,0.6-0.5
		c0.4,0.6,2.2-0.2,6-2.6c3.1-2,5.4-3.9,5.3-4.3c-0.1-0.4,0.4-0.7,1.1-0.7c0.9,0,1.1-0.5,0.7-1.7c-0.5-1.8-0.5-1.8,0.8-0.2
		c0.9,1.1,1.4,1.3,1.6,0.5c0.2-0.5,0.7-0.8,1.1-0.5c0.3,0.2,3.4-0.8,6.8-2.3c3.5-1.4,6.9-2.8,7.8-3.1c1.3-0.5,1.3-0.7,0.4-1.3
		c-0.9-0.6-0.8-0.7,0.6-0.3c1.3,0.4,1.7,0.2,1.7-0.9c0-0.9,0.2-1.1,0.6-0.5c0.7,1.1,3.5,0.9,11-0.9c3.1-0.8,5.5-1.7,5.3-2.1
		c-0.3-0.4,0.1-0.5,0.7-0.2c0.6,0.2,1.3-0.2,1.5-1c0.3-1.3,0.4-1.3,0.5,0c0,0.7,0.3,1.3,0.5,1.3c0.3,0,1-0.6,1.6-1.3
		c1-1.3,1.1-1.3,0.6,0.1c-0.5,1.2-0.2,1.3,0.9,1c0.8-0.2,4.3-0.7,7.8-0.9c9.3-0.7,9.8-0.9,9.8-3.3c0-2,0.1-2,1.2-0.5
		c1,1.3,1.1,0.8,1.2-5.7c0-4.9-0.3-7.3-0.9-7.3c-0.6,0-0.6-0.3,0-1.1c0.8-0.9,0.5-1.2-1.3-1.5l-2.2-0.3l2.2-0.2
		c2.4-0.1,2.7-0.8,1.2-2.4c-0.8-0.9-0.8-1,0-0.5c0.7,0.5,0.9-1.4,0.9-8.2s-0.2-8.6-0.9-8.2c-0.8,0.5-0.8,0.3,0-0.5
		c1.4-1.5,1.2-2.1-0.8-2.5c-1.8-0.3-1.8-0.3,0.1-0.5c1.6-0.1,1.7-0.2,0.8-1.4c-0.8-0.9-0.8-1.1-0.2-0.7c0.8,0.4,1-1.2,1-7
		s-0.2-7.5-0.9-7c-0.8,0.5-0.8,0.3,0-0.5c1.4-1.5,1.2-2.1-0.9-2.5c-1.7-0.3-1.7-0.3,0.2-0.5c1.6-0.1,1.7-0.2,0.8-1.4
		c-0.8-0.9-0.8-1.1-0.1-0.7c0.7,0.5,0.9-1.5,0.9-8.6s-0.2-9-0.9-8.6c-0.8,0.5-0.8,0.3,0-0.6c0.9-1.1,0.8-1.3-0.8-1.6l-1.8-0.3
		l1.8-0.2c2-0.1,2.2-0.9,0.7-2.4c-0.7-0.9-0.7-1,0-0.5c0.8,0.5,1-1.2,1-7s-0.2-7.4-0.9-7c-0.8,0.5-0.8,0.3,0-0.6
		c0.9-1.1,0.8-1.3-1.2-1.6l-2.2-0.3l2.2-0.2c2.4-0.1,2.7-0.8,1.1-2.4c-0.7-0.9-0.7-1,0-0.5c0.8,0.5,1-1.4,1-8.2s-0.2-8.6-0.9-8.2
		c-0.8,0.5-0.8,0.3,0-0.5c1.4-1.6,1.2-2.1-1.2-2.5l-2.2-0.3l2.3-0.2c1.9-0.1,2.1-0.2,1.3-1.3c-0.7-0.8-0.7-1.2-0.1-1.2
		c0.5,0,0.9-2.4,0.9-7.1c0-5.4-0.2-7-0.9-6.5c-0.8,0.5-0.8,0.3,0-0.5c1.4-1.5,1.2-2.1-0.8-2.5c-1.8-0.3-1.8-0.3,0.1-0.5
		c1.6-0.1,1.7-0.2,0.8-1.4c-0.8-0.9-0.8-1.1-0.2-0.7c0.8,0.4,1-0.8,1-4.9v-5.6h50.3h50.3v5.6c0,4.2,0.2,5.3,1,4.9
		c0.7-0.5,0.7-0.3-0.1,0.6c-0.9,1.1-0.8,1.3,0.8,1.6l1.8,0.3l-1.7,0.2c-2,0.1-2.3,0.9-0.8,2.4c0.8,0.9,0.8,1,0,0.5s-1,1.1-1,6.5
		c0,4.8,0.3,7.1,0.9,7.1c0.6,0,0.6,0.3,0,1.1c-0.8,0.9-0.5,1.2,1.3,1.5l2.2,0.3l-2.1,0.2c-2.4,0.1-2.7,0.8-1.2,2.4
		c0.8,0.9,0.8,1-0.1,0.5c-0.7-0.5-0.9,1.4-0.9,8.2s0.2,8.6,1,8.2c0.8-0.5,0.8-0.3,0,0.5c-1.5,1.6-1.3,2.1,1.2,2.5l2.1,0.3l-2.3,0.2
		c-2,0.1-2.1,0.2-1.2,1.4c0.8,0.9,0.8,1.1,0.2,0.7c-0.8-0.4-1,1.2-1,7s0.2,7.5,1,7s0.8-0.3,0,0.5c-1.5,1.5-1.3,2.1,0.8,2.5
		c1.7,0.3,1.7,0.3-0.2,0.5c-1.6,0.1-1.7,0.2-0.8,1.4c0.8,0.9,0.8,1.1,0.2,0.7c-0.8-0.5-1,1.5-1,8.6s0.2,9,1,8.6
		c0.7-0.5,0.7-0.3-0.1,0.6c-0.9,1.1-0.8,1.3,0.8,1.6l1.8,0.3l-1.7,0.2c-2,0.1-2.3,0.9-0.9,2.4c0.9,0.9,0.9,1,0,0.5
		c-0.7-0.5-0.9,1.2-0.9,7s0.2,7.4,1,7c0.7-0.5,0.7-0.3-0.1,0.6c-0.9,1.1-0.8,1.3,0.8,1.6l1.8,0.3l-1.7,0.2c-2,0.1-2.3,0.9-0.9,2.4
		c0.8,0.9,0.8,1,0.1,0.5c-0.8-0.5-1,1.4-1,8.2s0.2,8.6,1,8.2c0.8-0.5,0.8-0.3,0,0.5c-1.5,1.6-1.3,2.1,1.2,2.5l2.1,0.3l-2.3,0.2
		c-1.9,0.1-2.1,0.2-1.3,1.3c0.7,0.8,0.7,1.2,0.1,1.2c-0.5,0-0.9,2.4-0.9,7.1c0,5.4,0.2,7,1,6.5s0.8-0.3,0,0.5
		c-1.5,1.6-1.3,2.1,1.2,2.5l2.1,0.3l-2.3,0.2c-2,0.1-2.1,0.2-1.2,1.4c0.8,0.9,0.8,1.1,0.2,0.7c-0.8-0.5-1,1.5-1,8.6
		c0,8.6,0.1,9.1,1.4,8.1c1.1-0.9,1-0.8-0.2,0.7c-1.1,1.3-1.3,1.7-0.4,1.7c0.9,0,0.9,0.2-0.1,0.8c-0.9,0.5-0.9,0.9,0.4,2.5
		c1.2,1.3,1.3,1.6,0.2,0.7c-1.3-1-1.4-0.5-1.4,6.5c0,5.9,0.2,7.5,1,7.1c0.7-0.5,0.7-0.3-0.1,0.6c-0.9,1.1-0.8,1.3,0.8,1.6l1.8,0.3
		l-1.7,0.2c-2,0.1-2.3,0.9-0.9,2.4c0.8,0.9,0.8,1,0.1,0.5c-0.8-0.5-1,1.4-1,8.1c0,6,0.3,8.7,0.9,8.7c0.6,0,0.6,0.3,0,1.1
		c-0.8,0.9-0.5,1.2,1.3,1.5l2.2,0.3l-2.3,0.2c-1.9,0.1-2.1,0.2-1.3,1.3c0.7,0.8,0.7,1.2,0.1,1.2c-0.5,0-0.9,2.4-0.9,7.1
		c0,5.4,0.2,7,1,6.5s0.8-0.3,0,0.5c-1.5,1.6-1.3,2.1,1.2,2.5l2.1,0.3l-2.3,0.2c-1.9,0.1-2.1,0.2-1.3,1.3c0.7,0.8,0.7,1.2,0.1,1.2
		c-0.5,0-0.9,2.8-0.9,8.7c0,8.2,0.1,8.7,1.4,7.7c1.2-0.9,1.2-0.9-0.1,0.6c-1.4,1.6-1.4,1.7,0,2.5c1.3,0.8,1.3,0.8-0.1,0.9
		c-1.5,0-1.5,0,0,1.7c1.2,1.5,1.3,1.6,0.1,0.7c-1.3-1-1.3-0.5-1.3,6.7c0.1,7,0.2,7.6,1.2,6.3c1.1-1.5,1.2-1.5,1.2,0.5
		c0,2.3,0.7,2.7,2.3,1.1c0.8-0.8,0.9-0.7,0.5,0.5c-0.5,1.2,0,1.3,3.6,1.4c2.4,0,6.1,0.3,8.4,0.6c3.5,0.5,4.1,0.4,3.7-0.6
		c-0.4-0.9-0.1-0.9,1.1,0.2c1.4,1.3,1.5,1.3,1.9-0.1c0.3-1.3,0.4-1.3,0.5,0.1c0.1,0.9,0.5,1.3,1.3,0.9c0.6-0.2,1-0.2,0.8,0.2
		s2.4,1.3,5.7,2c3.3,0.8,6.5,1.6,7.1,1.8c0.8,0.3,0.9,0.1,0.6-1c-0.5-1.4-0.5-1.4,0.6,0c1.3,1.6,1.3,1.6,2.7-0.7
		c0.8-1.4,0.9-1.3,0.4,0.7s-0.4,2.2,1.3,1.6c1.4-0.4,1.6-0.3,0.7,0.3c-0.9,0.6-0.9,0.9,0.4,1.3c0.9,0.2,4.4,1.7,7.9,3.1
		c4,1.7,6.4,2.4,6.8,1.8c0.3-0.5,0.7-0.2,1,0.6c0.5,1.3,0.7,1.3,2.1-0.5c1.3-1.6,1.5-1.7,0.8-0.2c-1.2,2.3-1.1,2.6,0.5,2.6
		c0.7,0,1.1,0.2,0.8,0.5c-0.2,0.3,2,2.2,5.2,4.2c3.7,2.4,5.9,3.4,6.2,2.8c0.4-0.5,0.6-0.3,0.6,0.5c0,0.7,0.2,1.3,0.5,1.3
		c0.2,0,1.3-0.6,2.1-1.3c1.6-1.4,1.6-1.4,0.2,0.3c-1.5,1.7-1.5,1.8,2.4,5.1c2.1,1.9,5.3,4.8,7.2,6.6c1.8,1.8,3.3,3.1,3.3,2.7
		c0-0.2,0.3,0,0.7,0.6c0.5,0.9,1,0.9,2.5,0.1c1.9-1,1.9-1,0.4,0.7c-1.5,1.6-1.5,1.6,0,1.6c0.9,0,1.2,0.2,0.5,0.6
		c-0.6,0.4,0.2,2,2.7,5.3c6.5,8.7,6.4,8.6,7.5,7.6c0.5-0.5,1.3-0.9,1.6-0.9c0.4,0-0.1,0.7-1.1,1.6c-1.8,1.4-1.8,1.5-0.3,1.6
		c0.9,0,1.3,0.2,0.7,0.6c-0.5,0.3,0.6,3.3,3.2,8.2c2.2,4.2,4.3,7.4,4.7,7.1c0.3-0.4,0.4,0,0.2,0.8c-0.5,1.2-0.2,1.3,1.3,0.9
		c1.5-0.4,1.6-0.3,0.5,0.5c-1.2,0.9-1,1.7,1.1,8.5c1.3,4.1,2.7,7.6,3.1,7.7c0.4,0.2,0.5,0.6,0.2,1c-0.2,0.4,0.4,0.8,1.4,0.8
		c1.3,0.1,1.4,0.2,0.5,0.5c-0.8,0.2-1.4,0.5-1.4,0.8s0.6,0.9,1.4,1.5c1.1,0.9,1.1,1,0.1,0.7c-1.1-0.4-1,0.6,0.5,8.8
		c1,5.1,1.9,9.3,1.9,9.4c0,0.1,0.8,0.3,1.8,0.5l1.7,0.3l-1.7,0.2c-2.2,0.1-2.3,0.7-0.4,2.1c1.1,0.9,1.2,1,0.1,0.6
		c-1.2-0.4-1.3,0.3-0.9,6.5c0.2,3.8,0.7,7,1.1,7.1c0.3,0.2,0.5,0.7,0.2,1.3c-0.3,0.7,0.3,1.2,1.8,1.4c2,0.3,2,0.3-0.5,0.5l-2.7,0.1
		l1.5,1.7c1.2,1.5,1.3,1.6,0.2,0.7c-1.3-1-1.4-0.5-1.4,8.2c0,8.4,0.1,9.2,1.4,8.6c1.1-0.4,1.2-0.3,0.4,0.5c-1.5,1.5-1.3,2.1,0.8,2.5
		c1.4,0.2,1.3,0.4-0.5,0.5l-2.3,0.1l1.5,1.7c1.2,1.5,1.3,1.6,0.2,0.7c-1.3-1-1.4-0.5-1.4,6.6c0,6.8,0.2,7.5,1.3,7.1
		c1.2-0.5,1.2-0.4-0.1,1c-1.3,1.5-1.3,1.6,1.3,1.9l2.6,0.3l-2.7,0.1c-2.7,0.2-2.7,0.2-1.3,1.7c1.3,1.4,1.3,1.6,0.2,1.1
		c-1.2-0.5-1.3,0.4-1.3,8.3c0,8.1,0.1,8.8,1.4,8.2c1.1-0.4,1.2-0.3,0.4,0.5c-1.5,1.5-1.3,2.1,0.8,2.5c1.4,0.2,1.3,0.4-0.5,0.5
		c-2.3,0.1-2.3,0.1-0.9,1.6c1.3,1.4,1.3,1.6,0.2,1.1c-1.2-0.4-1.3,0.3-1.3,6.8c0,6.4,0.2,7.1,1.3,6.8c1.2-0.5,1.2-0.4-0.1,1
		c-1.3,1.5-1.3,1.6,0.9,1.9l2.2,0.3l-2.3,0.2c-2.3,0.1-2.3,0.1-0.9,1.6c1.3,1.4,1.3,1.6,0.2,1.1c-1.2-0.5-1.3,0.4-1.3,8.3
		s0.2,8.8,1.3,8.3c1.2-0.5,1.2-0.4-0.1,1c-1.3,1.5-1.3,1.6,1.3,1.9l2.6,0.3l-2.7,0.1c-2.7,0.2-2.7,0.2-1.3,1.7
		c1.3,1.4,1.3,1.6,0.2,1.1c-1.2-0.4-1.3,0.3-1.3,7.1c0,7.1,0.1,7.6,1.4,6.6c1.2-0.9,1.2-0.9-0.1,0.6c-1.5,1.6-1.4,1.7,0.8,2l2.2,0.3
		l-2.3,0.2c-2.3,0.1-2.3,0.1-0.9,1.6c1.3,1.4,1.3,1.6,0.2,1.1c-1.2-0.5-1.3,0.4-1.3,8.7c0,8.6,0.1,9.2,1.4,8.2
		c1.1-0.9,1-0.8-0.2,0.7l-1.5,1.7l2.7,0.1c2.4,0.2,2.4,0.2,0.5,0.5c-2.4,0.4-2.7,1-1.2,2.5c0.8,0.8,0.7,0.9-0.4,0.5
		c-1.3-0.5-1.4,0.2-1.4,7.1c0,7.1,0.1,7.6,1.4,6.6c1.1-0.9,1-0.8-0.2,0.7l-1.5,1.7l2.3,0.1c2,0.2,2,0.2,0.5,0.5
		c-1.2,0.2-1.7,0.8-1.4,1.5c0.2,0.6,0.1,1.1-0.3,1.1c-0.5,0-0.8,3.8-0.8,9.1c0,8.6,0.1,9.1,1.4,8.1c1.1-0.9,1-0.8-0.2,0.7l-1.5,1.7
		l2.3,0.1c2,0.2,2,0.2,0.5,0.5c-1.2,0.2-1.7,0.8-1.4,1.5c0.2,0.6,0.1,1.1-0.3,1.1c-0.9,0-1,14.1-0.2,15.4c0.3,0.5,1.1,1.1,1.7,1.3
		c0.9,0.3,0.9,0.5-0.3,0.5c-0.9,0.1-1.3,0.5-0.9,1.3c0.2,0.6,0.1,1.2-0.3,1.2c-0.9,0-1.1,17.2-0.2,18.5c0.3,0.5,1.1,1.1,1.7,1.3
		c0.9,0.3,0.9,0.5-0.3,0.5c-0.9,0.1-1.3,0.5-0.9,1.3c0.2,0.6,0.1,1.2-0.3,1.2c-0.5,0-0.8,3.2-0.8,7.5c0,7.1,0.1,7.5,1.4,6.5
		c1.1-0.9,1.2-0.9,0.4,0.1c-0.5,0.6-1,2-1,3.1s0.5,2.5,1,3.1c0.8,0.9,0.7,0.9-0.4,0.1c-1.3-1-1.4-0.5-1.4,8.1c0,5.9,0.3,9,0.8,8.7
		c0.5-0.2,0.5,0.1,0.3,0.7c-0.3,0.7-0.1,1.3,0.5,1.3c0.8,0,0.8,0.2,0,1.2c-0.5,0.6-0.6,1.6-0.3,2c0.3,0.6,0.2,0.7-0.3,0.4
		c-0.7-0.4-0.9,1.5-0.9,6.9c0,4.3,0.3,7.5,0.8,7.5c0.4,0,0.5,0.5,0.3,1.1s0.2,1.3,1,1.5c1.3,0.3,1.3,0.4,0.1,0.5
		c-1.7,0.1-2.1,1.9-2.4,11.3c-0.2,6.4-0.1,7.5,0.9,7.2c0.9-0.3,0.8,0-0.2,1.1c-1.3,1.5-1.3,1.6,0.5,1.9l1.8,0.3l-1.9,0.2
		c-1.3,0.1-1.6,0.4-1.3,1.3c0.2,0.6,0.1,1.1-0.3,0.9c-0.4-0.1-2,2.4-3.5,5.6c-2.4,4.9-2.6,5.7-1.4,5.7c0.8,0.1,0.5,0.3-0.6,0.6
		s-2.4,1.4-2.9,2.4c-0.5,1.1-1,1.6-1,1.3s-1.5,0.5-3.3,2c-1.9,1.5-4.9,3.6-6.8,4.7c-1.8,1-3.1,2.2-2.7,2.6c0.4,0.3,0,0.4-0.7,0.2
		c-1-0.3-1.4-0.1-1.5,0.9c0,0.9-0.2,1-0.5,0.3c-0.3-0.8-0.7-0.7-1.9,0.3c-1.4,1.3-1.5,1.3-1,0.1c0.4-1.2,0.2-1.3-1.5-0.6
		c-1.1,0.5-4.5,0.9-7.5,0.9c-3.5,0.1-5.6,0.5-5.6,1s-0.3,0.4-0.7-0.2c-0.6-1-0.9-1-2.1,0c-0.8,0.6-1.2,0.7-0.9,0.2s-1.3-1.6-4.4-2.7
		c-2.7-0.9-6-2.4-7.4-3.2c-1.9-1.2-2.5-1.3-2.8-0.5c-0.3,0.6-0.5,0.5-0.5-0.3c-0.1-0.8-0.9-1.6-2-1.9c-1-0.2-1.8-0.7-1.7-1
		c0.3-1-7.5-10.2-8.3-9.7c-0.5,0.3-0.6,0-0.3-0.9c0.5-1.3,0.2-1.3-1.6-0.9c-2.1,0.5-2.1,0.5-0.6-0.7c1.3-1.1,1.4-1.3,0.4-2
		c-0.6-0.4-0.8-0.8-0.3-0.8c0.6,0,0.5-1.5-0.5-4.8c-0.8-2.6-1.5-6.2-1.5-7.9c0-2.7-0.2-3.1-1.3-2.6c-1.2,0.4-1.3,0.3-0.4-0.5
		c1.4-1.5,1.2-2.3-0.8-2.4c-1.6-0.1-1.6-0.2-0.2-0.5c2.4-0.6,2.7-1.6,2.7-9.6c0-6.7-0.2-7.3-1.3-6.8c-1.2,0.4-1.3,0.3-0.4-0.5
		c1.4-1.5,1.2-2.1-0.8-2.5c-1.5-0.2-1.4-0.4,0.5-0.5l2.3-0.1l-1.5-1.7c-1.2-1.5-1.3-1.6-0.1-0.7c1.3,1,1.3,0.5,1.3-8.2
		c0-8.4-0.1-9.2-1.3-8.6c-1.2,0.4-1.3,0.3-0.4-0.5c1.5-1.6,1.1-2.3-1.2-2.4c-2.2-0.2-2.2-0.2-0.2-0.5c1.1-0.2,2.2-0.8,2.5-1.3
		s0.6-4.2,0.6-8.2c0-6.7-0.2-7.3-1.3-6.8c-1.2,0.4-1.3,0.3-0.4-0.5c1.4-1.5,1.2-2.1-1.2-2.5c-2-0.3-1.9-0.3,0.5-0.5
		c2.7-0.1,2.7-0.1,1.3-1.6c-1.3-1.4-1.3-1.6-0.2-1.1c1.2,0.5,1.3-0.4,1.3-8.3c0-8.1-0.1-8.8-1.3-8.2c-1.2,0.4-1.3,0.3-0.4-0.5
		c1.4-1.5,1.2-2.1-1.2-2.5l-2.2-0.3l2.2-0.2c2.3-0.1,2.7-0.8,1.2-2.4c-0.9-0.8-0.8-0.9,0.4-0.5c1.2,0.5,1.3-0.1,1.3-6.7
		s-0.2-7.2-1.3-6.7c-1.2,0.4-1.3,0.3-0.4-0.5c1.4-1.5,1.2-2.1-1.2-2.5l-2.2-0.3l2.2-0.2c2.3-0.1,2.7-0.8,1.2-2.4
		c-0.9-0.8-0.8-0.9,0.4-0.5c1.3,0.5,1.3-0.2,1.3-8.2c0-7.9-0.2-8.8-1.3-8.3c-1.2,0.5-1.2,0.3,0.2-1.1c1.4-1.6,1.4-1.6-0.9-1.6
		c-1.9-0.1-2-0.2-0.5-0.5c2-0.4,2.2-1,0.8-2.5c-0.9-0.8-0.8-0.9,0.4-0.5c1.2,0.5,1.3-0.1,1.3-6.8c0-4.1-0.3-7.8-0.6-8.2
		c-0.3-0.5-1.4-1.1-2.5-1.3c-2-0.3-2-0.3,0.2-0.5c2.3-0.1,2.7-0.8,1.2-2.4c-0.9-0.8-0.8-0.9,0.4-0.5c1.3,0.5,1.3-0.2,1.3-8.6
		c0-8.6-0.1-9.2-1.3-8.2c-1.2,0.9-1.1,0.8,0.1-0.7l1.5-1.7l-2.3-0.1c-1.9-0.1-2-0.2-0.5-0.5c2-0.4,2.2-1,0.8-2.5
		c-0.9-0.8-0.8-0.9,0.4-0.5c1.2,0.5,1.3-0.1,1.3-6.8c0-7.9-0.3-9-2.7-9.6c-1.4-0.3-1.4-0.4,0.2-0.5c2-0.1,2.2-0.9,0.8-2.4
		c-0.9-0.8-0.8-0.9,0.4-0.5c1.3,0.5,1.3-0.2,1.3-8.3c0-9.5-0.2-10.5-2.7-11.2c-1.4-0.3-1.4-0.4,0.2-0.5c2-0.1,2.2-0.9,0.8-2.4
		c-0.9-0.8-0.8-0.9,0.4-0.5c1.2,0.5,1.3-0.2,1.3-7c0-4.8-0.3-7.5-0.9-7.5c-0.4,0-0.5-0.3-0.3-0.8c0.2-0.4,0.1-0.8-0.5-0.8
		s-0.7-0.3,0-1c0.6-0.8,0.5-1.3-0.2-2c-0.7-0.8-0.6-0.9,0.5-0.4c1.3,0.5,1.5,0.3,1-2.5c-0.3-1.6-0.5-5.8-0.5-9.3
		c0-5.7-0.1-6.1-1.3-5.1c-1.3,1-1.3,1-0.1-0.5c1.1-1.3,1.2-1.8,0.5-2.5s-0.7-0.9,0.1-0.9c0.9,0,0.9-0.2,0-1.3s-0.9-1.3,0-0.6
		c0.9,0.5,1-0.2,0.6-4.8c-0.3-3-0.5-6.4-0.5-7.6c0-1.3-0.3-2-0.8-1.7s-0.5-0.1-0.2-0.8c0.2-0.8,0-1.6-0.6-2c-0.9-0.5-0.9-0.7,0-0.7
		c0.5,0,0.9-0.5,0.5-1.2c-0.2-0.6-0.2-1.2,0.2-1.2s0.3-2.7,0-6c-0.2-3.4-0.5-7.3-0.5-8.8c-0.1-2.1-0.3-2.5-1.4-2
		c-1.2,0.4-1.3,0.3-0.4-0.5c1.3-1.4,1.2-2.1-0.4-2.5c-1.3-0.3-1.3-0.4,0.1-0.5c1.2-0.1,1.3-0.3,0.5-1.3c-0.5-0.6-0.6-1.2-0.2-1.2
		c0.5,0,0.3-2.9-0.4-7.1c-1-6-1.4-7.1-2.4-6.7c-1,0.4-1.1,0.3-0.2-0.5c1.6-1.7,1-2.4-1.6-2c-2.4,0.5-2.4,0.4-0.6-0.3
		c2.7-1.2,2.8-1.4,1.1-2.7c-1.3-1-1.3-1.1-0.1-0.7c1.6,0.6,1.6-0.2-1.6-10.2c-2.1-6.8-3.3-8.6-5.5-7.9c-1.3,0.4-1.3,0.3,0.2-0.9
		c1.3-1,1.3-1.3,0.5-1.9c-0.6-0.5-0.7-0.8-0.2-0.9c2-0.7-8.8-15.6-11.5-15.6c-0.5,0-0.8-0.5-0.6-0.9c0.5-1.3-6.1-5.7-11.3-7.8
		c-4.7-1.7-5.9-1.9-5.1-0.5c0.5,0.7,0.3,0.7-0.5-0.1c-1.5-1.4-2.1-1.2-2.5,0.9c-0.3,1.4-0.3,1.3-0.5-0.5c-0.2-3.8-1.6-1.4-1.6,2.7
		c0,3.7,0.1,3.8,1.4,2.9c1.3-1,1.3-1,0,0.5c-1.1,1.3-1.2,1.8-0.5,2.5s0.7,0.9-0.2,0.9c-0.7,0-0.6,0.5,0.5,1.7
		c1.2,1.5,1.3,1.6,0.1,0.7c-1.3-1-1.3-0.5-1.3,8.1c0,7.1,0.2,9.1,1,8.6c0.7-0.5,0.7-0.3-0.1,0.6c-0.9,1.1-0.8,1.3,0.8,1.6l1.8,0.3
		l-1.7,0.2c-2,0.1-2.3,0.9-0.8,2.4c0.8,0.9,0.8,1,0,0.5s-1,1.1-1,6.5c0,4.8,0.3,7.1,0.9,7.1c0.6,0,0.6,0.3,0,1.1
		c-0.8,0.9-0.5,1.2,1.6,1.5l2.6,0.3l-2.5,0.1c-2.7,0.2-3.1,0.8-1.6,2.4c0.8,0.9,0.8,1,0,0.5s-1,1.4-1,8.2s0.2,8.6,1,8.2
		c0.8-0.5,0.8-0.3,0,0.5c-1.5,1.6-1.3,2.1,1.2,2.5l2.1,0.3l-2.3,0.2c-2,0.1-2.1,0.2-1.2,1.4c0.8,0.9,0.8,1.1,0.2,0.7
		c-0.8-0.4-1,1.2-1,7s0.2,7.5,1,7s0.8-0.3,0,0.5c-1.5,1.5-1.3,2.1,0.8,2.5c1.7,0.3,1.7,0.3-0.2,0.5c-1.6,0.1-1.7,0.2-0.8,1.4
		c0.8,0.9,0.8,1.1,0.2,0.7c-0.8-0.5-1,1.5-1,8.6s0.2,9,1,8.6c0.7-0.5,0.7-0.3-0.1,0.6c-0.9,1.1-0.8,1.3,0.8,1.6l1.8,0.3l-1.7,0.2
		c-2,0.1-2.3,0.9-0.8,2.4c0.8,0.9,0.8,1,0,0.5s-1,1.2-1,7s0.2,7.4,1,7c0.7-0.5,0.7-0.3-0.1,0.6c-0.9,1.1-0.8,1.3,0.8,1.6l1.8,0.3
		l-1.7,0.2c-2,0.1-2.3,0.9-0.8,2.4c0.7,0.9,0.7,1,0,0.5c-0.8-0.5-1,1.4-1,8.2s0.2,8.6,1,8.2c0.8-0.5,0.8-0.3,0,0.5
		c-1.5,1.6-1.3,2.1,1.2,2.5l2.1,0.3l-2.3,0.2c-1.9,0.1-2.1,0.2-1.3,1.3c0.7,0.8,0.7,1.2,0.1,1.2c-0.5,0-0.9,2.4-0.9,7.1
		c0,5.4,0.2,7,1,6.5s0.8-0.3,0,0.5c-1.5,1.6-1.3,2.1,1.2,2.5l2.1,0.3l-2.3,0.2c-2,0.1-2.1,0.2-1.2,1.4c0.8,0.9,0.8,1.1,0.2,0.7
		c-0.8-0.5-1,1.5-1,8.6c0,8.6,0.1,9.1,1.4,8.1c1.1-0.9,1-0.8-0.2,0.7c-1.1,1.3-1.3,1.7-0.4,1.7c0.9,0,0.9,0.2-0.1,0.8
		c-0.9,0.5-0.9,0.9,0.4,2.5c1.2,1.3,1.3,1.6,0.2,0.7c-1.3-1-1.4-0.5-1.4,6.5c0,5.9,0.2,7.5,1,7.1c0.7-0.5,0.7-0.3-0.1,0.6
		c-0.9,1.1-0.8,1.3,0.8,1.6l1.8,0.3l-1.7,0.2c-2,0.1-2.3,0.9-0.8,2.4c0.8,0.9,0.8,1,0,0.5s-1,1.4-1,8.1c0,6,0.3,8.7,0.9,8.7
		c0.6,0,0.6,0.4-0.1,1.2c-0.9,1-0.6,1.2,1.3,1.3l2.3,0.1l-2,0.5c-2,0.5-2,0.6-2.2,8.6c-0.2,6.6,0,8,0.9,7.5c0.8-0.5,0.9-0.4,0.1,0.5
		c-1.5,1.6-1.3,2.1,1.2,2.5l2.1,0.3l-2.3,0.2c-1.9,0.1-2.1,0.2-1.3,1.3c0.7,0.8,0.7,1.2,0.1,1.2c-0.5,0-0.9,2.8-0.9,8.7
		c0,8.2,0.1,8.7,1.4,7.7c1.3-1,1.3-1,0,0.5c-0.8,0.9-1.4,1.8-1.4,2.1c0,0.2,0.6,0.6,1.4,0.8c1.2,0.3,1.2,0.4-0.2,0.5
		c-1.5,0.1-1.5,0.1,0,1.8c1.2,1.5,1.3,1.6,0.2,0.7c-1.3-1-1.4-0.5-1.4,6.6s0.1,7.6,1.4,6.6c1.1-0.9,1-0.8-0.2,0.7
		c-1.1,1.3-1.3,1.7-0.4,1.7c0.9,0,0.9,0.2-0.1,0.8c-0.9,0.5-0.9,0.9,0.4,2.5c1.2,1.3,1.3,1.6,0.2,0.7c-1.3-1-1.4-0.5-1.4,7.7
		c0,5.9,0.3,8.7,0.9,8.7c0.6,0,0.6,0.3,0,1.1c-0.8,0.9-0.5,1.2,1.6,1.5l2.6,0.3l-2.5,0.1c-2.7,0.2-3.1,0.8-1.6,2.4
		c0.8,0.9,0.7,0.9-0.1,0.5c-0.9-0.5-1,0.9-0.9,7.5c0.2,8,0.2,8.2,2.2,8.6l2,0.5l-2.3,0.1c-1.9,0.1-2.1,0.2-1.3,1.3
		c0.7,0.8,0.7,1.2,0.1,1.2c-0.5,0-0.9,2.7-0.9,8.7c0,6.7,0.2,8.6,1,8.1s0.8-0.3,0,0.5c-1.5,1.5-1.3,2.1,0.8,2.5
		c1.7,0.3,1.7,0.3-0.2,0.5c-1.6,0.1-1.7,0.2-0.8,1.4c0.8,0.9,0.8,1.1,0.2,0.7c-0.8-0.4-1,1.2-1,7.1c0,7.1,0.1,7.5,1.4,6.5
		c1.3-1,1.3-1,0,0.5c-1.1,1.3-1.2,1.8-0.5,2.5s0.7,0.9-0.2,0.9c-0.7,0-0.6,0.5,0.5,1.7c1.2,1.5,1.3,1.6,0.2,0.7
		c-1.3-1-1.4-0.5-1.4,8.1c0,7.1,0.2,9.1,1,8.6c0.7-0.5,0.7-0.3-0.1,0.6c-0.9,1.1-0.8,1.3,0.8,1.6l1.8,0.3l-1.7,0.2
		c-2,0.1-2.3,0.9-0.8,2.4c0.8,0.9,0.8,1,0,0.5s-1,1.1-1,6.5c0,4.8,0.3,7.1,0.9,7.1c0.6,0,0.6,0.3,0,1.1c-0.8,0.9-0.5,1.2,1.6,1.5
		l2.6,0.3l-2.5,0.1c-2.7,0.2-3.1,0.8-1.6,2.4c0.8,0.9,0.8,1,0,0.5s-1,1.4-1,8.2s0.2,8.6,1,8.2c0.8-0.5,0.8-0.3,0,0.5
		c-1.6,1.6-1.3,2.1,1.6,2.5l2.5,0.3l-2.7,0.1c-2.4,0.2-2.5,0.3-1.6,1.5c0.8,0.9,0.8,1.1,0.2,0.7c-0.8-0.4-1,1.2-1,7s0.2,7.5,1,7
		s0.8-0.3,0,0.5c-1.5,1.5-1.3,2.1,0.8,2.5c1.7,0.3,1.7,0.3-0.2,0.5c-1.6,0.1-1.7,0.2-0.8,1.4c0.8,0.9,0.8,1.1,0.2,0.7
		c-0.8-0.5-1,1.5-1,8.6s0.2,9,1,8.6c0.7-0.5,0.7-0.3-0.1,0.6c-0.9,1.1-0.8,1.3,0.4,1.6c1.3,0.3,1.3,0.4,0.1,0.5
		c-1.6,0.1-1.8,0.9-0.4,2.4c0.8,0.9,0.8,1,0,0.5s-1,1.2-1,7s0.2,7.4,1,7c0.7-0.5,0.7-0.3-0.1,0.6c-0.9,1.1-0.8,1.3,0.8,1.6l1.8,0.3
		l-1.7,0.2c-2,0.1-2.3,0.9-0.8,2.4c0.8,0.9,0.8,1,0,0.5s-1,1.4-1,8.2s0.2,8.6,1,8.2c0.8-0.5,0.8-0.3,0,0.5c-1.5,1.6-1.3,2.1,1.2,2.5
		l2.1,0.3l-2.3,0.2c-1.9,0.1-2.1,0.2-1.3,1.3c0.7,0.8,0.7,1.2,0.1,1.2c-0.5,0-0.9,2.4-0.9,7.1c0,5.4,0.2,7,1,6.5s0.8-0.3,0,0.5
		c-1.5,1.6-1.3,2.1,1.2,2.5l2.1,0.3l-2.3,0.2c-2,0.1-2.1,0.2-1.2,1.4c0.8,0.9,0.8,1.1,0.2,0.7c-0.8-0.5-1,1.5-1,8.6
		c0,8.6,0.1,9.1,1.4,8.1c1.1-0.9,1-0.8-0.2,0.7c-1.1,1.3-1.2,1.7-0.5,1.7c0.9,0,0.9,0.2,0.2,0.9s-0.6,1.3,0.5,2.5
		c1.2,1.4,1.2,1.5,0,0.6s-1.3-0.5-1.6,6.1c-0.2,5.9-0.1,7,0.9,6.7c0.8-0.3,0.7,0.1-0.3,1.2c-1.4,1.6-1.4,1.6,0.5,1.6l1.9,0.1l-2,0.6
		c-1.1,0.3-1.6,0.7-1.2,0.7c0.5,0.1,0.5,0.3,0,0.7c-0.5,0.3-1.3,2.1-1.9,4s-2.2,6-3.7,9c-1.5,3.1-2.7,6-2.7,6.8s-0.2,0.9-0.4,0.3
		s-2.4,1-5.3,3.9c-6.5,6.5-10.4,8.8-19.5,11.3c-2.5,0.7-4.6,1.6-4.6,1.9c0,0.4-0.5,0.5-1.1,0.2c-0.8-0.3-0.9,0.2-0.8,1.8
		c0.3,2-0.1,1.6-0.9-1.3c-0.3-0.9-0.5-0.9-1.6,0c-0.9,0.8-1.1,0.8-0.7,0.2c0.4-0.8-1.1-1-6.6-1s-7,0.2-6.6,1
		c0.4,0.6,0.2,0.6-0.7-0.2c-1.1-0.9-1.3-0.9-1.6,0C799.1,12800.3,798.7,12800.8,799,12798.8z"/>
	<path class="st0" d="M838.3,12791c-0.3-0.5-0.4-0.9-0.2-1.2c0.2-0.2,0.5,0.2,0.8,0.9C839.5,12792.1,839,12792.3,838.3,12791z"/>
	<path class="st0" d="M922,12563.6c0.5-0.9,1.2-1.6,1.4-1.3c0.2,0.2-0.2,0.9-1,1.7C921.1,12565.2,921,12565.2,922,12563.6z"/>
	<path class="st0" d="M979.6,12556.7c-0.8-0.6-1.1-1.2-0.6-1.2s1.3,0.5,1.9,1.2C982.1,12558.2,981.6,12558.2,979.6,12556.7z"/>
	<path class="st0" d="M704.4,12343.5c0-0.4,0.4-0.8,0.8-0.8c0.5,0,0.8,0.4,0.8,0.8c0,0.5-0.3,0.8-0.8,0.8
		C704.8,12344.2,704.4,12343.9,704.4,12343.5z"/>
	<path class="st0" d="M880.7,12171.5c0.8-0.9,1.6-1.6,1.8-1.6s-0.2,0.7-1,1.6c-0.8,0.9-1.6,1.6-1.8,1.6S879.9,12172.3,880.7,12171.5
		z"/>
	<path class="st0" d="M649.8,12012.8c-0.2-0.5,0.1-0.5,0.7-0.3c1.4,0.5,1.6,1.1,0.5,1.1C650.6,12013.6,650.1,12013.3,649.8,12012.8z
		"/>
</g>
<g id="XMLID_90_">
	<circle id="XMLID_91_" class="st1" cx="35.5" cy="65.3" r="4.9"/>
	<circle id="XMLID_92_" class="st2" cx="50.2" cy="75.1" r="4.9"/>
	<circle id="XMLID_93_" class="st2" cx="48.4" cy="63.5" r="2.4"/>
	<circle id="XMLID_102_" class="st1" cx="38" cy="77.6" r="2.4"/>
	<path id="XMLID_47_" class="st2" d="M68.6,65l-10-1.4c-0.3,0-0.5-0.3-0.5-0.6l1-7.1c0-0.3,0.3-0.5,0.6-0.5l10,1.4
		c2.3,0.3,3.9,2.4,3.5,4.7l0,0C73,63.7,70.9,65.3,68.6,65z"/>
	<path id="XMLID_46_" class="st2" d="M65.7,74.4l-10-1.4c-0.3,0-0.5-0.3-0.5-0.6l1-7.1c0-0.3,0.3-0.5,0.6-0.5l10,1.4
		c2.3,0.3,3.9,2.4,3.5,4.7l0,0C70,73.1,67.9,74.7,65.7,74.4z"/>
	<path id="XMLID_45_" class="st2" d="M41.3,94.9V79.1H53v15.8c0,2.8-2.3,5.1-5.1,5.1h-1.6C43.6,100,41.3,97.7,41.3,94.9z"/>
	<path id="XMLID_44_" class="st2" d="M55.7,100h-8.3c-2.5,0-4.5-2-4.5-4.5V95c0-2.5,2-4.5,4.5-4.5h8.3c2.3,0,4.1,1.8,4.1,4.1v1.3
		C59.7,98.2,57.9,100,55.7,100z"/>
	<path id="XMLID_43_" class="st1" d="M21.4,94.9V79.1h11.7v15.8c0,2.8-2.3,5.1-5.1,5.1h-1.6C23.6,100,21.4,97.7,21.4,94.9z"/>
	<path id="XMLID_42_" class="st1" d="M35.7,100h-8.3c-2.5,0-4.5-2-4.5-4.5V95c0-2.5,2-4.5,4.5-4.5h8.3c2.3,0,4.1,1.8,4.1,4.1v1.3
		C39.8,98.2,38,100,35.7,100z"/>
	<path id="XMLID_103_" class="st2" d="M15.7,83.3c3.2,2.2,14.6,7.5,14.9,3.5c2.9,0.8,9.8,0.4,12.2-0.2c0.3,3.9,18.4,0.8,18.4-21.9
		c0-19.3-1.8-20.7-3.1-27.5c-0.4-2,3.7-0.5,9.2,0c6.6,0.6,16-4.9,15.3-15.3c-0.5-7.9-8.1-25-27.5-21.4C42.5,2.8,41.9,20.9,42.9,37.2
		c0.8,13.6-5.8,21.6-18.4,21.4C4.2,58.3,12.8,37.4,12.8,37.4s-9.7,4.1-9.7,22.7C3.1,72.2,8.9,78.7,15.7,83.3z"/>
	<path id="XMLID_105_" class="st1" d="M41.3,79.1v15.8c0,1.4,0.6,2.7,1.6,3.7V79.1H41.3z"/>
	<g id="XMLID_106_">
		<path id="XMLID_107_" class="st1" d="M42.9,37.2c0,0.1,0,0.3,0,0.4V20.2C42.4,25.6,42.5,31.5,42.9,37.2z"/>
		<path id="XMLID_108_" class="st1" d="M3.1,60.1c0,12,5.8,18.5,12.6,23.2c3.2,2.2,14.6,7.5,14.9,3.5c2.9,0.8,9.8,0.4,12.2-0.2v0.1
			V41.1c-0.6,11.2-7.1,17.6-18.4,17.5C4.2,58.3,12.8,37.4,12.8,37.4S3.1,41.5,3.1,60.1z"/>
	</g>
	<circle id="XMLID_109_" class="st3" cx="35.5" cy="65.3" r="4.9"/>
	<circle id="XMLID_34_" class="st3" cx="8.9" cy="67.5" r="3.4"/>
	<circle id="XMLID_110_" class="st4" cx="48.4" cy="63.5" r="2.4"/>
	<circle id="XMLID_138_" class="st3" cx="38" cy="77.6" r="2.4"/>
	<circle id="XMLID_3_" class="st3" cx="6.8" cy="61.4" r="1.4"/>
	<circle id="XMLID_104_" class="st5" cx="63.8" cy="15" r="4.5"/>
	<circle id="XMLID_1_" cx="63.8" cy="15" r="2.3"/>
</g>
</svg>
