<?xml version="1.0" encoding="utf-8"?>
<!-- Generator: Adobe Illustrator 24.0.0, SVG Export Plug-In . SVG Version: 6.00 Build 0)  -->
<svg version="1.1" id="Layer_1" xmlns="http://www.w3.org/2000/svg" xmlns:xlink="http://www.w3.org/1999/xlink" x="0px" y="0px"
	 viewBox="0 0 512 512" style="enable-background:new 0 0 512 512;" xml:space="preserve">
<style type="text/css">
	.st0{fill:#F7B239;}
	.st1{fill:#E09B2D;}
	.st2{fill:#995C0D;}
	.st3{fill:#B27214;}
</style>
<path class="st0" d="M74.6,249.9c2.7-11.2,6.6-21.4,11.6-30.8c56.2-9.9,113-14.8,169.8-14.8s113.7,4.9,169.8,14.8
	c5,9.3,8.9,19.6,11.6,30.8c2.7,11.4,4.1,23.8,4.1,37.2C441.5,469.7,256,512,256,512S70.5,469.7,70.5,287.1
	C70.5,273.6,71.9,261.3,74.6,249.9z"/>
<path class="st1" d="M74.6,249.9c3.9-0.7,7.7-1.4,11.6-2.1c56.2-9.9,113-14.8,169.8-14.8c39.5,0,79,2.4,118.3,7.2
	c1.1,9.9,1.7,20.5,1.7,31.8c0,195-120,240.1-120,240.1s185.5-42.3,185.5-224.9c0-13.4-1.4-25.8-4.1-37.2
	c-2.7-11.2-6.6-21.4-11.6-30.8c-4.3-0.8-23.4-33.6-27.7-34.3c-1-0.2-10.6-1.2-11.6-1.4c-3.7-0.6-8.1-15-11.9-15.6
	c-0.6-0.1-13.7,15.7-14.3,15.6c-46.7-6.8-68.9-19.6-116-19.6c-56.8,0-101.9,45.3-158.1,55.1C81.2,228.4,77.3,238.7,74.6,249.9z"/>
<path class="st2" d="M245.9,120.9c-0.1-1.1-1.1-26.8,7-54.3c11.3-38.2,34.9-61.2,68.1-66.5c5.3-0.9,10.4,2.8,11.2,8.1
	c0.9,5.3-2.8,10.4-8.1,11.2c-25.5,4.1-43.1,21.7-52.3,52.4c-7.3,24.4-6.4,48-6.4,48.2l0,0c0.2,5.4-3.9,10-9.3,10.2
	c-0.2,0-0.3,0-0.5,0C250.4,130.3,246.1,126.2,245.9,120.9z"/>
<path class="st3" d="M139.9,111c77.2-8.3,155-8.3,232.2,0c55.8,6,94.2,58.7,82.9,113.6c-9.7-2-19.4-3.9-29.2-5.6
	c-56.2-9.9-113-14.8-169.8-14.8s-113.7,4.9-169.8,14.8c-9.7,1.7-19.5,3.6-29.1,5.6c-1.3-6.5-2-13-2-19.4
	C55,157.9,90.7,116.3,139.9,111z"/>
<path class="st2" d="M374.2,211.4c17.3,2.1,34.5,4.6,51.7,7.7c9.7,1.7,19.5,3.6,29.2,5.6c11.4-54.9-27.1-107.6-82.9-113.6
	c-52.3-5.7-104.9-7.5-157.4-5.5c25,1,49.9,2.8,74.8,5.5C340.8,116.6,377.4,161.5,374.2,211.4z"/>
</svg>
