<?xml version="1.0" encoding="utf-8"?>
<!-- Generator: Adobe Illustrator 24.0.0, SVG Export Plug-In . SVG Version: 6.00 Build 0)  -->
<svg version="1.1" id="Layer_1" xmlns="http://www.w3.org/2000/svg" xmlns:xlink="http://www.w3.org/1999/xlink" x="0px" y="0px"
	 viewBox="0 0 512 512" style="enable-background:new 0 0 512 512;" xml:space="preserve">
<style type="text/css">
	.st0{fill:#B27214;}
	.st1{fill:#F95428;}
	.st2{fill:#E54728;}
	.st3{fill:#F9DCB2;}
	.st4{fill:#DDBB8E;}
	.st5{fill:#D13420;}
</style>
<path class="st0" d="M302.9,129.3c-5.1-1.1-8.4-6.1-7.4-11.2c0.1-0.7,13.9-70.6-28.7-91.1c-4.7-2.3-6.7-7.9-4.4-12.7
	c2.3-4.7,7.9-6.7,12.7-4.4c23.5,11.3,37.7,34.6,40.9,67.3c2.4,23.6-1.7,43.8-1.9,44.7c-0.9,4.5-4.9,7.6-9.3,7.6
	C304.2,129.5,303.5,129.4,302.9,129.3z"/>
<path class="st1" d="M219.4,109.2c55.4,6.7,111.3,6.7,166.8,0c14.2-1.7,29.7-0.6,46,5.2c48.8,17.2,89.6,61.7,77.7,163.3
	c-11.2,95.4-112,178.4-191.8,170.1c-9.4-1-18.8-1.1-28.2-0.2c-39.2-26.4-138.3-96.7-123.2-46.9l-62.9-88.3
	c-3.9-11.2-6.7-22.8-8-34.6c-11.9-101.5,28.8-146.1,77.7-163.3C189.7,108.7,205.2,107.5,219.4,109.2z"/>
<path class="st2" d="M300.9,435.6c-3.4,4.2-7.1,8.2-11,12c9.4-0.9,18.8-0.8,28.2,0.2c79.8,8.4,180.6-74.7,191.8-170.1
	c11.9-101.5-28.8-146.1-77.7-163.3c-16.4-5.7-31.9-6.9-46-5.2c-14.4,1.7-28.8,3-43.3,3.9c1.3,0.4,2.6,0.8,3.9,1.3
	c48.8,17.2,89.6,61.7,77.7,163.3C416.4,346.9,361.1,409.5,300.9,435.6z"/>
<path class="st3" d="M162.6,496.7C60.7,496.7-21,401.5,14.8,312.3h88.9h220.4c16.5,54.5-0.2,102.1-34.3,135.3
	C258.2,478.3,211.6,496.7,162.6,496.7z"/>
<path class="st4" d="M143.5,495.6c6.3,0.7,12.6,1.1,19,1.1c49,0,95.7-18.4,127.3-49.2c34.1-33.2,50.8-80.8,34.3-135.3h-39.9
	c16.5,54.5-0.2,102.1-34.3,135.3C222.9,473.9,184.7,491.2,143.5,495.6z"/>
<path class="st0" d="M167.6,377.9c-7,7-18.5,7-25.5,0l-1.3-1.3c-7-7-7-18.5,0-25.5l1.3-1.3c7-7,18.5-7,25.5,0l14,14L167.6,377.9z"/>
<path class="st5" d="M21.6,312.3L21.6,312.3l-13.6,0C-6.7,351.1-1,394,23.6,430.5c30.2,44.7,83.5,72.5,138.9,72.5
	c50.4,0,98.4-18.6,131.7-51c18.3-17.8,31.4-39.4,37.8-62.5c6.9-24.6,6.4-50.7-1.4-77.3h-13.2l0.6,1.8c14.7,48.4,3.1,94.2-32.6,128.9
	c-31,30.1-75.8,47.4-122.9,47.4c-51.3,0-100.5-25.7-128.5-67C11,389.2,6.2,350.6,20.7,314.6L21.6,312.3L21.6,312.3z"/>
</svg>
