<?xml version="1.0" encoding="iso-8859-1"?>
<!-- Generator: Adobe Illustrator 19.0.0, SVG Export Plug-In . SVG Version: 6.00 Build 0)  -->
<svg version="1.1" id="Layer_1" xmlns="http://www.w3.org/2000/svg" xmlns:xlink="http://www.w3.org/1999/xlink" x="0px" y="0px"
	 viewBox="0 0 512 512" style="enable-background:new 0 0 512 512;" xml:space="preserve">
<path style="fill:#B27214;" d="M497.266,86.02c-4.034-4.033-10.571-4.033-14.604,0c-15.675,15.675-30.008,27.325-45.204,36.643
	l-8.609-30.598c-1.545-5.489-7.247-8.687-12.737-7.143c-5.489,1.545-8.689,7.247-7.143,12.737l9.877,35.102
	c-6.954,3.34-13.732,6.196-20.8,9.169c-21.537,9.062-43.683,18.392-71.973,42.519l1.231-19.45
	c0.361-5.692-3.962-10.597-9.654-10.956c-5.689-0.359-10.597,3.961-10.958,9.653l-2.62,41.381
	c-6.552,6.691-12.569,13.349-17.919,19.827c-19.901,24.096-29.135,43.79-37.11,62.54l-23.986-30.978
	c-3.492-4.509-9.978-5.334-14.486-1.842c-4.509,3.492-5.334,9.978-1.842,14.486l30.993,40.027
	c-3.911,8.599-8.587,17.869-15.198,28.027c-8.743,13.448-19.85,26.844-33.958,40.952c-5.927,5.926-11.778,11.367-17.407,16.181
	c-17.423,14.96-32.485,23.839-46.037,30.39l5.727-22.392c1.413-5.525-1.921-11.149-7.446-12.563
	c-5.522-1.415-11.149,1.921-12.563,7.446l-9.73,38.043c-25.319,10.682-51.8,22.589-88.374,59.149
	c-4.034,4.031-4.035,10.57-0.003,14.602c2.017,2.017,4.659,3.026,7.302,3.026c2.642,0,5.284-1.008,7.3-3.023
	c35.079-35.067,59.142-45.193,84.617-55.914l1.896-0.799c18.332-7.717,38.935-16.397,64.614-37.176l25.753,17.8
	c1.793,1.239,3.837,1.832,5.862,1.832c3.277,0,6.5-1.556,8.503-4.455c3.242-4.692,2.068-11.123-2.623-14.365l-21.442-14.821
	c2.861-2.675,5.748-5.459,8.65-8.36c13.429-13.429,24.373-26.347,33.332-39.33l45.435,3.377c0.26,0.019,0.519,0.029,0.775,0.029
	c5.356,0,9.884-4.134,10.287-9.56c0.423-5.687-3.845-10.641-9.533-11.064l-34.809-2.587c4.287-7.918,7.641-15.246,10.487-21.771
	c1.492-3.435,2.926-6.845,4.359-10.257c7.718-18.365,15.077-35.814,31.612-57.259l50.107,23.542
	c1.419,0.666,2.913,0.983,4.385,0.983c3.877,0,7.594-2.196,9.352-5.938c2.426-5.162,0.207-11.312-4.955-13.738l-45.131-21.204
	c3.332-3.654,6.858-7.346,10.565-11.053c35.08-35.08,59.144-45.205,84.618-55.925c9.544-4.015,19.411-8.167,29.849-13.667
	c21.16-11.141,40.658-25.973,61.362-46.677C501.298,96.59,501.298,90.053,497.266,86.02z"/>
<g>
	<path style="fill:#333333;" d="M401.817,47.133c-4.509,0-8.653-2.977-9.935-7.532l-7.448-26.475
		c-1.545-5.489,1.654-11.192,7.143-12.737c5.486-1.545,11.193,1.654,12.737,7.143l7.448,26.475
		c1.545,5.489-1.654,11.192-7.143,12.737C403.686,47.008,402.743,47.133,401.817,47.133z"/>
	<path style="fill:#333333;" d="M182.743,230.092c-3.084,0-6.134-1.375-8.168-4.001l-17.747-22.896
		c-3.494-4.508-2.672-10.994,1.835-14.486c4.508-3.496,10.995-2.671,14.486,1.835l17.747,22.896
		c3.494,4.508,2.672,10.994-1.835,14.486C187.18,229.386,184.952,230.092,182.743,230.092z"/>
</g>
<g>
	<path style="fill:#F95428;" d="M411.71,243.199c12.68,12.68,15.392,31.542,8.151,46.879h-0.014
		c-1.969,4.172-4.681,8.095-8.137,11.551c-16.136,16.122-42.281,16.122-58.417,0c-12.639-12.639-15.379-31.404-8.219-46.714
		c1.969-4.24,4.722-8.219,8.219-11.716C369.429,227.077,395.574,227.077,411.71,243.199z"/>
	<path style="fill:#F95428;" d="M271.29,417.595c13.823,13.823,15.805,35.012,5.934,50.941c-1.652,2.671-3.621,5.177-5.934,7.49
		c-16.136,16.122-42.281,16.122-58.417,0c-14.842-14.842-16.039-38.178-3.538-54.383c1.06-1.404,2.244-2.754,3.538-4.048
		C229.009,401.472,255.154,401.472,271.29,417.595z"/>
	<path style="fill:#F95428;" d="M222.814,204.854c16.136,16.136,16.136,42.295,0,58.431c-0.799,0.799-1.625,1.57-2.478,2.258
		c-16.218,13.823-40.601,13.066-55.939-2.258c-16.122-16.136-16.122-42.295,0-58.431c1.693-1.693,3.511-3.222,5.411-4.543
		C185.93,188.911,208.385,190.426,222.814,204.854z"/>
	<path style="fill:#F95428;" d="M434.521,29.645c16.136,16.136,16.136,42.281,0,58.417c-4.378,4.378-9.472,7.559-14.924,9.555
		c-14.649,5.397-31.735,2.203-43.492-9.555c-16.136-16.136-16.136-42.281,0-58.417c6.017-6.017,13.437-9.803,21.202-11.317
		C410.359,15.754,424.402,19.526,434.521,29.645z"/>
</g>
<g>
	<path style="fill:#E54728;" d="M405.021,88.062c-16.136-16.136-16.136-42.281,0-58.417c4.326-4.326,9.383-7.479,14.766-9.483
		c-7.203-2.69-15.003-3.31-22.48-1.834c-7.765,1.514-15.186,5.301-21.202,11.317c-16.136,16.136-16.136,42.281,0,58.417
		c11.758,11.758,28.844,14.952,43.492,9.555c0.058-0.022,0.116-0.047,0.175-0.069C414.393,95.542,409.346,92.387,405.021,88.062z"/>
	<path style="fill:#E54728;" d="M193.314,263.285c-16.136-16.136-16.136-42.281,0-58.417c4.326-4.326,9.383-7.479,14.766-9.483
		c-7.203-2.69-15.003-3.31-22.48-1.834c-7.765,1.514-15.186,5.301-21.202,11.317c-16.136,16.136-16.136,42.281,0,58.417
		c11.758,11.758,28.844,14.952,43.493,9.555c0.058-0.022,0.116-0.047,0.175-0.069C202.685,270.765,197.638,267.609,193.314,263.285z
		"/>
	<path style="fill:#E54728;" d="M382.209,301.63c-16.136-16.136-16.136-42.281,0-58.417c4.326-4.326,9.383-7.479,14.766-9.483
		c-7.203-2.69-15.003-3.31-22.48-1.834c-7.765,1.514-15.186,5.301-21.202,11.317c-16.136,16.136-16.136,42.281,0,58.417
		c11.758,11.758,28.844,14.952,43.492,9.555c0.058-0.022,0.116-0.047,0.175-0.069C391.581,309.108,386.534,305.954,382.209,301.63z"
		/>
	<path style="fill:#E54728;" d="M241.79,476.025c-16.136-16.136-16.136-42.281,0-58.417c4.326-4.326,9.383-7.479,14.766-9.483
		c-7.203-2.69-15.003-3.31-22.48-1.834c-7.765,1.514-15.186,5.301-21.202,11.317c-16.136,16.136-16.136,42.281,0,58.417
		c11.758,11.758,28.844,14.952,43.493,9.555c0.058-0.022,0.116-0.047,0.175-0.069C251.162,483.505,246.115,480.35,241.79,476.025z"
		/>
</g>
<g>
	<path style="fill:#333333;" d="M286.055,484.969c-2.024,0-4.067-0.593-5.86-1.831l-8.84-6.106
		c-4.692-3.241-5.869-9.672-2.627-14.365c3.241-4.692,9.673-5.871,14.365-2.627l8.84,6.106c4.692,3.241,5.869,9.672,2.627,14.365
		C292.557,483.412,289.333,484.969,286.055,484.969z"/>
	<path style="fill:#333333;" d="M427.76,303.45c-1.232,0-2.484-0.222-3.701-0.69l-7.917-3.043c-5.323-2.046-7.98-8.02-5.935-13.344
		c2.046-5.323,8.017-7.98,13.342-5.934l7.916,3.043c5.323,2.046,7.98,8.02,5.935,13.344
		C435.824,300.93,431.911,303.45,427.76,303.45z"/>
</g>
<g>
</g>
<g>
</g>
<g>
</g>
<g>
</g>
<g>
</g>
<g>
</g>
<g>
</g>
<g>
</g>
<g>
</g>
<g>
</g>
<g>
</g>
<g>
</g>
<g>
</g>
<g>
</g>
<g>
</g>
</svg>
