<?xml version="1.0" encoding="iso-8859-1"?>
<!-- Generator: Adobe Illustrator 19.0.0, SVG Export Plug-In . SVG Version: 6.00 Build 0)  -->
<svg version="1.1" id="Layer_1" xmlns="http://www.w3.org/2000/svg" xmlns:xlink="http://www.w3.org/1999/xlink" x="0px" y="0px"
	 viewBox="0 0 512 512" style="enable-background:new 0 0 512 512;" xml:space="preserve">
<rect x="247.807" y="95.784" style="fill:#666666;" width="16.386" height="235.058"/>
<path style="fill:#F7B239;" d="M256,298.823c-23.433,0-44.648,9.504-60.007,24.853c-15.349,15.36-24.853,36.575-24.853,60.007
	v28.283v89.109V512h72.068l18.386-14.944L279.618,512l20.931-21.849L321.48,512h19.38v-10.924v-89.109v-28.283
	C340.86,336.818,302.865,298.823,256,298.823z"/>
<g>
	<path style="fill:#2BA5F7;" d="M272.861,6.977C268.343,2.478,262.356,0,256,0c-13.162,0-23.87,10.708-23.87,23.87v88.279
		c0,13.155,10.708,23.859,23.87,23.859c13.156,0,23.859-10.703,23.859-23.859V23.87C279.859,17.489,277.376,11.493,272.861,6.977z"
		/>
</g>
<path style="fill:#E09B2D;" d="M214.634,468.289c-3.017,0-5.462-2.446-5.462-5.462v-57.415c0-3.016,2.445-5.462,5.462-5.462
	s5.462,2.446,5.462,5.462v57.415C220.096,465.844,217.651,468.289,214.634,468.289z"/>
<path style="fill:#E09B2D;" d="M242.454,440.368c-3.017,0-5.462-2.446-5.462-5.462v-29.495c0-3.016,2.445-5.462,5.462-5.462
	s5.462,2.446,5.462,5.462v29.495C247.916,437.922,245.47,440.368,242.454,440.368z"/>
<path style="fill:#E09B2D;" d="M270.274,460.095c-3.017,0-5.462-2.446-5.462-5.462v-49.222c0-3.016,2.445-5.462,5.462-5.462
	c3.017,0,5.462,2.446,5.462,5.462v49.222C275.736,457.651,273.291,460.095,270.274,460.095z"/>
<path style="fill:#E09B2D;" d="M325.915,460.095c-3.017,0-5.462-2.446-5.462-5.462v-49.222c0-3.016,2.445-5.462,5.462-5.462
	c3.017,0,5.462,2.446,5.462,5.462v49.222C331.378,457.651,328.933,460.095,325.915,460.095z"/>
<path style="fill:#E09B2D;" d="M298.095,440.368c-3.017,0-5.462-2.446-5.462-5.462v-29.495c0-3.016,2.445-5.462,5.462-5.462
	c3.017,0,5.462,2.446,5.462,5.462v29.495C303.557,437.922,301.112,440.368,298.095,440.368z"/>
<path style="fill:#E09B2D;" d="M186.813,440.368c-3.017,0-5.462-2.446-5.462-5.462v-29.495c0-3.016,2.445-5.462,5.462-5.462
	s5.462,2.446,5.462,5.462v29.495C192.275,437.922,189.83,440.368,186.813,440.368z"/>
<rect x="171.14" y="383.683" style="fill:#B27214;" width="169.72" height="28.283"/>
<g>
</g>
<g>
</g>
<g>
</g>
<g>
</g>
<g>
</g>
<g>
</g>
<g>
</g>
<g>
</g>
<g>
</g>
<g>
</g>
<g>
</g>
<g>
</g>
<g>
</g>
<g>
</g>
<g>
</g>
</svg>
