<?xml version="1.0" encoding="utf-8"?>
<!-- Generator: Adobe Illustrator 24.0.0, SVG Export Plug-In . SVG Version: 6.00 Build 0)  -->
<svg version="1.1" id="Layer_1" xmlns="http://www.w3.org/2000/svg" xmlns:xlink="http://www.w3.org/1999/xlink" x="0px" y="0px"
	 viewBox="0 0 1200 90.1" style="enable-background:new 0 0 1200 90.1;" xml:space="preserve">
<style type="text/css">
	.st0{fill:#006837;}
</style>
<g>
	<g>
		<path class="st0" d="M145.9,14.6c6.6,25.3-0.6,52.9-0.7,53.3c0-0.1,0.2-2.1,0.2-2.1c2.1-17-3-26.6-3-26.6
			c3.5,14.7-2.9,23.1-6.7,26.6c-1.4,1.3-2.5,2.4-2.5,2.4c-0.1,0-0.2-1.8-0.3-2.4c-2.5-20.8,9.4-47.2,9.4-47.2
			c-7.6,6.8-12.3,28.9-14.3,41c2.4-20.5-1.6-29.9-1.6-29.9c1.6,17.1-2.4,31.2-4.1,36.1c-0.4,1.3-0.7,2.4-0.7,2.4
			c-0.2,0-0.4-1.7-0.5-2.4c-2.9-12.4-1.5-42.9-1.5-42.9c-2.8,7.1-4.6,21.7-5.5,32.4c0-18-5.6-28.8-5.6-28.8c6,23-2,38.1-2,38.1
			c1.6-20.6-4-25.8-4-25.8c4.1,8.5-5.2,25.4-5.2,25.4c-3.6-22.2,5.2-53.6,5.2-53.6c-5.3,7.4-8.4,26.1-10,39.6
			c-0.2-17.2-7.4-23.8-7.4-23.8c7.2,17.5-0.1,38.9-0.1,38.9c0.8-20.6-4.4-30.6-4.4-30.6c0.6,9.1-6.7,25.4-9.4,31
			c-0.6,1.2-1,2.4-1,2.4c-0.2,0-0.3-1.7-0.4-2.4c-2.7-15.3,2.8-48,2.8-48c-6.2,4.9-10.1,39.4-10.9,48c-0.1,1.2-0.2,2.4-0.2,2.4
			c0,0-0.1-1.8-0.1-2.4c-0.8-13.4-0.7-28.3-0.7-28.3c-2.6,2.9-4.7,30.7-4.7,30.7l0.1-2.4c1.7-34.7-4.4-46.1-4.4-46.1
			c3,17-2.4,39.4-4.2,46.1c-0.3,1.3-0.5,2.4-0.5,2.4c-0.4,0-0.7-1.7-1-2.4c-4.2-10.2,1-33.8,1-33.8c-4.8,6.2-6.4,17-7,25.2
			c0.4-41.7-3-55.3-3-55.3c2.4,15-2.8,54.7-4.1,63.9c-0.1,0.5-0.1,0.5,0,0H33c0.9-14-3.7-39.3-3.7-39.3c0,11-2.5,32.7-3.3,39.3
			c-0.2,1.2-0.2,2.4-0.2,2.4c-0.4-0.8-0.6-1.8-0.9-2.4c-6-18,0.9-48,0.9-48c-9.2,12.3-10.2,40.4-10.3,48c0,0.6,0,0.7,0,0
			c0,0,0.5,2.9-0.8,0c-4.4-9.6,1.1-39.3,1.1-39.3c-5.4,5.8-7.6,31.9-8.1,39.3c-0.1,1.2-0.2,2.4-0.2,2.4c-0.1,0-0.3-1.8-0.4-2.4
			c-4.3-25.3,8.5-53.4,8.5-53.4c-12.7,7.9-16,55.8-16,55.8v21.8h155.2V65.8l0,0C154.6,21.4,145.9,14.6,145.9,14.6z"/>
	</g>
</g>
<g>
	<g>
		<path class="st0" d="M301.1,14.6c6.6,25.3-0.6,52.9-0.7,53.3c0-0.1,0.2-2.1,0.2-2.1c2.1-17-3-26.6-3-26.6
			c3.5,14.7-2.9,23.1-6.7,26.6c-1.4,1.3-2.5,2.4-2.5,2.4c-0.1,0-0.2-1.8-0.3-2.4c-2.5-20.8,9.4-47.2,9.4-47.2
			c-7.6,6.8-12.3,28.9-14.3,41c2.4-20.5-1.6-29.9-1.6-29.9c1.6,17.1-2.4,31.2-4.1,36.1c-0.4,1.3-0.7,2.4-0.7,2.4
			c-0.2,0-0.4-1.7-0.5-2.4c-2.9-12.4-1.5-42.9-1.5-42.9c-2.8,7.1-4.6,21.7-5.5,32.4c0-18-5.6-28.8-5.6-28.8c6,23-2,38.1-2,38.1
			c1.6-20.6-4-25.8-4-25.8c4.1,8.5-5.2,25.4-5.2,25.4c-3.6-22.2,5.2-53.6,5.2-53.6c-5.3,7.4-8.4,26.1-10,39.6
			c-0.2-17.2-7.4-23.8-7.4-23.8c7.2,17.5-0.1,38.9-0.1,38.9c0.8-20.6-4.4-30.6-4.4-30.6c0.6,9.1-6.7,25.4-9.4,31
			c-0.6,1.2-1,2.4-1,2.4c-0.2,0-0.3-1.7-0.4-2.4c-2.7-15.3,2.8-48,2.8-48c-6.2,4.9-10.1,39.4-10.9,48c-0.1,1.2-0.2,2.4-0.2,2.4
			c0,0-0.1-1.8-0.1-2.4c-0.8-13.4-0.7-28.3-0.7-28.3c-2.6,2.9-4.7,30.7-4.7,30.7l0.1-2.4c1.7-34.7-4.4-46.1-4.4-46.1
			c3,17-2.4,39.4-4.2,46.1c-0.3,1.3-0.5,2.4-0.5,2.4c-0.4,0-0.7-1.7-1-2.4c-4.2-10.2,1-33.8,1-33.8c-4.8,6.2-6.4,17-7,25.2
			c0.4-41.7-3-55.3-3-55.3c2.4,15-2.8,54.7-4.1,63.9c-0.1,0.5-0.1,0.5,0,0h-0.1c0.9-14-3.7-39.3-3.7-39.3c0,11-2.5,32.7-3.3,39.3
			c-0.2,1.2-0.2,2.4-0.2,2.4c-0.4-0.8-0.6-1.8-0.9-2.4c-6-18,0.9-48,0.9-48c-9.2,12.3-10.2,40.4-10.3,48c0,0.6,0,0.7,0,0
			c0,0,0.5,2.9-0.8,0c-4.4-9.6,1.1-39.3,1.1-39.3c-5.4,5.8-7.6,31.9-8.1,39.3c-0.1,1.2-0.2,2.4-0.2,2.4c-0.1,0-0.3-1.8-0.4-2.4
			c-4.3-25.3,8.5-53.4,8.5-53.4c-12.7,7.9-16,55.8-16,55.8v21.8h155.2V65.8l0,0C309.8,21.4,301.1,14.6,301.1,14.6z"/>
	</g>
</g>
<g>
	<g>
		<path class="st0" d="M456.3,14.6c6.6,25.3-0.6,52.9-0.7,53.3c0-0.1,0.2-2.1,0.2-2.1c2.1-17-3-26.6-3-26.6
			c3.5,14.7-2.9,23.1-6.7,26.6c-1.4,1.3-2.5,2.4-2.5,2.4c-0.1,0-0.2-1.8-0.3-2.4c-2.5-20.8,9.4-47.2,9.4-47.2
			c-7.6,6.8-12.3,28.9-14.3,41c2.4-20.5-1.6-29.9-1.6-29.9c1.6,17.1-2.4,31.2-4.1,36.1c-0.4,1.3-0.7,2.4-0.7,2.4
			c-0.2,0-0.4-1.7-0.5-2.4c-2.9-12.4-1.5-42.9-1.5-42.9c-2.8,7.1-4.6,21.7-5.5,32.4c0-18-5.6-28.8-5.6-28.8c6,23-2,38.1-2,38.1
			c1.6-20.6-4-25.8-4-25.8c4.1,8.5-5.2,25.4-5.2,25.4c-3.6-22.2,5.2-53.6,5.2-53.6c-5.3,7.4-8.4,26.1-10,39.6
			c-0.2-17.2-7.4-23.8-7.4-23.8c7.2,17.5-0.1,38.9-0.1,38.9c0.8-20.6-4.4-30.6-4.4-30.6c0.6,9.1-6.7,25.4-9.4,31
			c-0.6,1.2-1,2.4-1,2.4c-0.2,0-0.3-1.7-0.4-2.4c-2.7-15.3,2.8-48,2.8-48c-6.2,4.9-10.1,39.4-10.9,48c-0.1,1.2-0.2,2.4-0.2,2.4
			c0,0-0.1-1.8-0.1-2.4c-0.8-13.4-0.7-28.3-0.7-28.3c-2.6,2.9-4.7,30.7-4.7,30.7l0.1-2.4c1.7-34.7-4.4-46.1-4.4-46.1
			c3,17-2.4,39.4-4.2,46.1c-0.3,1.3-0.5,2.4-0.5,2.4c-0.4,0-0.7-1.7-1-2.4c-4.2-10.2,1-33.8,1-33.8c-4.8,6.2-6.4,17-7,25.2
			c0.4-41.7-3-55.3-3-55.3c2.4,15-2.8,54.7-4.1,63.9c-0.1,0.5-0.1,0.5,0,0h-0.1c0.9-14-3.7-39.3-3.7-39.3c0,11-2.5,32.7-3.3,39.3
			c-0.2,1.2-0.2,2.4-0.2,2.4c-0.4-0.8-0.6-1.8-0.9-2.4c-6-18,0.9-48,0.9-48c-9.2,12.3-10.2,40.4-10.3,48c0,0.6,0,0.7,0,0
			c0,0,0.5,2.9-0.8,0c-4.4-9.6,1.1-39.3,1.1-39.3c-5.4,5.8-7.6,31.9-8.1,39.3c-0.1,1.2-0.2,2.4-0.2,2.4c-0.1,0-0.3-1.8-0.4-2.4
			c-4.3-25.3,8.5-53.4,8.5-53.4c-12.7,7.9-16,55.8-16,55.8v21.8H465V65.8l0,0C465.1,21.4,456.3,14.6,456.3,14.6z"/>
	</g>
</g>
<g>
	<g>
		<path class="st0" d="M611.5,14.6c6.6,25.3-0.6,52.9-0.7,53.3c0-0.1,0.2-2.1,0.2-2.1c2.1-17-3-26.6-3-26.6
			c3.5,14.7-2.9,23.1-6.7,26.6c-1.4,1.3-2.5,2.4-2.5,2.4c-0.1,0-0.2-1.8-0.3-2.4c-2.5-20.8,9.4-47.2,9.4-47.2
			c-7.6,6.8-12.3,28.9-14.3,41c2.4-20.5-1.6-29.9-1.6-29.9c1.6,17.1-2.4,31.2-4.1,36.1c-0.4,1.3-0.7,2.4-0.7,2.4
			c-0.2,0-0.4-1.7-0.5-2.4c-2.9-12.4-1.5-42.9-1.5-42.9c-2.8,7.1-4.6,21.7-5.5,32.4c0-18-5.6-28.8-5.6-28.8c6,23-2,38.1-2,38.1
			c1.6-20.6-4-25.8-4-25.8c4.1,8.5-5.2,25.4-5.2,25.4c-3.6-22.2,5.2-53.6,5.2-53.6c-5.3,7.4-8.4,26.1-10,39.6
			c-0.2-17.2-7.4-23.8-7.4-23.8c7.2,17.5-0.1,38.9-0.1,38.9c0.8-20.6-4.4-30.6-4.4-30.6c0.6,9.1-6.7,25.4-9.4,31
			c-0.6,1.2-1,2.4-1,2.4c-0.2,0-0.3-1.7-0.4-2.4c-2.7-15.3,2.8-48,2.8-48c-6.2,4.9-10.1,39.4-10.9,48c-0.1,1.2-0.2,2.4-0.2,2.4
			c0,0-0.1-1.8-0.1-2.4c-0.8-13.4-0.7-28.3-0.7-28.3c-2.6,2.9-4.7,30.7-4.7,30.7l0.1-2.4c1.7-34.7-4.4-46.1-4.4-46.1
			c3,17-2.4,39.4-4.2,46.1c-0.3,1.3-0.5,2.4-0.5,2.4c-0.4,0-0.7-1.7-1-2.4c-4.2-10.2,1-33.8,1-33.8c-4.8,6.2-6.4,17-7,25.2
			c0.4-41.7-3-55.3-3-55.3c2.4,15-2.8,54.7-4.1,63.9c-0.1,0.5-0.1,0.5,0,0h-0.1c0.9-14-3.7-39.3-3.7-39.3c0,11-2.5,32.7-3.3,39.3
			c-0.2,1.2-0.2,2.4-0.2,2.4c-0.4-0.8-0.6-1.8-0.9-2.4c-6-18,0.9-48,0.9-48c-9.2,12.3-10.2,40.4-10.3,48c0,0.6,0,0.7,0,0
			c0,0,0.5,2.9-0.8,0c-4.4-9.6,1.1-39.3,1.1-39.3c-5.4,5.8-7.6,31.9-8.1,39.3c-0.1,1.2-0.2,2.4-0.2,2.4c-0.1,0-0.3-1.8-0.4-2.4
			c-4.3-25.3,8.5-53.4,8.5-53.4c-12.7,7.9-16,55.8-16,55.8v21.8h155.2V65.8l0,0C620.3,21.4,611.5,14.6,611.5,14.6z"/>
	</g>
</g>
<g>
	<g>
		<path class="st0" d="M766.8,14.6c6.6,25.3-0.6,52.9-0.7,53.3c0-0.1,0.2-2.1,0.2-2.1c2.1-17-3-26.6-3-26.6
			c3.5,14.7-2.9,23.1-6.7,26.6c-1.4,1.3-2.5,2.4-2.5,2.4c-0.1,0-0.2-1.8-0.3-2.4c-2.5-20.8,9.4-47.2,9.4-47.2
			c-7.6,6.8-12.3,28.9-14.3,41c2.4-20.5-1.6-29.9-1.6-29.9c1.6,17.1-2.4,31.2-4.1,36.1c-0.4,1.3-0.7,2.4-0.7,2.4
			c-0.2,0-0.4-1.7-0.5-2.4c-2.9-12.4-1.5-42.9-1.5-42.9c-2.8,7.1-4.6,21.7-5.5,32.4c0-18-5.6-28.8-5.6-28.8c6,23-2,38.1-2,38.1
			c1.6-20.6-4-25.8-4-25.8c4.1,8.5-5.2,25.4-5.2,25.4c-3.6-22.2,5.2-53.6,5.2-53.6c-5.3,7.4-8.4,26.1-10,39.6
			c-0.2-17.2-7.4-23.8-7.4-23.8c7.2,17.5-0.1,38.9-0.1,38.9c0.8-20.6-4.4-30.6-4.4-30.6c0.6,9.1-6.7,25.4-9.4,31
			c-0.6,1.2-1,2.4-1,2.4c-0.2,0-0.3-1.7-0.4-2.4c-2.7-15.3,2.8-48,2.8-48c-6.2,4.9-10.1,39.4-10.9,48c-0.1,1.2-0.2,2.4-0.2,2.4
			c0,0-0.1-1.8-0.1-2.4c-0.8-13.4-0.7-28.3-0.7-28.3c-2.6,2.9-4.7,30.7-4.7,30.7l0.1-2.4c1.7-34.7-4.4-46.1-4.4-46.1
			c3,17-2.4,39.4-4.2,46.1c-0.3,1.3-0.5,2.4-0.5,2.4c-0.4,0-0.7-1.7-1-2.4c-4.2-10.2,1-33.8,1-33.8c-4.8,6.2-6.4,17-7,25.2
			c0.4-41.7-3-55.3-3-55.3c2.4,15-2.8,54.7-4.1,63.9c-0.1,0.5-0.1,0.5,0,0h-0.1c0.9-14-3.7-39.3-3.7-39.3c0,11-2.5,32.7-3.3,39.3
			c-0.2,1.2-0.2,2.4-0.2,2.4c-0.4-0.8-0.6-1.8-0.9-2.4c-6-18,0.9-48,0.9-48c-9.2,12.3-10.2,40.4-10.3,48c0,0.6,0,0.7,0,0
			c0,0,0.5,2.9-0.8,0c-4.4-9.6,1.1-39.3,1.1-39.3c-5.4,5.8-7.6,31.9-8.1,39.3c-0.1,1.2-0.2,2.4-0.2,2.4c-0.1,0-0.3-1.8-0.4-2.4
			c-4.3-25.3,8.5-53.4,8.5-53.4c-12.7,7.9-16,55.8-16,55.8v21.8h155.2V65.8l0,0C775.5,21.4,766.8,14.6,766.8,14.6z"/>
	</g>
</g>
<g>
	<g>
		<path class="st0" d="M922,14.6c6.6,25.3-0.6,52.9-0.7,53.3c0-0.1,0.2-2.1,0.2-2.1c2.1-17-3-26.6-3-26.6
			c3.5,14.7-2.9,23.1-6.7,26.6c-1.4,1.3-2.5,2.4-2.5,2.4c-0.1,0-0.2-1.8-0.3-2.4c-2.5-20.8,9.4-47.2,9.4-47.2
			c-7.6,6.8-12.3,28.9-14.3,41c2.4-20.5-1.6-29.9-1.6-29.9c1.6,17.1-2.4,31.2-4.1,36.1c-0.4,1.3-0.7,2.4-0.7,2.4
			c-0.2,0-0.4-1.7-0.5-2.4c-2.9-12.4-1.5-42.9-1.5-42.9c-2.8,7.1-4.6,21.7-5.5,32.4c0-18-5.6-28.8-5.6-28.8c6,23-2,38.1-2,38.1
			c1.6-20.6-4-25.8-4-25.8c4.1,8.5-5.2,25.4-5.2,25.4c-3.6-22.2,5.2-53.6,5.2-53.6c-5.3,7.4-8.4,26.1-10,39.6
			c-0.2-17.2-7.4-23.8-7.4-23.8c7.2,17.5-0.1,38.9-0.1,38.9c0.8-20.6-4.4-30.6-4.4-30.6c0.6,9.1-6.7,25.4-9.4,31
			c-0.6,1.2-1,2.4-1,2.4c-0.2,0-0.3-1.7-0.4-2.4c-2.7-15.3,2.8-48,2.8-48c-6.2,4.9-10.1,39.4-10.9,48c-0.1,1.2-0.2,2.4-0.2,2.4
			c0,0-0.1-1.8-0.1-2.4c-0.8-13.4-0.7-28.3-0.7-28.3c-2.6,2.9-4.7,30.7-4.7,30.7l0.1-2.4c1.7-34.7-4.4-46.1-4.4-46.1
			c3,17-2.4,39.4-4.2,46.1c-0.3,1.3-0.5,2.4-0.5,2.4c-0.4,0-0.7-1.7-1-2.4c-4.2-10.2,1-33.8,1-33.8c-4.8,6.2-6.4,17-7,25.2
			c0.4-41.7-3-55.3-3-55.3c2.4,15-2.8,54.7-4.1,63.9c-0.1,0.5-0.1,0.5,0,0h-0.1c0.9-14-3.7-39.3-3.7-39.3c0,11-2.5,32.7-3.3,39.3
			c-0.2,1.2-0.2,2.4-0.2,2.4c-0.4-0.8-0.6-1.8-0.9-2.4c-6-18,0.9-48,0.9-48c-9.2,12.3-10.2,40.4-10.3,48c0,0.6,0,0.7,0,0
			c0,0,0.5,2.9-0.8,0c-4.4-9.6,1.1-39.3,1.1-39.3c-5.4,5.8-7.6,31.9-8.1,39.3c-0.1,1.2-0.2,2.4-0.2,2.4c-0.1,0-0.3-1.8-0.4-2.4
			c-4.3-25.3,8.5-53.4,8.5-53.4c-12.7,7.9-16,55.8-16,55.8v21.8h155.2V65.8l0,0C930.7,21.4,922,14.6,922,14.6z"/>
	</g>
</g>
<g>
	<g>
		<path class="st0" d="M1077.2,14.6c6.6,25.3-0.6,52.9-0.7,53.3c0-0.1,0.2-2.1,0.2-2.1c2.1-17-3-26.6-3-26.6
			c3.5,14.7-2.9,23.1-6.7,26.6c-1.4,1.3-2.5,2.4-2.5,2.4c-0.1,0-0.2-1.8-0.3-2.4c-2.5-20.8,9.4-47.2,9.4-47.2
			c-7.6,6.8-12.3,28.9-14.3,41c2.4-20.5-1.6-29.9-1.6-29.9c1.6,17.1-2.4,31.2-4.1,36.1c-0.4,1.3-0.7,2.4-0.7,2.4
			c-0.2,0-0.4-1.7-0.5-2.4c-2.9-12.4-1.5-42.9-1.5-42.9c-2.8,7.1-4.6,21.7-5.5,32.4c0-18-5.6-28.8-5.6-28.8c6,23-2,38.1-2,38.1
			c1.6-20.6-4-25.8-4-25.8c4.1,8.5-5.2,25.4-5.2,25.4c-3.6-22.2,5.2-53.6,5.2-53.6c-5.3,7.4-8.4,26.1-10,39.6
			c-0.2-17.2-7.4-23.8-7.4-23.8c7.2,17.5-0.1,38.9-0.1,38.9c0.8-20.6-4.4-30.6-4.4-30.6c0.6,9.1-6.7,25.4-9.4,31
			c-0.6,1.2-1,2.4-1,2.4c-0.2,0-0.3-1.7-0.4-2.4c-2.7-15.3,2.8-48,2.8-48c-6.2,4.9-10.1,39.4-10.9,48c-0.1,1.2-0.2,2.4-0.2,2.4
			c0,0-0.1-1.8-0.1-2.4c-0.8-13.4-0.7-28.3-0.7-28.3c-2.6,2.9-4.7,30.7-4.7,30.7l0.1-2.4c1.7-34.7-4.4-46.1-4.4-46.1
			c3,17-2.4,39.4-4.2,46.1c-0.3,1.3-0.5,2.4-0.5,2.4c-0.4,0-0.7-1.7-1-2.4c-4.2-10.2,1-33.8,1-33.8c-4.8,6.2-6.4,17-7,25.2
			c0.4-41.7-3-55.3-3-55.3c2.4,15-2.8,54.7-4.1,63.9c-0.1,0.5-0.1,0.5,0,0h-0.1c0.9-14-3.7-39.3-3.7-39.3c0,11-2.5,32.7-3.3,39.3
			c-0.2,1.2-0.2,2.4-0.2,2.4c-0.4-0.8-0.6-1.8-0.9-2.4c-6-18,0.9-48,0.9-48c-9.2,12.3-10.2,40.4-10.3,48c0,0.6,0,0.7,0,0
			c0,0,0.5,2.9-0.8,0c-4.4-9.6,1.1-39.3,1.1-39.3c-5.4,5.8-7.6,31.9-8.1,39.3c-0.1,1.2-0.2,2.4-0.2,2.4c-0.1,0-0.3-1.8-0.4-2.4
			c-4.3-25.3,8.5-53.4,8.5-53.4c-12.7,7.9-16,55.8-16,55.8v21.8h155.2V65.8l0,0C1086,21.4,1077.2,14.6,1077.2,14.6z"/>
	</g>
</g>
<g>
	<g>
		<path class="st0" d="M1232.4,14.6c6.6,25.3-0.6,52.9-0.7,53.3c0-0.1,0.2-2.1,0.2-2.1c2.1-17-3-26.6-3-26.6
			c3.5,14.7-2.9,23.1-6.7,26.6c-1.4,1.3-2.4,2.4-2.4,2.4c-0.1,0-0.2-1.8-0.3-2.4c-2.5-20.8,9.4-47.2,9.4-47.2
			c-7.6,6.8-12.3,28.9-14.3,41c2.4-20.5-1.6-29.9-1.6-29.9c1.6,17.1-2.4,31.2-4.1,36.1c-0.4,1.3-0.7,2.4-0.7,2.4
			c-0.2,0-0.4-1.7-0.5-2.4c-2.9-12.4-1.5-42.9-1.5-42.9c-2.8,7.1-4.6,21.7-5.5,32.4c0-18-5.6-28.8-5.6-28.8c6,23-2,38.1-2,38.1
			c1.6-20.6-4-25.8-4-25.8c4.1,8.5-5.2,25.4-5.2,25.4c-3.6-22.2,5.2-53.6,5.2-53.6c-5.3,7.4-8.4,26.1-10,39.6
			c-0.2-17.2-7.4-23.8-7.4-23.8c7.2,17.5-0.1,38.9-0.1,38.9c0.8-20.6-4.4-30.6-4.4-30.6c0.6,9.1-6.7,25.4-9.4,31
			c-0.6,1.2-1,2.4-1,2.4c-0.2,0-0.3-1.7-0.4-2.4c-2.7-15.3,2.8-48,2.8-48c-6.2,4.9-10.1,39.4-10.9,48c-0.1,1.2-0.2,2.4-0.2,2.4
			c0,0-0.1-1.8-0.1-2.4c-0.8-13.4-0.7-28.3-0.7-28.3c-2.6,2.9-4.7,30.7-4.7,30.7l0.1-2.4c1.7-34.7-4.4-46.1-4.4-46.1
			c3,17-2.4,39.4-4.2,46.1c-0.3,1.3-0.5,2.4-0.5,2.4c-0.4,0-0.7-1.7-1-2.4c-4.2-10.2,1-33.8,1-33.8c-4.8,6.2-6.4,17-7,25.2
			c0.4-41.7-3-55.3-3-55.3c2.4,15-2.8,54.7-4.1,63.9c-0.1,0.5-0.1,0.5,0,0h-0.1c0.9-14-3.7-39.3-3.7-39.3c0,11-2.5,32.7-3.3,39.3
			c-0.2,1.2-0.2,2.4-0.2,2.4c-0.4-0.8-0.6-1.8-0.9-2.4c-6-18,0.9-48,0.9-48c-9.2,12.3-10.2,40.4-10.3,48c0,0.6,0,0.7,0,0
			c0,0,0.5,2.9-0.8,0c-4.4-9.6,1.1-39.3,1.1-39.3c-5.4,5.8-7.7,31.9-8.1,39.3c-0.1,1.2-0.2,2.4-0.2,2.4c-0.1,0-0.3-1.8-0.4-2.4
			c-4.3-25.3,8.5-53.4,8.5-53.4c-12.7,7.9-16,55.8-16,55.8v21.8h155.2V65.8l0,0C1241.2,21.4,1232.4,14.6,1232.4,14.6z"/>
	</g>
</g>
</svg>
