<?xml version="1.0" encoding="iso-8859-1"?>
<!-- Generator: Adobe Illustrator 16.0.0, SVG Export Plug-In . SVG Version: 6.00 Build 0)  -->
<!DOCTYPE svg PUBLIC "-//W3C//DTD SVG 1.1//EN" "http://www.w3.org/Graphics/SVG/1.1/DTD/svg11.dtd">
<svg version="1.1" id="Capa_1" xmlns="http://www.w3.org/2000/svg" xmlns:xlink="http://www.w3.org/1999/xlink" x="0px" y="0px"
	 width="46.306px" height="46.305px" viewBox="0 0 46.306 46.305" style="enable-background:new 0 0 46.306 46.305;"
	 xml:space="preserve">
<g>
	<g>
		<g>
			<path d="M45.113,26.012l-11.031-6.174c0.02-0.029,0.043-0.059,0.066-0.087l2.713-3.326c0.111-0.137,0.113-0.336,0.002-0.475
				c-0.111-0.141-0.305-0.183-0.465-0.104l-3.852,1.902c-0.92,0.454-2.02,0.336-2.822-0.306c-0.803-0.64-1.162-1.687-0.924-2.686
				l1.002-4.173c0.043-0.174-0.043-0.353-0.203-0.431c-0.162-0.077-0.354-0.031-0.463,0.108l-2.643,3.383
				c-0.631,0.81-1.674,1.181-2.676,0.951c-1.001-0.229-1.78-1.017-1.997-2.02l-0.909-4.195c-0.038-0.175-0.192-0.299-0.37-0.299
				c-0.178,0-0.333,0.124-0.371,0.299l-0.912,4.193c-0.219,1.003-0.998,1.79-1.999,2.019c-1.001,0.229-2.043-0.144-2.675-0.954
				l-2.638-3.384c-0.11-0.142-0.303-0.187-0.464-0.109c-0.161,0.078-0.245,0.257-0.204,0.431l0.998,4.175
				c0.238,0.998-0.122,2.045-0.925,2.685c-0.803,0.64-1.904,0.758-2.824,0.302l-3.846-1.905c-0.16-0.078-0.353-0.035-0.464,0.104
				c-0.086,0.107-0.105,0.249-0.058,0.372c0.012,0.055,0.037,0.106,0.073,0.153l2.674,3.357c0.639,0.803,0.757,1.903,0.301,2.824
				c-0.071,0.143-0.153,0.276-0.246,0.401c-0.501,0.641-1.25,1.01-2.113,1.016c-0.943,0.007-4.452-0.021-4.361-0.038
				c-0.179-0.007-0.335,0.116-0.377,0.288c-0.041,0.175,0.044,0.354,0.205,0.432l3.866,1.866c0.925,0.444,1.508,1.387,1.496,2.411
				c-0.011,1.027-0.615,1.955-1.55,2.382l-3.907,1.775C0.06,33.25-0.029,33.426,0.008,33.6c0.038,0.177,0.192,0.3,0.37,0.3
				l8.036,0.017l-1.16,1.159c-0.721,0.721-0.721,1.891,0,2.61c0.36,0.359,0.833,0.539,1.305,0.539c0.473,0,0.945-0.18,1.306-0.539
				l3.769-3.771l13.807,0.005l3.764,3.766c0.361,0.359,0.834,0.539,1.307,0.539s0.943-0.18,1.307-0.539
				c0.721-0.722,0.721-1.892,0-2.61l-1.152-1.151l3.559,0.001c0.629,0.001,1.176-0.436,1.312-1.052
				c0.107-0.479-0.059-0.969-0.408-1.286l7.248-1.253c0.971-0.167,1.73-0.931,1.896-1.896
				C46.436,27.466,45.973,26.493,45.113,26.012z M44.451,28.124c-0.035,0.2-0.193,0.355-0.395,0.393l-8.58,1.48
				c0.035-0.786-0.629-6.042-1.916-8.335l10.648,5.961C44.389,27.723,44.484,27.923,44.451,28.124z"/>
			<circle cx="38.352" cy="26.671" r="1.073"/>
		</g>
	</g>
</g>
<g>
</g>
<g>
</g>
<g>
</g>
<g>
</g>
<g>
</g>
<g>
</g>
<g>
</g>
<g>
</g>
<g>
</g>
<g>
</g>
<g>
</g>
<g>
</g>
<g>
</g>
<g>
</g>
<g>
</g>
</svg>
