<?xml version="1.0" encoding="iso-8859-1"?>
<!-- Generator: Adobe Illustrator 19.0.0, SVG Export Plug-In . SVG Version: 6.00 Build 0)  -->
<svg version="1.1" id="Layer_1" xmlns="http://www.w3.org/2000/svg" xmlns:xlink="http://www.w3.org/1999/xlink" x="0px" y="0px"
	 viewBox="0 0 512 512" style="enable-background:new 0 0 512 512;" xml:space="preserve">
<path style="fill:#F9DCB2;" d="M503.379,311.28c-0.667,0.92-51.715,67.412-140.056,71.138v23.816
	c0,10.465-8.717,18.883-19.285,18.377c-9.901-0.46-17.514-8.981-17.514-18.894v-23.184h-34.591v23.701
	c0,10.465-8.728,18.883-19.297,18.377c-9.89-0.46-17.503-8.981-17.503-18.894v-23.184h-100.52c-1.828,0-3.657-0.046-5.485-0.115
	v23.816c0,10.465-8.717,18.883-19.285,18.377c-9.901-0.46-17.514-8.981-17.514-18.894v-29.394
	c-9.234-2.783-18.112-6.44-26.507-10.902c7.026-66.492,77.716-90.757,138.722-99.221c39.904-5.531,75.669-4.312,86.789-3.726
	c1.161,0.15,2.346,0.219,3.553,0.219c0,0-1.242-0.092-3.553-0.219c-15.18-1.748-26.979-14.662-26.979-30.325
	c0-16.859,13.673-30.532,30.532-30.532c16.87,0,30.532,13.673,30.532,30.532c0,0,29.463-25.323,72.989-6.118
	c5.083,15.95,13.489,30.958,25.15,43.929C457.759,285.773,477.091,300.493,503.379,311.28z"/>
<path style="fill:#B3B3B3;" d="M427.056,130.617c-15.847,29.946-18.538,64.445-8.648,95.414
	c-43.527-19.205-72.989,6.118-72.989,6.118c0-16.859-13.662-30.532-30.532-30.532c-16.859,0-30.532,13.673-30.532,30.532
	c0,15.663,11.799,28.577,26.979,30.325c-28.117-1.472-213.885-7.038-225.512,102.946c-12.569-6.67-24.069-15.111-34.143-25.024
	c-23-22.62-38.536-52.876-42.227-87.065c-2.84-26.3,1.391-45.769,18.112-75.209l33.085,36.466c0,0,0-43.251,38.168-81.419
	l20.355,53.428c0,0,21.206-73.783,61.915-91.596l11.879,71.241c0,0,22.896-58.523,68.7-78.877l10.177,58.523
	c0,0,26.289-42.411,72.092-52.589l6.785,57.683c0,0,19.711-21.677,59.132-21.677C415.222,129.306,420.961,129.709,427.056,130.617z"
	/>
<path style="fill:#999999;" d="M69.916,270.835c-0.263-26.452,5.848-45.415,25.358-73.085l29.372,39.518
	c0,0,4.217-43.045,45.925-77.31l15.049,55.158c0,0,28.298-71.365,70.55-85.123l4.877,72.061c0,0,28.493-56.012,76.063-71.804
	l4.423,59.236c0,0,30.299-39.646,76.876-45.309l0.13,6.661c2.214-6.902,5.051-13.67,8.517-20.221
	c-6.095-0.908-11.833-1.311-17.204-1.311c-39.421,0-59.132,21.677-59.132,21.677l-6.785-57.683
	c-45.804,10.177-72.092,52.589-72.092,52.589l-10.177-58.523c-45.804,20.355-68.7,78.877-68.7,78.877l-11.879-71.241
	c-40.709,17.813-61.915,91.596-61.915,91.596l-20.355-53.428c-38.168,38.168-38.168,81.419-38.168,81.419l-33.085-36.466
	c-16.721,29.44-20.953,48.909-18.112,75.209c3.691,34.189,19.228,64.445,42.227,87.065c10.074,9.913,21.574,18.354,34.143,25.024
	c0.819-7.743,2.528-14.895,4.958-21.535C77.757,322.468,70.179,297.481,69.916,270.835z"/>
<path style="fill:#F9DCB2;" d="M220.53,382.532v23.701c0,10.453-8.717,18.883-19.285,18.377c-9.901-0.46-17.514-8.981-17.514-18.894
	v-23.184H220.53z"/>
<g>
	<path style="fill:#DDBB8E;" d="M291.933,382.532v23.701c0,10.465-8.728,18.883-19.297,18.377
		c-9.89-0.46-17.503-8.981-17.503-18.894v-23.184h-100.52c-1.828,0-3.657-0.046-5.485-0.115v23.816
		c0,10.465-8.717,18.883-19.285,18.377c-9.901-0.46-17.514-8.981-17.514-18.894v-29.394c-9.234-2.783-18.112-6.44-26.507-10.902
		c7.026-66.492,77.716-90.757,138.722-99.221l0.023,0.012c0,0-54.808,15.674-41.008,65.998
		C197.358,382.532,291.933,382.532,291.933,382.532z"/>
	<path style="fill:#DDBB8E;" d="M51.678,340.397c10.074,9.913,21.574,18.354,34.143,25.024c0,0-30.992,27.013-63.192,22.413
		C22.63,387.834,46.216,368.859,51.678,340.397z"/>
	<path style="fill:#DDBB8E;" d="M363.324,382.532v23.701c0,10.465-8.717,18.883-19.285,18.377
		c-9.901-0.46-17.514-8.981-17.514-18.894v-23.184H363.324z"/>
</g>
<path style="fill:#FFFFFF;" d="M455.252,326.627c-1.67,0-3.357-0.483-4.841-1.493c-12.84-8.73-24.499-18.887-34.652-30.192
	c-3.183-3.544-2.89-8.997,0.653-12.179c3.545-3.184,8.999-2.889,12.181,0.653c9.224,10.269,19.827,19.506,31.516,27.454
	c3.94,2.678,4.961,8.043,2.283,11.982C460.724,325.306,458.012,326.627,455.252,326.627z"/>
<g>
	<path style="fill:#333333;" d="M511.659,308.874c-0.733-2.525-2.576-4.579-5.009-5.577c-22.643-9.292-41.712-22.447-56.675-39.098
		c-31.569-35.132-37.715-87.191-15.295-129.541c1.31-2.472,1.337-5.426,0.077-7.922c-1.262-2.497-3.655-4.227-6.42-4.642
		c-33.811-5.073-57.427,4.408-70.833,12.719l-5.002-42.517c-0.284-2.423-1.582-4.611-3.571-6.024
		c-1.991-1.413-4.483-1.916-6.865-1.388c-30.25,6.722-52.361,26.101-65.071,40.3l-6.834-39.295
		c-0.455-2.619-2.092-4.881-4.435-6.132c-2.347-1.251-5.136-1.351-7.563-0.273c-29.118,12.941-49.318,39.586-61.023,59.355
		l-7.543-45.259c-0.438-2.623-2.061-4.898-4.399-6.165s-5.13-1.386-7.566-0.319c-29.203,12.775-48.675,50.092-58.718,74.603
		l-12.039-31.603c-1.041-2.732-3.396-4.752-6.256-5.364c-2.854-0.613-5.834,0.268-7.903,2.336
		c-24.406,24.406-34.176,50.707-38.086,68.049l-20.672-22.791c-1.858-2.049-4.586-3.081-7.336-2.778
		c-2.75,0.304-5.186,1.907-6.551,4.312C2.771,204.306-2.254,225.345,0.872,254.261c3.685,34.083,18.578,65.022,41.311,88.863
		c-6.181,22.513-24.774,37.844-24.958,37.993c-2.676,2.154-3.819,5.69-2.909,9.002c0.91,3.312,3.697,5.769,7.098,6.255
		c2.944,0.421,5.864,0.613,8.753,0.613c24.928,0,47.272-14.383,56.661-21.374c5.444,2.628,11.07,4.975,16.879,6.984v23.119
		c0,14.749,11.302,26.834,25.73,27.513c7.447,0.347,14.55-2.291,19.948-7.439c5.321-5.076,8.372-12.204,8.372-19.555v-15.081h17.35
		v14.561c0,14.749,11.302,26.834,25.73,27.513c7.447,0.347,14.55-2.291,19.948-7.439c5.321-5.076,8.372-12.204,8.372-19.555v-15.081
		h17.349v14.561c0,14.749,11.302,26.834,25.73,27.513c7.458,0.347,14.55-2.291,19.948-7.439c5.321-5.076,8.372-12.204,8.372-19.555
		v-15.081H317.9v14.561c0,14.749,11.302,26.834,25.73,27.513c0.44,0.021,0.88,0.031,1.318,0.031c6.979,0,13.551-2.625,18.63-7.469
		c5.321-5.076,8.372-12.204,8.372-19.555v-15.733c34.995-3.043,69.168-15.992,99.318-37.706
		c25.454-18.331,39.02-36.36,39.141-36.531C511.931,314.121,512.391,311.399,511.659,308.874z M29.385,192.962l24.873,27.424
		c2.389,2.633,6.15,3.518,9.467,2.248c3.321-1.27,5.523-4.458,5.546-8.014c0.002-0.361,0.55-33.085,26.504-65.203l15.335,40.255
		c1.321,3.468,4.718,5.718,8.422,5.546c3.709-0.156,6.901-2.667,7.927-6.235c0.052-0.177,5.194-17.903,15.108-37.631
		c9.832-19.564,20.769-34.031,32.075-42.559l9.811,58.869c0.638,3.825,3.751,6.75,7.607,7.156c3.855,0.411,7.511-1.816,8.93-5.423
		c0.2-0.507,18.759-46.818,54.212-68.849l8.143,46.82c0.613,3.527,3.341,6.309,6.856,6.99c3.519,0.682,7.085-0.881,8.971-3.923
		c0.225-0.363,21.251-33.699,57.378-46.099l5.606,47.652c0.394,3.356,2.713,6.173,5.932,7.205c3.215,1.032,6.741,0.09,9.016-2.412
		c0.204-0.224,18.974-20.367,56.961-18.763c-9.908,24.004-12.357,50.025-7.78,74.732c-24.229-6.098-43.382-0.204-54.796,5.475
		c-5.628-14.738-19.912-25.233-36.603-25.233c-21.592,0-39.16,17.567-39.16,39.16c0,7.798,2.292,15.073,6.236,21.183
		c-20.961,0.287-49.412,1.972-78.537,7.623c-70.576,13.695-113.101,44.951-123.987,90.76
		c-33.968-21.953-56.955-58.044-61.416-99.313C15.672,230.671,18.569,214.519,29.385,192.962z M43.478,378.068
		c4.507-5.985,9.126-13.439,12.553-22.077c4.467,3.658,9.158,7.068,14.046,10.226C63.395,370.479,53.955,375.51,43.478,378.068z
		 M208.875,413.311c-1.95,1.862-4.524,2.826-7.229,2.689c-5.123-0.241-9.291-4.854-9.291-10.283v-14.561h19.55v15.081
		C211.905,408.934,210.829,411.446,208.875,413.311z M351.671,413.311c-1.95,1.862-4.53,2.821-7.229,2.689
		c-5.123-0.241-9.291-4.854-9.291-10.283v-14.588l19.55-0.06v15.166C354.701,408.935,353.625,411.446,351.671,413.311z
		 M363.082,373.795l-71.154,0.11c-4.764,0-8.625,3.862-8.625,8.625v23.706c0,2.698-1.076,5.211-3.03,7.075
		c-1.95,1.862-4.525,2.821-7.229,2.689c-5.123-0.241-9.291-4.854-9.291-10.283V382.53c0-4.763-3.86-8.625-8.625-8.625H154.615
		c-1.559,0-3.25-0.034-5.165-0.105c-2.369-0.081-4.618,0.783-6.303,2.408c-1.687,1.626-2.64,3.867-2.64,6.21v23.816
		c0,2.698-1.076,5.211-3.03,7.075c-1.95,1.862-4.516,2.826-7.229,2.689c-5.123-0.241-9.291-4.854-9.291-10.283v-29.394
		c0-3.808-2.497-7.164-6.143-8.26c-6.787-2.04-13.324-4.571-19.583-7.538c16.784-95.274,188.169-90.775,215.39-89.442
		c1.402,0.153,2.824,0.231,4.266,0.231c4.637,0,8.445-3.667,8.619-8.302c0.173-4.634-3.348-8.577-7.973-8.924
		c-0.307-0.023-1.557-0.114-3.629-0.227c-10.675-1.46-18.928-10.639-18.928-21.708c0-12.082,9.829-21.911,21.911-21.911
		s21.912,9.829,21.912,21.911c0,3.352,1.962,6.382,4.999,7.799c3.039,1.417,6.641,0.928,9.209-1.225
		c1.02-0.856,24.72-20.212,60.548-6.2c5.537,15.695,14.102,30.418,25.589,43.201c14.241,15.848,31.728,28.825,52.099,38.681
		C472.804,331.83,428.789,370.976,363.082,373.795z"/>
	<circle style="fill:#333333;" cx="390.626" cy="279.734" r="8.625"/>
</g>
<g>
	<circle style="fill:#FFFFFF;" cx="397.457" cy="244.234" r="8.625"/>
	<circle style="fill:#FFFFFF;" cx="321.558" cy="224.685" r="8.625"/>
</g>
<g>
</g>
<g>
</g>
<g>
</g>
<g>
</g>
<g>
</g>
<g>
</g>
<g>
</g>
<g>
</g>
<g>
</g>
<g>
</g>
<g>
</g>
<g>
</g>
<g>
</g>
<g>
</g>
<g>
</g>
</svg>
