<?xml version="1.0" encoding="utf-8"?>
<!-- Generator: Adobe Illustrator 24.0.0, SVG Export Plug-In . SVG Version: 6.00 Build 0)  -->
<svg version="1.1" id="Layer_1" xmlns="http://www.w3.org/2000/svg" xmlns:xlink="http://www.w3.org/1999/xlink" x="0px" y="0px"
	 viewBox="0 0 512 512" style="enable-background:new 0 0 512 512;" xml:space="preserve">
<style type="text/css">
	.st0{fill:#995C0D;}
	.st1{fill:#B27214;}
	.st2{fill:#F7B239;}
	.st3{fill:#4D4D4D;}
	.st4{fill:#E09B2D;}
</style>
<path class="st0" d="M65.9,92.4c-0.1,5.4,4.2,9.8,9.5,9.9c7.6,0.1,15.5,0.2,23.8,0.2c64.2,0,148.5-4.6,236.8-21.9l-9.8,13.6
	c-3.1,4.3-2.1,10.4,2.2,13.5c1.7,1.2,3.7,1.8,5.7,1.8c3,0,6-1.4,7.9-4l22.3-30.9c10.2-2.3,20.3-4.8,30.5-7.4
	c72.4-19,110.4-38.4,112-39.2c4.8-2.5,6.6-8.3,4.2-13.1c-2.5-4.8-8.3-6.6-13.1-4.2c-0.3,0.1-21.1,10.7-60.5,23.7l-73.7-21.9
	c-5.1-1.5-10.5,1.4-12.1,6.5c-1.5,5.1,1.4,10.5,6.5,12.1l45.6,13.5c-4.7,1.3-9.6,2.6-14.7,4c-53.4,13.9-135.1,29.7-240.4,33.5
	l-24.1-29.8c-3.4-4.2-9.5-4.8-13.6-1.5c-4.2,3.4-4.8,9.5-1.5,13.6l14.8,18.3c-15.7,0.3-31.9,0.3-48.5,0C70.4,82.8,66,87.1,65.9,92.4
	z"/>
<path class="st1" d="M204.2,146.7V71.8c0-5.4,4.3-9.7,9.7-9.7s9.7,4.3,9.7,9.7v74.9c0,5.4-4.3,9.7-9.7,9.7
	C208.5,156.4,204.2,152,204.2,146.7z"/>
<path class="st2" d="M62.1,351.1h30.3c-19.5,0-35.4,15.8-35.4,35.4c0,9.8,4,18.6,10.4,25s15.3,10.4,25,10.4H139
	c-19.3,0.2-34.9,16-34.9,35.4c0,9.8,4,18.6,10.4,25s15.3,10.4,25,10.4h148.8c19.5,0,35.4-15.8,35.4-35.4c0-9.8-4-18.6-10.4-25
	c-5.4-5.4-12.6-9.1-20.6-10.1v-0.3h42.6c19.5,0,35.4-15.8,35.4-35.4c0-9.8-4-18.6-10.4-25c-3.2-3.2-7-5.8-11.2-7.6
	c-4.2-1.8-8.9-2.8-13.8-2.8h30.4c19.5,0,35.4-15.8,35.4-35.4c0-9.8-4-18.6-10.4-25s-15.2-10.4-25-10.4h-30.4
	c19.5,0,35.4-15.8,35.4-35.4c0-9.8-4-18.6-10.4-25s-15.2-10.4-25-10.4h-42.6v-0.3c7-0.9,13.4-3.8,18.5-8.2
	c7.6-6.5,12.4-16.1,12.4-26.9c0-9.8-4-18.6-10.4-25s-15.2-10.4-25-10.4H139.5c-19.5,0-35.4,15.8-35.4,35.4c0,9.8,4,18.6,10.4,25
	c0.7,0.7,1.4,1.3,2.1,1.9c6.2,5.3,14.2,8.5,22.9,8.5l0,0h-47c-19.5,0-35.4,15.8-35.4,35.3c0,9.8,4,18.6,10.4,25
	c6.4,6.4,15.3,10.4,25,10.4H62.1c-19.5,0-35.4,15.8-35.4,35.4c0,9.8,4,18.6,10.4,25C43.5,347.1,52.3,351.1,62.1,351.1z M139,421.8
	c0.2,0,0.3,0,0.4,0l0,0H139z"/>
<path class="st3" d="M162.1,280.4c11.3-16.5,30.3-27.3,51.8-27.3s40.5,10.8,51.8,27.3c6.9,10.1,10.9,22.2,10.9,35.4
	s-4,25.3-10.9,35.4c-11.3,16.5-30.3,27.3-51.8,27.3s-40.5-10.8-51.8-27.3l0,0c-6.9-10.1-10.9-22.2-10.9-35.4
	S155.2,290.4,162.1,280.4L162.1,280.4z"/>
<g>
	<path class="st4" d="M245.6,209.7h42.7c19.5,0,35.4-15.8,35.4-35.4c0-9.8-4-18.6-10.4-25s-15.2-10.4-25-10.4h-42.7
		c9.8,0,18.6,4,25,10.4c6.4,6.4,10.4,15.2,10.4,25C280.9,193.8,265.1,209.7,245.6,209.7z"/>
	<path class="st4" d="M292.6,280.4h42.7c19.5,0,35.4-15.8,35.4-35.4c0-9.8-4-18.6-10.4-25s-15.2-10.4-25-10.4h-42.7
		c9.8,0,18.6,4,25,10.4s10.4,15.2,10.4,25C328,264.5,312.1,280.4,292.6,280.4z"/>
	<path class="st4" d="M323,351.1h42.7c19.5,0,35.4-15.8,35.4-35.4c0-9.8-4-18.6-10.4-25s-15.2-10.4-25-10.4H323
		c9.8,0,18.6,4,25,10.4s10.4,15.2,10.4,25C358.3,335.3,342.5,351.1,323,351.1z"/>
	<path class="st4" d="M292.6,421.8h42.7c19.5,0,35.4-15.8,35.4-35.4c0-9.8-4-18.6-10.4-25s-15.2-10.4-25-10.4h-42.7
		c9.8,0,18.6,4,25,10.4s10.4,15.2,10.4,25C328,406,312.1,421.8,292.6,421.8z"/>
	<path class="st4" d="M245.6,492.5h42.7c19.5,0,35.4-15.8,35.4-35.4c0-9.8-4-18.6-10.4-25s-15.2-10.4-25-10.4h-42.7
		c9.8,0,18.6,4,25,10.4c6.4,6.4,10.4,15.2,10.4,25C280.9,476.7,265.1,492.5,245.6,492.5z"/>
	<path class="st4" d="M0,245.1"/>
</g>
</svg>
