<?xml version="1.0" encoding="utf-8"?>
<!-- Generator: Adobe Illustrator 24.0.0, SVG Export Plug-In . SVG Version: 6.00 Build 0)  -->
<svg version="1.1" id="Layer_1" xmlns="http://www.w3.org/2000/svg" xmlns:xlink="http://www.w3.org/1999/xlink" x="0px" y="0px"
	 viewBox="0 0 512 512" style="enable-background:new 0 0 512 512;" xml:space="preserve">
<style type="text/css">
	.st0{fill:#9AD14B;}
	.st1{fill:#2BA5F7;}
	.st2{fill:#F95428;}
	.st3{fill:#F7B239;}
	.st4{fill:#995C0D;}
</style>
<polygon class="st0" points="353,134 187.9,298.9 250.9,32 251,32 "/>
<polygon class="st1" points="454.9,32 454.9,32 353,134 251,32 "/>
<polygon class="st2" points="454.9,32 454.9,235.9 353,134 "/>
<polygon class="st3" points="353,134 454.9,235.9 187.9,299 187.9,298.9 "/>
<path class="st4" d="M478.2,267.9c-2.2,0-4.5-0.9-6.2-2.6l-227-227c-0.1-0.1-0.2-0.2-0.3-0.3l-23.2-23.2c-3.4-3.4-3.4-8.9,0-12.3
	c3.4-3.4,8.9-3.4,12.3,0l23,23c0.1,0.1,0.2,0.2,0.3,0.3L484.3,253c3.4,3.4,3.4,8.9,0,12.3C482.6,267.1,480.4,267.9,478.2,267.9z"/>
<path class="st1" d="M190.3,304.7c-13.1,9.5-29.6,12.5-45.2,8.3c-15.6-4.2-28.3-15.1-34.9-29.9l-0.2-0.6
	c-5.9-13.3-20.5-20.6-34.7-17.3c-3.3,0.8-6.5,2.1-9.4,4c-12.9,8.2-17.8,24.8-11.3,38.6l63.4,135.9c1.2,2.5,2.1,5.2,2.7,7.9
	c3.7,15.9-2.6,32.2-15.9,41.6c-9.7,6.9-21.9,9-33.4,5.9c-11.5-3.1-20.9-11.1-25.9-22l-16.6-36.3c-1.6-3.5-4.8-5.7-8.7-6
	c-3.8-0.3-7.3,1.5-9.4,4.8c-0.8,1.3-2.1,2.2-3.6,2.6l0,0c-3.1,0.7-6.2-1.2-7-4.4c-0.4-1.6,0-3.2,0.8-4.5
	c4.4-6.9,11.8-10.6,19.9-10.1c8.1,0.5,15.1,5.4,18.5,12.8L56,472.3c3.5,7.7,10.2,13.3,18.3,15.6c8.1,2.2,16.8,0.7,23.7-4.2
	c9.5-6.7,13.9-18.2,11.3-29.5c-0.4-1.9-1.1-3.8-1.9-5.6L44,312.7c-8.9-19.1-2.2-42.1,15.6-53.4c4-2.6,8.4-4.4,13-5.5
	c19.6-4.5,39.8,5.5,48,23.9l0.2,0.6c5.1,11.6,15.1,20.1,27.3,23.4c12.2,3.3,25.1,0.9,35.4-6.5c2.6-1.9,6.2-1.3,8.1,1.3
	c0.5,0.6,0.8,1.4,1,2.1C193.1,300.9,192.3,303.3,190.3,304.7z"/>
<path class="st4" d="M187.9,307.7c-2.2,0-4.5-0.9-6.2-2.6c-3.4-3.4-3.4-8.9,0-12.3l165-165L448.5,26.1c0.1-0.1,0.2-0.2,0.3-0.3
	l19.9-19.9c3.4-3.4,8.9-3.4,12.3,0c3.4,3.4,3.4,8.9,0,12.3l-19.7,19.7c-0.1,0.1-0.2,0.2-0.3,0.3l-267,267
	C192.4,306.8,190.2,307.7,187.9,307.7z"/>
</svg>
