<?xml version="1.0" encoding="iso-8859-1"?>
<!-- Generator: Adobe Illustrator 19.0.0, SVG Export Plug-In . SVG Version: 6.00 Build 0)  -->
<svg version="1.1" id="Layer_1" xmlns="http://www.w3.org/2000/svg" xmlns:xlink="http://www.w3.org/1999/xlink" x="0px" y="0px"
	 viewBox="0 0 512 512" style="enable-background:new 0 0 512 512;" xml:space="preserve">
<path style="fill:#995C0D;" d="M314.448,207.517V189.53h-49.454v-58.844c0-4.967-4.026-8.994-8.994-8.994
	c-4.968,0-8.994,4.027-8.994,8.994v58.844H197.54v17.988h49.466v76.244h-39.798v17.988h39.798v95.251h-39.798v17.988h39.798v88.02
	c0,4.967,4.026,8.994,8.994,8.994c4.968,0,8.994-4.027,8.994-8.994v-88.02h39.805v-17.988h-39.805v-95.251h39.805v-17.988h-39.805
	v-76.244H314.448z"/>
<path style="fill:#9AD14B;" d="M355.22,368.926c37.246,0,67.442,18.479,67.442,41.264s-30.195,41.252-67.442,41.252
	s-67.442-18.467-67.442-41.252S317.973,368.926,355.22,368.926z"/>
<g>
	<path style="fill:#F7B239;" d="M156.78,368.926c37.246,0,67.442,18.479,67.442,41.264s-30.195,41.252-67.442,41.252
		s-67.442-18.467-67.442-41.252S119.534,368.926,156.78,368.926z"/>
	<path style="fill:#F7B239;" d="M355.22,250.904c37.246,0,67.442,18.467,67.442,41.252c0,22.784-30.195,41.264-67.442,41.264
		s-67.442-18.479-67.442-41.264S317.973,250.904,355.22,250.904z"/>
</g>
<path style="fill:#9AD14B;" d="M156.78,250.904c37.246,0,67.442,18.467,67.442,41.252c0,22.784-30.195,41.264-67.442,41.264
	s-67.442-18.479-67.442-41.264S119.534,250.904,156.78,250.904z"/>
<path style="fill:#F4D13B;" d="M217.926,202.721c-9.605,20.662-44.777,24.679-78.546,8.97s-53.363-45.185-43.758-65.847
	s44.777-24.679,78.546-8.97C207.949,152.571,227.532,182.059,217.926,202.721z"/>
<path style="fill:#90BC42;" d="M416.366,145.844c9.605,20.662-9.977,50.138-43.758,65.847c-33.769,15.709-68.941,11.692-78.546-8.97
	c-9.605-20.662,9.989-50.15,43.758-65.847C371.589,121.165,406.76,125.182,416.366,145.844z"/>
<path style="fill:#9AD14B;" d="M297.252,67.442c0,37.246-18.467,67.442-41.252,67.442s-41.264-30.195-41.264-67.442S233.216,0,256,0
	S297.252,30.195,297.252,67.442z"/>
<g>
	<path style="fill:#90BC42;" d="M256,0v134.883c-22.784,0-41.264-30.195-41.264-67.442S233.216,0,256,0z"/>
	<path style="fill:#90BC42;" d="M89.339,292.155h134.883c0,22.784-30.195,41.264-67.442,41.264S89.339,314.939,89.339,292.155z"/>
</g>
<path style="fill:#F4D13B;" d="M89.339,410.178h134.883c0,22.784-30.195,41.264-67.442,41.264S89.339,432.962,89.339,410.178z"/>
<path style="fill:#F7B239;" d="M217.926,202.721c-9.605,20.662-44.777,24.679-78.546,8.97s-53.363-45.185-43.758-65.847
	L217.926,202.721z"/>
<path style="fill:#F4D13B;" d="M422.661,292.155H287.778c0,22.784,30.195,41.264,67.442,41.264S422.661,314.939,422.661,292.155z"/>
<path style="fill:#90BC42;" d="M422.661,410.178H287.778c0,22.784,30.195,41.264,67.442,41.264S422.661,432.962,422.661,410.178z"/>
<path style="fill:#9AD14B;" d="M294.074,202.721c9.605,20.662,44.777,24.679,78.546,8.97s53.363-45.185,43.758-65.847
	L294.074,202.721z"/>
<g>
</g>
<g>
</g>
<g>
</g>
<g>
</g>
<g>
</g>
<g>
</g>
<g>
</g>
<g>
</g>
<g>
</g>
<g>
</g>
<g>
</g>
<g>
</g>
<g>
</g>
<g>
</g>
<g>
</g>
</svg>
