<?xml version="1.0" encoding="utf-8"?>
<!-- Generator: Adobe Illustrator 24.0.0, SVG Export Plug-In . SVG Version: 6.00 Build 0)  -->
<svg version="1.1" id="Layer_1" xmlns="http://www.w3.org/2000/svg" xmlns:xlink="http://www.w3.org/1999/xlink" x="0px" y="0px"
	 viewBox="0 0 100 100" style="enable-background:new 0 0 100 100;" xml:space="preserve">
<style type="text/css">
	.st0{fill:#DF1324;}
	.st1{fill:url(#SVGID_1_);}
	.st2{fill:#FF8E00;}
</style>
<path class="st0" d="M45.9,98.3c0.2,0.8,1.1,1.6,3.6,1.7c2.6,0.2,4.3-0.2,4.3-1.6c0.1-1.4-0.9-2.9-1.1-4.1c-0.2-1.2-0.8-8.9-1-13
	c-0.2-4-0.3-11.8-0.3-11.8L48.1,70c0,0,0,8-0.1,12.1c-0.2,4-0.8,10-0.9,11.5C47,95,45.6,96.6,45.9,98.3z"/>
<radialGradient id="SVGID_1_" cx="50.8809" cy="38.9372" r="34.9109" gradientTransform="matrix(0.9999 1.350000e-02 1.730000e-02 -1.2815 -0.46 106.71)" gradientUnits="userSpaceOnUse">
	<stop  offset="0.596" style="stop-color:#FF5617"/>
	<stop  offset="1" style="stop-color:#DF1024"/>
</radialGradient>
<path class="st1" d="M49.8,71.2c0,0-4.6,5.3-7.9,7.3c-3.3,2-7.9,4.4-8.7,3.8c-0.8-0.6,1.2-4.6,1.2-4.6s-6.9,1.6-14.6-0.7
	C12.4,74.8,8,71.6,8.4,70.7s3.8-1.4,7.2-2.7c3.4-1.3,7.9-3.5,7.9-3.5s-6.5-2.4-10.2-4.7c-3.7-2.3-6.1-4.5-6.1-5.2
	c-0.1-0.7,5.2-2.1,5.2-2.1s-2.9-2-5-8.4S4.6,32.8,5,32.4c1-1.1,9.7,1.9,12.2,3.2c2.4,1.3,6.3,3.7,6.3,3.7s-0.2-5,0.6-5
	c0.8,0,3,2,4.9,4.5s7.5,11.1,8.9,10.4c1.4-0.7,0.1-4.8-1.9-8.9c-1.2-2.6-3-6.8-4-11.9c-1-5-0.4-9.1,0.2-9.6c0.6-0.5,6.2,3.9,6.2,3.9
	s-0.4-4.8,0.5-8.9c0.9-4.1,1.7-5.4,2.2-5.4c0.5-0.1,2.5,2.8,2.5,2.8s0.8-4.1,2.4-7C47.5,1.3,49,0,49.7,0s2.9,2.9,3.9,6
	s1.6,5.6,1.6,5.6S56.4,9,57,8.9c0.5-0.1,2.1,1.8,3,6.2c0.8,4.4,0.8,7.4,0.8,7.4s3.6-3.7,4.2-3.8c0.7-0.1,2.3,4.2,1.1,10.1
	c-1.2,5.9-4.5,11.5-5.2,14.6c-0.7,3.1-1.4,6.1-0.2,6.4c1.2,0.3,2.5-3.4,5.1-7.5c2.6-4.1,6.3-8.5,6.8-8.2c0.5,0.3,1.2,1.9,1.4,2.7
	s0.2,2.4,0.2,2.4s3.8-2.6,7.1-3.8c3.3-1.2,10.7-4,12.3-2.6c1.6,1.3-1.2,8.4-2.9,12.1c-1.7,3.6-5.3,9.1-5.3,9.1s4.9,0.9,4.9,1.7
	s-4.1,4.1-7.7,6s-8.3,3.4-8.3,3.4s2.1,1.4,6.9,3c4.9,1.6,8.9,2.1,9.2,2.9c0.3,0.8-1.9,3.7-9.3,5.7c-7.4,2-15.7,0.9-16.1,1.3
	c-0.4,0.4,2,3.7,1.4,4.6c-0.7,0.9-5.1-0.3-8.6-3.3C53.4,75.2,49.8,71.2,49.8,71.2z"/>
<path class="st2" d="M49.9,73.2c0,0,1.5-1.2,4.6-1.8c1.7-0.3,4.1-0.4,6.6-0.3c6.8,0.1,14.1,1.4,18,1.6c3.8,0.1,7.4,0,7.3-0.8
	c-0.1-0.8-5.9-0.4-10.4-1.3c-4.5-0.8-10.9-1.7-13.6-1.9c-6.9-0.3-8.4,0.6-8.4,0.6s8.9-7.9,12.3-10.5c3.3-2.6,8.7-6.7,13.6-11.1
	c4.3-3.8,12.1-11.9,11.6-12.6c-0.5-0.7-10.2,8.5-13.7,11.3c-3.5,2.8-8.2,6.3-15.4,12c-7.2,5.7-11.1,9.4-11.1,9.4s-0.6-21.4-0.8-26.5
	c-0.2-5-0.2-24-0.3-26.3c-0.1-2.3,0.3-11.8-0.8-11.8C48.3,3.4,48.1,11.1,48,15s-0.1,20.3-0.3,25.4s0.2,27.2,0.2,27.2
	S34.2,57.2,29,53.2S15.4,41.4,14.2,40.4c-1.2-1-5.6-5.1-6.1-4.6s6,7.4,8.4,9.5S29.9,57.1,34.7,61c4.7,3.9,10.7,8.2,10.7,8.2
	s-5.6-0.6-13.2,0c-5.8,0.5-11.1,1.2-13.5,1.4c-2.4,0.2-6,0.3-6.1,0.8c-0.1,0.5,2.9,1.3,9.1,0.9c6.1-0.4,9.3-0.7,13.8-0.9
	c6.1-0.3,10-0.1,11.5,0.3C48.4,72.1,49.9,73.2,49.9,73.2z"/>
</svg>
