<?xml version="1.0" encoding="iso-8859-1"?>
<!-- Generator: Adobe Illustrator 19.0.0, SVG Export Plug-In . SVG Version: 6.00 Build 0)  -->
<svg version="1.1" id="Layer_1" xmlns="http://www.w3.org/2000/svg" xmlns:xlink="http://www.w3.org/1999/xlink" x="0px" y="0px"
	 viewBox="0 0 497.66 497.66" style="enable-background:new 0 0 497.66 497.66;" xml:space="preserve">
<path style="fill:#FF7F00;" d="M131.395,274.561C89.75,283.438,57.73,335.804,57.73,399.316c0,63.464,32.012,85,73.665,88.34
	V274.561z"/>
<path style="fill:#FF4800;" d="M130.97,274.561c41.614,8.877,73.626,61.243,73.626,124.755c0,63.464-32.004,85-73.626,88.34V274.561
	z"/>
<path style="fill:#FFBC00;" d="M131.332,349.943c-26.955,5.695-47.6,39.55-47.6,80.573c0,41.078,20.645,54.973,47.6,57.139V349.943z
	"/>
<path style="fill:#FF7F00;" d="M131.056,349.943c26.86,5.695,47.561,39.55,47.561,80.573c0,41.078-20.701,54.973-47.561,57.139
	V349.943z"/>
<path style="fill:#B73D13;" d="M131.182,467.435c-10.484,0-19.354,6.727-22.701,16.045c7.018,2.15,14.557,3.458,22.481,4.12v0.047
	c0.087-0.032,0.165-0.032,0.213-0.032c0.063,0,0.15,0,0.205,0.032V487.6c7.893-0.662,15.447-1.969,22.473-4.12
	C150.504,474.154,141.659,467.435,131.182,467.435z"/>
<g>
	<path style="fill:#FF7F00;" d="M53.469,487.868c0,4.443-3.6,8.019-8.003,8.019c-4.45,0-8.034-3.568-8.034-8.019
		c0-4.427,3.576-8.019,8.034-8.019C49.869,479.849,53.469,483.433,53.469,487.868z"/>
	<path style="fill:#FF7F00;" d="M35.304,390.572c0,9.704-7.908,17.644-17.66,17.644C7.908,408.217,0,400.277,0,390.572
		c0-9.752,7.908-17.644,17.644-17.644C27.396,372.928,35.304,380.821,35.304,390.572z"/>
	<path style="fill:#FF7F00;" d="M40.621,453.115c0,4.135-3.34,7.475-7.475,7.475c-4.151,0-7.475-3.34-7.475-7.475
		c0-4.12,3.324-7.475,7.475-7.475C37.289,445.632,40.621,448.988,40.621,453.115z"/>
</g>
<g>
	<path style="fill:#FFBC00;" d="M43.843,417.314c0,1.465-1.182,2.678-2.678,2.678c-1.449,0-2.647-1.213-2.647-2.678
		c0-1.489,1.197-2.678,2.647-2.678C42.654,414.636,43.843,415.818,43.843,417.314z"/>
	<circle style="fill:#FFBC00;" cx="26.199" cy="322.145" r="11.24"/>
	<circle style="fill:#FFBC00;" cx="230.943" cy="470.247" r="16.037"/>
	<path style="fill:#FFBC00;" d="M256.614,392.187c0,4.695-3.852,8.539-8.562,8.539c-4.726,0-8.546-3.844-8.546-8.539
		c0-4.758,3.82-8.57,8.546-8.57C252.763,383.617,256.614,387.437,256.614,392.187z"/>
</g>
<g>
	<path style="fill:#FF7F00;" d="M228.809,313.032c0,5.908-4.805,10.705-10.665,10.705c-5.916,0-10.705-4.797-10.705-10.705
		c0-5.892,4.789-10.665,10.705-10.665C224.004,302.374,228.809,307.14,228.809,313.032z"/>
	<path style="fill:#FF7F00;" d="M195.663,484.639c0,1.489-1.189,2.694-2.686,2.694c-1.465,0-2.655-1.197-2.655-2.694
		c0-1.449,1.189-2.647,2.655-2.647C194.473,481.992,195.663,483.189,195.663,484.639z"/>
</g>
<g>
	<path style="fill:#FFBC00;" d="M76.997,269.756c0,3.245-2.623,5.86-5.908,5.86c-3.214,0-5.86-2.615-5.86-5.86
		s2.647-5.908,5.86-5.908C74.374,263.848,76.997,266.511,76.997,269.756z"/>
	<path style="fill:#FFBC00;" d="M203.13,262.816c0,1.15-0.906,2.111-2.111,2.111c-1.189,0-2.15-0.953-2.15-2.111
		c0-1.197,0.961-2.15,2.15-2.15C202.224,260.666,203.13,261.619,203.13,262.816z"/>
	<path style="fill:#FFBC00;" d="M117.618,247.283c0,2.694-2.143,4.829-4.821,4.829c-2.647,0-4.797-2.135-4.797-4.829
		c0-2.647,2.15-4.797,4.797-4.797C115.468,242.478,117.618,244.637,117.618,247.283z"/>
	<path style="fill:#FFBC00;" d="M100.51,193.295c0,5.309-4.317,9.633-9.633,9.633c-5.293,0-9.626-4.324-9.626-9.633
		c0-5.309,4.332-9.618,9.626-9.618C96.193,183.677,100.51,187.986,100.51,193.295z"/>
</g>
<path style="fill:#9E7343;" d="M493.371,420.528c5.719,5.727,5.719,14.982,0,20.693l0,0c-5.719,5.727-14.99,5.727-20.701,0
	L63.252,31.834c-5.711-5.727-5.711-14.998,0-20.708l0,0c5.727-5.727,14.982-5.727,20.701,0L493.371,420.528z"/>
<path style="fill:#D6D3A5;" d="M192.536,43.893c9.468,9.476,9.468,24.844,0,34.304l-62.188,62.188
	c-9.476,9.476-24.828,9.476-34.296,0l-35.029-35.013c-9.468-9.476-9.468-24.844,0-34.304L123.219,8.88
	c9.46-9.476,24.828-9.476,34.304,0L192.536,43.893z"/>
<path style="fill:#C1BC8B;" d="M157.515,8.88l35.013,35.013c9.468,9.476,9.468,24.844,0,34.304l-62.188,62.188
	c-9.476,9.476-24.828,9.476-34.296,0"/>
<ellipse transform="matrix(-0.707 -0.7072 0.7072 -0.707 130.7401 137.6918)" style="fill:#9E7343;" cx="93.893" cy="41.763" rx="8.09" ry="50.026"/>
<ellipse transform="matrix(-0.707 -0.7072 0.7072 -0.707 196.4226 296.205)" style="fill:#C1BC8B;" cx="159.57" cy="107.414" rx="8.097" ry="50.026"/>
<path style="fill:#D6D3A5;" d="M280.426,131.807c9.476,9.476,9.492,24.828,0.016,34.304L218.254,228.3
	c-9.476,9.476-24.836,9.46-34.304,0l-35.021-35.029c-9.484-9.476-9.484-24.828,0-34.296l62.18-62.188
	c9.484-9.476,24.836-9.476,34.304,0L280.426,131.807z"/>
<path style="fill:#C1BC8B;" d="M245.406,96.787l35.013,35.013c9.476,9.476,9.492,24.828,0.016,34.304l-62.188,62.188
	c-9.476,9.476-24.836,9.46-34.304,0"/>
<path style="fill:#9E7343;" d="M217.175,94.298c3.159,3.135-10.106,21.536-29.665,41.078
	c-19.527,19.551-37.935,32.815-41.078,29.664c-3.174-3.151,10.106-21.536,29.649-41.094
	C195.623,104.404,214.024,91.123,217.175,94.298z"/>
<path style="fill:#C1BC8B;" d="M282.837,159.96c3.159,3.135-10.122,21.535-29.649,41.094c-19.551,19.535-37.943,32.815-41.11,29.649
	c-3.151-3.135,10.122-21.535,29.665-41.094C261.285,170.066,279.694,156.785,282.837,159.96z"/>
<path style="fill:#D6D3A5;" d="M368.333,219.698c9.476,9.476,9.476,24.844,0,34.304l-62.188,62.196c-9.46,9.46-24.828,9.46-34.296,0
	l-35.021-35.029c-9.46-9.476-9.46-24.828,0-34.304l62.188-62.188c9.476-9.46,24.836-9.46,34.304,0L368.333,219.698z"/>
<path style="fill:#C1BC8B;" d="M333.32,184.677l35.013,35.013c9.476,9.476,9.476,24.844,0,34.304l-62.188,62.196
	c-9.46,9.46-24.828,9.46-34.296,0"/>
<ellipse transform="matrix(-0.707 -0.7072 0.7072 -0.707 306.4923 562.1857)" style="fill:#9E7343;" cx="269.702" cy="217.604" rx="8.074" ry="50.034"/>
<ellipse transform="matrix(-0.7071 -0.7071 0.7071 -0.7071 372.2288 720.6334)" style="fill:#C1BC8B;" cx="335.362" cy="283.226" rx="8.082" ry="50.034"/>
<g>
	<path style="fill:#9E7343;" d="M421.935,349.589c0,4.214-3.426,7.617-7.633,7.617l0,0c-4.214,0-7.633-3.403-7.633-7.617v-57.722
		c0.024-4.183,3.434-7.617,7.633-7.617l0,0c4.206,0,7.633,3.419,7.633,7.633V349.589z"/>
	<path style="fill:#9E7343;" d="M377.029,328.636c4.214,0,7.633,3.419,7.633,7.633l0,0c0,4.198-3.419,7.601-7.625,7.617h-57.714
		c-4.206,0-7.617-3.419-7.617-7.617l0,0c0-4.214,3.411-7.633,7.625-7.633H377.029z"/>
	<path style="fill:#9E7343;" d="M433.577,314.434c1.26,0,2.284,1.016,2.284,2.276l0,0c0,1.245-1.024,2.276-2.284,2.276h-17.235
		c-1.26,0-2.276-1.016-2.276-2.276l0,0c0-1.26,1.016-2.276,2.276-2.276H433.577z"/>
</g>
<g>
</g>
<g>
</g>
<g>
</g>
<g>
</g>
<g>
</g>
<g>
</g>
<g>
</g>
<g>
</g>
<g>
</g>
<g>
</g>
<g>
</g>
<g>
</g>
<g>
</g>
<g>
</g>
<g>
</g>
</svg>
