<?xml version="1.0" encoding="utf-8"?>
<!-- Generator: Adobe Illustrator 24.0.0, SVG Export Plug-In . SVG Version: 6.00 Build 0)  -->
<svg version="1.1" id="Layer_1" xmlns="http://www.w3.org/2000/svg" xmlns:xlink="http://www.w3.org/1999/xlink" x="0px" y="0px"
	 viewBox="0 0 512 512" style="enable-background:new 0 0 512 512;" xml:space="preserve">
<style type="text/css">
	.st0{fill:#F9DCB2;}
	.st1{fill:#DDBB8E;}
	.st2{fill:#B27214;}
	.st3{fill:#995C0D;}
</style>
<path class="st0" d="M169.9,512c28.4,0,51.5-20.3,56.6-46.7c14.1,10.8,31.7,17.3,51,17.3c46.7,0,83.7-38,83.7-83.6
	c0-3.1-0.2-6.3-0.5-9.5l-9.1-110.2l-3.2-38.8l-0.1-3.4c-16.5,1.8-34,2.8-52.2,3.2c10.2,13.8-159.6,104.2-174.8,102.6l-0.2,2.3
	l-2.8,34.6l-5.6,68C108.8,482.1,135.6,512,169.9,512z"/>
<g>
	<path class="st1" d="M258,480.4c6.3,1.5,12.8,2.3,19.5,2.3c46.7,0,83.7-38,83.7-83.6c0-3.1-0.2-6.3-0.5-9.5l-9.1-110.2l-3.2-38.8
		l-0.1-3.4c-3.1-17-34.3-14.7-35-14.6c-3,0.2-12.4,1.8-12.4,1.8c-4.4,0.2-57.6,28.3-62.1,28.4c10.2,13.8,73.3,16.1,73.8,29.7
		c0.1,0,0.2,0,0.3,0l8.8,107.2c0.4,3.2,0.5,6.3,0.5,9.5C322.2,438.1,295.1,471.5,258,480.4z"/>
	<path class="st1" d="M193.5,448c0.2,2.2,0.4,4.4,0.4,6.5c0,3.7-0.4,7.4-1,10.9c-4,20.9-19.4,38-39.7,44.2c5.3,1.6,11,2.5,16.8,2.5
		c28.4,0,51.5-20.3,56.6-46.7c0.7-3.5,1-7.2,1-10.9c0-2.1-0.1-4.3-0.4-6.5l-5.6-68l-2.8-34.6l-0.2-2.3c-14-18.1-49-29.5-54.7-29.4
		c0,0-33.7,14.8-42.5,29.4l-0.2,2.3l-2.8,34.6c1,0.1,2,0.2,3.1,0.3c15.2,1.6,31.5,2.3,48.6,2.3c6.2,0,12.2-0.1,18.2-0.3L193.5,448z"
		/>
</g>
<path class="st2" d="M27.2,284c0,35.9,39.2,53.2,94.1,59c15.2,1.6,31.5,2.3,48.6,2.3c17.1,0,33.4-0.7,48.6-2.3
	c54.9-5.8,94.1-23.2,94.1-59c0-14-6-29.2-16.5-43.5c18.2-0.4,35.7-1.5,52.2-3.2c79.6-8.5,136.5-33.7,136.5-85.7
	C484.8,85.1,392,0,277.5,0C163.1,0,70.3,85.1,70.3,151.5c0,19.5,8,35.3,22.2,47.8C53.2,220.4,27.2,254.8,27.2,284z"/>
<path class="st3" d="M167.1,343c-7.4,0.8-15,1.4-22.9,1.7c8.3,0.4,16.9,0.6,25.7,0.6c17.1,0,33.4-0.7,48.6-2.3
	c54.9-5.8,94.1-23.2,94.1-59c0-14-6-29.2-16.5-43.5c-0.6-0.8-1.2-1.6-1.8-2.4c0.6,0.8,1.2,1.6,1.8,2.4c18.2-0.4,35.7-1.5,52.2-3.2
	c79.6-8.5,136.5-33.7,136.5-85.7C484.8,85.1,392,0,277.5,0c-11.2,0-22.1,0.8-32.8,2.3c98.9,14.1,174.4,89.2,174.4,149.2
	c0,49.8-52.1,75-126.5,84.5c0,0,0,0,0,0c-24.9-30.7-70.5-56.4-122.8-56.4c-8.8,0-17.4,0.7-25.7,2.1c43.7,7.1,80.4,31.4,100.5,58.7
	c10.5,14.3,16.5,29.5,16.5,43.5C261.2,319.8,222,337.2,167.1,343z"/>
</svg>
