<?xml version="1.0" encoding="iso-8859-1"?>
<!-- Generator: Adobe Illustrator 19.0.0, SVG Export Plug-In . SVG Version: 6.00 Build 0)  -->
<svg version="1.1" id="Layer_1" xmlns="http://www.w3.org/2000/svg" xmlns:xlink="http://www.w3.org/1999/xlink" x="0px" y="0px"
	 viewBox="0 0 512 512" style="enable-background:new 0 0 512 512;" xml:space="preserve">
<path style="fill:#9AD14B;" d="M212.891,89.113L212.891,89.113C212.891,39.898,252.788,0,302.003,0l0,0l0,0
	C302.004,49.215,262.107,89.113,212.891,89.113L212.891,89.113z"/>
<path style="fill:#995C0D;" d="M211.415,104.15c-0.175,0-0.351-0.005-0.528-0.016c-4.778-0.287-8.42-4.387-8.145-9.163l0,0
	c0.008-0.133,0.68-13.477-4.092-27.987c-6.02-18.298-17.714-30.045-34.759-34.916c-4.608-1.317-7.278-6.121-5.961-10.73
	c1.318-4.609,6.122-7.275,10.73-5.961c22.79,6.512,38.929,22.685,46.671,46.771c5.641,17.549,4.779,33.184,4.74,33.842
	C219.793,100.598,215.971,104.15,211.415,104.15z"/>
<path style="fill:#F95428;" d="M293.566,179.215c0,15.715,6.029,30.666,16.525,42.215c-19.071,10.473,25.374,196.89-48.881,256.706
	c-16.988,6.365-35.411,9.79-54.656,9.651c-84.466-0.602-152.881-70.579-151.631-155.045c0.66-45.213,20.969-85.658,52.769-113.199
	c6.828-5.925,12.22-13.181,15.9-21.223c3.68-8.031,5.647-16.849,5.647-25.899c0-22.682,9.2-43.234,24.07-58.093
	c14.859-14.87,35.411-24.07,58.093-24.07c45.375,0,82.163,36.788,82.163,82.163L293.566,179.215L293.566,179.215z"/>
<path style="fill:#995C0D;" d="M339.706,227.737c-4.556,0-8.379-3.552-8.655-8.16c-1.045-17.414,5.997-52.924,40.128-62.676
	c4.608-1.317,9.412,1.352,10.73,5.961c1.317,4.609-1.352,9.413-5.961,10.73c-29.415,8.405-27.592,44.581-27.57,44.945
	c0.287,4.785-3.358,8.897-8.143,9.184C340.056,227.731,339.879,227.737,339.706,227.737z"/>
<path style="fill:#F7B239;" d="M457.081,395.708c0.926,63.358-50.374,115.838-113.732,116.289
	c-32.113,0.22-61.205-12.776-82.14-33.86c-20.552-20.714-33.247-49.228-33.247-80.705c0-32.541,13.563-61.911,35.353-82.764
	c9.327-8.934,14.778-21.177,14.778-34.103v-5.092c0-23.295,12.926-43.569,31.997-54.042c8.783-4.837,18.886-7.58,29.625-7.58
	c17.011,0,32.425,6.897,43.569,18.053c11.156,11.144,18.053,26.558,18.053,43.569c0,6.781,1.47,13.401,4.235,19.418
	c2.754,6.041,6.793,11.48,11.919,15.923C441.343,331.471,456.572,361.802,457.081,395.708z"/>
<path style="fill:#E09B2D;" d="M305.873,478.137c-16.004-20.714-25.889-49.228-25.889-80.705c0-32.541,10.561-61.911,27.529-82.764
	c7.263-8.934,11.507-21.177,11.507-34.103v-5.092c0-23.295,10.066-43.569,24.916-54.042c3.467-2.452,7.201-4.36,11.127-5.652
	c-4.908-1.258-10.049-1.928-15.347-1.928c-10.739,0-20.842,2.743-29.625,7.58c-19.071,10.473-31.997,30.747-31.997,54.042v5.092
	c0,12.926-5.451,25.17-14.778,34.103c-21.79,20.853-35.353,50.223-35.353,82.764c0,31.476,12.695,59.99,33.247,80.705
	c20.934,21.085,50.027,34.08,82.14,33.86c4.794-0.035,9.517-0.371,14.156-0.982C337.43,507.635,319.448,495.695,305.873,478.137z"/>
<path style="fill:#E54728;" d="M112.2,332.744c0.533-45.213,16.975-85.658,42.719-113.199c5.527-5.925,9.893-13.181,12.872-21.223
	c2.979-8.031,4.572-16.849,4.572-25.899c0-22.682,7.448-43.234,19.486-58.093c9.277-11.469,21.302-19.542,34.739-22.646
	c-4.924-0.921-9.994-1.425-15.185-1.425c-22.682,0-43.234,9.2-58.093,24.07c-14.87,14.859-24.07,35.411-24.07,58.093
	c0,9.049-1.967,17.868-5.647,25.899c-3.68,8.043-9.073,15.298-15.9,21.223c-31.8,27.542-52.11,67.987-52.769,113.199
	c-1.25,84.466,67.165,154.443,151.631,155.045c5.654,0.04,11.235-0.235,16.732-0.794C160.388,479.074,111.247,412.348,112.2,332.744
	z"/>
<g>
</g>
<g>
</g>
<g>
</g>
<g>
</g>
<g>
</g>
<g>
</g>
<g>
</g>
<g>
</g>
<g>
</g>
<g>
</g>
<g>
</g>
<g>
</g>
<g>
</g>
<g>
</g>
<g>
</g>
</svg>
