<?xml version="1.0" encoding="iso-8859-1"?>
<!-- Generator: Adobe Illustrator 19.0.0, SVG Export Plug-In . SVG Version: 6.00 Build 0)  -->
<svg version="1.1" id="Layer_1" xmlns="http://www.w3.org/2000/svg" xmlns:xlink="http://www.w3.org/1999/xlink" x="0px" y="0px"
	 viewBox="0 0 512 512" style="enable-background:new 0 0 512 512;" xml:space="preserve">
<path style="fill:#E6E6E6;" d="M188.18,373.401c-1.492,0.075-2.984,0.112-4.488,0.112c-8.317,0-16.386-1.082-24.07-3.121
	c-40.356-10.63-70.108-47.368-70.108-91.056c0-35.333,19.457-66.117,48.226-82.217c8.28-4.65,17.331-8.069,26.917-10.046
	l4.836,38.355c-10.17,2.661-19.208,8.143-26.22,15.553c-9.499,9.983-15.317,23.498-15.317,38.355
	c0,19.905,10.443,37.372,26.133,47.232c8.491,5.334,18.512,8.442,29.254,8.504L188.18,373.401z"/>
<g>
	<path style="fill:#CCCCCC;" d="M169.494,225.428c-10.17,2.661-19.208,8.143-26.22,15.553l-1.964-15.553l-3.568-28.309
		c8.28-4.65,17.331-8.069,26.917-10.046L169.494,225.428z"/>
	<path style="fill:#CCCCCC;" d="M188.18,373.401c-1.492,0.075-2.984,0.112-4.488,0.112c-8.317,0-16.386-1.082-24.07-3.121
		l-4.463-35.321l-1.069-8.504c8.491,5.334,18.512,8.442,29.254,8.504L188.18,373.401z"/>
</g>
<path style="fill:#995C0D;" d="M153.479,77.701c-0.127,0-0.252-0.004-0.379-0.011c-3.42-0.206-6.029-3.142-5.832-6.561
	c0.065-1.211,1.238-28.895-23.583-37.169c-3.257-1.087-5.018-4.606-3.932-7.864c1.087-3.257,4.606-5.019,7.864-3.932
	c27.183,9.061,32.859,36.467,32.064,49.692C159.479,75.159,156.742,77.701,153.479,77.701z"/>
<path style="fill:#CC2105;" d="M389.339,166.895l-39.373,311.922H198.163l-39.375-311.947c0,0,16.82-39.834,44.142-39.834h142.271
	C372.522,127.036,389.339,166.895,389.339,166.895z"/>
<polygon style="fill:#A01102;" points="234.119,373.401 240.086,478.817 198.163,478.817 184.861,373.401 180.024,335.071 
	166.174,225.428 161.338,187.074 158.789,166.871 222.444,166.871 223.588,187.074 225.751,225.428 231.955,335.071 "/>
<polygon style="fill:#B27214;" points="365.469,4.202 353.198,108.773 333.915,125.793 316.895,108.773 329.663,0 "/>
<path style="fill:#E6E6E6;" d="M371.213,108.773h-18.015H196.025c-16.274,12.358-24.535,23.026-39.847,37.397l2.611,20.7h151.28
	l17.008-6.888l19.295,6.888h18.015h24.766l0.186,0.025l7.335-58.122C396.675,108.773,371.213,108.773,371.213,108.773z"/>
<polygon style="fill:#995C0D;" points="353.198,108.773 346.373,166.871 330.599,166.871 310.069,166.871 316.895,108.773 "/>
<path style="fill:#F7B239;" d="M196.659,101.214c0,2.574-0.211,5.097-0.634,7.559l-39.847,37.397
	c-1.554,0.162-3.133,0.249-4.724,0.249c-24.965,0-45.193-20.24-45.193-45.205s20.228-45.193,45.193-45.193
	S196.659,76.249,196.659,101.214z"/>
<path style="fill:#E09B2D;" d="M196.025,108.773h-44.571l3.702,29.311c-1.908-1.355-3.707-2.856-5.381-4.484
	c-0.144-0.14-0.296-0.275-0.439-0.418c-0.126-0.126-0.242-0.257-0.366-0.384c-7.959-8.146-12.871-19.282-12.871-31.571
	c0-0.002,0-0.005,0-0.007c0-0.001,0-0.004,0-0.005c0-0.019,0.001-0.037,0.001-0.055c0.001-0.699,0.021-1.394,0.052-2.085
	c0.011-0.235,0.03-0.469,0.044-0.702c0.03-0.471,0.063-0.941,0.107-1.407c0.027-0.293,0.06-0.586,0.092-0.878
	c0.042-0.369,0.088-0.736,0.14-1.103c0.053-0.385,0.109-0.768,0.172-1.15c0.009-0.055,0.015-0.111,0.025-0.165l0.006-0.005
	c2.755-16.376,14.311-29.752,29.639-35.111c-4.668-1.635-9.684-2.53-14.913-2.53c-0.002,0-0.004,0-0.006,0s-0.004,0-0.006,0
	c-22.39,0-40.958,16.274-44.552,37.641l-0.005,0.004c-0.01,0.055-0.015,0.111-0.025,0.165c-0.062,0.382-0.118,0.766-0.172,1.15
	c-0.051,0.366-0.098,0.734-0.14,1.103c-0.034,0.292-0.065,0.584-0.092,0.878c-0.044,0.467-0.078,0.936-0.107,1.407
	c-0.015,0.234-0.034,0.467-0.044,0.702c-0.032,0.691-0.052,1.386-0.052,2.085c0,0.019-0.001,0.037-0.001,0.055
	c0,0.001,0,0.004,0,0.005c0,0.002,0,0.005,0,0.007c0,12.29,4.912,23.426,12.871,31.571c0.123,0.127,0.241,0.259,0.366,0.384
	c0.143,0.143,0.293,0.277,0.439,0.418c8.141,7.928,19.253,12.819,31.517,12.819c0.002,0,0.004,0,0.006,0s0.004,0,0.006,0
	c1.593,0,3.162-0.094,4.711-0.256l0.001,0.007c0.067-0.007,0.134-0.019,0.201-0.026c0.093-0.01,0.188-0.014,0.281-0.025
	c0.041-0.005,0.073-0.019,0.112-0.025C176.736,143.756,192.725,128.42,196.025,108.773z"/>
<polygon style="fill:#E6E6E6;" points="422.485,476.331 406.385,512 141.744,512 125.644,476.331 198.163,476.331 349.966,476.331 
	"/>
<polygon style="fill:#CCCCCC;" points="125.644,476.331 141.744,512 208.877,512 192.776,476.331 "/>
<g>
	<circle style="fill:#A01102;" cx="323.136" cy="324.715" r="9.324"/>
	<circle style="fill:#A01102;" cx="314.297" cy="232.39" r="9.324"/>
	<circle style="fill:#A01102;" cx="251.027" cy="345.44" r="9.324"/>
	<circle style="fill:#A01102;" cx="291.47" cy="410.438" r="9.324"/>
</g>
<g>
</g>
<g>
</g>
<g>
</g>
<g>
</g>
<g>
</g>
<g>
</g>
<g>
</g>
<g>
</g>
<g>
</g>
<g>
</g>
<g>
</g>
<g>
</g>
<g>
</g>
<g>
</g>
<g>
</g>
</svg>
