<?xml version="1.0" encoding="utf-8"?>
<!-- Generator: Adobe Illustrator 24.0.0, SVG Export Plug-In . SVG Version: 6.00 Build 0)  -->
<svg version="1.1" id="Layer_1" xmlns="http://www.w3.org/2000/svg" xmlns:xlink="http://www.w3.org/1999/xlink" x="0px" y="0px"
	 viewBox="0 0 512 512" style="enable-background:new 0 0 512 512;" xml:space="preserve">
<style type="text/css">
	.st0{fill:#F7B239;}
	.st1{fill:#2BA5F7;}
	.st2{fill:#2197D8;}
	.st3{fill:#E09B2D;}
</style>
<path class="st0" d="M118,400.9l101.3-125.1c11-13.8,17.1-30.8,17.6-48.4l3.8-135.1l87-20.8l65.5,20.8l-9.7,152.9l0.9,2.1
	c-26.8,5.9,3.1,29-8.9,52.9c-6.1,12.1-13.3,16-13.3,30.5c0,15.8-44.3,35.3-37.2,48.2l-3.7,1.3L221.3,489.8c-4.5,4.9-9.5,9-14.8,12.2
	c-0.1-4.8-21.6-4-22.6-8.9c-2.2-11.7-28-17.5-34.2-26.9c-17.9-27.2-7.9-53.3-41.8-48.5C110.4,411.9,113.8,406.2,118,400.9z"/>
<g>
	<path class="st1" d="M108,417.9c33.7-4.8,66.1,10.7,84.1,37.7c6.3,9.4,10.8,20.2,13,32.1c0.9,4.8,1.4,9.7,1.5,14.5
		c-10.9,6.7-23.2,9.9-35.5,9.9c-20.2,0-40.3-8.9-53.9-26.4c-0.1-0.1-0.2-0.2-0.2-0.3C101.9,465.7,98.9,439.9,108,417.9z"/>
	<polygon class="st1" points="243.4,0 399.1,0 393.3,92.3 240.8,92.3 	"/>
</g>
<g>
	<polygon class="st2" points="399.1,0 393.3,92.3 333.6,92.3 338.5,0 	"/>
	<path class="st2" d="M191.3,455.4l0.3-0.4c6.4,9.3,11.2,20,13.6,31.8c1,4.8,1.6,9.7,1.7,14.4c-10.8,6.8-23,10.3-35.3,10.5
		c-20.2,0.3-40.4-8.2-54.3-25.4C162.4,502.6,191.3,455.4,191.3,455.4z"/>
</g>
<path class="st3" d="M304.6,318.2L192.3,455.9c6.2,9.3,10.6,20,12.8,31.7c0.9,4.8,1.4,9.7,1.5,14.5c5.3-3.2,10.3-7.3,14.8-12.2
	l100.2-109.5l3.7-1.3c29.8-22.4,37-37,37.2-48.2c16.6-3.2,28-33,22.2-83.4l-0.9-2.1l9.7-152.9h-59.1l-9.1,172.8
	C324.1,284.5,316.9,303.1,304.6,318.2z"/>
<g>
	<path class="st2" d="M384.6,247.4L384.6,247.4l20.2,45.4c12,27.1-1.6,58.7-29.5,68.6l-50,17.7c-7.2-12.9-11.2-27.8-11.2-43.6
		C314,292.3,344.2,256.3,384.6,247.4z"/>
	<path class="st2" d="M263.8,71.6V20.8c0-5.1,4.1-9.2,9.2-9.2c5.1,0,9.2,4.1,9.2,9.2v50.8c0,5.1-4.1,9.2-9.2,9.2
		C267.9,80.7,263.8,76.6,263.8,71.6z"/>
	<path class="st2" d="M304.6,71.6V20.8c0-5.1,4.1-9.2,9.2-9.2c5.1,0,9.2,4.1,9.2,9.2v50.8c0,5.1-4.1,9.2-9.2,9.2
		C308.7,80.7,304.6,76.6,304.6,71.6z"/>
</g>
</svg>
