<?xml version="1.0" encoding="iso-8859-1"?>
<!-- Generator: Adobe Illustrator 19.0.0, SVG Export Plug-In . SVG Version: 6.00 Build 0)  -->
<svg version="1.1" id="Layer_1" xmlns="http://www.w3.org/2000/svg" xmlns:xlink="http://www.w3.org/1999/xlink" x="0px" y="0px"
	 viewBox="0 0 512 512" style="enable-background:new 0 0 512 512;" xml:space="preserve">
<path style="fill:#F7B239;" d="M404.027,417.883c-33.896-4.811-23.886,21.295-41.798,48.462
	c-6.166,9.329-32.003,15.19-34.189,26.863c-0.916,4.847-22.489,4.078-22.562,8.852c-5.348-3.248-10.342-7.326-14.823-12.222
	L190.458,380.3l-3.663-1.294c7.155-12.918-37.168-32.407-37.168-48.219c0-14.53-7.182-18.351-13.287-30.5
	c-11.99-23.895,17.866-46.985-8.911-52.907l0.94-2.125l-9.671-152.921l65.54-20.755l86.977,20.755l3.846,135.106
	c0.501,17.607,6.691,34.579,17.644,48.365l101.26,125.118C398.203,406.162,401.561,411.888,404.027,417.883z"/>
<g>
	<path style="fill:#2BA5F7;" d="M395.041,485.357c-0.073,0.098-0.159,0.195-0.232,0.293C381.243,503.123,361.133,512,340.949,512
		c-12.284,0-24.604-3.285-35.471-9.939c0.073-4.774,0.549-9.609,1.465-14.457c2.21-11.832,6.74-22.638,13.028-32.052
		c17.961-26.948,50.318-42.455,84.055-37.669C413.099,439.911,410.145,465.699,395.041,485.357z"/>
	<polygon style="fill:#2BA5F7;" points="271.216,92.334 118.686,92.334 112.85,0 268.591,0 	"/>
</g>
<g>
	<polygon style="fill:#2197D8;" points="173.498,0 178.358,92.334 118.686,92.334 112.85,0 	"/>
	<path style="fill:#2197D8;" d="M394.771,486.41c-13.861,17.24-34.119,25.773-54.299,25.43
		c-12.282-0.209-24.545-3.702-35.296-10.541c0.155-4.772,0.713-9.598,1.711-14.43c2.412-11.793,7.123-22.519,13.572-31.826
		l0.287,0.371C320.744,455.414,349.579,502.615,394.771,486.41z"/>
</g>
<path style="fill:#E09B2D;" d="M186.919,265.119l-9.087-172.785h-59.134l9.671,152.921l-0.94,2.125
	c-5.84,50.428,5.635,80.159,22.198,83.407c0.211,11.183,7.401,25.826,37.168,48.219l3.663,1.294l100.197,109.538
	c4.481,4.896,9.475,8.975,14.823,12.222c0.073-4.774,0.549-9.609,1.465-14.457c2.186-11.673,6.618-22.357,12.784-31.686
	l-112.316-137.71C195.119,303.136,187.941,284.543,186.919,265.119z"/>
<g>
	<path style="fill:#2197D8;" d="M198.028,335.415c0,15.812-4.078,30.672-11.233,43.591l-50.038-17.656
		c-27.949-9.866-41.551-41.466-29.512-68.561l20.171-45.41h0.012C167.82,256.317,198.028,292.325,198.028,335.415z"/>
	<path style="fill:#2197D8;" d="M239.03,80.737c-5.057,0-9.158-4.1-9.158-9.158v-50.82c0-5.057,4.1-9.158,9.158-9.158
		s9.158,4.1,9.158,9.158V71.58C248.188,76.636,244.088,80.737,239.03,80.737z"/>
	<path style="fill:#2197D8;" d="M198.281,80.737c-5.057,0-9.158-4.1-9.158-9.158v-50.82c0-5.057,4.1-9.158,9.158-9.158
		s9.158,4.1,9.158,9.158V71.58C207.439,76.636,203.338,80.737,198.281,80.737z"/>
</g>
<g>
</g>
<g>
</g>
<g>
</g>
<g>
</g>
<g>
</g>
<g>
</g>
<g>
</g>
<g>
</g>
<g>
</g>
<g>
</g>
<g>
</g>
<g>
</g>
<g>
</g>
<g>
</g>
<g>
</g>
</svg>
