<?xml version="1.0" encoding="iso-8859-1"?>
<!-- Generator: Adobe Illustrator 19.0.0, SVG Export Plug-In . SVG Version: 6.00 Build 0)  -->
<svg version="1.1" id="Layer_1" xmlns="http://www.w3.org/2000/svg" xmlns:xlink="http://www.w3.org/1999/xlink" x="0px" y="0px"
	 viewBox="0 0 512 512" style="enable-background:new 0 0 512 512;" xml:space="preserve">
<path style="fill:#F7B239;" d="M190.063,392.527H103.17c-25.778,0-45.893-22.289-43.263-47.928L87.974,70.862
	C92.095,30.608,126.002,0,166.459,0h179.082c40.456,0,74.364,30.608,78.485,70.862l28.067,273.738
	c2.63,25.639-17.485,47.928-43.25,47.928h-86.905l-0.455,0.063H190.518L190.063,392.527z"/>
<g>
	<path style="fill:#E09B2D;" d="M114.27,344.599l28.067-273.738C146.458,30.608,180.366,0,220.822,0h-54.363
		c-40.456,0-74.364,30.608-78.485,70.862L59.907,344.599c-2.63,25.639,17.485,47.928,43.263,47.928h54.363
		C131.755,392.527,111.64,370.239,114.27,344.599z"/>
	<polygon style="fill:#E09B2D;" points="321.482,392.591 321.937,392.527 321.473,392.527 	"/>
	<polygon style="fill:#E09B2D;" points="190.518,392.591 190.526,392.527 190.063,392.527 	"/>
</g>
<polygon style="fill:#B27214;" points="312.595,331.641 407.477,223.496 393.621,209.652 305.995,286.532 295.502,214.633 
	354.77,144.492 340.914,130.649 289.572,174.025 276.07,81.545 235.93,81.545 222.428,174.025 171.086,130.649 157.23,144.492 
	216.498,214.633 206.005,286.532 118.379,209.652 104.523,223.496 199.405,331.653 190.518,392.591 174.462,502.518 
	337.538,502.518 321.482,392.591 "/>
<g>
	<polygon style="fill:#995C0D;" points="235.93,81.545 248.636,81.545 243.667,174.025 241.493,214.633 237.649,286.532 
		235.222,331.653 231.96,392.591 226.056,502.518 174.462,502.518 190.518,392.591 199.405,331.653 206.005,286.532 
		216.498,214.633 222.428,174.025 	"/>
	<path style="fill:#995C0D;" d="M426.694,512H85.307c-5.238,0-9.482-4.245-9.482-9.482c0-5.237,4.244-9.482,9.482-9.482h341.387
		c5.238,0,9.482,4.245,9.482,9.482C436.176,507.755,431.931,512,426.694,512z"/>
</g>
<g>
</g>
<g>
</g>
<g>
</g>
<g>
</g>
<g>
</g>
<g>
</g>
<g>
</g>
<g>
</g>
<g>
</g>
<g>
</g>
<g>
</g>
<g>
</g>
<g>
</g>
<g>
</g>
<g>
</g>
</svg>
