<?xml version="1.0" encoding="iso-8859-1"?>
<!-- Generator: Adobe Illustrator 19.0.0, SVG Export Plug-In . SVG Version: 6.00 Build 0)  -->
<svg version="1.1" id="Layer_1" xmlns="http://www.w3.org/2000/svg" xmlns:xlink="http://www.w3.org/1999/xlink" x="0px" y="0px"
	 viewBox="0 0 512.001 512.001" style="enable-background:new 0 0 512.001 512.001;" xml:space="preserve">
<g>
	<path style="fill:#B27214;" d="M172.617,225.519c37.283,16.97,72.509,20.359,73.303,20.43
		c-8.812,15.381-3.109,25.482-16.397,40.909c-46.75-7.012-87.574-41.447-102.242-67.791h-0.012
		c-3.775-6.785-6.783-13.183-9.14-18.802c-1.959-4.669,3.814-8.701,7.522-5.253C139.932,208.288,156.463,218.178,172.617,225.519z"
		/>
	<path style="fill:#B27214;" d="M162.487,242.081c-3.551,0-6.428-2.873-6.428-6.422c0-0.06,0-0.132,0.002-0.192l1.695-60.412
		c0.099-3.548,3.046-6.344,6.606-6.246c3.548,0.099,6.345,3.057,6.246,6.606l-1.694,60.391
		C168.829,239.283,165.984,242.081,162.487,242.081z"/>
	<path style="fill:#B27214;" d="M113.529,229.957c-3.104,0-5.836-2.253-6.339-5.417c-0.56-3.506,1.829-6.801,5.335-7.36
		l23.083-3.682c0.335-0.054,0.673-0.081,1.012-0.081c3.551,0,6.434,2.877,6.434,6.428c0,3.268-2.434,5.966-5.59,6.374l-22.914,3.655
		C114.205,229.931,113.865,229.957,113.529,229.957z"/>
	<path style="fill:#B27214;" d="M304.157,390.006l21.632-9.649c4.421-1.973,6.407-7.155,4.435-11.576
		c-1.973-4.421-7.154-6.406-11.575-4.434l-15.106,6.738c-0.174-23.985,1.83-49.723,5.827-76.785
		c4.254-28.891,10.764-59.279,19.249-90.613c12.283-45.347,2.536-78.902-13.031-102.616c-13.592-20.722-31.638-33.94-43.29-40.941
		c-6.825-4.114-11.465-6.089-11.746-6.206c0.795,2.186,1.566,4.383,2.302,6.58c11.021,32.748,15.848,66.735,11.664,101.423
		c-3.331,27.664-12.389,55.761-28.599,84.021c-8.812,15.381-19.752,30.808-33.04,46.235c-70.347,81.695-47.65,211.051-47.65,211.051
		h177.006C319.005,475.784,306.933,436.775,304.157,390.006z"/>
	<path style="fill:#B27214;" d="M267.32,71.73c-0.809-0.064-1.619-0.284-2.389-0.674c-0.896-0.453-22.106-11.338-34.55-30.628
		c-7.188-11.144-10.057-22.857-8.527-34.812c0.45-3.523,3.671-6.021,7.191-5.561c3.521,0.45,6.011,3.67,5.561,7.191
		c-1.134,8.867,1.079,17.687,6.579,26.213c10.576,16.393,29.363,26.03,29.552,26.125c3.167,1.602,4.437,5.471,2.833,8.638
		C272.356,70.622,269.843,71.931,267.32,71.73z"/>
	<path style="fill:#B27214;" d="M235.265,43.352c-1.081-0.086-2.154-0.448-3.112-1.103c-2.93-2.006-3.679-6.005-1.675-8.935
		l20.548-30.027c2.004-2.931,6.006-3.679,8.935-1.675c2.93,2.006,3.679,6.005,1.675,8.935l-20.548,30.027
		C239.739,42.545,237.486,43.53,235.265,43.352z"/>
</g>
<path style="fill:#995C0D;" d="M231.334,344.52c-5.294,23.725-7.749,50.957-4.967,83.659c1.882,22.276,6.194,47.089,13.674,75.057
	H165.23c0,0-22.697-129.356,47.65-211.051c13.289-15.427,24.228-30.855,33.04-46.235c16.21-28.26,25.268-56.357,28.599-84.021
	c3.808-31.571,0.152-62.562-8.845-92.565c-1.348-4.495,1.935-9.046,6.624-9.232l0,0c0,0,33.192,58.04,15.661,137.514
	C277.359,245.715,244.95,283.5,231.334,344.52z"/>
<path style="fill:#4D4D4D;" d="M236.535,343.714c-15.007,0-27.173,19.623-27.173,43.828c0,24.193,12.167,43.816,27.173,43.816
	s27.173-19.623,27.173-43.816C263.708,363.337,251.542,343.714,236.535,343.714z"/>
<path style="fill:#333333;" d="M236.535,343.714c3.434,0,6.714,1.038,9.739,2.911c-10.195,6.318-17.434,22.249-17.434,40.916
	c0,18.658,7.239,34.587,17.434,40.905c-3.025,1.875-6.307,2.911-9.739,2.911c-15.007,0-27.173-19.623-27.173-43.816
	C209.362,363.337,221.528,343.714,236.535,343.714z"/>
<path style="fill:#F7B239;" d="M423.363,150.795c0.082,4.343-0.709,8.506-2.216,12.31c-4.583,11.567-15.767,19.838-28.986,20.089
	C391.834,165.636,405.802,151.127,423.363,150.795z"/>
<g>
	<path style="fill:#B27214;" d="M406.612,244.906l-30.441-3.45c10.748-15.576,18.847-32.747,24.126-51.247
		c1.329-4.655-1.369-9.505-6.024-10.834c-4.65-1.324-9.507,1.369-10.834,6.025c-6.111,21.42-16.402,40.864-30.587,57.794
		c-0.028,0.033-0.06,0.061-0.088,0.095c-25.664,30.626-55.668,42.737-55.969,42.855c-4.498,1.769-6.716,6.846-4.953,11.35
		c1.353,3.459,4.661,5.575,8.165,5.575c1.061,0,2.142-0.195,3.191-0.605c1.345-0.526,32.313-12.89,60.326-44.797l41.113,4.659
		c0.335,0.039,0.667,0.056,0.998,0.056c4.399,0,8.192-3.304,8.698-7.779C414.879,249.793,411.421,245.451,406.612,244.906z"/>
	<path style="fill:#B27214;" d="M388.591,77.212l-24.608-3.52c3.338-4.931,6.339-10.325,8.776-16.243
		c1.842-4.476-0.292-9.599-4.768-11.442c-4.477-1.843-9.6,0.292-11.443,4.768c-14.123,34.305-52.715,48.853-53.303,49.071
		c-4.545,1.653-6.893,6.672-5.248,11.221c1.29,3.567,4.656,5.785,8.243,5.785c0.991,0,1.999-0.169,2.984-0.526
		c1.295-0.469,22.677-8.401,41.506-26.821l35.38,5.062c0.421,0.061,0.839,0.09,1.253,0.09c4.29,0,8.041-3.154,8.666-7.526
		C396.712,82.339,393.383,77.898,388.591,77.212z"/>
</g>
<path style="fill:#995C0D;" d="M414.85,512.001H97.151c-4.841,0-8.766-3.925-8.766-8.766c0-4.841,3.925-8.766,8.766-8.766H414.85
	c4.842,0,8.766,3.925,8.766,8.766C423.616,508.076,419.692,512.001,414.85,512.001z"/>
<g>
	<path style="fill:#B27214;" d="M293.518,177.169c-0.629,0-1.267-0.068-1.907-0.21c-0.361-0.081-8.985-2.022-20.543-6.975
		c-12.815-5.488-24.082-12.393-33.487-20.523c-8.274-7.148-15.021-15.233-20.051-24.031c-2.403-4.203-0.944-9.558,3.258-11.961
		s9.557-0.944,11.961,3.258c4.043,7.07,9.525,13.619,16.295,19.469c8.039,6.949,17.771,12.895,28.925,17.673
		c9.952,4.264,17.382,5.962,17.456,5.979c4.717,1.064,7.689,5.747,6.634,10.466C301.145,174.395,297.531,177.169,293.518,177.169z"
		/>
	<path style="fill:#B27214;" d="M218.133,163.157c-3.32,0-6.497-1.897-7.972-5.112c-2.02-4.4-0.09-9.604,4.31-11.623l25.186-11.559
		c4.4-2.018,9.604-0.09,11.623,4.31c2.02,4.4,0.09,9.604-4.31,11.623l-25.186,11.559C220.599,162.9,219.356,163.157,218.133,163.157
		z"/>
</g>
<g>
</g>
<g>
</g>
<g>
</g>
<g>
</g>
<g>
</g>
<g>
</g>
<g>
</g>
<g>
</g>
<g>
</g>
<g>
</g>
<g>
</g>
<g>
</g>
<g>
</g>
<g>
</g>
<g>
</g>
</svg>
