<?xml version="1.0" encoding="iso-8859-1"?>
<!-- Generator: Adobe Illustrator 19.0.0, SVG Export Plug-In . SVG Version: 6.00 Build 0)  -->
<svg version="1.1" id="Layer_1" xmlns="http://www.w3.org/2000/svg" xmlns:xlink="http://www.w3.org/1999/xlink" x="0px" y="0px"
	 viewBox="0 0 512 512" style="enable-background:new 0 0 512 512;" xml:space="preserve">
<path style="fill:#F7B239;" d="M289.434,117.419c0-18.469-14.972-33.441-33.441-33.441c-3.732,0-7.316,0.62-10.667,1.748
	c-6.087-8.284-15.894-13.664-26.962-13.664c-7.793,0-14.958,2.673-20.644,7.143c-7.496-12.094-20.882-20.153-36.157-20.153
	c-17.743,0-32.94,10.873-39.311,26.316c-3.634-1.582-7.643-2.464-11.858-2.464c-15.209,0-27.743,11.416-29.523,26.144
	c-19.744,1.514-35.296,18.002-35.296,38.135c0,0.718,0.024,1.43,0.062,2.139c-12.413,2.174-21.848,12.998-21.848,26.034
	c0,4.346,1.055,8.443,2.913,12.059C11.065,193.608,0,208.855,0,226.696c0,17.287,10.388,32.14,25.259,38.68
	c-1.892,4.533-2.94,9.506-2.94,14.725c0,21.13,17.13,38.26,38.26,38.26c7.619,0,14.711-2.236,20.674-6.074
	c6.102,15.16,20.936,25.866,38.28,25.866c11.278,0,21.496-4.53,28.943-11.864c5.793,8.675,15.669,14.391,26.883,14.391
	c9.174,0,17.448-3.831,23.329-9.971c5.361,3.956,11.986,6.297,19.159,6.297c17.843,0,32.307-14.464,32.307-32.306
	c0-14.01-8.919-25.933-21.388-30.41c5.946-3.872,10.053-10.329,10.724-17.779c1.548,0.219,3.128,0.34,4.736,0.34
	c18.469,0,33.441-14.972,33.441-33.441c0-17.265-13.085-31.471-29.878-33.25c4.558-6.503,7.241-14.417,7.241-22.962
	c0-5.946-1.305-11.585-3.63-16.66c1.502,0.207,3.034,0.322,4.593,0.322C274.461,150.859,289.434,135.888,289.434,117.419z"/>
<path style="fill:#E09B2D;" d="M198.06,78.951c-0.112,0.087-0.228,0.168-0.339,0.256c-7.488-12.093-20.878-20.158-36.153-20.158
	c-17.745,0-32.942,10.872-39.315,26.319c-3.634-1.586-7.642-2.461-11.852-2.461c-15.207,0-27.742,11.41-29.53,26.137
	c-19.744,1.519-35.288,18.004-35.288,38.143c0,0.711,0.019,1.432,0.058,2.134c-12.41,2.172-21.849,12.996-21.849,26.031
	c0,4.354,1.057,8.449,2.913,12.064C11.064,193.605,0,208.851,0,226.692c0,17.293,10.391,32.144,25.262,38.681
	c-1.894,4.537-2.941,9.507-2.941,14.726c0,21.128,17.13,38.258,38.258,38.258c7.046,0,13.64-1.903,19.302-5.239
	c-9.026-6.354-14.928-16.86-14.928-28.742c0-4.797,0.961-9.372,2.701-13.534c-13.659-6.008-23.205-19.648-23.205-35.538
	c0-16.389,10.17-30.395,24.531-36.086c-1.701-3.316-2.672-7.084-2.672-11.074c0-11.977,8.671-21.926,20.071-23.916
	c-0.038-0.654-0.058-1.307-0.058-1.971c0-18.495,14.284-33.644,32.423-35.038c1.634-13.525,13.15-24.012,27.127-24.012
	c3.874,0,7.555,0.807,10.891,2.259c5.854-14.188,19.821-24.176,36.114-24.176c1.758,0,3.488,0.116,5.184,0.341V78.951z"/>
<g>
	<path style="fill:#F7B239;" d="M510.933,312.282c-0.452,0.288-0.913,0.577-1.375,0.836c0.788,0.567,1.605,1.086,2.442,1.576
		C511.615,313.906,511.26,313.099,510.933,312.282z"/>
	<path style="fill:#F7B239;" d="M181.476,360.804l-0.123,2.642c-0.641,13.81-12.357,24.486-26.167,23.845l-2.642-0.123l0.123-2.642
		c0.641-13.81,12.357-24.486,26.167-23.845L181.476,360.804z"/>
	<path style="fill:#F7B239;" d="M313.701,279.898l-2.349,1.216c-12.279,6.354-27.383,1.551-33.737-10.728l-1.216-2.349l2.349-1.216
		c12.279-6.354,27.383-1.551,33.737,10.728L313.701,279.898z"/>
	<path style="fill:#F7B239;" d="M309.396,155.965l-1.614,2.096c-8.433,10.955-24.151,13-35.106,4.566l-2.096-1.614l1.614-2.096
		c8.433-10.955,24.151-13,35.106-4.566L309.396,155.965z"/>
</g>
<path style="fill:#B27214;" d="M199.35,243.742c-1.645-3.765-6.07-5.38-9.742-3.611c-20.451,9.873-39.378,29.014-56.254,56.893
	c-0.209,0.344-0.407,0.682-0.611,1.025c2.501-19.151,5.344-36.591,8.304-52.28c2.639-13.981,7.762-27.409,15.452-39.382
	c6.649-10.35,15.915-20.939,28.033-26.448c3.524-1.602,5.341-5.737,3.896-9.329c-1.539-3.826-5.931-5.568-9.652-3.893
	c-9.305,4.187-17.124,10.568-23.606,17.684c12.095-43.728,23.225-66.419,23.448-66.87c1.781-3.561,0.337-7.892-3.224-9.672
	c-3.562-1.781-7.893-0.337-9.673,3.224c-0.583,1.168-14.46,29.234-28.44,84.553c-4.078,16.135-8.402,35.677-12.407,58.46
	c-2.017-12.055-3.151-25-1.401-34.916c0.692-3.921-1.925-7.66-5.846-8.352c-3.924-0.697-7.662,1.925-8.352,5.847
	c-4.602,26.075,7.193,67.041,9.726,75.372c-5.723,42.451-9.821,93.286-9.836,151.948c-0.001,3.946,3.047,7.394,6.992,7.51
	c4.081,0.12,7.427-3.152,7.427-7.207c0-34.765,1.449-66.738,3.823-95.794c0.521-6.371,2.151-12.59,4.807-18.404
	c8.944-19.586,30.989-61.022,63.365-76.841C199.117,251.532,200.927,247.35,199.35,243.742z"/>
<path style="fill:#995C0D;" d="M317.238,452.951H60.579c-3.982,0-7.209-3.228-7.209-7.209c0-3.982,3.227-7.209,7.209-7.209h256.66
	c3.982,0,7.209,3.228,7.209,7.209C324.449,449.723,321.221,452.951,317.238,452.951z"/>
<g>
</g>
<g>
</g>
<g>
</g>
<g>
</g>
<g>
</g>
<g>
</g>
<g>
</g>
<g>
</g>
<g>
</g>
<g>
</g>
<g>
</g>
<g>
</g>
<g>
</g>
<g>
</g>
<g>
</g>
</svg>
