<?xml version="1.0" encoding="iso-8859-1"?>
<!-- Generator: Adobe Illustrator 19.0.0, SVG Export Plug-In . SVG Version: 6.00 Build 0)  -->
<svg version="1.1" id="Layer_1" xmlns="http://www.w3.org/2000/svg" xmlns:xlink="http://www.w3.org/1999/xlink" x="0px" y="0px"
	 viewBox="0 0 512 512" style="enable-background:new 0 0 512 512;" xml:space="preserve">
<path style="fill:#2BA5F7;" d="M264.84,224.487v251.88c0,19.649-15.983,35.633-35.633,35.633c-9.536,0-18.482-3.713-25.201-10.443
	c-6.719-6.707-10.432-15.653-10.432-25.189c0-4.88,3.96-8.84,8.84-8.84s8.84,3.96,8.84,8.84c0,4.797,1.862,9.3,5.257,12.683
	c3.395,3.407,7.897,5.269,12.695,5.269c9.901,0,17.952-8.051,17.952-17.952v-251.88c0-4.88,3.96-8.84,8.84-8.84
	C260.88,215.647,264.84,219.607,264.84,224.487z"/>
<path style="fill:#2197D8;" d="M264.84,224.487v52.724c-2.947-0.059-5.894-0.094-8.84-0.094c-2.947,0-5.894,0.035-8.84,0.094
	v-52.724c0-4.88,3.96-8.84,8.84-8.84C260.88,215.647,264.84,219.607,264.84,224.487z"/>
<path style="fill:#2BA5F7;" d="M256,88.345c-4.882,0-8.84-3.958-8.84-8.84V8.84c0-4.882,3.958-8.84,8.84-8.84
	c4.882,0,8.84,3.958,8.84,8.84v70.664C264.84,84.387,260.882,88.345,256,88.345z"/>
<path style="fill:#F7B239;" d="M256,56.578c56.331,0,159.127,106.615,102.006,206.134c-33.476-8.475-67.741-12.707-102.006-12.707
	c-34.277,0-68.542,4.232-102.018,12.707C153.982,148.86,199.657,56.578,256,56.578z"/>
<path style="fill:#E09B2D;" d="M256,56.578c-25.779,0-46.819,86.954-48.033,196.198c-18.14,2.122-36.175,5.422-53.985,9.937
	c-24.105-20.545-31.742-77.079-21.747-108.949C150.32,96.096,219.712,56.578,256,56.578z"/>
<path style="fill:#F95428;" d="M462.134,262.713c-16.738-6.589-34.395-9.889-52.064-9.889s-35.326,3.3-52.064,9.889
	c0-113.852-45.675-206.134-102.006-206.134C369.841,56.578,462.134,148.86,462.134,262.713z"/>
<path style="fill:#E54728;" d="M256,56.578c-56.343,0-102.018,92.282-102.018,206.134c-16.726-6.589-34.395-9.889-52.064-9.889
	c-17.657,0-35.326,3.3-52.052,9.889C49.866,148.86,142.148,56.578,256,56.578z"/>
<g>
</g>
<g>
</g>
<g>
</g>
<g>
</g>
<g>
</g>
<g>
</g>
<g>
</g>
<g>
</g>
<g>
</g>
<g>
</g>
<g>
</g>
<g>
</g>
<g>
</g>
<g>
</g>
<g>
</g>
</svg>
