<?xml version="1.0" encoding="iso-8859-1"?>
<!-- Generator: Adobe Illustrator 19.0.0, SVG Export Plug-In . SVG Version: 6.00 Build 0)  -->
<svg version="1.1" id="Layer_1" xmlns="http://www.w3.org/2000/svg" xmlns:xlink="http://www.w3.org/1999/xlink" x="0px" y="0px"
	 viewBox="0 0 512 512" style="enable-background:new 0 0 512 512;" xml:space="preserve">
<g>
	<path style="fill:#F7B239;" d="M405.543,293.238c0,0,14.821-36.378,45.809-39.072c30.988-2.695,40.316-7.044,56.587-20.21
		c0,0,17.515,52.545-20.21,76.797S405.543,293.238,405.543,293.238z"/>
	<path style="fill:#F7B239;" d="M183.235,145.033c0,0-26.946-16.168-14.821-52.545c7.243-21.73,28.294-41.767,9.431-53.893
		c0,0,52.545,13.473,51.198,53.893S200.088,141.67,183.235,145.033z"/>
</g>
<path style="fill:#999999;" d="M379.944,215.768H231.739c-5.581,0-10.105-4.524-10.105-10.105s4.524-10.105,10.105-10.105h148.205
	c8.915,0,16.168-7.253,16.168-16.168c0-8.915-7.253-16.168-16.168-16.168h-22.231c-5.581,0-10.105-4.524-10.105-10.105
	c0-5.581,4.524-10.105,10.105-10.105h22.231c20.059,0,36.378,16.319,36.378,36.378S400.003,215.768,379.944,215.768z"/>
<path style="fill:#4D4D4D;" d="M179.193,215.768H10.105C4.524,215.768,0,211.243,0,205.663s4.524-10.105,10.105-10.105h169.089
	c5.581,0,10.105,4.524,10.105,10.105S184.774,215.768,179.193,215.768z"/>
<path style="fill:#999999;" d="M444.774,473.405h-31.759c-5.581,0-10.105-4.524-10.105-10.105s4.524-10.105,10.105-10.105h31.759
	c15.124,0,27.427-12.304,27.427-27.427s-12.304-27.427-27.427-27.427H328.746c-5.581,0-10.105-4.524-10.105-10.105
	c0-5.581,4.524-10.105,10.105-10.105h116.028c26.267,0,47.637,21.37,47.637,47.637S471.042,473.405,444.774,473.405z"/>
<path style="fill:#666666;" d="M293.715,398.34H53.893c-5.581,0-10.105-4.524-10.105-10.105s4.524-10.105,10.105-10.105h239.823
	c5.581,0,10.105,4.524,10.105,10.105S299.296,398.34,293.715,398.34z"/>
<path style="fill:#995C0D;" d="M405.539,299.976c-2.996,0-5.729-2.013-6.516-5.047c-0.934-3.601,1.229-7.278,4.83-8.212
	c1.062-0.276,26.228-6.746,46.86-7.386c7.447-0.23,15.07-2.207,22.048-5.718c3.322-1.669,7.372-0.334,9.046,2.991
	c1.672,3.324,0.333,7.374-2.991,9.046c-8.719,4.386-18.291,6.857-27.685,7.148c-19.143,0.594-43.65,6.898-43.897,6.962
	C406.667,299.906,406.098,299.976,405.539,299.976z"/>
<path style="fill:#666666;" d="M327.398,341.068H212.876c-5.581,0-10.105-4.524-10.105-10.105s4.524-10.105,10.105-10.105h114.522
	c5.581,0,10.105,4.524,10.105,10.105S332.979,341.068,327.398,341.068z"/>
<path style="fill:#999999;" d="M177.846,341.068H79.492c-5.581,0-10.105-4.524-10.105-10.105s4.524-10.105,10.105-10.105h98.354
	c5.581,0,10.105,4.524,10.105,10.105S183.427,341.068,177.846,341.068z"/>
<path style="fill:#666666;" d="M468.867,174.453c-5.581,0-10.105-4.524-10.105-10.105c0-32.566-26.495-59.061-59.061-59.061h-76.344
	c-5.581,0-10.105-4.524-10.105-10.105c0-5.581,4.524-10.105,10.105-10.105h76.344c43.71,0,79.271,35.561,79.271,79.271
	C478.972,169.929,474.448,174.453,468.867,174.453z"/>
<path style="fill:#999999;" d="M347.608,279.091H148.205c-5.581,0-10.105-4.524-10.105-10.105s4.524-10.105,10.105-10.105h199.403
	c5.581,0,10.105,4.524,10.105,10.105S353.189,279.091,347.608,279.091z"/>
<path style="fill:#666666;" d="M86.228,279.091H36.378c-5.581,0-10.105-4.524-10.105-10.105s4.524-10.105,10.105-10.105h49.851
	c5.581,0,10.105,4.524,10.105,10.105S91.809,279.091,86.228,279.091z"/>
<path style="fill:#995C0D;" d="M176.613,160.139c-1.044,0-2.103-0.244-3.095-0.757c-3.304-1.712-4.593-5.779-2.881-9.081
	c7.902-15.242,21.346-44.255,22.612-67.327c0.203-3.715,3.389-6.555,7.096-6.358c3.715,0.203,6.561,3.38,6.358,7.096
	c-1.404,25.587-15.706,56.587-24.105,72.789C181.402,158.815,179.051,160.139,176.613,160.139z"/>
<g>
</g>
<g>
</g>
<g>
</g>
<g>
</g>
<g>
</g>
<g>
</g>
<g>
</g>
<g>
</g>
<g>
</g>
<g>
</g>
<g>
</g>
<g>
</g>
<g>
</g>
<g>
</g>
<g>
</g>
</svg>
