<?xml version="1.0" encoding="utf-8"?>
<!-- Generator: Adobe Illustrator 24.0.0, SVG Export Plug-In . SVG Version: 6.00 Build 0)  -->
<svg version="1.1" id="Layer_1" xmlns="http://www.w3.org/2000/svg" xmlns:xlink="http://www.w3.org/1999/xlink" x="0px" y="0px"
	 viewBox="0 0 512 512" style="enable-background:new 0 0 512 512;" xml:space="preserve">
<style type="text/css">
	.st0{fill:#BC15B0;}
</style>
<g id="Layer_1_1_">
	<g>
		<g>
			<path class="st0" d="M298.5,185.6c13.7,3.9,38.2,9.5,65.6,9.5c25.5,0,53.4-4.9,77.3-20.6c61.8-40.6,67.8-134.6,68-138.6
				c0.6-10.1-5.5-19.3-15-22.8c-3.7-1.4-92.4-33.1-154.2,7.5c-49.5,32.5-63.2,99.3-66.8,126.7c-46.6,31.2-87.1,73.7-119.7,125.5
				c-1-6.2-2.3-12.4-3.8-18.5c15.4-22.7,49.7-81.9,34.3-139.2C165,43.6,77.6,8.5,73.9,7.1c-9.4-3.7-20.1-0.8-26.3,7.1
				C45.1,17.3-12.8,91.6,6.4,163c15.4,57.1,74.4,91,99.3,103c8.3,35.2,8.1,71.7-0.7,106.6c-23.3,63.1-29.1,111.7-29.4,113.9
				c-1.4,12.6-12.4,49.6,0.1,51.1c4.4,1.6,33.4,3.3,34.2,3c7.7-3.7,9.9-37.2,11.2-48.8c0.1-0.7,3.1-25.2,13.2-61.1
				c30.2-20.4,64.9-33.2,101.3-37.3c18.7,18.4,66.3,59.2,121.6,59.2c2.9,0,5.9-0.1,8.8-0.4c73.7-5.9,124.2-85.4,126.3-88.8
				c5.3-8.6,4.5-19.6-2.2-27.2c-2.6-3-65.1-73.5-138.8-67.6c-59.2,4.7-103.4,56.9-119.6,79.1c-26,2.8-51.3,9.3-75.2,19.2
				C182.4,305.4,226,234.2,298.5,185.6z M365.4,58.9c29.4-19.4,72.3-13.3,95.9-7.7c-4.2,24-15.6,65.7-45.1,85
				c-29.4,19.3-72.2,13.3-95.9,7.7C324.7,119.9,336.2,78.1,365.4,58.9z M117.3,220.5C95.9,209,59.8,185.1,50.6,151
				c-9.2-34,10-72.7,22.7-93.5c21.4,11.6,57.6,35.6,66.7,69.4C149.2,161,130,199.8,117.3,220.5z M355,314.3
				c35.1-2.8,69.7,23.1,87.8,39.4c-15.2,19-45.3,50.1-80.4,52.9c-35.2,2.8-69.8-23.1-87.8-39.4C289.8,348.2,319.9,317.1,355,314.3z"
				/>
		</g>
	</g>
</g>
<g id="Layer_2_1_">
</g>
</svg>
