<?xml version="1.0" encoding="utf-8"?>
<!-- Generator: Adobe Illustrator 24.0.0, SVG Export Plug-In . SVG Version: 6.00 Build 0)  -->
<svg version="1.1" id="Layer_1" xmlns="http://www.w3.org/2000/svg" xmlns:xlink="http://www.w3.org/1999/xlink" x="0px" y="0px"
	 viewBox="0 0 512 512" style="enable-background:new 0 0 512 512;" xml:space="preserve">
<style type="text/css">
	.st0{fill:#29FF2E;}
	.st1{fill:#1AB530;}
	.st2{fill:#4E3E59;}
	.st3{fill:#3E3247;}
	.st4{fill:#A47DB7;}
	.st5{fill:#8B669A;}
	.st6{fill:#74C2FF;}
</style>
<path class="st0" d="M256,411.6c-38.3,0-74-19-95.4-50.8c-4.7-7-3.6-16.3,2.5-22c6.3-5.9,12.7-15.4,18.6-27.6
	c2.9-5.9,8.8-9.6,15.3-9.6h117.6c6.5,0,12.5,3.7,15.3,9.6c5.9,12.1,12.4,21.7,18.7,27.6c6.1,5.7,7.2,15,2.5,22
	C330,392.6,294.3,411.6,256,411.6z"/>
<path class="st1" d="M348.8,338.8c-6.3-5.9-12.8-15.4-18.7-27.6c-2.9-5.9-8.8-9.6-15.3-9.6H256v110l0,0c38.3,0,74-19,95.4-50.8
	C356,353.8,355,344.5,348.8,338.8z"/>
<path class="st2" d="M314.8,335.8H197.2c-5.9,0-11.3-3-14.5-8c-3.1-5-3.5-11.2-0.9-16.5c12.1-24.9,20.6-58.3,22.3-87.3
	c1.9-33.1-5.3-50.3-12.6-55.4c-9.8-6.9-9.7-21.4,0.2-28.1c19-12.8,41.2-19.6,64.2-19.6l0,0c23,0,45.2,6.8,64.2,19.6
	c9.9,6.7,10,21.3,0.2,28.1c-7.3,5.1-14.5,22.4-12.6,55.4c1.6,29,10.2,62.4,22.3,87.3c2.6,5.3,2.2,11.5-0.9,16.5
	S320.7,335.8,314.8,335.8z"/>
<path class="st3" d="M330.1,311.2c-12.1-24.8-20.6-58.3-22.3-87.3c-1.9-33,5.3-50.3,12.6-55.4c9.8-6.9,9.7-21.4-0.2-28.1
	c-19-12.9-41.2-19.6-64.2-19.6l0,0v215h58.8c5.9,0,11.4-3,14.5-8S332.7,316.5,330.1,311.2z"/>
<path class="st4" d="M187.4,164.4c-10-14.2-15.3-30.9-15.3-48.4c0-46.3,37.7-84,84-84s84,37.7,84,84c0,17.4-5.3,34.2-15.3,48.4
	c-5.4,7.6-15.8,9.5-23.5,4.3c-27.4-18.5-62.8-18.5-90.3,0C203.2,173.9,192.7,172,187.4,164.4z"/>
<path class="st5" d="M256,32.1L256,32.1v122.7c15.7,0,31.4,4.6,45.1,13.9c7.7,5.2,18.1,3.3,23.5-4.3c10-14.2,15.3-30.9,15.3-48.4
	C340,69.7,302.3,32.1,256,32.1z"/>
<path class="st4" d="M244.8,62l-37-32.1c-7.1-6.2-7.9-16.9-1.7-24.1c6.2-7.1,16.9-7.9,24.1-1.7L256,26.6l25.8-22.4
	c7.1-6.2,17.9-5.4,24.1,1.7s5.4,17.9-1.7,24.1l-37,32.1C260.8,67.6,251.2,67.6,244.8,62z"/>
<path class="st6" d="M73.3,371C23.2,342,5,291.1,35.5,238.3C65.2,187,159.2,104.6,211,140.5c53.1,37.2,20.8,180.8-24.6,223.2l0,0
	C154.9,393.2,112.1,393.3,73.3,371z"/>
<g>
	<path class="st0" d="M256,512c-9.4,0-17.1-7.6-17.1-17.1v-42.1c0-9.4,7.6-17.1,17.1-17.1c9.4,0,17.1,7.6,17.1,17.1v42.1
		C273.1,504.4,265.4,512,256,512z"/>
	<path class="st0" d="M138.2,483.1c-8.4-4.4-11.6-14.7-7.2-23l19.5-37.3c4.4-8.4,14.7-11.6,23-7.2c8.4,4.4,11.6,14.7,7.2,23
		l-19.5,37.3C156.9,484.2,146.6,487.5,138.2,483.1z"/>
</g>
<path class="st5" d="M305.9,5.9c-6.1-7.1-16.9-7.9-24-1.7L256,26.6l0,0v39.6c4,0,8-1.4,11.2-4.2l37-32.1
	C311.3,23.8,312.1,13,305.9,5.9z"/>
<path class="st6" d="M325.5,363.7c-45.7-42.7-77.3-186.3-24.6-223.2c52-36.1,146,46.6,175.6,97.8C506.9,291,489,341.9,438.7,371l0,0
	C399.9,393.4,357,393.1,325.5,363.7z"/>
<g>
	<path class="st1" d="M256.1,435.8L256.1,435.8V512l0,0c9.4,0,17.1-7.6,17.1-17.1v-42.1C273.2,443.4,265.5,435.8,256.1,435.8z"/>
	<path class="st1" d="M350.9,475.9l-19.5-37.3c-4.4-8.4-1.1-18.7,7.2-23c8.4-4.4,18.7-1.1,23,7.2l19.5,37.3c4.4,8.4,1.1,18.7-7.2,23
		C365.6,487.5,355.2,484.3,350.9,475.9z"/>
</g>
</svg>
