<?xml version="1.0" encoding="iso-8859-1"?>
<!-- Generator: Adobe Illustrator 18.0.0, SVG Export Plug-In . SVG Version: 6.00 Build 0)  -->
<!DOCTYPE svg PUBLIC "-//W3C//DTD SVG 1.1//EN" "http://www.w3.org/Graphics/SVG/1.1/DTD/svg11.dtd">
<svg version="1.1" id="Capa_1" xmlns="http://www.w3.org/2000/svg" xmlns:xlink="http://www.w3.org/1999/xlink" x="0px" y="0px"
	 viewBox="0 0 197.723 197.723" style="enable-background:new 0 0 197.723 197.723;" xml:space="preserve">
<path d="M155.682,43.898h-31.297c0.323-2.418,0.797-4.861,1.425-7.315c0-0.001,0.001-0.002,0.001-0.004
	c1.329-5.2,3.324-10.153,5.932-14.721c1.239-2.171,1.315-4.816,0.203-7.055c-1.112-2.238-3.266-3.775-5.744-4.1L44.83,0.064
	c-3.089-0.405-6.1,1.141-7.575,3.88c-1.477,2.739-1.107,6.106,0.928,8.46c5.992,6.935,10.361,15.296,12.634,24.179
	c1.282,5.029,1.934,10.014,1.934,14.815c0,13.793-4.592,26.756-13.296,37.506c-1.25,1.554-2.579,3.047-3.952,4.437
	c-0.178,0.181-0.347,0.369-0.506,0.566c-9.752,12.112-15.123,27.336-15.123,42.866c0,24.981,13.628,47.981,35.564,60.024
	c1.106,0.607,2.348,0.926,3.609,0.926h58.531c1.262,0,2.503-0.318,3.608-0.925c19.436-10.669,32.34-29.94,35.032-51.569h14.131
	c4.143,0,7.5-3.357,7.5-7.5V66.066C177.85,53.842,167.905,43.898,155.682,43.898z M115.588,182.723H61.037
	c-16.187-9.63-26.164-27.066-26.164-45.95c0-12.177,4.004-23.642,11.583-33.179c1.629-1.669,3.204-3.445,4.672-5.271
	C61.847,85.084,67.75,68.418,67.75,51.398c0-6.053-0.808-12.286-2.401-18.527c0-0.001-0.001-0.001-0.001-0.001
	c0-0.002,0-0.002,0-0.002c-1.396-5.464-3.427-10.768-6.021-15.78l54.714,7.153c-1.088,2.803-2.011,5.681-2.763,8.62
	c-0.001,0.002-0.001,0.005-0.002,0.007c-1.595,6.239-2.403,12.474-2.403,18.53c0,17.027,5.904,33.693,16.615,46.914
	c1.499,1.859,3.072,3.635,4.68,5.281c7.58,9.545,11.584,21.01,11.584,33.18C141.752,155.659,131.775,173.095,115.588,182.723z
	 M162.85,130.229h-6.428c-1.284-13.211-6.416-25.911-14.791-36.32c-0.16-0.197-0.329-0.388-0.508-0.568
	c-1.354-1.371-2.686-2.866-3.97-4.457c-7.094-8.757-11.454-19.008-12.816-29.985h31.345c3.952,0,7.168,3.216,7.168,7.168V130.229z"
	/>
<g>
</g>
<g>
</g>
<g>
</g>
<g>
</g>
<g>
</g>
<g>
</g>
<g>
</g>
<g>
</g>
<g>
</g>
<g>
</g>
<g>
</g>
<g>
</g>
<g>
</g>
<g>
</g>
<g>
</g>
</svg>
