<?xml version="1.0" encoding="utf-8"?>
<!-- Generator: Adobe Illustrator 24.0.0, SVG Export Plug-In . SVG Version: 6.00 Build 0)  -->
<svg version="1.1" id="Capa_1" xmlns="http://www.w3.org/2000/svg" xmlns:xlink="http://www.w3.org/1999/xlink" x="0px" y="0px"
	 viewBox="0 0 382.4 382.4" style="enable-background:new 0 0 382.4 382.4;" xml:space="preserve">
<style type="text/css">
	.st0{fill:#342A2F;}
</style>
<g>
	<path class="st0" d="M311.1,28.9V9.7c0-5.4-4.3-9.7-9.5-9.7H78.7c-5.3,0-9.5,4.3-9.5,9.7v17.9c0,3.2-1.5,6.1-4,7.9
		c-22.6,16.7-34,42.4-34,76.6v168.3c0,67.6,45.9,101.9,136.3,101.9H215c90.4,0,136.3-34.3,136.3-101.9V112.2c0-33-12.1-58.3-36-75.2
		C312.7,35.1,311.1,32.1,311.1,28.9z M332.2,280.5c0,55.5-38.4,82.5-117.3,82.5h-47.5c-78.9,0-117.3-27-117.3-82.5V112.2
		c0-31.3,10.8-52.7,33.2-65.5l0,0c3-1.7,4.9-5,4.9-8.5v-9.1c0-5.4,4.3-9.7,9.5-9.7h184.9c5.3,0,9.5,4.3,9.5,9.7v10.6
		c0,3.5,1.9,6.8,4.9,8.5l0,0c23.7,13.2,35.2,34.1,35.2,63.9V280.5z"/>
</g>
</svg>
