<?xml version="1.0" encoding="utf-8"?>
<!-- Generator: Adobe Illustrator 24.0.0, SVG Export Plug-In . SVG Version: 6.00 Build 0)  -->
<svg version="1.1" id="Layer_1" xmlns="http://www.w3.org/2000/svg" xmlns:xlink="http://www.w3.org/1999/xlink" x="0px" y="0px"
	 viewBox="0 0 382.4 382.4" style="enable-background:new 0 0 382.4 382.4;" xml:space="preserve">
<style type="text/css">
	.st0{fill:#FFC843;}
	.st1{fill:#342A2F;}
</style>
<g id="Layer_2_1_">
	<path class="st0" d="M86,15.3c-5.9,8,4.3,14.1-6.2,27.1c-8.9,11-16.1,11.3-23.8,20.1c-11,12.6-11.1,28.9-11.5,40.7
		c-1.5,58-12,150.8,0.3,197.1c2.5,9.6,5.9,16.6,6.9,18.7c7.5,15.2,17.2,24.8,21.4,28.6c2.2,2,10.4,9.3,23.2,15.7
		c3.9,1.9,13.3,6.3,29.8,9.6c15.4,3.1,27.1,3.4,41.6,3.6c44.3,0.7,66.6,1.1,73.9,0c13.7-2,25-5.2,47.6-11.8
		c11.3-3.3,17-5.2,23.5-9.3c2.1-1.3,15.2-9.7,23.2-24.4c10-18.3,7.5-37.5,6.3-48.2c-7.1-64.6-3.7-176.4-2.4-192.9
		c0.2-2.2,0.7-7.9-1.8-14.2c-3.2-8.2-8.8-10.6-17.5-18.7c-9.7-9-15.5-17.8-20.8-25.9c-9.9-15.1-8.1-18.4-13-22.9
		c-12.7-11.8-36.3,0-62.1,5.4C157.3,27.8,102.9-7.6,86,15.3z"/>
</g>
<g id="Capa_1">
	
		<image style="overflow:visible;opacity:0.75;" width="408" height="469" xlink:href="4CF73E20.png"  transform="matrix(1 0 0 1 -12 -43.6)">
	</image>
	<g>
		
			<image style="overflow:visible;opacity:0.75;" width="351" height="413" xlink:href="4CF73E23.png"  transform="matrix(1 0 0 1 16 -15.6)">
		</image>
		<g>
			<g>
				<g>
					<path class="st1" d="M311.1,28.9V9.7c0-5.4-4.3-9.7-9.5-9.7H78.7c-5.3,0-9.5,4.3-9.5,9.7v17.9c0,3.2-1.5,6.1-4,7.9
						c-22.6,16.7-34,42.4-34,76.6v168.3c0,67.6,45.9,101.9,136.3,101.9H215c90.4,0,136.3-34.3,136.3-101.9V112.2
						c0-33-12.1-58.3-36-75.2C312.7,35.1,311.1,32.1,311.1,28.9z M332.2,280.5c0,55.5-38.4,82.5-117.3,82.5h-47.5
						c-78.9,0-117.3-27-117.3-82.5V112.2c0-31.3,10.8-52.7,33.2-65.5l0,0c3-1.7,4.9-5,4.9-8.5v-9.1c0-5.4,4.3-9.7,9.5-9.7h184.9
						c5.3,0,9.5,4.3,9.5,9.7v10.6c0,3.5,1.9,6.8,4.9,8.5l0,0c23.7,13.2,35.2,34.1,35.2,63.9V280.5z"/>
				</g>
			</g>
		</g>
	</g>
</g>
</svg>
