<?xml version="1.0" encoding="iso-8859-1"?>
<!-- Generator: Adobe Illustrator 19.0.0, SVG Export Plug-In . SVG Version: 6.00 Build 0)  -->
<svg version="1.1" id="Layer_1" xmlns="http://www.w3.org/2000/svg" xmlns:xlink="http://www.w3.org/1999/xlink" x="0px" y="0px"
	 viewBox="0 0 512 512" style="enable-background:new 0 0 512 512;" xml:space="preserve">
<path style="fill:#33A854;" d="M270.394,403.095c28.389,0,55.469,0,71.975,0c63.603,0,115.185-51.56,115.185-115.163
	c0-31.128-12.419-59.319-32.497-80.04c36.017-15.365,61.282-51.085,61.282-92.718c0-55.648-45.132-100.761-100.791-100.761
	c-28.826,0-54.755,12.172-73.126,31.574C307.055,19.75,283.834,0,256.001,0c-21.465,0-40.145,11.765-50.054,29.182
	c-2.49-0.218-4.998-0.387-7.549-0.387c-43.129,0-78.771,31.653-85.227,72.967c-49.38,6.498-87.51,48.635-87.51,99.789
	c0,41.404,24.997,76.945,60.707,92.439c-1.984,7.252-3.125,14.85-3.125,22.735c0,47.692,38.675,86.368,86.368,86.368
	c15.127,0,34.239,0,63.639,0h37.143V403.095z"/>
<path style="opacity:0.48;fill:#24763D;enable-background:new    ;" d="M485.468,115.402c0-46.318-31.271-85.332-73.85-97.115
	c7.132,13.821,11.162,29.503,11.162,46.126c0,41.633-25.265,77.352-61.282,92.718c20.078,20.721,32.497,48.912,32.497,80.04
	c0,63.603-51.581,115.163-115.185,115.163c-16.506,0-43.586,0-71.975,0h-37.142c-29.4,0-48.512,0-63.639,0
	c-5.765,0-11.394-0.576-16.842-1.654c13.139,30.939,43.804,52.643,79.531,52.643c15.127,0,34.239,0,63.639,0h37.142
	c28.389,0,55.469,0,71.975,0c63.603,0,115.185-51.56,115.185-115.163c0-31.128-12.419-59.319-32.497-80.04
	C460.203,192.755,485.468,157.035,485.468,115.402z"/>
<g>
	<path style="fill:#C70024;" d="M206.007,147.105c0,16.352-13.256,29.608-29.608,29.608s-29.608-13.256-29.608-29.608
		s-1.814-29.608,29.608-29.608C206.007,117.496,206.007,130.753,206.007,147.105z"/>
	<path style="fill:#C70024;" d="M405.74,304.861c0,15.976-12.951,28.927-28.927,28.927s-28.927-12.951-28.927-28.927
		s-1.772-28.927,28.927-28.927C405.74,275.933,405.74,288.884,405.74,304.861z"/>
	<path style="fill:#C70024;" d="M391.151,133.666c0,16.352-13.256,29.608-29.608,29.608s-29.608-13.256-29.608-29.608
		s-1.814-29.608,29.608-29.608C391.151,104.057,391.151,117.313,391.151,133.666z"/>
	<path style="fill:#C70024;" d="M193.358,303.712c0,16.352-13.256,29.608-29.608,29.608s-29.608-13.256-29.608-29.608
		s-1.814-29.608,29.608-29.608C193.358,274.103,193.358,287.36,193.358,303.712z"/>
</g>
<path style="fill:#836948;" d="M344.655,185.489L344.655,185.489c-6.59-6.59-13.975-9.989-16.411-7.553l-58.383,58.383V112.368
	c0-9.32-7.626-16.946-16.946-16.946l0,0c-9.32,0-16.946,7.626-16.946,16.946V512h33.891V284.247l82.348-82.348
	C354.643,199.464,351.245,192.079,344.655,185.489z"/>
<g>
</g>
<g>
</g>
<g>
</g>
<g>
</g>
<g>
</g>
<g>
</g>
<g>
</g>
<g>
</g>
<g>
</g>
<g>
</g>
<g>
</g>
<g>
</g>
<g>
</g>
<g>
</g>
<g>
</g>
</svg>
