<?xml version="1.0" encoding="iso-8859-1"?>
<!-- Generator: Adobe Illustrator 19.0.0, SVG Export Plug-In . SVG Version: 6.00 Build 0)  -->
<svg version="1.1" id="Layer_1" xmlns="http://www.w3.org/2000/svg" xmlns:xlink="http://www.w3.org/1999/xlink" x="0px" y="0px"
	 viewBox="0 0 512 512" style="enable-background:new 0 0 512 512;" xml:space="preserve">
<path style="fill:#5C5C5C;" d="M255.88,138.796c-7.926,0-15.59,1.72-22.271,4.719v-21.423c0-9.225-7.479-16.703-16.703-16.703
	s-16.704,7.479-16.704,16.703v45.644c-56.792-32.694-127.552-38.378-189.055-12.613c-0.362,0.151-0.704,0.251-1.066,0.404
	c-14.155,6.031-13.008,26.111,0.954,31.107c27.112,9.702,51.948,43.905,47.264,72.316c-0.996,6.036,1.391,12.126,6.208,15.888
	c4.834,3.763,10.832,2.526,16.928,2.154c27.292-1.667,65.634,21.432,65.955,48.773c0.072,6.106,1.388,12.126,6.205,15.888
	c4.834,3.763,11.337,4.578,16.926,2.154c27.596-11.973,55.168,29.838,71.446,55.135c3.072,4.774,8.363,7.667,14.044,7.667
	c5.677,0,10.967-2.893,14.039-7.667c16.279-25.297,43.85-67.108,71.446-55.135c5.59,2.425,12.092,1.609,16.926-2.154
	c4.817-3.763,6.132-9.783,6.204-15.888c0.323-27.341,38.663-50.44,65.955-48.773c6.097,0.372,12.092,1.609,16.926-2.154
	c4.817-3.763,7.199-9.853,6.204-15.888c-4.684-28.413,20.143-62.615,47.256-72.316c13.962-4.997,15.092-25.075,0.938-31.107
	c-0.361-0.154-0.803-0.252-1.165-0.404c-61.502-25.765-132.396-20.082-189.188,12.613v-45.644c0-9.225-7.479-16.703-16.703-16.703
	c-9.225,0-16.703,7.479-16.703,16.703v21.423C271.47,140.517,263.806,138.796,255.88,138.796z"/>
<path style="fill:#3E3D42;" d="M501.911,155.527c-0.361-0.154-0.803-0.252-1.165-0.403
	c-61.502-25.765-132.396-20.082-189.188,12.613v-45.644c0-9.225-7.479-16.703-16.704-16.703c-9.225,0-16.703,7.479-16.703,16.703
	v21.423c-6.681-2.999-14.345-4.719-22.271-4.719v267.806c0.046,0,0.09,0.004,0.136,0.004c5.677,0,10.967-2.893,14.039-7.667
	c16.279-25.297,43.85-67.108,71.446-55.135c5.59,2.425,12.092,1.609,16.926-2.154c4.817-3.763,6.132-9.783,6.204-15.888
	c0.323-27.341,38.663-50.44,65.955-48.773c6.097,0.372,12.092,1.609,16.926-2.154c4.817-3.763,7.199-9.853,6.204-15.888
	c-4.684-28.413,20.143-62.615,47.256-72.316C514.934,181.638,516.066,161.559,501.911,155.527z"/>
<g>
</g>
<g>
</g>
<g>
</g>
<g>
</g>
<g>
</g>
<g>
</g>
<g>
</g>
<g>
</g>
<g>
</g>
<g>
</g>
<g>
</g>
<g>
</g>
<g>
</g>
<g>
</g>
<g>
</g>
</svg>
