<?xml version="1.0" encoding="utf-8"?>
<!-- Generator: Adobe Illustrator 24.0.0, SVG Export Plug-In . SVG Version: 6.00 Build 0)  -->
<svg version="1.1" xmlns="http://www.w3.org/2000/svg" xmlns:xlink="http://www.w3.org/1999/xlink" x="0px" y="0px"
	 viewBox="0 0 512 512" style="enable-background:new 0 0 512 512;" xml:space="preserve">
<style type="text/css">
	.st0{fill:#FFE84A;}
	.st1{fill:#5C5C5C;}
	.st2{fill:#3E3D42;}
</style>
<g id="Layer_2">
	<ellipse class="st0" cx="256" cy="241" rx="256" ry="162.8"/>
</g>
<g id="Layer_1">
	<path class="st1" d="M255.9,153c-7,0-13.8,1.5-19.7,4.2v-19c0-8.2-6.6-14.8-14.8-14.8c-8.2,0-14.8,6.6-14.8,14.8v40.4
		c-50.3-28.9-112.9-34-167.3-11.2c-0.3,0.1-0.6,0.2-0.9,0.4c-12.5,5.3-11.5,23.1,0.8,27.5c24,8.6,46,38.9,41.8,64
		c-0.9,5.3,1.2,10.7,5.5,14.1c4.3,3.3,9.6,2.2,15,1.9c24.2-1.5,58.1,19,58.4,43.2c0.1,5.4,1.2,10.7,5.5,14.1c4.3,3.3,10,4.1,15,1.9
		c24.4-10.6,48.8,26.4,63.2,48.8c2.7,4.2,7.4,6.8,12.4,6.8c5,0,9.7-2.6,12.4-6.8c14.4-22.4,38.8-59.4,63.2-48.8
		c4.9,2.1,10.7,1.4,15-1.9c4.3-3.3,5.4-8.7,5.5-14.1c0.3-24.2,34.2-44.6,58.4-43.2c5.4,0.3,10.7,1.4,15-1.9
		c4.3-3.3,6.4-8.7,5.5-14.1c-4.1-25.1,17.8-55.4,41.8-64c12.4-4.4,13.4-22.2,0.8-27.5c-0.3-0.1-0.7-0.2-1-0.4
		c-54.4-22.8-117.2-17.8-167.4,11.2v-40.4c0-8.2-6.6-14.8-14.8-14.8c-8.2,0-14.8,6.6-14.8,14.8v19C269.7,154.6,262.9,153,255.9,153z
		"/>
	<path class="st2" d="M473.6,167.9c-0.3-0.1-0.7-0.2-1-0.4c-54.4-22.8-117.2-17.8-167.4,11.2v-40.4c0-8.2-6.6-14.8-14.8-14.8
		c-8.2,0-14.8,6.6-14.8,14.8v19c-5.9-2.7-12.7-4.2-19.7-4.2v237c0,0,0.1,0,0.1,0c5,0,9.7-2.6,12.4-6.8
		c14.4-22.4,38.8-59.4,63.2-48.8c4.9,2.1,10.7,1.4,15-1.9c4.3-3.3,5.4-8.7,5.5-14.1c0.3-24.2,34.2-44.6,58.4-43.2
		c5.4,0.3,10.7,1.4,15-1.9c4.3-3.3,6.4-8.7,5.5-14.1c-4.1-25.1,17.8-55.4,41.8-64C485.2,191,486.2,173.2,473.6,167.9z"/>
</g>
</svg>
