<?xml version="1.0" encoding="utf-8"?>
<!-- Generator: Adobe Illustrator 24.0.0, SVG Export Plug-In . SVG Version: 6.00 Build 0)  -->
<svg version="1.1" id="Layer_1" xmlns="http://www.w3.org/2000/svg" xmlns:xlink="http://www.w3.org/1999/xlink" x="0px" y="0px"
	 viewBox="0 0 512 512" style="enable-background:new 0 0 512 512;" xml:space="preserve">
<style type="text/css">
	.st0{fill:#57555C;}
	.st1{fill:#3B3A3C;}
	.st2{fill:#787780;}
	.st3{fill:#77DD00;}
	.st4{fill:#1C2042;}
	.st5{fill:#FF7FAE;}
</style>
<g id="Layer_1_1_">
	<path class="st0" d="M472.1,72.7c-22.9-21.2-52.8-32.8-84-32.8c-68.3,0-123.8,55.5-123.8,123.8c0,45.7,19.6,79,63.5,108.1
		c24,15.9,64.3,49.4,64.3,95.4c0,47.7-32.9,87.7-77.1,98.9c0.4-13.4-0.9-29.8-6.3-48.5c-14.8-51.3-68.2-96.7-99.9-132.6
		c-21.7-24.6-33.9-67.4-39.4-91.9c21.9-14.2,36.4-38.7,36.4-66.7c0-44-35.6-79.6-79.6-79.6s-79.6,35.6-79.6,79.6
		c0,33,20.1,61.3,48.6,73.4c1.8,16,4.1,43.6,0.5,58.4c-5.3,21.7-31.7,40.2-16.4,80.3s23.8,43.3,23.2,65c-0.4,18.4-0.1,37.5,0,42.8
		H92.4c-18.3,0-33.1,14.8-33.1,33.1v24h43.3h42.3c0,0,119.8,0,163.3,0c45,0,117.8-67.4,117.8-136c0-61.7-49.8-103.9-79.4-123.6
		c-34.4-22.8-48.4-45.9-48.4-79.9c0-49.6,40.4-90,90-90c22.7,0,44.4,8.5,61,23.9c6.8,6.3,17.5,5.9,23.9-0.9
		C479.4,89.7,478.9,79,472.1,72.7z"/>
	<path class="st1" d="M308.6,417.4c-14.8-51.3-68.2-96.7-99.9-132.6c-21.7-24.6-33.9-67.4-39.4-91.9c21.9-14.2,36.4-38.7,36.4-66.7
		c0-10.9-0.8-18.1-4.8-27.6l9.3-12.9c18.3-21.6,18-55.9-3.6-74.2h-0.4l-38.5,46.9c-11.6-6.6-27.4-11.7-41.7-11.7
		c-4.2,0-8.2,0.6-12.2,1.2c38.2,5.9,67.5,38.6,67.5,78.4c0,19-6.7,36.5-17.9,50.1c-11,13.5-15.5,31.1-10.2,47.6
		c6.9,21.3,16.9,45,31,60.9c31.7,35.9,85.1,81.4,99.9,132.6c5.4,18.8,23,42.8,30.6,38.6C314.5,444.7,312.7,431.8,308.6,417.4z"/>
	<path class="st2" d="M120.4,257.9c2.4-10,2.2-26,1.2-40.2c-0.7-10.5-6.6-19.7-15.3-25.6c-21.1-14.3-35-38.5-35-65.9
		c0-39.7,29.2-72.4,67.3-78.4c-4-0.6-8.1-1.2-12.3-1.2c-13,0-25.2,3.1-36,8.6L52.6,9l0,0C31,27.3,28.4,59.6,46.7,81.2l7.8,10.4
		c-5,10.4-7.9,22.2-7.9,34.5c0,33,20,61.3,48.6,73.4c1.8,16,4.1,43.6,0.5,58.4c-5.3,21.7-31.7,40.2-16.4,80.3
		c15.3,40.2,23.8,43.3,23.2,65c-0.4,18.4-0.1,37.5,0,42.8H92.4c-18.3,0-33.1,14.8-33.1,33.1v24H84v-24c0-18.3,14.8-33.1,33.1-33.1
		h10.2c-0.1-5.3-0.4-24.4,0-42.8c0.5-21.7-7.9-24.8-23.2-65C88.7,298,115.1,279.5,120.4,257.9z"/>
	<g>
		<path class="st3" d="M87.6,114.9l-2.9,10.7l-2.4-10.7H71.8c0,10.6,8.6,19.1,19.1,19.1s19.1-8.6,19.1-19.1H87.6z"/>
		<path class="st3" d="M149.5,114.9l-2.9,10.7l-2.4-10.7h-8.4c0,10.6,8.6,19.1,19.1,19.1s19.1-8.6,19.1-19.1
			C174.1,114.9,149.5,114.9,149.5,114.9z"/>
	</g>
	<g>
		<path class="st4" d="M485.8,85c-0.3-6.7-3.1-12.8-8-17.4c-24.4-22.6-56.2-35-89.5-35c-15.7,0-31.1,2.7-45.7,8.2
			c-4.2,1.6-6.3,6.2-4.8,10.4c1.6,4.2,6.2,6.3,10.4,4.8c12.8-4.8,26.3-7.2,40.1-7.2c29.2,0,57.1,10.9,78.5,30.7
			c1.7,1.6,2.7,3.8,2.8,6.1c0.1,2.4-0.7,4.6-2.3,6.3c-3.3,3.6-8.9,3.8-12.5,0.5c-18.2-16.8-41.8-26-66.5-26
			c-54.1,0-98.1,44-98.1,98.1c0,36.6,15.5,62.5,52,86.6C370.5,269.9,418,310,418,367.9c0,4.5,3.6,8.1,8.1,8.1s8.1-3.6,8.1-8.1
			c0-65.5-52-109.8-83.1-130.3c-32.2-21.3-44.7-41.8-44.7-73.1c0-45.1,36.7-81.9,81.9-81.9c20.7,0,40.4,7.7,55.5,21.7
			c10.1,9.4,26,8.7,35.3-1.4C483.8,98,486.1,91.7,485.8,85z"/>
		<path class="st4" d="M423.9,390.9c-4.3-1.3-8.8,1.2-10,5.5c-15.8,53.6-71.1,99.5-105.4,99.5H151.1V375c0-4.5-3.6-8.1-8.1-8.1
			s-8.1,3.6-8.1,8.1v120.8H67.7V480c0-13.8,11.2-25,25-25h10.2c2.2,0,4.3-0.9,5.8-2.4s2.4-3.6,2.3-5.8c-0.1-5.4-0.4-24.4,0-42.4
			c0.4-15.3-3.4-23-9.6-35.7c-3.8-7.7-8.4-17.3-14.2-32.3c-1.7-4.4-2.9-8.7-3.5-12.8c-0.7-4.4-4.9-7.4-9.3-6.7
			c-4.4,0.7-7.4,4.9-6.7,9.3c0.8,5.2,2.3,10.5,4.4,15.9c6,15.7,11.1,26.1,14.8,33.7c5.8,11.9,8.2,16.9,8,28.2
			c-0.3,12.9-0.3,26.2-0.2,34.9h-2c-22.7,0-41.2,18.5-41.2,41.2v24c0,4.5,3.6,8.1,8.1,8.1h248.9c20.8,0,46.4-12.2,70-33.5
			c24.2-21.7,42.7-50,50.9-77.6C430.6,396.7,428.2,392.2,423.9,390.9z"/>
		<path class="st4" d="M85.2,281.2c-4-1.9-8.9-0.3-10.8,3.8c-1.2,2.5-2.2,4.8-3.1,7.1c-1.6,4.2,0.5,8.9,4.7,10.5
			c1,0.4,1.9,0.5,2.9,0.5c3.3,0,6.3-2,7.6-5.2c0.7-1.9,1.6-3.8,2.5-5.8C90.9,288,89.2,283.2,85.2,281.2z"/>
		<path class="st4" d="M88,205.8c2.4,23.2,2.5,41.6,0.2,51c-1.1,4.3,1.6,8.7,5.9,9.8c4.3,1.1,8.7-1.6,9.8-5.9
			c3.7-15.3,1.9-41.7-0.3-61.2c-0.3-2.9-2.2-5.4-4.9-6.5C72.1,181.7,55,155.8,55,127c0-39.4,32.1-71.5,71.5-71.5S198,87.6,198,127
			c0,24.3-12.2,46.7-32.8,60c-2.8,1.8-4.2,5.3-3.5,8.6C167.3,220,180,264.9,203,291c7.1,8.1,15.2,16.5,23.8,25.4
			c29.7,31,63.4,66.1,74.4,104.1c4.5,15.5,6.5,30.9,6,46c-0.1,2.5,1,5,3,6.6c1.5,1.2,3.2,1.8,5.1,1.8c0.7,0,1.3-0.1,2-0.2
			c49-12.4,83.2-56.3,83.2-106.7c0-49.7-42.6-85.3-67.9-102.1c-41.4-27.4-59.9-58.7-59.9-101.3c0-22.5,6.5-44.3,18.8-63.1
			c2.4-3.7,1.4-8.8-2.3-11.2c-3.7-2.4-8.8-1.4-11.2,2.3c-14,21.4-21.4,46.3-21.4,72c0,48.7,20.7,84.1,67.1,114.8
			c22.7,15,60.7,46.5,60.7,88.6c0,39.5-24.6,74.3-61,87.9c-0.5-13.2-2.7-26.5-6.6-39.8c-12.1-41.8-47.2-78.5-78.2-110.8
			c-8.5-8.8-16.4-17.1-23.3-24.9c-19.2-21.7-30.7-59.4-36.4-83.1c22.3-16.6,35.4-42.4,35.4-70.3c0-9.6-1.6-18.9-4.4-27.5
			c0.2-0.2,0.3-0.3,0.4-0.5l8.2-10.9c10.2-12.1,15-27.3,13.8-43c-1.3-15.8-8.6-30.2-20.7-40.4c-1.7-1.4-3.8-2.1-6-1.9
			c-2.2,0.2-4.2,1.3-5.5,2.9l-34.8,42.7c-11.7-5.7-24.8-9-38.6-9c-11.7,0-22.8,2.3-33,6.5L58.5,3c-1.3-1.7-3.3-2.8-5.5-3
			s-4.3,0.5-6,1.9C22.1,23,19,60.4,40,85.3l5.6,7.5c-4.4,10.5-6.9,22-6.9,34.1C38.8,160.7,57.9,191.1,88,205.8z M206.7,22.9
			c5.3,6.7,8.6,14.7,9.3,23.4c0.9,11.5-2.7,22.7-10.1,31.4c-0.1,0.1-0.2,0.3-0.3,0.4l-3.4,4.6c-5.9-10.1-13.8-18.9-23.1-25.9
			L206.7,22.9z M52.9,75.5c-0.1-0.1-0.2-0.3-0.3-0.4C39,59.1,39.1,36,51.7,20.2l27.1,33.2c-9.7,6.3-18,14.4-24.6,23.9L52.9,75.5z"/>
		<path class="st4" d="M306,80.2c2,0,4-0.7,5.5-2.2c1.7-1.6,2.4-2.2,4-3.3c0.5-0.4,1-0.8,1.7-1.3c3.5-2.8,4.1-7.8,1.4-11.4
			c-2.8-3.5-7.8-4.1-11.4-1.4c-0.6,0.5-1.1,0.9-1.6,1.2c-1.7,1.3-2.9,2.2-5.1,4.3c-3.3,3-3.5,8.2-0.4,11.4
			C301.7,79.3,303.8,80.2,306,80.2z"/>
	</g>
	<g>
		<path class="st5" d="M114.8,160.2h-10.5c0,10.6,8.6,19.1,19.1,19.1s19.1-8.6,19.1-19.1H120"/>
	</g>
</g>
</svg>
