<?xml version="1.0" encoding="utf-8"?>
<!-- Generator: Adobe Illustrator 24.0.0, SVG Export Plug-In . SVG Version: 6.00 Build 0)  -->
<svg version="1.1" id="Layer_1" xmlns="http://www.w3.org/2000/svg" xmlns:xlink="http://www.w3.org/1999/xlink" x="0px" y="0px"
	 viewBox="0 0 512 512" style="enable-background:new 0 0 512 512;" xml:space="preserve">
<style type="text/css">
	.st0{fill:#6D2C93;}
	.st1{fill:#933EC5;}
	.st2{fill:#FFFFFF;}
	.st3{fill:#954E9D;stroke:#FCFF4A;stroke-width:2;stroke-miterlimit:10;}
	.st4{fill:#9A7338;}
	.st5{fill:#825E2D;}
	.st6{fill:#F5D827;}
	.st7{fill:#F7E497;}
	.st8{fill:#F4D967;}
</style>
<path class="st0" d="M456.3,0H89C61.4,0,39,22.4,39,50.1v411.8C39,489.6,61.4,512,89,512h367.3c9.2,0,16.7-7.5,16.7-16.7V16.7
	C473,7.5,465.6,0,456.3,0z"/>
<path class="st1" d="M473,411.8V13.4C473,6,465.6,0,456.3,0H89v411.8H473z"/>
<path class="st2" d="M439.7,478.6H89c-9.2,0-16.7-7.5-16.7-16.7c0-9.2,7.5-16.7,16.7-16.7c175.3,0,177.2,0,350.6,0V478.6z"/>
<circle class="st3" cx="282.1" cy="209.1" r="174.2"/>
<g>
	<path class="st4" d="M246.9,167.4l160.6,160.9c3.5-3.7,6.8-7.5,10-11.5L258.9,164C256,161.1,250.7,163.5,246.9,167.4z"/>
	<path class="st4" d="M244,179c-0.7-0.7-1.2-1.3-1.6-1.9c0.2,0.9,0.5,1.6,1.2,2.3l153.3,159.2c0.1-0.1,0.1-0.1,0.2-0.2L244,179z"/>
</g>
<g>
	<path class="st5" d="M246.9,167L246.9,167c-5,5-5.8,7.5-4.5,9.7C241.9,173.8,243.9,170,246.9,167z"/>
	<path class="st5" d="M242.4,176.8c0.4,0.6,0.9,1.3,1.6,1.9l153.1,159.4c3.6-3.2,7.1-6.6,10.4-10.1L246.9,167
		C243.9,170,241.9,173.8,242.4,176.8z"/>
</g>
<path class="st6" d="M302.8,102c3.8,1.9-4.6,53.7-3.3,57.1c1.4,3.4,45.2,31.5,45.2,35c0,3.5-52.3,11.6-55.3,14.6
	c-3,2.9-15.3,53.4-19.4,53.8c-4.1,0.4-28.3-46.9-30.9-48.1c-2.6-1.2-55.5,1.9-57.1-1.8c-1.6-3.7,35.6-40.6,36.2-44.3
	c0.6-3.7-18.6-52.4-16-54.9c2.6-2.5,50.3,20.9,53.3,20.7C258.5,134,299,100.1,302.8,102z"/>
<path class="st7" d="M283.4,138.8c1.8,0.9-2.2,26.1-1.6,27.7c0.7,1.6,22,15.3,21.9,17c0,1.7-25.4,5.7-26.8,7.1s-7.4,25.9-9.4,26.1
	c-2,0.2-13.7-22.8-15-23.4c-1.3-0.6-27,0.9-27.7-0.9c-0.8-1.8,17.3-19.7,17.6-21.5c0.3-1.8-9-25.4-7.8-26.7
	c1.3-1.2,24.4,10.1,25.9,10.1C261.9,154.4,281.6,137.9,283.4,138.8z"/>
<g>
	<path class="st8" d="M340.9,142.1c0.5,2-16.9,15.6-21.3,16c-1.8,0.2-5.1-1.2-6.3-4.4c-1.2-3.2-0.5-5.8,1.4-7.1
		C318.1,144.4,340.4,140.1,340.9,142.1z"/>
	<path class="st8" d="M250.5,93.1c2.1,0.1,10.4,20.5,9.6,24.8c-0.3,1.8-2.6,4.5-5.9,4.8c-3.4,0.3-5.7-1.1-6.5-3.3
		C246.4,115.7,248.5,93,250.5,93.1z"/>
	<path class="st8" d="M175.4,164c0.5-2,22.2-6,26.2-4.4c1.7,0.7,3.9,3.4,3.5,6.8c-0.4,3.3-2.2,5.4-4.6,5.7
		C196.8,172.5,174.9,165.9,175.4,164z"/>
	<path class="st8" d="M220.2,252.6c-1.7-1.2,2.2-22.9,5.2-26.1c1.2-1.3,4.6-2.5,7.6-0.9c3,1.6,4.2,4,3.7,6.3
		C235.8,235.6,221.9,253.8,220.2,252.6z"/>
</g>
</svg>
