<?xml version="1.0" encoding="utf-8"?>
<!-- Generator: Adobe Illustrator 24.0.0, SVG Export Plug-In . SVG Version: 6.00 Build 0)  -->
<svg version="1.1" id="Layer_1" xmlns="http://www.w3.org/2000/svg" xmlns:xlink="http://www.w3.org/1999/xlink" x="0px" y="0px"
	 viewBox="0 0 512 512" style="enable-background:new 0 0 512 512;" xml:space="preserve">
<style type="text/css">
	.st0{fill:#6D4C41;}
	.st1{fill:#EF6C00;}
	.st2{fill:#E65100;}
	.st3{fill:#FFEB3B;}
</style>
<path class="st0" d="M264.3,310.7l-9.8-12.2c24.7-19.9,49.9-43.5,71.6-68.1c9.4-10.7,16-27.1,19.3-40.7c1.8-7.4,4.1-15.6,5.6-23.2
	c2.6-12.8-3.9-13.8,6.7-32c25-42.6,49.7-89.9,83-127c3.8-4.2,10.8-1.8,11.1,3.8l1.4,22.3c0.5,8.4-2.6,16.7-8.6,22.6
	c-30,30.1-43.8,45.2-67.1,86.4c-4.2,7.4-7.1,15.1-9.1,25.3c-1.6,7.9-4.4,18.2-6.3,26c-4.2,17.5-10.4,33.6-22.5,47.4
	C317.1,267,290.1,289.9,264.3,310.7z"/>
<path class="st1" d="M283.7,285c-1.8-1.9-3.6-3.8-5.3-5.7c-5.8-6.5-15.9-6.6-21.5,0.1c-1.1,1.3-1.9,2.3-2.3,2.8
	c-17.8,22.5-34.5,29.7-62.6,36c-57.6,13-108.5,43.5-146.8,85.7c-11.1,12.2-29,15.5-43.9,8.5l-0.3-0.2c-0.3,2.6-0.6,5.1-0.7,7.7
	c-3.9,69.2,76.1,110.5,133.5,71.7c45.8-30.9,81.9-74.9,103.3-126.6c8.5-20.6,23.2-38.1,41.6-50.7c0.8-0.5,1.6-1.1,2.4-1.7
	C290,306.1,291.5,293,283.7,285z"/>
<g>
	<path class="st2" d="M158.8,455.3l-0.6-0.8c16.7-13.4,29.8-31.5,39.8-51.2c7.1-13.9,16-27.7,20.3-42.3l1.1,0.3
		c-4.5,15.7-7.8,31.5-16.5,45.2C191.1,425,176,441.5,158.8,455.3z"/>
	<path class="st2" d="M60.6,478.8l-0.3-1c27.1-9.5,53.3-27.1,78.9-43.2c27.6-17.3,51.5-37.5,62.7-61.5l1,0.5
		c-11.9,25.5-30.3,50-59.2,68.2C117.2,458.3,88.1,469.1,60.6,478.8z"/>
	<path class="st2" d="M35,438.7c-9.4,0-19-2.6-26.6-9.1l1.1-1.2c15.3,12.1,33.1,3.2,45.1-2.4c14.2-6.6,27.6-17,36.8-28.1l1.3,1
		c-9.8,11.8-18.7,27.3-34.5,34.7C51.5,436.7,43.3,438.7,35,438.7z"/>
</g>
<g>
	
		<rect x="229.5" y="298.8" transform="matrix(0.7308 -0.6826 0.6826 0.7308 -156.7777 249.4631)" class="st3" width="16.8" height="49.3"/>
	
		<rect x="249.7" y="280.4" transform="matrix(0.7674 -0.6411 0.6411 0.7674 -132.7906 238.5049)" class="st3" width="25.3" height="43.9"/>
</g>
</svg>
