<?xml version="1.0" encoding="utf-8"?>
<!-- Generator: Adobe Illustrator 24.0.0, SVG Export Plug-In . SVG Version: 6.00 Build 0)  -->
<svg version="1.1" id="Layer_1" xmlns="http://www.w3.org/2000/svg" xmlns:xlink="http://www.w3.org/1999/xlink" x="0px" y="0px"
	 viewBox="0 0 512 512" style="enable-background:new 0 0 512 512;" xml:space="preserve">
<style type="text/css">
	.st0{fill:#4E342E;}
	.st1{fill:#5D4037;}
	.st2{fill:#3E2723;}
	.st3{fill:#FBC02D;}
	.st4{fill:#FFFFFF;}
	.st5{fill:#FFAB00;}
	.st6{fill:#880E4F;}
	.st7{fill:#E65100;}
	.st8{fill:#EF6C00;}
	.st9{fill:#FB8C00;}
</style>
<path class="st0" d="M81.1,475.1c-12.5-5-23.7-13-32.8-23.7c-16.1-18.8-22.4-44.5-18.1-68.9c7.7-43.9,44.6-69.1,83.3-69.3
	c22.3,0.2,43,9,58.3,24.9c32,33.1,58.7,73.3,79.5,119.3l-24.1,10.9c-19.5-43.3-44.6-80.9-74.4-111.8c-10.3-10.7-24.4-16.7-39.5-16.8
	c-14.5-0.2-27.8,4.9-38.5,14.2c-24.3,21.3-27,56.8-5.6,81.1c6.3,7.2,14.1,12.6,22.8,15.9c5.3,2,7.7,8.1,4.8,12.9
	c-1.5,2.5-3.1,5.2-4.5,7.6C90,475.3,85.2,476.8,81.1,475.1z"/>
<path class="st1" d="M456.6,476.7H121.2v-8.8c0-14.6,11.9-26.5,26.5-26.5h282.5c14.6,0,26.5,11.9,26.5,26.5L456.6,476.7L456.6,476.7
	z"/>
<path class="st2" d="M447.8,512H130c-14.6,0-26.5-11.9-26.5-26.5l0,0c0-4.9,4-8.8,8.8-8.8h353.1c4.9,0,8.8,4,8.8,8.8l0,0
	C474.3,500.1,462.4,512,447.8,512z"/>
<path class="st3" d="M294.9,253.2c0,12.5-10.1,22.6-22.6,22.6s-22.6-10.1-22.6-22.6s10.1-185.6,22.6-185.6
	C284.8,67.7,294.9,240.7,294.9,253.2z"/>
<path class="st4" d="M290,252.3c0,9.7-7.9,17.7-17.7,17.7s-17.7-7.9-17.7-17.7c0-9.8,7.9-63.6,17.7-63.6
	C282.1,188.7,290,242.5,290,252.3z"/>
<path class="st5" d="M253.2,294.4c1.6-8,4.2-15.7,7.6-23c2-4.4,8.1-4.9,10.8-1c0.2,0.3,0.4,0.5,0.6,0.8c2.5,3.7,7.4,4.8,11.2,2.5
	c10.2-6.2,21.5-10.7,33.5-13.3c0.9-1,1.7-3.1,2.6-5.7c2.9-9.2,15.6-8.3,17.8,1.1l0,0.1c5.3,2.3,6.7,4.9,9.2,10c3.7-4.2,6-9.7,6-15.7
	c0,0,5.7,17.7-5.4,35.1s-41.4,23.4-64,23.4C260.4,308.9,253.2,294.4,253.2,294.4z"/>
<path class="st6" d="M299.4,305.3c-2.2-18.8-10.4-31.1-16.6-41c-1.6-2.6-1.8-5.7-1-8.6c1.3-4.4,0.4-9.3-3.1-12.8
	c-5.1-5.2-13.5-5.2-18.7-0.1c-5.2,5.1-5.2,13.5-0.1,18.7c3.1,3.1,7.3,4.3,11.3,3.6c3.1-0.5,6.5,0.3,8.6,2.7
	c5.3,6.4,7.2,17.2,2.1,35.2L299.4,305.3z"/>
<path class="st7" d="M433.3,448.4c-11.6-14.8-26.1-27.1-42.5-36.6c-0.1-0.8-0.1-1.6-0.2-2.4c-1-9.6-4.8-18.5-10.3-26.4
	c-1.2-1.7-2.3-3.4-3.3-5.1c1.7-8.8,4.3-17.3,7.7-25.3c3.6-8.5,4.4-17.8,2.5-26.8c-1.5-7.2-2.5-14.6-2.7-22.1l0,0
	c9.2,0.9,14.5-10.3,8.8-17.5c-11.3-14.2-23.9-27.3-37.8-39c0,0,9.4,18.3,2.1,31.1c-7.2,12.8-11.9,40.1-10.2,71.6
	s10.2,98.6,10.2,98.6L433.3,448.4L433.3,448.4L433.3,448.4z"/>
<path class="st8" d="M360.3,297c-16.2,12.3-48.2,71.9-56.8,42.5c-8.6-29.3-33.7-20.2-39.2-0.9c-4.4,15.6,2.6,41.3-14.6,38
	c-15.6-3-15.6-37.1-21.5-54.6s-13.7-27.3-18.2-12.2c1.9,22.9,1.5,45.9-1.2,68.7c-16.8,13.4-29.2,32-34.6,53.5
	c-11.8,3.1-22.4,9.3-30.7,17.8l226.9,0c-7.7-35.9-11.7-73.2-11.7-111.3C358.8,325.2,359.3,309.9,360.3,297z"/>
<path class="st9" d="M228.3,322c5.9,17.6,5.9,51.7,21.5,54.6c17.3,3.3,10.2-22.4,14.6-38c5.5-19.3,30.6-28.4,39.2,0.9
	c7.9,26.9,35.4-19.1,52.4-36.4c2.4-2.5,4.1-5.4,5.5-8.6c1-2.4,2.7-4.5,4.8-6.3c6.1-5.2,10-12.9,10-21.6c0-7.1-2.7-13.5-7-18.5
	l0.1-0.1c8.2-4.2,8.6-16,0.5-20.4c-6.1-3.3-12.9-5.8-19.1-8.4c-3.7-1.5-7.9-0.8-10.7,1.9c0,0-0.1,0.1-0.1,0.1
	c-3.6,3.6-3.8,9.2-0.6,13.2c7.5,9.1,12.3,20,9.7,32.3c-1.6,7.3-5,13.7-9.6,19c-5-7.4-7.4-16.1-7.3-24.8c0.1-3.7-4.7-5.5-7.1-2.7
	c-4.5,5.5-7.7,12.2-9.1,19.6c-0.6,3.3-2.3,6.3-5,8.4c-4.2,3.3-8.1,7.2-11.5,11.6c-3.2,0.4-11.5,1.2-11.9,0.6
	c-7.2-7.7-5-29.6-8.7-29.6c-6.3,0-2.8,10.1-4.5,16.1c-1,3.5-4.9,5.2-8.3,3.8c-3.1-1.3-6.2-2.8-9-4.5c-2.8-1.7-4.3-4.8-4.6-8.1
	c-0.4-4.8,1.9-12.6-2.6-14.1c-6.7-2.2-10.4,9.6-14.5,15.4c-2.9,0.6-5.7-0.3-7.8-2.4c0.2-12-0.8-23.8-2.8-35.3
	c-0.9-5.4,1.7-10.8,6.3-13.7c1.8-1.1,3.3-2.4,4.5-4.1c1.9-2.9,1.9-7.3,0.3-10.4c-1.8-3.4-6.2-4.3-9.6-5.8c-5.5-2.4-12-0.9-15.8,3.8
	c-1.3,1.6-2.6,3.3-3.8,5c-1.7,2.2-2.6,4.8-2.7,7.6c-1.1,25.3-5.1,49.8-12.3,73c-2,6.6,1.5,13.6,8.1,15.6c3.6,1.1,7.3,0.5,10.2-1.3
	C214.6,294.7,222.4,304.5,228.3,322z"/>
</svg>
