<?xml version="1.0" encoding="utf-8"?>
<!-- Generator: Adobe Illustrator 24.0.0, SVG Export Plug-In . SVG Version: 6.00 Build 0)  -->
<svg version="1.1" id="Layer_1" xmlns="http://www.w3.org/2000/svg" xmlns:xlink="http://www.w3.org/1999/xlink" x="0px" y="0px"
	 viewBox="0 0 330 330" style="enable-background:new 0 0 330 330;" xml:space="preserve">
<style type="text/css">
	.st0{fill:#00D7DF;}
	.st1{fill:#EA348B;}
	.st2{fill:#AF2768;}
	.st3{fill:#FFDA44;}
	.st4{fill:#FF9811;}
	.st5{fill:#FF5023;}
	.st6{fill:#003638;}
	.st7{fill:#FFFFFF;}
</style>
<g id="XMLID_1299_">
	<circle id="XMLID_1300_" class="st0" cx="60" cy="255" r="60"/>
	<circle id="XMLID_1301_" class="st1" cx="110" cy="255" r="60"/>
	<path id="XMLID_1302_" class="st2" d="M110,315c33.1,0,60-26.9,60-60s-26.9-60-60-60"/>
	<circle id="XMLID_1303_" class="st3" cx="160" cy="255" r="60"/>
	<circle id="XMLID_1304_" class="st4" cx="210" cy="245" r="60"/>
	<path id="XMLID_1305_" class="st5" d="M210,305c33.1,0,60-26.9,60-60s-26.9-60-60-60"/>
	<path id="XMLID_1306_" class="st3" d="M192.2,56.1c4.1,10.3,13.3,17.1,23.6,18.5l12.6,31.6l13.9-5.6l13.9-5.6l-12.6-31.6
		c6.4-8.1,8.4-19.4,4.3-29.7c-6.2-15.4-23.6-22.9-39-16.7C193.5,23.3,186,40.8,192.2,56.1z"/>
	<circle id="XMLID_27_" class="st6" cx="220" cy="45" r="10"/>
	<path id="XMLID_1307_" class="st3" d="M263.8,95.1l13.9,5.6l13.9,5.6l12.6-31.6c10.3-1.5,19.5-8.2,23.6-18.5
		c6.2-15.4-1.3-32.8-16.7-39s-32.8,1.3-39,16.7c-4.1,10.3-2.1,21.5,4.3,29.7L263.8,95.1z"/>
	<circle id="XMLID_25_" class="st6" cx="300" cy="45" r="10"/>
	<circle id="XMLID_1308_" class="st2" cx="250" cy="205" r="60"/>
	<circle id="XMLID_1309_" class="st3" cx="260" cy="145" r="70"/>
	<path id="XMLID_1310_" class="st4" d="M260,75c38.7,0,70,31.3,70,70c0,38.7-31.3,70-70,70"/>
	<path id="XMLID_1311_" class="st7" d="M210,145c0,27.6,22.4,50,50,50s50-22.4,50-50h-20c0,16.5-13.5,30-30,30s-30-13.5-30-30H210z"
		/>
</g>
</svg>
