<?xml version="1.0" encoding="utf-8"?>
<!-- Generator: Adobe Illustrator 24.0.0, SVG Export Plug-In . SVG Version: 6.00 Build 0)  -->
<svg version="1.1" id="Layer_1" xmlns="http://www.w3.org/2000/svg" xmlns:xlink="http://www.w3.org/1999/xlink" x="0px" y="0px"
	 viewBox="0 0 512 512" style="enable-background:new 0 0 512 512;" xml:space="preserve">
<style type="text/css">
	.st0{fill:#263238;}
	.st1{fill:#37474F;}
	.st2{fill:#455A64;}
	.st3{fill:#90A4AE;}
	.st4{fill:#FF5FB0;}
	.st5{fill:#546E7A;}
	.st6{fill:#FF8AD2;}
</style>
<path class="st0" d="M257.6,475.4H252c-8.4,0-15.6-6.1-17-14.4l-14.9-89.1H292l-17.4,89.6C273,469.5,265.9,475.4,257.6,475.4z"/>
<g>
	<path class="st1" d="M136.6,494.8l-5.3-1.9c-7.9-2.9-12.6-11.1-11.1-19.4l16.5-88.8l67.6,24.6l-47,78.2
		C153,494.5,144.3,497.6,136.6,494.8z"/>
	<path class="st1" d="M375.5,494.8l5.3-1.9c7.9-2.9,12.6-11.1,11.1-19.4l-16.5-88.8l-67.6,24.6l47,78.2
		C359,494.5,367.7,497.6,375.5,494.8z"/>
</g>
<path class="st2" d="M432.4,142c-110.9,0-238.2,0-352.7,0c-8.1,11.4-15.1,23.6-20.8,36.5c-19.4,43.7-18.6,94.2,1.6,137.6
	c9.8,21,22.9,40.2,38.6,56.9c19.9,21.1,46,35.5,74.4,41.7c26.6,5.8,54.3,8.9,82.7,8.9s56-3.1,82.7-8.9c28.4-6.2,54.5-20.6,74.4-41.7
	c15.7-16.7,28.8-35.9,38.6-56.9c20.2-43.4,21-93.9,1.6-137.6C447.5,165.6,440.4,153.4,432.4,142z"/>
<path class="st1" d="M49.5,73.3c8.2,23.8,18.4,46.8,30.2,68.8c115.6,30,237.1,30,352.7,0c11.8-22,22-45.1,30.2-69L49.5,73.3z"/>
<path class="st3" d="M56.4,79.5c130.8,33.3,268.4,33.3,399.2,0c10-2.5,10-16.9,0-19.5C324.8,26.7,187.2,26.7,56.4,60
	C46.4,62.6,46.4,76.9,56.4,79.5z"/>
<path class="st4" d="M256,87.2c-55.6,0-111.2-5.9-165.4-17.5C144.8,58.2,200.4,52.3,256,52.3s111.2,5.9,165.4,17.5
	C367.1,81.4,311.6,87.2,256,87.2z"/>
<g>
	<path class="st5" d="M47,235.1c-3.1,0-6.2-0.8-9-2.6c-23.8-14.7-38-40.1-38-68c0-35.7,29-64.7,64.7-64.7c9.5,0,21.6,32.6,14.9,42.2
		c-1.4,2-2.9-7.7-14.9-7.7c-4.6,0-8.9,1-12.8,2.9c-10.3,4.8-17.4,15.3-17.4,27.3c0,5.5,1,10.9,2.8,15.9c3.5,9.3,14.9,10,18.8,4.3
		C61.6,176.9,52.8,235.1,47,235.1z"/>
	<path class="st5" d="M465,235.1c3.1,0,6.2-0.8,9-2.6c23.8-14.7,37.9-40.1,37.9-68c0-35.7-29-64.7-64.7-64.7
		c-9.5,0-21.6,32.6-14.9,42.2c1.4,2,2.9-7.7,14.9-7.7c4.6,0,8.9,1,12.8,2.9c10.3,4.8,17.4,15.3,17.4,27.3c0,5.5-1,10.9-2.8,15.9
		c-3.5,9.3-14.9,10-18.8,4.3C450.4,176.9,459.2,235.1,465,235.1z"/>
</g>
<g>
	<path class="st6" d="M304,34c13.3,0,24.1,10.9,24.1,24.2s-10.8,11.5-24.2,11.5s-24.2,1.9-24.2-11.5S290.6,34,304,34z"/>
	<path class="st6" d="M225,16.2c19.9,0,36.1,16.2,36.1,36.1c0,19.9-16.2,23.2-36.1,23.2s-36.1-3.3-36.1-23.2S205.1,16.2,225,16.2z"
		/>
</g>
</svg>
