<?xml version="1.0" encoding="iso-8859-1"?>
<!-- Generator: Adobe Illustrator 19.0.0, SVG Export Plug-In . SVG Version: 6.00 Build 0)  -->
<svg version="1.1" id="Layer_1" xmlns="http://www.w3.org/2000/svg" xmlns:xlink="http://www.w3.org/1999/xlink" x="0px" y="0px"
	 viewBox="0 0 513.2 513.2" style="enable-background:new 0 0 513.2 513.2;" xml:space="preserve">
<path style="fill:#F57C00;" d="M441.2,159.2c-1.2,0-2-0.4-3.2-0.4c0.8,0.8,1.6,2,2,2.8l1.6,6l10,42.8l8.4,36l0,0l-8.4-35.6l-10-42.4
	l-1.6-5.6l-2.8,0.4c-15.2-19.6-38-20.4-61.6-14.8c-14,3.6-28.8,7.2-36.8,19.2c-1.6,0-3.2,2.8-4.4,4.8H334c1.2-2.4,2.8-4.8,4.8-4.8
	h-7.6c-0.8-1.2-2-2.8-2.8-4c-17.6-22.8-44-38-72.4-38c-32.8,0-63.6,18.4-75.6,40l-6.4-1.2c1.6,2,3.2,4,4,6l154.4,2.4c0,0,0-0.4,0,0
	s0,0,0,0L176,170.4c0-2-1.6-4-3.2-6h0.4L78,159.6l0,0l95.2,4.8h0.8c-8-9.2-23.2-16.8-37.6-20.4c-24-6-47.6-3.2-62.4,15.6h-0.4l0,0
	c-0.4,0-1.2,0-1.6,0.4c-16-39.2-67.6-46.4-67.6-6.4c0,80.4,41.6,95.6,48.4,92.8l0,0c0,0.4-0.4,1.6-0.4,2c-1.2,26,4,46.8,31.2,61.2
	l36.4,15.6c11.2,4.8,22.4,6.4,32,2.8c2.4,0.8,4-0.8,5.6-0.8l0,0c1.2,0,4.8-0.4,6-2l0.4,1.2l0,0c4,36,29.6,61.2,70,61.2h45.2
	c37.2,0,66.4-26,76-58.4c0.4-0.8,0.4-3.6,0.8-4.4c-0.4,0.8-0.4,3.6-0.8,4.4c1.6-0.4,3.2-2.8,4.8-3.2c-1.2-0.8-2.8-1.2-4-2l0,0
	c1.2,0.8,2.8,1.2,4,2c10,4,21.6,4.4,33.6-0.4L430,310c27.6-14.4,32-36,30.8-62.4c0-0.4,0.4-0.8,0.4-0.8c7.2,2.8,48.4-12.8,48.4-92.8
	C508.8,114,457.6,120.8,441.2,159.2z M163.2,321.6c0,0.4,0,1.6,0,2.4C163.6,323.2,163.2,322,163.2,321.6z"/>
<path d="M278.8,391.6h-45.2c-40.8,0-70-25.6-74-65.2c0-0.4,0-1.2,0-2c0-0.4,0-1.2,0-1.6c-0.4-2,1.6-4,3.6-4.4s4,1.6,4.4,3.6
	c0,0.4,0,1.2,0,1.6c0,0.8,0,1.2,0,1.6c3.6,35.6,29.2,58,66.4,58h45.2c32.8,0,62.4-22.8,72-55.6c0-0.4,0-1.2,0.4-1.6
	c0-1.2,0.4-2,0.4-2.4c0.4-2,2.8-3.6,4.8-2.8c2,0.4,3.2,2.8,2.8,4.8c0,0.4,0,0.8,0,1.6c0,1.6-0.4,2.4-0.4,3.2
	C348,366.4,315.2,391.6,278.8,391.6z"/>
<path d="M334,174.8c-1.2,0-2.8-0.8-3.2-2c-1.6-2.4-3.2-4.8-4.8-6.8c-17.2-22.8-43.2-36.4-69.2-36.4c-33.2,0-61.6,19.2-72,38
	c-0.8,1.6-1.6,2.8-2,4.4c-0.8,2-3.2,3.2-5.2,2c-2-0.8-3.2-3.2-2-5.2c0.8-1.6,1.6-3.6,2.8-5.2c13.6-24.4,46.8-42,79.2-42
	c28.4,0,56.8,14.8,75.6,39.6c1.6,2.4,3.6,4.8,5.2,7.6c1.2,2,0.8,4.4-1.2,5.6C335.2,174.8,334.8,174.8,334,174.8z"/>
<path d="M178.4,174.4c-1.6,0-2.8-0.8-3.6-2.4s-2-3.6-3.6-5.2c-6.8-8-21.2-15.6-35.6-19.2c-18-4.4-42.8-5.6-58.4,14.4
	c-0.4,0.8-0.8,1.2-1.6,2c-1.2,1.6-4,2-5.6,0.8s-2-4-0.8-5.6c0.4-0.8,1.2-1.2,1.6-2c14.4-18.4,37.6-24.4,66.8-17.2
	c16,4,31.6,12.4,39.6,21.6c2,2.4,3.6,4.8,4.8,7.2c0.8,2,0,4.4-2,5.2C179.6,174.4,178.8,174.4,178.4,174.4z"/>
<path d="M142.8,338c-7.6,0-15.6-3.2-23.6-6.8l-1.2-0.4l-36.4-16.4c-27.2-14-38-36.4-33.2-68.4c0.4-2,2.4-3.6,4.4-3.6s3.6,2,3.6,4
	v5.2c0,0.8-0.4,1.6-0.8,2.4c-2,24.8,7.6,41.6,29.6,53.2l37.2,16.8c13.6,6,22,8.8,30.4,2.8l6.4-4.4v-0.8c0-2.4,2-4,4.4-3.6
	c2.4,0,4,2,3.6,4.4v2.8c0,1.2-0.8,2.4-1.6,3.2l-8,5.6C152.4,336.8,147.6,338,142.8,338z"/>
<path d="M50.4,250.8c-3.6,0-8.4-1.6-13.6-4.4C25.6,240,0,217.6,0,153.6c0-16,8-27.2,21.6-30c18-3.6,42.8,8.8,53.6,35.2
	c0.4,0.4,0.4,1.2,0.8,1.6c0.8,2-0.4,4.4-2.4,5.2c-2,0.8-4.4-0.4-5.2-2.4c0-0.4-0.4-0.8-0.4-1.2c-9.2-22.4-30.4-33.2-44.8-30.4
	c-10,2-15.2,9.6-15.2,22C8,206,26,228,36.4,236.4c6.8,5.6,12.8,6.4,14,6.4c1.6-0.8,3.6-0.4,4.8,0.8c1.6,1.6,1.2,4-0.4,5.6l-0.4,0.4
	c0,0-0.4,0-0.4,0.4C53.6,250.4,52,250.8,50.4,250.8z"/>
<path d="M334.4,174.4c-0.4,0-1.2,0-1.6-0.4c-2-0.8-2.8-3.2-2-5.2c1.2-2.8,3.2-5.6,5.6-8c8-8.8,23.2-16.8,38.8-20.8
	c28.4-7.2,51.2-1.6,66,16.4c0.8,0.8,1.6,2,2.4,2.8c1.2,1.6,0.8,4.4-0.8,5.6s-4.4,0.8-5.6-0.8c-0.8-0.8-1.2-2-2-2.8
	c-16-19.2-40.4-18-58-13.6c-14,3.6-28,10.8-34.8,18.4c-2,2-3.2,4-4,6C337.6,173.6,336,174.4,334.4,174.4z"/>
<path d="M375.6,333.2c-6,0-12-1.2-17.6-3.6c-1.6-0.8-3.2-1.2-4.4-2c-2-1.2-2.8-3.6-1.6-5.6s3.6-2.8,5.6-1.6c1.2,0.8,2.4,1.2,4,2
	c9.6,4,20.4,4,30.4-0.4l36.4-15.6c25.6-13.2,29.6-33.2,28.4-58.4c0-0.4,0-0.8,0-0.8c-0.4-2,1.2-4,3.6-4.4c2-0.4,4,1.2,4.4,3.6
	c0,0.4,0,1.2,0,1.6c1.6,24.4-1.6,49.6-32.8,66l-36.4,15.6C388.4,331.6,382,333.2,375.6,333.2z"/>
<path d="M462.4,250.8c-1.2,0-2.4,0-3.2-0.4c0,0-0.8-0.4-1.2-0.8c-1.6-1.2-2.4-3.6-0.8-5.6c1.2-1.6,3.2-2,5.2-1.2
	c1.6,0.4,7.2-0.8,14.4-6.4c10.8-8.4,28.8-30,28.8-82.8c0-12.4-5.2-20-15.2-22c-14-2.8-35.2,7.6-44.4,29.2c-0.4,0.8-0.8,1.6-1.2,2.4
	c-0.8,2-3.2,3.2-5.2,2.4c-2-0.8-3.2-3.2-2.4-5.2c0.4-1.2,0.8-2,1.2-3.2c11.2-25.6,36-37.2,53.2-33.6c13.6,2.8,21.6,14,21.6,30
	c0,58.8-21.2,82-34,90.8C472.8,248.4,466.8,250.8,462.4,250.8z"/>
<path d="M163.2,324h-0.4c-2-0.4-3.6-2-3.6-4.4l10.4-102c0.4-2,2-3.6,4.4-3.6c2,0.4,3.6,2,3.6,4.4l-10.4,102
	C167.2,322.4,165.2,324,163.2,324z"/>
<path d="M175.2,188L175.2,188c-2.4,0-4-2-4-4.4l1.2-13.6c0-2,2-3.6,4-3.6s4,2,4,4v5.2c0,0.8-0.4,1.6-0.4,2l-0.4,6.8
	C179.2,186.4,177.2,188,175.2,188z"/>
<path d="M71.2,170.8c-0.4,0-0.8,0-0.8,0c-2-0.4-3.6-2.8-2.8-4.8l1.2-4.8c0.4-2,2.8-3.6,4.8-2.8c2,0.4,3.6,2.8,2.8,4.8l-1.2,4.8
	C74.8,169.6,73.2,170.8,71.2,170.8z"/>
<path d="M52.8,250.4c-0.4,0-0.8,0-0.8,0c-2-0.4-3.6-2.8-2.8-4.8l13.2-56.8c0.4-2,2.8-3.6,4.8-2.8c2,0.4,3.6,2.8,2.8,4.8l-13.2,56.8
	C56.4,249.2,54.8,250.4,52.8,250.4z"/>
<path d="M355.6,328c-2,0-3.6-1.6-4-3.6l-14.8-106c-0.4-2,1.2-4.4,3.6-4.4s4.4,1.2,4.4,3.6l14.8,106c0.4,2-1.2,4.4-3.6,4.4
	C356,328,355.6,328,355.6,328z"/>
<path d="M335.2,185.2c-2,0-3.6-1.6-4-3.6l-1.6-10.4c-0.4-2,1.2-4.4,3.2-4.4c2-0.4,4.4,1.2,4.4,3.2l1.6,10.4c0.4,2-1.2,4.4-3.2,4.4
	C335.6,185.2,335.6,185.2,335.2,185.2z"/>
<path d="M441.6,171.6c-2,0-3.6-1.2-4-3.2l-1.2-6c-0.4-2,0.8-4.4,2.8-4.8s4.4,0.8,4.8,2.8l1.2,6c0.4,2-0.8,4.4-2.8,4.8
	C442.4,171.6,442,171.6,441.6,171.6z"/>
<path d="M460,250.4c-2,0-3.6-1.2-4-3.2L443.2,192c-0.4-2,0.8-4.4,2.8-4.8s4.4,0.8,4.8,2.8l12.8,55.2c0.4,2-0.8,4.4-2.8,4.8
	C460.4,250.4,460.4,250.4,460,250.4z"/>
<g>
</g>
<g>
</g>
<g>
</g>
<g>
</g>
<g>
</g>
<g>
</g>
<g>
</g>
<g>
</g>
<g>
</g>
<g>
</g>
<g>
</g>
<g>
</g>
<g>
</g>
<g>
</g>
<g>
</g>
</svg>
