<?xml version="1.0" encoding="iso-8859-1"?>
<!-- Generator: Adobe Illustrator 19.0.0, SVG Export Plug-In . SVG Version: 6.00 Build 0)  -->
<svg version="1.1" id="Layer_1" xmlns="http://www.w3.org/2000/svg" xmlns:xlink="http://www.w3.org/1999/xlink" x="0px" y="0px"
	 viewBox="0 0 512 512" style="enable-background:new 0 0 512 512;" xml:space="preserve">
<path style="fill:#AADDE6;" d="M256,512c-10.196,0-19.867-4.517-26.414-12.333L42.348,276.012
	c-10.225-12.209-10.747-29.833-1.264-42.624l69.315-93.528c6.497-8.764,16.763-13.936,27.676-13.936h235.85
	c10.913,0,21.179,5.171,27.676,13.936l69.315,93.528c9.482,12.792,8.961,30.415-1.264,42.624L282.413,499.666
	C275.868,507.484,266.197,512,256,512z"/>
<g>
	<path style="fill:#FFC529;" d="M456.091,35.547c-12.268,8.385-19.923,16.039-28.308,28.307c-1.377,2.015-4.351,2.015-5.728,0
		c-8.384-12.268-16.039-19.922-28.307-28.307c-2.015-1.377-2.015-4.351,0-5.728c12.268-8.385,19.922-16.039,28.307-28.307
		c1.377-2.016,4.351-2.016,5.728,0c8.385,12.268,16.04,19.922,28.308,28.307C458.106,31.197,458.106,34.17,456.091,35.547z"/>
	<path style="fill:#FFC529;" d="M314.733,80.087l-17.994-17.992c-1.353-1.353-1.353-3.548,0-4.902L314.732,39.2
		c1.353-1.353,3.548-1.353,4.901,0l17.993,17.992c1.353,1.353,1.353,3.548,0,4.901l-17.992,17.992
		C318.281,81.44,316.086,81.44,314.733,80.087z"/>
</g>
<path style="fill:#C7F7F9;" d="M477.656,253.414c-0.098-7.033-2.316-14.055-6.741-20.026L401.6,139.859
	c-6.497-8.764-16.763-13.936-27.676-13.936H138.075c-10.913,0-21.179,5.171-27.676,13.936l-69.315,93.528
	c-4.425,5.971-6.643,12.992-6.741,20.026H477.656z"/>
<path style="fill:#DCFFFF;" d="M342.296,251.23l68.575-98.864l-9.269-12.507c-6.497-8.764-16.763-13.936-27.676-13.936H255.38
	L342.296,251.23z"/>
<path style="fill:#FFC529;" d="M403.412,128.933c-12.269,8.385-19.922,16.04-28.308,28.307c-1.377,2.015-4.351,2.015-5.728,0
	c-8.385-12.268-16.039-19.922-28.306-28.307c-2.015-1.377-2.015-4.351,0-5.728c12.268-8.384,19.921-16.038,28.306-28.306
	c1.377-2.015,4.351-2.015,5.728,0c8.385,12.268,16.038,19.922,28.307,28.306C405.427,124.582,405.428,127.555,403.412,128.933z"/>
<path style="fill:#DCFFFF;" d="M168.865,251.23l86.915-125.307H138.075c-10.913,0-21.179,5.171-27.676,13.936l-9.704,13.092
	L168.865,251.23z"/>
<path style="opacity:0.1;enable-background:new    ;" d="M262.162,499.666L74.924,276.012
	c-10.225-12.209-10.746-29.833-1.264-42.624l69.315-93.528c6.497-8.764,16.763-13.936,27.676-13.936h-32.576
	c-10.913,0-21.179,5.171-27.676,13.936l-69.315,93.528c-9.482,12.792-8.961,30.415,1.264,42.624l187.238,223.654
	c6.545,7.817,16.218,12.333,26.414,12.333c5.752,0,11.337-1.438,16.288-4.094C268.463,505.852,265.016,503.074,262.162,499.666z"/>
<path style="fill:#BDEAEF;" d="M169.35,253.414l74.488,256.356c3.843,1.452,7.955,2.23,12.162,2.23s8.317-0.779,12.162-2.23
	l74.488-256.356H169.35z"/>
<g>
</g>
<g>
</g>
<g>
</g>
<g>
</g>
<g>
</g>
<g>
</g>
<g>
</g>
<g>
</g>
<g>
</g>
<g>
</g>
<g>
</g>
<g>
</g>
<g>
</g>
<g>
</g>
<g>
</g>
</svg>
