<?xml version="1.0" encoding="utf-8"?>
<!-- Generator: Adobe Illustrator 24.0.0, SVG Export Plug-In . SVG Version: 6.00 Build 0)  -->
<svg version="1.1" xmlns="http://www.w3.org/2000/svg" xmlns:xlink="http://www.w3.org/1999/xlink" x="0px" y="0px"
	 viewBox="0 0 512 512" style="enable-background:new 0 0 512 512;" xml:space="preserve">
<style type="text/css">
	.st0{fill:#965353;}
	.st1{fill:#EAAD7A;}
	.st2{fill:#7F4545;}
	.st3{fill:#A85D5D;}
	.st4{fill:#F4BE8E;}
	.st5{fill:#FF7E15;}
	.st6{fill:#FFB01F;}
</style>
<g id="Layer_1">
	<path class="st0" d="M493.1,360.9c-2.9,17.6-12.6,23.1-18.1,24.8L68.4,511c-2.7,0.8-5.6,0.6-8.1-0.8c-2.5-1.3-4.4-3.6-5.2-6.3
		L30,422.5c-1.7-5.6,1.4-11.6,7-13.3l406.6-125.3c2.1-0.7,4.2-1,6.4-1c16,0,32,17.1,39.8,42.5C493.7,337.8,494.8,350.4,493.1,360.9z
		"/>
	<path class="st1" d="M40.1,419.4c11.3-3.5,26,12,32.9,34.5c6.9,22.5,3.4,43.5-7.8,47s-26-12-32.9-34.5S28.9,422.8,40.1,419.4z"/>
	<g>
		<path class="st2" d="M83.3,450.7c3.8,12.4,5,25.1,3.2,35.5c-2.2,13.1-8.6,21.9-18.1,24.8c-2.1,0.7-4.2,1-6.4,1
			c-16,0-32-17.1-39.8-42.5c-3.8-12.4-5-25.1-3.2-35.5c2.2-13.1,8.6-21.9,18.1-24.8c2.1-0.6,4.2-1,6.4-1l0,0
			C59.4,408.2,75.4,425.3,83.3,450.7z M62.1,490.7c0.3-0.1,2.3-1.9,3.3-7.9c1.2-7.2,0.3-16.6-2.6-25.8c-5.5-18-15.6-27.4-19.5-27.4
			c-0.1,0-0.1,0-0.1,0c-0.3,0.1-2.3,1.9-3.3,7.9c-1.2,7.2-0.3,16.6,2.6,25.7c5.5,18,15.6,27.4,19.5,27.4
			C62,490.7,62.1,490.7,62.1,490.7z"/>
		<path class="st2" d="M394.7,377c-5.5,1.7-6.7,4.4-7.2,6.8c-0.6,2.8,0,5.7,0.2,6.7l0-0.1l-20.4,6.3c-0.4-1.4-3.9-13.6,2.1-25.1
			c2.6-4.9,8-11.5,19-14.9c17.1-5.3,81.9-25.9,101.1-32.1c0.1,0.3,0.2,0.5,0.3,0.8c2.1,6.8,3.4,13.7,3.8,20.2
			C471.9,352.5,411.3,371.9,394.7,377z"/>
		<path class="st2" d="M216,376.3l-20.4,6.3l0-0.1c0.3,0.9,0.8,3.9,0.2,6.6c-0.5,2.4-1.8,5.1-7.2,6.8
			c-20.4,6.3-122.2,37.7-122.2,37.7l6.3,20.4c0,0,101.8-31.4,122.2-37.7c11-3.4,16.4-10,19-14.9C219.9,389.9,216.4,377.6,216,376.3z
			"/>
	</g>
	<path class="st3" d="M482,422.5L456.9,504c-1.7,5.6-7.7,8.8-13.3,7L37,385.7c-5.5-1.7-15.2-7.2-18.1-24.8
		c-1.8-10.5-0.6-23.1,3.2-35.5C30,300,46,282.9,62,282.9l0,0c2.2,0,4.3,0.3,6.4,1L475,409.2c2.7,0.8,5,2.7,6.3,5.2
		C482.6,416.9,482.9,419.8,482,422.5z"/>
	<g>
		<path class="st0" d="M140.5,373c2.1,5.5,3.2,12.2,3.1,20.1c-0.1,12.3-3,23.5-3.1,24c0,0.2-0.1,0.3-0.2,0.5l-20.4-6.3
			c0.5-2,2.3-10.1,2.3-18.4c0-3.4-0.2-14.4-5-15.9c-18.5-5.7-87-27.1-99-30.8c0.4-6.7,1.7-13.8,3.9-20.8c0-0.1,0.1-0.2,0.1-0.3
			c0.2,0.1,0.4,0.1,0.6,0.2c0.8,0.3,80.6,25.2,100.7,31.4C129,358.3,136.3,362.5,140.5,373z"/>
		<path class="st0" d="M323.4,395.9c20.4,6.3,122.2,37.7,122.2,37.7l-6.3,20.4c0,0-101.8-31.4-122.2-37.7
			c-9.2-2.8-20.2-11.4-20.5-36.3c-0.2-12.3,2.4-23.7,2.5-24.1c0.1-0.3,0.1-0.5,0.2-0.8l20.4,6.3
			C316.8,374.4,316.9,393.9,323.4,395.9z"/>
	</g>
	<path class="st4" d="M471.8,419.4c-11.3-3.5-26,12-32.9,34.5c-6.9,22.5-3.4,43.5,7.8,47s26-12,32.9-34.5
		C486.6,443.9,483.1,422.8,471.8,419.4z"/>
	<path class="st0" d="M475,409.2c9.5,2.9,15.9,11.7,18.1,24.8c1.7,10.5,0.6,23.1-3.2,35.5C482,494.9,466,512,450,512
		c-2.2,0-4.3-0.3-6.4-1c-9.5-2.9-15.9-11.7-18.1-24.8c-1.7-10.5-0.6-23.1,3.2-35.5c7.8-25.4,23.8-42.5,39.8-42.5
		C470.8,408.2,472.9,408.5,475,409.2z M469.5,463.2c2.8-9.2,3.8-18.6,2.6-25.7c-1-6-3-7.8-3.3-7.9c0,0-0.1,0-0.1,0
		c-3.8,0-13.9,9.4-19.5,27.4c-2.8,9.2-3.8,18.6-2.6,25.8c1,6,3,7.8,3.3,7.9c0,0,0.1,0,0.1,0C453.8,490.7,463.9,481.2,469.5,463.2z"
		/>
	<path class="st5" d="M118.4,236.8c5.6-26.3,20.3-52.4,43.6-77.5c25.3-27.2,39.6-59,42.4-94.6c2.1-26.8-3.4-45.8-3.5-46L195.3,0
		l18.7,5.4c51.1,14.7,89.9,38.6,115.3,71c19.8,25.2,31.8,55.9,35.7,91.4c0.1-0.1,0.2-0.3,0.3-0.4c2.4-3.5,4.9-7.1,7.4-10.2
		l10.9-13.8l7,16.2c12.9,30.1,18.6,59.5,16.7,87.4c-1.7,25.3-9.3,49-22.9,70.3c-14.3,22.6-34.9,41.7-59.4,55.3
		c-22.9,12.7-48.6,19.9-72.4,20.4c-1.1,0-2.3,0-3.5,0c-41.6,0-100.8-33.3-123.8-86.9C115.7,283.8,113.4,260.5,118.4,236.8z"/>
	<path class="st6" d="M203.3,258.2c29.4-35.2,42.2-70.1,42.4-70.5l5.4-15.1l11.7,11c31.3,29.4,52.4,57.5,62.5,83.5
		c8.9,22.9,9.6,44.4,2,64c-7.1,18.3-21.7,34.7-42.3,47.5c-8,5-15.4,8.5-20.2,10.5c-9.2,3.9-11.3,3.9-12.4,3.9l-1.9,0l-1.8-0.7
		c-19.4-7.3-53.6-32-62.7-67.2C179.9,302.2,185.9,279.1,203.3,258.2z"/>
</g>
<g id="Layer_2">
</g>
</svg>
