<?xml version="1.0" encoding="iso-8859-1"?>
<!-- Generator: Adobe Illustrator 19.0.0, SVG Export Plug-In . SVG Version: 6.00 Build 0)  -->
<svg version="1.1" id="Layer_1" xmlns="http://www.w3.org/2000/svg" xmlns:xlink="http://www.w3.org/1999/xlink" x="0px" y="0px"
	 viewBox="0 0 504.123 504.123" style="enable-background:new 0 0 504.123 504.123;" xml:space="preserve">
<path style="fill:#405E70;" d="M266.335,465.707c0,17.4-14.108,31.508-31.508,31.508h-36.431c-17.4,0-31.508-14.108-31.508-31.508
	v-17.723c0-17.4,14.108-31.508,31.508-31.508h36.431c17.4,0,31.508,14.108,31.508,31.508V465.707z"/>
<path style="fill:#557E8E;" d="M182.367,96.477c0,2.899-2.371,5.262-5.262,5.262H43.197c-2.899,0-5.246-2.363-5.246-5.262l0,0
	c0-2.899,2.347-5.254,5.246-5.254h133.908C180.003,91.223,182.367,93.578,182.367,96.477L182.367,96.477z"/>
<path style="fill:#405E70;" d="M48.616,104.85c0,5.033-4.08,9.106-9.106,9.106l0,0c-5.033,0-9.106-4.08-9.106-9.106V88.111
	c0-5.033,4.08-9.106,9.106-9.106l0,0c5.033,0,9.106,4.08,9.106,9.106V104.85z"/>
<path style="fill:#557E8E;" d="M182.367,309.807c0,2.899-2.371,5.254-5.262,5.254H43.197c-2.899,0-5.246-2.355-5.246-5.254l0,0
	c0-2.899,2.347-5.254,5.246-5.254h133.908C180.003,304.553,182.367,306.909,182.367,309.807L182.367,309.807z"/>
<g>
	<path style="fill:#405E70;" d="M48.616,318.18c0,5.033-4.08,9.106-9.106,9.106l0,0c-5.033,0-9.106-4.08-9.106-9.106v-16.738
		c0-5.033,4.08-9.106,9.106-9.106l0,0c5.033,0,9.106,4.08,9.106,9.106V318.18z"/>
	<path style="fill:#405E70;" d="M84.551,470.63c0,6.522-5.293,11.815-11.815,11.815l0,0c-6.522,0-11.815-5.293-11.815-11.815V29.523
		c0-6.522,5.293-11.815,11.815-11.815l0,0c6.522,0,11.815,5.293,11.815,11.815V470.63z"/>
</g>
<path style="fill:#557E8E;" d="M504.123,480.492c0,12.682-10.287,22.969-22.985,22.969H22.977C10.287,503.461,0,493.174,0,480.492
	l0,0c0-12.69,10.287-22.969,22.977-22.969h458.161C493.836,457.523,504.123,467.803,504.123,480.492L504.123,480.492z"/>
<circle style="fill:#8DC6D3;" cx="216.615" cy="223.831" r="85.992"/>
<path style="fill:#53C48E;" d="M302.608,223.831c0,47.474-38.51,85.977-85.984,85.977c-47.498,0-86.008-38.502-86.008-85.977"/>
<path style="fill:#3FB291;" d="M216.623,309.807c43.63,0,79.596-32.547,85.157-74.665H131.45
	C137.011,277.26,172.977,309.807,216.623,309.807z"/>
<path style="fill:#ABD3DD;" d="M243.846,160.815V13.911c0-13.005-10.555-13.249-23.552-13.249h-7.365
	c-12.997,0-23.544,0.236-23.544,13.249V144.4L243.846,160.815z"/>
<g>
	<path style="fill:#8DC6D3;" d="M243.846,160.815V13.911c0-13.005-10.555-13.249-23.552-13.249h-7.365v160.154H243.846z"/>
	<path style="fill:#8DC6D3;" d="M241.349,64.992l2.497-2.497V13.911c0-13.005-10.555-13.249-23.552-13.249h-7.365
		c-12.713,0-22.993,0.307-23.465,12.461L241.349,64.992z"/>
</g>
<path style="fill:#C4E3E8;" d="M253.416,6.538c0,3.245-2.631,5.892-5.884,5.892h-61.834c-3.253,0-5.884-2.647-5.884-5.892l0,0
	c0-3.245,2.631-5.876,5.884-5.876h61.834C250.785,0.662,253.416,3.293,253.416,6.538L253.416,6.538z"/>
<path style="fill:#ABD3DD;" d="M253.416,6.538L253.416,6.538c0,3.245-2.631,5.892-5.884,5.892h-61.834
	c-3.253,0-5.884-2.647-5.884-5.892l0,0"/>
<g>
	<path style="fill:#C4E3E8;" d="M219.073,38.077c0,0.819-0.662,1.473-1.473,1.473h-19.621c-0.819,0-1.481-0.654-1.481-1.473l0,0
		c0-0.819,0.662-1.481,1.481-1.481H217.6C218.411,36.596,219.073,37.258,219.073,38.077L219.073,38.077z"/>
	<path style="fill:#C4E3E8;" d="M207.289,49.357c0,0.819-0.662,1.481-1.473,1.481h-7.845c-0.819,0-1.481-0.662-1.481-1.481l0,0
		c0-0.819,0.662-1.473,1.481-1.473h7.845C206.627,47.884,207.289,48.538,207.289,49.357L207.289,49.357z"/>
	<path style="fill:#C4E3E8;" d="M219.073,60.156c0,0.819-0.662,1.481-1.473,1.481h-19.621c-0.819,0-1.481-0.662-1.481-1.481l0,0
		c0-0.819,0.662-1.473,1.481-1.473H217.6C218.411,58.683,219.073,59.337,219.073,60.156L219.073,60.156z"/>
	<path style="fill:#C4E3E8;" d="M207.289,71.436c0,0.819-0.662,1.481-1.473,1.481h-7.845c-0.819,0-1.481-0.654-1.481-1.481l0,0
		c0-0.819,0.662-1.473,1.481-1.473h7.845C206.627,69.971,207.289,70.624,207.289,71.436L207.289,71.436z"/>
	<path style="fill:#C4E3E8;" d="M219.073,82.235c0,0.819-0.662,1.481-1.473,1.481h-19.621c-0.819,0-1.481-0.662-1.481-1.481l0,0
		c0-0.819,0.662-1.473,1.481-1.473H217.6C218.411,80.77,219.073,81.424,219.073,82.235L219.073,82.235z"/>
	<path style="fill:#C4E3E8;" d="M207.289,93.523c0,0.819-0.662,1.473-1.473,1.473h-7.845c-0.819,0-1.481-0.654-1.481-1.473l0,0
		c0-0.819,0.662-1.473,1.481-1.473h7.845C206.627,92.058,207.289,92.711,207.289,93.523L207.289,93.523z"/>
	<path style="fill:#C4E3E8;" d="M219.073,104.322c0,0.819-0.662,1.465-1.473,1.465h-19.621c-0.819,0-1.481-0.646-1.481-1.465l0,0
		c0-0.819,0.662-1.481,1.481-1.481H217.6C218.411,102.849,219.073,103.511,219.073,104.322L219.073,104.322z"/>
	<path style="fill:#C4E3E8;" d="M207.289,115.602c0,0.819-0.662,1.481-1.473,1.481h-7.845c-0.819,0-1.481-0.662-1.481-1.481l0,0
		c0-0.819,0.662-1.481,1.481-1.481h7.845C206.627,114.121,207.289,114.783,207.289,115.602L207.289,115.602z"/>
	<path style="fill:#C4E3E8;" d="M219.073,126.401c0,0.819-0.662,1.481-1.473,1.481h-19.621c-0.819,0-1.481-0.662-1.481-1.481l0,0
		c0-0.819,0.662-1.481,1.481-1.481H217.6C218.411,124.92,219.073,125.582,219.073,126.401L219.073,126.401z"/>
	<path style="fill:#C4E3E8;" d="M207.289,137.681c0,0.827-0.662,1.481-1.473,1.481h-7.845c-0.819,0-1.481-0.646-1.481-1.481l0,0
		c0-0.811,0.662-1.465,1.481-1.465h7.845C206.627,136.216,207.289,136.869,207.289,137.681L207.289,137.681z"/>
	<path style="fill:#C4E3E8;" d="M189.046,155.034c3.891,3.891-5.805,12.075-16.849,23.127
		c-11.051,11.036-19.243,20.748-23.135,16.857c-3.899-3.899,1.89-16.006,12.934-27.049
		C173.032,156.924,185.139,151.135,189.046,155.034z"/>
</g>
<g>
	<path style="fill:#405E70;" d="M191.346,107.307c0,4.892-3.978,8.862-8.869,8.862l0,0c-4.884,0-8.854-3.97-8.854-8.862V85.646
		c0-4.892,3.97-8.862,8.854-8.862l0,0c4.892,0,8.869,3.97,8.869,8.862V107.307z"/>
	<path style="fill:#405E70;" d="M259.608,107.307c0,4.892-3.978,8.862-8.862,8.862l0,0c-4.892,0-8.862-3.97-8.862-8.862V85.646
		c0-4.892,3.97-8.862,8.862-8.862l0,0c4.884,0,8.862,3.97,8.862,8.862V107.307z"/>
	<path style="fill:#405E70;" d="M297.354,313.588c0,5.167-4.183,9.358-9.358,9.358H145.235c-5.167,0-9.358-4.183-9.358-9.358l0,0
		c0-5.167,4.183-9.358,9.358-9.358h142.769C293.171,304.23,297.354,308.413,297.354,313.588L297.354,313.588z"/>
</g>
<path style="fill:#557E8E;" d="M247.635,413.034c0,4.08-3.308,7.389-7.389,7.389h-47.262c-4.08,0-7.389-3.308-7.389-7.389l0,0
	c0-4.08,3.308-7.389,7.389-7.389h47.262C244.326,405.646,247.635,408.954,247.635,413.034L247.635,413.034z"/>
<path style="fill:#FF7F00;" d="M216.694,326.231c-15.588,3.324-27.569,22.93-27.569,46.702c0,23.773,11.981,31.831,27.569,33.091
	V326.231z"/>
<path style="fill:#FF4800;" d="M216.537,326.231c15.588,3.324,27.569,22.93,27.569,46.702c0,23.773-11.981,31.831-27.569,33.091
	V326.231z"/>
<path style="fill:#FFBC00;" d="M216.663,354.446c-10.067,2.143-17.818,14.824-17.818,30.184c0,15.368,7.743,20.575,17.818,21.394
	V354.446z"/>
<path style="fill:#FF7F00;" d="M216.568,354.446c10.067,2.143,17.818,14.824,17.818,30.184c0,15.368-7.743,20.575-17.818,21.394
	V354.446z"/>
<g>
</g>
<g>
</g>
<g>
</g>
<g>
</g>
<g>
</g>
<g>
</g>
<g>
</g>
<g>
</g>
<g>
</g>
<g>
</g>
<g>
</g>
<g>
</g>
<g>
</g>
<g>
</g>
<g>
</g>
</svg>
