<?xml version="1.0" encoding="utf-8"?>
<!-- Generator: Adobe Illustrator 24.0.0, SVG Export Plug-In . SVG Version: 6.00 Build 0)  -->
<svg version="1.1" id="Layer_1" xmlns="http://www.w3.org/2000/svg" xmlns:xlink="http://www.w3.org/1999/xlink" x="0px" y="0px"
	 viewBox="0 0 80 80" style="enable-background:new 0 0 80 80;" xml:space="preserve">
<style type="text/css">
	.st0{fill:#BB9176;}
	.st1{fill:url(#SVGID_1_);}
	.st2{fill:url(#SVGID_2_);}
	.st3{fill:url(#SVGID_3_);}
	.st4{fill:url(#SVGID_4_);}
	.st5{fill:url(#SVGID_5_);}
	.st6{fill:url(#SVGID_6_);}
	.st7{fill:url(#SVGID_7_);}
</style>
<path class="st0" d="M39.5,63L29,70c0,0,2.5,1.3,3.6,3.4c1.4,2.5,0.5,4.3,1.1,4.4c0.5,0.1,1.8-0.3,2.2-1c0.5-0.9,0.4-1.5,0.4-1.5
	s0.7,0.4,1.7,2.2c0.7,1.2,1.1,2.4,1.8,2.4c1,0,1.1-1.2,1.2-1.9c0.1-0.7,0.1-2,0.1-2s1.3,2.4,1.9,2.9s1.4,0.8,1.8,0
	c0.4-0.8,0.2-1.8,1-3.7c1.1-2.7,4.5-6,4.5-6L39.5,63z"/>
<radialGradient id="SVGID_1_" cx="40.445" cy="24.6299" r="75.3682" gradientTransform="matrix(1 0 0 -1 0 80)" gradientUnits="userSpaceOnUse">
	<stop  offset="0.181" style="stop-color:#EDDFDF"/>
	<stop  offset="0.335" style="stop-color:#E7CED1"/>
	<stop  offset="0.519" style="stop-color:#E3C1C6"/>
	<stop  offset="0.69" style="stop-color:#E1BDC2"/>
</radialGradient>
<path class="st1" d="M16.1,61.4c0,0,2.2,4.9,6.1,6.9C27.5,70.9,32,70,32,70s3.4,2.7,9,2.7c5.6,0,10.7-4.6,10.7-4.6s3.6,1.4,8.8-1.4
	c4.5-2.4,4.9-6.1,4.9-6.1s4.4-1.8,5.9-6.4c1.5-4.6,1.5-9.6-1.5-14.4c-3.2-5-13.1-11.3-14.7-12.5c-1.6-1.2-7-4.7-8.2-7.4
	s-2.1-8.6-2.2-11.6c-0.2-4.8,0.2-7.2-1.1-7.9c-1.3-0.7-3.8,0.7-5.1,1.3C37.1,2.4,34,4,33.8,4.6c-0.2,0.6,0.4,4,0,8.1
	c-0.4,4.1-1.5,8.1-4.2,10.6C23.3,29.2,16,32.1,12,37.8s-5.2,13.1-2.2,18C12.9,60.7,16.1,61.4,16.1,61.4z"/>
<radialGradient id="SVGID_2_" cx="69.4669" cy="30.734" r="17.0692" gradientTransform="matrix(-9.950000e-03 -1 -1.9707 1.960000e-02 101.6715 110.47)" gradientUnits="userSpaceOnUse">
	<stop  offset="0" style="stop-color:#F8F6F7;stop-opacity:0.7"/>
	<stop  offset="0.824" style="stop-color:#F8F6F7;stop-opacity:0"/>
</radialGradient>
<path class="st2" d="M16.1,61.4c0,0,2.2,4.9,6.1,6.9C27.5,70.9,32,70,32,70s3.4,2.7,9,2.7c5.6,0,10.7-4.6,10.7-4.6s3.6,1.4,8.8-1.4
	c4.5-2.4,4.9-6.1,4.9-6.1s4.4-1.8,5.9-6.4c1.5-4.6,1.5-9.6-1.5-14.4c-3.2-5-9.2-8.9-14.7-12.5c-1.7-1.1-7-4.7-8.2-7.4
	s-2.1-7.9-2.3-10.9c-0.2-3.8-10.2-0.6-10.6,3.5c-0.4,4.1-1.5,8.1-4.2,10.6C23.3,29.2,16,32.1,12,37.8s-5.2,13.1-2.2,18
	C12.9,60.7,16.1,61.4,16.1,61.4z"/>
<radialGradient id="SVGID_3_" cx="15.0991" cy="17.2758" r="23.4699" gradientTransform="matrix(1 0 0 -1 0 80)" gradientUnits="userSpaceOnUse">
	<stop  offset="0.181" style="stop-color:#C8A9B3"/>
	<stop  offset="0.488" style="stop-color:#D2B2BA"/>
	<stop  offset="0.69" style="stop-color:#DBBAC0"/>
</radialGradient>
<path class="st3" d="M24.5,40.1c0,0-7.7,2.6-10.5,9.3c-2.2,5.1-1.1,10.1-1.1,10.1s0.9,1,1.7,1.4c0.7,0.3,1.4,0.5,1.4,0.5
	s0.5,1.1,0.9,1.7s1.5,2,1.5,2s-1.4-3.8,0-10.6C20.3,45.1,24.5,40.1,24.5,40.1z"/>
<radialGradient id="SVGID_4_" cx="68.7037" cy="21.6308" r="25.19" gradientTransform="matrix(1 0 0 -1 0 80)" gradientUnits="userSpaceOnUse">
	<stop  offset="0.126" style="stop-color:#B494A7"/>
	<stop  offset="0.283" style="stop-color:#BB9BAC"/>
	<stop  offset="0.6" style="stop-color:#C4A5B2"/>
</radialGradient>
<path class="st4" d="M55.5,35.1c0,0,6.4,7.5,8.3,12.6c3.2,8.8,1.5,13,1.5,13s2.1-0.6,3.7-2.5s2.2-4.6,1.1-9.6
	c-1-4.6-5.8-8.2-5.8-8.2l1.1,4.3c0,0-1.2-2.2-3.7-4.9C58.4,36.2,55.5,35.1,55.5,35.1z"/>
<radialGradient id="SVGID_5_" cx="40.7471" cy="77.4338" r="71.0191" gradientTransform="matrix(1 0 0 -1 0 80)" gradientUnits="userSpaceOnUse">
	<stop  offset="9.400000e-02" style="stop-color:#A385A0"/>
	<stop  offset="0.403" style="stop-color:#C0A0AD"/>
	<stop  offset="0.405" style="stop-color:#C0A0AD"/>
	<stop  offset="0.559" style="stop-color:#D5B7C0"/>
	<stop  offset="0.671" style="stop-color:#E0C3CA"/>
</radialGradient>
<path class="st5" d="M27.1,36.7c0,0,5.1-8.6,6.8-12.8c1.8-4.4,2.9-6.2,2.7-13c-0.1-3.4-1-7.7-1-7.7l1.9-1c0,0,2.1,5.3,2.9,11.6
	s1.1,10.4-2,19.8c-2.6,7.7-5.6,12-7.6,17.1s-4.5,18.3,9.3,20.1c12.2,1.6,13.4-9.4,9.8-17.4c-2.7-6.2-6.3-13.8-6.4-18.5
	s0.2-6.6,0.2-6.6s4,6.8,5.8,10.4c1.8,3.6,6,10.8,5.9,17.7c-0.1,6.6-2.1,16.4-15.4,16.8C27.7,73.4,21.6,60,26,49.1
	c4.8-11.5,7.3-14.2,8.7-17.8c1.8-4.6,1.8-7,1.8-7s-2.8,4.2-4.9,7C30.3,33.2,27.1,36.7,27.1,36.7z"/>
<radialGradient id="SVGID_6_" cx="40.6593" cy="25.3206" r="34.1129" gradientTransform="matrix(1 0 0 -1 0 80)" gradientUnits="userSpaceOnUse">
	<stop  offset="0" style="stop-color:#F8F6F7"/>
	<stop  offset="0.782" style="stop-color:#F8F6F7;stop-opacity:0"/>
</radialGradient>
<path class="st6" d="M42.3,21.4c0,0,1,3.1,1.2,8.1c0.2,5,0.9,8.2,2,13.2c0.9,3.9,5.9,10.4,6.1,18.5c0.2,5.4-2.4,9.9-10.4,9.6
	c-12.9-0.5-12-12.1-11.7-15.7c0.4-3.9,7.4-15.9,9.3-22.4C40.1,28.4,42.3,21.4,42.3,21.4z"/>
<radialGradient id="SVGID_7_" cx="48.5095" cy="51.4896" r="41.3268" gradientTransform="matrix(1 0 0 -1 0 80)" gradientUnits="userSpaceOnUse">
	<stop  offset="0.238" style="stop-color:#E0C3CA"/>
	<stop  offset="0.357" style="stop-color:#D8BBC5"/>
	<stop  offset="0.542" style="stop-color:#C3A6B6"/>
	<stop  offset="0.753" style="stop-color:#A385A0"/>
	<stop  offset="0.819" style="stop-color:#A688A2;stop-opacity:0.705"/>
	<stop  offset="0.871" style="stop-color:#B092A9;stop-opacity:0.472"/>
	<stop  offset="0.918" style="stop-color:#C0A3B4;stop-opacity:0.26"/>
	<stop  offset="0.963" style="stop-color:#D7BAC4;stop-opacity:6.100000e-02"/>
	<stop  offset="0.976" style="stop-color:#E0C3CA;stop-opacity:0"/>
</radialGradient>
<path class="st7" d="M49.9,53.3c4.8,11-2,17.7-2,17.7c6.3-3.2,7.5-9.8,7.6-14.8c0.1-6.9-4.1-14.1-5.9-17.7
	c-1.8-3.6-5.8-10.4-5.8-10.4s-0.3,1.9-0.2,6.6C43.6,39.5,47.2,47.1,49.9,53.3"/>
</svg>
