<?xml version="1.0" encoding="iso-8859-1"?>
<!-- Generator: Adobe Illustrator 19.0.0, SVG Export Plug-In . SVG Version: 6.00 Build 0)  -->
<svg version="1.1" id="Layer_1" xmlns="http://www.w3.org/2000/svg" xmlns:xlink="http://www.w3.org/1999/xlink" x="0px" y="0px"
	 viewBox="0 0 511.978 511.978" style="enable-background:new 0 0 511.978 511.978;" xml:space="preserve">
<g>
	<path style="fill:#7F4545;" d="M95.995,389.311H31.998c-5.891,0-10.664,4.781-10.664,10.672v31.998
		c0,5.891,4.773,10.672,10.664,10.672h63.997c5.891,0,10.664-4.781,10.664-10.672v-31.998
		C106.659,394.093,101.886,389.311,95.995,389.311z"/>
	<path style="fill:#7F4545;" d="M479.98,389.311h-63.997c-5.891,0-10.656,4.781-10.656,10.672v31.998
		c0,5.891,4.766,10.672,10.656,10.672h63.997c5.89,0,10.655-4.781,10.655-10.672v-31.998
		C490.635,394.093,485.87,389.311,479.98,389.311z"/>
</g>
<path style="fill:#A0D468;" d="M479.98,69.325h-10.656c-1.656,0-3.297,0.391-4.781,1.125l-16.562,8.281l-16.562-8.281
	c-3-1.5-6.53-1.5-9.53,0l-16.562,8.281l-16.562-8.281c-3.016-1.5-6.547-1.5-9.562,0l-16.562,8.281l-16.562-8.281
	c-3-1.5-6.531-1.5-9.531,0l-16.561,8.281l-16.562-8.281c-3-1.5-6.531-1.5-9.531,0l-16.562,8.281l-16.569-8.281
	c-3.008-1.5-6.539-1.5-9.546,0l-16.562,8.281l-16.562-8.281c-3-1.5-6.539-1.5-9.539,0l-16.562,8.281L175.43,70.45
	c-3.008-1.5-6.539-1.5-9.539,0l-16.561,8.281l-16.562-8.281c-3.008-1.5-6.539-1.5-9.547,0l-16.562,8.281L90.097,70.45
	c-3-1.5-6.531-1.5-9.539,0l-16.561,8.281L47.435,70.45c-1.484-0.734-3.117-1.125-4.773-1.125H31.998
	c-5.891,0-10.664,4.781-10.664,10.671v191.992c0,5.891,4.773,10.672,10.664,10.672H479.98c5.89,0,10.655-4.781,10.655-10.672V79.996
	C490.635,74.106,485.87,69.325,479.98,69.325z"/>
<path style="opacity:0.2;fill:#FFFFFF;enable-background:new    ;" d="M479.98,69.325h-10.656c-1.656,0-3.297,0.391-4.781,1.125
	l-16.562,8.281l-16.562-8.281c-3-1.5-6.53-1.5-9.53,0l-16.562,8.281l-16.562-8.281c-3.016-1.5-6.547-1.5-9.562,0l-16.562,8.281
	l-16.562-8.281c-3-1.5-6.531-1.5-9.531,0l-16.561,8.281l-16.562-8.281c-3-1.5-6.531-1.5-9.531,0l-16.562,8.281l-16.569-8.281
	c-3.008-1.5-6.539-1.5-9.546,0l-16.562,8.281l-16.562-8.281c-3-1.5-6.539-1.5-9.539,0l-16.562,8.281L175.43,70.45
	c-3.008-1.5-6.539-1.5-9.539,0l-16.561,8.281l-16.562-8.281c-3.008-1.5-6.539-1.5-9.547,0l-16.562,8.281L90.097,70.45
	c-3-1.5-6.531-1.5-9.539,0l-16.561,8.281L47.435,70.45c-1.484-0.734-3.117-1.125-4.773-1.125H31.998
	c-5.891,0-10.664,4.781-10.664,10.671v21.327c0-5.891,4.773-10.656,10.664-10.656h10.664c1.656,0,3.289,0.375,4.773,1.125
	l16.562,8.281l16.561-8.281c3.008-1.5,6.539-1.5,9.539,0l16.562,8.281l16.562-8.281c3.008-1.5,6.539-1.5,9.547,0l16.562,8.281
	l16.561-8.281c3-1.5,6.531-1.5,9.539,0l16.562,8.281l16.562-8.281c3-1.5,6.539-1.5,9.539,0l16.562,8.281l16.562-8.281
	c3.007-1.5,6.539-1.5,9.546,0l16.569,8.281l16.562-8.281c3-1.5,6.531-1.5,9.531,0l16.562,8.281l16.561-8.281
	c3-1.5,6.531-1.5,9.531,0l16.562,8.281l16.562-8.281c3.015-1.5,6.546-1.5,9.562,0l16.562,8.281l16.562-8.281c3-1.5,6.53-1.5,9.53,0
	l16.562,8.281l16.562-8.281c1.484-0.75,3.125-1.125,4.781-1.125h10.656c5.89,0,10.655,4.766,10.655,10.656V79.996
	C490.635,74.106,485.87,69.325,479.98,69.325z"/>
<g>
	<path style="fill:#8CC153;" d="M63.997,282.66c-5.891,0-10.664-4.781-10.664-10.672V165.321c0-5.891,4.773-10.656,10.664-10.656
		c5.89,0,10.664,4.766,10.664,10.656v106.667C74.661,277.879,69.887,282.66,63.997,282.66z"/>
	<path style="fill:#8CC153;" d="M106.659,282.66c-5.891,0-10.664-4.781-10.664-10.672V165.321c0-5.891,4.773-10.656,10.664-10.656
		c5.89,0,10.671,4.766,10.671,10.656v106.667C117.331,277.879,112.55,282.66,106.659,282.66z"/>
	<path style="fill:#8CC153;" d="M149.33,282.66c-5.891,0-10.672-4.781-10.672-10.672V165.321c0-5.891,4.781-10.656,10.672-10.656
		c5.89,0,10.663,4.766,10.663,10.656v106.667C159.993,277.879,155.219,282.66,149.33,282.66z"/>
	<path style="fill:#8CC153;" d="M191.992,282.66c-5.891,0-10.664-4.781-10.664-10.672V165.321c0-5.891,4.773-10.656,10.664-10.656
		c5.89,0,10.664,4.766,10.664,10.656v106.667C202.656,277.879,197.882,282.66,191.992,282.66z"/>
	<path style="fill:#8CC153;" d="M234.654,282.66c-5.891,0-10.664-4.781-10.664-10.672V165.321c0-5.891,4.773-10.656,10.664-10.656
		c5.89,0,10.671,4.766,10.671,10.656v106.667C245.325,277.879,240.544,282.66,234.654,282.66z"/>
	<path style="fill:#8CC153;" d="M277.332,282.66c-5.898,0-10.679-4.781-10.679-10.672V165.321c0-5.891,4.78-10.656,10.679-10.656
		c5.875,0,10.656,4.766,10.656,10.656v106.667C287.988,277.879,283.207,282.66,277.332,282.66z"/>
	<path style="fill:#8CC153;" d="M319.987,282.66c-5.891,0-10.655-4.781-10.655-10.672V165.321c0-5.891,4.765-10.656,10.655-10.656
		c5.89,0,10.654,4.766,10.654,10.656v106.667C330.641,277.879,325.877,282.66,319.987,282.66z"/>
	<path style="fill:#8CC153;" d="M362.641,282.66c-5.875,0-10.656-4.781-10.656-10.672V165.321c0-5.891,4.781-10.656,10.656-10.656
		c5.905,0,10.687,4.766,10.687,10.656v106.667C373.328,277.879,368.547,282.66,362.641,282.66z"/>
	<path style="fill:#8CC153;" d="M405.327,282.66c-5.906,0-10.688-4.781-10.688-10.672V165.321c0-5.891,4.781-10.656,10.688-10.656
		c5.875,0,10.656,4.766,10.656,10.656v106.667C415.983,277.879,411.202,282.66,405.327,282.66z"/>
	<path style="fill:#8CC153;" d="M447.981,282.66c-5.891,0-10.655-4.781-10.655-10.672V165.321c0-5.891,4.765-10.656,10.655-10.656
		s10.656,4.766,10.656,10.656v106.667C458.637,277.879,453.872,282.66,447.981,282.66z"/>
</g>
<path style="fill:#965353;" d="M501.322,261.317H10.663c-5.89,0-10.663,4.78-10.663,10.671v127.995
	c0,5.89,4.773,10.671,10.663,10.671h490.659c5.875,0,10.656-4.781,10.656-10.671V271.988
	C511.978,266.097,507.197,261.317,501.322,261.317z"/>
<rect x="74.659" y="314.659" style="fill:#FFCE54;" width="362.67" height="42.653"/>
<g>
</g>
<g>
</g>
<g>
</g>
<g>
</g>
<g>
</g>
<g>
</g>
<g>
</g>
<g>
</g>
<g>
</g>
<g>
</g>
<g>
</g>
<g>
</g>
<g>
</g>
<g>
</g>
<g>
</g>
</svg>
