<?xml version="1.0" encoding="utf-8"?>
<!-- Generator: Adobe Illustrator 24.0.0, SVG Export Plug-In . SVG Version: 6.00 Build 0)  -->
<svg version="1.1" id="Layer_1" xmlns="http://www.w3.org/2000/svg" xmlns:xlink="http://www.w3.org/1999/xlink" x="0px" y="0px"
	 viewBox="0 0 512 512" style="enable-background:new 0 0 512 512;" xml:space="preserve">
<style type="text/css">
	.st0{fill:#7F4545;}
	.st1{opacity:0.2;fill:#FFFFFF;enable-background:new    ;}
	.st2{fill:#8CC153;}
	.st3{fill:#965353;}
	.st4{fill:#FFCE54;}
</style>
<g>
	<path class="st0" d="M96,389.3H32c-5.9,0-10.7,4.8-10.7,10.7v32c0,5.9,4.8,10.7,10.7,10.7h64c5.9,0,10.7-4.8,10.7-10.7v-32
		C106.7,394.1,101.9,389.3,96,389.3z"/>
	<path class="st0" d="M480,389.3h-64c-5.9,0-10.7,4.8-10.7,10.7v32c0,5.9,4.8,10.7,10.7,10.7h64c5.9,0,10.7-4.8,10.7-10.7v-32
		C490.6,394.1,485.9,389.3,480,389.3z"/>
</g>
<path class="st1" d="M480,69.3h-10.7c-1.7,0-3.3,0.4-4.8,1.1L448,78.7l-16.6-8.3c-3-1.5-6.5-1.5-9.5,0l-16.6,8.3l-16.6-8.3
	c-3-1.5-6.5-1.5-9.6,0l-16.6,8.3l-16.6-8.3c-3-1.5-6.5-1.5-9.5,0L320,78.7l-16.6-8.3c-3-1.5-6.5-1.5-9.5,0l-16.6,8.3l-16.6-8.3
	c-3-1.5-6.5-1.5-9.5,0l-16.6,8.3l-16.6-8.3c-3-1.5-6.5-1.5-9.5,0L192,78.7l-16.6-8.3c-3-1.5-6.5-1.5-9.5,0l-16.6,8.3l-16.6-8.3
	c-3-1.5-6.5-1.5-9.5,0l-16.6,8.3l-16.6-8.3c-3-1.5-6.5-1.5-9.5,0L64,78.7l-16.6-8.3c-1.5-0.7-3.1-1.1-4.8-1.1H32
	c-5.9,0-10.7,4.8-10.7,10.7v21.3c0-5.9,4.8-10.7,10.7-10.7h10.7c1.7,0,3.3,0.4,4.8,1.1l16.6,8.3l16.6-8.3c3-1.5,6.5-1.5,9.5,0
	l16.6,8.3l16.6-8.3c3-1.5,6.5-1.5,9.5,0l16.6,8.3l16.6-8.3c3-1.5,6.5-1.5,9.5,0l16.6,8.3l16.6-8.3c3-1.5,6.5-1.5,9.5,0l16.6,8.3
	l16.6-8.3c3-1.5,6.5-1.5,9.5,0l16.6,8.3l16.6-8.3c3-1.5,6.5-1.5,9.5,0l16.6,8.3l16.6-8.3c3-1.5,6.5-1.5,9.5,0l16.6,8.3l16.6-8.3
	c3-1.5,6.5-1.5,9.6,0l16.6,8.3l16.6-8.3c3-1.5,6.5-1.5,9.5,0l16.6,8.3l16.6-8.3c1.5-0.8,3.1-1.1,4.8-1.1H480
	c5.9,0,10.7,4.8,10.7,10.7V80C490.6,74.1,485.9,69.3,480,69.3z"/>
<g>
	<path class="st2" d="M64,368.7c-5.9,0-10.7-4.8-10.7-10.7V251.3c0-5.9,4.8-10.7,10.7-10.7c5.9,0,10.7,4.8,10.7,10.7V358
		C74.7,363.9,69.9,368.7,64,368.7z"/>
	<path class="st2" d="M106.7,368.7c-5.9,0-10.7-4.8-10.7-10.7V251.3c0-5.9,4.8-10.7,10.7-10.7c5.9,0,10.7,4.8,10.7,10.7V358
		C117.3,363.9,112.6,368.7,106.7,368.7z"/>
	<path class="st2" d="M149.3,368.7c-5.9,0-10.7-4.8-10.7-10.7V251.3c0-5.9,4.8-10.7,10.7-10.7c5.9,0,10.7,4.8,10.7,10.7V358
		C160,363.9,155.2,368.7,149.3,368.7z"/>
	<path class="st2" d="M192,368.7c-5.9,0-10.7-4.8-10.7-10.7V251.3c0-5.9,4.8-10.7,10.7-10.7c5.9,0,10.7,4.8,10.7,10.7V358
		C202.7,363.9,197.9,368.7,192,368.7z"/>
	<path class="st2" d="M234.7,368.7c-5.9,0-10.7-4.8-10.7-10.7V251.3c0-5.9,4.8-10.7,10.7-10.7c5.9,0,10.7,4.8,10.7,10.7V358
		C245.3,363.9,240.5,368.7,234.7,368.7z"/>
	<path class="st2" d="M277.3,368.7c-5.9,0-10.7-4.8-10.7-10.7V251.3c0-5.9,4.8-10.7,10.7-10.7c5.9,0,10.7,4.8,10.7,10.7V358
		C288,363.9,283.2,368.7,277.3,368.7z"/>
	<path class="st2" d="M320,368.7c-5.9,0-10.7-4.8-10.7-10.7V251.3c0-5.9,4.8-10.7,10.7-10.7c5.9,0,10.7,4.8,10.7,10.7V358
		C330.6,363.9,325.9,368.7,320,368.7z"/>
	<path class="st2" d="M362.6,368.7c-5.9,0-10.7-4.8-10.7-10.7V251.3c0-5.9,4.8-10.7,10.7-10.7c5.9,0,10.7,4.8,10.7,10.7V358
		C373.3,363.9,368.5,368.7,362.6,368.7z"/>
	<path class="st2" d="M405.3,368.7c-5.9,0-10.7-4.8-10.7-10.7V251.3c0-5.9,4.8-10.7,10.7-10.7c5.9,0,10.7,4.8,10.7,10.7V358
		C416,363.9,411.2,368.7,405.3,368.7z"/>
	<path class="st2" d="M448,368.7c-5.9,0-10.7-4.8-10.7-10.7V251.3c0-5.9,4.8-10.7,10.7-10.7s10.7,4.8,10.7,10.7V358
		C458.6,363.9,453.9,368.7,448,368.7z"/>
</g>
<path class="st3" d="M501.3,261.3H10.7C4.8,261.3,0,266.1,0,272v128c0,5.9,4.8,10.7,10.7,10.7h490.7c5.9,0,10.7-4.8,10.7-10.7V272
	C512,266.1,507.2,261.3,501.3,261.3z"/>
<rect x="74.7" y="314.7" class="st4" width="362.7" height="42.7"/>
</svg>
