<?xml version="1.0" encoding="iso-8859-1"?>
<!-- Generator: Adobe Illustrator 19.0.0, SVG Export Plug-In . SVG Version: 6.00 Build 0)  -->
<svg version="1.1" id="Layer_1" xmlns="http://www.w3.org/2000/svg" xmlns:xlink="http://www.w3.org/1999/xlink" x="0px" y="0px"
	 viewBox="0 0 512 512" style="enable-background:new 0 0 512 512;" xml:space="preserve">
<path style="fill:#A1887F;" d="M408,152v316c0,22-18,40-40,40H143.2c-22,0-39.2-18-39.2-40V152c0-22,17.2-40,39.2-40H220V40
	c0-20,16-36,36-36s36,16,36,36v72h76C390,112,408,130,408,152z"/>
<path d="M368,512H143.2c-24,0-43.2-19.6-43.2-44V152c0-24.4,19.2-44,43.2-44H216V40c0-22,18-40,40-40s40,18,40,40v68h72
	c24.4,0,44,19.6,44,44v316C412,492.4,392.4,512,368,512z M143.2,116c-19.6,0-35.2,15.6-35.2,36v316c0,20,15.6,36,35.2,36H368
	c20,0,36-16,36-36V152c0-19.6-16-36-36-36h-76c-2.4,0-4-1.6-4-4V40c0-17.6-14.4-32-32-32s-32,14.4-32,32v72c0,2.4-1.6,4-4,4H143.2z"
	/>
<path style="fill:#FFFFFF;" d="M255.6,28.4c6.4,0,12,5.2,12,12c0,6.4-5.2,12-12,12c-6.4,0-12-5.2-12-12S249.2,28.4,255.6,28.4z"/>
<path d="M255.6,56c-8.8,0-16-7.2-16-16s7.2-16,16-16s16,7.2,16,16S264.4,56,255.6,56z M255.6,32.4c-4.4,0-8,3.6-8,8s3.6,8,8,8
	s8-3.6,8-8S260,32.4,255.6,32.4z"/>
<path style="fill:#BCAAA4;" d="M380,148v324.4c0,4.4-4.4,7.2-8.4,7.2H140c-4.4,0-7.6-2.8-7.6-7.2V148c0-4.4,3.2-8,7.6-8h184.4h36
	H372C375.6,140,380,143.6,380,148z"/>
<path d="M371.2,484H139.6c-6.8,0-11.6-4.8-11.6-11.2V148c0-6.8,5.2-12,11.6-12H324c2.4,0,4,1.6,4,4s-1.6,4-4,4H139.6
	c-2,0-3.6,1.6-3.6,4v324.4c0,2.4,2,3.2,3.6,3.2h231.6c2.4,0,4.8-1.2,4.8-3.2V148c0-2-2.4-4-4.8-4H360c-2.4,0-4-1.6-4-4s1.6-4,4-4
	h11.2c6.8,0,12.8,5.6,12.8,12v324.4C384,479.2,378.4,484,371.2,484z"/>
<g>
</g>
<g>
</g>
<g>
</g>
<g>
</g>
<g>
</g>
<g>
</g>
<g>
</g>
<g>
</g>
<g>
</g>
<g>
</g>
<g>
</g>
<g>
</g>
<g>
</g>
<g>
</g>
<g>
</g>
</svg>
