<?xml version="1.0" encoding="utf-8"?>
<!-- Generator: Adobe Illustrator 24.0.0, SVG Export Plug-In . SVG Version: 6.00 Build 0)  -->
<svg version="1.1" id="Layer_1" xmlns="http://www.w3.org/2000/svg" xmlns:xlink="http://www.w3.org/1999/xlink" x="0px" y="0px"
	 viewBox="0 0 50 47.2" style="enable-background:new 0 0 50 47.2;" xml:space="preserve">
<g transform="translate(0.000000,1207.000000) scale(0.100000,-0.100000)">
	<path d="M267.3,12065.9c-10.3-1.6-22-9.4-28.4-18.9c-4-6-5.5-10.7-5.5-17.5c0-4.6,0.1-5.3,2-12.7c2.5-9.5,5.4-18.7,12.7-39.3
		c7.5-21.4,9.2-27.3,9.2-32.8c0-3.8-0.5-5.6-2.3-7.1c-2.5-2.2-6.3-2.4-13.6-0.7c-3,0.7-3.7,1-4.9,2.3c-3.9,4-4.8,17.3-2.3,32.6
		c1.2,7.4,1,9.9-1.3,12.4c-1.9,2.1-3.6,2.6-8.4,2.6c-3.6,0-5.1-0.2-7.9-1.1c-7.4-2.3-14.5-6.3-19.3-11.1c-3.8-3.8-5.2-6.3-5.2-9.7
		c0-4.9,2.3-7.8,11.4-14.3c11.1-7.9,12.5-10.3,9.8-16.1c-1.5-3.2-4.2-6.2-6.8-7.4c-2.2-1.1-8.6-2.1-13-2.1c-4.2,0-8.1,1.4-12.3,4.2
		c-8.3,5.6-15.5,14.2-30.8,36.9c-16.3,24.1-19.7,27.9-29.1,32.6c-4.2,2.1-9.5,3.7-15,4.7c-3.9,0.7-5.7,0.8-11.4,0.6
		c-9.9-0.3-15.8-1.9-21.2-5.7c-6.1-4.3-7.9-10.2-5.4-17.7c5.9-17.6,28.3-36,58.4-47.9c5.2-2.1,8.5-3.2,24.9-8.3
		c18.3-5.7,22.2-12.3,13.2-22c-3-3.2-12.5-11.2-15.8-13.1c-5.6-3.4-14.2-5.4-16.7-3.8c-0.8,0.5-1,0.9-1,2.3
		c0,6.1-4.4,10.5-11.5,11.5c-4.8,0.7-9.6-0.7-12.8-3.6c-2.2-1.9-4-5.6-4.3-8.3c-0.4-4.6,1.4-6.3,9.5-9c9.5-3.1,11.8-5,12.8-10.6
		c0.5-2.3,0-6.7-1-9.7c-1.1-3.3-4-4.3-9-3.2c-5.7,1.2-13.9,5.2-22.4,10.7c-11.6,7.6-18.9,13.7-31.2,25.8c-9.8,9.6-11.7,11.1-17,12.8
		c-16.6,5.6-35.6-8.1-41.4-29.9c-1.2-4.7-1.7-14-1-19.2c3.3-22.6,21.2-37.4,50.7-41.9c4.3-0.7,7.2-0.9,14.4-0.9
		c12.1,0,17,0.8,28.1,4.7c8.3,2.9,11.9,3.7,17.8,3.7c6.1,0,7.5-0.3,9.9-2.6c2.8-2.6,4-6.7,4.1-13.9c0.1-7.2-0.9-8-31.7-23.6
		c-9-4.5-17.7-8.8-19.4-9.4c-7.8-2.8-16.9-4.2-33.5-5c-19.2-1-29.2-4.2-36.2-11.6c-4.7-5-6.7-11.4-5.7-18.6
		c1-7.8,5.2-17.3,10.8-24.3c10.9-13.7,23.5-18.1,37.8-13.4c6,2,12.8,6.1,20.3,12c5,4,23.7,21.2,34.5,31.9c10,9.9,11.2,10.7,16,11.7
		c1.6,0.3,4.2,0.4,7.6,0.2c8.6-0.3,13.8-2.6,19.5-8.2c4.7-4.7,7-9.2,8.2-15.8c0.8-4.4,0.5-9.7-0.5-12.1c-1.8-4-7-9.9-22-25.1
		c-18-18.2-21.4-22-26-28.6c-5-7.4-7.6-14.5-7.6-20.9c0-2.8,1.3-7.5,2.9-10.6c5.1-9.7,20-19.9,32.1-22c15.9-2.7,26.9,8.8,32.2,33.8
		c2,9.1,2.7,15.5,3.6,30c0.8,14,1.7,18.7,4.7,24.9c1,2.1,2.3,3.7,4.2,5.7c4.3,4.3,8.7,6,15.9,6c5.5,0,10-0.8,20-3.7
		c4.8-1.4,12-3.3,16.1-4.3s7.9-2,8.6-2.3c2.6-1.1,3.9-6.2,2.9-11.2c-0.2-1.3-2.8-9.5-5.6-18.1c-7.1-21.6-8.7-28.3-9.6-39.8
		c-0.4-5.7-0.4-6.6,0.2-9.5c2.7-12.5,10.4-21.3,20.5-23.4c3.7-0.8,5.3-0.8,8.9-0.1c6.4,1.2,10.9,3.8,16.4,9.3
		c6,6,10.5,13.5,12.3,20.5c0.7,2.6,0.7,4,0.6,7.4c-0.3,5.7-1.2,8.5-7,20.2c-2.5,5.1-5.7,11.8-6.9,14.9c-1.3,3.1-3.9,9-5.8,13.1
		c-3.8,8.2-4.1,9.5-2.7,11.9c1.7,2.7,4.5,4.4,11.4,7c8.6,3.2,18.7,5,26.4,4.8c4.5-0.1,5.4-0.3,7.3-1.2c3.2-1.5,3.5-2.2,3.9-8.2
		c0.9-15,6.4-21.3,22.5-25.4c12.3-3.2,18.8-2.2,24.3,3.6c3.8,4.1,5.5,8.8,5.8,16.5c0.3,9.2-1.3,15.2-5.2,19.2
		c-2.9,2.9-5,4.3-13.4,8.1c-8.5,4-10.1,4.9-12.6,7.3c-4.2,3.9-4.5,8.1-0.8,11.3c5.8,5,21.4,8.8,38.2,9.4l6.7,0.2l2.6-1.3
		c2.1-1,3.6-2.3,7.1-5.8c5.7-5.7,7.6-8.2,23.6-31.5c5.6-8.2,8.1-11,11.4-13c17.2-10,49.6-4.7,63.5,10.6c4.6,5.1,6.2,8.7,6.2,14.4
		c0,20.6-30.6,50.4-56.9,55.4c-5.5,1-11,0.8-16.6-0.7c-19.4-5.1-33.4,1.9-47.9,23.9l-2.8,4.3l0.2,2.9c0.2,3.7,1.5,6.5,4.7,9.9
		c2.8,2.9,5.8,4.6,8.4,4.6c1.4,0,2.3-0.3,4.1-1.4c9.1-5.6,23-4.7,30.4,1.9c4.6,4.1,6.8,9.9,5.7,15.2c-0.9,4.2-2.9,8-6.2,11.2
		c-4.6,4.7-10,7.1-16.5,7.4c-6.8,0.4-11.3-1.6-14.4-6.2c-2.8-4.3-4.5-5-7.6-3.5c-4.4,2.3-11.3,12.7-12.5,18.8
		c-0.6,3.1-0.5,4.7,0.2,7.4c1.8,7,8.6,13.3,22.3,20.6c7.3,3.9,9.9,4.8,13.1,4.8c1.4,0,3.3-0.2,4.3-0.4c2.8-0.7,8.2-3.3,14.6-7.2
		c7-4.3,12-6.8,15.9-8.1c12.5-4.2,24.5-2.1,38.4,6.6c15.3,9.6,23.2,20.1,23.2,30.8c0,5.8-1.9,10.9-5.9,16
		c-8.3,10.5-25.1,18.2-39.8,18.3c-9.2,0-18.7-3.7-31.8-12.4c-9.2-6.1-13.9-9.8-32.9-25.9c-13.7-11.6-19.7-16.3-23.7-18.3
		c-4.1-2.1-6.6-1.8-9.6,1.3c-4.3,4.4-7.1,12.7-7.2,21.1c-0.1,6.7,1.5,10.4,4.7,11.5c3.1,1,14.4,5.9,20.4,9
		c13.4,6.7,16.1,11.8,11.9,22.3c-0.9,2.2-2.4,5.2-3.4,6.8c-6.7,10.4-18.8,14.9-27.9,10.5c-2.4-1.2-5.9-4.6-7.1-7
		c-1.4-2.8-2.4-7.1-2.6-11.5c-0.2-4.8-0.5-5.6-3.2-8.1c-5.2-4.9-15.4-8.3-25.8-8.8c-8.5-0.3-12.9,0.9-17.4,4.8
		c-5.5,4.8-10.6,14.4-12.3,23.5c-0.7,3.9-0.7,10.3,0,13.1c0.3,1.2,2.3,7,4.4,13c6.5,18.3,8.3,26.2,8.3,36.1c0,6.6-0.6,10.3-2.5,14.8
		c-3.1,7.6-8.3,12.6-15,14.6C275.9,12066.1,270.5,12066.3,267.3,12065.9z"/>
</g>
</svg>
