<?xml version="1.0" encoding="iso-8859-1"?>
<!-- Generator: Adobe Illustrator 19.0.0, SVG Export Plug-In . SVG Version: 6.00 Build 0)  -->
<svg version="1.1" id="Layer_1" xmlns="http://www.w3.org/2000/svg" xmlns:xlink="http://www.w3.org/1999/xlink" x="0px" y="0px"
	 viewBox="0 0 512 512" style="enable-background:new 0 0 512 512;" xml:space="preserve">
<path style="fill:#BDBDBD;" d="M303.678,388.4l-62-62l-38.4-38.4l284-284C487.278,4,531.678,160.4,303.678,388.4z"/>
<path style="fill:#616161;" d="M239.678,328l-174,170c0,0-17.2,14.8-36,0c-12.8-10,0-35.2,0-35.2l173.6-174.8L239.678,328z"/>
<path d="M303.678,392.4c-1.2,0-2-0.4-2.8-1.2l-100.4-100.4c-0.8-0.8-1.2-1.6-1.2-2.8s0.4-2,1.2-2.8l284-284c1.2-1.2,2.4-1.2,4-1.2
	c1.2,0.4,2.4,1.6,2.8,2.8c0.4,1.6,11.2,40.8-6.4,108.8c-16,62-60,161.2-178.4,279.6C305.678,392,304.478,392.4,303.678,392.4z
	 M208.878,288l35.6,35.6l0,0l59.2,59.2c193.6-195.2,186-338,181.2-370.4L208.878,288z"/>
<path d="M48.078,512c-8,0-16-2.8-22-9.2c-12-12-12-31.6,0-44l172.4-172.4c1.6-1.6,4-1.6,5.6,0s1.6,4,0,5.6l-172.4,172.4
	c-9.2,9.2-9.2,23.6,0,32.8c8.8,8.8,23.6,8.8,32.8,0c1.6-1.6,4-1.6,5.6,0s1.6,4,0,5.6C64.078,508.8,56.078,512,48.078,512z"/>
<path d="M67.678,504.4c-1.2,0-2-0.4-2.8-1.2c-1.6-1.6-1.6-4,0-5.6l172.4-172.4c1.6-1.6,4-1.6,5.6,0s1.6,4,0,5.6l-172.4,172.4
	C69.678,504,68.878,504.4,67.678,504.4z"/>
<path d="M456.878,145.6c-0.4,0-0.8,0-1.2-0.4c-2-0.8-3.2-3.2-2.4-5.2c6-16.8,10.8-32.8,14-48.4c0.4-2,2.4-3.6,4.8-3.2
	c2,0.4,3.6,2.4,3.2,4.8c-3.2,16-8,32.8-14.4,49.6C460.078,144.8,458.478,145.6,456.878,145.6z"/>
<path d="M474.878,74.8h-0.4c-2-0.4-3.6-2.4-3.6-4.4c1.2-8.8,1.6-16.8,2-24.8c0-2,2-4,4-4l0,0c2.4,0,4,2,4,4c0,8-0.8,16.8-2,25.6
	C478.478,73.6,476.478,74.8,474.878,74.8z"/>
<g>
</g>
<g>
</g>
<g>
</g>
<g>
</g>
<g>
</g>
<g>
</g>
<g>
</g>
<g>
</g>
<g>
</g>
<g>
</g>
<g>
</g>
<g>
</g>
<g>
</g>
<g>
</g>
<g>
</g>
</svg>
