<?xml version="1.0" encoding="utf-8"?>
<!-- Generator: Adobe Illustrator 24.0.0, SVG Export Plug-In . SVG Version: 6.00 Build 0)  -->
<svg version="1.1" id="Layer_1" xmlns="http://www.w3.org/2000/svg" xmlns:xlink="http://www.w3.org/1999/xlink" x="0px" y="0px"
	 viewBox="0 0 64 64" style="enable-background:new 0 0 64 64;" xml:space="preserve">
<style type="text/css">
	.st0{fill:#F2B200;}
	.st1{fill:#94989B;}
	.st2{fill:#3E4347;}
</style>
<path class="st0" d="M25.9,19l-7.9,3.3l-2.7,6.8l3.3,7.9l35.6,17l9.1-22.4L25.9,19 M24.2,28.8c-0.4,1-1.6,1.5-2.6,1.1
	c-1-0.4-1.5-1.6-1.1-2.6c0.4-1,1.6-1.5,2.6-1.1C24.1,26.6,24.6,27.8,24.2,28.8"/>
<path class="st1" d="M22.9,27.6c-0.7-0.9-1.6-1.7-2.5-2.4c-2.2-1.6-4.9-2.6-7.6-3c-3.7-0.5-7.4,0.2-10.9,1.3c-0.4,0.2-0.5,0.7-0.4,1
	c0.2,0.4,0.6,0.6,1,0.4c3.8-1.2,8-1.8,11.9-0.9c1.1,0.3,2.6,0.8,3.7,1.5c0.2,0.1-0.1-0.1,0,0.1c0,0.1,0.1,0,0.1,0.1
	c0.1,0,0.3,0.2,0.4,0.2c0.3,0.2,0.5,0.3,0.7,0.5c0.4,0.3,0.7,0.5,1.1,0.8c0.1,0,0.2,0.2,0.3,0.2c0,0.1,0.1,0,0.1,0.1
	c0.1,0.1,0.3,0.3,0.4,0.5c0.1,0.1,0.2,0.3,0.4,0.4C22.2,29.4,23.5,28.4,22.9,27.6"/>
<path class="st2" d="M16.4,26.5l-0.1,0c-0.5-0.1-1-0.3-1.4-0.6c-1-0.5-2.1-1.2-3-2c-2.4-2-4.3-4.6-5.8-7.3c-0.3-0.4-0.7-0.6-1.2-0.4
	c-0.4,0.2-0.6,0.6-0.4,1c1.6,3,3.7,5.8,6.3,8c1,0.9,2.2,1.7,3.3,2.3c0.5,0.3,1,0.5,1.6,0.6L16.4,26.5"/>
</svg>
