<?xml version="1.0" encoding="iso-8859-1"?>
<!-- Generator: Adobe Illustrator 19.0.0, SVG Export Plug-In . SVG Version: 6.00 Build 0)  -->
<svg version="1.1" id="Layer_1" xmlns="http://www.w3.org/2000/svg" xmlns:xlink="http://www.w3.org/1999/xlink" x="0px" y="0px"
	 viewBox="0 0 512.001 512.001" style="enable-background:new 0 0 512.001 512.001;" xml:space="preserve">
<path style="fill:#DBAD75;" d="M284.103,278.438h-52.621c-4.598,0-8.323,3.725-8.323,8.323v190.607
	c0,19.097,15.536,34.633,34.633,34.633s34.633-15.536,34.633-34.633V286.761C292.426,282.163,288.7,278.438,284.103,278.438z"/>
<path style="fill:#EABD81;" d="M257.793,278.438h-26.31c-4.598,0-8.323,3.725-8.323,8.323v190.607
	c0,19.097,15.536,34.633,34.633,34.633V278.438z"/>
<path style="fill:#DEE1E7;" d="M102.473,155.741c0,85.644,69.676,155.32,155.32,155.32s155.32-69.676,155.32-155.32
	S343.437,0.421,257.793,0.421S102.473,70.097,102.473,155.741z"/>
<path style="fill:#FFFFFF;" d="M102.473,155.741c0,85.644,69.676,155.32,155.32,155.32V0.421
	C172.149,0.421,102.473,70.097,102.473,155.741z"/>
<path style="fill:#BC2A46;" d="M306.398,284.857c-28.057,5.58-58.45,1.783-85.584-10.693
	c-27.613-12.697-50.007-33.601-63.058-58.859c-20.868-40.389-17.669-91.091,7.954-126.168c13.078-17.901,32.353-31.667,54.275-38.76
	c22.472-7.271,46.225-6.991,66.885,0.789c24.33,9.162,44.222,28.381,53.216,51.411c9.871,25.279,6.472,54.089-8.87,75.183
	c-11.644,16.009-29.644,26.425-48.151,27.863c-21.196,1.647-41.73-8.49-52.317-25.825c-7.746-12.684-8.87-27.941-2.93-39.812
	c5.441-10.881,20.863-20.709,35.144-17.994c10.562,2.007,18.035,10.619,19.037,21.941c0.841,9.285-6.056,17.53-15.371,18.355
	c-2.186,0.193-4.312-0.038-6.297-0.625c-0.494-0.227-0.856-0.001-0.689,0.489c3.89,6.369,12.442,10.365,20.797,9.716
	c8.626-0.67,17.59-6.044,23.393-14.022c8.49-11.675,10.344-28.534,4.713-42.952c-5.557-14.231-18.121-26.207-33.609-32.04
	c-27.578-10.386-63.547,1.149-81.89,26.257c-18.238,24.963-20.332,61.393-5.215,90.654c19.807,38.334,67.938,60.641,111.958,51.885
	c71.077-14.137,114.76-100.643,86.578-166.879C366.079,37.08,308.377,0,256.849,0C168.222,0,96.407,73.368,98.954,162.558
	c2.385,83.546,70.335,151.235,153.89,153.314c55.405,1.378,104.645-25.934,133.893-68.11c2.278-3.285-2.236-6.962-5.056-4.129
	c-0.085,0.087-0.172,0.172-0.257,0.259C360.15,265.158,334.207,279.326,306.398,284.857z"/>
<g>
	<path style="fill:#D62D46;" d="M257.977,285.52l-1.122-0.186c-12.318-2.11-24.476-5.852-36.043-11.169
		c-27.613-12.697-50.007-33.601-63.058-58.859c-20.868-40.389-17.669-91.091,7.954-126.168
		c13.078-17.901,32.353-31.667,54.275-38.76c12.144-3.93,24.662-5.653,36.864-5.18c0.376,0.014,0.752,0.031,1.127,0.05V0.006
		C257.601,0.002,257.225,0,256.849,0C168.222,0,96.407,73.368,98.954,162.558c2.385,83.545,70.335,151.234,153.89,153.314
		c1.719,0.042,3.432,0.058,5.14,0.045L257.977,285.52z"/>
	<path style="fill:#D62D46;" d="M257.977,79.212c-0.376-0.027-0.752-0.05-1.13-0.071c-23.707-1.28-49.277,10.091-63.799,29.969
		c-18.238,24.963-20.332,61.393-5.215,90.654c13.395,25.924,39.744,44.519,69.014,51.133c0.376,0.085,0.754,0.168,1.13,0.249
		l-0.003-49.121c-0.065-0.024-0.13-0.05-0.195-0.074c-0.313-0.12-0.625-0.243-0.935-0.368
		c-10.786-4.353-20.059-11.898-26.097-21.785c-7.746-12.684-8.87-27.941-2.93-39.812c4.67-9.337,16.688-17.899,29.029-18.425
		c0.375-0.016,0.751-0.024,1.128-0.026L257.977,79.212z"/>
</g>
<g>
</g>
<g>
</g>
<g>
</g>
<g>
</g>
<g>
</g>
<g>
</g>
<g>
</g>
<g>
</g>
<g>
</g>
<g>
</g>
<g>
</g>
<g>
</g>
<g>
</g>
<g>
</g>
<g>
</g>
</svg>
