<?xml version="1.0" encoding="utf-8"?>
<!-- Generator: Adobe Illustrator 24.0.0, SVG Export Plug-In . SVG Version: 6.00 Build 0)  -->
<svg version="1.1" id="Layer_1" xmlns="http://www.w3.org/2000/svg" xmlns:xlink="http://www.w3.org/1999/xlink" x="0px" y="0px"
	 viewBox="0 0 512 512" style="enable-background:new 0 0 512 512;" xml:space="preserve">
<style type="text/css">
	.st0{fill:#434A54;}
	.st1{opacity:0.1;}
	.st2{fill:#FFFFFF;}
	.st3{fill:#656D78;}
</style>
<path class="st0" d="M256,512c100.1,0,181.3-14.3,181.3-32l-10.7-277.3c0,0-42.7-21.3-170.7-21.3c-128,0-170.7,21.3-170.7,21.3
	L74.7,480C74.7,497.7,155.8,512,256,512z"/>
<g class="st1">
	<path class="st2" d="M426.6,202.7c0,0-42.7-21.3-170.7-21.3c-3.6,0-7.2,0-10.7,0.1c119.7,1.1,160,21.3,160,21.3L416,480
		c0,17-75.5,31-170.7,31.9c3.5,0,7.1,0.1,10.7,0.1c100.1,0,181.3-14.3,181.3-32L426.6,202.7z"/>
</g>
<path class="st3" d="M512,192c0,41.2-114.6,74.7-256,74.7C114.6,266.7,0,233.2,0,192c0-41.2,114.6-74.7,256-74.7
	C397.4,117.3,512,150.8,512,192z"/>
<path class="st0" d="M256,224c-46.3,0-90-4.1-123.2-11.6c-37.5-8.5-46.9-18.1-47.5-20.4c0.5-2.3,9.9-11.9,47.5-20.4
	C166,164.1,209.7,160,256,160c46.3,0,90,4.1,123.2,11.6c37.6,8.5,46.9,18.1,47.5,20.4c-0.5,2.2-9.9,11.9-47.5,20.4
	C346,219.9,302.3,224,256,224z"/>
</svg>
