<?xml version="1.0" encoding="utf-8"?>
<!-- Generator: Adobe Illustrator 24.0.0, SVG Export Plug-In . SVG Version: 6.00 Build 0)  -->
<svg version="1.1" id="Layer_1" xmlns="http://www.w3.org/2000/svg" xmlns:xlink="http://www.w3.org/1999/xlink" x="0px" y="0px"
	 viewBox="0 0 512 512" style="enable-background:new 0 0 512 512;" xml:space="preserve">
<style type="text/css">
	.st0{fill:#1C7287;}
	.st1{fill:#165C6C;}
	.st2{fill:#32A5B9;}
	.st3{fill:#F8B242;}
	.st4{fill:#D09838;}
</style>
<g>
	<path class="st0" d="M16,503l-6-6c-12-12-12-31.5,0-43.6l306.4-306.4c12-12,31.5-12,43.6,0l6,6c12,12,12,31.5,0,43.6L59.5,503
		C47.5,515,28,515,16,503z"/>
	<path class="st1" d="M227.4,236.1L10,453.5c-12,12-12,31.5,0,43.6l6,6c12,12,31.5,12,43.6,0l167.9-167.9V236.1z"/>
	<path class="st2" d="M313.6,248.9l52.3-52.3c12-12,12-31.5,0-43.6l-6-6c-12-12-31.5-12-43.6,0l-52.3,52.3L313.6,248.9z"/>
	<path class="st3" d="M419.8,113.9c-5.7,0-11.5-2.2-15.9-6.5c-8.8-8.8-8.7-23,0-31.7l34.8-34.8c8.8-8.8,23-8.8,31.8,0
		c8.8,8.8,8.8,23,0,31.8l-34.8,34.8C431.3,111.7,425.5,113.9,419.8,113.9z"/>
	<path class="st3" d="M343.6,103.7c-10.9,0-20.4-7.9-22.2-19L312.2,26c-1.9-12.3,6.4-23.7,18.7-25.7c12.3-1.9,23.7,6.4,25.7,18.7
		l9.2,58.8c1.9,12.3-6.4,23.7-18.7,25.7C345.9,103.6,344.7,103.7,343.6,103.7z"/>
	<path class="st3" d="M488.6,199.1c-1.2,0-2.3-0.1-3.5-0.3l-58.8-9.2c-12.3-1.9-20.6-13.4-18.7-25.7c1.9-12.3,13.4-20.6,25.7-18.7
		l58.8,9.2c12.3,1.9,20.6,13.4,18.7,25.7C509,191.2,499.5,199.1,488.6,199.1z"/>
	<g>
		<path class="st3" d="M262.8,133.9c-5.7,0-11.4-2.3-15.8-6.7L208.9,89c-8.8-8.8-8.8-23,0-31.8c8.8-8.8,23-8.8,31.8,0l38.1,38.1
			c8.8,8.8,8.7,23.1-0.1,31.8C274.4,131.6,268.6,133.9,262.8,133.9z"/>
		<path class="st4" d="M227.4,50.9c-6.6-0.8-13.4,1.4-18.5,6.4c-8.8,8.8-8.8,23,0,31.8l18.5,18.5V50.9z"/>
		<path class="st3" d="M437.8,308.8c-5.7,0-11.4-2.3-15.8-6.7L383.9,264c-8.8-8.8-8.8-23,0-31.8c8.8-8.8,23-8.8,31.8,0l38.1,38.1
			c8.8,8.8,8.7,23.1-0.1,31.8C449.3,306.6,443.5,308.8,437.8,308.8z"/>
	</g>
</g>
</svg>
