<?xml version="1.0" encoding="utf-8"?>
<!-- Generator: Adobe Illustrator 24.0.0, SVG Export Plug-In . SVG Version: 6.00 Build 0)  -->
<svg version="1.1" id="Layer_1" xmlns="http://www.w3.org/2000/svg" xmlns:xlink="http://www.w3.org/1999/xlink" x="0px" y="0px"
	 viewBox="0 0 512 512" style="enable-background:new 0 0 512 512;" xml:space="preserve">
<style type="text/css">
	.st0{fill:#B48C69;}
	.st1{fill:#FFDC69;}
	.st2{fill:#FFE68C;}
	.st3{fill:#FFE178;}
	.st4{fill:#FFF0A0;}
	.st5{fill:#A07855;}
</style>
<path class="st0" d="M238.3,494.3c0,9.8,7.9,17.7,17.7,17.7l0,0c9.8,0,17.7-7.9,17.7-17.7v-309h-35.3V494.3z"/>
<g>
	<path class="st1" d="M256,79.4L256,79.4c-9.8,0-17.7,7.9-17.7,17.7v70.6h35.3V97.1C273.7,87.4,265.8,79.4,256,79.4z"/>
	<path class="st1" d="M256,61.8c4.9,0,8.8-4,8.8-8.8V8.8c0-4.9-4-8.8-8.8-8.8s-8.8,4-8.8,8.8V53C247.2,57.8,251.1,61.8,256,61.8z"/>
</g>
<g>
	<path class="st2" d="M344.3,88.3h-44.1c-4.9,0-8.8,4-8.8,8.8s4,8.8,8.8,8.8h44.1c4.9,0,8.8-4,8.8-8.8
		C353.1,92.2,349.2,88.3,344.3,88.3z"/>
	<path class="st2" d="M220.7,97.1c0-4.9-4-8.8-8.8-8.8h-44.1c-4.9,0-8.8,4-8.8,8.8s4,8.8,8.8,8.8h44.1
		C216.7,105.9,220.7,102,220.7,97.1z"/>
</g>
<path class="st3" d="M324.7,40.9c3.4-3.4,3.4-9,0-12.5s-9-3.4-12.5,0L281,59.7c-3.4,3.4-3.4,9,0,12.5s9,3.4,12.5,0L324.7,40.9z"/>
<g>
	<path class="st4" d="M208.2,132.4l-20.9,20.9c-3.4,3.4-3.4,9,0,12.5c3.4,3.4,9,3.4,12.5,0l20.9-20.9c3.4-3.4,3.4-9,0-12.5
		C217.2,129,211.7,129,208.2,132.4z"/>
	<path class="st4" d="M303.8,132.4c-3.4-3.4-9-3.4-12.5,0c-3.4,3.4-3.4,9,0,12.5l20.9,20.9c3.4,3.4,9,3.4,12.5,0l0,0
		c3.4-3.4,3.4-9,0-12.5L303.8,132.4z"/>
</g>
<path class="st3" d="M199.8,28.4c-3.4-3.4-9-3.4-12.5,0c-3.4,3.4-3.4,9,0,12.5l31.2,31.2c3.4,3.4,9,3.4,12.5,0c3.4-3.4,3.4-9,0-12.5
	L199.8,28.4z"/>
<rect x="238.3" y="167.7" class="st5" width="35.3" height="17.7"/>
</svg>
