<?xml version="1.0" encoding="utf-8"?>
<!-- Generator: Adobe Illustrator 24.0.0, SVG Export Plug-In . SVG Version: 6.00 Build 0)  -->
<svg version="1.1" id="Layer_1" xmlns="http://www.w3.org/2000/svg" xmlns:xlink="http://www.w3.org/1999/xlink" x="0px" y="0px"
	 viewBox="0 0 512 512" style="enable-background:new 0 0 512 512;" xml:space="preserve">
<style type="text/css">
	.st0{fill:#B2EBF2;}
	.st1{fill:#90CAF9;}
</style>
<ellipse class="st0" cx="256.7" cy="257.4" rx="249.8" ry="251.7"/>
<g>
	<path class="st1" d="M395.3,145.2c9,31.7-6.2,63.8-34,71.8c-27.7,8-57.5-11.2-66.5-42.9s6.2-63.8,34-71.8
		C356.6,94.2,386.3,113.5,395.3,145.2z"/>
	<path class="st1" d="M466.6,195.3c5.5,19.5,2.1,37.5-7.6,40.3c-9.7,2.8-22-10.7-27.5-30.2c-5.5-19.5-2.1-37.5,7.6-40.3
		C448.8,162.3,461.1,175.9,466.6,195.3z"/>
	<path class="st1" d="M404.1,263.2c3.9,13.8-5.2,28.5-20.4,32.8c-15.2,4.4-30.6-3.3-34.5-17c-3.9-13.8,5.2-28.5,20.4-32.8
		C384.8,241.8,400.2,249.5,404.1,263.2z"/>
	<path class="st1" d="M95.2,128.1c25.9-22.6,58.1-15.4,71.1,0c12.9,15.4,14,50.1,49.5,54.4s35.5,60.8-30.1,105.2
		c-65.7,44.5-57.1-21.7-84-42.8S53.2,164.8,95.2,128.1z"/>
	<path class="st1" d="M229.5,83.1c2.1,6-5.9,14.3-18,18.6c-12,4.3-23.5,3-25.6-3c-2.1-6,5.9-14.3,18-18.6
		C215.9,75.8,227.4,77.1,229.5,83.1z"/>
	<path class="st1" d="M93,369c5.6,11.6,5.7,23.2,0.1,26c-5.6,2.8-14.7-4.3-20.4-15.9c-5.6-11.6-5.7-23.2-0.1-26
		C78.2,350.3,87.3,357.5,93,369z"/>
	<ellipse class="st1" cx="254" cy="44.8" rx="23.1" ry="8.7"/>
	<path class="st1" d="M463.1,307.3c-2.5,8.9-8.7,15-13.9,13.5s-7.4-9.9-4.9-18.9c2.5-8.9,8.7-15,13.9-13.5
		C463.3,289.9,465.5,298.3,463.1,307.3z"/>
	<ellipse class="st1" cx="262.6" cy="258" rx="14.5" ry="13.1"/>
</g>
</svg>
