<?xml version="1.0" encoding="iso-8859-1"?>
<!-- Generator: Adobe Illustrator 19.0.0, SVG Export Plug-In . SVG Version: 6.00 Build 0)  -->
<svg version="1.1" id="Layer_1" xmlns="http://www.w3.org/2000/svg" xmlns:xlink="http://www.w3.org/1999/xlink" x="0px" y="0px"
	 viewBox="0 0 488.369 488.369" style="enable-background:new 0 0 488.369 488.369;" xml:space="preserve">
<path style="fill:#6D4417;" d="M488.369,455.263c0,12.808-10.398,23.213-23.213,23.213H23.954
	c-12.816,0-23.229-10.398-23.229-23.213V238.529c0-12.824,10.413-23.213,23.229-23.213h441.202c12.816,0,23.213,10.39,23.213,23.213
	V455.263z"/>
<path style="fill:#825930;" d="M0,236.237h487.18c-1.158-11.729-10.957-20.929-22.977-20.929H22.993
	C10.957,215.308,1.182,224.508,0,236.237z"/>
<g>
	<circle style="fill:#CE8C4A;" cx="243.594" cy="370.53" r="96.508"/>
	<rect x="228.352" y="215.308" style="fill:#CE8C4A;" width="30.476" height="74.925"/>
</g>
<rect x="228.352" y="215.308" style="fill:#E29E60;" width="30.476" height="20.929"/>
<path style="fill:#518E38;" d="M239.458,366.395c-22.78,22.78-36.36,46.151-51.105,31.405c-14.746-14.753-8.247-45.198,14.549-67.97
	c22.772-22.78,53.232-29.279,67.978-14.533C285.625,330.051,262.223,343.623,239.458,366.395z"/>
<g>
	<path style="fill:#3D7026;" d="M270.88,315.297c14.746,14.753-8.657,28.318-31.413,51.098c-22.78,22.78-36.36,46.151-51.105,31.405
		"/>
	<path style="fill:#3D7026;" d="M247.737,374.682c22.788-22.788,36.344-46.151,51.09-31.405
		c14.746,14.753,8.247,45.182-14.533,67.962c-22.764,22.772-53.224,29.279-67.97,14.533
		C201.586,411.018,224.965,397.446,247.737,374.682z"/>
</g>
<g>
	<path style="fill:#A7C997;" d="M238.679,314.478c3.718,3.726-9.106,11.808-22,24.71c-12.895,12.887-20.968,25.718-24.71,21.992
		c-3.726-3.718,3.742-17.187,16.612-30.074C221.499,318.204,234.945,310.76,238.679,314.478z"/>
	<circle style="fill:#A7C997;" cx="246.65" cy="314.683" r="2.536"/>
</g>
<path style="fill:#518E38;" d="M252.164,222.279c0,4.734-3.836,3.482-8.57,3.482l0,0c-4.734,0-8.57,1.245-8.57-3.482V94.326
	c0-4.734,3.836-8.57,8.57-8.57l0,0c4.734,0,8.57,3.836,8.57,8.57V222.279z"/>
<path style="fill:#366620;" d="M243.594,85.756c-4.734,0-8.57,3.836-8.57,8.57v68.899c0,4.734,3.836,3.489,8.57,3.489
	c4.734,0,8.57,1.245,8.57-3.489V94.326C252.164,89.6,248.32,85.756,243.594,85.756z"/>
<path style="fill:#518E38;" d="M243.515,92.428c0,0,4.285-60.006-54.76-65.725c-59.045-5.711-66.497-16.809-66.497-16.809
	s-9.689,142.06,120.635,101.581L243.515,92.428z"/>
<path style="fill:#65AF43;" d="M243.468,85.725c-0.89-15.762-7.798-54.485-54.713-59.022c-59.045-5.711-66.497-16.809-66.497-16.809
	s-0.079,1.158-0.126,3.174C129.843,34.627,165.636,118.745,243.468,85.725z"/>
<path style="fill:#518E38;" d="M243.673,92.428c0,0-4.277-60.006,54.76-65.725c59.053-5.711,66.521-16.809,66.521-16.809
	s9.673,142.06-120.635,101.581L243.673,92.428z"/>
<path style="fill:#65AF43;" d="M243.736,85.725c0.874-15.762,7.806-54.485,54.689-59.022c59.053-5.711,66.521-16.809,66.521-16.809
	s0.071,1.158,0.134,3.174C357.36,34.627,321.575,118.745,243.736,85.725z"/>
<path style="fill:#518E38;" d="M245.744,117.736c0,1.182-0.953,2.143-2.15,2.143l0,0c-1.166,0-2.135-0.961-2.135-2.143V92.971
	c0-1.182,0.961-2.143,2.135-2.143l0,0c1.197,0,2.15,0.961,2.15,2.143V117.736z"/>
<g>
	<circle style="fill:#825930;" cx="91.057" cy="289.241" r="15.242"/>
	<circle style="fill:#825930;" cx="51.09" cy="267.036" r="5.719"/>
	<circle style="fill:#825930;" cx="158.405" cy="270.218" r="8.885"/>
	<circle style="fill:#825930;" cx="56.178" cy="359.739" r="14.604"/>
	<circle style="fill:#825930;" cx="344.458" cy="264.507" r="6.987"/>
	<path style="fill:#825930;" d="M416.185,324.821c0,3.505-2.851,6.349-6.341,6.349c-3.521,0-6.365-2.844-6.365-6.349
		s2.836-6.357,6.365-6.357C413.334,318.464,416.185,321.315,416.185,324.821z"/>
	<circle style="fill:#825930;" cx="421.274" cy="279.111" r="15.234"/>
	<circle style="fill:#825930;" cx="374.311" cy="301.962" r="6.349"/>
	<circle style="fill:#825930;" cx="458.098" cy="310.847" r="7.617"/>
	<circle style="fill:#825930;" cx="392.665" cy="369.9" r="14.604"/>
	<circle style="fill:#825930;" cx="300" cy="260.695" r="5.719"/>
</g>
<g>
</g>
<g>
</g>
<g>
</g>
<g>
</g>
<g>
</g>
<g>
</g>
<g>
</g>
<g>
</g>
<g>
</g>
<g>
</g>
<g>
</g>
<g>
</g>
<g>
</g>
<g>
</g>
<g>
</g>
</svg>
