<?xml version="1.0" encoding="iso-8859-1"?>
<!-- Generator: Adobe Illustrator 19.0.0, SVG Export Plug-In . SVG Version: 6.00 Build 0)  -->
<svg version="1.1" id="Layer_1" xmlns="http://www.w3.org/2000/svg" xmlns:xlink="http://www.w3.org/1999/xlink" x="0px" y="0px"
	 viewBox="0 0 512 512" style="enable-background:new 0 0 512 512;" xml:space="preserve">
<path style="fill:#FA004B;" d="M215.922,79.868l-11.604-29.011c-7.448-18.62,3.96-40.515,23.881-42.828
	c1.225-0.143,2.471-0.216,3.734-0.216c9.62,0,18.147,4.329,24.018,11.044c5.87-6.715,14.397-11.044,24.018-11.044
	c1.263,0,2.51,0.073,3.734,0.216c19.921,2.314,31.33,24.207,23.881,42.828l-11.602,29.011"/>
<rect x="191.903" y="79.864" style="fill:#36C9A3;" width="128.095" height="24.017"/>
<path style="fill:#FAEDD6;" d="M311.994,103.886v341.922c0,32.241-25.091,58.376-56.041,58.376l0,0
	c-30.951,0-56.041-26.136-56.041-58.376V103.886"/>
<path style="fill:#FA004B;" d="M311.994,264.006c0-18.725-16.07-33.695-35.169-31.874c-16.65,1.588-28.878,16.498-28.878,33.224
	v0.777c0,16.549-13.323,29.896-29.759,29.896h-18.277v152.114c0,30.951,25.091,56.041,56.041,56.041l0,0
	c30.951,0,56.041-25.091,56.041-56.041V264.006z"/>
<rect x="239.937" y="384.098" style="fill:#FFFFFF;" width="72.05" height="64.048"/>
<rect x="265.912" y="408.844" style="fill:#36C9A3;" width="45.845" height="15.629"/>
<g>
	<rect x="280.499" y="287.98" style="fill:#FFFFFF;" width="15.629" height="15.629"/>
	<rect x="265.912" y="265.058" style="fill:#FFFFFF;" width="14.587" height="15.629"/>
	<rect x="247.157" y="295.274" style="fill:#FFFFFF;" width="18.755" height="15.629"/>
	<rect x="201.312" y="383.838" style="fill:#FFFFFF;" width="15.629" height="15.629"/>
	<rect x="222.151" y="408.844" style="fill:#FFFFFF;" width="17.713" height="15.629"/>
	<rect x="201.312" y="441.144" style="fill:#FFFFFF;" width="15.629" height="15.629"/>
	<rect x="280.499" y="472.402" style="fill:#FFFFFF;" width="15.629" height="15.629"/>
	<rect x="239.864" y="472.402" style="fill:#FFFFFF;" width="16.671" height="15.629"/>
	<rect x="223.193" y="128.564" style="fill:#FFFFFF;" width="15.629" height="70.851"/>
	<rect x="223.193" y="216.087" style="fill:#FFFFFF;" width="15.629" height="16.671"/>
</g>
<g>
	<path style="fill:#232323;" d="M307.425,72.304l7.418-18.543c4.608-11.521,3.553-24.788-2.823-35.488
		c-6.029-10.118-16.021-16.681-27.413-18.004C283.078,0.09,281.518,0,279.97,0c-8.706,0-17.128,2.925-24.018,8.2
		C249.063,2.925,240.64,0,231.934,0c-1.547,0-3.108,0.09-4.637,0.268c-11.393,1.323-21.384,7.884-27.413,18.004
		c-6.376,10.701-7.431,23.967-2.822,35.488l7.418,18.543h-12.542v15.629h128.158V72.303h-12.672V72.304z M211.573,47.956
		c-2.812-7.032-2.163-15.138,1.737-21.685c3.569-5.99,9.176-9.711,15.792-10.48c0.933-0.108,1.886-0.164,2.832-0.164
		c6.974,0,13.415,2.974,18.135,8.373l5.883,6.731l5.884-6.731c4.72-5.398,11.161-8.372,18.135-8.372
		c0.946,0,1.898,0.055,2.833,0.164c6.614,0.768,12.221,4.49,15.79,10.48c3.9,6.546,4.549,14.653,1.737,21.684l-9.74,24.348h-69.278
		L211.573,47.956z"/>
	<rect x="191.935" y="96.264" style="fill:#232323;" width="128.158" height="15.629"/>
</g>
<g>
	<rect x="216.941" y="319.238" style="fill:#FFFFFF;" width="14.587" height="15.629"/>
	<rect x="231.528" y="335.909" style="fill:#FFFFFF;" width="15.629" height="15.629"/>
	<rect x="265.912" y="344.245" style="fill:#FFFFFF;" width="14.587" height="15.629"/>
	<rect x="287.793" y="319.238" style="fill:#FFFFFF;" width="17.713" height="15.629"/>
</g>
<path style="fill:#232323;" d="M304.18,119.898v112.576c-6.747-5.193-15.186-8.3-24.342-8.3c-22.04,0-39.971,17.864-39.971,39.831
	v2.265c0,12.176-9.523,21.713-21.68,21.713h-10.463V119.898h-15.629v328.246c0,35.21,28.646,63.856,63.857,63.856
	s63.857-28.646,63.857-63.856V119.898H304.18z M255.952,496.371c-26.592,0-48.228-21.635-48.228-48.227V303.613h10.463
	c20.572,0,37.309-16.752,37.309-37.342v-2.265c0-13.349,10.919-24.202,24.342-24.202s24.342,10.67,24.342,24.216v111.487H231.53
	v81.271h71.859C299.308,479.262,279.597,496.371,255.952,496.371z M247.16,441.149v-50.013h57.02v50.013H247.16z"/>
<g>
</g>
<g>
</g>
<g>
</g>
<g>
</g>
<g>
</g>
<g>
</g>
<g>
</g>
<g>
</g>
<g>
</g>
<g>
</g>
<g>
</g>
<g>
</g>
<g>
</g>
<g>
</g>
<g>
</g>
</svg>
