<?xml version="1.0" encoding="utf-8"?>
<!-- Generator: Adobe Illustrator 24.0.0, SVG Export Plug-In . SVG Version: 6.00 Build 0)  -->
<svg version="1.1" id="Potion" xmlns="http://www.w3.org/2000/svg" xmlns:xlink="http://www.w3.org/1999/xlink" x="0px" y="0px"
	 viewBox="0 0 512 512" style="enable-background:new 0 0 512 512;" xml:space="preserve">
<style type="text/css">
	.st0{fill:#BA8280;}
	.st1{fill:#965C5C;}
	.st2{fill:url(#SVGID_1_);}
	.st3{fill:#FFCCE0;}
	.st4{fill:#DB8DA5;}
	.st5{fill:#FFFFFF;}
</style>
<path class="st0" d="M256,23h-27.7c-4.7,0-8.4,4.2-7.7,8.9l4.9,34.7H256h30.5l4.9-34.7c0.7-4.7-3-8.9-7.7-8.9H256z"/>
<polygon class="st1" points="222.5,44.8 225.5,66.5 256,66.5 286.5,66.5 289.5,44.8 "/>
<linearGradient id="SVGID_1_" gradientUnits="userSpaceOnUse" x1="255.999" y1="36.3389" x2="255.999" y2="525.8296" gradientTransform="matrix(1 0 0 -1 0 512)">
	<stop  offset="1.030000e-02" style="stop-color:#FFCCE0"/>
	<stop  offset="1" style="stop-color:#FFE6FA"/>
</linearGradient>
<path class="st2" d="M328.7,181.6L328.7,181.6C328.8,181.6,328.7,181.5,328.7,181.6c-1.8-0.9-3.6-1.8-5.4-2.6
	c-14.5-6.6-25.8-18.9-29.9-34.3c-0.4-1.7-0.8-3.2-1.1-4.7c-1.1-5.8-1.6-11.7-0.8-17.6c3.1-25,21.6-36.8,21.6-36.8H256h-57.1
	c0,0,18.5,11.8,21.6,36.8c0.7,5.9,0.3,11.8-0.8,17.6c-0.3,1.5-0.6,3.1-1.1,4.7c-4.1,15.4-15.4,27.7-29.9,34.3
	c-1.8,0.8-3.6,1.7-5.4,2.6c0,0-0.1,0-0.1,0l0.1,0C126.7,210,89,270.5,94.1,339.3c6.1,81.6,73.7,146.5,155.5,149.6
	c92.6,3.6,168.7-70.4,168.7-162.2C418.3,263.2,381.9,208.2,328.7,181.6z"/>
<path class="st3" d="M312.9,59H196.4c-7.3,0-13.2,5.9-13.2,13.2l0,0c0,7.3,5.9,13.2,13.2,13.2h116.5c7.3,0,13.2-5.9,13.2-13.2l0,0
	C326.1,65,320.1,59,312.9,59z"/>
<path class="st4" d="M198.9,85.4c0,0,7.6,4.9,13.8,15h86.5c6.3-10.1,13.8-15,13.8-15H256H198.9z"/>
<path class="st5" d="M186,206.2c0,0-35.9,7.8-43.7,52.9c-0.9,4.9,2.5,9.6,7.4,10.5c7.7,1.4,20.1,1.5,34.2-6.3
	c6.3-3.5,11.9-8.2,16.7-13.6c5.9-6.6,13.2-16.5,14.1-26.6c0.9-10-7.4-18.3-17.5-18.3C193.9,204.8,190,205.2,186,206.2z"/>
</svg>
