<?xml version="1.0" encoding="utf-8"?>
<!-- Generator: Adobe Illustrator 24.0.0, SVG Export Plug-In . SVG Version: 6.00 Build 0)  -->
<svg version="1.1" id="Layer_1" xmlns="http://www.w3.org/2000/svg" xmlns:xlink="http://www.w3.org/1999/xlink" x="0px" y="0px"
	 viewBox="0 0 512 512" style="enable-background:new 0 0 512 512;" xml:space="preserve">
<style type="text/css">
	.st0{fill:#9AD14B;}
	.st1{fill:#90BC42;}
	.st2{fill:#F7B239;}
	.st3{fill:#E09B2D;}
	.st4{fill:#EFFF5F;}
</style>
<path class="st0" d="M333.3,88.3l20.3,12.7v0c-0.7,0-1.3,0-2,0c-12.2,0-23.9,48.3-34.8,54.7c-18.1-15.2-38.8-15.1-60.7-15.1
	s-42.6-3.9-60.7,11.3c-11-6.4-22.7-10.7-34.8-10.7c-0.7,0-1.3-40.2-2-40.2v0l20.3-12.7c13.9-8.7,25.1-20.7,32.8-34.6
	c7.7-13.9,11.9-29.8,11.9-46.2h65C288.5,40.3,305.4,70.8,333.3,88.3z"/>
<path class="st1" d="M208.2,128.2c-0.7,0-1.3,0-2,0v0l20.3-12.7c13.9-8.7,20.7-91.6,20.7-108.1h-23.7c0,16.4-4.2,32.3-11.9,46.2
	c-7.7,13.9-18.9,25.9-32.8,34.6L158.4,101v0c0.7,0,1.3,0,2,0c12.2,0,23.9,30.7,34.8,37.1c4.4-3.7,8.9-7,13.6-9.8
	C208.6,128.2,208.4,128.2,208.2,128.2z"/>
<path class="st2" d="M412.5,119.7c-4.1,0-8.1,0.4-12,1.3c-14.2-12.3-30.1-19.4-46.9-20c-0.7,0-1.3,0-2,0c-12.2,0-23.9,3.5-34.8,9.9
	C298.6,95.7,277.9,87,256,87s-42.6,8.6-60.7,23.8c-5.3-3.1-10.8-5.5-16.4-7.2c-6-1.8-12.1-2.7-18.4-2.7c-0.7,0-1.3,0-2,0
	c-16.8,0.5-32.7,7.6-46.9,20c-3.9-0.8-7.9-1.3-12-1.3c-55,0-99.5,78.8-99.5,176.1s44.6,176.1,99.5,176.1c4.1,0,8.1-0.4,12-1.3
	c14.7,12.8,31.3,20,48.9,20c12.2,0,23.9-3.5,34.8-9.9c18.1,15.2,38.8,23.8,60.7,23.8s42.6-8.6,60.7-23.8c11,6.4,22.7,9.9,34.8,9.9
	c17.5,0,34.1-7.2,48.9-20c3.9,0.8,7.9,1.3,12,1.3c55,0,99.5-78.8,99.5-176.1S467.4,119.7,412.5,119.7z"/>
<path class="st3" d="M397.3,337.5c-20.9,29.2-47.5,51.9-77.5,65.4v-22.6h-31.4v33c-10.5,2.3-21.3,3.5-32.4,3.5
	c-28,0-54.7-7.6-78.6-21.4c-24-13.7-45.3-33.5-62.7-57.9c4.4,1,8.8,2,13.2,2.9c25.6,5.4,51.5,9.1,77.5,11.2v31.2h34v-29.4
	c48.5,1.3,97-3,144.8-13C388.5,339.5,392.9,338.6,397.3,337.5z"/>
<g>
	<path class="st4" d="M384.1,340.5c-18.5,21.2-40.3,37.9-64.3,48.6v-22.6h-31.4v33c-10.5,2.3-21.3,3.5-32.4,3.5
		c-28,0-54.7-7.6-78.6-21.4c-18.2-10.4-34.9-24.4-49.5-41.1c25.6,5.4,51.5,9.1,77.5,11.2v31.2h34v-29.4
		C287.8,354.7,336.4,350.4,384.1,340.5z"/>
	<polygon class="st4" points="256,262 288.7,318.6 223.3,318.6 	"/>
</g>
<g>
	<polygon class="st3" points="374.5,210.2 403.4,291.3 290.9,268.3 	"/>
	<polygon class="st3" points="221.1,268.3 204.4,271.7 119.4,289.1 108.6,291.3 137.5,210.2 	"/>
</g>
<g>
	<polygon class="st4" points="204.4,271.7 119.4,289.1 141.3,227.8 	"/>
	<polygon class="st4" points="307.2,271.7 392.2,289.1 370.3,227.8 	"/>
</g>
<g>
	<path class="st3" d="M78.7,295.8c0-138,90.7-188.6,101.1-191.8c-6.3-2-12.7-3-19.3-3c-0.7,0-1.3,0-2,0c-16.8,0.5-32.7,7.6-46.9,20
		c-3.9-0.8-7.9-1.3-12-1.3c-55,0-99.5,78.8-99.5,176.1s44.6,176.1,99.5,176.1c4.1,0,8.1-0.4,12-1.3c14.7,12.8,31.3,20,48.9,20
		c6.6,0,13-1,19.3-3C169.3,484.4,78.7,441.2,78.7,295.8z"/>
	<path class="st3" d="M195.3,110.9c0,0-37.4,28.5-37.4,56.2c0,0-3.3-33.3,21-63.3C184.5,105.4,189.9,107.8,195.3,110.9z"/>
	<path class="st3" d="M195.3,480.8c0,0-37.4-28.5-37.4-56.2c0,0-3.3,33.3,21,63.3C184.5,486.3,189.9,483.9,195.3,480.8z"/>
	<path class="st3" d="M412.5,119.7c-3.6,0-7.2,0.4-10.7,1c49.9,9.5,88.8,84.2,88.8,175.1s-38.9,165.6-88.8,175.1
		c3.5,0.7,7.1,1,10.7,1c55,0,99.5-78.8,99.5-176.1S467.4,119.7,412.5,119.7z"/>
</g>
</svg>
