<?xml version="1.0" encoding="utf-8"?>
<!-- Generator: Adobe Illustrator 24.0.0, SVG Export Plug-In . SVG Version: 6.00 Build 0)  -->
<svg version="1.1" xmlns="http://www.w3.org/2000/svg" xmlns:xlink="http://www.w3.org/1999/xlink" x="0px" y="0px"
	 viewBox="0 0 2000 2000" style="enable-background:new 0 0 2000 2000;" xml:space="preserve">
<style type="text/css">
	.st0{fill:#F95428;}
	.st1{fill:#E6E6E6;}
	.st2{fill:#F2F2F2;}
	.st3{fill:#CCCCCC;}
	.st4{fill:#E54728;}
	.st5{fill:#F7B239;}
	.st6{fill:#E09B2D;}
</style>
<g id="Layer_1">
	<g>
		<path class="st0" d="M1814.8,1730.4v202.4c0,37.1-30.1,67.2-67.2,67.2s-67.2-30.1-67.2-67.2v-202.4H1814.8z"/>
		<path class="st0" d="M314.8,1730.4v202.4c0,37.1-30.1,67.2-67.2,67.2c-37.1,0-67.2-30.1-67.2-67.2v-202.4H314.8z"/>
	</g>
	<polygon class="st1" points="1729.1,469.4 1729.1,1530.7 1656,1530.7 339.1,1530.7 266,1530.7 266,469.4 339.1,469.4 1656,469.4 	
		"/>
	<g>
		<rect x="1563.6" y="435.2" class="st2" width="367.9" height="1129.6"/>
		<rect x="63.6" y="435.2" class="st2" width="367.9" height="1129.6"/>
	</g>
	<rect x="63.6" y="469.4" class="st1" width="116" height="1061.3"/>
	<polygon class="st3" points="1585.6,469.4 1585.6,1530.7 1580.9,1530.7 1496,1530.7 1491.3,1530.7 1491.3,469.4 1496,469.4 
		1580.9,469.4 	"/>
	<rect x="1563.6" y="469.4" class="st1" width="116" height="1061.3"/>
	<g>
		<path class="st0" d="M314.8,67.2v202.4H180.4V67.2c0-37.1,30.1-67.2,67.2-67.2C284.7,0,314.8,30.1,314.8,67.2z"/>
	</g>
	<path class="st4" d="M266.4,2.7C260.4,1,254.1,0,247.5,0c-37.1,0-67.2,30.1-67.2,67.2v202.4h37.7V67.2
		C218.1,36.7,238.5,10.9,266.4,2.7z"/>
	<path class="st0" d="M1814.8,67.2v202.4h-134.4V67.2c0-37.1,30.1-67.2,67.2-67.2S1814.8,30.1,1814.8,67.2z"/>
	<g>
		<path class="st4" d="M1766.4,2.7c-6-1.8-12.3-2.7-18.9-2.7c-37.1,0-67.2,30.1-67.2,67.2v202.4h37.7V67.2
			C1718.1,36.7,1738.5,10.9,1766.4,2.7z"/>
		<path class="st4" d="M266.4,1997.3c-6,1.8-12.3,2.7-18.9,2.7c-37.1,0-67.2-30.1-67.2-67.2v-202.4h37.7v202.4
			C218.1,1963.3,238.5,1989.1,266.4,1997.3z"/>
		<path class="st4" d="M1766.4,1997.3c-6,1.8-12.3,2.7-18.9,2.7c-37.1,0-67.2-30.1-67.2-67.2v-202.4h37.7v202.4
			C1718.1,1963.3,1738.5,1989.1,1766.4,1997.3z"/>
	</g>
	<g>
		<polygon class="st5" points="1988.2,264.9 1988.2,469.4 1931.5,469.4 1563.6,469.4 1507,469.4 1507,264.9 1680.4,264.9 
			1814.8,264.9 		"/>
		<polygon class="st5" points="488.1,264.9 488.1,469.4 431.5,469.4 63.6,469.4 7,469.4 7,264.9 180.4,264.9 314.8,264.9 		"/>
	</g>
	<g>
		<polygon class="st6" points="90.3,264.9 90.3,469.4 80.5,469.4 16.8,469.4 7,469.4 7,264.9 37,264.9 60.3,264.9 		"/>
		<polygon class="st6" points="1612.3,264.9 1612.3,469.4 1599.9,469.4 1519.4,469.4 1507,469.4 1507,264.9 1544.9,264.9 
			1574.4,264.9 		"/>
	</g>
	<g>
		<polygon class="st5" points="488.1,1530.7 488.1,1735.1 314.8,1735.1 180.4,1735.1 7,1735.1 7,1530.7 63.6,1530.7 431.5,1530.7 		
			"/>
		<polygon class="st5" points="1988.2,1530.7 1988.2,1735.1 1814.8,1735.1 1680.4,1735.1 1507,1735.1 1507,1530.7 1563.6,1530.7 
			1931.5,1530.7 		"/>
	</g>
	<g>
		<polygon class="st6" points="90.3,1530.7 90.3,1735.1 60.3,1735.1 37,1735.1 7,1735.1 7,1530.7 16.8,1530.7 80.5,1530.7 		"/>
		<polygon class="st6" points="1612.3,1530.7 1612.3,1735.1 1574.4,1735.1 1544.9,1735.1 1507,1735.1 1507,1530.7 1519.4,1530.7 
			1599.9,1530.7 		"/>
	</g>
</g>
<g id="Layer_2">
</g>
<g id="Layer_3">
</g>
<g id="Layer_4">
</g>
</svg>
