<?xml version="1.0" encoding="utf-8"?>
<!-- Generator: Adobe Illustrator 24.0.0, SVG Export Plug-In . SVG Version: 6.00 Build 0)  -->
<svg version="1.1" xmlns="http://www.w3.org/2000/svg" xmlns:xlink="http://www.w3.org/1999/xlink" x="0px" y="0px"
	 viewBox="0 0 2000 2000" style="enable-background:new 0 0 2000 2000;" xml:space="preserve">
<style type="text/css">
	.st0{fill:#F95428;}
	.st1{fill:#E6E6E6;}
	.st2{fill:#F2F2F2;}
	.st3{fill:#CCCCCC;}
	.st4{fill:#E54728;}
	.st5{fill:#F7B239;}
	.st6{fill:#E09B2D;}
	.st7{font-family:'BlackadderITC-Regular';}
	.st8{font-size:117.1875px;}
	.st9{font-size:96px;}
</style>
<g id="Layer_1">
	<g>
		<path class="st0" d="M1814.8,1730.4v202.4c0,37.1-30.1,67.2-67.2,67.2s-67.2-30.1-67.2-67.2v-202.4H1814.8z"/>
		<path class="st0" d="M314.8,1730.4v202.4c0,37.1-30.1,67.2-67.2,67.2c-37.1,0-67.2-30.1-67.2-67.2v-202.4H314.8z"/>
	</g>
	<polygon class="st1" points="1729.1,469.4 1729.1,1530.7 1656,1530.7 339.1,1530.7 266,1530.7 266,469.4 339.1,469.4 1656,469.4 	
		"/>
	<g>
		<rect x="1563.6" y="435.2" class="st2" width="367.9" height="1129.6"/>
		<rect x="63.6" y="435.2" class="st2" width="367.9" height="1129.6"/>
	</g>
	<rect x="63.6" y="469.4" class="st1" width="116" height="1061.3"/>
	<polygon class="st3" points="1585.6,469.4 1585.6,1530.7 1580.9,1530.7 1496,1530.7 1491.3,1530.7 1491.3,469.4 1496,469.4 
		1580.9,469.4 	"/>
	<rect x="1563.6" y="469.4" class="st1" width="116" height="1061.3"/>
	<g>
		<path class="st0" d="M314.8,67.2v202.4H180.4V67.2c0-37.1,30.1-67.2,67.2-67.2C284.7,0,314.8,30.1,314.8,67.2z"/>
	</g>
	<path class="st4" d="M266.4,2.7C260.4,1,254.1,0,247.5,0c-37.1,0-67.2,30.1-67.2,67.2v202.4h37.7V67.2
		C218.1,36.7,238.5,10.9,266.4,2.7z"/>
	<path class="st0" d="M1814.8,67.2v202.4h-134.4V67.2c0-37.1,30.1-67.2,67.2-67.2S1814.8,30.1,1814.8,67.2z"/>
	<g>
		<path class="st4" d="M1766.4,2.7c-6-1.8-12.3-2.7-18.9-2.7c-37.1,0-67.2,30.1-67.2,67.2v202.4h37.7V67.2
			C1718.1,36.7,1738.5,10.9,1766.4,2.7z"/>
		<path class="st4" d="M266.4,1997.3c-6,1.8-12.3,2.7-18.9,2.7c-37.1,0-67.2-30.1-67.2-67.2v-202.4h37.7v202.4
			C218.1,1963.3,238.5,1989.1,266.4,1997.3z"/>
		<path class="st4" d="M1766.4,1997.3c-6,1.8-12.3,2.7-18.9,2.7c-37.1,0-67.2-30.1-67.2-67.2v-202.4h37.7v202.4
			C1718.1,1963.3,1738.5,1989.1,1766.4,1997.3z"/>
	</g>
	<g>
		<polygon class="st5" points="1988.2,264.9 1988.2,469.4 1931.5,469.4 1563.6,469.4 1507,469.4 1507,264.9 1680.4,264.9 
			1814.8,264.9 		"/>
		<polygon class="st5" points="488.1,264.9 488.1,469.4 431.5,469.4 63.6,469.4 7,469.4 7,264.9 180.4,264.9 314.8,264.9 		"/>
	</g>
	<g>
		<polygon class="st6" points="90.3,264.9 90.3,469.4 80.5,469.4 16.8,469.4 7,469.4 7,264.9 37,264.9 60.3,264.9 		"/>
		<polygon class="st6" points="1612.3,264.9 1612.3,469.4 1599.9,469.4 1519.4,469.4 1507,469.4 1507,264.9 1544.9,264.9 
			1574.4,264.9 		"/>
	</g>
	<g>
		<polygon class="st5" points="488.1,1530.7 488.1,1735.1 314.8,1735.1 180.4,1735.1 7,1735.1 7,1530.7 63.6,1530.7 431.5,1530.7 		
			"/>
		<polygon class="st5" points="1988.2,1530.7 1988.2,1735.1 1814.8,1735.1 1680.4,1735.1 1507,1735.1 1507,1530.7 1563.6,1530.7 
			1931.5,1530.7 		"/>
	</g>
	<g>
		<polygon class="st6" points="90.3,1530.7 90.3,1735.1 60.3,1735.1 37,1735.1 7,1735.1 7,1530.7 16.8,1530.7 80.5,1530.7 		"/>
		<polygon class="st6" points="1612.3,1530.7 1612.3,1735.1 1574.4,1735.1 1544.9,1735.1 1507,1735.1 1507,1530.7 1519.4,1530.7 
			1599.9,1530.7 		"/>
	</g>
</g>
<g id="Layer_2">
	<text transform="matrix(1 0 0 1 853.1992 586.6543)" class="st7 st8">Recipe</text>
</g>
<g id="Layer_3">
	<text transform="matrix(1 0 0 1 497.9023 716.8506)"><tspan x="0" y="0" class="st7 st9">1. two tulip onions</tspan><tspan x="0" y="115.2" class="st7 st9">2. blue crystal</tspan><tspan x="0" y="230.4" class="st7 st9">3. moon grass</tspan><tspan x="0" y="345.6" class="st7 st9">4. unicorn’s horn pollen</tspan><tspan x="0" y="460.8" class="st7 st9">5. star’s dust</tspan><tspan x="0" y="576" class="st7 st9">6. pink water</tspan><tspan x="0" y="691.2" class="st7 st9">7. an acorn </tspan></text>
</g>
<g id="Layer_4">
	<g transform="translate(0.000000,1207.000000) scale(0.100000,-0.100000)">
		<path d="M12493.6-684.9c-43.4-6.7-92.6-39.3-119.5-79.4c-16.8-25.1-23.1-45.2-23-73.7c0-19.2,0.5-22.3,8.5-53.3
			c10.4-39.9,22.8-78.7,53.3-165.1c31.6-89.8,38.6-114.6,38.8-137.7c0.2-15.8-2.3-23.6-9.5-30c-10.6-9.3-26.4-10.1-57.1-3.1
			c-12.7,2.9-15.5,4.2-20.5,9.5c-16.3,17-20.2,72.5-9.6,136.8c5.2,31.3,4.1,41.4-5.5,52c-7.8,8.8-15,10.9-35.2,10.8
			c-15.3-0.2-21.4-1-33.1-4.6c-31.3-9.5-60.8-26.4-81.2-46.6c-16-15.8-21.7-26.4-21.8-40.8c0-20.5,9.8-32.8,48.1-60.1
			c46.5-33.3,52.5-43.2,41.1-67.5c-6.2-13.5-17.8-25.9-28.7-31.3c-9.3-4.6-36.2-9-54.8-9c-17.4,0-34.1,5.7-51.7,17.6
			c-34.7,23.6-65,59.8-129.3,155.2c-68.3,101.2-82.6,117.4-122.1,137.1c-17.4,8.6-39.9,15.6-62.9,19.6c-16.5,2.9-24.1,3.3-48.1,2.6
			c-41.7-1.3-66.3-7.8-89-23.8c-25.8-18.1-33.3-42.9-22.8-74.3c24.9-74,119-151.1,245.5-201.3c21.7-8.6,35.9-13.4,104.5-34.9
			c76.8-24,93.4-51.7,55.6-92.4c-12.6-13.5-52.6-46.9-66.3-55.1c-23.6-14.3-59.8-22.5-70.1-15.8c-3.3,2.1-4.1,3.9-4.1,9.6
			c0,25.6-18.6,44.2-48.2,48.2c-20.2,2.9-40.3-2.8-54-15.2c-9.1-8.2-17-23.5-17.9-35c-1.8-19.2,6-26.6,40.1-37.8
			c39.9-13.2,49.7-21.2,54-44.3c2-9.6,0-28-4.2-40.8c-4.6-13.7-16.8-17.9-37.8-13.5c-23.8,5.1-58.4,21.7-94.1,45.2
			c-48.6,31.8-79.5,57.4-131.2,108.2c-41.1,40.4-49.1,46.5-71.4,54c-69.9,23.5-149.5-33.9-174.1-125.7c-5.2-19.9-7.2-58.8-4.1-80.8
			c14-94.9,89-157,212.9-176.2c18.3-2.8,30.3-3.6,60.3-3.6c50.7-0.2,71.6,3.4,118.2,19.9c34.7,12.4,50.2,15.6,75,15.6
			c25.6,0.2,31.6-1.3,41.7-10.8c11.7-10.8,16.8-28,17.1-58.2c0.3-30.2-3.9-33.4-133.3-99.1c-37.8-19.1-74.5-37-81.5-39.6
			c-32.6-11.9-71.1-17.6-140.7-21.2c-80.7-4.2-122.7-17.8-152.1-48.7c-19.7-21-28-47.8-24.1-78.2c4.1-32.9,21.8-72.7,45.3-102
			c46-57.4,98.9-76.1,158.9-56.2c25.3,8.5,54,25.4,85.3,50.4c21.2,17,99.6,89.2,145.1,133.8c42.2,41.4,47.1,45,67.3,49.1
			c6.8,1.3,17.8,1.6,31.8,1c36.2-1.5,57.9-10.8,81.8-34.6c19.9-19.9,29.5-38.5,34.4-66.2c3.3-18.4,2.1-40.8-2.3-50.9
			c-7.5-16.6-29.3-41.7-92.4-105.5c-75.6-76.4-90-92.4-109-120.3c-21-31-31.9-60.8-31.9-87.7c0-11.7,5.4-31.5,12.2-44.5
			c21.4-40.8,84.1-83.6,134.8-92.4c66.7-11.4,113.1,37.2,135.5,142c8.3,38.3,11.4,65,15,125.8c3.4,58.8,7.2,78.7,19.9,104.8
			c4.2,8.6,9.5,15.6,17.6,23.8c17.9,18.1,36.5,25.1,66.8,25.1c23.3,0,42.2-3.4,83.9-15.5c20.2-5.7,50.5-13.9,67.5-17.9
			c17-4.1,33.1-8.5,36-9.6c10.8-4.6,16.5-25.9,12.2-47.1c-1-5.5-11.7-39.8-23.6-76.1c-29.8-91-36.7-119-40.3-167.2
			c-1.8-23.8-1.6-27.7,1-39.9c11.2-52.7,43.7-89.7,86.1-98.3c15.5-3.3,22.2-3.3,37.5-0.3c26.7,5.2,46,16,69.1,39.1
			c25.3,25.3,44,56.7,51.5,86.1c2.8,10.9,3.1,16.6,2.6,31.3c-1.1,24.1-5.1,35.7-29.5,84.9c-10.6,21.5-23.8,49.7-29.2,62.8
			c-5.4,13-16.3,37.8-24.5,55.1c-16,34.6-17.3,40.1-11.2,49.9c7,11.2,18.9,18.6,47.9,29.3c36.2,13.5,78.6,21.2,111,20.2
			c18.7-0.5,22.5-1.1,30.6-4.9c13.4-6.2,14.8-9.1,16.3-34.6c3.6-63.1,26.7-89.3,94.5-106.8c51.5-13.4,79.1-9.3,102,15.2
			c16.1,17.1,23.1,36.8,24.3,69.4c1.5,38.8-5.4,64.1-21.7,80.8c-12.1,12.2-21.2,17.9-56.2,34.2c-35.5,16.6-42.5,20.7-53.1,30.5
			c-17.6,16.3-18.9,34.2-3.4,47.4c24.3,20.9,89.8,37,160.6,39.6l28,1l11.1-5.4c8.6-4.2,15.2-9.5,29.8-24.3
			c24-24,31.8-34.6,99.3-132.4c23.6-34.4,34.1-46.1,47.9-54.4c72.2-42.2,208.5-19.6,266.8,44.3c19.4,21.4,26.1,36.7,26.1,60.6
			c0,86.7-128.4,211.7-239.1,232.6c-23.1,4.4-46.3,3.4-69.8-2.8c-81.7-21.4-140.2,7.8-201.1,100.4l-11.9,17.9l0.7,12.2
			c0.7,15.6,6.2,27.4,19.6,41.7c11.6,12.4,24.3,19.2,35.4,19.2c5.9,0,9.8-1.3,17.3-6c38.3-23.5,96.8-19.9,127.6,7.8
			c19.2,17.3,28.4,41.7,24,63.7c-3.7,17.6-12.4,33.6-25.9,47.1c-19.2,19.6-41.9,29.7-69.4,31.3c-28.4,1.6-47.6-6.5-60.5-25.9
			c-11.7-17.9-19.1-21.2-32.1-14.5c-18.6,9.5-47.6,53.3-52.3,79.1c-2.4,13-2.3,19.7,0.7,31.1c7.7,29.5,36,55.7,93.6,86.4
			c30.6,16.5,41.4,20.4,54.9,20.4c5.9,0,14-0.8,18.3-1.8c11.9-2.9,34.6-14,61.5-30.3c29.5-17.9,50.4-28.4,67-34.1
			c52.3-17.6,102.9-8.8,161.2,27.9c64.4,40.4,97.5,84.4,97.6,129.6c0.2,24.5-7.8,45.6-24.9,67.3c-35,44-105.5,76.4-167.2,76.8
			c-38.8,0.2-78.7-15.5-133.5-52c-38.5-25.6-58.2-41.1-138.1-108.7c-57.5-48.7-83-68.5-99.6-76.9c-17.3-9-27.5-7.5-40.3,5.5
			c-17.9,18.4-29.7,53.3-30.2,88.8c-0.3,28.2,6.2,43.8,19.9,48.2c13.2,4.2,60.3,24.8,85.9,37.7c56.2,28.2,67.8,49.7,50,93.9
			c-3.7,9.1-10.1,22-14.3,28.5c-28.2,43.7-79.1,62.8-117.2,44.2c-10.1-5.1-24.8-19.4-30-29.5c-5.9-11.6-9.9-29.8-10.8-48.2
			c-1-20.2-2.3-23.5-13.4-33.9c-21.8-20.5-64.5-35-108.2-36.8c-35.5-1.5-54.1,3.6-73,20.2c-23.1,20.2-44.3,60.6-51.5,98.8
			c-3.1,16.3-3.1,43.4-0.2,54.9c1.3,4.9,9.6,29.5,18.6,54.6c27.4,76.8,35,110.2,35,151.6c0,27.5-2.6,43.2-10.6,62.3
			c-13.2,32.1-34.9,53.1-62.9,61.5C12529.7-684.1,12506.9-683,12493.6-684.9z"/>
	</g>
</g>
</svg>
