<?xml version="1.0" encoding="utf-8"?>
<!-- Generator: Adobe Illustrator 24.0.0, SVG Export Plug-In . SVG Version: 6.00 Build 0)  -->
<svg version="1.1" xmlns="http://www.w3.org/2000/svg" xmlns:xlink="http://www.w3.org/1999/xlink" x="0px" y="0px"
	 viewBox="0 0 512 1121.1" style="enable-background:new 0 0 512 1121.1;" xml:space="preserve">
<style type="text/css">
	.st0{fill:#FFFFFF;stroke:#3E3D42;stroke-width:15;stroke-miterlimit:10;}
	.st1{fill:none;stroke:#3E3D42;stroke-width:35;stroke-miterlimit:10;}
	.st2{fill:#3E3D42;}
	.st3{fill:#5C5C5C;}
	.st4{fill:#787680;}
	.st5{fill:#57565C;}
	.st6{fill:#ED539D;}
	.st7{fill:#EA348B;}
</style>
<g id="Layer_2">
	<path class="st0" d="M256.2,705.6"/>
</g>
<g id="Layer_1">
	<g id="Layer_2_1_">
		<line class="st1" x1="256.2" y1="0" x2="256" y2="732.1"/>
	</g>
	<g id="Layer_1_1_">
		<g>
			<path class="st2" d="M94.7,1121c-9.2,0-16.7-7.5-16.7-16.7v-61.5c0-6.3,3.6-12.1,9.2-14.9l79-39.4c8.2-4.1,18.3-0.8,22.4,7.5
				c4.1,8.2,0.8,18.3-7.5,22.4l-69.8,34.8v51.1C111.4,1113.5,103.9,1121,94.7,1121z"/>
			<path class="st2" d="M16.7,1020.6c-2.7,0-5.4-0.7-8-2c-8.1-4.4-11.1-14.6-6.6-22.6l39.5-72.3c3.2-5.9,9.6-9.3,16.3-8.6l84.5,8.5
				c9.2,0.9,15.9,9.1,14.9,18.3c-0.9,9.2-9.1,15.9-18.3,14.9l-73.5-7.4L31.3,1012C28.3,1017.5,22.6,1020.6,16.7,1020.6z"/>
			<path class="st2" d="M16.7,903.8c-2.7,0-5.4-0.7-8-2c-8.1-4.4-11.1-14.6-6.6-22.6l39.5-72.3c2.2-4,5.9-6.9,10.3-8.1
				c4.4-1.2,9.1-0.5,13,1.8l93.7,56.5c7.9,4.8,10.4,15,5.7,22.9c-4.8,7.9-15,10.4-22.9,5.7l-78.8-47.5l-31.2,57
				C28.3,900.7,22.6,903.8,16.7,903.8z"/>
			<path class="st2" d="M195,837.5c-4.3,0-8.6-1.6-11.8-4.9l-105.5-106c-6.5-6.5-6.5-17,0-23.5l88.4-89c6.5-6.5,17.1-6.6,23.6-0.1
				s6.6,17.1,0.1,23.6l-76.7,77.2l93.8,94.3c6.5,6.5,6.5,17.1-0.1,23.6C203.6,835.9,199.3,837.5,195,837.5z"/>
			<path class="st2" d="M417.2,1121c-9.2,0-16.7-7.5-16.7-16.7v-51.1l-69.8-34.8c-8.2-4.1-11.6-14.1-7.5-22.4
				c4.1-8.2,14.1-11.6,22.4-7.5l79,39.4c5.7,2.8,9.2,8.6,9.2,14.9v61.5C433.9,1113.5,426.5,1121,417.2,1121z"/>
			<path class="st2" d="M495.3,1020.6c-5.9,0-11.6-3.1-14.7-8.7l-34.2-62.6l-73.5,7.4c-9.2,0.9-17.3-5.8-18.3-14.9
				c-0.9-9.2,5.8-17.3,14.9-18.3L454,915c6.7-0.7,13.1,2.7,16.3,8.6l39.5,72.3c4.4,8.1,1.4,18.2-6.6,22.6
				C500.8,1020,498,1020.6,495.3,1020.6z"/>
			<path class="st2" d="M495.3,903.8c-5.9,0-11.6-3.1-14.7-8.7l-31.2-57l-78.8,47.5c-7.9,4.8-18.1,2.2-22.9-5.7s-2.2-18.1,5.7-22.9
				l93.7-56.5c3.9-2.3,8.6-3,13-1.8s8.1,4.1,10.3,8.1l39.5,72.3c4.4,8.1,1.4,18.2-6.6,22.6C500.8,903.2,498,903.8,495.3,903.8z"/>
			<path class="st2" d="M317,837.5c-4.3,0-8.5-1.6-11.8-4.9c-6.5-6.5-6.6-17.1-0.1-23.6l93.8-94.3l-76.7-77.2
				c-6.5-6.5-6.5-17.1,0.1-23.6c6.5-6.5,17.1-6.5,23.6,0.1l88.4,89c6.5,6.5,6.5,17,0,23.5l-105.5,106
				C325.5,835.9,321.2,837.5,317,837.5z"/>
		</g>
		<path class="st3" d="M256.2,688.1c-36.9,0-66.7,29.9-66.7,66.7c0,36.9,29.9,66.7,66.7,66.7s66.7-29.9,66.7-66.7
			S293.1,688.1,256.2,688.1z"/>
		<path class="st2" d="M256.2,688.1v133.5c36.9,0,66.7-29.9,66.7-66.7S293.1,688.1,256.2,688.1z"/>
		<path class="st4" d="M256.2,788.2c-73.7,0-133.5,59.8-133.5,133.5s59.8,133.5,133.5,133.5s133.5-59.7,133.5-133.5
			S329.9,788.2,256.2,788.2z"/>
		<path class="st5" d="M256.2,788.2v266.9c73.7,0,133.5-59.8,133.5-133.5S329.9,788.2,256.2,788.2z"/>
		<path class="st6" d="M255.8,987.2c-17.8,0-34.6-6.9-47.2-19.5c-6.5-6.5-6.5-17.1,0-23.6s17.1-6.5,23.6,0
			c6.3,6.3,14.7,9.8,23.6,9.8c8.9,0,17.3-3.5,23.6-9.7c6.5-6.5,17.1-6.5,23.6,0s6.5,17.1,0,23.6
			C290.4,980.3,273.6,987.2,255.8,987.2z"/>
		<path class="st7" d="M279.4,944.1c-6.2,6.2-14.4,9.6-23.2,9.7v33.4c17.7-0.1,34.3-7,46.8-19.5c6.5-6.5,6.5-17.1,0-23.6
			C296.5,937.6,285.9,937.6,279.4,944.1z"/>
	</g>
</g>
</svg>
