<?xml version="1.0" encoding="utf-8"?>
<!-- Generator: Adobe Illustrator 24.0.0, SVG Export Plug-In . SVG Version: 6.00 Build 0)  -->
<svg version="1.1" id="Layer_1" xmlns="http://www.w3.org/2000/svg" xmlns:xlink="http://www.w3.org/1999/xlink" x="0px" y="0px"
	 viewBox="0 0 1000 1000" style="enable-background:new 0 0 1000 1000;" xml:space="preserve">
<style type="text/css">
	.st0{fill:#3E3D42;}
</style>
<g id="Layer_1_1_">
	<g>
		<g>
			<path class="st0" d="M843.9,130.3L784.2,190c-101.1-5.1-197.1-45.1-271.9-112.9l0.1-75.2c0.1-8.7-7.1-16-15.8-15.8
				c-8.7-0.1-16,7.1-15.8,15.8L480.6,77c-75.3,67.8-171.3,107.5-272.4,112.5l-22.8-22.8c-6.1-6.3-16.2-6.1-22.4,0
				c-6.1,6.1-6.1,16.2,0,22.4l22.8,22.8c-5.1,101-45.1,197-112.8,271.9H29.1c-8.7-0.1-16,7.1-15.8,15.8c-0.1,8.7,7.1,16,15.8,15.8
				l43.9,0.1c67.8,75.1,107.5,171.1,112.5,272.3l-59.7,59.5c-6.3,6.1-6.1,16.2,0,22.4c6.1,6.3,16.2,6.1,22.4,0l59.7-59.6
				C309,815.2,405,855.2,479.8,923l-0.1,75.2c-0.1,8.7,7.1,16,15.8,15.8c6.6,0.1,12.3-4.1,14.7-9.7c0.8-1.9,1.3-3.9,1.3-6l0.1-75.2
				c75.1-67.8,171.1-107.5,272.3-112.5l22.8,22.8c6.1,6.3,16.2,6.1,22.4,0c1.5-1.5,2.6-3.3,3.4-5.1c2.4-5.6,1.3-12.6-3.4-17.3
				l-22.8-22.8c5.1-101.1,45.1-197.1,112.9-271.9l43.9,0.1c6.6,0.1,12.3-4.1,14.7-9.7c0.8-1.9,1.3-3.9,1.3-6
				c0.1-8.7-7.1-16-15.8-15.8l-43.9-0.1c-67.8-75.1-107.5-171.1-112.5-272.3l59.7-59.6c1.5-1.5,2.6-3.3,3.4-5.1
				c2.4-5.6,1.3-12.6-3.4-17.3C860.1,124.3,850,124.2,843.9,130.3z M237.8,219c88.9-9.6,173-44.5,242.7-100.2l-0.1,78.3
				c-57.2,37.7-120.3,63.7-187.3,77.4L237.8,219z M672.7,301.3l-51.6,51.4c-37.7-11.6-74.4-26.8-109.1-45.4l0.2-72.9
				C562,265.1,615.8,287.6,672.7,301.3z M319.1,698.7l51.5-51.6c37.7,11.6,74.4,26.8,109.1,45.4l-0.2,72.9
				C429.8,734.9,376,712.6,319.1,698.7z M595.8,377.8l-84.1,83.8l0.1-118.8C539,356.6,567,368.3,595.8,377.8z M480.3,343l-0.1,118.8
				l-83.8-84.2C425,368.1,453.1,356.4,480.3,343z M371,352.6L319.5,301c56.9-13.8,110.8-35.9,160.8-66.3l-0.2,72.9
				C445.4,325.8,408.7,340.9,371,352.6z M338.9,484c6.8-13.6,13-27.5,18.8-41.3s11.1-28.2,15.9-42.7l84,84.1L338.9,484z M652.9,516
				c-6.8,13.6-13,27.5-18.8,41.3c-5.8,14-11.1,28.2-15.9,42.7l-84-84.1L652.9,516z M348.6,374.8c-5.9,18.9-12.6,37.5-20,55.6
				c-7.6,18.1-16,36.1-25.2,53.4l-72.7-0.2c30.3-49.6,53-104.2,66.7-160.7L348.6,374.8z M338.9,515.8l118.8,0.1l-84.1,83.8
				C364,570.9,352.3,542.8,338.9,515.8z M396,622.2l84.1-83.8L480,657.2C452.9,643.4,424.8,631.7,396,622.2z M348.5,624.9L297,676.5
				c-13.8-56.9-35.9-110.8-66.3-160.8l72.9,0.2C321.7,550.5,336.8,587.2,348.5,624.9z M511.5,692.6c34.9-18.4,71.6-33.5,109.3-45.1
				l51.6,51.5c-56.9,13.8-110.8,35.9-160.8,66.3L511.5,692.6z M511.5,657l0.1-118.8l83.8,84.1C566.8,631.9,538.7,643.6,511.5,657z
				 M643.3,625.2c5.9-18.9,12.6-37.5,20-55.6c7.6-18.1,16-36.1,25.2-53.4l72.7,0.2c-15.1,24.9-28.4,50.8-39.5,77.7
				c-11.2,26.9-20.2,54.6-27,82.9L643.3,625.2z M652.9,484.4L534,484.3l84.1-83.8C627.8,429.1,639.5,457.2,652.9,484.4z
				 M643.5,375.1l51.5-51.6c13.8,56.9,35.9,110.8,66.3,160.8l-72.9-0.2C670.1,449.5,655,412.8,643.5,375.1z M215.3,241.2l55.2,55.4
				C257,363,230.3,427.3,192.9,483.9l-78.3-0.1C170.6,414.1,205.6,330,215.3,241.2z M114.5,515.5l78.3,0.1
				c37.7,57.2,63.7,120.3,77.4,187.3l-55.4,55.2C205.1,669.3,170.5,585.1,114.5,515.5z M237.1,780.6l55.4-55.2
				c67.1,13.8,130.1,39.8,187.2,77.7l-0.1,78.3C410,825.3,325.9,790.3,237.1,780.6z M754,781c-88.9,9.6-173,44.5-242.7,100.2
				l0.1-78.3c57.2-37.7,120.3-63.7,187.3-77.4L754,781z M809.5,630.4c-16.9,40.9-28.2,84.1-33.1,128.4l-55.2-55.6
				c13.6-66.3,40.3-130.7,77.7-187.2l78.3,0.1C849.2,551,826.4,589.5,809.5,630.4z M877.3,484.5l-78.3-0.1
				c-37.7-57.2-63.7-120.3-77.4-187.3l55.4-55.2C786.7,330.7,821.4,414.9,877.3,484.5z M754.7,219.4l-55.4,55.3
				C632.1,261,569.2,234.9,512,197.1l0.1-78.3C581.8,174.7,665.9,209.7,754.7,219.4z"/>
		</g>
	</g>
</g>
<g id="Layer_2_1_">
</g>
</svg>
