<?xml version="1.0" encoding="utf-8"?>
<!-- Generator: Adobe Illustrator 24.0.0, SVG Export Plug-In . SVG Version: 6.00 Build 0)  -->
<svg version="1.1" id="Layer_1" xmlns="http://www.w3.org/2000/svg" xmlns:xlink="http://www.w3.org/1999/xlink" x="0px" y="0px"
	 viewBox="0 0 1000 1000" style="enable-background:new 0 0 1000 1000;" xml:space="preserve">
<style type="text/css">
	.st0{fill:#3E3D42;}
</style>
<g id="Layer_1_1_">
	<g>
		<g>
			<path class="st0" d="M838.9,130.3L779.2,190c-101.1-5.1-197.1-45.1-271.9-112.9l0.1-75.2c0.1-8.7-7.1-16-15.8-15.8
				c-8.7-0.1-16,7.1-15.8,15.8L475.6,77c-75.3,67.8-171.3,107.5-272.4,112.5l-22.8-22.8c-6.1-6.3-16.2-6.1-22.4,0
				c-6.1,6.1-6.1,16.2,0,22.4l22.8,22.8c-5.1,101-45.1,197-112.8,271.9H24.1c-8.7-0.1-16,7.1-15.8,15.8c-0.1,8.7,7.1,16,15.8,15.8
				l43.9,0.1c67.8,75.1,107.5,171.1,112.5,272.3l-59.7,59.5c-6.3,6.1-6.1,16.2,0,22.4c6.1,6.3,16.2,6.1,22.4,0l59.7-59.6
				C304,815.2,400,855.2,474.8,923l-0.1,75.2c-0.1,8.7,7.1,16,15.8,15.8c6.6,0.1,12.3-4.1,14.7-9.7c0.8-1.9,1.3-3.9,1.3-6l0.1-75.2
				c75.1-67.8,171.1-107.5,272.3-112.5l22.8,22.8c6.1,6.3,16.2,6.1,22.4,0c1.5-1.5,2.6-3.3,3.4-5.1c2.4-5.6,1.3-12.6-3.4-17.3
				l-22.8-22.8c5.1-101.1,45.1-197.1,112.9-271.9l43.9,0.1c6.6,0.1,12.3-4.1,14.7-9.7c0.8-1.9,1.3-3.9,1.3-6
				c0.1-8.7-7.1-16-15.8-15.8l-43.9-0.1c-67.8-75.1-107.5-171.1-112.5-272.3l59.7-59.6c1.5-1.5,2.6-3.3,3.4-5.1
				c2.4-5.6,1.3-12.6-3.4-17.3C855.1,124.3,845,124.2,838.9,130.3z M232.8,219c88.9-9.6,173-44.5,242.7-100.2l-0.1,78.3
				c-57.2,37.7-120.3,63.7-187.3,77.4L232.8,219z M667.7,301.3l-51.6,51.4c-37.7-11.6-74.4-26.8-109.1-45.4l0.2-72.9
				C557,265.1,610.8,287.6,667.7,301.3z M314.1,698.7l51.5-51.6c37.7,11.6,74.4,26.8,109.1,45.4l-0.2,72.9
				C424.8,734.9,371,712.6,314.1,698.7z M590.8,377.8l-84.1,83.8l0.1-118.8C534,356.6,562,368.3,590.8,377.8z M475.3,343l-0.1,118.8
				l-83.8-84.2C420,368.1,448.1,356.4,475.3,343z M366,352.6L314.5,301c56.9-13.8,110.8-35.9,160.8-66.3l-0.2,72.9
				C440.4,325.8,403.7,340.9,366,352.6z M333.9,484c6.8-13.6,13-27.5,18.8-41.3s11.1-28.2,15.9-42.7l84,84.1L333.9,484z M647.9,516
				c-6.8,13.6-13,27.5-18.8,41.3c-5.8,14-11.1,28.2-15.9,42.7l-84-84.1L647.9,516z M343.6,374.8c-5.9,18.9-12.6,37.5-20,55.6
				c-7.6,18.1-16,36.1-25.2,53.4l-72.7-0.2c30.3-49.6,53-104.2,66.7-160.7L343.6,374.8z M333.9,515.8l118.8,0.1l-84.1,83.8
				C359,570.9,347.3,542.8,333.9,515.8z M391,622.2l84.1-83.8L475,657.2C447.9,643.4,419.8,631.7,391,622.2z M343.5,624.9L292,676.5
				c-13.8-56.9-35.9-110.8-66.3-160.8l72.9,0.2C316.7,550.5,331.8,587.2,343.5,624.9z M506.5,692.6c34.9-18.4,71.6-33.5,109.3-45.1
				l51.6,51.5c-56.9,13.8-110.8,35.9-160.8,66.3L506.5,692.6z M506.5,657l0.1-118.8l83.8,84.1C561.8,631.9,533.7,643.6,506.5,657z
				 M638.3,625.2c5.9-18.9,12.6-37.5,20-55.6c7.6-18.1,16-36.1,25.2-53.4l72.7,0.2c-15.1,24.9-28.4,50.8-39.5,77.7
				c-11.2,26.9-20.2,54.6-27,82.9L638.3,625.2z M647.9,484.4L529,484.3l84.1-83.8C622.8,429.1,634.5,457.2,647.9,484.4z
				 M638.5,375.1l51.5-51.6c13.8,56.9,35.9,110.8,66.3,160.8l-72.9-0.2C665.1,449.5,650,412.8,638.5,375.1z M210.3,241.2l55.2,55.4
				C252,363,225.3,427.3,187.9,483.9l-78.3-0.1C165.6,414.1,200.6,330,210.3,241.2z M109.5,515.5l78.3,0.1
				c37.7,57.2,63.7,120.3,77.4,187.3l-55.4,55.2C200.1,669.3,165.5,585.1,109.5,515.5z M232.1,780.6l55.4-55.2
				c67.1,13.8,130.1,39.8,187.2,77.7l-0.1,78.3C405,825.3,320.9,790.3,232.1,780.6z M749,781c-88.9,9.6-173,44.5-242.7,100.2
				l0.1-78.3c57.2-37.7,120.3-63.7,187.3-77.4L749,781z M804.5,630.4c-16.9,40.9-28.2,84.1-33.1,128.4l-55.2-55.6
				c13.6-66.3,40.3-130.7,77.7-187.2l78.3,0.1C844.2,551,821.4,589.5,804.5,630.4z M872.3,484.5l-78.3-0.1
				c-37.7-57.2-63.7-120.3-77.4-187.3l55.4-55.2C781.7,330.7,816.4,414.9,872.3,484.5z M749.7,219.4l-55.4,55.3
				C627.1,261,564.2,234.9,507,197.1l0.1-78.3C576.8,174.7,660.9,209.7,749.7,219.4z"/>
		</g>
	</g>
</g>
<g id="Layer_2_1_">
</g>
</svg>
