<?xml version="1.0" encoding="utf-8"?>
<!-- Generator: Adobe Illustrator 24.0.0, SVG Export Plug-In . SVG Version: 6.00 Build 0)  -->
<svg version="1.1" id="Layer_1" xmlns="http://www.w3.org/2000/svg" xmlns:xlink="http://www.w3.org/1999/xlink" x="0px" y="0px"
	 viewBox="0 0 473.9 473.9" style="enable-background:new 0 0 473.9 473.9;" xml:space="preserve">
<style type="text/css">
	.st0{fill:#9A7338;}
	.st1{fill:#825E2D;}
	.st2{fill:#F5D827;}
	.st3{fill:#F7E497;}
	.st4{fill:#F4D967;}
</style>
<g>
	<path class="st0" d="M190.4,181.1L408.9,400c4.8-5,9.3-10.2,13.6-15.6L206.8,176.6C202.8,172.6,195.6,175.8,190.4,181.1z"/>
	<path class="st0" d="M186.4,197c-0.9-0.9-1.6-1.7-2.1-2.6c0.2,1.2,0.7,2.2,1.6,3.1L394.4,414c0.1-0.1,0.2-0.1,0.2-0.2L186.4,197z"
		/>
</g>
<g>
	<path class="st1" d="M190.4,181.1L190.4,181.1c-6.8,6.8-7.8,10.2-6.1,13.3C183.5,190.3,186.3,185.1,190.4,181.1z"/>
	<path class="st1" d="M184.3,194.3c0.5,0.9,1.2,1.7,2.1,2.6l208.3,216.8c4.9-4.4,9.6-9,14.2-13.8L190.4,181.1
		C186.3,185.1,183.5,190.3,184.3,194.3z"/>
</g>
<path class="st2" d="M266.4,92.2c5.1,2.6-6.3,73.1-4.4,77.7c1.9,4.6,61.5,42.9,61.5,47.7c-0.1,4.8-71.2,15.8-75.2,19.8
	c-4.1,4-20.8,72.7-26.3,73.2c-5.5,0.5-38.5-63.8-42.1-65.4c-3.6-1.6-75.6,2.6-77.8-2.4c-2.2-5,48.4-55.2,49.2-60.2
	c0.8-5.1-25.2-71.3-21.7-74.7c3.5-3.4,68.4,28.4,72.5,28.2C206.1,135.7,261.2,89.6,266.4,92.2z"/>
<path class="st3" d="M239.5,139.7c2.5,1.3-3.1,35.5-2.1,37.7c0.9,2.2,29.9,20.8,29.8,23.1c0,2.3-34.5,7.7-36.5,9.6
	s-10.1,35.3-12.8,35.5c-2.7,0.3-18.7-31-20.4-31.8c-1.8-0.8-36.7,1.3-37.8-1.2c-1.1-2.4,23.5-26.8,23.9-29.2
	c0.4-2.5-12.3-34.6-10.5-36.3c1.7-1.7,33.2,13.8,35.2,13.7C210.2,160.8,237,138.4,239.5,139.7z"/>
<g>
	<path class="st4" d="M318.3,146.7c0.7,2.7-22.9,21.2-28.9,21.8c-2.5,0.2-6.9-1.6-8.5-5.9c-1.6-4.3-0.7-7.9,1.9-9.7
		C287.2,149.8,317.7,144,318.3,146.7z"/>
	<path class="st4" d="M195.3,80.1c2.8,0.1,14.1,27.9,13,33.8c-0.5,2.4-3.5,6.2-8.1,6.6c-4.6,0.4-7.8-1.5-8.8-4.5
		C189.8,110.9,192.5,80,195.3,80.1z"/>
	<path class="st4" d="M93.2,176.5c0.7-2.7,30.1-8.2,35.7-6c2.3,0.9,5.4,4.6,4.8,9.2c-0.6,4.5-3,7.3-6.2,7.7
		C122.2,188.1,92.5,179.2,93.2,176.5z"/>
	<path class="st4" d="M154.1,297c-2.3-1.6,3-31.1,7.1-35.5c1.7-1.8,6.2-3.4,10.3-1.2c4,2.1,5.8,5.4,5,8.5
		C175.2,274,156.4,298.6,154.1,297z"/>
</g>
</svg>
