<?xml version="1.0" encoding="utf-8"?>
<!-- Generator: Adobe Illustrator 24.0.0, SVG Export Plug-In . SVG Version: 6.00 Build 0)  -->
<svg version="1.1" id="Layer_1" xmlns="http://www.w3.org/2000/svg" xmlns:xlink="http://www.w3.org/1999/xlink" x="0px" y="0px"
	 viewBox="0 0 80 80" style="enable-background:new 0 0 80 80;" xml:space="preserve">
<style type="text/css">
	.st0{fill:#83BF4F;}
	.st1{fill:#75A843;}
	.st2{fill:#AA1F65;}
	.st3{fill:#D33777;}
	.st4{fill:#E84D88;}
</style>
<path class="st0" d="M49.9,56.5c-8.1,6.7-7.5,24-7.5,24h2.8c7.4-22.6,32.9-31.2,32.9-31.2S61.9,46.5,49.9,56.5z"/>
<path class="st1" d="M42,0.4l3.2,80.1h-6.4L42,0.4z"/>
<path class="st2" d="M56.8,31.1c0,14-6.6,20-14.8,20s-14.8-6-14.8-20S42,0.4,42,0.4S56.8,17.1,56.8,31.1z"/>
<path class="st3" d="M46.4,24.5c18.8,11.8,6.1,28.6-4.6,28.6S22.5,42.2,22.5,28.5S33,4,33,4S32.5,15.8,46.4,24.5"/>
<path class="st4" d="M37.8,24.5C19,36.3,31.7,53.1,42.4,53.1s19.3-10.9,19.3-24.5S51.3,4.1,51.3,4.1S51.7,15.8,37.8,24.5"/>
<path class="st0" d="M30.8,54c8.4,8.4,11.1,26.6,11.1,26.6h-6.1c-9.8-23.1-34-40.1-34-40.1S22.5,45.7,30.8,54z"/>
</svg>
