<?xml version="1.0" encoding="utf-8"?>
<!-- Generator: Adobe Illustrator 24.0.0, SVG Export Plug-In . SVG Version: 6.00 Build 0)  -->
<svg version="1.1" id="Layer_1" xmlns="http://www.w3.org/2000/svg" xmlns:xlink="http://www.w3.org/1999/xlink" x="0px" y="0px"
	 viewBox="0 0 512 512" style="enable-background:new 0 0 512 512;" xml:space="preserve">
<style type="text/css">
	.st0{fill:#877E73;}
	.st1{fill:#B6CECC;}
	.st2{fill:#CFE5E2;}
	.st3{fill:#9379AD;}
	.st4{fill:#694887;}
	.st5{fill:#80995F;}
	.st6{fill:#A6BE65;}
</style>
<path class="st0" d="M364.1,161.1c-4.5-4.2-4.7-11.3-0.4-15.7l95.7-101.3c4.2-4.5,11.3-4.7,15.7-0.4c4.5,4.2,4.7,11.3,0.4,15.7
	l-95.7,101.3c-2.2,2.3-5.1,3.5-8.1,3.5C369,164.2,366.3,163.2,364.1,161.1z M132.2,160.7c2.2,2.3,5.1,3.5,8.1,3.5c2.7,0,5.5-1,7.6-3
	c4.5-4.2,4.7-11.3,0.4-15.7L52.6,44.1c-4.2-4.5-11.3-4.7-15.7-0.4c-4.5,4.2-4.7,11.3-0.4,15.7L132.2,160.7z M181.5,356.5L62.3,470.3
	H44.5c-6.1,0-11.1,5-11.1,11.1s5,11.1,11.1,11.1H89c6.1,0,11.1-5,11.1-11.1c0-4.5-2.7-8.4-6.6-10.2l103.3-98.6
	c4.4-4.2,4.6-11.3,0.4-15.7C193,352.4,186,352.2,181.5,356.5z M278.3,481.4h-11.1v-94.6c0-6.1-5-11.1-11.1-11.1s-11.1,5-11.1,11.1
	v94.6h-11.1c-6.1,0-11.1,5-11.1,11.1s5,11.1,11.1,11.1h44.5c6.1,0,11.1-5,11.1-11.1S284.4,481.4,278.3,481.4z M467.5,470.3h-17.8
	L330.5,356.5c-4.4-4.2-11.5-4.1-15.7,0.4c-4.2,4.4-4.1,11.5,0.4,15.7l103.3,98.6c-3.9,1.7-6.6,5.6-6.6,10.2c0,6.1,5,11.1,11.1,11.1
	h44.5c6.1,0,11.1-5,11.1-11.1S473.6,470.3,467.5,470.3z"/>
<path class="st1" d="M100.2,205.8V192c0-86.1,69.8-155.8,155.8-155.8l0,0c86.1,0,155.8,69.8,155.8,155.8v13.8H100.2z"/>
<path class="st2" d="M354.2,158c-1.2,0.4-2.5,0.6-3.7,0.6c-4.6,0-8.9-2.9-10.5-7.4c-12.5-35.5-46.3-59.4-84-59.4
	c-6.1,0-11.1-5-11.1-11.1c0-6.1,5-11.1,11.1-11.1c47.1,0,89.3,29.8,105,74.2C363,149.6,360,155.9,354.2,158z"/>
<path class="st3" d="M500.8,292.2h-22.2c0,67.6-99.7,122.4-222.6,122.4S33.4,359.8,33.4,292.2H11.2c-10.2,0-15-12.6-7.4-19.4
	l46.7-41.5c20.4-18.1,46.7-28.1,73.9-28.1h263.3c27.3,0,53.6,10,73.9,28.1l46.7,41.5C515.9,279.5,511.1,292.2,500.8,292.2z"/>
<path class="st4" d="M478.6,292.2c0,67.6-99.7,122.4-222.6,122.4S33.4,359.8,33.4,292.2H478.6z"/>
<path class="st5" d="M512,41.7c0,18.4-14.9,33.4-33.4,33.4s-33.4-15-33.4-33.4s14.9-33.4,33.4-33.4S512,23.3,512,41.7z M33.4,8.3
	C14.9,8.3,0,23.3,0,41.7s14.9,33.4,33.4,33.4s33.4-15,33.4-33.4S51.8,8.3,33.4,8.3z"/>
<path class="st6" d="M484.2,19.5c9.2,0,16.7,7.5,16.7,16.7s-7.5,16.7-16.7,16.7c-9.2,0-16.7-7.5-16.7-16.7S475,19.5,484.2,19.5z
	 M27.8,19.5c-9.2,0-16.7,7.5-16.7,16.7s7.5,16.7,16.7,16.7s16.7-7.5,16.7-16.7S37,19.5,27.8,19.5z"/>
</svg>
