<?xml version="1.0" encoding="utf-8"?>
<!-- Generator: Adobe Illustrator 24.0.0, SVG Export Plug-In . SVG Version: 6.00 Build 0)  -->
<svg version="1.1" id="Layer_1" xmlns="http://www.w3.org/2000/svg" xmlns:xlink="http://www.w3.org/1999/xlink" x="0px" y="0px"
	 viewBox="0 0 512 512" style="enable-background:new 0 0 512 512;" xml:space="preserve">
<style type="text/css">
	.st0{fill:#877E73;}
	.st1{fill:#80995F;}
	.st2{fill:#A6BE65;}
	.st3{fill:#B6CECC;}
	.st4{fill:#CFE5E2;}
	.st5{fill:#9379AD;}
	.st6{fill:#694887;}
</style>
<path class="st0" d="M292.6,194.3c-4.5-4.2-4.7-11.3-0.4-15.7l95.7-101.3c4.2-4.5,11.3-4.7,15.7-0.4c4.5,4.2,4.7,11.3,0.4,15.7
	l-95.7,101.3c-2.2,2.3-5.1,3.5-8.1,3.5C297.5,197.3,294.7,196.3,292.6,194.3z"/>
<path class="st0" d="M198.8,179.7c4.3-4.2,4.5-11.3,0.4-15.7L106.3,62.7c-4.1-4.5-10.9-4.7-15.3-0.4c-4.3,4.2-4.5,11.3-0.4,15.7
	l92.9,101.3c2.1,2.3,5,3.5,7.9,3.5C194.1,182.8,196.8,181.8,198.8,179.7z"/>
<circle class="st1" cx="100.2" cy="70.3" r="33.4"/>
<circle class="st2" cx="94.6" cy="64.8" r="16.7"/>
<circle class="st1" cx="413.9" cy="70.3" r="33.4"/>
<circle class="st2" cx="419.5" cy="64.8" r="16.7"/>
<path class="st3" d="M100.2,205.8V192c0-86.1,69.8-155.8,155.8-155.8l0,0c86.1,0,155.8,69.8,155.8,155.8v13.8H100.2z"/>
<path class="st4" d="M354.2,158c-1.2,0.4-2.5,0.6-3.7,0.6c-4.6,0-8.9-2.9-10.5-7.4c-12.5-35.5-46.3-59.4-84-59.4
	c-6.1,0-11.1-5-11.1-11.1c0-6.1,5-11.1,11.1-11.1c47.1,0,89.3,29.8,105,74.2C363,149.6,360,155.9,354.2,158z"/>
<path class="st5" d="M500.8,292.2h-22.2c0,67.6-99.7,122.4-222.6,122.4S33.4,359.8,33.4,292.2H11.2c-10.2,0-15-12.6-7.4-19.4
	l46.7-41.5c20.4-18.1,46.7-28.1,73.9-28.1h263.3c27.3,0,53.6,10,73.9,28.1l46.7,41.5C515.9,279.5,511.1,292.2,500.8,292.2z"/>
<path class="st6" d="M478.6,292.2c0,67.6-99.7,122.4-222.6,122.4S33.4,359.8,33.4,292.2H478.6z"/>
</svg>
