<?xml version="1.0" encoding="utf-8"?>
<!-- Generator: Adobe Illustrator 24.0.0, SVG Export Plug-In . SVG Version: 6.00 Build 0)  -->
<svg version="1.1" xmlns="http://www.w3.org/2000/svg" xmlns:xlink="http://www.w3.org/1999/xlink" x="0px" y="0px"
	 viewBox="0 0 58 58" style="enable-background:new 0 0 58 58;" xml:space="preserve">
<style type="text/css">
	.st0{fill:#FF74E5;}
	.st1{fill:#FF94EB;}
	.st2{fill:#FF9FF8;}
	.st3{fill:#FF9FF5;}
	.st4{display:none;fill:#DAE7EF;}
	.st5{display:none;fill:#3DABEF;}
	.st6{display:none;fill:#FFFFFF;}
	.st7{fill:#003879;}
	.st8{fill:#1A69B7;}
</style>
<g id="Layer_2">
	<g>
		<path class="st0" d="M39.2,40.1c-0.2-2.6-1-5.2-1.9-7.6c-1.2-3-0.9-7.3,0.8-9.5c0.9-1.1,1.3-2.6,1.3-4c0-9.3-5.1-11.5-6.5-12
			c-0.3-0.1-0.5-0.3-0.7-0.6c-0.3-0.6-0.5-1.3-0.6-2c-0.1-0.7-0.7-1.1-1.3-1.1c-0.4,0-0.8,0.1-1.2,0.1s-0.8,0-1.2-0.1
			c-0.7-0.1-1.2,0.4-1.3,1.1c-0.1,0.7-0.3,1.5-0.6,2c-0.2,0.3-0.4,0.5-0.7,0.6c-1.4,0.4-6.5,2.7-6.5,12c0,1.4,0.4,2.9,1.3,4
			c1.7,2.2,2,6.5,0.8,9.5c-1,2.5-1.7,5-1.9,7.6c-0.4,4.3-0.7,10.3-0.2,14.4c0,1.9,2.8,3.5,9.9,3.5s11-1.6,11-3.5
			C39.9,50.5,39.6,44.5,39.2,40.1z"/>
		<path class="st1" d="M26.7,54.4c-2,0-3.5-0.5-4.4-1.4c-0.7-0.8-0.8-1.7-0.8-2v-1.1c0-0.6,0.4-1,1-1s1,0.4,1,1l0,1.3l0,0
			c0,0,0,0.2,0.3,0.5c0.3,0.3,1.2,0.8,3.3,0.7c0.6,0,1,0.4,1,1c0,0.6-0.4,1-1,1C27.1,54.4,26.9,54.4,26.7,54.4z"/>
		<path class="st2" d="M22.6,47.4c-0.6,0-1-0.4-1-1v-1.2c0-0.6,0.4-1,1-1s1,0.4,1,1v1.2C23.6,47,23.2,47.4,22.6,47.4z"/>
		<path class="st3" d="M23.8,16.1c-0.1,0-0.1,0-0.2,0c-0.5-0.1-0.9-0.6-0.8-1.2c0.7-3.7,3.9-5.3,4-5.4c0.5-0.2,1.1,0,1.3,0.5
			c0.2,0.5,0,1.1-0.5,1.3c0,0-2.5,1.3-2.9,3.9C24.7,15.7,24.3,16.1,23.8,16.1z"/>
	</g>
</g>
<g id="Capa_1">
	<g>
		<path class="st4" d="M39.2,40.1c-0.2-2.6-1-5.2-1.9-7.6c-1.2-3-0.9-7.3,0.8-9.5c0.9-1.1,1.3-2.6,1.3-4c0-9.3-5.1-11.5-6.5-12
			c-0.3-0.1-0.5-0.3-0.7-0.6c-0.3-0.6-0.5-1.3-0.6-2c-0.1-0.7-0.7-1.1-1.3-1.1c-0.4,0-0.8,0.1-1.2,0.1s-0.8,0-1.2-0.1
			c-0.7-0.1-1.2,0.4-1.3,1.1c-0.1,0.7-0.3,1.5-0.6,2c-0.2,0.3-0.4,0.5-0.7,0.6c-1.4,0.4-6.5,2.7-6.5,12c0,1.4,0.4,2.9,1.3,4
			c1.7,2.2,2,6.5,0.8,9.5c-1,2.5-1.7,5-1.9,7.6c-0.4,4.3-0.7,10.3-0.2,14.4c0,1.9,2.8,3.5,9.9,3.5s11-1.6,11-3.5
			C39.9,50.5,39.6,44.5,39.2,40.1z"/>
		<path class="st5" d="M18.7,18.5c0,0.2,0,0.3,0,0.5c0,1.4,0.4,2.9,1.3,4c1.7,2.2,2,6.5,0.8,9.5c-1,2.5-1.7,5-1.9,7.6
			c0,0.1,0,0.3,0,0.5c2.6,0.7,6.2,1.1,10.3,1.1s7.6-0.4,10.3-1.1c0-0.2,0-0.3,0-0.5c-0.2-2.6-1-5.2-1.9-7.6c-1.2-3-0.9-7.3,0.8-9.5
			c0.9-1.1,1.3-2.6,1.3-4c0-0.2,0-0.3,0-0.5c-2.6,0.7-6.3,1.2-10.3,1.2S21.3,19.3,18.7,18.5z"/>
		<path class="st6" d="M26.7,54.4c-2,0-3.5-0.5-4.4-1.4c-0.7-0.8-0.8-1.7-0.8-2v-1.1c0-0.6,0.4-1,1-1s1,0.4,1,1l0,1.3l0,0
			c0,0,0,0.2,0.3,0.5c0.3,0.3,1.2,0.8,3.3,0.7c0.6,0,1,0.4,1,1c0,0.6-0.4,1-1,1C27.1,54.4,26.9,54.4,26.7,54.4z"/>
		<path class="st6" d="M22.6,47.4c-0.6,0-1-0.4-1-1v-1.2c0-0.6,0.4-1,1-1s1,0.4,1,1v1.2C23.6,47,23.2,47.4,22.6,47.4z"/>
		<path class="st7" d="M29,0c-1.8,0-3.2,0.5-3.2,1.1v3.2c0,0.6,1.5,1.1,3.2,1.1s3.2-0.5,3.2-1.1V1.1C32.2,0.5,30.8,0,29,0z"/>
		<path class="st8" d="M28.8,2.8H28c-0.3,0-0.5-0.2-0.5-0.5s0.2-0.5,0.5-0.5h0.8c0.3,0,0.5,0.2,0.5,0.5S29.1,2.8,28.8,2.8z"/>
	</g>
</g>
</svg>
