<?xml version="1.0" encoding="utf-8"?>
<!-- Generator: Adobe Illustrator 24.0.0, SVG Export Plug-In . SVG Version: 6.00 Build 0)  -->
<svg version="1.1" id="Layer_1" xmlns="http://www.w3.org/2000/svg" xmlns:xlink="http://www.w3.org/1999/xlink" x="0px" y="0px"
	 viewBox="0 0 512 512" style="enable-background:new 0 0 512 512;" xml:space="preserve">
<style type="text/css">
	.st0{fill:#434A54;}
	.st1{fill:#656D78;}
	.st2{fill:#FFCE54;}
	.st3{opacity:0.1;fill:#FFFFFF;enable-background:new    ;}
	.st4{fill:#F6BB42;}
</style>
<path class="st0" d="M400.3,199L229.6,92.3c-3.2-2-7.1-2.2-10.4-0.5c-3.3,1.7-5.5,5-5.8,8.7c-2.9,35.7,5.3,64.4,24.4,85.1
	c12.9,14,30.5,24.2,52.6,30.3c16.5,4.6,35.4,7,56.2,7l0,0c27.9,0,49.3-4.2,50.2-4.4c4.3-0.9,7.6-4.3,8.4-8.5
	C405.9,205.6,404,201.3,400.3,199z"/>
<path class="st0" d="M495.6,360.2c-7.8-4.1-18.7-7.1-33.4-9.3c-28-4.1-67.8-4.7-106.7-4.7c-14.7,0-29.9,0.1-46,0.2
	c-17.3,0.1-35.1,0.2-53.5,0.2s-36.2-0.1-53.5-0.2c-16.1-0.1-31.4-0.2-46-0.2c-38.9,0-78.7,0.6-106.7,4.7
	c-14.7,2.2-25.6,5.2-33.4,9.3C2.8,367.4,0,377.1,0,384c0,11.7,8,23.4,23.7,34.8c13.4,9.8,32.5,19.2,55.2,27.4
	c51.1,18.4,114,28.5,177.1,28.5s125.9-10.1,177.1-28.5c22.7-8.2,41.8-17.6,55.2-27.4C504,407.4,512,395.7,512,384
	C512,377.1,509.1,367.4,495.6,360.2z"/>
<path class="st1" d="M362.3,386.6l-64.8-248.5c-0.7-2.6-2.4-4.9-4.7-6.4l-63.2-39.5c-2.9-1.8-6.6-2.1-9.8-0.8
	c-3.2,1.3-5.5,4.1-6.3,7.5l-64,288c-0.2,0.8-0.3,1.5-0.3,2.3c0,3.7,1.8,13,18.3,20.4c17.3,7.7,47,11.6,88.3,11.6s71-3.9,88.3-11.6
	c16.5-7.4,18.3-16.7,18.3-20.4C362.6,388.4,362.5,387.5,362.3,386.6z"/>
<g>
	<path class="st2" d="M355.4,360.2c-2.6,2.3-6.2,4.7-11.1,6.8c-17.3,7.7-47,11.6-88.3,11.6s-71-3.9-88.3-11.6c-5.4-2.4-9.3-5-12-7.6
		l-6.1,27.5c-0.2,0.8-0.3,1.5-0.3,2.3c0,3.7,1.8,13,18.3,20.4c17.3,7.7,47,11.6,88.3,11.6s71-3.9,88.3-11.6
		c16.5-7.4,18.3-16.7,18.3-20.4c0-0.9-0.1-1.8-0.3-2.7L355.4,360.2z"/>
	<rect x="235.3" y="378.7" class="st2" width="42.7" height="42.3"/>
</g>
<path class="st3" d="M189,409.7c-16.6-7.4-18.3-16.7-18.3-20.4c0-0.8,0.1-1.6,0.3-2.3l64-288c0.2-1,0.6-1.9,1.1-2.8l-6.3-4
	c-2.9-1.8-6.6-2.1-9.8-0.8c-3.2,1.3-5.5,4.1-6.3,7.5l-64,288c-0.2,0.8-0.3,1.5-0.3,2.3c0,3.7,1.8,13,18.3,20.4
	c17.3,7.7,47,11.6,88.3,11.6c3.6,0,7.2,0,10.7-0.1C230.9,420.6,204.8,416.7,189,409.7z"/>
<path class="st4" d="M278,431.6L278,431.6h-42.7c-5.9,0-10.7-4.8-10.7-10.7v-42.3c0-5.9,4.8-10.7,10.7-10.7H278
	c5.9,0,10.7,4.8,10.7,10.7v42.3c0,2.8-1.1,5.5-3.1,7.5S280.8,431.6,278,431.6z M246,410.3h21.3v-20.9H246V410.3L246,410.3z"/>
</svg>
