<?xml version="1.0" encoding="utf-8"?>
<!-- Generator: Adobe Illustrator 24.0.0, SVG Export Plug-In . SVG Version: 6.00 Build 0)  -->
<svg version="1.1" id="Layer_1" xmlns="http://www.w3.org/2000/svg" xmlns:xlink="http://www.w3.org/1999/xlink" x="0px" y="0px"
	 viewBox="0 0 493 493" style="enable-background:new 0 0 493 493;" xml:space="preserve">
<style type="text/css">
	.st0{fill:#FCE36F;}
	.st1{fill:#BE1622;}
	.st2{fill:#FDF270;}
	.st3{fill:#1D1D1B;}
</style>
<g id="XMLID_1066_">
	<g id="XMLID_1071_">
		<path class="st0" d="M277.3,263.9v-46.2l-30.8-23.1v-23.1l-92.4-69.3v161.8h-42.4c-31.9,0-57.8,25.9-57.8,57.8
			s25.9,57.8,57.8,57.8h186.6c56.5,0,102.3-45.8,102.3-102.3v-13.3H277.3z M184.9,262.6v1.3h-4.4L184.9,262.6z"/>
	</g>
	<g id="XMLID_583_">
		<polygon class="st1" points="354.3,271.6 354.3,356.4 385.2,333.3 400.6,294.7 392.9,263.9 		"/>
	</g>
	<g id="XMLID_531_">
		<circle class="st2" cx="100.1" cy="325.6" r="38.5"/>
	</g>
	<g id="XMLID_578_">
		<path class="st1" d="M154.1,379.5c0-29.8,24.1-53.9,53.9-53.9s53.9,24.1,53.9,53.9"/>
	</g>
	<g id="XMLID_561_">
		<rect x="177.4" y="144.5" class="st3" width="15" height="154.1"/>
	</g>
	<g id="XMLID_562_">
		<rect x="208.2" y="167.6" class="st3" width="15" height="53.9"/>
	</g>
	<g id="XMLID_563_">
		<rect x="239" y="190.8" class="st3" width="15" height="53.9"/>
	</g>
	<g id="XMLID_560_">
		<rect x="92.4" y="302.6" class="st3" width="15.4" height="15"/>
	</g>
	<g id="XMLID_568_">
		<rect x="469.9" y="318.1" class="st3" width="23.1" height="15"/>
	</g>
	<g id="XMLID_569_">
		<rect x="146.6" y="102.2" class="st3" width="15" height="146.4"/>
	</g>
	<path class="st3" d="M397.3,318.1c6.5-14.5,10.3-30.4,10.7-47.1l53.7-53.7l-10.6-10.6l-53.6,53.7H284.8v-46.4h-15v61.4h123
		c-3.9,56.1-50.7,100.5-107.8,100.5h-15.7c-1.9-32.2-28.7-57.8-61.3-57.8c-32.6,0-59.4,25.6-61.3,57.8h-35
		c-27.7,0-50.3-22.6-50.3-50.3s22.6-50.3,50.3-50.3h57.8v-15h-57.8c-33.5,0-61.1,25.3-64.8,57.8H0v15h46.9
		c3.7,32.5,31.4,57.8,64.8,57.8H285c43.9,0,82.5-23.1,104.3-57.8h72.9v-15L397.3,318.1L397.3,318.1z M161.7,375.8
		c1.9-23.9,21.9-42.8,46.3-42.8s44.4,18.9,46.3,42.8H161.7z"/>
</g>
</svg>
