<?xml version="1.0" encoding="utf-8"?>
<!-- Generator: Adobe Illustrator 15.1.0, SVG Export Plug-In . SVG Version: 6.00 Build 0)  -->
<!DOCTYPE svg PUBLIC "-//W3C//DTD SVG 1.1//EN" "http://www.w3.org/Graphics/SVG/1.1/DTD/svg11.dtd">
<svg version="1.1" id="Layer_1" xmlns="http://www.w3.org/2000/svg" xmlns:xlink="http://www.w3.org/1999/xlink" x="0px" y="0px"
	 width="792px" height="612px" viewBox="0 0 792 612" enable-background="new 0 0 792 612" xml:space="preserve">
<g>
	
		<path fill-rule="evenodd" clip-rule="evenodd" stroke="#000000" stroke-width="3" stroke-linecap="round" stroke-linejoin="round" stroke-miterlimit="22.9256" d="
		M621.458,302.272c6.729-9.433,16.529-12.979,24.523-21.479c7.993-8.501,14.182-21.958,21.195-32.32
		c7.016-10.362,14.859-17.63,24.927-16.643c12.562,1.233,4.049,1.215,15.73-4.571c6.316-3.128,15.444-6.377,22.187-11.25
		c6.743-4.874,11.101-11.371,13.333-16.714c2.232-5.342,2.341-9.529,3.387-9.479c1.046,0.05,3.031,4.335,5.034,10.307
		c2.002,5.972,4.021,13.628,4.576,22.211c0.556,8.583-0.353,18.092-4.195,28.049c-3.842,9.957-10.615,20.362-18.694,25.063
		c-8.125,4.725-4.249,1.269-5.593,12.651c-1.184,10.02-4.7,16.671-10.912,22.412c-6.21,5.742-15.117,10.572-24.303,23.063
		c-9.184,12.49-18.645,32.643-27.852,49.896c-9.206,17.254-18.157,31.608-22.938,44.104
		c-20.571,53.769-75.903,131.879-149.709,117.236c-67.98-13.488-31.532-91.662-32.737-150.381
		c-0.274-13.414-3.838-30.043-6.626-50.598s-4.804-45.033-10.771-63.009c-5.967-17.979-15.887-29.453-17.624-43.368
		c-0.688-5.501,2.48-14.882-0.269-18.203c-5.999-7.259-8.85-19.413-9.098-30.111c-0.251-10.701,2.103-19.948,5.518-27.809
		c3.415-7.862,7.892-14.338,11.785-19.238c3.893-4.901,7.202-8.224,8.201-7.903c0.999,0.322-0.312,4.291-0.017,10.092
		c0.293,5.802,2.193,13.436,6.88,20.386c4.687,6.949,12.16,13.214,17.034,18.375c7.104,7.525,2.473,4.398,11.26,8.774
		c8.425,4.193,9.418,14.188,12.836,25.744s9.261,24.676,15.858,35.267c6.598,10.591,10.664,17.22,13.473,29.086
		c2.709,11.439,3.887,27.718,3.807,35.151c-0.124,11.471,1.343,9.232,7.551-19.912c3.395-15.94,7.074-31.175,11.119-43.552
		c3.077-15.37,5.789-28.645,7.197-43.155c1.77-18.219,1.486-38.389,6.441-53.329c1.837-5.537,8.29-11.08,11.805-15.832
		c1.87-2.528,2.208-6.171,2.131-6.522c-1.841-8.324,1.971-20.251,7.313-29.619c5.342-9.37,12.216-16.183,17.916-23.627
		c5.701-7.447,10.23-15.525,13.208-15.102c2.977,0.424,4.404,9.351,6.943,17.592c2.538,8.241,6.188,15.797,8.845,24.072
		c2.656,8.274,4.32,17.27,2.588,25.086c-4.904,22.132,6.119,13.284,5.521,37.807c-0.386,15.771-7.45,34.604-11.933,52.331
		c-3.57,14.119-5.5,27.535-7.794,43.048c-0.376,13.043-2.058,28.639-4.246,44.801C598.387,369.421,604.748,325.699,621.458,302.272z
		"/>
	
		<path fill-rule="evenodd" clip-rule="evenodd" stroke="#000000" stroke-width="3" stroke-linecap="round" stroke-linejoin="round" stroke-miterlimit="22.9256" d="
		M171.542,302.272c-6.729-9.433-16.53-12.979-24.523-21.479c-7.994-8.501-14.182-21.958-21.196-32.32
		c-7.016-10.362-14.859-17.63-24.926-16.643c-12.562,1.233-4.049,1.215-15.731-4.571c-6.316-3.128-15.444-6.377-22.186-11.25
		c-6.744-4.874-11.101-11.371-13.333-16.714c-2.233-5.342-2.341-9.529-3.387-9.479c-1.046,0.05-3.032,4.335-5.035,10.307
		c-2.002,5.972-4.021,13.628-4.576,22.211c-0.556,8.583,0.353,18.091,4.195,28.049c3.841,9.957,10.615,20.362,18.694,25.063
		c8.125,4.725,4.25,1.269,5.593,12.65c1.184,10.02,4.701,16.671,10.912,22.412c6.211,5.742,15.118,10.572,24.304,23.063
		c9.183,12.49,18.645,32.643,27.852,49.896c9.206,17.254,18.157,31.608,22.937,44.104c20.572,53.769,75.904,131.879,149.709,117.236
		c67.98-13.488,31.532-91.662,32.737-150.381c0.275-13.414,3.837-30.043,6.626-50.598c2.788-20.554,4.804-45.033,10.771-63.01
		c5.967-17.978,15.886-29.453,17.624-43.368c0.687-5.501-2.481-14.882,0.268-18.203c6-7.259,8.85-19.413,9.099-30.112
		c0.25-10.701-2.104-19.947-5.519-27.809s-7.892-14.337-11.785-19.239c-3.893-4.901-7.202-8.224-8.201-7.903
		c-0.999,0.322,0.312,4.291,0.017,10.092c-0.294,5.802-2.194,13.436-6.881,20.386c-4.687,6.949-12.16,13.214-17.035,18.375
		c-7.103,7.525-2.472,4.397-11.258,8.774c-8.426,4.194-9.419,14.188-12.836,25.744c-3.418,11.556-9.261,24.676-15.859,35.267
		c-6.597,10.591-10.663,17.22-13.472,29.085c-2.708,11.44-3.887,27.719-3.807,35.151c0.124,11.472-1.343,9.232-7.551-19.912
		c-3.395-15.94-7.074-31.175-11.119-43.552c-3.077-15.37-5.789-28.645-7.198-43.156c-1.769-18.219-1.486-38.389-6.441-53.329
		c-1.836-5.538-8.291-11.08-11.805-15.832c-1.87-2.528-2.208-6.171-2.131-6.522c1.841-8.324-1.97-20.251-7.313-29.619
		c-5.342-9.37-12.217-16.182-17.917-23.627c-5.702-7.447-10.231-15.525-13.208-15.102s-4.404,9.351-6.943,17.592
		c-2.539,8.241-6.188,15.797-8.845,24.072c-2.656,8.274-4.32,17.27-2.588,25.086c4.904,22.132-6.118,13.284-5.521,37.807
		c0.385,15.771,7.451,34.604,11.933,52.331c3.57,14.119,5.5,27.535,7.793,43.048c0.376,13.044,2.058,28.639,4.246,44.801
		C194.613,369.421,188.252,325.699,171.542,302.272z"/>
</g>
</svg>
