<?xml version="1.0" encoding="utf-8"?>
<!-- Generator: Adobe Illustrator 24.0.0, SVG Export Plug-In . SVG Version: 6.00 Build 0)  -->
<svg version="1.1" id="Capa_1" xmlns="http://www.w3.org/2000/svg" xmlns:xlink="http://www.w3.org/1999/xlink" x="0px" y="0px"
	 viewBox="0 0 434.9 434.9" style="enable-background:new 0 0 434.9 434.9;" xml:space="preserve">
<style type="text/css">
	.st0{fill:#EDC148;}
	.st1{fill:#F2F2F2;}
	.st2{fill:#CCCCCC;}
	.st3{fill:#CEA43C;}
</style>
<g>
	<path class="st0" d="M121.6,227.6L121.6,227.6c0.2,0,7.1-0.3,7.1-0.3l1.4,4.4c0.2,0.5,0.4,1.1,0.6,1.6c2.3,5.8,6.8,10.6,12.6,13
		c2.1,0.8,4.2,1.5,6.5,1.8c24.4,4.1,36.8,14.4,36.8,14.4c-0.8,4.4-1.5,9-1.9,13.8c-0.3,2.3-0.4,4.7-0.5,7.2l15.8,14.2l22.7-20.4
		l22.7,20.4l21.3-19.2c0.3-2.8,0.4-5.5,0.6-8.2c0.5-9.1,0.4-17.5-0.1-25c-0.2-3.2-0.5-6.3-0.8-9.2l-8.4,1.4l-8.4-29.4l-30.1,5
		l-8.1-29.4l-30.1,5l-2.7-9.5l-0.3-0.9l0,0c0,0-0.1,0-0.1,0c-1.1,0-2.1,0.1-3.1,0.1c-7.4,0.4-13.8,1.2-19,2.1
		c-9.9,1.7-18.4,8-22.9,17C126.1,211.7,121.6,227.6,121.6,227.6z"/>
	<path class="st1" d="M180.3,347.2c-12.7,0-23,10.3-23,23c0,12.7,10.3,23,23,23c12.7,0,23-10.3,23-23
		C203.2,357.5,193,347.2,180.3,347.2z"/>
	<path class="st1" d="M218.1,313.5c-5.3,0-9.6,4.3-9.6,9.6s4.3,9.6,9.6,9.6s9.6-4.3,9.6-9.6C227.7,317.8,223.4,313.5,218.1,313.5z"
		/>
	<path class="st1" d="M265,362.3c-8.5,0-15.5,7-15.5,15.5s7,15.5,15.5,15.5s15.5-7,15.5-15.5S273.6,362.3,265,362.3z"/>
	<path class="st1" d="M285.6,325.7c-6.6,0-12,5.4-12,12s5.4,12,12,12c6.6,0,12-5.4,12-12S292.3,325.7,285.6,325.7z"/>
	<path class="st2" d="M143.3,287.6c-7.5,20.1-11.8,40.4-11.8,56.7c0,50.2,40.7,90.9,90.9,90.9s90.9-40.7,90.9-90.9
		c0-16.3-4.3-36.7-11.8-56.9l-11.3,10.1l-22.7-20.4l-1.3,1.2L245,297.6l-22.7-20.4l-22.7,20.4L184,283.4l-6.9-6.2l-22.7,20.4
		L143.3,287.6z M157.3,370.2c0-12.7,10.3-23,23-23c12.7,0,23,10.3,23,23s-10.3,23-23,23C167.6,393.2,157.3,382.9,157.3,370.2z
		 M208.5,323.1c0-5.3,4.3-9.6,9.6-9.6s9.6,4.3,9.6,9.6s-4.3,9.6-9.6,9.6S208.5,328.5,208.5,323.1z M249.5,377.9
		c0-8.5,7-15.5,15.5-15.5s15.5,7,15.5,15.5s-6.9,15.5-15.5,15.5S249.5,386.4,249.5,377.9z M273.6,337.7c0-6.6,5.4-12,12-12
		c6.6,0,12,5.4,12,12s-5.4,12-12,12C279,349.7,273.6,344.4,273.6,337.7z"/>
	<path class="st3" d="M184.5,276.3l15.2,13.7l22.7-20.4L245,290l21.3-19.2l0.6-0.6c-0.1,2.7-0.4,5.4-0.6,8.2L245,297.6l-22.7-20.4
		l-22.7,20.4L184,283.4C184.1,281,184.2,278.6,184.5,276.3z"/>
	<path class="st2" d="M176.3,170.9l2,7.3l0,0l2.8,10.4l15.7-2.6l14.4-2.4l3.4,12.2l4.7,17.2l30.1-5l8.2,29.4l8.4-1.4l0,0l9.5-1.6
		c-0.3-29-8-55.1-27-67.2C229.6,155.1,202.7,159.1,176.3,170.9z"/>
	<path class="st3" d="M175.1,178.4l2.5,9.4l0,0l2.8,10.4l15.7-2.6l14.4-2.4l3.4,12.2l4.7,17.2l30.1-5l8.2,29.4l8.4-1.4l0,0l1.5-0.3
		c-0.2-3.2-0.5-6.3-0.8-9.2l-8.4,1.4l-8.2-29.4l-30.1,5l-8.1-29.4l-30.1,5l-3-10.4C177.2,178.4,176.1,178.4,175.1,178.4z"/>
	<path class="st3" d="M128.7,227.4l1.4,4.4c0.2,0.5,0.4,1.1,0.6,1.6c24.2-1.9,53.5,2.8,65,7.3c12,4.7,24.1,2,24.1,2
		c-6.6-0.4-14.1-1.8-21.8-5C174.2,227.9,142.6,227.2,128.7,227.4z"/>
	<polygon points="187.3,212.7 207.5,211.7 207,203.4 	"/>
	<path class="st1" d="M245.7,171.3c-3.9,0-7,3.1-7,7c0,3.9,3.1,7,7,7c3.9,0,7-3.1,7-7C252.7,174.4,249.5,171.3,245.7,171.3z"/>
	<path class="st1" d="M196.4,182.5c0,1.3,0.2,2.5,0.4,3.6l14.4-2.4l3.4,12.2c5.7-1.8,9.9-7.1,9.9-13.4c0-7.8-6.3-14.1-14.1-14.1
		C202.7,168.4,196.4,174.7,196.4,182.5z"/>
	<path class="st1" d="M204.1,400.3c-3.5,0-6.3,2.8-6.3,6.3s2.8,6.3,6.3,6.3s6.3-2.8,6.3-6.3C210.5,403.1,207.6,400.3,204.1,400.3z"
		/>
	<path class="st1" d="M152.1,309.1c-3.5,0-6.3,2.8-6.3,6.3s2.8,6.3,6.3,6.3c3.5,0,6.3-2.8,6.3-6.3
		C158.5,311.9,155.7,309.1,152.1,309.1z"/>
</g>
</svg>
