<?xml version="1.0" encoding="utf-8"?>
<!-- Generator: Adobe Illustrator 24.0.0, SVG Export Plug-In . SVG Version: 6.00 Build 0)  -->
<svg version="1.1" id="Layer_1" xmlns="http://www.w3.org/2000/svg" xmlns:xlink="http://www.w3.org/1999/xlink" x="0px" y="0px"
	 viewBox="0 0 447.1 612" style="enable-background:new 0 0 447.1 612;" xml:space="preserve">
<style type="text/css">
	.st0{fill-rule:evenodd;clip-rule:evenodd;fill:#AFD1AC;}
</style>
<g>
	<path class="st0" d="M177.1,300.6c-8.6-12-21.1-16.5-31.3-27.4c-10.2-10.8-18.1-28-27-41.2c-8.9-13.2-18.9-22.5-31.8-21.2
		c-16,1.6-5.2,1.5-20-5.8c-8-4-19.7-8.1-28.3-14.3c-8.6-6.2-14.1-14.5-17-21.3c-2.8-6.8-3-12.1-4.3-12.1c-1.3,0.1-3.9,5.5-6.4,13.1
		c-2.6,7.6-5.1,17.4-5.8,28.3c-0.7,10.9,0.4,23.1,5.3,35.7c4.9,12.7,13.5,26,23.8,31.9c10.4,6,5.4,1.6,7.1,16.1
		c1.5,12.8,6,21.2,13.9,28.6c7.9,7.3,19.3,13.5,31,29.4c11.7,15.9,23.8,41.6,35.5,63.6c11.7,22,23.1,40.3,29.2,56.2
		c26.2,68.5,96.7,168.1,190.8,149.4c86.6-17.2,40.2-116.8,41.7-191.7c0.4-17.1,4.9-38.3,8.4-64.5c3.6-26.2,6.1-57.4,13.7-80.3
		c7.6-22.9,20.2-37.5,22.5-55.3c0.9-7-3.2-19,0.3-23.2c7.6-9.3,11.3-24.7,11.6-38.4c0.3-13.6-2.7-25.4-7-35.4
		c-4.4-10-10.1-18.3-15-24.5c-5-6.2-9.2-10.5-10.5-10.1c-1.3,0.4,0.4,5.5,0,12.9c-0.4,7.4-2.8,17.1-8.8,26
		c-6,8.9-15.5,16.8-21.7,23.4c-9.1,9.6-3.2,5.6-14.3,11.2c-10.7,5.3-12,18.1-16.4,32.8c-4.4,14.7-11.8,31.4-20.2,44.9
		c-8.4,13.5-13.6,21.9-17.2,37.1c-3.5,14.6-5,35.3-4.9,44.8c0.2,14.6-1.7,11.8-9.6-25.4c-4.3-20.3-9-39.7-14.2-55.5
		c-3.9-19.6-7.4-36.5-9.2-55c-2.3-23.2-1.9-48.9-8.2-68c-2.3-7.1-10.6-14.1-15-20.2c-2.4-3.2-2.8-7.9-2.7-8.3
		c2.3-10.6-2.5-25.8-9.3-37.7c-6.8-11.9-15.6-20.6-22.8-30.1c-7.3-9.5-13-19.8-16.8-19.2s-5.6,11.9-8.8,22.4
		c-3.2,10.5-7.9,20.1-11.3,30.7c-3.4,10.5-5.5,22-3.3,32c6.2,28.2-7.8,16.9-7,48.2c0.5,20.1,9.5,44.1,15.2,66.7
		c4.5,18,7,35.1,9.9,54.9c0.5,16.6,2.6,36.5,5.4,57.1C206.5,386.2,198.4,330.5,177.1,300.6z"/>
</g>
</svg>
