<?xml version="1.0" encoding="utf-8"?>
<!-- Generator: Adobe Illustrator 24.0.0, SVG Export Plug-In . SVG Version: 6.00 Build 0)  -->
<svg version="1.1" id="Capa_1" xmlns="http://www.w3.org/2000/svg" xmlns:xlink="http://www.w3.org/1999/xlink" x="0px" y="0px"
	 viewBox="0 0 344.2 344.2" style="enable-background:new 0 0 344.2 344.2;" xml:space="preserve">
<style type="text/css">
	.st0{fill:#98C79C;}
	.st1{fill:#ABD1AD;}
	.st2{fill:#272525;}
	.st3{fill:#FFE477;}
</style>
<g id="XMLID_308_">
	<path id="XMLID_44_" class="st0" d="M214.8,344h-4.7c-8.4,0-15.3-6.8-15.3-15.3V281h35.3v47.7C230.1,337.2,223.3,344,214.8,344z"/>
	<path id="XMLID_43_" class="st0" d="M262.9,340.2l-4.3,1.9c-7.7,3.5-16.7,0.1-20.2-7.6l-19.7-43.4l32.1-14.6l19.7,43.4
		C274,327.7,270.6,336.7,262.9,340.2z"/>
	<path id="XMLID_42_" class="st1" d="M107.7,343.6l-4.5-1.3c-8.1-2.3-12.8-10.8-10.5-18.9l13.1-45.9l33.9,9.7l-13.1,45.9
		C124.3,341.2,115.8,345.9,107.7,343.6z"/>
	<path id="XMLID_41_" class="st1" d="M154.9,344h-4.7c-8.4,0-15.3-6.8-15.3-15.3V281h35.3v47.7C170.2,337.2,163.4,344,154.9,344z"/>
	<path id="XMLID_309_" class="st1" d="M344.2,208.2c-11,64-33.5,78.1-64.2,89.9c-33.6,13-60.8,12.7-77.2,12.7c-2.9,0-5.7,0-8.4,0
		c-1,0-1.9,0-2.8,0c-0.4,0-0.8,0-1.2,0c-1,0-2.1,0-3.1,0c-2.1,0-4.1,0-6.1-0.1c-1.3,0-2.6,0-3.8-0.1c-0.7,0-1.3,0-2,0
		c-1.1,0-2.2-0.1-3.3-0.1c-0.7,0-1.5,0-2.2,0l-32.3-1.6c-45.7-3.5-29-45.7-55.5-40.7c-27.9,5.3-64.4-0.4-70-20
		c-11.5-40.3,35.1-50.1,34-53.7c-12.8-40.1,31.3-73.9,54.5-79.6c41.9-10.2,69.1,14.5,71.5,41.2v0c0,0.1,0,0.2,0,0.3
		c0,0.3,0.1,0.7,0.1,1c0,0.4,0.1,0.8,0.1,1.2c0,0.2,0,0.4,0,0.6c0,0.2,0,0.4,0,0.6c0,0.5,0,1,0,1.5c0,0.4,0,0.8-0.1,1.2
		c0,0.3,0,0.7-0.1,1c5.1-0.2,12.6-0.7,18.8-0.7c3.1,0,5.8,0.1,7.9,0.4c6.3,0.9,11.9,2.1,16.8,3.5c2.3,0.6,4.4,1.3,6.4,2
		c7.3,2.6,13.1,5.9,17.8,9.7c1.2,0.9,2.3,1.9,3.3,2.9c5.9,5.6,10.3,12.2,14.8,19.8c1.8,3,3.6,6.2,5.5,9.5
		c3.1,5.4,6.6,11.2,10.7,17.4c1,1.5,2,2.8,3,3.9C302,259.9,344.2,208.2,344.2,208.2z"/>
	<polygon id="XMLID_39_" class="st1" points="22.6,240.1 0,186.9 55,204.8 	"/>
	<g id="XMLID_311_">
		<path id="XMLID_312_" class="st0" d="M172.1,156.1v7.5C172.3,161.1,172.3,158.6,172.1,156.1z"/>
		<path id="XMLID_333_" class="st0" d="M344.2,208.2c-11,64-33.5,78.1-64.2,89.9c-33.6,13-60.8,12.7-77.2,12.7c-2.9,0-5.7,0-8.4,0
			c-1,0-1.9,0-2.8,0c-0.4,0-0.8,0-1.2,0c-1,0-2.1,0-3.1,0c-2.1,0-4.1,0-6.1-0.1c-1.3,0-2.6,0-3.8-0.1c-0.7,0-1.3,0-2,0
			c-1.1,0-2.2-0.1-3.3-0.1V163.5c5.1-0.2,12.6-0.7,18.8-0.7c3.1,0,5.8,0.1,7.9,0.4c6.3,0.9,11.9,2.1,16.8,3.5c2.3,0.6,4.4,1.3,6.4,2
			c7.3,2.6,13.1,5.9,17.8,9.7c1.2,0.9,2.3,1.9,3.3,2.9c5.9,5.6,10.3,12.2,14.8,19.8c1.8,3,3.6,6.2,5.5,9.5
			c3.1,5.4,6.6,11.2,10.7,17.4c1,1.5,2,2.8,3,3.9C302,259.9,344.2,208.2,344.2,208.2z"/>
	</g>
	<circle id="XMLID_334_" class="st2" cx="72.1" cy="218.2" r="10"/>
	<path id="XMLID_337_" class="st3" d="M211,186.6c-5.9,1.9-15.2-10.3-20.1-23.8c3.1,0,5.8,0.1,7.9,0.4c6.3,0.9,11.9,2.1,16.8,3.5
		C216.6,176.6,215.3,185.2,211,186.6z"/>
	<path id="XMLID_338_" class="st3" d="M239.8,178.5c-4.2,6.7-8.9,11-12.6,10c-4.3-1.3-6-9.8-5.2-19.7
		C229.3,171.4,235,174.6,239.8,178.5z"/>
	<path id="XMLID_340_" class="st3" d="M257.9,201.2c-3.8,5.1-7.9,8.2-11,7.2c-5.4-1.6-6.4-14.4-3.8-27.1
		C249,186.9,253.4,193.6,257.9,201.2z"/>
	<path id="XMLID_341_" class="st3" d="M277.2,232.1c-3.5,4.3-7.1,6.8-10,5.9c-5.4-1.6-6.4-14.5-3.8-27.3c3.1,5.4,6.6,11.2,10.7,17.4
		C275.2,229.6,276.2,231,277.2,232.1z"/>
</g>
</svg>
