<?xml version="1.0" encoding="utf-8"?>
<!-- Generator: Adobe Illustrator 24.0.0, SVG Export Plug-In . SVG Version: 6.00 Build 0)  -->
<svg version="1.1" id="Layer_1" xmlns="http://www.w3.org/2000/svg" xmlns:xlink="http://www.w3.org/1999/xlink" x="0px" y="0px"
	 viewBox="0 0 36 36" style="enable-background:new 0 0 36 36;" xml:space="preserve">
<style type="text/css">
	.st0{fill:#1C6399;}
	.st1{fill:#2EEFC1;}
	.st2{fill:#292F33;}
</style>
<path class="st0" d="M20,20.2c-0.4,0-0.9,0-1.3,0c-0.4,1.3-0.5,2.7,0,5.1c0.3,1.6,2.7,6.3,4.6,7.9c0.7,0.6,1.6,0.9,2.7,0.9
	c2.1,0,4.7-1.3,6.2-4C35.1,24.5,28.7,20.2,20,20.2z"/>
<path class="st0" d="M33.7,2C33.5,2,33.2,2,33,2c-3.2,0.6-9.3,5.1-14.3,11.8c0,0-0.8,5.2-0.8,6.2c0,0.3,1.3,0.5,3.1,0.5
	c3.7,0,9.7-0.7,11.4-2c1.9-1.5,3.7-9.8,3.5-14.1C35.9,3.2,35.2,2,33.7,2z"/>
<path class="st1" d="M27.1,13.9l6.6-0.4c0,0-1.1,3.6-3.1,4.7s-7.7,1.5-7.7,1.5s2.3-4.3,3.3-5.3C26.4,14.1,26.8,14,27.1,13.9z
	 M27.6,12l7.5-8.2c0,0,0,5.4-1.2,8.6c0,0-5.4,0.4-5.9,0.4C27.3,12.9,27.1,12.6,27.6,12z M21.5,19.7l5.5-8.5c0.2-0.2,0.3-0.5,0.2-0.8
	l-1-3.2l-6.7,6.6l-0.8,6L21.5,19.7z M27.9,8.9C28,9.3,28.4,9.4,28.8,9s6.1-6.1,6-6.2c0,0-2.8-1.2-7.8,3.5C27,6.3,27.7,8.5,27.9,8.9z
	 M18.9,21l5.4,5.2c0.2,0.2,0.3,0.5,0.1,0.7l-2.4,4.3C22.1,31.3,17.9,25.8,18.9,21z M26.2,27.3l5.5,0.7c0,0-1.1,3.8-3.4,4.9
	c-3.9,1.7-5.3-0.6-5.3-0.6l2.4-4.6C25.6,27.4,25.9,27.2,26.2,27.3z M20.3,20.9l5.4,5c0.1,0.1,0.2,0.1,0.3,0.1l6.1,0.9
	c0,0-1.2-3-4.4-4.5C23.9,20.6,20.3,20.9,20.3,20.9z"/>
<path class="st2" d="M20,20.2c-0.4,0-0.9,0-1.3,0c-0.4,1.3-0.5,2.7,0,5.1c0.3,1.6,2.7,6.3,4.6,7.9c0.7,0.6,1.6,0.9,2.7,0.9
	c2.1,0,4.7-1.3,6.2-4C35.1,24.5,28.7,20.2,20,20.2z M30.5,29.6c-1.3,2.5-3,3.5-4.6,3.5c-0.8,0-1.7-0.3-2.1-0.7
	c-1.7-1.4-3.4-4.6-4.3-7.2c-0.5-1.5-0.4-4-0.4-4l0.7,0c5.2,0,9.2,2.1,10.7,4.5C31.3,26.8,31.3,28.1,30.5,29.6z"/>
<path class="st2" d="M33.7,3.2c0.2,0,0.9,0,1,1.2c0.1,2.7-0.6,6.1-1.4,8.9c-0.5,1.9-1.6,3.3-2.1,3.7c-0.6,0.4-1.9,1.2-3.7,1.6
	c-2,0.4-4.2,0.8-6.5,0.8c-0.8,0-1.4,0-1.8,0c0.1-1.2,0.5-3.6,0.7-5.1c3.8-4.9,9.7-10.4,13.3-11C33.4,3.2,33.5,3.2,33.7,3.2 M33.7,2
	C33.5,2,33.2,2,33,2c-3.2,0.6-9.3,5.1-14.3,11.8c0,0-0.8,5.2-0.8,6.2c0,0.3,1.3,0.5,3.1,0.5c3.7,0,9.7-0.7,11.4-2
	c1.9-1.5,3.7-9.8,3.5-14.1C35.9,3.2,35.2,2,33.7,2z"/>
<path class="st0" d="M3.9,30.2c1.5,2.8,4,4,6.2,4c1.1,0,2-0.3,2.7-0.9c1.9-1.6,4.3-6.3,4.6-7.9c0.5-2.4,0.4-3.8,0-5.1
	c-0.4,0-0.9,0-1.3,0C7.4,20.2,0.9,24.5,3.9,30.2z"/>
<path class="st0" d="M2.6,2C1.1,2,0.4,3.3,0.4,4.5C0.2,8.7,2,17.1,3.9,18.5c1.7,1.3,7.7,2,11.4,2c1.8,0,3.1-0.2,3.1-0.5
	c0-1-0.8-6.2-0.8-6.2C12.6,7.2,6.5,2.7,3.3,2.1C3.1,2.1,2.9,2,2.6,2z"/>
<path class="st1" d="M8.9,13.9l-6.6-0.4c0,0,1.1,3.6,3.1,4.7s7.7,1.5,7.7,1.5s-2.3-4.3-3.3-5.3C9.6,14.1,9.3,14,8.9,13.9z M8.4,12
	L0.9,3.8c0,0,0,5.4,1.2,8.6c0,0,5.4,0.4,5.9,0.4C8.7,12.9,9,12.6,8.4,12z M14.5,19.7L9,11.1c-0.2-0.2-0.3-0.5-0.2-0.8l1-3.2l6.7,6.6
	l0.8,6L14.5,19.7z M8.2,8.9C8,9.3,7.7,9.4,7.2,9s-6.1-6.1-6-6.2c0,0,2.8-1.2,7.8,3.5C9,6.3,8.4,8.5,8.2,8.9z M17.1,21l-5.4,5.2
	c-0.2,0.2-0.3,0.5-0.1,0.7l2.4,4.3C14,31.3,18.2,25.8,17.1,21z M9.8,27.3L4.3,28c0,0,1.1,3.8,3.4,4.9c3.9,1.7,5.3-0.6,5.3-0.6
	l-2.4-4.6C10.5,27.4,10.2,27.2,9.8,27.3z M15.8,20.9l-5.4,5c-0.1,0.1-0.2,0.1-0.3,0.1L4,26.8c0,0,1.2-3,4.4-4.5
	C12.1,20.6,15.8,20.9,15.8,20.9z"/>
<path class="st2" d="M3.9,30.2c1.5,2.8,4,4,6.2,4c1.1,0,2-0.3,2.7-0.9c1.9-1.6,4.3-6.3,4.6-7.9c0.5-2.4,0.4-3.8,0-5.1
	c-0.4,0-0.9,0-1.3,0C7.4,20.2,0.9,24.5,3.9,30.2z M5.4,25.6c1.5-2.5,5.6-4.5,10.7-4.5l0.7,0c0,0,0.1,2.5-0.4,4
	c-0.8,2.6-2.6,5.8-4.3,7.2c-0.4,0.4-1.4,0.7-2.1,0.7c-1.5,0-3.2-1-4.6-3.5C4.7,28.1,4.7,26.8,5.4,25.6z"/>
<path class="st2" d="M2.4,3.2c0.1,0,0.3,0,0.4,0c3.6,0.7,9.6,6.1,13.3,11c0.2,1.5,0.6,3.8,0.7,5.1c-0.4,0-1,0-1.8,0
	c-2.2,0-4.4-0.5-6.5-0.8c-1.9-0.3-3.2-1.1-3.7-1.6c-0.5-0.4-1.6-1.8-2.1-3.7C2,10.5,1.3,7.1,1.4,4.4C1.4,3.2,2.1,3.2,2.4,3.2 M2.4,2
	C0.8,2,0.2,3.2,0.1,4.4C0,8.7,1.7,17,3.6,18.5c1.7,1.3,7.7,2,11.4,2c1.8,0,3.1-0.2,3.1-0.5c0-1-0.8-6.2-0.8-6.2
	C12.3,7.2,6.2,2.6,3,2C2.8,2,2.6,2,2.4,2z"/>
<path class="st2" d="M21.9,4.8c-0.2-0.1-0.6,0-0.7,0.2c0,0,0,0,0,0l-2.7,5c0,0,0,0.1,0,0.1c-0.1,0-0.2,0-0.4,0c-0.1,0-0.3,0-0.4,0
	c0,0,0-0.1,0-0.1l-2.7-5c-0.1-0.2-0.5-0.3-0.7-0.2S13.8,5.2,14,5.5l2.7,4.8c-1.2,0.8,1.1,3.4,0.4,9.2c-1,7.8,1,9.8,1,9.8
	s2.1-2.1,1-9.8c-0.8-5.8,1.6-8.4,0.4-9.2l2.7-4.8C22.2,5.2,22.1,4.9,21.9,4.8C21.9,4.8,21.9,4.8,21.9,4.8z"/>
</svg>
