<?xml version="1.0" encoding="iso-8859-1"?>
<!-- Generator: Adobe Illustrator 19.0.0, SVG Export Plug-In . SVG Version: 6.00 Build 0)  -->
<svg version="1.1" id="Layer_1" xmlns="http://www.w3.org/2000/svg" xmlns:xlink="http://www.w3.org/1999/xlink" x="0px" y="0px"
	 viewBox="0 0 504.123 504.123" style="enable-background:new 0 0 504.123 504.123;" xml:space="preserve">
<path style="fill:#844618;" d="M382.023,183.044c0,5.183-4.183,9.366-9.366,9.366h-33.319c-5.175,0-9.381-4.183-9.381-9.366v-64.047
	c0-5.183,4.206-9.381,9.381-9.381h33.319c5.183,0,9.366,4.198,9.366,9.381V183.044z"/>
<path style="fill:#AA5F22;" d="M382.023,481.154v-256c0-9.941-5.285-19.078-13.879-24.048l-102.219-59.03
	c-8.586-4.939-19.188-4.939-27.758,0l-102.203,59.03c-8.594,4.97-13.887,14.108-13.887,24.048v256H382.023z"/>
<path style="fill:#994F19;" d="M382.023,481.154v-256c0-9.941-5.285-19.078-13.879-24.048l-102.219-59.03
	c-8.586-4.939-19.188-4.939-27.758,0l-102.203,59.03c-8.594,4.97-13.887,14.108-13.887,24.048"/>
<path style="fill:#844618;" d="M238.167,146.227l-82.101,47.419H348.05l-82.125-47.419
	C257.347,141.296,246.745,141.296,238.167,146.227z"/>
<path style="fill:#D8B77C;" d="M412.042,236.843c-3.356,0-6.735-0.843-9.83-2.631L261.333,152.86
	c-5.711-3.308-12.863-3.293-18.59,0.016l-140.831,81.337c-9.397,5.427-21.457,2.213-26.9-7.215
	c-5.435-9.413-2.221-21.465,7.207-26.892l140.847-81.353c17.888-10.295,40.062-10.295,57.927-0.016l140.902,81.369
	c9.421,5.427,12.642,17.479,7.2,26.892C425.464,233.322,418.84,236.843,412.042,236.843z"/>
<path style="fill:#C19F5B;" d="M412.042,236.843c-3.356,0-6.735-0.843-9.83-2.631L261.333,152.86
	c-5.711-3.308-12.863-3.293-18.59,0.016l-140.831,81.337c-9.397,5.427-21.457,2.213-26.9-7.215
	c-5.435-9.413-2.221-21.465,7.207-26.892l140.847-66.859c17.888-10.295,40.062-10.295,57.927-0.016l140.902,66.875
	c9.421,5.427,12.642,17.479,7.2,26.892C425.464,233.322,418.84,236.843,412.042,236.843z"/>
<line style="fill:none;stroke:#AA5F22;stroke-miterlimit:10;" x1="122.084" y1="307.862" x2="382.023" y2="307.862"/>
<g>
	<path style="fill:#C18440;" d="M396.288,317.046c0,7.971-6.475,14.446-14.446,14.446H127.149c-7.971,0-14.431-6.475-14.431-14.446
		l0,0c0-7.987,6.459-14.446,14.431-14.446h254.692C389.805,302.6,396.288,309.059,396.288,317.046L396.288,317.046z"/>
	<path style="fill:#C18440;" d="M396.288,370.877c0,7.971-6.475,14.431-14.446,14.431H127.149c-7.971,0-14.431-6.459-14.431-14.431
		l0,0c0-7.987,6.459-14.446,14.431-14.446h254.692C389.805,356.431,396.288,362.89,396.288,370.877L396.288,370.877z"/>
	<path style="fill:#C18440;" d="M396.288,424.692c0,7.971-6.475,14.446-14.446,14.446H127.149c-7.971,0-14.431-6.475-14.431-14.446
		l0,0c0-7.987,6.459-14.446,14.431-14.446h254.692C389.805,410.246,396.288,416.705,396.288,424.692L396.288,424.692z"/>
</g>
<path style="fill:#6D350F;" d="M294.14,475.711c0,4.458-3.608,8.058-8.05,8.058h-68.033c-4.466,0-8.074-3.6-8.074-8.058V355.289
	c0-4.443,3.608-8.058,8.074-8.058h68.033c4.443,0,8.05,3.616,8.05,8.058V475.711z"/>
<g>
	<polygon style="fill:#65930C;" points="56.485,492.969 28.247,464.723 0,492.969 	"/>
	<polygon style="fill:#65930C;" points="90.915,492.969 62.677,464.723 34.422,492.969 	"/>
	<polygon style="fill:#65930C;" points="125.353,492.969 97.107,464.723 68.852,492.969 	"/>
	<polygon style="fill:#65930C;" points="159.783,492.969 131.552,464.723 103.306,492.969 	"/>
	<polygon style="fill:#65930C;" points="194.213,492.969 165.983,464.723 137.728,492.969 	"/>
	<polygon style="fill:#65930C;" points="228.643,492.969 200.413,464.723 172.158,492.969 	"/>
	<polygon style="fill:#65930C;" points="263.089,492.969 234.843,464.723 206.596,492.969 	"/>
	<polygon style="fill:#65930C;" points="297.519,492.969 269.273,464.723 241.042,492.969 	"/>
	<polygon style="fill:#65930C;" points="331.965,492.969 303.734,464.723 275.487,492.969 	"/>
	<polygon style="fill:#65930C;" points="366.387,492.969 338.156,464.723 309.902,492.969 	"/>
	<polygon style="fill:#65930C;" points="400.809,492.969 372.594,464.723 344.34,492.969 	"/>
	<polygon style="fill:#65930C;" points="435.263,492.969 407.009,464.723 378.77,492.969 	"/>
	<polygon style="fill:#65930C;" points="469.693,492.969 441.439,464.723 413.2,492.969 	"/>
	<polygon style="fill:#65930C;" points="504.123,492.969 475.876,464.723 447.63,492.969 	"/>
</g>
<g>
	<circle style="fill:#8FD7FF;" cx="232.33" cy="417.319" r="8.365"/>
	<circle style="fill:#8FD7FF;" cx="252.062" cy="241.585" r="38.731"/>
</g>
<path style="fill:#844E25;" d="M252.054,284.215c-23.52,0-42.661-19.141-42.661-42.661s19.141-42.661,42.661-42.661
	s42.677,19.141,42.677,42.661S275.574,284.215,252.054,284.215z M252.054,206.769c-19.18,0-34.785,15.596-34.785,34.785
	s15.604,34.785,34.785,34.785c19.196,0,34.8-15.596,34.8-34.785S271.25,206.769,252.054,206.769z"/>
<g>
	<rect x="247.461" y="192.323" style="fill:#844618;" width="9.192" height="98.462"/>
	<rect x="202.831" y="236.954" style="fill:#844618;" width="98.462" height="9.2"/>
</g>
<path style="fill:#C19F5B;" d="M397.596,108.308c0,5.797-4.71,10.508-10.508,10.508h-60.384c-5.797,0-10.508-4.71-10.508-10.508l0,0
	c0-5.797,4.71-10.508,10.508-10.508h60.384C392.885,97.8,397.596,102.51,397.596,108.308L397.596,108.308z"/>
<g>
	<circle style="fill:#A8BDC6;" cx="307.657" cy="29.861" r="14.769"/>
	<circle style="fill:#A8BDC6;" cx="311.611" cy="65.308" r="6.892"/>
	<circle style="fill:#A8BDC6;" cx="363.284" cy="57.927" r="17.235"/>
	<circle style="fill:#A8BDC6;" cx="344.537" cy="21.496" r="2.458"/>
	<circle style="fill:#A8BDC6;" cx="336.66" cy="77.619" r="4.427"/>
	<circle style="fill:#A8BDC6;" cx="390.853" cy="26.419" r="15.265"/>
</g>
<g>
</g>
<g>
</g>
<g>
</g>
<g>
</g>
<g>
</g>
<g>
</g>
<g>
</g>
<g>
</g>
<g>
</g>
<g>
</g>
<g>
</g>
<g>
</g>
<g>
</g>
<g>
</g>
<g>
</g>
</svg>
