<?xml version="1.0" encoding="iso-8859-1"?>
<!-- Generator: Adobe Illustrator 19.0.0, SVG Export Plug-In . SVG Version: 6.00 Build 0)  -->
<svg version="1.1" id="Layer_1" xmlns="http://www.w3.org/2000/svg" xmlns:xlink="http://www.w3.org/1999/xlink" x="0px" y="0px"
	 viewBox="0 0 512 512" style="enable-background:new 0 0 512 512;" xml:space="preserve">
<g transform="translate(0 -1)">
	<polygon style="fill:#35495E;" points="13.714,494.712 50.286,494.712 50.286,256.997 13.714,256.997 	"/>
	<g>
		<path style="fill:#243442;" d="M50.286,467.286L50.286,467.286V284.429c30.299,0,54.857,24.558,54.857,54.857v73.143
			C105.143,442.728,80.585,467.286,50.286,467.286"/>
		<polygon style="fill:#243442;" points="361.143,375.857 288,375.857 269.714,339.286 379.429,339.286 		"/>
	</g>
	<path style="fill:#F3D55B;" d="M498.286,174.714c0,95.936-77.778,173.714-173.714,173.714S150.857,270.65,150.857,174.714
		S228.635,1,324.571,1S498.286,78.778,498.286,174.714"/>
	<path style="fill:#35495E;" d="M306.286,375.857c0,55.451-45.12,100.571-100.571,100.571s-100.571-45.12-100.571-100.571v36.571
		c0,14.446-5.632,27.557-14.757,37.349C114.798,487.738,157.321,513,205.714,513c75.621,0,137.143-61.522,137.143-137.143H306.286z"
		/>
	<path style="fill:#FFFFFF;" d="M205.714,183.857c-5.056,0-9.143-4.096-9.143-9.143c0-70.583,57.417-128,128-128
		c5.056,0,9.143,4.096,9.143,9.143S329.627,65,324.571,65c-60.498,0-109.714,49.216-109.714,109.714
		C214.857,179.761,210.77,183.857,205.714,183.857"/>
</g>
<g>
</g>
<g>
</g>
<g>
</g>
<g>
</g>
<g>
</g>
<g>
</g>
<g>
</g>
<g>
</g>
<g>
</g>
<g>
</g>
<g>
</g>
<g>
</g>
<g>
</g>
<g>
</g>
<g>
</g>
</svg>
