<?xml version="1.0" encoding="iso-8859-1"?>
<!-- Generator: Adobe Illustrator 19.0.0, SVG Export Plug-In . SVG Version: 6.00 Build 0)  -->
<svg version="1.1" id="Layer_1" xmlns="http://www.w3.org/2000/svg" xmlns:xlink="http://www.w3.org/1999/xlink" x="0px" y="0px"
	 viewBox="0 0 473.931 473.931" style="enable-background:new 0 0 473.931 473.931;" xml:space="preserve">
<circle style="fill:#E8E8DF;" cx="236.966" cy="236.966" r="236.966"/>
<g>
	<path style="fill:#93793D;" d="M240.928,238.724c-13.691,0-24.793,11.102-24.793,24.797v152.656
		c0,13.691,11.102,15.431,24.793,15.431c13.695,0,24.793-1.74,24.793-15.431V263.521
		C265.721,249.822,254.623,238.724,240.928,238.724z"/>
	<polygon style="fill:#93793D;" points="251.865,345.544 319.846,309.376 325.458,313.118 261.22,372.986 	"/>
	<polygon style="fill:#93793D;" points="235.035,335.569 164.563,238.904 159.65,242.646 220.689,361.14 	"/>
</g>
<g>
	<circle style="fill:#65A844;" cx="152.907" cy="206.47" r="39.288"/>
	<circle style="fill:#65A844;" cx="332.306" cy="206.47" r="39.288"/>
	<circle style="fill:#65A844;" cx="193.501" cy="244.449" r="39.288"/>
	<circle style="fill:#65A844;" cx="294.327" cy="243.14" r="39.288"/>
	<circle style="fill:#65A844;" cx="243.252" cy="254.926" r="39.288"/>
	<circle style="fill:#65A844;" cx="193.501" cy="172.42" r="39.288"/>
	<circle style="fill:#65A844;" cx="294.327" cy="172.42" r="39.288"/>
	<circle style="fill:#65A844;" cx="175.167" cy="127.893" r="39.288"/>
	<circle style="fill:#65A844;" cx="307.423" cy="127.893" r="39.288"/>
	<circle style="fill:#65A844;" cx="155.523" cy="161.943" r="39.288"/>
	<circle style="fill:#65A844;" cx="329.686" cy="161.943" r="39.288"/>
	<circle style="fill:#65A844;" cx="243.252" cy="172.42" r="68.1"/>
	<circle style="fill:#65A844;" cx="202.654" cy="112.178" r="39.288"/>
	<circle style="fill:#65A844;" cx="243.252" cy="97.772" r="39.288"/>
	<circle style="fill:#65A844;" cx="281.231" cy="112.178" r="39.288"/>
</g>
<g>
	<path style="fill:#5C9340;" d="M291.723,164.013c-4.086,0-8.026-0.43-11.82-1.164c-9.089,9.44-23.427,15.566-39.603,15.566
		c-15.906,0-30.028-5.908-39.139-15.076c-2.911,0.419-5.904,0.674-8.965,0.674c-23.18,0-42.607-12.535-48.134-29.466
		c-1.025,3.143-1.635,6.425-1.635,9.822c0,21.698,22.282,39.288,49.769,39.288c3.061,0,6.054-0.251,8.965-0.674
		c9.111,9.167,23.233,15.076,39.139,15.076c16.176,0,30.514-6.125,39.603-15.566c3.798,0.73,7.734,1.164,11.82,1.164
		c27.487,0,49.765-17.59,49.765-39.288c0-3.398-0.602-6.679-1.635-9.822C334.326,151.478,314.907,164.013,291.723,164.013z"/>
	<path style="fill:#5C9340;" d="M299.053,220.738c-4.688,0-9.208-0.498-13.564-1.332c-10.425,10.836-26.877,17.856-45.436,17.856
		c-18.249,0-34.45-6.78-44.901-17.294c-3.345,0.479-6.776,0.771-10.29,0.771c-26.593,0-48.879-14.38-55.225-33.807
		c-1.179,3.607-1.875,7.371-1.875,11.27c0,24.89,25.564,45.077,57.099,45.077c3.514,0,6.945-0.292,10.29-0.771
		c10.451,10.518,26.653,17.294,44.901,17.294c18.559,0,35.008-7.027,45.436-17.859c4.355,0.842,8.875,1.336,13.564,1.336
		c31.536,0,57.092-20.187,57.092-45.077c0-3.899-0.692-7.663-1.871-11.27C347.931,206.358,325.649,220.738,299.053,220.738z"/>
	<path style="fill:#5C9340;" d="M275.513,115.74c-2.75,0-5.411-0.292-7.97-0.786c-6.133,6.368-15.798,10.499-26.705,10.499
		c-10.724,0-20.247-3.981-26.394-10.166c-1.957,0.284-3.977,0.453-6.043,0.453c-15.633,0-28.729-8.449-32.46-19.872
		c-0.692,2.118-1.1,4.333-1.1,6.623c0,14.63,15.027,26.495,33.56,26.495c2.065,0,4.086-0.172,6.043-0.453
		c6.148,6.178,15.67,10.166,26.394,10.166c10.907,0,20.572-4.131,26.705-10.499c2.559,0.498,5.22,0.786,7.97,0.786
		c18.533,0,33.56-11.865,33.56-26.495c0-2.286-0.408-4.501-1.104-6.623C304.243,107.295,291.146,115.74,275.513,115.74z"/>
</g>
<g>
	<circle style="fill:#65A844;" cx="314.869" cy="308.62" r="7.854"/>
	<circle style="fill:#65A844;" cx="350.491" cy="312.849" r="7.854"/>
	<circle style="fill:#65A844;" cx="322.053" cy="317.114" r="7.854"/>
	<circle style="fill:#65A844;" cx="342.334" cy="317.376" r="7.858"/>
	<circle style="fill:#65A844;" cx="331.782" cy="319.434" r="7.858"/>
	<circle style="fill:#65A844;" cx="323.737" cy="302.821" r="7.854"/>
	<circle style="fill:#65A844;" cx="343.755" cy="305.178" r="7.854"/>
	<circle style="fill:#65A844;" cx="321.155" cy="293.541" r="7.854"/>
	<circle style="fill:#65A844;" cx="347.422" cy="296.647" r="7.854"/>
	<circle style="fill:#65A844;" cx="316.441" cy="299.865" r="7.854"/>
	<circle style="fill:#65A844;" cx="351.015" cy="303.943" r="7.85"/>
	<circle style="fill:#65A844;" cx="333.615" cy="303.981" r="13.613"/>
	<circle style="fill:#65A844;" cx="326.992" cy="291.072" r="7.854"/>
	<circle style="fill:#65A844;" cx="335.374" cy="289.163" r="7.854"/>
	<circle style="fill:#65A844;" cx="342.558" cy="292.905" r="7.854"/>
</g>
<path style="fill:#5C9340;" d="M342.034,311.206c-0.715,0-1.403-0.075-2.069-0.206c-1.594,1.654-4.108,2.728-6.941,2.728
	c-2.784,0-5.261-1.033-6.855-2.642c-0.513,0.075-1.036,0.116-1.572,0.116c-4.064,0-7.469-2.196-8.438-5.164
	c-0.18,0.55-0.288,1.126-0.288,1.721c0,3.802,3.91,6.885,8.726,6.885c0.535,0,1.059-0.045,1.572-0.116
	c1.594,1.609,4.071,2.642,6.855,2.642c2.836,0,5.351-1.074,6.941-2.728c0.666,0.131,1.351,0.206,2.069,0.206
	c4.819,0,8.722-3.083,8.722-6.885c0-0.595-0.105-1.171-0.284-1.721C349.507,309.01,346.098,311.206,342.034,311.206z"/>
<g>
</g>
<g>
</g>
<g>
</g>
<g>
</g>
<g>
</g>
<g>
</g>
<g>
</g>
<g>
</g>
<g>
</g>
<g>
</g>
<g>
</g>
<g>
</g>
<g>
</g>
<g>
</g>
<g>
</g>
</svg>
