<?xml version="1.0" encoding="utf-8"?>
<!-- Generator: Adobe Illustrator 24.0.0, SVG Export Plug-In . SVG Version: 6.00 Build 0)  -->
<svg version="1.1" id="Layer_1" xmlns="http://www.w3.org/2000/svg" xmlns:xlink="http://www.w3.org/1999/xlink" x="0px" y="0px"
	 viewBox="0 0 100 100" style="enable-background:new 0 0 100 100;" xml:space="preserve">
<style type="text/css">
	.st0{fill:#7CA07D;}
</style>
<g transform="translate(0.000000,1280.000000) scale(0.100000,-0.100000)">
	<path class="st0" d="M494.1,12796.5c0.3-2.5,0.2-2.5-2.1-1.3c-1.5,0.8-1.6,0.7-0.8-0.3c0.9-1,0.3-1.3-3.7-2.5
		c-2.7-0.7-6.4-2.1-8.5-3.1l-3.8-1.8l-1.3,1.6l-1.4,1.6l0.9-1.6c0.9-1.5,0.4-2.2-4.6-7.2c-3.1-3.1-5.7-5.2-6-4.6
		c-0.2,0.5-0.4,0.4-0.4-0.3c-0.1-0.7-1.3-3.7-2.7-6.8c-1.5-3-3.1-7.1-3.7-9s-1.4-3.7-1.9-4c-0.5-0.4-0.5-0.6,0-0.7
		c0.5,0-0.1-0.4-1.2-0.7l-2-0.6l1.9-0.1c1.9-0.1,1.9-0.1,0.5-1.6c-1-1.1-1.1-1.5-0.3-1.2c0.9,0.3,1-0.8,0.9-6.7
		c-0.2-6.6-0.4-7.1-1.6-6.1c-1.2,0.9-1.2,0.8,0-0.6c1.1-1.3,1.2-1.8,0.5-2.5s-0.7-0.9,0.2-0.9c0.7,0,0.6-0.5-0.5-1.7
		c-1.2-1.5-1.3-1.6-0.1-0.7c1.3,1,1.3,0.5,1.3-8.1c0-7.1-0.2-9.1-0.9-8.6c-0.8,0.5-0.8,0.3,0-0.6c0.9-1.1,0.8-1.3-1.2-1.6l-2.2-0.3
		l2.2-0.2c2.4-0.1,2.7-0.8,1.2-2.4c-0.8-0.9-0.8-1,0-0.5c0.7,0.5,0.9-1.1,0.9-6.5c0-4.8-0.3-7.1-0.9-7.1s-0.6-0.3,0-1.1
		c0.8-0.9,0.5-1.2-1.3-1.5l-2.2-0.3l2.2-0.2c2.4-0.1,2.7-0.8,1.2-2.4c-0.8-0.9-0.8-1,0-0.5c0.7,0.5,0.9-1.4,0.9-8.2
		s-0.2-8.6-0.9-8.2c-0.8,0.5-0.8,0.3,0-0.5c1.4-1.5,1.2-2.1-0.8-2.5c-1.8-0.3-1.8-0.3,0.1-0.5c1.6-0.1,1.7-0.2,0.8-1.4
		c-0.8-0.9-0.8-1.1-0.1-0.7c0.7,0.4,0.9-1.2,0.9-7s-0.2-7.5-0.9-7c-0.8,0.5-0.8,0.3,0-0.5c1.3-1.4,1.2-2.1-0.4-2.5
		c-1.3-0.3-1.3-0.4,0.1-0.5c1.3-0.1,1.3-0.2,0.4-1.4c-0.8-0.9-0.8-1.1-0.1-0.7c0.7,0.5,0.9-1.5,0.9-8.6s-0.2-9-0.9-8.6
		c-0.8,0.5-0.8,0.3,0-0.6c0.9-1.1,0.8-1.3-0.8-1.6l-1.8-0.3l1.8-0.2c2-0.1,2.2-0.9,0.8-2.4c-0.8-0.9-0.8-1,0-0.5
		c0.7,0.5,0.9-1.2,0.9-7s-0.2-7.4-0.9-7c-0.8,0.5-0.7,0.2,0-0.6c0.9-1.2,0.7-1.3-1.6-1.6l-2.6-0.3l2.6-0.1c2.7-0.2,3.1-0.8,1.6-2.4
		c-0.8-0.9-0.8-1,0-0.5c0.7,0.5,0.9-1.4,0.9-8.2s-0.2-8.6-0.9-8.2c-0.8,0.5-0.8,0.3,0-0.5c1.5-1.6,1.2-2.1-1.6-2.5l-2.6-0.3l2.7-0.1
		c2.2-0.2,2.5-0.3,1.6-1.3c-0.7-0.8-0.7-1.2-0.1-1.2c0.5,0,0.9-2.4,0.9-7.1c0-5.4-0.2-7-0.9-6.5c-0.8,0.5-0.8,0.3,0-0.5
		c1.4-1.5,1.2-2.1-0.8-2.5c-1.8-0.3-1.8-0.3,0.1-0.5c1.6-0.1,1.7-0.2,0.8-1.4c-0.8-0.9-0.8-1.1-0.1-0.7c0.7,0.5,0.9-1.5,0.9-8.6
		c0-8.6-0.1-9.1-1.3-8.1c-1.2,0.9-1.1,0.8,0.1-0.7c1.1-1.3,1.2-1.7,0.5-1.7c-0.9,0-0.9-0.2-0.2-0.9s0.6-1.3-0.5-2.5
		c-1.3-1.6-1.3-1.6,0.1-0.5c1.3,1,1.3,0.5,1.3-6.5c0-5.9-0.2-7.5-0.9-7.1c-0.8,0.5-0.8,0.3,0-0.6c0.9-1.1,0.8-1.3-0.8-1.6l-1.8-0.3
		l1.8-0.2c2-0.1,2.2-0.9,0.8-2.4c-0.8-0.9-0.8-1,0-0.5c0.7,0.5,0.9-1.4,0.9-8.1c0-6-0.3-8.7-0.9-8.7s-0.6-0.4,0.1-1.2
		c0.9-1,0.6-1.2-1.3-1.3l-2.3-0.1l2-0.5c2-0.5,2-0.6,2.2-8.6c0.2-6.6,0-8-0.9-7.5c-0.8,0.5-0.9,0.4,0-0.5c1.5-1.6,1.2-2.1-1.6-2.5
		l-2.6-0.3l2.7-0.1c2.2-0.2,2.5-0.3,1.6-1.3c-0.7-0.8-0.7-1.2-0.1-1.2c0.5,0,0.9-2.8,0.9-8.7c0-8.2-0.1-8.7-1.3-7.7
		c-1.1,0.9-1,0.6,0.2-0.7c1.3-1.6,1.3-2,0.4-2.5c-1-0.6-1-0.8-0.1-0.8s0.7-0.4-0.4-1.7c-1.2-1.5-1.3-1.6-0.1-0.7
		c1.3,1,1.3,0.5,1.3-6.6s-0.1-7.6-1.3-6.6c-1.3,0.9-1.3,0.9,0-0.6c1.4-1.6,1.4-1.6,0-2c-1.3-0.3-1.3-0.4,0-0.5
		c0.7,0,1.3-0.3,1.3-0.6c0-0.2-0.6-1.3-1.3-2.1c-1.3-1.6-1.3-1.6,0-0.5c1.3,1,1.3,0.5,1.3-7.7c0-5.9-0.3-8.7-0.9-8.7s-0.6-0.3,0-1.1
		c0.8-0.9,0.5-1.2-1.3-1.5l-2.2-0.3l2.2-0.2c2.4-0.1,2.7-0.8,1.2-2.4c-0.9-0.9-0.8-0.9,0-0.5c0.9,0.5,1-0.9,0.9-7.5
		c-0.2-8-0.2-8.2-2.2-8.6l-2-0.5l2.3-0.1c1.9-0.1,2.1-0.2,1.3-1.3c-0.7-0.8-0.7-1.2-0.1-1.2c0.5,0,0.9-2.7,0.9-8.7
		c0-6.7-0.2-8.6-0.9-8.1c-0.8,0.5-0.8,0.3,0-0.5c1.4-1.5,1.2-2.1-0.8-2.5c-1.8-0.3-1.8-0.3,0.1-0.5c1.6-0.1,1.7-0.2,0.8-1.4
		c-0.8-0.9-0.8-1.1-0.1-0.7c0.7,0.4,0.9-1.2,0.9-7.1c0-7.1-0.1-7.5-1.3-6.5c-1.1,0.9-1,0.6,0.2-0.7c1.3-1.6,1.3-2,0.4-2.5
		c-1-0.6-1-0.8-0.1-0.8s0.7-0.4-0.4-1.7c-1.2-1.5-1.3-1.6-0.1-0.7c1.3,1,1.3,0.5,1.3-8.1c0-7.1-0.2-9.1-0.9-8.6
		c-0.8,0.5-0.8,0.3,0-0.6c0.9-1.1,0.8-1.3-1.2-1.6l-2.2-0.3l2.2-0.2c2.4-0.1,2.7-0.8,1.2-2.4c-0.8-0.9-0.8-1,0-0.5
		c0.7,0.5,0.9-1.1,0.9-6.5c0-4.8-0.3-7.1-0.9-7.1s-0.6-0.3,0-1.1c0.8-0.9,0.5-1.2-1.3-1.5l-2.2-0.3l2.2-0.2c2.4-0.1,2.7-0.8,1.2-2.4
		c-0.8-0.9-0.8-1,0-0.5c0.7,0.5,0.9-1.4,0.9-8.2s-0.2-8.6-0.9-8.2c-0.8,0.5-0.8,0.3,0-0.5c1.4-1.5,1.2-2.1-0.8-2.5
		c-1.8-0.3-1.8-0.3,0.1-0.5c1.6-0.1,1.7-0.2,0.8-1.4c-0.8-0.9-0.8-1.1-0.1-0.7c0.7,0.4,0.9-1.2,0.9-7s-0.2-7.5-0.9-7
		c-0.8,0.5-0.8,0.3,0-0.5c1.4-1.5,1.2-2.1-0.8-2.5c-1.8-0.3-1.8-0.3,0.1-0.5c1.6-0.1,1.7-0.2,0.8-1.4c-0.8-0.9-0.8-1.1-0.1-0.7
		c0.7,0.5,0.9-1.5,0.9-8.6s-0.2-9-0.9-8.6c-0.8,0.5-0.8,0.3,0-0.6c0.9-1.1,0.8-1.3-0.8-1.6l-1.8-0.3l1.8-0.2c2-0.1,2.2-0.9,0.8-2.4
		c-0.8-0.9-0.8-1,0-0.5c0.7,0.5,0.9-1.2,0.9-7s-0.2-7.4-1-7c-0.7,0.5-0.7,0.3,0.1-0.6c0.9-1.1,0.8-1.3-1.2-1.6l-2.2-0.3l2.2-0.2
		c2.4-0.1,2.7-0.8,1.2-2.4c-0.8-0.9-0.8-1,0-0.5c0.7,0.5,0.9-1.4,0.9-8.2s-0.2-8.6-0.9-8.2c-0.8,0.5-0.8,0.3,0-0.5
		c1.5-1.6,1.2-2.1-1.6-2.5l-2.6-0.3l2.7-0.1c2.2-0.2,2.5-0.3,1.6-1.3c-0.7-0.8-0.7-1.2-0.1-1.2c0.5,0,0.9-2.4,0.9-7.1
		c0-5.4-0.2-7-0.9-6.5c-0.8,0.5-0.8,0.3,0-0.5c1.4-1.5,1.2-2.1-0.8-2.5c-1.8-0.3-1.8-0.3,0.1-0.5c1.6-0.1,1.7-0.2,0.8-1.4
		c-0.8-0.9-0.8-1.1-0.2-0.7c0.8,0.5,1-1.5,1-8.6c0-8.6-0.1-9.1-1.3-8.1c-1.2,0.9-1.1,0.8,0.1-0.7c1.1-1.3,1.2-1.7,0.5-1.7
		c-0.9,0-0.9-0.2-0.2-0.9s0.6-1.3-0.5-2.5c-1.3-1.6-1.3-1.6,0.1-0.5c1.3,1,1.3,0.5,1.3-6.5c0-5.9-0.2-7.5-0.9-7.1
		c-0.8,0.5-0.8,0.3,0-0.6c0.9-1.1,0.8-1.3-0.8-1.6l-1.8-0.3l1.8-0.2c2-0.1,2.2-0.9,0.7-2.4c-0.7-0.9-0.7-1,0.1-0.5
		c0.7,0.5,0.9-1.4,0.9-8.1c0-6-0.3-8.7-0.9-8.7s-0.6-0.4,0.1-1.2c0.9-1,0.6-1.2-1.3-1.3l-2.3-0.1l2-0.5c2-0.5,2-0.6,2.2-8.6
		c0.2-6.6,0-8-0.9-7.5c-0.8,0.5-0.9,0.4,0-0.5c1.5-1.6,1.2-2.1-1.6-2.5l-2.6-0.3l2.7-0.1c2.2-0.2,2.5-0.3,1.6-1.3
		c-0.7-0.8-0.7-1.2-0.1-1.2c0.5,0,0.9-2.7,0.9-8.7c0-6.7-0.2-8.6-0.9-8.1c-0.8,0.5-0.8,0.3,0-0.5c1.3-1.4,1.2-2.1-0.4-2.5
		c-1.3-0.3-1.3-0.4,0.1-0.5c1.5-0.1,1.5-0.1,0-1.8c-1.2-1.5-1.3-1.6-0.1-0.7c1.3,1,1.3,0.5,1.3-6.6s-0.1-7.6-1.3-6.6
		c-1.2,0.9-1.1,0.8,0.1-0.7c1.5-1.7,1.5-1.7,0-1.7c-1.4-0.1-1.4-0.1-0.1-0.9c1.4-0.8,1.4-0.9,0-2.5c-1.3-1.5-1.3-1.6-0.1-0.6
		c1.3,1,1.4,0.5,1.4-7.7c0-5.9-0.3-8.7-0.9-8.7s-0.6-0.3,0-1.1c0.8-0.9,0.5-1.2-1.3-1.5l-2.2-0.3l2.2-0.2c2.4-0.1,2.7-0.8,1.1-2.4
		c-0.7-0.9-0.7-1,0-0.5c0.8,0.4,1-0.5,1-3.4c0-4.1-1.5-6.5-1.6-2.7c-0.2,1.8-0.2,1.9-0.5,0.5c-0.4-2.1-1.4-2.3-2.6-0.4
		c-0.9,1.3-0.9,1.3-0.5-0.1c0.4-1.1,0.1-1.3-1.7-0.9c-3.2,0.8-11.3,4.9-13.4,6.8c-1.3,1.2-1.5,1.8-0.8,2.3c0.7,0.4,0.4,0.6-0.9,0.6
		h-1.9l1.9,2l1.9,2.1l-2.3-1.5l-2.3-1.4l-2.4,2.8c-3.4,3.9-7.7,11.6-6.5,11.6c0.5,0,0.5,0.3-0.2,0.8c-1,0.7-0.9,1,0.4,2.1
		s1.4,1.2,0.2,0.7c-2.2-0.7-3.3,0.9-5.5,7.9c-3.1,10.1-3.2,10.8-1.6,10.2c1.3-0.4,1.3-0.3-0.1,0.7c-1.7,1.3-1.6,1.6,1.1,2.7
		c1.8,0.7,1.7,0.8-0.5,0.3c-2.7-0.5-3.3,0.2-1.6,2c0.9,0.8,0.8,0.9-0.2,0.5s-1.4,0.7-2.4,6.7c-1,6.4-1,7.1,0.1,6.7
		c0.9-0.4,0.9-0.2-0.2,1.1c-1.3,1.4-1.3,1.5,0.1,1.9c1.3,0.3,1.3,0.4,0.1,0.5c-1.6,0.1-1.8,0.9-0.5,2.4c0.9,0.8,0.8,0.9-0.2,0.5
		c-1.1-0.4-1.3,0.7-2,8.2c-0.6,7.5-0.5,8.6,0.5,8.2c0.9-0.4,1-0.3,0.2,0.5c-1.5,1.5-1.3,2.1,0.8,2.5c1.4,0.3,1.3,0.4-0.5,0.5
		s-2,0.3-1.3,1.2c0.5,0.6,0.6,1.3,0.2,1.4c-0.5,0.1-1,3.6-1.3,7.7c-0.5,7.1-0.5,7.4,0.9,6.3s1.5-1.1,0.1,0.5s-1.4,1.6,0.4,2
		c1.8,0.3,1.8,0.3,0.1,0.5c-2,0.1-2.3,0.9-0.8,2.4c0.7,0.9,0.7,1,0,0.5c-0.8-0.5-1,0.9-1,5.7c0,3.5-0.2,7.4-0.5,8.8
		c-0.4,2.4-0.3,2.6,1,2c1.2-0.5,1.3-0.4,0.5,0.4c-1.5,1.5-1.3,2.1,0.8,2.5l1.7,0.3l-1.7,0.2c-2,0.1-2.3,0.9-0.9,2.4
		c0.9,0.8,0.8,0.9-0.4,0.5c-1.2-0.5-1.3,0.1-1.3,6.8c0,7.6,0.3,8.8,2.4,9.6c0.9,0.3,0.9,0.5-0.2,0.5c-1.6,0.1-1.8,0.9-0.4,2.4
		c0.8,0.8,0.7,0.9-0.5,0.5c-1.3-0.5-1.3,0.2-1.3,8.6c0,8.6,0.1,9.2,1.4,8.2c1.1-0.9,1-0.8-0.2,0.7l-1.5,1.7l2.3,0.1
		c1.9,0.1,2,0.2,0.5,0.5c-2,0.4-2.3,1-0.9,2.5c0.9,0.8,0.8,0.9-0.4,0.5c-1.2-0.5-1.3,0.1-1.3,6.8c0,7.9,0.3,9,2.7,9.6
		c1.4,0.3,1.4,0.4-0.2,0.5c-2,0.1-2.3,0.9-0.9,2.4c0.9,0.8,0.8,0.9-0.4,0.5c-1.3-0.5-1.3,0.2-1.3,8.6c0,8.6,0.1,9.2,1.4,8.2
		c1.1-0.9,1-0.8-0.2,0.7l-1.5,1.7l2.3,0.1c1.9,0.1,2,0.2,0.5,0.5c-2,0.4-2.3,1-0.8,2.5c0.8,0.8,0.7,0.9-0.5,0.5
		c-1.2-0.5-1.3,0.1-1.3,6.8c0,7.9,0.3,9,2.7,9.6c1.4,0.3,1.4,0.4-0.2,0.5c-2,0.1-2.3,0.9-0.9,2.4c0.9,0.8,0.8,0.9-0.4,0.5
		c-1.3-0.5-1.3,0.2-1.3,8.6c0,8.6,0.1,9.2,1.3,8.2c1.2-0.9,1.1-0.8-0.1,0.7l-1.5,1.7l2.3,0.1c1.9,0.1,2,0.2,0.5,0.5
		c-2,0.4-2.3,1-0.9,2.5c0.9,0.8,0.8,0.9-0.3,0.5c-1.3-0.5-1.4,0.1-1.4,6.8c0,4.1,0.3,7.8,0.6,8.2c0.3,0.5,1.4,1.1,2.5,1.3
		c2,0.3,2,0.3-0.2,0.5c-2.4,0.1-2.7,0.8-1.3,2.4c0.9,0.8,0.8,0.9-0.3,0.5c-1.2-0.5-1.4-0.1-1.4,2.1c0,1.4-0.6,5-1.5,7.9
		c-0.9,3.5-1.2,5.3-0.5,5.3c0.5,0,0.4,0.3-0.2,0.7s-0.8,1.1-0.5,1.6c0.4,0.6,0.2,0.9-0.5,0.6c-0.6-0.2-1.9,0.9-3.1,2.6
		c-1.1,1.6-3.5,4.6-5.4,6.6c-3.4,3.6-3.4,3.6-2,5.7l1.3,2.1l-2.1-1.9c-1.1-1.1-2-1.5-2-0.9s-0.3,0.8-0.6,0.5
		c-0.4-0.2-2.4,0.5-4.6,1.6c-2.1,1.1-5.3,2.4-7.1,2.8c-1.9,0.5-3.4,1.1-3.4,1.5s-0.5,0.5-1.1,0.2c-0.6-0.2-1.3,0.2-1.5,1
		c-0.3,1.3-0.4,1.3-0.5-0.1c-0.1-1.3-0.2-1.3-1.4-0.4c-0.9,0.8-1.1,0.8-0.7,0.2c0.4-0.8-0.4-1-3.2-1c-2,0-5-0.3-6.5-0.8
		c-1.8-0.5-2.8-0.5-3.2,0.1c-0.3,0.5-0.7,0.3-1-0.6c-0.5-1.3-0.7-1.3-1.7,0.5c-0.9,1.5-1.1,1.6-0.7,0.4c0.3-1.3-0.5-2.1-4.1-4.2
		c-2.4-1.5-5.7-3.8-7.4-5.3c-2-1.8-3.1-2.4-3.3-1.6c-0.2,0.6-0.5,0.5-0.5-0.3c-0.1-1.6-0.9-1.8-2.4-0.5c-0.6,0.5-0.5,0.2,0.3-0.7
		c1.4-1.6,1.4-1.8,0.2-1.8c-0.7,0-1.2-0.2-0.9-0.6c0.2-0.3-1-3.4-2.7-6.8c-1.8-3.8-3.1-5.8-3.5-5.1c-0.2,0.6-0.2,0.3,0-0.6
		c0.2-1.2,0.1-1.8-0.6-1.8c-0.8,0-0.8-0.2,0.1-0.7s0.8-0.9-0.4-1.6c-1.1-0.6-1.2-0.8-0.3-0.9c1,0,1.1-1.3,0.9-8.3
		c-0.2-7.3-0.4-8.2-1.6-7.8c-1.1,0.4-1,0.2,0.2-1.1c1.3-1.5,1.3-1.6-0.9-1.9l-2.2-0.3l2.3-0.2l2.3-0.1l-1.5-1.7
		c-1.2-1.5-1.3-1.6-0.2-0.7c1.3,1,1.4,0.5,1.4-6.6c0-6.8-0.2-7.5-1.3-7.1c-1.2,0.5-1.2,0.4,0.1-1c1.3-1.5,1.3-1.6-1.3-1.9l-2.6-0.3
		l2.7-0.1c2.7-0.2,2.7-0.2,1.3-1.7c-1.3-1.4-1.3-1.6-0.2-1.1c1.2,0.5,1.3-0.4,1.3-8.3c0-8.1-0.1-8.8-1.3-8.2
		c-1.2,0.4-1.3,0.3-0.5-0.5c1.5-1.5,1.3-2.1-0.7-2.5c-1.5-0.2-1.4-0.4,0.5-0.5l2.3-0.1l-1.5-1.7c-1.2-1.5-1.3-1.6-0.2-0.7
		c1.3,1,1.4,0.5,1.4-6.6c0-6.9-0.2-7.6-1.3-7.1c-1.2,0.4-1.3,0.3-0.4-0.5c1.4-1.5,1.2-2.1-1.3-2.5c-1.9-0.3-1.8-0.3,0.5-0.5l2.7-0.1
		l-1.5-1.7c-1.2-1.5-1.3-1.6-0.1-0.7c1.3,1,1.3,0.5,1.3-8.2c0-8.4-0.1-9.2-1.3-8.6c-1.2,0.4-1.3,0.3-0.4-0.5
		c1.4-1.5,1.2-2.1-0.8-2.5c-1.5-0.2-1.4-0.4,0.5-0.5l2.3-0.1l-1.5-1.7c-1.2-1.5-1.3-1.6-0.1-0.7c1.3,1,1.3,0.5,1.3-6.6
		c0-6.9-0.2-7.6-1.3-7.1c-1.2,0.4-1.3,0.3-0.5-0.5c1.5-1.5,1.3-2.1-1.1-2.5c-2-0.3-1.9-0.3,0.5-0.5l2.7-0.1l-1.5-1.7
		c-1.2-1.5-1.3-1.6-0.1-0.7c1.3,1,1.3,0.5,1.3-8.2c0-8.4-0.1-9.2-1.3-8.6c-1.2,0.4-1.3,0.3-0.5-0.5c1.5-1.5,1.3-2.1-0.7-2.5
		c-1.5-0.2-1.4-0.4,0.5-0.5l2.3-0.1l-1.5-1.7c-1.2-1.5-1.3-1.6-0.1-0.7c1.3,1,1.3,0.5,1.3-6.6c0-6.9-0.2-7.6-1.3-7.1
		c-1.2,0.4-1.3,0.3-0.4-0.5c1.4-1.5,1.2-2.1-1.2-2.5c-2-0.3-1.9-0.3,0.5-0.5l2.7-0.1l-1.5-1.7c-1.2-1.5-1.3-1.6-0.1-0.7
		c1.3,1,1.3,0.5,1.3-8.1c0-5.3-0.3-9.1-0.8-9.1c-0.4,0-0.5-0.5-0.3-1.1c0.3-0.7-0.2-1.3-1.4-1.5c-1.6-0.3-1.5-0.3,0.5-0.5l2.3-0.1
		l-1.5-1.7c-1.2-1.5-1.3-1.6-0.1-0.7c1.3,1,1.3,0.5,1.3-6.6c0-6.9-0.2-7.6-1.4-7.1c-1.1,0.4-1.2,0.3-0.4-0.5
		c1.6-1.6,1.2-2.3-1.1-2.4c-2.2-0.2-2.2-0.2-0.2-0.5c1.1-0.2,2.2-0.8,2.5-1.3c0.9-1.3,0.8-18.5-0.2-18.5c-0.4,0-0.5-0.5-0.3-1.1
		s-0.2-1.3-1-1.5c-1.1-0.3-0.9-0.4,0.5-0.5c1.9-0.1,1.9-0.1,0.4-1.8c-1.2-1.5-1.3-1.6-0.2-0.7c1.3,0.9,1.4,0.8,1.4-2.8
		c0-2.2,0.2-5.7,0.5-7.8c0.5-3.7,0.5-3.8-1-2.7s-1.5,1.1,0-0.6c1.1-1.3,1.3-1.7,0.4-1.7s-0.9-0.2,0-0.7c0.5-0.4,0.8-1.1,0.5-1.6
		s-0.2-0.9,0.1-0.9c0.4,0,1.3-3.1,2-6.8c0.7-3.8,1.6-7.8,1.9-8.8c0.4-1.5,0.2-1.7-0.6-1.3c-0.9,0.5-0.9,0.4-0.1-0.5s0.6-1.3-0.8-2
		c-1.7-1-1.7-1,0.5-0.5c2,0.5,2.2,0.4,1.7-0.9c-0.3-0.8-0.3-1.2,0-0.9s1.6-2.4,2.8-5.9c2.5-7.5,2.6-8,1.3-7.3
		c-0.5,0.3-0.4,0,0.4-0.6c1.3-1.1,1.3-1.2-0.4-2.4l-1.8-1.3l1.8,0.9c1,0.5,2,0.7,2,0.5c0.2-0.2,2.2-4,4.6-8.6
		c2.9-5.5,4.1-8.5,3.5-8.8c-0.5-0.2-0.3-0.4,0.4-0.4c0.8-0.1,1.6-0.9,1.9-2s0.7-1.9,0.9-1.6c0.2,0.2,2.3-2.1,4.6-5.3
		c3-3.9,3.9-5.7,3.2-6.2c-0.6-0.4-0.2-0.6,0.9-0.6c1.9,0,1.9,0,0.4-1.7c-0.8-1-0.9-1.3-0.3-0.8c1.6,1.4,2.4,1.2,2.4-0.8
		c0-1.5,0.2-1.6,0.5-0.5c0.5,1,1.9,0,7.5-5.4c6-5.7,6.8-6.8,5.9-7.9c-0.8-1.1-0.8-1.2,0.2-0.3c1.5,1.3,2.4,1.2,2.4-0.4
		c0-0.9,0.2-1.1,0.6-0.5s2.2-0.2,6-2.6c3.1-2,5.4-3.9,5.3-4.3c-0.1-0.4,0.4-0.7,1.1-0.7c0.9,0,1.1-0.5,0.7-1.7
		c-0.5-1.8-0.5-1.8,0.8-0.2c0.9,1.1,1.4,1.3,1.6,0.5c0.2-0.5,0.7-0.8,1.1-0.5c0.3,0.2,3.4-0.8,6.8-2.3c3.5-1.4,6.9-2.8,7.8-3.1
		c1.3-0.5,1.3-0.7,0.4-1.3s-0.8-0.7,0.6-0.3c1.3,0.4,1.7,0.2,1.7-0.9c0-0.9,0.2-1.1,0.6-0.5c0.7,1.1,3.5,0.9,11-0.9
		c3.1-0.8,5.5-1.7,5.3-2.1c-0.3-0.4,0.1-0.5,0.7-0.2c0.6,0.2,1.3-0.2,1.5-1c0.3-1.3,0.4-1.3,0.5,0c0,0.7,0.3,1.3,0.5,1.3
		c0.3,0,1-0.6,1.6-1.3c1-1.3,1.1-1.3,0.6,0.1c-0.5,1.2-0.2,1.3,0.9,1c0.8-0.2,4.3-0.7,7.8-0.9c9.3-0.7,9.8-0.9,9.8-3.3
		c0-2,0.1-2,1.2-0.5c1,1.3,1.1,0.8,1.2-5.7c0-4.9-0.3-7.3-0.9-7.3s-0.6-0.3,0-1.1c0.8-0.9,0.5-1.2-1.3-1.5l-2.2-0.3l2.2-0.2
		c2.4-0.1,2.7-0.8,1.2-2.4c-0.8-0.9-0.8-1,0-0.5c0.7,0.5,0.9-1.4,0.9-8.2s-0.2-8.6-0.9-8.2c-0.8,0.5-0.8,0.3,0-0.5
		c1.4-1.5,1.2-2.1-0.8-2.5c-1.8-0.3-1.8-0.3,0.1-0.5c1.6-0.1,1.7-0.2,0.8-1.4c-0.8-0.9-0.8-1.1-0.2-0.7c0.8,0.4,1-1.2,1-7
		s-0.2-7.5-0.9-7c-0.8,0.5-0.8,0.3,0-0.5c1.4-1.5,1.2-2.1-0.9-2.5c-1.7-0.3-1.7-0.3,0.2-0.5c1.6-0.1,1.7-0.2,0.8-1.4
		c-0.8-0.9-0.8-1.1-0.1-0.7c0.7,0.5,0.9-1.5,0.9-8.6s-0.2-9-0.9-8.6c-0.8,0.5-0.8,0.3,0-0.6c0.9-1.1,0.8-1.3-0.8-1.6l-1.8-0.3
		l1.8-0.2c2-0.1,2.2-0.9,0.7-2.4c-0.7-0.9-0.7-1,0-0.5c0.8,0.5,1-1.2,1-7s-0.2-7.4-0.9-7c-0.8,0.5-0.8,0.3,0-0.6
		c0.9-1.1,0.8-1.3-1.2-1.6l-2.2-0.3l2.2-0.2c2.4-0.1,2.7-0.8,1.1-2.4c-0.7-0.9-0.7-1,0-0.5c0.8,0.5,1-1.4,1-8.2s-0.2-8.6-0.9-8.2
		c-0.8,0.5-0.8,0.3,0-0.5c1.4-1.6,1.2-2.1-1.2-2.5l-2.2-0.3l2.3-0.2c1.9-0.1,2.1-0.2,1.3-1.3c-0.7-0.8-0.7-1.2-0.1-1.2
		c0.5,0,0.9-2.4,0.9-7.1c0-5.4-0.2-7-0.9-6.5c-0.8,0.5-0.8,0.3,0-0.5c1.4-1.5,1.2-2.1-0.8-2.5c-1.8-0.3-1.8-0.3,0.1-0.5
		c1.6-0.1,1.7-0.2,0.8-1.4c-0.8-0.9-0.8-1.1-0.2-0.7c0.8,0.4,1-0.8,1-4.9v-5.6H503h50.3v5.6c0,4.2,0.2,5.3,1,4.9
		c0.7-0.5,0.7-0.3-0.1,0.6c-0.9,1.1-0.8,1.3,0.8,1.6l1.8,0.3l-1.7,0.2c-2,0.1-2.3,0.9-0.8,2.4c0.8,0.9,0.8,1,0,0.5s-1,1.1-1,6.5
		c0,4.8,0.3,7.1,0.9,7.1c0.6,0,0.6,0.3,0,1.1c-0.8,0.9-0.5,1.2,1.3,1.5l2.2,0.3l-2.1,0.2c-2.4,0.1-2.7,0.8-1.2,2.4
		c0.8,0.9,0.8,1-0.1,0.5c-0.7-0.5-0.9,1.4-0.9,8.2s0.2,8.6,1,8.2c0.8-0.5,0.8-0.3,0,0.5c-1.5,1.6-1.3,2.1,1.2,2.5l2.1,0.3l-2.3,0.2
		c-2,0.1-2.1,0.2-1.2,1.4c0.8,0.9,0.8,1.1,0.2,0.7c-0.8-0.4-1,1.2-1,7s0.2,7.5,1,7s0.8-0.3,0,0.5c-1.5,1.5-1.3,2.1,0.8,2.5
		c1.7,0.3,1.7,0.3-0.2,0.5c-1.6,0.1-1.7,0.2-0.8,1.4c0.8,0.9,0.8,1.1,0.2,0.7c-0.8-0.5-1,1.5-1,8.6s0.2,9,1,8.6
		c0.7-0.5,0.7-0.3-0.1,0.6c-0.9,1.1-0.8,1.3,0.8,1.6l1.8,0.3l-1.7,0.2c-2,0.1-2.3,0.9-0.9,2.4c0.9,0.9,0.9,1,0,0.5
		c-0.7-0.5-0.9,1.2-0.9,7s0.2,7.4,1,7c0.7-0.5,0.7-0.3-0.1,0.6c-0.9,1.1-0.8,1.3,0.8,1.6l1.8,0.3l-1.7,0.2c-2,0.1-2.3,0.9-0.9,2.4
		c0.8,0.9,0.8,1,0.1,0.5c-0.8-0.5-1,1.4-1,8.2s0.2,8.6,1,8.2c0.8-0.5,0.8-0.3,0,0.5c-1.5,1.6-1.3,2.1,1.2,2.5l2.1,0.3l-2.3,0.2
		c-1.9,0.1-2.1,0.2-1.3,1.3c0.7,0.8,0.7,1.2,0.1,1.2c-0.5,0-0.9,2.4-0.9,7.1c0,5.4,0.2,7,1,6.5s0.8-0.3,0,0.5
		c-1.5,1.6-1.3,2.1,1.2,2.5l2.1,0.3l-2.3,0.2c-2,0.1-2.1,0.2-1.2,1.4c0.8,0.9,0.8,1.1,0.2,0.7c-0.8-0.5-1,1.5-1,8.6
		c0,8.6,0.1,9.1,1.4,8.1c1.1-0.9,1-0.8-0.2,0.7c-1.1,1.3-1.3,1.7-0.4,1.7c0.9,0,0.9,0.2-0.1,0.8c-0.9,0.5-0.9,0.9,0.4,2.5
		c1.2,1.3,1.3,1.6,0.2,0.7c-1.3-1-1.4-0.5-1.4,6.5c0,5.9,0.2,7.5,1,7.1c0.7-0.5,0.7-0.3-0.1,0.6c-0.9,1.1-0.8,1.3,0.8,1.6l1.8,0.3
		l-1.7,0.2c-2,0.1-2.3,0.9-0.9,2.4c0.8,0.9,0.8,1,0.1,0.5c-0.8-0.5-1,1.4-1,8.1c0,6,0.3,8.7,0.9,8.7c0.6,0,0.6,0.3,0,1.1
		c-0.8,0.9-0.5,1.2,1.3,1.5l2.2,0.3l-2.3,0.2c-1.9,0.1-2.1,0.2-1.3,1.3c0.7,0.8,0.7,1.2,0.1,1.2c-0.5,0-0.9,2.4-0.9,7.1
		c0,5.4,0.2,7,1,6.5s0.8-0.3,0,0.5c-1.5,1.6-1.3,2.1,1.2,2.5l2.1,0.3l-2.3,0.2c-1.9,0.1-2.1,0.2-1.3,1.3c0.7,0.8,0.7,1.2,0.1,1.2
		c-0.5,0-0.9,2.8-0.9,8.7c0,8.2,0.1,8.7,1.4,7.7c1.2-0.9,1.2-0.9-0.1,0.6c-1.4,1.6-1.4,1.7,0,2.5c1.3,0.8,1.3,0.8-0.1,0.9
		c-1.5,0-1.5,0,0,1.7c1.2,1.5,1.3,1.6,0.1,0.7c-1.3-1-1.3-0.5-1.3,6.7c0.1,7,0.2,7.6,1.2,6.3c1.1-1.5,1.2-1.5,1.2,0.5
		c0,2.3,0.7,2.7,2.3,1.1c0.8-0.8,0.9-0.7,0.5,0.5c-0.5,1.2,0,1.3,3.6,1.4c2.4,0,6.1,0.3,8.4,0.6c3.5,0.5,4.1,0.4,3.7-0.6
		c-0.4-0.9-0.1-0.9,1.1,0.2c1.4,1.3,1.5,1.3,1.9-0.1c0.3-1.3,0.4-1.3,0.5,0.1c0.1,0.9,0.5,1.3,1.3,0.9c0.6-0.2,1-0.2,0.8,0.2
		s2.4,1.3,5.7,2c3.3,0.8,6.5,1.6,7.1,1.8c0.8,0.3,0.9,0.1,0.6-1c-0.5-1.4-0.5-1.4,0.6,0c1.3,1.6,1.3,1.6,2.7-0.7
		c0.8-1.4,0.9-1.3,0.4,0.7s-0.4,2.2,1.3,1.6c1.4-0.4,1.6-0.3,0.7,0.3c-0.9,0.6-0.9,0.9,0.4,1.3c0.9,0.2,4.4,1.7,7.9,3.1
		c4,1.7,6.4,2.4,6.8,1.8c0.3-0.5,0.7-0.2,1,0.6c0.5,1.3,0.7,1.3,2.1-0.5c1.3-1.6,1.5-1.7,0.8-0.2c-1.2,2.3-1.1,2.6,0.5,2.6
		c0.7,0,1.1,0.2,0.8,0.5c-0.2,0.3,2,2.2,5.2,4.2c3.7,2.4,5.9,3.4,6.2,2.8c0.4-0.5,0.6-0.3,0.6,0.5c0,0.7,0.2,1.3,0.5,1.3
		c0.2,0,1.3-0.6,2.1-1.3c1.6-1.4,1.6-1.4,0.2,0.3c-1.5,1.7-1.5,1.8,2.4,5.1c2.1,1.9,5.3,4.8,7.2,6.6c1.8,1.8,3.3,3.1,3.3,2.7
		c0-0.2,0.3,0,0.7,0.6c0.5,0.9,1,0.9,2.5,0.1c1.9-1,1.9-1,0.4,0.7c-1.5,1.6-1.5,1.6,0,1.6c0.9,0,1.2,0.2,0.5,0.6
		c-0.6,0.4,0.2,2,2.7,5.3c6.5,8.7,6.4,8.6,7.5,7.6c0.5-0.5,1.3-0.9,1.6-0.9c0.4,0-0.1,0.7-1.1,1.6c-1.8,1.4-1.8,1.5-0.3,1.6
		c0.9,0,1.3,0.2,0.7,0.6c-0.5,0.3,0.6,3.3,3.2,8.2c2.2,4.2,4.3,7.4,4.7,7.1c0.3-0.4,0.4,0,0.2,0.8c-0.5,1.2-0.2,1.3,1.3,0.9
		c1.5-0.4,1.6-0.3,0.5,0.5c-1.2,0.9-1,1.7,1.1,8.5c1.3,4.1,2.7,7.6,3.1,7.7c0.4,0.2,0.5,0.6,0.2,1c-0.2,0.4,0.4,0.8,1.4,0.8
		c1.3,0.1,1.4,0.2,0.5,0.5c-0.8,0.2-1.4,0.5-1.4,0.8s0.6,0.9,1.4,1.5c1.1,0.9,1.1,1,0.1,0.7c-1.1-0.4-1,0.6,0.5,8.8
		c1,5.1,1.9,9.3,1.9,9.4c0,0.1,0.8,0.3,1.8,0.5l1.7,0.3l-1.7,0.2c-2.2,0.1-2.3,0.7-0.4,2.1c1.1,0.9,1.2,1,0.1,0.6
		c-1.2-0.4-1.3,0.3-0.9,6.5c0.2,3.8,0.7,7,1.1,7.1c0.3,0.2,0.5,0.7,0.2,1.3c-0.3,0.7,0.3,1.2,1.8,1.4c2,0.3,2,0.3-0.5,0.5l-2.7,0.1
		l1.5,1.7c1.2,1.5,1.3,1.6,0.2,0.7c-1.3-1-1.4-0.5-1.4,8.2c0,8.4,0.1,9.2,1.4,8.6c1.1-0.4,1.2-0.3,0.4,0.5c-1.5,1.5-1.3,2.1,0.8,2.5
		c1.4,0.2,1.3,0.4-0.5,0.5l-2.3,0.1l1.5,1.7c1.2,1.5,1.3,1.6,0.2,0.7c-1.3-1-1.4-0.5-1.4,6.6c0,6.8,0.2,7.5,1.3,7.1
		c1.2-0.5,1.2-0.4-0.1,1c-1.3,1.5-1.3,1.6,1.3,1.9l2.6,0.3l-2.7,0.1c-2.7,0.2-2.7,0.2-1.3,1.7c1.3,1.4,1.3,1.6,0.2,1.1
		c-1.2-0.5-1.3,0.4-1.3,8.3c0,8.1,0.1,8.8,1.4,8.2c1.1-0.4,1.2-0.3,0.4,0.5c-1.5,1.5-1.3,2.1,0.8,2.5c1.4,0.2,1.3,0.4-0.5,0.5
		c-2.3,0.1-2.3,0.1-0.9,1.6c1.3,1.4,1.3,1.6,0.2,1.1c-1.2-0.4-1.3,0.3-1.3,6.8c0,6.4,0.2,7.1,1.3,6.8c1.2-0.5,1.2-0.4-0.1,1
		c-1.3,1.5-1.3,1.6,0.9,1.9l2.2,0.3l-2.3,0.2c-2.3,0.1-2.3,0.1-0.9,1.6c1.3,1.4,1.3,1.6,0.2,1.1c-1.2-0.5-1.3,0.4-1.3,8.3
		s0.2,8.8,1.3,8.3c1.2-0.5,1.2-0.4-0.1,1c-1.3,1.5-1.3,1.6,1.3,1.9l2.6,0.3l-2.7,0.1c-2.7,0.2-2.7,0.2-1.3,1.7
		c1.3,1.4,1.3,1.6,0.2,1.1c-1.2-0.4-1.3,0.3-1.3,7.1c0,7.1,0.1,7.6,1.4,6.6c1.2-0.9,1.2-0.9-0.1,0.6c-1.5,1.6-1.4,1.7,0.8,2l2.2,0.3
		l-2.3,0.2c-2.3,0.1-2.3,0.1-0.9,1.6c1.3,1.4,1.3,1.6,0.2,1.1c-1.2-0.5-1.3,0.4-1.3,8.7c0,8.6,0.1,9.2,1.4,8.2
		c1.1-0.9,1-0.8-0.2,0.7l-1.5,1.7l2.7,0.1c2.4,0.2,2.4,0.2,0.5,0.5c-2.4,0.4-2.7,1-1.2,2.5c0.8,0.8,0.7,0.9-0.4,0.5
		c-1.3-0.5-1.4,0.2-1.4,7.1c0,7.1,0.1,7.6,1.4,6.6c1.1-0.9,1-0.8-0.2,0.7l-1.5,1.7l2.3,0.1c2,0.2,2,0.2,0.5,0.5
		c-1.2,0.2-1.7,0.8-1.4,1.5c0.2,0.6,0.1,1.1-0.3,1.1c-0.5,0-0.8,3.8-0.8,9.1c0,8.6,0.1,9.1,1.4,8.1c1.1-0.9,1-0.8-0.2,0.7l-1.5,1.7
		l2.3,0.1c2,0.2,2,0.2,0.5,0.5c-1.2,0.2-1.7,0.8-1.4,1.5c0.2,0.6,0.1,1.1-0.3,1.1c-0.9,0-1,14.1-0.2,15.4c0.3,0.5,1.1,1.1,1.7,1.3
		c0.9,0.3,0.9,0.5-0.3,0.5c-0.9,0.1-1.3,0.5-0.9,1.3c0.2,0.6,0.1,1.2-0.3,1.2c-0.9,0-1.1,17.2-0.2,18.5c0.3,0.5,1.1,1.1,1.7,1.3
		c0.9,0.3,0.9,0.5-0.3,0.5c-0.9,0.1-1.3,0.5-0.9,1.3c0.2,0.6,0.1,1.2-0.3,1.2c-0.5,0-0.8,3.2-0.8,7.5c0,7.1,0.1,7.5,1.4,6.5
		c1.1-0.9,1.2-0.9,0.4,0.1c-0.5,0.6-1,2-1,3.1s0.5,2.5,1,3.1c0.8,0.9,0.7,0.9-0.4,0.1c-1.3-1-1.4-0.5-1.4,8.1c0,5.9,0.3,9,0.8,8.7
		c0.5-0.2,0.5,0.1,0.3,0.7c-0.3,0.7-0.1,1.3,0.5,1.3c0.8,0,0.8,0.2,0,1.2c-0.5,0.6-0.6,1.6-0.3,2c0.3,0.6,0.2,0.7-0.3,0.4
		c-0.7-0.4-0.9,1.5-0.9,6.9c0,4.3,0.3,7.5,0.8,7.5c0.4,0,0.5,0.5,0.3,1.1s0.2,1.3,1,1.5c1.3,0.3,1.3,0.4,0.1,0.5
		c-1.7,0.1-2.1,1.9-2.4,11.3c-0.2,6.4-0.1,7.5,0.9,7.2c0.9-0.3,0.8,0-0.2,1.1c-1.3,1.5-1.3,1.6,0.5,1.9l1.8,0.3l-1.9,0.2
		c-1.3,0.1-1.6,0.4-1.3,1.3c0.2,0.6,0.1,1.1-0.3,0.9c-0.4-0.1-2,2.4-3.5,5.6c-2.4,4.9-2.6,5.7-1.4,5.7c0.8,0.1,0.5,0.3-0.6,0.6
		s-2.4,1.4-2.9,2.4c-0.5,1.1-1,1.6-1,1.3s-1.5,0.5-3.3,2c-1.9,1.5-4.9,3.6-6.8,4.7c-1.8,1-3.1,2.2-2.7,2.6c0.4,0.3,0,0.4-0.7,0.2
		c-1-0.3-1.4-0.1-1.5,0.9c0,0.9-0.2,1-0.5,0.3c-0.3-0.8-0.7-0.7-1.9,0.3c-1.4,1.3-1.5,1.3-1,0.1c0.4-1.2,0.2-1.3-1.5-0.6
		c-1.1,0.5-4.5,0.9-7.5,0.9c-3.5,0.1-5.6,0.5-5.6,1s-0.3,0.4-0.7-0.2c-0.6-1-0.9-1-2.1,0c-0.8,0.6-1.2,0.7-0.9,0.2s-1.3-1.6-4.4-2.7
		c-2.7-0.9-6-2.4-7.4-3.2c-1.9-1.2-2.5-1.3-2.8-0.5c-0.3,0.6-0.5,0.5-0.5-0.3c-0.1-0.8-0.9-1.6-2-1.9c-1-0.2-1.8-0.7-1.7-1
		c0.3-1-7.5-10.2-8.3-9.7c-0.5,0.3-0.6,0-0.3-0.9c0.5-1.3,0.2-1.3-1.6-0.9c-2.1,0.5-2.1,0.5-0.6-0.7c1.3-1.1,1.4-1.3,0.4-2
		c-0.6-0.4-0.8-0.8-0.3-0.8c0.6,0,0.5-1.5-0.5-4.8c-0.8-2.6-1.5-6.2-1.5-7.9c0-2.7-0.2-3.1-1.3-2.6c-1.2,0.4-1.3,0.3-0.4-0.5
		c1.4-1.5,1.2-2.3-0.8-2.4c-1.6-0.1-1.6-0.2-0.2-0.5c2.4-0.6,2.7-1.6,2.7-9.6c0-6.7-0.2-7.3-1.3-6.8c-1.2,0.4-1.3,0.3-0.4-0.5
		c1.4-1.5,1.2-2.1-0.8-2.5c-1.5-0.2-1.4-0.4,0.5-0.5l2.3-0.1l-1.5-1.7c-1.2-1.5-1.3-1.6-0.1-0.7c1.3,1,1.3,0.5,1.3-8.2
		c0-8.4-0.1-9.2-1.3-8.6c-1.2,0.4-1.3,0.3-0.4-0.5c1.5-1.6,1.1-2.3-1.2-2.4c-2.2-0.2-2.2-0.2-0.2-0.5c1.1-0.2,2.2-0.8,2.5-1.3
		s0.6-4.2,0.6-8.2c0-6.7-0.2-7.3-1.3-6.8c-1.2,0.4-1.3,0.3-0.4-0.5c1.4-1.5,1.2-2.1-1.2-2.5c-2-0.3-1.9-0.3,0.5-0.5
		c2.7-0.1,2.7-0.1,1.3-1.6c-1.3-1.4-1.3-1.6-0.2-1.1c1.2,0.5,1.3-0.4,1.3-8.3c0-8.1-0.1-8.8-1.3-8.2c-1.2,0.4-1.3,0.3-0.4-0.5
		c1.4-1.5,1.2-2.1-1.2-2.5l-2.2-0.3l2.2-0.2c2.3-0.1,2.7-0.8,1.2-2.4c-0.9-0.8-0.8-0.9,0.4-0.5c1.2,0.5,1.3-0.1,1.3-6.7
		s-0.2-7.2-1.3-6.7c-1.2,0.4-1.3,0.3-0.4-0.5c1.4-1.5,1.2-2.1-1.2-2.5l-2.2-0.3l2.2-0.2c2.3-0.1,2.7-0.8,1.2-2.4
		c-0.9-0.8-0.8-0.9,0.4-0.5c1.3,0.5,1.3-0.2,1.3-8.2c0-7.9-0.2-8.8-1.3-8.3c-1.2,0.5-1.2,0.3,0.2-1.1c1.4-1.6,1.4-1.6-0.9-1.6
		c-1.9-0.1-2-0.2-0.5-0.5c2-0.4,2.2-1,0.8-2.5c-0.9-0.8-0.8-0.9,0.4-0.5c1.2,0.5,1.3-0.1,1.3-6.8c0-4.1-0.3-7.8-0.6-8.2
		c-0.3-0.5-1.4-1.1-2.5-1.3c-2-0.3-2-0.3,0.2-0.5c2.3-0.1,2.7-0.8,1.2-2.4c-0.9-0.8-0.8-0.9,0.4-0.5c1.3,0.5,1.3-0.2,1.3-8.6
		c0-8.6-0.1-9.2-1.3-8.2c-1.2,0.9-1.1,0.8,0.1-0.7l1.5-1.7l-2.3-0.1c-1.9-0.1-2-0.2-0.5-0.5c2-0.4,2.2-1,0.8-2.5
		c-0.9-0.8-0.8-0.9,0.4-0.5c1.2,0.5,1.3-0.1,1.3-6.8c0-7.9-0.3-9-2.7-9.6c-1.4-0.3-1.4-0.4,0.2-0.5c2-0.1,2.2-0.9,0.8-2.4
		c-0.9-0.8-0.8-0.9,0.4-0.5c1.3,0.5,1.3-0.2,1.3-8.3c0-9.5-0.2-10.5-2.7-11.2c-1.4-0.3-1.4-0.4,0.2-0.5c2-0.1,2.2-0.9,0.8-2.4
		c-0.9-0.8-0.8-0.9,0.4-0.5c1.2,0.5,1.3-0.2,1.3-7c0-4.8-0.3-7.5-0.9-7.5c-0.4,0-0.5-0.3-0.3-0.8c0.2-0.4,0.1-0.8-0.5-0.8
		s-0.7-0.3,0-1c0.6-0.8,0.5-1.3-0.2-2c-0.7-0.8-0.6-0.9,0.5-0.4c1.3,0.5,1.5,0.3,1-2.5c-0.3-1.6-0.5-5.8-0.5-9.3
		c0-5.7-0.1-6.1-1.3-5.1c-1.3,1-1.3,1-0.1-0.5c1.1-1.3,1.2-1.8,0.5-2.5s-0.7-0.9,0.1-0.9c0.9,0,0.9-0.2,0-1.3s-0.9-1.3,0-0.6
		c0.9,0.5,1-0.2,0.6-4.8c-0.3-3-0.5-6.4-0.5-7.6c0-1.3-0.3-2-0.8-1.7s-0.5-0.1-0.2-0.8c0.2-0.8,0-1.6-0.6-2c-0.9-0.5-0.9-0.7,0-0.7
		c0.5,0,0.9-0.5,0.5-1.2c-0.2-0.6-0.2-1.2,0.2-1.2s0.3-2.7,0-6c-0.2-3.4-0.5-7.3-0.5-8.8c-0.1-2.1-0.3-2.5-1.4-2
		c-1.2,0.4-1.3,0.3-0.4-0.5c1.3-1.4,1.2-2.1-0.4-2.5c-1.3-0.3-1.3-0.4,0.1-0.5c1.2-0.1,1.3-0.3,0.5-1.3c-0.5-0.6-0.6-1.2-0.2-1.2
		c0.5,0,0.3-2.9-0.4-7.1c-1-6-1.4-7.1-2.4-6.7c-1,0.4-1.1,0.3-0.2-0.5c1.6-1.7,1-2.4-1.6-2c-2.4,0.5-2.4,0.4-0.6-0.3
		c2.7-1.2,2.8-1.4,1.1-2.7c-1.3-1-1.3-1.1-0.1-0.7c1.6,0.6,1.6-0.2-1.6-10.2c-2.1-6.8-3.3-8.6-5.5-7.9c-1.3,0.4-1.3,0.3,0.2-0.9
		c1.3-1,1.3-1.3,0.5-1.9c-0.6-0.5-0.7-0.8-0.2-0.9c2-0.7-8.8-15.6-11.5-15.6c-0.5,0-0.8-0.5-0.6-0.9c0.5-1.3-6.1-5.7-11.3-7.8
		c-4.7-1.7-5.9-1.9-5.1-0.5c0.5,0.7,0.3,0.7-0.5-0.1c-1.5-1.4-2.1-1.2-2.5,0.9c-0.3,1.4-0.3,1.3-0.5-0.5c-0.2-3.8-1.6-1.4-1.6,2.7
		c0,3.7,0.1,3.8,1.4,2.9c1.3-1,1.3-1,0,0.5c-1.1,1.3-1.2,1.8-0.5,2.5s0.7,0.9-0.2,0.9c-0.7,0-0.6,0.5,0.5,1.7
		c1.2,1.5,1.3,1.6,0.1,0.7c-1.3-1-1.3-0.5-1.3,8.1c0,7.1,0.2,9.1,1,8.6c0.7-0.5,0.7-0.3-0.1,0.6c-0.9,1.1-0.8,1.3,0.8,1.6l1.8,0.3
		l-1.7,0.2c-2,0.1-2.3,0.9-0.8,2.4c0.8,0.9,0.8,1,0,0.5s-1,1.1-1,6.5c0,4.8,0.3,7.1,0.9,7.1c0.6,0,0.6,0.3,0,1.1
		c-0.8,0.9-0.5,1.2,1.6,1.5l2.6,0.3l-2.5,0.1c-2.7,0.2-3.1,0.8-1.6,2.4c0.8,0.9,0.8,1,0,0.5s-1,1.4-1,8.2s0.2,8.6,1,8.2
		c0.8-0.5,0.8-0.3,0,0.5c-1.5,1.6-1.3,2.1,1.2,2.5l2.1,0.3l-2.3,0.2c-2,0.1-2.1,0.2-1.2,1.4c0.8,0.9,0.8,1.1,0.2,0.7
		c-0.8-0.4-1,1.2-1,7s0.2,7.5,1,7s0.8-0.3,0,0.5c-1.5,1.5-1.3,2.1,0.8,2.5c1.7,0.3,1.7,0.3-0.2,0.5c-1.6,0.1-1.7,0.2-0.8,1.4
		c0.8,0.9,0.8,1.1,0.2,0.7c-0.8-0.5-1,1.5-1,8.6s0.2,9,1,8.6c0.7-0.5,0.7-0.3-0.1,0.6c-0.9,1.1-0.8,1.3,0.8,1.6l1.8,0.3l-1.7,0.2
		c-2,0.1-2.3,0.9-0.8,2.4c0.8,0.9,0.8,1,0,0.5s-1,1.2-1,7s0.2,7.4,1,7c0.7-0.5,0.7-0.3-0.1,0.6c-0.9,1.1-0.8,1.3,0.8,1.6l1.8,0.3
		l-1.7,0.2c-2,0.1-2.3,0.9-0.8,2.4c0.7,0.9,0.7,1,0,0.5c-0.8-0.5-1,1.4-1,8.2s0.2,8.6,1,8.2c0.8-0.5,0.8-0.3,0,0.5
		c-1.5,1.6-1.3,2.1,1.2,2.5l2.1,0.3l-2.3,0.2c-1.9,0.1-2.1,0.2-1.3,1.3c0.7,0.8,0.7,1.2,0.1,1.2c-0.5,0-0.9,2.4-0.9,7.1
		c0,5.4,0.2,7,1,6.5s0.8-0.3,0,0.5c-1.5,1.6-1.3,2.1,1.2,2.5l2.1,0.3l-2.3,0.2c-2,0.1-2.1,0.2-1.2,1.4c0.8,0.9,0.8,1.1,0.2,0.7
		c-0.8-0.5-1,1.5-1,8.6c0,8.6,0.1,9.1,1.4,8.1c1.1-0.9,1-0.8-0.2,0.7c-1.1,1.3-1.3,1.7-0.4,1.7c0.9,0,0.9,0.2-0.1,0.8
		c-0.9,0.5-0.9,0.9,0.4,2.5c1.2,1.3,1.3,1.6,0.2,0.7c-1.3-1-1.4-0.5-1.4,6.5c0,5.9,0.2,7.5,1,7.1c0.7-0.5,0.7-0.3-0.1,0.6
		c-0.9,1.1-0.8,1.3,0.8,1.6l1.8,0.3l-1.7,0.2c-2,0.1-2.3,0.9-0.8,2.4c0.8,0.9,0.8,1,0,0.5s-1,1.4-1,8.1c0,6,0.3,8.7,0.9,8.7
		c0.6,0,0.6,0.4-0.1,1.2c-0.9,1-0.6,1.2,1.3,1.3l2.3,0.1l-2,0.5c-2,0.5-2,0.6-2.2,8.6c-0.2,6.6,0,8,0.9,7.5c0.8-0.5,0.9-0.4,0.1,0.5
		c-1.5,1.6-1.3,2.1,1.2,2.5l2.1,0.3l-2.3,0.2c-1.9,0.1-2.1,0.2-1.3,1.3c0.7,0.8,0.7,1.2,0.1,1.2c-0.5,0-0.9,2.8-0.9,8.7
		c0,8.2,0.1,8.7,1.4,7.7c1.3-1,1.3-1,0,0.5c-0.8,0.9-1.4,1.8-1.4,2.1c0,0.2,0.6,0.6,1.4,0.8c1.2,0.3,1.2,0.4-0.2,0.5
		c-1.5,0.1-1.5,0.1,0,1.8c1.2,1.5,1.3,1.6,0.2,0.7c-1.3-1-1.4-0.5-1.4,6.6s0.1,7.6,1.4,6.6c1.1-0.9,1-0.8-0.2,0.7
		c-1.1,1.3-1.3,1.7-0.4,1.7c0.9,0,0.9,0.2-0.1,0.8c-0.9,0.5-0.9,0.9,0.4,2.5c1.2,1.3,1.3,1.6,0.2,0.7c-1.3-1-1.4-0.5-1.4,7.7
		c0,5.9,0.3,8.7,0.9,8.7c0.6,0,0.6,0.3,0,1.1c-0.8,0.9-0.5,1.2,1.6,1.5l2.6,0.3l-2.5,0.1c-2.7,0.2-3.1,0.8-1.6,2.4
		c0.8,0.9,0.7,0.9-0.1,0.5c-0.9-0.5-1,0.9-0.9,7.5c0.2,8,0.2,8.2,2.2,8.6l2,0.5l-2.3,0.1c-1.9,0.1-2.1,0.2-1.3,1.3
		c0.7,0.8,0.7,1.2,0.1,1.2c-0.5,0-0.9,2.7-0.9,8.7c0,6.7,0.2,8.6,1,8.1s0.8-0.3,0,0.5c-1.5,1.5-1.3,2.1,0.8,2.5
		c1.7,0.3,1.7,0.3-0.2,0.5c-1.6,0.1-1.7,0.2-0.8,1.4c0.8,0.9,0.8,1.1,0.2,0.7c-0.8-0.4-1,1.2-1,7.1c0,7.1,0.1,7.5,1.4,6.5
		c1.3-1,1.3-1,0,0.5c-1.1,1.3-1.2,1.8-0.5,2.5s0.7,0.9-0.2,0.9c-0.7,0-0.6,0.5,0.5,1.7c1.2,1.5,1.3,1.6,0.2,0.7
		c-1.3-1-1.4-0.5-1.4,8.1c0,7.1,0.2,9.1,1,8.6c0.7-0.5,0.7-0.3-0.1,0.6c-0.9,1.1-0.8,1.3,0.8,1.6l1.8,0.3l-1.7,0.2
		c-2,0.1-2.3,0.9-0.8,2.4c0.8,0.9,0.8,1,0,0.5s-1,1.1-1,6.5c0,4.8,0.3,7.1,0.9,7.1c0.6,0,0.6,0.3,0,1.1c-0.8,0.9-0.5,1.2,1.6,1.5
		l2.6,0.3l-2.5,0.1c-2.7,0.2-3.1,0.8-1.6,2.4c0.8,0.9,0.8,1,0,0.5s-1,1.4-1,8.2s0.2,8.6,1,8.2c0.8-0.5,0.8-0.3,0,0.5
		c-1.6,1.6-1.3,2.1,1.6,2.5l2.5,0.3l-2.7,0.1c-2.4,0.2-2.5,0.3-1.6,1.5c0.8,0.9,0.8,1.1,0.2,0.7c-0.8-0.4-1,1.2-1,7s0.2,7.5,1,7
		s0.8-0.3,0,0.5c-1.5,1.5-1.3,2.1,0.8,2.5c1.7,0.3,1.7,0.3-0.2,0.5c-1.6,0.1-1.7,0.2-0.8,1.4c0.8,0.9,0.8,1.1,0.2,0.7
		c-0.8-0.5-1,1.5-1,8.6s0.2,9,1,8.6c0.7-0.5,0.7-0.3-0.1,0.6c-0.9,1.1-0.8,1.3,0.4,1.6c1.3,0.3,1.3,0.4,0.1,0.5
		c-1.6,0.1-1.8,0.9-0.4,2.4c0.8,0.9,0.8,1,0,0.5s-1,1.2-1,7s0.2,7.4,1,7c0.7-0.5,0.7-0.3-0.1,0.6c-0.9,1.1-0.8,1.3,0.8,1.6l1.8,0.3
		l-1.7,0.2c-2,0.1-2.3,0.9-0.8,2.4c0.8,0.9,0.8,1,0,0.5s-1,1.4-1,8.2s0.2,8.6,1,8.2c0.8-0.5,0.8-0.3,0,0.5c-1.5,1.6-1.3,2.1,1.2,2.5
		l2.1,0.3l-2.3,0.2c-1.9,0.1-2.1,0.2-1.3,1.3c0.7,0.8,0.7,1.2,0.1,1.2c-0.5,0-0.9,2.4-0.9,7.1c0,5.4,0.2,7,1,6.5s0.8-0.3,0,0.5
		c-1.5,1.6-1.3,2.1,1.2,2.5l2.1,0.3l-2.3,0.2c-2,0.1-2.1,0.2-1.2,1.4c0.8,0.9,0.8,1.1,0.2,0.7c-0.8-0.5-1,1.5-1,8.6
		c0,8.6,0.1,9.1,1.4,8.1c1.1-0.9,1-0.8-0.2,0.7c-1.1,1.3-1.2,1.7-0.5,1.7c0.9,0,0.9,0.2,0.2,0.9s-0.6,1.3,0.5,2.5
		c1.2,1.4,1.2,1.5,0,0.6s-1.3-0.5-1.6,6.1c-0.2,5.9-0.1,7,0.9,6.7c0.8-0.3,0.7,0.1-0.3,1.2c-1.4,1.6-1.4,1.6,0.5,1.6l1.9,0.1l-2,0.6
		c-1.1,0.3-1.6,0.7-1.2,0.7c0.5,0.1,0.5,0.3,0,0.7c-0.5,0.3-1.3,2.1-1.9,4s-2.2,6-3.7,9c-1.5,3.1-2.7,6-2.7,6.8s-0.2,0.9-0.4,0.3
		s-2.4,1-5.3,3.9c-6.5,6.5-10.4,8.8-19.5,11.3c-2.5,0.7-4.6,1.6-4.6,1.9c0,0.4-0.5,0.5-1.1,0.2c-0.8-0.3-0.9,0.2-0.8,1.8
		c0.3,2-0.1,1.6-0.9-1.3c-0.3-0.9-0.5-0.9-1.6,0c-0.9,0.8-1.1,0.8-0.7,0.2c0.4-0.8-1.1-1-6.6-1s-7,0.2-6.6,1
		c0.4,0.6,0.2,0.6-0.7-0.2c-1.1-0.9-1.3-0.9-1.6,0C494.2,12798,493.8,12798.5,494.1,12796.5z"/>
	<path class="st0" d="M533.4,12788.7c-0.3-0.5-0.4-0.9-0.2-1.2c0.2-0.2,0.5,0.2,0.8,0.9C534.6,12789.8,534.1,12790,533.4,12788.7z"
		/>
	<path class="st0" d="M617.1,12561.3c0.5-0.9,1.2-1.6,1.4-1.3c0.2,0.2-0.2,0.9-1,1.7C616.2,12562.9,616.1,12562.9,617.1,12561.3z"/>
	<path class="st0" d="M674.7,12554.4c-0.8-0.6-1.1-1.2-0.6-1.2s1.3,0.5,1.9,1.2C677.2,12555.9,676.7,12555.9,674.7,12554.4z"/>
	<path class="st0" d="M399.5,12341.2c0-0.4,0.4-0.8,0.8-0.8c0.5,0,0.8,0.4,0.8,0.8c0,0.5-0.3,0.8-0.8,0.8
		C399.9,12341.9,399.5,12341.6,399.5,12341.2z"/>
	<path class="st0" d="M575.8,12169.2c0.8-0.9,1.6-1.6,1.8-1.6s-0.2,0.7-1,1.6c-0.8,0.9-1.6,1.6-1.8,1.6S575,12170,575.8,12169.2z"/>
	<path class="st0" d="M344.9,12010.5c-0.2-0.5,0.1-0.5,0.7-0.3c1.4,0.5,1.6,1.1,0.5,1.1C345.7,12011.3,345.2,12011,344.9,12010.5z"
		/>
</g>
</svg>
