<?xml version="1.0" encoding="utf-8"?>
<!-- Generator: Adobe Illustrator 24.0.0, SVG Export Plug-In . SVG Version: 6.00 Build 0)  -->
<svg version="1.1" id="Capa_1" xmlns="http://www.w3.org/2000/svg" xmlns:xlink="http://www.w3.org/1999/xlink" x="0px" y="0px"
	 viewBox="0 0 376.7 376.7" style="enable-background:new 0 0 376.7 376.7;" xml:space="preserve">
<style type="text/css">
	.st0{fill:#D570A7;}
	.st1{fill:#D05B9C;}
	.st2{fill:#DA88B4;}
	.st3{fill:#ABD1AD;}
	.st4{fill:#98C79C;}
</style>
<g id="XMLID_28_">
	<g id="XMLID_29_">
		<path id="XMLID_30_" class="st0" d="M142,203c0-19.6,48-63.2,48-63.2s48,43.6,48,63.2C238,208.8,142,208.8,142,203z"/>
		<path id="XMLID_31_" class="st1" d="M190,139.8L190,139.8l0,67.6c24,0,48-1.4,48-4.4C238,183.4,190,139.8,190,139.8z"/>
	</g>
	<path id="XMLID_45_" class="st1" d="M217.5,197.6c8.7-12.9,59.5-20.3,59.5-20.3s12.3,49.8,3.6,62.7
		C278.1,243.8,215,201.4,217.5,197.6z"/>
	<path id="XMLID_44_" class="st1" d="M260.7,227.1c8.1-8.1,45.8-6.3,45.8-6.3s1.8,37.7-6.3,45.8C297.9,269,258.3,229.4,260.7,227.1z
		"/>
	<path id="XMLID_43_" class="st0" d="M117.2,220.7c-8.1-8.1-45.8-6.3-45.8-6.3s-1.8,37.7,6.3,45.8
		C80.1,262.6,119.6,223.1,117.2,220.7z"/>
	<path id="XMLID_42_" class="st0" d="M164.8,196.2c-9.1-12.6-60.1-18.5-60.1-18.5s-10.8,50.2-1.7,62.8
		C105.8,244.3,167.5,199.9,164.8,196.2z"/>
	<path id="XMLID_41_" class="st0" d="M233.5,376.5h-4.7c-8.4,0-15.3-6.8-15.3-15.3v-47.7h35.3v47.7
		C248.7,369.6,241.9,376.5,233.5,376.5z"/>
	<path id="XMLID_40_" class="st0" d="M273.1,371.2h-4.7c-8.4,0-15.3-6.8-15.3-15.3v-47.7h35.3v47.7
		C288.3,364.4,281.5,371.2,273.1,371.2z"/>
	<path id="XMLID_39_" class="st2" d="M126.3,376.1l-4.5-1.3c-8.1-2.3-12.8-10.8-10.5-18.9l13.1-45.9l33.9,9.7l-13.1,45.9
		C142.9,373.7,134.5,378.4,126.3,376.1z"/>
	<path id="XMLID_38_" class="st2" d="M173.6,376.5h-4.7c-8.4,0-15.3-6.8-15.3-15.3v-47.7h35.3v47.7
		C188.9,369.6,182,376.5,173.6,376.5z"/>
	<path id="XMLID_37_" class="st2" d="M376.7,236.7c-88.3,48.7-93.7-16.3-150-40c-102.6-43.1-101,61.7-170,60
		c-47.5-1.1-67.7,36-50.8,59.8c9.7,13.7,29.1,14.2,40,10.2c59.7-21.7,80.3,29.3,90.8,20c9.1-8,39.8,5.1,55,5.1
		c4.9,0,54-10.8,55-25.1C305.4,312.1,352.7,277.5,376.7,236.7L376.7,236.7z"/>
	<path id="XMLID_71_" d="M34.6,286.7c-3.3,0-6,2.7-6,6c0,3.3,2.7,6,6,6s6-2.7,6-6C40.6,289.4,37.9,286.7,34.6,286.7z"/>
	<circle id="XMLID_85_" class="st3" cx="185" cy="213.2" r="15"/>
	<circle id="XMLID_86_" class="st3" cx="170" cy="238.2" r="10"/>
	<path id="XMLID_87_" class="st0" d="M226.7,196.7c-14-5.9-26.1-9-36.7-10v165.1c0.6,0,1.1,0,1.6,0c4.9,0,55.7-9.3,56.7-23.6
		c58.7-14.6,104.3-50.8,128.3-91.5C288.4,285.4,283,220.4,226.7,196.7z"/>
	<circle id="XMLID_88_" class="st4" cx="220" cy="228.2" r="10"/>
	<path id="XMLID_89_" class="st4" d="M190,199.1v28.3c5.8-2.1,10-7.6,10-14.1C200,206.7,195.9,201.2,190,199.1z"/>
</g>
</svg>
